# Blender 5.2.1 LTS
# www.blender.org
mtllib Batteries.mtl
o Cylinder
v -0.127442 0.033467 -0.028199
v -0.027021 0.149773 0.008628
v -0.100682 0.010361 -0.013555
v -0.019971 0.143686 0.012487
v -0.089597 0.000791 0.021801
v -0.017050 0.141165 0.021801
v -0.100682 0.010361 0.057156
v -0.019971 0.143686 0.031115
v -0.127442 0.033467 0.071801
v -0.027021 0.149773 0.034973
v -0.154203 0.056573 0.057156
v -0.034070 0.155860 0.031115
v -0.165288 0.066143 0.021801
v -0.036991 0.158382 0.021801
v -0.154203 0.056573 -0.013555
v -0.034070 0.155860 0.012487
v -0.000260 0.126667 -0.013555
v -0.027021 0.149773 -0.028199
v 0.010825 0.117097 0.021801
v -0.000260 0.126667 0.057156
v -0.027021 0.149773 0.071801
v -0.053781 0.172879 0.057156
v -0.064866 0.182450 0.021801
v -0.053781 0.172879 -0.013555
v -0.015729 0.148599 0.012487
v -0.022779 0.154686 0.008628
v -0.012809 0.146077 0.021801
v -0.015729 0.148599 0.031115
v -0.022779 0.154686 0.034973
v -0.029829 0.160773 0.031115
v -0.032749 0.163294 0.021801
v -0.029829 0.160773 0.012487
v -0.052779 0.100241 -0.129827
v 0.015697 0.063413 0.007733
v -0.021128 0.085596 -0.145582
v 0.024036 0.059555 0.003582
v -0.008018 0.050241 -0.152109
v 0.027490 0.050241 0.001863
v -0.021128 0.014885 -0.145582
v 0.024036 0.040926 0.003582
v -0.052779 0.000241 -0.129827
v 0.015697 0.037068 0.007733
v -0.084429 0.014885 -0.114072
v 0.007359 0.040926 0.011884
v -0.097540 0.050241 -0.107545
v 0.003905 0.050241 0.013603
v -0.084429 0.085596 -0.114072
v 0.007359 0.059555 0.011884
v 0.047348 0.085596 -0.008023
v 0.015697 0.100241 0.007733
v 0.060458 0.050241 -0.014549
v 0.047348 0.014885 -0.008023
v 0.015697 0.000241 0.007733
v -0.015953 0.014885 0.023488
v -0.029063 0.050241 0.030014
v -0.015953 0.085596 0.023488
v 0.026928 0.059555 0.009392
v 0.018590 0.063413 0.013543
v 0.030382 0.050241 0.007673
v 0.026928 0.040926 0.009392
v 0.018590 0.037068 0.013543
v 0.010251 0.040926 0.017694
v 0.006798 0.050241 0.019413
v 0.010251 0.059555 0.017694
v -0.043041 0.055177 0.049887
v 0.110620 0.055177 0.086715
v -0.043041 0.019822 0.064532
v 0.110620 0.045863 0.090573
v -0.043041 0.005177 0.099887
v 0.110620 0.042005 0.099887
v -0.043041 0.019822 0.135243
v 0.110620 0.045863 0.109202
v -0.043041 0.055177 0.149887
v 0.110620 0.055177 0.113060
v -0.043041 0.090533 0.135243
v 0.110620 0.064491 0.109202
v -0.043041 0.105177 0.099887
v 0.110620 0.068350 0.099887
v -0.043041 0.090533 0.064532
v 0.110620 0.064491 0.090573
v 0.110620 0.019822 0.064532
v 0.110620 0.055177 0.049887
v 0.110620 0.005177 0.099887
v 0.110620 0.019822 0.135243
v 0.110620 0.055177 0.149887
v 0.110620 0.090533 0.135243
v 0.110620 0.105177 0.099887
v 0.110620 0.090533 0.064532
v 0.117110 0.045863 0.090573
v 0.117110 0.055177 0.086715
v 0.117110 0.042005 0.099887
v 0.117110 0.045863 0.109202
v 0.117110 0.055177 0.113060
v 0.117110 0.064491 0.109202
v 0.117110 0.068350 0.099887
v 0.117110 0.064491 0.090573
v 0.112837 -0.000005 -0.049591
v 0.112837 0.153655 -0.012763
v 0.148193 -0.000006 -0.034946
v 0.122152 0.153655 -0.008905
v 0.162837 -0.000006 0.000409
v 0.126010 0.153655 0.000409
v 0.148193 -0.000006 0.035764
v 0.122152 0.153655 0.009723
v 0.112837 -0.000005 0.050409
v 0.112837 0.153655 0.013581
v 0.077482 -0.000006 0.035764
v 0.103523 0.153655 0.009723
v 0.062837 -0.000006 0.000409
v 0.099665 0.153655 0.000409
v 0.077482 -0.000006 -0.034946
v 0.103523 0.153655 -0.008905
v 0.148193 0.153655 -0.034946
v 0.112837 0.153655 -0.049591
v 0.162837 0.153655 0.000409
v 0.148193 0.153655 0.035764
v 0.112837 0.153655 0.050409
v 0.077482 0.153655 0.035764
v 0.062837 0.153655 0.000409
v 0.077482 0.153655 -0.034946
v 0.122152 0.160146 -0.008905
v 0.112837 0.160146 -0.012763
v 0.126010 0.160146 0.000409
v 0.122152 0.160146 0.009723
v 0.112837 0.160146 0.013581
v 0.103523 0.160146 0.009723
v 0.099665 0.160146 0.000409
v 0.103523 0.160146 -0.008905
vn -0.0000 -0.0000 -1.0000
vn 0.5352 -0.4621 -0.7071
vn 0.7569 -0.6535 -0.0000
vn 0.5352 -0.4621 0.7071
vn -0.0000 -0.0000 1.0000
vn -0.5352 0.4621 0.7071
vn -0.7569 0.6535 -0.0000
vn -0.0036 0.8358 0.5490
vn -0.1758 0.9844 -0.0000
vn -0.5352 0.4621 -0.7071
vn -0.6535 -0.7569 -0.0000
vn 0.6535 0.7569 -0.0000
vn 0.8274 0.1183 -0.5490
vn 0.4119 0.4770 -0.7764
vn -0.0036 0.8358 -0.5490
vn 0.4119 0.4770 0.7764
vn 0.8274 0.1183 0.5490
vn 0.9995 -0.0304 -0.0000
vn -0.0000 1.0000 -0.0000
vn 0.6330 0.7071 -0.3151
vn 0.8952 -0.0000 -0.4456
vn 0.6330 -0.7071 -0.3151
vn -0.0000 -1.0000 -0.0000
vn -0.6330 -0.7071 0.3151
vn -0.8952 -0.0000 0.4456
vn -0.2106 -0.5490 0.8089
vn -0.4142 -0.0000 0.9102
vn -0.6330 0.7071 0.3151
vn -0.4456 -0.0000 -0.8952
vn 0.4456 -0.0000 0.8952
vn 0.7723 0.5490 0.3196
vn 0.2809 0.7764 0.5642
vn -0.2106 0.5490 0.8089
vn 0.2809 -0.7764 0.5642
vn 0.7723 -0.5490 0.3196
vn 0.9759 -0.0000 0.2182
vn -0.0000 -0.7071 -0.7071
vn -0.0000 -0.7071 0.7071
vn -0.0000 0.7071 0.7071
vn 0.6303 0.5490 0.5490
vn 0.6303 0.7764 -0.0000
vn -0.0000 0.7071 -0.7071
vn -1.0000 -0.0000 -0.0000
vn 1.0000 -0.0000 -0.0000
vn 0.6303 -0.5490 -0.5490
vn 0.6303 -0.0000 -0.7764
vn 0.6303 0.5490 -0.5490
vn 0.6303 -0.0000 0.7764
vn 0.6303 -0.5490 0.5490
vn 0.6303 -0.7764 -0.0000
vn 0.7071 -0.0000 -0.7071
vn 0.7071 -0.0000 0.7071
vn -0.7071 -0.0000 0.7071
vn -0.5490 0.6303 0.5490
vn -0.7764 0.6303 -0.0000
vn -0.7071 -0.0000 -0.7071
vn 0.5490 0.6303 -0.5490
vn -0.0000 0.6303 -0.7764
vn -0.5490 0.6303 -0.5490
vn -0.0000 0.6303 0.7764
vn 0.5490 0.6303 0.5490
vn 0.7764 0.6303 -0.0000
vt 0.009595 0.967646
vt 0.009595 0.360099
vt 0.153630 0.360099
vt 0.153630 0.967646
vt 0.297665 0.360099
vt 0.297665 0.967646
vt 0.441700 0.360099
vt 0.441700 0.967646
vt 0.585735 0.360099
vt 0.585735 0.967646
vt 0.009595 0.967646
vt 0.153630 0.967646
vt 0.297665 0.967646
vt 0.763166 0.822166
vt 0.763166 0.784468
vt 0.771609 0.787966
vt 0.771609 0.818669
vt 0.441700 0.967646
vt 0.585735 0.967646
vt 0.883305 0.606571
vt 0.995547 0.494328
vt 0.995547 0.335593
vt 0.883305 0.223350
vt 0.724570 0.223350
vt 0.612327 0.335593
vt 0.612327 0.494328
vt 0.724570 0.606571
vt 0.827520 0.848822
vt 0.854176 0.822166
vt 0.981401 0.874864
vt 0.880218 0.976047
vt 0.854176 0.784468
vt 0.981401 0.731770
vt 0.827520 0.757812
vt 0.880218 0.630587
vt 0.789822 0.757812
vt 0.737124 0.630587
vt 0.635941 0.731770
vt 0.635941 0.874864
vt 0.789822 0.848822
vt 0.737124 0.976047
vt 0.845733 0.818669
vt 0.824023 0.840379
vt 0.793320 0.840379
vt 0.793319 0.766255
vt 0.824023 0.766255
vt 0.845733 0.787966
s 1
usemtl Material.001
f 1/1/1 18/2/1 17/3/2 3/4/2
f 3/4/2 17/3/2 19/5/3 5/6/3
f 5/6/3 19/5/3 20/7/4 7/8/4
f 7/8/4 20/7/4 21/9/5 9/10/5
f 9/11/5 21/2/5 22/3/6 11/12/6
f 11/12/6 22/3/6 23/5/7 13/13/7
f 14/14/7 12/15/6 30/16/8 31/17/9
f 13/13/7 23/5/7 24/7/10 15/18/10
f 15/18/10 24/7/10 18/9/1 1/19/1
s 0
f 1/20/11 3/21/11 5/22/11 7/23/11 9/24/11 11/25/11 13/26/11 15/27/11
f 2/28/12 4/29/12 17/30/12 18/31/12
f 4/29/12 6/32/12 19/33/12 17/30/12
f 6/32/12 8/34/12 20/35/12 19/33/12
f 8/34/12 10/36/12 21/37/12 20/35/12
f 10/36/12 12/15/12 22/38/12 21/37/12
f 12/15/12 14/14/12 23/39/12 22/38/12
f 14/14/12 16/40/12 24/41/12 23/39/12
f 16/40/12 2/28/12 18/31/12 24/41/12
s 1
f 25/42/13 26/43/14 32/44/15 31/17/9 30/16/8 29/45/16 28/46/17 27/47/18
f 10/36/5 8/34/4 28/46/17 29/45/16
f 6/32/3 4/29/2 25/42/13 27/47/18
f 16/40/10 14/14/7 31/17/9 32/44/15
f 12/15/6 10/36/5 29/45/16 30/16/8
f 8/34/4 6/32/3 27/47/18 28/46/17
f 4/29/2 2/28/1 26/43/14 25/42/13
f 2/28/1 16/40/10 32/44/15 26/43/14
f 33/1/19 50/2/19 49/3/20 35/4/20
f 35/4/20 49/3/20 51/5/21 37/6/21
f 37/6/21 51/5/21 52/7/22 39/8/22
f 39/8/22 52/7/22 53/9/23 41/10/23
f 41/11/23 53/2/23 54/3/24 43/12/24
f 43/12/24 54/3/24 55/5/25 45/13/25
f 46/14/25 44/15/24 62/16/26 63/17/27
f 45/13/25 55/5/25 56/7/28 47/18/28
f 47/18/28 56/7/28 50/9/19 33/19/19
s 0
f 33/20/29 35/21/29 37/22/29 39/23/29 41/24/29 43/25/29 45/26/29 47/27/29
f 34/28/30 36/29/30 49/30/30 50/31/30
f 36/29/30 38/32/30 51/33/30 49/30/30
f 38/32/30 40/34/30 52/35/30 51/33/30
f 40/34/30 42/36/30 53/37/30 52/35/30
f 42/36/30 44/15/30 54/38/30 53/37/30
f 44/15/30 46/14/30 55/39/30 54/38/30
f 46/14/30 48/40/30 56/41/30 55/39/30
f 48/40/30 34/28/30 50/31/30 56/41/30
s 1
f 57/42/31 58/43/32 64/44/33 63/17/27 62/16/26 61/45/34 60/46/35 59/47/36
f 42/36/23 40/34/22 60/46/35 61/45/34
f 38/32/21 36/29/20 57/42/31 59/47/36
f 48/40/28 46/14/25 63/17/27 64/44/33
f 44/15/24 42/36/23 61/45/34 62/16/26
f 40/34/22 38/32/21 59/47/36 60/46/35
f 36/29/20 34/28/19 58/43/32 57/42/31
f 34/28/19 48/40/28 64/44/33 58/43/32
f 65/1/1 82/2/1 81/3/37 67/4/37
f 67/4/37 81/3/37 83/5/23 69/6/23
f 69/6/23 83/5/23 84/7/38 71/8/38
f 71/8/38 84/7/38 85/9/5 73/10/5
f 73/11/5 85/2/5 86/3/39 75/12/39
f 75/12/39 86/3/39 87/5/19 77/13/19
f 78/14/19 76/15/39 94/16/40 95/17/41
f 77/13/19 87/5/19 88/7/42 79/18/42
f 79/18/42 88/7/42 82/9/1 65/19/1
s 0
f 65/20/43 67/21/43 69/22/43 71/23/43 73/24/43 75/25/43 77/26/43 79/27/43
f 66/28/44 68/29/44 81/30/44 82/31/44
f 68/29/44 70/32/44 83/33/44 81/30/44
f 70/32/44 72/34/44 84/35/44 83/33/44
f 72/34/44 74/36/44 85/37/44 84/35/44
f 74/36/44 76/15/44 86/38/44 85/37/44
f 76/15/44 78/14/44 87/39/44 86/38/44
f 78/14/44 80/40/44 88/41/44 87/39/44
f 80/40/44 66/28/44 82/31/44 88/41/44
s 1
f 89/42/45 90/43/46 96/44/47 95/17/41 94/16/40 93/45/48 92/46/49 91/47/50
f 74/36/5 72/34/38 92/46/49 93/45/48
f 70/32/23 68/29/37 89/42/45 91/47/50
f 80/40/42 78/14/19 95/17/41 96/44/47
f 76/15/39 74/36/5 93/45/48 94/16/40
f 72/34/38 70/32/23 91/47/50 92/46/49
f 68/29/37 66/28/1 90/43/46 89/42/45
f 66/28/1 80/40/42 96/44/47 90/43/46
f 97/1/1 114/2/1 113/3/51 99/4/51
f 99/4/51 113/3/51 115/5/44 101/6/44
f 101/6/44 115/5/44 116/7/52 103/8/52
f 103/8/52 116/7/52 117/9/5 105/10/5
f 105/11/5 117/2/5 118/3/53 107/12/53
f 107/12/53 118/3/53 119/5/43 109/13/43
f 110/14/43 108/15/53 126/16/54 127/17/55
f 109/13/43 119/5/43 120/7/56 111/18/56
f 111/18/56 120/7/56 114/9/1 97/19/1
s 0
f 97/20/23 99/21/23 101/22/23 103/23/23 105/24/23 107/25/23 109/26/23 111/27/23
f 98/28/19 100/29/19 113/30/19 114/31/19
f 100/29/19 102/32/19 115/33/19 113/30/19
f 102/32/19 104/34/19 116/35/19 115/33/19
f 104/34/19 106/36/19 117/37/19 116/35/19
f 106/36/19 108/15/19 118/38/19 117/37/19
f 108/15/19 110/14/19 119/39/19 118/38/19
f 110/14/19 112/40/19 120/41/19 119/39/19
f 112/40/19 98/28/19 114/31/19 120/41/19
s 1
f 121/42/57 122/43/58 128/44/59 127/17/55 126/16/54 125/45/60 124/46/61 123/47/62
f 106/36/5 104/34/52 124/46/61 125/45/60
f 102/32/44 100/29/51 121/42/57 123/47/62
f 112/40/56 110/14/43 127/17/55 128/44/59
f 108/15/53 106/36/5 125/45/60 126/16/54
f 104/34/52 102/32/44 123/47/62 124/46/61
f 100/29/51 98/28/1 122/43/58 121/42/57
f 98/28/1 112/40/56 128/44/59 122/43/58
