# Blender 5.2.1 LTS
# www.blender.org
mtllib Chalk.mtl
o Cube.001
v 0.050000 0.200396 -0.100000
v 0.050000 0.000396 -0.100000
v 0.050000 0.200396 0.100000
v 0.050000 0.000396 0.100000
v -0.100000 0.200396 -0.100000
v -0.100000 0.000396 -0.100000
v -0.100000 0.200396 0.100000
v -0.100000 0.000396 0.100000
v -0.078026 0.255608 0.140454
v -0.078026 0.255608 -0.140454
v 0.028026 0.255608 0.140454
v 0.028026 0.255608 -0.140454
v -0.169961 0.333082 -0.100000
v -0.169961 0.333082 0.100000
v -0.156586 0.350306 -0.084242
v -0.156586 0.350306 0.084242
v 0.050000 0.200396 -0.100000
v 0.050000 0.000396 -0.100000
v 0.050000 0.200396 0.100000
v 0.050000 0.000396 0.100000
v -0.100000 0.200396 -0.100000
v -0.100000 0.000396 -0.100000
v -0.100000 0.200396 0.100000
v -0.100000 0.000396 0.100000
v -0.078026 0.255608 0.140454
v -0.078026 0.255608 -0.140454
v 0.028026 0.255608 0.140454
v 0.028026 0.255608 -0.140454
v -0.169961 0.333082 -0.100000
v -0.169961 0.333082 0.100000
v -0.156586 0.350306 -0.084242
v -0.156586 0.350306 0.084242
v 0.042058 0.016347 0.072175
v 0.042058 0.197531 0.072175
v 0.039926 0.016347 0.092834
v 0.039926 0.197531 0.092834
v 0.019620 0.016347 0.097190
v 0.019620 0.197531 0.097190
v 0.009201 0.016347 0.079224
v 0.009201 0.197531 0.079224
v 0.023069 0.016347 0.063764
v 0.023069 0.197531 0.063764
v 0.035914 0.016347 0.032555
v 0.035914 0.197531 0.032555
v 0.044588 0.016347 0.051425
v 0.044588 0.197531 0.051425
v 0.029322 0.016347 0.065506
v 0.029322 0.197531 0.065506
v 0.011213 0.016347 0.055338
v 0.011213 0.197531 0.055338
v 0.015287 0.016347 0.034973
v 0.015287 0.197531 0.034973
v 0.036227 0.016347 -0.000549
v 0.036227 0.197531 -0.000549
v 0.045015 0.016347 0.018269
v 0.045015 0.197531 0.018269
v 0.029834 0.016347 0.032441
v 0.029834 0.197531 0.032441
v 0.011664 0.016347 0.022383
v 0.011664 0.197531 0.022383
v 0.015615 0.016347 0.001994
v 0.015615 0.197531 0.001994
v 0.033000 0.016347 -0.034556
v 0.033000 0.197531 -0.034556
v 0.044930 0.016347 -0.017556
v 0.044930 0.197531 -0.017556
v 0.032449 0.016347 -0.000957
v 0.032449 0.197531 -0.000957
v 0.012805 0.016347 -0.007698
v 0.012805 0.197531 -0.007698
v 0.013146 0.016347 -0.028463
v 0.013146 0.197531 -0.028463
v 0.042692 0.016347 -0.060403
v 0.042692 0.197531 -0.060403
v 0.041389 0.016347 -0.039676
v 0.041389 0.197531 -0.039676
v 0.021274 0.016347 -0.034509
v 0.021274 0.197531 -0.034509
v 0.010144 0.016347 -0.052044
v 0.010144 0.197531 -0.052044
v 0.023381 0.016347 -0.068047
v 0.023381 0.197531 -0.068047
v 0.006319 0.016347 0.070639
v 0.006319 0.197531 0.070639
v 0.006340 0.016347 0.091407
v 0.006340 0.197531 0.091407
v -0.013406 0.016347 0.097845
v -0.013406 0.197531 0.097845
v -0.025630 0.016347 0.081055
v -0.025630 0.197531 0.081055
v -0.013439 0.016347 0.064241
v -0.013439 0.197531 0.064241
v 0.009936 0.016347 0.050966
v 0.009936 0.197531 0.050966
v -0.004953 0.016347 0.065445
v -0.004953 0.197531 0.065445
v -0.023324 0.016347 0.055760
v -0.023324 0.197531 0.055760
v -0.019790 0.016347 0.035294
v -0.019790 0.197531 0.035294
v 0.000766 0.016347 0.032331
v 0.000766 0.197531 0.032331
v 0.010600 0.016347 0.015005
v 0.010600 0.197531 0.015005
v -0.001699 0.016347 0.031739
v -0.001699 0.197531 0.031739
v -0.021416 0.016347 0.025214
v -0.021416 0.197531 0.025214
v -0.021302 0.016347 0.004445
v -0.021302 0.197531 0.004445
v -0.001515 0.016347 -0.001864
v -0.001515 0.197531 -0.001864
v -0.012625 0.016347 -0.034744
v -0.012625 0.197531 -0.034744
v 0.007007 0.016347 -0.027969
v 0.007007 0.197531 -0.027969
v 0.006630 0.016347 -0.007204
v 0.006630 0.197531 -0.007204
v -0.013235 0.016347 -0.001146
v -0.013235 0.197531 -0.001146
v -0.025135 0.016347 -0.018167
v -0.025135 0.197531 -0.018167
v 0.001570 0.016347 -0.066405
v 0.001570 0.197531 -0.066405
v 0.010387 0.016347 -0.047602
v 0.010387 0.197531 -0.047602
v -0.004771 0.016347 -0.033405
v -0.004771 0.197531 -0.033405
v -0.022957 0.016347 -0.043435
v -0.022957 0.197531 -0.043435
v -0.019038 0.016347 -0.063831
v -0.019038 0.197531 -0.063831
v 0.041229 0.020804 -0.099442
v -0.000927 0.197015 -0.099442
v 0.049877 0.022873 -0.080674
v 0.007721 0.199084 -0.080674
v 0.035189 0.019359 -0.066417
v -0.006966 0.195570 -0.066417
v 0.017464 0.015119 -0.076374
v -0.024692 0.191330 -0.076374
v 0.021196 0.016012 -0.096785
v -0.020959 0.192223 -0.096785
v -0.039897 0.016347 0.063595
v -0.039897 0.197531 0.063595
v -0.025246 0.016347 0.078314
v -0.025246 0.197531 0.078314
v -0.034717 0.016347 0.096797
v -0.034717 0.197531 0.096797
v -0.055222 0.016347 0.093501
v -0.055222 0.197531 0.093501
v -0.058424 0.016347 0.072981
v -0.058424 0.197531 0.072981
v -0.027817 0.016347 0.037717
v -0.027817 0.197531 0.037717
v -0.028022 0.016347 0.058484
v -0.028022 0.197531 0.058484
v -0.047836 0.016347 0.064706
v -0.047836 0.197531 0.064706
v -0.059877 0.016347 0.047785
v -0.059877 0.197531 0.047785
v -0.047504 0.016347 0.031104
v -0.047504 0.197531 0.031104
v -0.033248 0.016347 -0.000549
v -0.033248 0.197531 -0.000549
v -0.024461 0.016347 0.018269
v -0.024461 0.197531 0.018269
v -0.039642 0.016347 0.032441
v -0.039642 0.197531 0.032441
v -0.057812 0.016347 0.022383
v -0.057812 0.197531 0.022383
v -0.053860 0.016347 0.001994
v -0.053860 0.197531 0.001994
v -0.033561 0.016347 -0.033251
v -0.033561 0.197531 -0.033251
v -0.024886 0.016347 -0.014381
v -0.024886 0.197531 -0.014381
v -0.040152 0.016347 -0.000300
v -0.040152 0.197531 -0.000300
v -0.058261 0.016347 -0.010467
v -0.058261 0.197531 -0.010467
v -0.054188 0.016347 -0.030832
v -0.054188 0.197531 -0.030832
v -0.033168 0.016347 -0.066405
v -0.033168 0.197531 -0.066405
v -0.024351 0.016347 -0.047602
v -0.024351 0.197531 -0.047602
v -0.039509 0.016347 -0.033405
v -0.039509 0.197531 -0.033405
v -0.057695 0.016347 -0.043435
v -0.057695 0.197531 -0.043435
v -0.053776 0.016347 -0.063831
v -0.053776 0.197531 -0.063831
v -0.032960 0.016347 -0.099442
v -0.032960 0.197531 -0.099442
v -0.024068 0.016347 -0.080674
v -0.024068 0.197531 -0.080674
v -0.039170 0.016347 -0.066417
v -0.039170 0.197531 -0.066417
v -0.057396 0.016347 -0.076374
v -0.057396 0.197531 -0.076374
v -0.053558 0.016347 -0.096785
v -0.053558 0.197531 -0.096785
v -0.062584 0.016347 0.071475
v -0.062584 0.197531 0.071475
v -0.063754 0.016347 0.092210
v -0.063754 0.197531 0.092210
v -0.083836 0.016347 0.097505
v -0.083836 0.197531 0.097505
v -0.095078 0.016347 0.080042
v -0.095078 0.197531 0.080042
v -0.081943 0.016347 0.063955
v -0.081943 0.197531 0.063955
v -0.068300 0.016347 0.032555
v -0.068300 0.197531 0.032555
v -0.059626 0.016347 0.051425
v -0.059626 0.197531 0.051425
v -0.074892 0.016347 0.065506
v -0.074892 0.197531 0.065506
v -0.093001 0.016347 0.055338
v -0.093001 0.197531 0.055338
v -0.088927 0.016347 0.034973
v -0.088927 0.197531 0.034973
v -0.087140 0.016347 0.000772
v -0.087140 0.197531 0.000772
v -0.066374 0.016347 0.000461
v -0.066374 0.197531 0.000461
v -0.059661 0.016347 0.020115
v -0.059661 0.197531 0.020115
v -0.076278 0.016347 0.032572
v -0.076278 0.197531 0.032572
v -0.093261 0.016347 0.020618
v -0.093261 0.197531 0.020618
v -0.062575 0.016347 -0.028119
v -0.062575 0.197531 -0.028119
v -0.062736 0.016347 -0.007352
v -0.062736 0.197531 -0.007352
v -0.082537 0.016347 -0.001087
v -0.082537 0.197531 -0.001087
v -0.094614 0.016347 -0.017983
v -0.094614 0.197531 -0.017983
v -0.082277 0.016347 -0.034690
v -0.082277 0.197531 -0.034690
v -0.059008 0.016347 -0.062348
v -0.059008 0.197531 -0.062348
v -0.058904 0.016347 -0.041580
v -0.058904 0.197531 -0.041580
v -0.078624 0.016347 -0.035064
v -0.078624 0.197531 -0.035064
v -0.090915 0.016347 -0.051805
v -0.090915 0.197531 -0.051805
v -0.078791 0.016347 -0.068667
v -0.078791 0.197531 -0.068667
v -0.088470 0.016347 -0.099573
v -0.088470 0.197531 -0.099573
v -0.068241 0.016347 -0.094873
v -0.068241 0.197531 -0.094873
v -0.066460 0.016347 -0.074181
v -0.066460 0.197531 -0.074181
v -0.085588 0.016347 -0.066093
v -0.085588 0.197531 -0.066093
v -0.099192 0.016347 -0.081786
v -0.099192 0.197531 -0.081786
v -0.002121 0.000597 -0.119666
v -0.010953 0.018166 -0.112983
v -0.014437 0.030280 -0.129489
v -0.007758 0.020198 -0.146373
v -0.000147 0.001853 -0.140302
v 0.065571 0.031449 -0.111311
v 0.072720 0.056302 -0.102656
v 0.073856 0.070521 -0.118591
v 0.082895 0.061515 -0.135184
v 0.075957 0.036539 -0.130909
v 0.060867 0.002147 -0.041771
v 0.054495 0.021914 -0.041775
v 0.071320 0.034081 -0.042203
v 0.088091 0.021834 -0.042465
v 0.081631 0.002098 -0.042198
v 0.058682 0.001425 -0.148071
v 0.052673 0.021311 -0.130405
v 0.069604 0.033513 -0.125726
v 0.086429 0.021284 -0.123378
v 0.079637 0.001438 -0.139197
vn -0.0000 -0.0000 -1.0000
vn 1.0000 -0.0000 -0.0000
vn -0.0000 1.0000 -0.0000
vn -1.0000 -0.0000 -0.0000
vn -0.0000 -0.0000 1.0000
vn -0.0000 0.5910 -0.8066
vn -0.0000 0.5910 0.8066
vn 0.8846 0.4664 -0.0000
vn 0.7898 -0.6133 -0.0000
vn -0.0000 -1.0000 -0.0000
vn -0.0000 -0.5910 0.8066
vn -0.0000 -0.5910 -0.8066
vn -0.8846 -0.4664 -0.0000
vn -0.7898 0.6133 -0.0000
vn 0.8651 -0.0000 -0.5016
vn 0.7444 -0.0000 0.6677
vn -0.4050 -0.0000 0.9143
vn -0.9947 -0.0000 -0.1026
vn -0.2098 -0.0000 -0.9777
vn 0.4896 -0.0000 -0.8720
vn 0.9806 -0.0000 0.1962
vn 0.1164 -0.0000 0.9932
vn -0.9086 -0.0000 0.4177
vn -0.6780 -0.0000 -0.7351
vn 0.4843 -0.0000 -0.8749
vn 0.9817 -0.0000 0.1903
vn 0.1224 -0.0000 0.9925
vn -0.9061 -0.0000 0.4231
vn -0.6824 -0.0000 -0.7310
vn 0.3246 -0.0000 -0.9459
vn 0.9999 -0.0000 0.0164
vn 0.2934 -0.0000 0.9560
vn -0.8185 -0.0000 0.5744
vn -0.7993 -0.0000 -0.6010
vn 0.8443 -0.0000 -0.5359
vn 0.7706 -0.0000 0.6374
vn -0.3681 -0.0000 0.9298
vn -0.9980 -0.0000 -0.0627
vn -0.2488 -0.0000 -0.9686
vn 0.8084 -0.0000 -0.5886
vn 0.8096 -0.0000 0.5870
vn -0.3081 -0.0000 0.9514
vn -1.0000 -0.0000 0.0010
vn -0.3100 -0.0000 -0.9507
vn 0.9854 -0.0000 0.1702
vn 0.1427 -0.0000 0.9898
vn -0.8972 -0.0000 0.4415
vn -0.6972 -0.0000 -0.7169
vn 0.4664 -0.0000 -0.8846
vn 1.0000 -0.0000 0.0055
vn 0.3038 -0.0000 0.9527
vn -0.8122 -0.0000 0.5833
vn -0.8058 -0.0000 -0.5922
vn 0.3142 -0.0000 -0.9494
vn -0.2917 -0.0000 -0.9565
vn 0.8195 -0.0000 -0.5730
vn 0.7982 -0.0000 0.6024
vn -0.3262 -0.0000 0.9453
vn -0.9998 -0.0000 -0.0181
vn 0.4829 -0.0000 -0.8756
vn 0.9820 -0.0000 0.1887
vn 0.1240 -0.0000 0.9923
vn -0.9054 -0.0000 0.4245
vn -0.6836 -0.0000 -0.7299
vn 0.4663 0.1115 -0.8776
vn 0.9558 0.2287 0.1848
vn 0.1244 0.0298 0.9918
vn -0.8789 -0.2103 0.4282
vn -0.2327 0.9726 -0.0000
vn -0.6676 -0.1597 -0.7272
vn 0.1587 -0.0000 -0.9873
vn 0.9880 -0.0000 -0.1542
vn 0.4519 -0.0000 0.8921
vn -0.7087 -0.0000 0.7055
vn -0.8900 -0.0000 -0.4560
vn 0.8148 -0.0000 -0.5798
vn 0.8032 -0.0000 0.5957
vn -0.3184 -0.0000 0.9480
vn -1.0000 -0.0000 -0.0099
vn -0.2996 -0.0000 -0.9541
vn 0.9806 -0.0000 0.1961
vn 0.1165 -0.0000 0.9932
vn 0.4794 -0.0000 -0.8776
vn 0.9828 -0.0000 0.1848
vn 0.1280 -0.0000 0.9918
vn -0.9037 -0.0000 0.4282
vn -0.6865 -0.0000 -0.7272
vn 0.8408 -0.0000 -0.5413
vn 0.7746 -0.0000 0.6324
vn -0.3621 -0.0000 0.9321
vn -0.9984 -0.0000 -0.0563
vn -0.2550 -0.0000 -0.9670
vn -0.5998 -0.0000 -0.8001
vn 0.5756 -0.0000 -0.8177
vn 0.9556 -0.0000 0.2947
vn 0.0150 -0.0000 0.9999
vn -0.9463 -0.0000 0.3232
vn 0.8135 -0.0000 -0.5815
vn 0.8044 -0.0000 0.5940
vn -0.3164 -0.0000 0.9486
vn -1.0000 -0.0000 -0.0077
vn -0.3017 -0.0000 -0.9534
vn 0.8061 -0.0000 -0.5918
vn 0.8119 -0.0000 0.5838
vn -0.3043 -0.0000 0.9526
vn -1.0000 -0.0000 0.0050
vn -0.3137 -0.0000 -0.9495
vn -0.3894 -0.0000 -0.9211
vn 0.7556 -0.0000 -0.6550
vn 0.8564 -0.0000 0.5162
vn -0.2263 -0.0000 0.9741
vn -0.9963 -0.0000 0.0858
vn 0.9349 -0.1578 0.3180
vn 0.2210 0.5215 -0.8241
vn 0.3927 -0.6999 -0.5966
vn 0.3445 -0.5499 -0.7609
vn 0.2650 -0.7467 0.6101
vn 0.2809 -0.7710 0.5715
vn -0.0382 0.3384 -0.9402
vn -0.1068 0.4714 -0.8755
vn -0.4163 0.9091 0.0155
vn -0.4063 0.9109 -0.0716
vn -0.2191 0.2234 0.9498
vn -0.3033 0.4361 0.8473
vn -0.5042 -0.8634 0.0162
vn -0.5895 -0.8076 0.0176
vn -0.9502 0.3113 0.0174
vn -0.9916 0.1278 0.0195
vn 0.0022 1.0000 -0.0068
vn -0.0791 0.9969 -0.0052
vn 0.9515 0.3067 -0.0216
vn 0.9771 0.2116 -0.0215
vn 0.0205 0.0068 0.9998
vn 0.5858 -0.8104 -0.0065
vn 0.3541 -0.9352 -0.0009
vt 0.354665 0.008677
vt 0.147698 0.008677
vt 0.147698 0.284633
vt 0.354665 0.284633
vt 0.075144 0.008677
vt 0.351100 0.008677
vt 0.351100 0.284633
vt 0.075144 0.284633
vt 0.147698 0.370924
vt 0.147698 0.094967
vt 0.354665 0.094967
vt 0.354665 0.370924
vt 0.178018 0.360813
vt 0.324345 0.360813
vt 0.351100 0.467710
vt 0.075144 0.467710
vt 0.329358 0.491476
vt 0.096886 0.491476
vt 0.488729 0.514691
vt 0.488729 0.788820
vt 0.283131 0.788820
vt 0.283131 0.514691
vt 0.211057 0.514691
vt 0.211057 0.788820
vt 0.485187 0.788820
vt 0.485187 0.514691
vt 0.283131 0.874540
vt 0.488729 0.874540
vt 0.488729 0.600410
vt 0.283131 0.600410
vt 0.458610 0.864496
vt 0.313250 0.864496
vt 0.211057 0.970686
vt 0.485187 0.970686
vt 0.232656 0.994294
vt 0.463589 0.994294
vt 0.525334 0.772640
vt 0.996764 0.772640
vt 0.996764 0.834594
vt 0.525334 0.834594
vt 0.597302 0.811113
vt 0.565989 0.833863
vt 0.534677 0.811113
vt 0.546637 0.774304
vt 0.585341 0.774304
vt 0.525334 0.699781
vt 0.996764 0.699781
vt 0.996764 0.761735
vt 0.525334 0.761735
vt 0.597302 0.738254
vt 0.565989 0.761004
vt 0.534677 0.738254
vt 0.546637 0.701444
vt 0.585341 0.701444
vt 0.525334 0.540136
vt 0.996764 0.540136
vt 0.996764 0.602089
vt 0.525334 0.602089
vt 0.597302 0.578608
vt 0.565989 0.601358
vt 0.534677 0.578608
vt 0.546637 0.541799
vt 0.585341 0.541799
vt 0.525334 0.461390
vt 0.996764 0.461390
vt 0.996764 0.523344
vt 0.525334 0.523344
vt 0.597302 0.499863
vt 0.565989 0.522613
vt 0.534677 0.499863
vt 0.546637 0.463054
vt 0.585341 0.463054
vt 0.525334 0.620680
vt 0.996764 0.620680
vt 0.996764 0.682633
vt 0.525334 0.682633
vt 0.597302 0.659153
vt 0.565989 0.681902
vt 0.534677 0.659153
vt 0.546637 0.622343
vt 0.585341 0.622343
vt 0.525334 0.698805
vt 0.996764 0.698805
vt 0.996764 0.760758
vt 0.525334 0.760758
vt 0.597302 0.737278
vt 0.565989 0.760027
vt 0.534677 0.737278
vt 0.546637 0.700468
vt 0.585341 0.700468
vt 0.525334 0.855736
vt 0.996764 0.855736
vt 0.996764 0.917690
vt 0.525334 0.917690
vt 0.597302 0.894209
vt 0.565989 0.916958
vt 0.534677 0.894209
vt 0.546637 0.857399
vt 0.585341 0.857399
vt 0.525334 0.933861
vt 0.996764 0.933861
vt 0.996764 0.995815
vt 0.525334 0.995815
vt 0.597302 0.972334
vt 0.565989 0.995083
vt 0.534677 0.972334
vt 0.546637 0.935524
vt 0.585341 0.935524
vt 0.744316 0.995815
vt 0.786182 0.933861
vt 0.779392 0.933861
vt 0.766098 0.933861
vt 0.720114 0.933861
vt 0.744316 0.933861
vt 0.720113 0.995815
vt 0.786182 0.995815
vt 0.779392 0.995815
vt 0.766098 0.995815
s 0
usemtl Material
f 4/1/1 8/2/1 7/3/1 3/4/1
f 8/5/2 6/6/2 5/7/2 7/8/2
f 6/9/3 8/10/3 4/11/3 2/12/3
f 2/6/4 4/5/4 3/8/4 1/7/4
f 6/2/5 2/1/5 1/4/5 5/3/5
f 7/3/6 9/13/6 11/14/6 3/4/6
f 1/4/7 12/14/7 10/13/7 5/3/7
f 5/7/8 13/15/8 14/16/8 7/8/8
f 13/15/9 15/17/9 16/18/9 14/16/9
f 20/19/5 19/20/5 23/21/5 24/22/5
f 24/23/4 23/24/4 21/25/4 22/26/4
f 22/27/10 18/28/10 20/29/10 24/30/10
f 18/26/2 17/25/2 19/24/2 20/23/2
f 22/22/1 21/21/1 17/20/1 18/19/1
f 23/21/11 19/20/11 27/31/11 25/32/11
f 17/20/12 21/21/12 26/32/12 28/31/12
f 21/25/13 23/24/13 30/33/13 29/34/13
f 29/34/14 30/33/14 32/35/14 31/36/14
s 1
f 33/37/15 34/38/15 36/39/16 35/40/16
f 35/37/16 36/38/16 38/39/17 37/40/17
f 37/37/17 38/38/17 40/39/18 39/40/18
s 0
f 36/41/3 34/42/3 42/43/3 40/44/3 38/45/3
s 1
f 39/37/18 40/38/18 42/39/19 41/40/19
f 41/37/19 42/38/19 34/39/15 33/40/15
f 43/46/20 44/47/20 46/48/21 45/49/21
f 45/46/21 46/47/21 48/48/22 47/49/22
f 47/46/22 48/47/22 50/48/23 49/49/23
s 0
f 46/50/3 44/51/3 52/52/3 50/53/3 48/54/3
s 1
f 49/46/23 50/47/23 52/48/24 51/49/24
f 51/46/24 52/47/24 44/48/20 43/49/20
f 53/55/25 54/56/25 56/57/26 55/58/26
f 55/55/26 56/56/26 58/57/27 57/58/27
f 57/55/27 58/56/27 60/57/28 59/58/28
s 0
f 56/59/3 54/60/3 62/61/3 60/62/3 58/63/3
s 1
f 59/55/28 60/56/28 62/57/29 61/58/29
f 61/55/29 62/56/29 54/57/25 53/58/25
f 63/64/30 64/65/30 66/66/31 65/67/31
f 65/64/31 66/65/31 68/66/32 67/67/32
f 67/64/32 68/65/32 70/66/33 69/67/33
s 0
f 66/68/3 64/69/3 72/70/3 70/71/3 68/72/3
s 1
f 69/64/33 70/65/33 72/66/34 71/67/34
f 71/64/34 72/65/34 64/66/30 63/67/30
f 73/73/35 74/74/35 76/75/36 75/76/36
f 75/73/36 76/74/36 78/75/37 77/76/37
f 77/73/37 78/74/37 80/75/38 79/76/38
s 0
f 76/77/3 74/78/3 82/79/3 80/80/3 78/81/3
s 1
f 79/73/38 80/74/38 82/75/39 81/76/39
f 81/73/39 82/74/39 74/75/35 73/76/35
f 83/64/40 84/65/40 86/66/41 85/67/41
f 85/64/41 86/65/41 88/66/42 87/67/42
f 87/64/42 88/65/42 90/66/43 89/67/43
s 0
f 86/68/3 84/69/3 92/70/3 90/71/3 88/72/3
s 1
f 89/64/43 90/65/43 92/66/44 91/67/44
f 91/64/44 92/65/44 84/66/40 83/67/40
f 93/73/45 94/74/45 96/75/46 95/76/46
f 95/73/46 96/74/46 98/75/47 97/76/47
f 97/73/47 98/74/47 100/75/48 99/76/48
s 0
f 96/77/3 94/78/3 102/79/3 100/80/3 98/81/3
s 1
f 99/73/48 100/74/48 102/75/49 101/76/49
f 101/73/49 102/74/49 94/75/45 93/76/45
f 103/82/50 104/83/50 106/84/51 105/85/51
f 105/82/51 106/83/51 108/84/52 107/85/52
f 107/82/52 108/83/52 110/84/53 109/85/53
s 0
f 106/86/3 104/87/3 112/88/3 110/89/3 108/90/3
s 1
f 109/82/53 110/83/53 112/84/54 111/85/54
f 111/82/54 112/83/54 104/84/50 103/85/50
f 113/37/55 114/38/55 116/39/56 115/40/56
f 115/37/56 116/38/56 118/39/57 117/40/57
f 117/37/57 118/38/57 120/39/58 119/40/58
s 0
f 116/41/3 114/42/3 122/43/3 120/44/3 118/45/3
s 1
f 119/37/58 120/38/58 122/39/59 121/40/59
f 121/37/59 122/38/59 114/39/55 113/40/55
f 123/91/60 124/92/60 126/93/61 125/94/61
f 125/91/61 126/92/61 128/93/62 127/94/62
f 127/91/62 128/92/62 130/93/63 129/94/63
s 0
f 126/95/3 124/96/3 132/97/3 130/98/3 128/99/3
s 1
f 129/91/63 130/92/63 132/93/64 131/94/64
f 131/91/64 132/92/64 124/93/60 123/94/60
f 133/100/65 134/101/65 136/102/66 135/103/66
f 135/100/66 136/101/66 138/102/67 137/103/67
f 137/100/67 138/101/67 140/102/68 139/103/68
s 0
f 136/104/69 134/105/69 142/106/69 140/107/69 138/108/69
s 1
f 139/100/68 140/101/68 142/102/70 141/103/70
f 141/100/70 142/101/70 134/102/65 133/103/65
f 143/91/71 144/92/71 146/93/72 145/94/72
f 145/91/72 146/92/72 148/93/73 147/94/73
f 147/91/73 148/92/73 150/93/74 149/94/74
s 0
f 146/95/3 144/96/3 152/97/3 150/98/3 148/99/3
s 1
f 149/91/74 150/92/74 152/93/75 151/94/75
f 151/91/75 152/92/75 144/93/71 143/94/71
f 153/37/76 154/38/76 156/39/77 155/40/77
f 155/37/77 156/38/77 158/39/78 157/40/78
f 157/37/78 158/38/78 160/39/79 159/40/79
s 0
f 156/41/3 154/42/3 162/43/3 160/44/3 158/45/3
s 1
f 159/37/79 160/38/79 162/39/80 161/40/80
f 161/37/80 162/38/80 154/39/76 153/40/76
f 163/64/25 164/65/25 166/66/26 165/67/26
f 165/64/26 166/65/26 168/66/27 167/67/27
f 167/64/27 168/65/27 170/66/28 169/67/28
s 0
f 166/68/3 164/69/3 172/70/3 170/71/3 168/72/3
s 1
f 169/64/28 170/65/28 172/66/29 171/67/29
f 171/64/29 172/65/29 164/66/25 163/67/25
f 173/55/20 174/56/20 176/57/81 175/58/81
f 175/55/81 176/56/81 178/57/82 177/58/82
f 177/55/82 178/56/82 180/57/23 179/58/23
s 0
f 176/59/3 174/60/3 182/61/3 180/62/3 178/63/3
s 1
f 179/55/23 180/56/23 182/57/24 181/58/24
f 181/55/24 182/56/24 174/57/20 173/58/20
f 183/73/60 184/74/60 186/75/61 185/76/61
f 185/73/61 186/74/61 188/75/62 187/76/62
f 187/73/62 188/74/62 190/75/63 189/76/63
s 0
f 186/77/3 184/78/3 192/79/3 190/80/3 188/81/3
s 1
f 189/73/63 190/74/63 192/75/64 191/76/64
f 191/73/64 192/74/64 184/75/60 183/76/60
f 193/64/83 194/65/83 196/66/84 195/67/84
f 195/64/84 196/65/84 198/66/85 197/67/85
f 197/64/85 198/65/85 200/66/86 199/67/86
s 0
f 196/68/3 194/69/3 202/70/3 200/71/3 198/72/3
s 1
f 199/64/86 200/65/86 202/66/87 201/67/87
f 201/64/87 202/65/87 194/66/83 193/67/83
f 203/100/88 204/101/88 206/102/89 205/103/89
f 205/100/89 206/101/89 208/102/90 207/103/90
f 207/100/90 208/101/90 210/102/91 209/103/91
s 0
f 206/104/3 204/105/3 212/106/3 210/107/3 208/108/3
s 1
f 209/100/91 210/101/91 212/102/92 211/103/92
f 211/100/92 212/101/92 204/102/88 203/103/88
f 213/55/20 214/56/20 216/57/21 215/58/21
f 215/55/21 216/56/21 218/57/22 217/58/22
f 217/55/22 218/56/22 220/57/23 219/58/23
s 0
f 216/59/3 214/60/3 222/61/3 220/62/3 218/63/3
s 1
f 219/55/23 220/56/23 222/57/24 221/58/24
f 221/55/24 222/56/24 214/57/20 213/58/20
f 223/46/93 224/47/93 226/48/94 225/49/94
f 225/46/94 226/47/94 228/48/95 227/49/95
f 227/46/95 228/47/95 230/48/96 229/49/96
s 0
f 226/50/3 224/51/3 232/52/3 230/53/3 228/54/3
s 1
f 229/46/96 230/47/96 232/48/97 231/49/97
f 231/46/97 232/47/97 224/48/93 223/49/93
f 233/100/98 234/101/98 236/102/99 235/103/99
f 235/100/99 236/101/99 238/102/100 237/103/100
f 237/100/100 238/101/100 240/102/101 239/103/101
s 0
f 236/104/3 234/105/3 242/106/3 240/107/3 238/108/3
s 1
f 239/100/101 240/101/101 242/102/102 241/103/102
f 241/100/102 242/101/102 234/102/98 233/103/98
f 243/91/103 244/92/103 246/93/104 245/94/104
f 245/91/104 246/92/104 248/93/105 247/94/105
f 247/91/105 248/92/105 250/93/106 249/94/106
s 0
f 246/95/3 244/96/3 252/97/3 250/98/3 248/99/3
s 1
f 249/91/106 250/92/106 252/93/107 251/94/107
f 251/91/107 252/92/107 244/93/103 243/94/103
f 253/100/108 254/101/108 256/102/109 255/103/109
f 255/100/109 256/101/109 258/102/110 257/103/110
f 257/100/110 258/101/110 260/102/111 259/103/111
s 0
f 256/104/3 254/105/3 262/106/3 260/107/3 258/108/3
s 1
f 259/100/111 260/101/111 262/102/112 261/103/112
f 261/100/112 262/101/112 254/102/108 253/103/108
s 0
f 272/109/113 271/110/113 270/111/113 269/112/113 268/113/113
f 282/109/114 278/113/114 279/112/114 280/111/114 281/110/114
s 1
f 267/100/115 272/114/116 268/115/117 263/103/118
f 266/100/119 271/110/120 272/109/116 267/103/115
f 265/100/121 270/111/122 271/116/120 266/103/119
f 264/100/123 269/112/124 270/117/122 265/103/121
f 263/100/118 268/113/117 269/118/124 264/103/123
f 278/113/125 273/101/126 274/102/127 279/118/128
f 279/112/128 274/101/127 275/102/129 280/117/130
f 280/111/130 275/101/129 276/102/131 281/116/132
s 0
f 274/104/133 273/105/133 277/106/133 276/107/133 275/108/133
s 1
f 281/110/132 276/101/131 277/102/134 282/109/135
f 282/114/135 277/101/134 273/102/126 278/115/125
