# Blender 5.2.1 LTS
# www.blender.org
mtllib labCorner_2x2_1.mtl
o Cube.057
v 1.173894 -0.853605 5.885013
v 1.173894 0.205255 5.885013
v -0.116959 -0.853605 5.885013
v -0.116959 0.205255 5.885013
v -0.157840 -0.887140 5.986759
v -0.157840 0.238790 5.986759
v 1.214776 0.238790 5.986759
v 1.214776 -0.887140 5.986759
v 1.221909 -0.896535 7.668537
v -0.166245 -0.896535 7.668537
v -0.166245 -0.896535 5.986527
v 1.221909 -0.896535 5.986527
v -0.166245 0.245984 7.668537
v -0.166245 0.245984 5.986527
v 1.221909 0.245984 5.986527
v 1.221909 0.245984 7.668537
v 0.233994 -0.845723 7.671537
v -0.127268 -0.845723 7.671537
v 1.222905 -0.002902 7.610393
v 1.222905 -0.002902 6.943795
v 1.222905 0.192948 6.943795
v 1.222905 0.192948 7.610393
v 0.233994 -0.154274 7.671537
v -0.127268 -0.154274 7.671537
v -0.127268 0.205800 7.671537
v 0.233994 0.205800 7.671537
v 1.182932 -0.154274 7.671537
v 0.821670 -0.154274 7.671537
v 0.821670 0.205800 7.671537
v 1.182932 0.205800 7.671537
v -0.033865 -0.995699 7.517971
v -0.033865 -0.995699 7.389161
v 0.095766 -0.995699 7.389161
v 0.095766 -0.995699 7.517971
v -0.060119 -0.995699 7.453566
v 0.122019 -0.995699 7.453566
v 0.030949 -0.995699 7.363074
v 0.030949 -0.995699 7.544058
v 0.030949 -0.869457 7.544058
v 0.030949 -0.869457 7.363074
v 0.122019 -0.869457 7.453566
v -0.060119 -0.869457 7.453566
v 0.095766 -0.869457 7.517971
v 0.095766 -0.869457 7.389161
v -0.033865 -0.869457 7.389161
v -0.033865 -0.869457 7.517971
v -0.033865 -0.995699 6.258008
v -0.033865 -0.995699 6.129198
v 0.095766 -0.995699 6.129198
v 0.095766 -0.995699 6.258008
v -0.060119 -0.995699 6.193603
v 0.122019 -0.995699 6.193603
v 0.030949 -0.995699 6.103111
v 0.030949 -0.995699 6.284095
v 0.030949 -0.869457 6.284095
v 0.030949 -0.869457 6.103111
v 0.122019 -0.869457 6.193603
v -0.060119 -0.869457 6.193603
v 0.095766 -0.869457 6.258008
v 0.095766 -0.869457 6.129198
v -0.033865 -0.869457 6.129198
v -0.033865 -0.869457 6.258008
v 0.957139 -0.995699 7.517971
v 0.957139 -0.995699 7.389161
v 1.086771 -0.995699 7.389161
v 1.086771 -0.995699 7.517971
v 0.930887 -0.995699 7.453566
v 1.113024 -0.995699 7.453566
v 1.021955 -0.995699 7.363074
v 1.021955 -0.995699 7.544058
v 1.021955 -0.869457 7.544058
v 1.021955 -0.869457 7.363074
v 1.113024 -0.869457 7.453566
v 0.930887 -0.869457 7.453566
v 1.086771 -0.869457 7.517971
v 1.086771 -0.869457 7.389161
v 0.957139 -0.869457 7.389161
v 0.957139 -0.869457 7.517971
v 0.957139 -0.995699 6.258008
v 0.957139 -0.995699 6.129198
v 1.086771 -0.995699 6.129198
v 1.086771 -0.995699 6.258008
v 0.930887 -0.995699 6.193603
v 1.113024 -0.995699 6.193603
v 1.021955 -0.995699 6.103111
v 1.021955 -0.995699 6.284095
v 1.021955 -0.869457 6.284095
v 1.021955 -0.869457 6.103111
v 1.113024 -0.869457 6.193603
v 0.930887 -0.869457 6.193603
v 1.086771 -0.869457 6.258008
v 1.086771 -0.869457 6.129198
v 0.957139 -0.869457 6.129198
v 0.957139 -0.869457 6.258008
v 1.206513 -0.873437 7.669979
v -0.150850 -0.873437 7.669979
v -0.150850 0.230747 7.669979
v 1.206513 0.230747 7.669979
v -0.127268 -0.485649 7.671537
v 0.233994 -0.485649 7.671537
v 1.182932 -0.845723 7.671537
v 0.821670 -0.845723 7.671537
v 0.821670 -0.485649 7.671537
v 1.182932 -0.485649 7.671537
v 3.397776 -0.995699 7.772162
v -2.291366 -0.995699 7.772162
v -2.291366 -0.995699 6.010313
v 3.397775 -0.995699 6.010313
v -2.291366 -1.147507 6.010313
v 3.397775 -1.147507 6.010313
v 3.397776 -1.147507 7.772162
v -2.291370 -1.147507 6.161819
v -2.291370 -1.147507 7.772162
v 3.262594 -1.147507 6.161819
v 3.262596 -1.147507 7.772162
v 3.262596 -2.478000 7.772162
v 3.262594 -2.478000 6.161819
v -2.291370 -2.478000 7.772162
v -2.291370 -2.478000 6.161819
v 3.200672 -2.306647 6.060072
v 3.200672 -1.164385 6.060072
v 2.342214 -2.306647 6.060072
v 2.342214 -1.164385 6.060072
v 2.342214 -2.306647 6.161818
v 2.342214 -1.164385 6.161818
v 3.200672 -1.164385 6.161819
v 3.200672 -2.306647 6.161819
v 2.328214 -1.164385 6.060072
v 2.328214 -2.306647 6.060072
v 1.469757 -1.164385 6.060072
v 1.469757 -2.306647 6.060072
v 2.328214 -2.306647 6.161818
v 2.328214 -1.164385 6.161818
v 1.469757 -1.164385 6.161818
v 1.469757 -2.306647 6.161818
v 0.519293 -1.164385 6.060072
v 0.519293 -2.306647 6.060072
v 1.377751 -1.164385 6.060072
v 1.377751 -2.306647 6.060072
v 1.377751 -2.306647 6.161818
v 1.377751 -1.164385 6.161818
v 0.519293 -1.164385 6.161818
v 0.519293 -2.306647 6.161818
v -0.410707 -1.164385 6.060072
v -0.410707 -2.306647 6.060072
v 0.447751 -1.164385 6.060072
v 0.447751 -2.306647 6.060072
v 0.447751 -2.306647 6.161818
v 0.447751 -1.164385 6.161818
v -0.410707 -1.164385 6.161818
v -0.410707 -2.306647 6.161818
v -2.291368 -0.995699 0.472673
v -0.529520 -0.995699 0.472673
v -0.529513 -0.995699 6.010310
v -0.529520 -1.147507 0.472673
v -2.291368 -1.147507 0.472673
v -0.529513 -1.147507 6.010310
v -0.681026 -1.147507 0.607852
v -2.291368 -1.147507 0.607852
v -0.681026 -1.147507 6.161818
v -0.681026 -2.478000 6.161818
v -2.291368 -2.478000 0.607852
v -0.681026 -2.478000 0.607852
v -0.579280 -2.306647 6.099895
v -0.579280 -1.164385 6.099895
v -0.579280 -2.306647 5.241437
v -0.579280 -1.164385 5.241437
v -0.681026 -2.306647 5.241437
v -0.681026 -1.164385 5.241437
v -0.681026 -1.164385 6.099895
v -0.681026 -2.306647 6.099895
v -0.579280 -1.164385 5.227437
v -0.579280 -2.306647 5.227437
v -0.579280 -1.164385 4.368979
v -0.579280 -2.306647 4.368979
v -0.681026 -2.306647 5.227437
v -0.681026 -1.164385 5.227437
v -0.681026 -1.164385 4.368979
v -0.681026 -2.306647 4.368979
v -0.579280 -1.164385 3.418516
v -0.579280 -2.306647 3.418516
v -0.579280 -1.164385 4.276974
v -0.579280 -2.306647 4.276974
v -0.681026 -2.306647 4.276974
v -0.681026 -1.164385 4.276974
v -0.681026 -1.164385 3.418516
v -0.681026 -2.306647 3.418516
v -0.579280 -1.164385 2.488516
v -0.579280 -2.306647 2.488516
v -0.579280 -1.164385 3.346974
v -0.579280 -2.306647 3.346974
v -0.681026 -2.306647 3.346974
v -0.681026 -1.164385 3.346974
v -0.681026 -1.164385 2.488516
v -0.681026 -2.306647 2.488516
v -0.579280 -1.164385 1.558516
v -0.579280 -2.306647 1.558516
v -0.579280 -1.164385 2.416974
v -0.579280 -2.306647 2.416974
v -0.681026 -2.306647 2.416974
v -0.681026 -1.164385 2.416974
v -0.681026 -1.164385 1.558516
v -0.681026 -2.306647 1.558516
v -0.579280 -1.164385 1.544518
v -0.579280 -2.306647 1.544518
v -0.579280 -1.164385 0.686060
v -0.579280 -2.306647 0.686060
v -0.681026 -2.306647 1.544518
v -0.681026 -1.164385 1.544518
v -0.681026 -1.164385 0.686060
v -0.681026 -2.306647 0.686060
v -1.517303 -0.840937 6.125339
v -1.553262 0.108669 6.172723
v -0.699857 -0.840937 6.745655
v -0.735816 0.108669 6.793040
v -1.449811 -0.161064 6.280080
v -1.432884 -0.569715 6.257774
v -0.855977 -0.569715 6.695559
v -0.872904 -0.161064 6.717864
v -1.569427 0.028877 6.297422
v -1.539131 -0.772433 6.257499
v -0.821266 -0.772433 6.802248
v -0.851561 0.028877 6.842172
v -2.228771 -1.003049 7.118182
v -2.244596 -0.956143 7.142038
v -2.247162 -0.952907 7.107640
v -2.276373 -0.022784 7.183914
v -2.263972 0.032769 7.164557
v -2.279023 -0.017140 7.149623
v -1.464564 -1.003049 7.698098
v -1.449461 -0.952907 7.712973
v -1.482463 -0.956143 7.720380
v -1.499753 0.032769 7.744482
v -1.514241 -0.022784 7.762255
v -1.481321 -0.017141 7.754957
v -1.584520 0.168778 6.161019
v -1.577506 0.140644 6.156586
v -1.599558 0.118871 6.146063
v -1.544582 -1.002311 6.108377
v -1.563092 -0.952169 6.098010
v -1.539403 -0.978465 6.106377
v -0.675648 -0.978465 6.761835
v -0.661212 -0.952169 6.782397
v -0.676180 -1.002311 6.767362
v -0.716129 0.168778 6.819995
v -0.697678 0.118871 6.830451
v -0.713749 0.140644 6.812046
v -1.499283 -0.941231 6.136457
v -1.499848 -0.866633 6.137202
v -1.295794 -0.866633 6.292049
v -1.295222 -0.941231 6.291295
v -0.632950 -0.995699 6.757274
v -0.255892 -0.995699 6.418577
v -1.666513 -0.995699 5.606649
v -1.289455 -0.995699 5.267953
v -0.632950 -0.901307 6.757274
v -0.255892 -0.939064 6.418577
v -1.666513 -0.901307 5.606649
v -1.289455 -0.939064 5.267953
v -1.620569 -0.998199 5.173002
v -1.615582 -0.998199 5.139012
v -1.741794 -0.998199 5.043237
v -1.773187 -0.998199 5.057187
v -1.802574 -0.998199 5.385428
v -1.771193 -0.998199 5.371494
v -1.923813 -0.998199 5.255680
v -1.928786 -0.998199 5.289653
v -1.773187 -0.938828 5.057187
v -1.741794 -0.948828 5.043237
v -1.759979 -0.918199 5.067203
v -1.923813 -0.903828 5.255680
v -1.910603 -0.893199 5.265694
v -1.928786 -0.903828 5.289653
v -1.771193 -0.903828 5.371494
v -1.802574 -0.903828 5.385428
v -1.784393 -0.893199 5.361468
v -1.620569 -0.938828 5.173002
v -1.633769 -0.918199 5.162976
v -1.615582 -0.948828 5.139012
v -1.857884 -0.908199 5.196221
v -1.871094 -0.918828 5.186207
v -1.731675 -0.908199 5.291996
v -1.718476 -0.918828 5.302022
v -1.718476 -0.998199 5.302022
v -1.871094 -0.998199 5.186207
v -1.873700 -0.893199 5.217063
v -1.734291 -0.903828 5.322862
v -1.734291 -0.998199 5.322862
v -1.886909 -0.998199 5.207049
v -1.886909 -0.903828 5.207049
v -1.747489 -0.893199 5.312837
v -1.858098 -0.975898 5.343294
v -1.873262 -0.975898 5.331787
v -1.873262 -0.956923 5.331787
v -1.858098 -0.956923 5.343294
v -1.876525 -0.966410 5.329311
v -1.854835 -0.966410 5.345770
v -1.865681 -0.979980 5.337541
v -1.865681 -0.952841 5.337541
v -1.870206 -0.973258 5.354868
v -1.881152 -0.973258 5.346563
v -1.881152 -0.959563 5.346563
v -1.870206 -0.959563 5.354868
v -1.883506 -0.966410 5.344778
v -1.867851 -0.966410 5.356656
v -1.875678 -0.976204 5.350717
v -1.875678 -0.956617 5.350717
v -1.717418 -0.951700 5.725143
v -1.730950 -0.951996 5.729193
v -1.730950 -0.938300 5.729193
v -1.717418 -0.938005 5.725143
v -1.733887 -0.945283 5.730335
v -1.714498 -0.944763 5.724174
v -1.724147 -0.954689 5.726768
v -1.724147 -0.935101 5.726768
v -1.897987 -0.963282 5.582023
v -1.894998 -0.956383 5.581575
v -1.881203 -0.956258 5.579935
v -1.878247 -0.963094 5.579636
v -1.888098 -0.953371 5.580743
v -1.881203 -0.969953 5.579935
v -1.888098 -0.972959 5.580743
v -1.894998 -0.970078 5.581575
v -1.937501 -0.966381 5.465747
v -1.921326 -0.959449 5.469148
v -1.934638 -0.973213 5.466346
v -1.934638 -0.959517 5.466346
v -1.918466 -0.966279 5.469740
v -1.927979 -0.956539 5.467755
v -1.921326 -0.973144 5.469148
v -1.927979 -0.976127 5.467755
v -1.425789 -0.943410 5.852645
v -1.443413 -0.944086 5.839272
v -1.443413 -0.925111 5.839272
v -1.425789 -0.924435 5.852645
v -1.448323 -0.935052 5.835546
v -1.421948 -0.933763 5.855561
v -1.434258 -0.947736 5.846219
v -1.434258 -0.920597 5.846219
v -1.431803 -0.939094 5.868845
v -1.445992 -0.939986 5.858078
v -1.445992 -0.926291 5.858078
v -1.431803 -0.925398 5.868845
v -1.449448 -0.933441 5.855456
v -1.428772 -0.932060 5.871146
v -1.438865 -0.942477 5.863487
v -1.438865 -0.922889 5.863487
v -1.493163 -0.911283 6.520705
v -1.502317 -0.911283 6.510456
v -1.502317 -0.897588 6.510456
v -1.493163 -0.897588 6.520705
v -1.504285 -0.904435 6.508251
v -1.491194 -0.904435 6.522909
v -1.497740 -0.914229 6.515581
v -1.497740 -0.894641 6.515581
v -1.332529 -0.904435 6.256981
v -1.329579 -0.897588 6.256788
v -1.315867 -0.897588 6.255896
v -1.312917 -0.904435 6.255703
v -1.322723 -0.894641 6.256342
v -1.315867 -0.911283 6.255896
v -1.322723 -0.914229 6.256342
v -1.329579 -0.911283 6.256788
v -1.500580 -0.918873 5.968703
v -1.497107 -0.925578 5.969062
v -1.496619 -0.911752 5.969082
v -1.489285 -0.908675 5.969707
v -1.489285 -0.928262 5.969707
v -1.446109 -0.901645 6.072762
v -1.430458 -0.900356 6.069358
v -1.442604 -0.896060 6.071662
v -1.428785 -0.907218 6.070230
v -1.432151 -0.912624 6.071614
v -1.444666 -0.908801 6.073169
v -1.436095 -0.895637 6.070262
v -1.438800 -0.913227 6.072730
v -1.571200 -0.927943 5.843506
v -1.582688 -0.927660 5.849463
v -1.582688 -0.913965 5.849463
v -1.571200 -0.914248 5.843506
v -1.585212 -0.920795 5.850901
v -1.568870 -0.921272 5.842645
v -1.576886 -0.930700 5.846311
v -1.576886 -0.911112 5.846311
v -1.482443 -0.925316 5.970315
v -1.496130 -0.925316 5.969104
v -1.482443 -0.911621 5.970315
v -1.499074 -0.918468 5.968843
v -1.479499 -0.918468 5.970576
v -0.721857 -0.947456 0.609243
v -0.781340 0.108669 0.609367
v -0.719722 -0.947456 1.635404
v -0.779205 0.108669 1.635528
v -0.804110 -0.161064 0.712414
v -0.776109 -0.658208 0.712356
v -0.774418 -0.658208 1.525177
v -0.802419 -0.161064 1.525235
v -0.890396 0.028877 0.634017
v -0.840280 -0.860926 0.633913
v -0.838247 -0.860926 1.611228
v -0.888363 0.028877 1.611332
v -1.942770 -1.003049 0.645200
v -1.971336 -0.956143 0.647073
v -1.945533 -0.952907 0.624182
v -2.023905 -0.022784 0.647183
v -2.000992 0.032769 0.645313
v -1.998238 -0.017140 0.624291
v -1.940775 -1.003049 1.604528
v -1.943450 -0.952907 1.625557
v -1.969346 -0.956143 1.603798
v -1.998996 0.032769 1.604657
v -2.021915 -0.022784 1.603908
v -1.996154 -0.017140 1.625667
v -0.790978 0.168778 0.577410
v -0.783202 0.140644 0.580303
v -0.788198 0.118871 0.556386
v -0.724902 -1.002311 0.577266
v -0.727875 -0.952168 0.556261
v -0.720171 -0.978465 0.580173
v -0.717915 -0.978465 1.664467
v -0.725520 -0.952168 1.688412
v -0.722634 -1.002311 1.667394
v -0.788710 0.168778 1.667524
v -0.785843 0.118871 1.688538
v -0.780946 0.140644 1.664599
v -0.733075 -0.947456 1.759227
v -0.792558 0.108669 1.759351
v -0.730940 -0.947456 2.785388
v -0.790424 0.108669 2.785511
v -0.815328 -0.161064 1.862397
v -0.787327 -0.658208 1.862339
v -0.785636 -0.658208 2.675159
v -0.813637 -0.161064 2.675218
v -0.901614 0.028877 1.784000
v -0.851498 -0.860926 1.783895
v -0.849465 -0.860926 2.761211
v -0.899581 0.028877 2.761316
v -1.953989 -1.003049 1.795182
v -1.982554 -0.956143 1.797057
v -1.956751 -0.952907 1.774165
v -2.035123 -0.022784 1.797166
v -2.012210 0.032769 1.795297
v -2.009456 -0.017140 1.774274
v -1.951993 -1.003049 2.754511
v -1.954668 -0.952907 2.775540
v -1.980564 -0.956143 2.753781
v -2.010215 0.032769 2.754640
v -2.033133 -0.022784 2.753891
v -2.007373 -0.017140 2.775650
v -0.802196 0.168778 1.727394
v -0.794420 0.140644 1.730287
v -0.799416 0.118871 1.706369
v -0.736120 -1.002311 1.727249
v -0.739093 -0.952168 1.706244
v -0.731389 -0.978465 1.730156
v -0.729133 -0.978465 2.814450
v -0.736738 -0.952168 2.838395
v -0.733852 -1.002311 2.817377
v -0.799929 0.168778 2.817508
v -0.797061 0.118871 2.838521
v -0.792164 0.140644 2.814582
v -0.746539 -0.947456 2.903591
v -0.806022 0.108669 2.903715
v -0.744404 -0.947456 3.929752
v -0.803888 0.108669 3.929875
v -0.828792 -0.161064 3.006761
v -0.800791 -0.658208 3.006703
v -0.799100 -0.658208 3.819524
v -0.827101 -0.161064 3.819582
v -0.915078 0.028877 2.928364
v -0.864962 -0.860926 2.928260
v -0.862929 -0.860926 3.905576
v -0.913045 0.028877 3.905680
v -1.967453 -1.003049 2.939547
v -1.996018 -0.956143 2.941421
v -1.970215 -0.952907 2.918529
v -2.048587 -0.022784 2.941530
v -2.025674 0.032769 2.939661
v -2.022920 -0.017140 2.918638
v -1.965457 -1.003049 3.898876
v -1.968132 -0.952907 3.919905
v -1.994028 -0.956143 3.898146
v -2.023678 0.032769 3.899004
v -2.046597 -0.022784 3.898255
v -2.020836 -0.017140 3.920014
v -0.815660 0.168778 2.871758
v -0.807884 0.140644 2.874651
v -0.812880 0.118871 2.850733
v -0.749584 -1.002311 2.871614
v -0.752557 -0.952168 2.850608
v -0.744853 -0.978465 2.874521
v -0.742597 -0.978465 3.958815
v -0.750202 -0.952168 3.982759
v -0.747316 -1.002311 3.961741
v -0.813393 0.168778 3.961872
v -0.810525 0.118871 3.982885
v -0.805628 0.140644 3.958947
vn -0.0000 -0.0000 -1.0000
vn 0.9279 -0.0000 -0.3728
vn -0.0000 -0.9497 -0.3130
vn -0.9279 -0.0000 -0.3728
vn -0.0000 0.9497 -0.3130
vn -0.0000 -1.0000 -0.0000
vn -0.0000 1.0000 -0.0000
vn -1.0000 -0.0000 -0.0000
vn -0.0000 -0.0000 1.0000
vn 1.0000 -0.0000 -0.0000
vn -0.7634 -0.0000 -0.6459
vn 0.7634 -0.0000 -0.6459
vn 0.7634 -0.0000 0.6459
vn -0.7634 -0.0000 0.6459
vn -0.2469 -0.2959 0.9228
vn -0.2688 0.1502 0.9514
vn -0.9120 0.1149 0.3937
vn -0.8923 -0.2680 0.3634
vn 0.3026 0.8657 -0.3987
vn 0.5548 0.0577 -0.8300
vn 0.5484 0.0418 -0.8352
vn 0.4465 -0.0957 -0.8896
vn 0.4505 0.1761 -0.8752
vn 0.5460 0.8374 -0.0237
vn -0.1090 0.9501 -0.2922
vn -0.6302 0.7733 0.0701
vn 0.0178 0.8993 0.4371
vn -0.9584 -0.1858 -0.2167
vn -0.9679 0.1641 -0.1903
vn -0.4430 0.2166 -0.8700
vn -0.4278 -0.1453 -0.8921
vn 0.9942 -0.1049 0.0220
vn 0.9826 0.1835 0.0275
vn 0.5390 0.1682 0.8253
vn 0.5597 -0.2041 0.8032
vn 0.6521 0.0578 -0.7559
vn 0.7471 0.1789 -0.6402
vn 0.6586 0.0429 -0.7512
vn 0.7691 -0.1001 -0.6312
vn 0.3452 -0.0660 -0.9362
vn 0.3393 0.1932 -0.9206
vn 0.8532 0.1506 -0.4993
vn 0.8631 -0.0309 -0.5042
vn 0.3568 -0.8072 -0.4702
vn 0.9886 0.0301 0.1475
vn -0.4082 0.0301 -0.9124
vn 0.4752 -0.2467 -0.8446
vn 0.4506 0.3596 -0.8171
vn 0.6780 -0.2471 -0.6923
vn 0.6560 0.3613 -0.6627
vn -0.5527 -0.8326 0.0376
vn 0.0681 -0.9382 0.3394
vn -0.0684 -0.9259 -0.3714
vn 0.6064 -0.7939 -0.0448
vn 0.6044 0.0126 -0.7966
vn -0.0345 -0.9082 0.4170
vn -0.7016 -0.7124 -0.0173
vn 0.0345 -0.9082 -0.4170
vn 0.7016 -0.7124 0.0173
vn 0.0553 0.9972 -0.0496
vn 0.0408 -0.0000 -0.9992
vn 0.9978 -0.0000 0.0662
vn -0.1274 -0.0000 0.9919
vn -0.9998 -0.0000 0.0206
vn 0.0553 -0.9195 -0.3892
vn 0.1974 0.3764 -0.9052
vn 0.9231 0.2718 -0.2721
vn 0.6229 -0.7642 -0.1674
vn -0.3444 -0.9017 -0.2614
vn -0.6661 0.3720 -0.6465
vn -0.5590 0.3937 -0.7298
vn -0.2761 -0.9035 -0.3279
vn -0.0553 -0.9195 0.3892
vn -0.1481 0.7273 0.6701
vn -0.7900 0.5728 0.2187
vn -0.6228 -0.7642 0.1675
vn -0.0599 0.9056 -0.4198
vn 0.3878 0.9203 -0.0515
vn 0.4624 0.8851 -0.0516
vn -0.0316 0.9442 -0.3278
vn 0.5329 -0.8219 0.2011
vn 0.3444 -0.9017 0.2614
vn -0.8051 0.5134 -0.2971
vn -0.2913 0.9565 -0.0159
vn 0.5490 0.5660 0.6150
vn 0.0850 0.9732 0.2138
vn 0.8849 0.3956 0.2460
vn -0.0482 0.9692 -0.2416
vn -0.5235 0.6289 -0.5749
vn 0.7767 0.4196 0.4697
vn -0.5331 -0.8218 -0.2010
vn 0.2760 -0.9035 0.3279
vn 0.7279 0.6418 0.2411
vn 0.3358 0.9416 -0.0238
vn -0.5711 -0.8049 -0.1611
vn -0.6389 -0.7244 -0.2588
vn -0.9123 -0.0003 -0.4095
vn -0.9114 -0.0000 -0.4114
vn -0.0682 -0.9716 0.2267
vn -0.1023 -0.9928 0.0625
vn -0.6401 0.7230 -0.2597
vn -0.5711 0.8049 -0.1611
vn 0.3854 0.7266 0.5688
vn 0.5028 0.7551 0.4207
vn 0.8056 -0.0000 0.5925
vn 0.6415 -0.0000 0.7671
vn -0.1032 0.9928 0.0613
vn -0.0682 0.9716 0.2267
vn 0.5033 -0.7542 0.4217
vn 0.3854 -0.7266 0.5688
vn -0.8698 -0.0022 0.4934
vn -0.6525 0.0011 0.7578
vn -0.4844 0.7480 0.4537
vn -0.6031 0.7283 0.3255
vn 0.5478 0.7222 -0.4223
vn 0.4195 0.6690 -0.6135
vn 0.6466 -0.0214 -0.7625
vn 0.8308 -0.0122 -0.5565
vn -0.0765 0.9947 -0.0683
vn -0.0529 0.9983 0.0261
vn 0.4795 -0.7634 -0.4327
vn 0.5633 -0.7603 -0.3235
vn 0.0910 -0.9942 0.0577
vn 0.0210 -0.9948 0.0994
vn -0.5752 -0.7302 0.3687
vn -0.3990 -0.7178 0.5705
vn -0.1319 -0.9912 0.0118
vn -0.7059 -0.7080 -0.0200
vn -0.9993 -0.0088 -0.0373
vn 0.5849 -0.8107 0.0261
vn 0.9997 -0.0093 0.0236
vn -0.1416 0.9898 -0.0125
vn 0.5903 0.8072 0.0032
vn -0.7181 0.6952 -0.0314
vn -0.6237 -0.7763 0.0910
vn -0.6100 -0.7920 -0.0249
vn -0.9744 -0.0235 -0.2237
vn -0.9950 -0.0852 -0.0520
vn -0.1424 -0.9590 0.2451
vn -0.0729 -0.9769 0.2008
vn -0.6143 0.7662 -0.1884
vn -0.6567 0.7531 -0.0400
vn 0.5334 0.8066 0.2549
vn 0.5849 0.7746 0.2406
vn 0.9035 0.0197 0.4281
vn 0.9077 -0.0587 0.4155
vn -0.0076 1.0000 0.0049
vn -0.0847 0.9918 0.0958
vn 0.5459 -0.7442 0.3849
vn 0.4278 -0.8205 0.3792
vn -0.9871 -0.1588 -0.0212
vn -0.8261 -0.0000 -0.5636
vn -0.5889 0.7018 -0.4008
vn -0.6473 0.7621 0.0152
vn 0.6180 0.7854 0.0342
vn 0.5431 0.7567 0.3640
vn 0.8314 -0.0000 0.5557
vn 0.9882 0.1529 0.0082
vn -0.0661 0.9968 -0.0458
vn 0.0937 0.9941 0.0548
vn 0.5431 -0.7567 0.3640
vn 0.8056 -0.5923 -0.0132
vn -0.0661 -0.9968 -0.0458
vn 0.2523 -0.9671 -0.0322
vn -0.4304 -0.9010 -0.0547
vn -0.5889 -0.7018 -0.4008
vn 0.2055 -0.9771 -0.0558
vn -0.3943 -0.8681 0.3014
vn -0.8378 -0.2367 0.4920
vn 0.7751 -0.4775 -0.4137
vn 0.8210 0.3008 -0.4852
vn -0.1814 0.9830 0.0281
vn 0.3799 0.8883 -0.2582
vn -0.7514 0.5461 0.3704
vn -0.9923 -0.1222 0.0211
vn -0.7629 0.6465 -0.0043
vn 0.4914 0.8617 0.1266
vn 0.8939 0.0954 0.4380
vn -0.0839 0.9824 -0.1672
vn 0.5154 -0.7770 0.3614
vn -0.0613 -0.9938 0.0926
vn -0.5919 -0.8044 0.0510
vn 0.3950 0.8626 -0.3161
vn 0.8662 0.1795 -0.4663
vn -0.3621 0.9304 0.0572
vn 0.7137 -0.6434 -0.2768
vn -0.0469 0.9961 -0.0750
vn 0.5043 0.7072 -0.4956
vn 0.7478 0.0068 -0.6639
vn 0.5394 -0.7213 -0.4344
vn 0.0542 -0.9983 0.0197
vn -0.4658 -0.7136 0.5232
vn -0.7253 0.0258 0.6879
vn -0.5035 0.7734 0.3851
vn 0.8195 0.0028 -0.5731
vn 0.6608 -0.6002 -0.4506
vn 0.1959 -0.9736 -0.1173
vn -0.5025 -0.7777 0.3777
vn -0.8092 -0.0058 0.5876
vn -0.4984 0.7961 0.3432
vn 0.6535 0.5932 -0.4701
vn 0.1996 0.9669 -0.1590
vn -0.9067 -0.2899 0.3064
vn -0.9396 0.1483 0.3086
vn -0.9427 0.1465 -0.2997
vn -0.9102 -0.2878 -0.2977
vn 0.5898 0.8075 -0.0012
vn 0.9984 0.0562 -0.0021
vn 0.9786 -0.0879 -0.1860
vn 0.9694 0.1782 -0.1686
vn 0.3889 0.8884 0.2441
vn 0.3867 0.8890 -0.2452
vn -0.4880 0.8338 -0.2582
vn -0.4858 0.8346 0.2596
vn -0.3892 -0.1978 -0.8997
vn -0.4238 0.1668 -0.8903
vn 0.7140 0.1593 -0.6818
vn 0.7271 -0.0696 -0.6830
vn 0.7306 -0.0693 0.6793
vn 0.7175 0.1591 0.6781
vn -0.4074 0.1689 0.8975
vn -0.3722 -0.1981 0.9068
vn 0.9701 0.1783 0.1649
vn 0.9793 -0.0879 0.1823
vn 0.9568 -0.0739 -0.2812
vn 0.9424 0.1862 -0.2778
vn 0.9471 0.1847 0.2625
vn 0.9614 -0.0721 0.2656
vn 0.5903 -0.8072 -0.0012
vn 0.2122 0.0118 0.9772
vn 0.2081 0.0118 -0.9780
vn 0.9589 -0.2714 -0.0831
vn 0.9199 0.3829 -0.0848
vn 0.9600 -0.2687 0.0790
vn 0.9214 0.3802 0.0809
vn -0.3881 -0.8881 -0.2462
vn -0.3857 -0.8889 0.2472
vn 0.4638 -0.8477 -0.2577
vn 0.4658 -0.8469 0.2563
vn 0.9694 0.1783 -0.1686
vn 0.3889 0.8884 0.2440
vn 0.9793 -0.0880 0.1823
vt 0.999192 0.994936
vt 0.952975 0.994936
vt 0.952975 0.933440
vt 0.999192 0.933440
vt 0.956861 0.925873
vt 0.963315 0.925873
vt 0.963315 0.998328
vt 0.956861 0.998328
vt 0.953939 0.927081
vt 0.953939 0.932326
vt 0.998205 0.932326
vt 0.998205 0.927081
vt 0.455968 0.785714
vt 0.507642 0.785714
vt 0.507642 0.750624
vt 0.455968 0.750624
vt 0.465124 0.785714
vt 0.465124 0.750624
vt 0.598786 0.783408
vt 0.525181 0.783408
vt 0.454041 0.750074
vt 0.507945 0.750074
vt 0.507945 0.786688
vt 0.454041 0.786688
vt 0.462634 0.749845
vt 0.507674 0.749845
vt 0.507674 0.786914
vt 0.462634 0.786914
vt 0.465731 0.701677
vt 0.519485 0.701677
vt 0.519485 0.719291
vt 0.465731 0.719291
vt 0.952741 0.876886
vt 0.999198 0.876886
vt 0.999198 0.923190
vt 0.952741 0.923190
vt 0.551255 0.721190
vt 0.551255 0.724281
vt 0.545110 0.724281
vt 0.545110 0.721190
vt 0.557351 0.721190
vt 0.557351 0.724281
vt 0.594076 0.721190
vt 0.594076 0.724281
vt 0.587930 0.724281
vt 0.587930 0.721190
vt 0.581834 0.721190
vt 0.581834 0.724281
vt 0.575738 0.721190
vt 0.575738 0.724281
vt 0.569593 0.724281
vt 0.569593 0.721190
vt 0.563447 0.724281
vt 0.563447 0.721190
vt 0.952950 0.865031
vt 0.952950 0.809438
vt 0.998705 0.809438
vt 0.998705 0.865031
vt 0.525181 0.754448
vt 0.598786 0.754448
vt 0.563045 0.750391
vt 0.560913 0.750391
vt 0.560913 0.785971
vt 0.563045 0.785971
vt 0.599152 0.766725
vt 0.599152 0.768478
vt 0.524751 0.768478
vt 0.524751 0.766725
vt 0.563045 0.785971
vt 0.563045 0.750391
vt 0.599419 0.740750
vt 0.599419 0.717055
vt 0.570741 0.717055
vt 0.570741 0.740750
vt 0.599600 0.734904
vt 0.599600 0.721101
vt 0.541984 0.721101
vt 0.541984 0.734904
vt 0.543165 0.740639
vt 0.598427 0.740639
vt 0.598427 0.716945
vt 0.543165 0.716945
vt 0.599549 0.768871
vt 0.525737 0.768871
vt 0.525737 0.766947
vt 0.599549 0.766947
vt 0.508515 0.752620
vt 0.508515 0.784686
vt 0.469222 0.784686
vt 0.469222 0.752620
vt 0.459522 0.751376
vt 0.498628 0.751376
vt 0.497697 0.753890
vt 0.460452 0.753890
vt 0.498628 0.785044
vt 0.499735 0.750387
vt 0.499735 0.786063
vt 0.505764 0.749955
vt 0.505763 0.786107
vt 0.471980 0.783938
vt 0.472059 0.752123
vt 0.517799 0.759210
vt 0.519017 0.780957
vt 0.462831 0.780957
vt 0.461437 0.756067
vt 0.461437 0.756066
vt 0.519017 0.780957
vt 0.459522 0.785044
vt 0.458414 0.786063
vt 0.458414 0.750387
vt 0.894886 0.671583
vt 0.903705 0.671583
vt 0.903705 0.688819
vt 0.894886 0.688819
vt 0.460452 0.782256
vt 0.497697 0.782256
vt 0.891290 0.669917
vt 0.907074 0.669917
vt 0.891290 0.690641
vt 0.907074 0.690641
vt 0.472055 0.752123
vt 0.471361 0.752166
vt 0.471982 0.751431
vt 0.469168 0.786302
vt 0.468361 0.784588
vt 0.471977 0.783938
vt 0.471901 0.784630
vt 0.471282 0.783895
vt 0.519156 0.782112
vt 0.520178 0.780958
vt 0.499846 0.786860
vt 0.500647 0.785269
vt 0.499847 0.749527
vt 0.500647 0.751126
vt 0.457502 0.751126
vt 0.458303 0.749527
vt 0.458303 0.786860
vt 0.457502 0.785269
vt 0.505767 0.749954
vt 0.505687 0.749263
vt 0.468361 0.752439
vt 0.505802 0.786806
vt 0.472018 0.784638
vt 0.505766 0.786107
vt 0.505685 0.786799
vt 0.462971 0.782116
vt 0.519156 0.782116
vt 0.518964 0.759268
vt 0.508568 0.786398
vt 0.469168 0.786398
vt 0.919699 0.871055
vt 0.902141 0.871055
vt 0.902141 0.863653
vt 0.919699 0.863653
vt 0.505360 0.750170
vt 0.461219 0.750170
vt 0.461219 0.787162
vt 0.505360 0.787162
vt 0.442237 0.744225
vt 0.442237 0.720248
vt 0.523954 0.720248
vt 0.523954 0.744225
vt 0.500466 0.746365
vt 0.443050 0.746340
vt 0.443050 0.742371
vt 0.500466 0.742371
vt 0.464493 0.748494
vt 0.500466 0.742371
vt 0.464456 0.742389
vt 0.464493 0.748494
vt 0.523421 0.748494
vt 0.523384 0.742389
vt 0.464456 0.742389
vt 0.500466 0.746365
vt 0.464420 0.748494
vt 0.446130 0.709988
vt 0.443901 0.709988
vt 0.443901 0.718329
vt 0.446130 0.718329
vt 0.455665 0.712584
vt 0.455613 0.709249
vt 0.445450 0.709510
vt 0.445193 0.711517
vt 0.454062 0.718505
vt 0.449104 0.718505
vt 0.449104 0.710164
vt 0.454062 0.710164
vt 0.455750 0.709988
vt 0.455750 0.718329
vt 0.445450 0.718329
vt 0.445450 0.709988
vt 0.489215 0.750170
vt 0.463536 0.750170
vt 0.461219 0.755920
vt 0.461219 0.781412
vt 0.463536 0.787162
vt 0.489215 0.787162
vt 0.443537 0.709988
vt 0.461297 0.709521
vt 0.463209 0.709988
vt 0.461296 0.709988
vt 0.461297 0.718797
vt 0.461296 0.718329
vt 0.463209 0.718329
vt 0.445450 0.718807
vt 0.443537 0.718329
vt 0.456945 0.709988
vt 0.456931 0.709238
vt 0.455765 0.719080
vt 0.444049 0.711309
vt 0.448412 0.709988
vt 0.450324 0.709521
vt 0.450324 0.713107
vt 0.448412 0.713107
vt 0.455325 0.709656
vt 0.456469 0.709865
vt 0.455814 0.713454
vt 0.454670 0.713246
vt 0.452349 0.712822
vt 0.453003 0.709233
vt 0.450808 0.709388
vt 0.451353 0.712641
vt 0.456945 0.718329
vt 0.456931 0.719080
vt 0.455765 0.709238
vt 0.493364 0.750170
vt 0.493364 0.787162
vt 0.454664 0.712892
vt 0.454682 0.709244
vt 0.450342 0.709517
vt 0.503043 0.750170
vt 0.503043 0.787162
vt 0.505360 0.781412
vt 0.505360 0.755920
vt 0.464317 0.716492
vt 0.464413 0.716588
vt 0.464306 0.716838
vt 0.464168 0.716838
vt 0.464663 0.716343
vt 0.464663 0.716481
vt 0.464413 0.717087
vt 0.464317 0.717183
vt 0.465010 0.717183
vt 0.464914 0.717087
vt 0.465021 0.716838
vt 0.465159 0.716838
vt 0.464663 0.717194
vt 0.464663 0.717332
vt 0.464914 0.716588
vt 0.465010 0.716492
vt 0.594646 0.934239
vt 0.594646 0.869280
vt 0.593404 0.869253
vt 0.593404 0.934212
vt 0.596636 0.934212
vt 0.596636 0.999171
vt 0.597792 0.999197
vt 0.597792 0.934239
vt 0.592788 0.869191
vt 0.592788 0.934150
vt 0.596219 0.934150
vt 0.596219 0.999108
vt 0.599034 0.999171
vt 0.599034 0.934212
vt 0.599650 0.999108
vt 0.599650 0.934150
vt 0.595803 0.934212
vt 0.595803 0.869253
vt 0.596219 0.934150
vt 0.596219 0.869191
vt 0.596219 0.966629
vt 0.595803 0.966691
vt 0.594646 0.966718
vt 0.599034 0.901733
vt 0.599650 0.901671
vt 0.597792 0.901760
vt 0.596219 0.901671
vt 0.596636 0.901733
vt 0.593404 0.966691
vt 0.592788 0.966629
vt 0.594646 0.999197
vt 0.593404 0.999171
vt 0.596636 0.869253
vt 0.597792 0.869280
vt 0.592788 0.999108
vt 0.596219 0.869191
vt 0.599034 0.869253
vt 0.599650 0.869191
vt 0.595803 0.999171
vt 0.596219 0.999108
vt 0.596219 0.950390
vt 0.595803 0.950452
vt 0.594646 0.950478
vt 0.599034 0.917972
vt 0.599650 0.917910
vt 0.597792 0.917999
vt 0.596219 0.917910
vt 0.596636 0.917972
vt 0.593404 0.950452
vt 0.592788 0.950390
s 0
usemtl Material
f 4/1/1 2/2/1 1/3/1 3/4/1
f 8/5/2 1/6/2 2/7/2 7/8/2
f 5/9/3 3/10/3 1/11/3 8/12/3
f 6/8/4 4/7/4 3/6/4 5/5/4
f 7/12/5 2/11/5 4/10/5 6/9/5
f 12/13/6 9/14/6 10/15/6 11/16/6
f 15/17/7 14/18/7 13/15/7 16/14/7
f 12/19/1 11/20/1 14/20/1 15/19/1
f 11/21/8 10/22/8 13/23/8 14/24/8
f 10/25/9 9/26/9 16/27/9 13/28/9
f 9/22/10 12/21/10 15/24/10 16/23/10
f 19/29/10 20/30/10 21/31/10 22/32/10
f 24/33/9 23/34/9 26/35/9 25/36/9
f 28/33/9 27/34/9 30/35/9 29/36/9
s 1
f 32/37/11 45/38/11 40/39/1 37/40/1
f 32/37/11 35/41/8 42/42/8 45/38/11
f 37/43/1 40/44/1 44/45/12 33/46/12
f 36/47/10 33/46/12 44/45/12 41/48/10
f 34/49/13 43/50/13 39/51/9 38/52/9
f 34/49/13 36/47/10 41/48/10 43/50/13
f 38/52/9 39/51/9 46/53/14 31/54/14
f 35/41/8 31/54/14 46/53/14 42/42/8
f 48/37/11 61/38/11 56/39/1 53/40/1
f 48/37/11 51/41/8 58/42/8 61/38/11
f 53/43/1 56/44/1 60/45/12 49/46/12
f 52/47/10 49/46/12 60/45/12 57/48/10
f 50/49/13 59/50/13 55/51/9 54/52/9
f 50/49/13 52/47/10 57/48/10 59/50/13
f 54/52/9 55/51/9 62/53/14 47/54/14
f 51/41/8 47/54/14 62/53/14 58/42/8
f 64/37/11 77/38/11 72/39/1 69/40/1
f 64/37/11 67/41/8 74/42/8 77/38/11
f 69/43/1 72/44/1 76/45/12 65/46/12
f 68/47/10 65/46/12 76/45/12 73/48/10
f 66/49/13 75/50/13 71/51/9 70/52/9
f 66/49/13 68/47/10 73/48/10 75/50/13
f 70/52/9 71/51/9 78/53/14 63/54/14
f 67/41/8 63/54/14 78/53/14 74/42/8
f 80/37/11 93/38/11 88/39/1 85/40/1
f 80/37/11 83/41/8 90/42/8 93/38/11
f 85/43/1 88/44/1 92/45/12 81/46/12
f 84/47/10 81/46/12 92/45/12 89/48/10
f 82/49/13 91/50/13 87/51/9 86/52/9
f 82/49/13 84/47/10 89/48/10 91/50/13
f 86/52/9 87/51/9 94/53/14 79/54/14
f 83/41/8 79/54/14 94/53/14 90/42/8
s 0
f 96/55/9 95/56/9 98/57/9 97/58/9
f 18/33/9 17/34/9 100/35/9 99/36/9
f 102/33/9 101/34/9 104/35/9 103/36/9
f 108/19/7 107/20/7 106/59/7 105/60/7
f 110/19/6 111/60/6 113/59/6 109/20/6
f 105/61/10 111/62/10 110/63/10 108/64/10
f 108/65/1 110/66/1 109/67/1 107/68/1
f 107/69/8 109/63/8 113/62/8 106/70/8
f 114/19/7 112/20/7 113/59/7 115/60/7
f 140/5/10 139/6/10 138/7/10 141/8/10
f 136/1/1 138/2/1 139/3/1 137/4/1
f 112/71/8 119/72/8 118/73/8 113/74/8
f 114/75/1 117/76/1 119/77/1 112/78/1
f 115/74/10 116/73/10 117/72/10 114/71/10
f 123/1/1 121/2/1 120/3/1 122/4/1
f 127/5/10 120/6/10 121/7/10 126/8/10
f 124/9/6 122/10/6 120/11/6 127/12/6
f 125/8/8 123/7/8 122/6/8 124/5/8
f 126/12/7 121/11/7 123/10/7 125/9/7
f 128/1/1 129/4/1 131/3/1 130/2/1
f 135/5/8 134/8/8 130/7/8 131/6/8
f 132/9/6 135/12/6 131/11/6 129/10/6
f 133/8/10 132/5/10 129/6/10 128/7/10
f 134/12/7 133/9/7 128/10/7 130/11/7
f 143/9/6 137/10/6 139/11/6 140/12/6
f 142/8/8 136/7/8 137/6/8 143/5/8
f 141/12/7 138/11/7 136/10/7 142/9/7
f 148/5/10 147/6/10 146/7/10 149/8/10
f 144/1/1 146/2/1 147/3/1 145/4/1
f 151/9/6 145/10/6 147/11/6 148/12/6
f 150/8/8 144/7/8 145/6/8 151/5/8
f 149/12/7 146/11/7 144/10/7 150/9/7
f 115/79/9 113/80/9 118/81/9 116/82/9
f 105/83/9 106/84/9 113/85/9 111/86/9
f 154/19/7 153/20/7 152/59/7 107/60/7
f 157/19/6 109/60/6 156/59/6 155/20/6
f 107/61/9 109/62/9 157/63/9 154/64/9
f 154/65/10 157/66/10 155/67/10 153/68/10
f 153/69/1 155/63/1 156/62/1 152/70/1
f 160/19/7 158/20/7 159/59/7 112/60/7
f 184/5/9 183/6/9 182/7/9 185/8/9
f 180/1/10 182/2/10 183/3/10 181/4/10
f 158/71/1 163/72/1 162/73/1 159/74/1
f 160/75/10 161/76/10 163/77/10 158/78/10
f 112/74/9 119/73/9 161/72/9 160/71/9
f 167/1/10 165/2/10 164/3/10 166/4/10
f 171/5/9 164/6/9 165/7/9 170/8/9
f 168/9/6 166/10/6 164/11/6 171/12/6
f 169/8/1 167/7/1 166/6/1 168/5/1
f 170/12/7 165/11/7 167/10/7 169/9/7
f 172/1/10 173/4/10 175/3/10 174/2/10
f 179/5/1 178/8/1 174/7/1 175/6/1
f 176/9/6 179/12/6 175/11/6 173/10/6
f 177/8/9 176/5/9 173/6/9 172/7/9
f 178/12/7 177/9/7 172/10/7 174/11/7
f 187/9/6 181/10/6 183/11/6 184/12/6
f 186/8/1 180/7/1 181/6/1 187/5/1
f 185/12/7 182/11/7 180/10/7 186/9/7
f 192/5/9 191/6/9 190/7/9 193/8/9
f 188/1/10 190/2/10 191/3/10 189/4/10
f 195/9/6 189/10/6 191/11/6 192/12/6
f 194/8/1 188/7/1 189/6/1 195/5/1
f 193/12/7 190/11/7 188/10/7 194/9/7
f 200/5/9 199/6/9 198/7/9 201/8/9
f 196/1/10 198/2/10 199/3/10 197/4/10
f 203/9/6 197/10/6 199/11/6 200/12/6
f 202/8/1 196/7/1 197/6/1 203/5/1
f 201/12/7 198/11/7 196/10/7 202/9/7
f 204/1/10 205/4/10 207/3/10 206/2/10
f 211/5/1 210/8/1 206/7/1 207/6/1
f 208/9/6 211/12/6 207/11/6 205/10/6
f 209/8/9 208/5/9 205/6/9 204/7/9
f 210/12/7 209/9/7 204/10/7 206/11/7
f 112/79/8 159/80/8 162/81/8 119/82/8
f 107/83/8 152/84/8 156/85/8 109/86/8
s 1
f 232/87/15 234/88/16 227/89/17 225/90/18
s 0
f 214/91/19 212/92/19 221/93/19 222/94/19
s 1
f 213/95/20 212/92/21 241/96/22 237/97/23
f 245/98/24 236/99/25 228/100/26 233/101/27
f 226/102/28 229/103/29 238/104/30 240/105/31
f 243/106/32 246/104/33 235/107/34 231/102/35
f 215/108/36 213/95/20 237/97/23 247/109/37
f 214/91/38 215/108/36 247/109/37 242/110/39
f 212/92/21 214/91/38 242/110/39 241/96/22
f 217/111/40 216/112/41 219/113/42 218/114/43
s 0
f 213/95/44 215/108/44 223/115/44 220/116/44
f 212/92/45 213/95/45 220/116/45 221/93/45
f 215/108/46 214/91/46 222/94/46 223/115/46
s 1
f 216/112/41 217/111/40 221/117/47 220/118/48
f 217/111/40 218/114/43 222/119/49 221/117/47
f 219/113/42 216/112/41 220/118/48 223/120/50
f 218/114/43 219/113/42 223/120/50 222/119/49
f 224/121/51 225/122/18 226/123/28
f 227/89/17 228/124/26 229/125/29
f 230/126/52 231/127/35 232/128/15
f 233/129/27 234/130/16 235/107/34
f 236/131/25 237/97/23 238/132/30
f 239/133/53 240/134/31 241/96/22
f 242/110/39 243/135/32 244/136/54
f 245/137/24 246/138/33 247/109/37
f 239/139/53 224/121/51 226/123/28 240/140/31
f 225/90/18 227/89/17 229/125/29 226/141/28
f 228/100/26 236/99/25 238/142/30 229/143/29
f 237/97/23 241/96/22 240/134/31 238/132/30
f 244/136/54 239/133/53 241/96/22 242/110/39
f 236/131/25 245/137/24 247/109/37 237/97/23
f 246/138/33 243/135/32 242/110/39 247/109/37
f 230/126/52 244/144/54 243/145/32 231/127/35
f 245/146/24 233/147/27 235/107/34 246/104/33
f 234/130/16 232/148/15 231/102/35 235/107/34
f 224/121/51 230/126/52 232/128/15 225/122/18
f 233/149/27 228/150/26 227/89/17 234/88/16
f 239/139/53 244/144/54 230/126/52 224/121/51
f 249/151/55 250/152/55 251/153/55 248/154/55
f 252/155/56 254/156/57 255/157/58 253/158/59
s 0
f 256/159/60 257/160/60 259/161/60 258/162/60
s 1
f 253/163/59 255/164/58 259/165/61 257/166/62
f 252/167/56 253/163/59 257/168/62 256/169/63
f 254/170/57 252/171/56 256/172/63 258/173/64
f 255/174/58 254/175/57 258/169/64 259/168/61
f 262/176/65 269/177/66 279/178/67 261/179/68
f 285/180/69 281/181/70 268/182/71 263/183/72
f 264/184/73 275/185/74 273/186/75 267/187/76
f 280/188/77 282/189/78 278/190/79 270/191/80
f 285/192/69 263/193/72 262/194/65 261/195/68 260/196/81 284/197/82
f 268/182/71 270/191/80 269/198/66
f 271/199/83 273/200/75 272/201/84
f 274/202/85 276/203/86 275/204/74
f 277/205/87 279/206/67 278/190/79
f 286/207/88 290/208/89 271/199/83 272/201/84
f 282/189/78 283/209/90 277/205/87 278/190/79
f 269/177/66 270/191/80 278/190/79 279/178/67
f 272/201/84 273/200/75 275/204/74 276/203/86
f 260/183/81 261/210/68 279/198/67 277/182/87
f 268/182/71 269/198/66 262/210/65 263/183/72
f 273/211/75 271/212/83 266/213/91 267/214/76
f 274/215/85 275/216/74 264/217/73 265/218/92
f 288/219/82 287/220/93 274/215/85 265/218/92
f 260/183/81 277/182/87 283/221/90 284/222/82
f 291/223/94 287/224/93 283/209/90 282/189/78
f 270/191/80 268/182/71 281/225/70 280/188/77
f 289/226/69 285/192/69 284/197/82 288/227/82
f 286/207/88 291/223/94 282/189/78 280/188/77
f 289/228/69 290/229/89 281/181/70 285/180/69
f 266/213/91 271/230/83 290/229/89 289/228/69
f 272/201/84 276/203/86 291/223/94 286/207/88
f 266/231/91 289/226/69 288/227/82 265/232/92 264/233/73 267/234/76
f 276/203/86 274/202/85 287/224/93 291/223/94
f 284/222/82 283/221/90 287/220/93 288/219/82
f 280/188/77 281/225/70 290/208/89 286/207/88
f 293/235/95 301/236/96 304/237/97 296/238/98
f 298/239/99 306/240/100 301/236/96 293/235/95
f 296/238/98 304/237/97 302/241/101 294/242/102
f 295/243/103 303/244/104 305/245/105 297/246/106
f 294/242/102 302/241/101 307/247/107 299/248/108
f 299/248/108 307/247/107 303/244/104 295/243/103
f 297/246/106 305/245/105 300/249/109 292/250/110
f 292/250/110 300/249/109 306/240/100 298/239/99
f 316/251/111 312/252/112 310/253/113 317/254/114
f 318/255/115 311/256/116 313/257/117 319/258/118
f 317/254/114 310/253/113 315/259/119 320/260/120
f 320/261/120 315/262/119 311/256/116 318/255/115
f 319/258/118 313/257/117 308/263/121 321/264/122
f 321/264/122 308/263/121 314/265/123 322/266/124
f 323/267/125 309/268/126 312/252/112 316/251/111
f 322/269/124 314/270/123 309/268/126 323/267/125
f 331/271/127 322/269/124 323/267/125 326/272/128
f 326/272/128 323/267/125 316/251/111 324/273/129
f 330/274/130 321/264/122 322/266/124 331/275/127
f 328/276/131 319/258/118 321/264/122 330/274/130
f 329/277/132 320/261/120 318/255/115 325/278/133
f 327/279/134 317/254/114 320/260/120 329/280/132
f 325/278/133 318/255/115 319/258/118 328/276/131
f 324/273/129 316/251/111 317/254/114 327/279/134
f 304/281/97 324/273/129 327/279/134 302/282/101
f 303/283/104 325/278/133 328/276/131 305/284/105
f 302/282/101 327/279/134 329/280/132 307/285/107
f 307/286/107 329/277/132 325/278/133 303/283/104
f 305/284/105 328/276/131 330/274/130 300/287/109
f 300/287/109 330/274/130 331/275/127 306/288/100
f 301/289/96 326/272/128 324/273/129 304/281/97
f 306/290/100 331/271/127 326/272/128 301/289/96
f 333/235/135 341/236/136 344/237/137 336/238/138
f 338/239/139 346/240/140 341/236/136 333/235/135
f 336/238/138 344/237/137 342/241/141 334/242/142
f 335/243/143 343/244/144 345/245/145 337/246/146
f 334/242/142 342/241/141 347/247/147 339/248/148
f 339/248/148 347/247/147 343/244/144 335/243/143
f 337/246/146 345/245/145 340/249/149 332/250/150
f 332/250/150 340/249/149 346/240/140 338/239/139
f 356/251/151 352/252/152 350/253/153 357/254/154
f 358/255/155 351/256/156 353/257/157 359/258/158
f 357/254/154 350/253/153 355/259/159 360/260/160
f 360/261/160 355/262/159 351/256/156 358/255/155
f 359/258/158 353/257/157 348/263/161 361/264/162
f 361/264/162 348/263/161 354/265/163 362/266/164
f 363/267/165 349/268/166 352/252/152 356/251/151
f 362/269/164 354/270/163 349/268/166 363/267/165
f 373/291/167 362/269/164 363/267/165 376/292/168
f 376/292/168 363/267/165 356/251/151 374/293/169
f 372/294/170 361/264/162 362/266/164 373/295/167
f 370/296/171 359/258/158 361/264/162 372/294/170
f 371/297/172 360/261/160 358/255/155 375/298/173
f 369/299/174 357/254/154 360/260/160 371/300/172
f 375/298/173 358/255/155 359/258/158 370/296/171
f 374/293/169 356/251/151 357/254/154 369/299/174
f 344/281/137 364/273/175 366/279/176 342/282/141
f 343/283/144 387/278/177 389/276/178 345/284/145
f 342/282/141 366/279/176 367/280/179 347/285/147
f 347/286/147 367/277/179 387/278/177 343/283/144
f 345/284/145 389/276/178 385/274/180 340/287/149
f 340/287/149 385/274/180 368/275/181 346/288/140
f 341/289/136 365/272/182 364/273/175 344/281/137
f 346/290/140 368/271/181 365/272/182 341/289/136
f 364/273/175 374/293/169 369/299/174 366/279/176
f 387/278/183 375/298/173 370/296/171 389/276/184
f 366/279/176 369/299/174 371/300/172 367/280/185
f 367/277/185 371/297/172 375/298/173 387/278/183
f 389/276/184 370/296/171 372/294/170 385/274/186
f 385/274/186 372/294/170 373/295/167 368/275/181
f 365/272/182 376/292/168 374/293/169 364/273/175
f 368/271/181 373/291/167 376/292/168 365/272/182
f 315/262/119 384/262/187 380/256/188 311/256/116
f 313/257/117 382/257/189 377/263/190 308/263/121
f 308/263/121 377/263/190 383/265/191 314/265/123
f 309/268/126 378/268/192 381/252/193 312/252/112
f 314/270/123 383/270/191 378/268/192 309/268/126
f 312/252/112 381/252/193 379/253/194 310/253/113
f 311/256/116 380/256/188 382/257/189 313/257/117
f 310/253/113 379/253/194 384/259/187 315/259/119
f 382/257/189 389/257/195 385/263/196 377/263/190
f 377/263/190 385/263/196 368/265/197 383/265/191
f 378/268/192 386/268/198 388/252/199 381/252/193
f 383/270/191 368/270/197 386/268/198 378/268/192
f 381/252/193 388/252/199 366/253/200 379/253/194
f 380/256/188 387/256/201 389/257/195 382/257/189
f 379/253/194 366/253/200 367/259/202 384/259/187
f 384/262/187 367/262/202 387/256/201 380/256/188
f 410/87/203 412/88/204 405/89/205 403/90/206
s 0
f 392/91/207 390/92/207 399/93/207 400/94/207
s 1
f 391/95/208 390/92/208 419/96/209 415/97/210
f 423/98/211 414/99/212 406/100/213 411/101/214
f 404/102/215 407/103/216 416/104/217 418/105/218
f 421/106/219 424/104/220 413/107/221 409/102/222
f 393/108/208 391/95/208 415/97/210 425/109/223
f 392/91/208 393/108/208 425/109/223 420/110/224
f 390/92/208 392/91/208 420/110/224 419/96/209
f 395/111/225 394/112/226 397/113/227 396/114/228
s 0
f 391/95/229 393/108/229 401/115/229 398/116/229
f 390/92/230 391/95/230 398/116/230 399/93/230
f 393/108/231 392/91/231 400/94/231 401/115/231
s 1
f 394/112/226 395/111/225 399/117/232 398/118/233
f 395/111/225 396/114/228 400/119/234 399/117/232
f 397/113/227 394/112/226 398/118/233 401/120/235
f 396/114/228 397/113/227 401/120/235 400/119/234
f 402/121/236 403/122/206 404/123/215
f 405/89/205 406/124/213 407/125/216
f 408/126/237 409/127/222 410/128/203
f 411/129/214 412/130/204 413/107/221
f 414/131/212 415/97/210 416/132/217
f 417/133/238 418/134/218 419/96/209
f 420/110/224 421/135/219 422/136/239
f 423/137/211 424/138/220 425/109/223
f 417/139/238 402/121/236 404/123/215 418/140/218
f 403/90/206 405/89/205 407/125/216 404/141/215
f 406/100/213 414/99/212 416/142/217 407/143/216
f 415/97/210 419/96/209 418/134/218 416/132/217
f 422/136/239 417/133/238 419/96/209 420/110/224
f 414/131/212 423/137/211 425/109/223 415/97/210
f 424/138/220 421/135/219 420/110/224 425/109/223
f 408/126/237 422/144/239 421/145/219 409/127/222
f 423/146/211 411/147/214 413/107/221 424/104/220
f 412/130/204 410/148/203 409/102/222 413/107/221
f 402/121/236 408/126/237 410/128/203 403/122/206
f 411/149/214 406/150/213 405/89/205 412/88/204
f 417/139/238 422/144/239 408/126/237 402/121/236
f 446/87/203 448/88/204 441/89/205 439/90/206
s 0
f 428/91/207 426/92/207 435/93/207 436/94/207
s 1
f 427/95/208 426/92/208 455/96/209 451/97/240
f 459/98/241 450/99/212 442/100/213 447/101/214
f 440/102/215 443/103/216 452/104/217 454/105/218
f 457/106/219 460/104/220 449/107/221 445/102/222
f 429/108/208 427/95/208 451/97/240 461/109/223
f 428/91/208 429/108/208 461/109/223 456/110/242
f 426/92/208 428/91/208 456/110/242 455/96/209
f 431/111/225 430/112/226 433/113/227 432/114/228
s 0
f 427/95/229 429/108/229 437/115/229 434/116/229
f 426/92/230 427/95/230 434/116/230 435/93/230
f 429/108/231 428/91/231 436/94/231 437/115/231
s 1
f 430/112/226 431/111/225 435/117/232 434/118/233
f 431/111/225 432/114/228 436/119/234 435/117/232
f 433/113/227 430/112/226 434/118/233 437/120/235
f 432/114/228 433/113/227 437/120/235 436/119/234
f 438/121/236 439/122/206 440/123/215
f 441/89/205 442/124/213 443/125/216
f 444/126/237 445/127/222 446/128/203
f 447/129/214 448/130/204 449/107/221
f 450/131/212 451/97/240 452/132/217
f 453/133/238 454/134/218 455/96/209
f 456/110/242 457/135/219 458/136/239
f 459/137/241 460/138/220 461/109/223
f 453/139/238 438/121/236 440/123/215 454/140/218
f 439/90/206 441/89/205 443/125/216 440/141/215
f 442/100/213 450/99/212 452/142/217 443/143/216
f 451/97/240 455/96/209 454/134/218 452/132/217
f 458/136/239 453/133/238 455/96/209 456/110/242
f 450/131/212 459/137/241 461/109/223 451/97/240
f 460/138/220 457/135/219 456/110/242 461/109/223
f 444/126/237 458/144/239 457/145/219 445/127/222
f 459/146/241 447/147/214 449/107/221 460/104/220
f 448/130/204 446/148/203 445/102/222 449/107/221
f 438/121/236 444/126/237 446/128/203 439/122/206
f 447/149/214 442/150/213 441/89/205 448/88/204
f 453/139/238 458/144/239 444/126/237 438/121/236
f 482/87/203 484/88/204 477/89/205 475/90/206
s 0
f 464/91/207 462/92/207 471/93/207 472/94/207
s 1
f 463/95/208 462/92/208 491/96/209 487/97/240
f 495/98/241 486/99/212 478/100/213 483/101/214
f 476/102/215 479/103/216 488/104/217 490/105/218
f 493/106/219 496/104/220 485/107/221 481/102/222
f 465/108/208 463/95/208 487/97/240 497/109/223
f 464/91/208 465/108/208 497/109/223 492/110/224
f 462/92/208 464/91/208 492/110/224 491/96/209
f 467/111/225 466/112/226 469/113/227 468/114/228
s 0
f 463/95/229 465/108/229 473/115/229 470/116/229
f 462/92/230 463/95/230 470/116/230 471/93/230
f 465/108/231 464/91/231 472/94/231 473/115/231
s 1
f 466/112/226 467/111/225 471/117/232 470/118/233
f 467/111/225 468/114/228 472/119/234 471/117/232
f 469/113/227 466/112/226 470/118/233 473/120/235
f 468/114/228 469/113/227 473/120/235 472/119/234
f 474/121/236 475/122/206 476/123/215
f 477/89/205 478/124/213 479/125/216
f 480/126/237 481/127/222 482/128/203
f 483/129/214 484/130/204 485/107/221
f 486/131/212 487/97/240 488/132/217
f 489/133/238 490/134/218 491/96/209
f 492/110/224 493/135/219 494/136/239
f 495/137/241 496/138/220 497/109/223
f 489/139/238 474/121/236 476/123/215 490/140/218
f 475/90/206 477/89/205 479/125/216 476/141/215
f 478/100/213 486/99/212 488/142/217 479/143/216
f 487/97/240 491/96/209 490/134/218 488/132/217
f 494/136/239 489/133/238 491/96/209 492/110/224
f 486/131/212 495/137/241 497/109/223 487/97/240
f 496/138/220 493/135/219 492/110/224 497/109/223
f 480/126/237 494/144/239 493/145/219 481/127/222
f 495/146/241 483/147/214 485/107/221 496/104/220
f 484/130/204 482/148/203 481/102/222 485/107/221
f 474/121/236 480/126/237 482/128/203 475/122/206
f 483/149/214 478/150/213 477/89/205 484/88/204
f 489/139/238 494/144/239 480/126/237 474/121/236
