# Blender 5.2.1 LTS
# www.blender.org
mtllib labCorner_2x2_2.mtl
o Cube.050
v 3.397779 -0.995699 7.772167
v -2.291362 -0.995699 7.772166
v -2.291362 -0.995699 6.010317
v 3.397778 -0.995699 6.010317
v -2.291362 -1.147507 6.010317
v 3.397778 -1.147507 6.010317
v 3.397779 -1.147507 7.772167
v -2.291367 -1.147507 6.161823
v -2.291367 -1.147507 7.772166
v 3.262598 -1.147507 6.161823
v 3.262599 -1.147507 7.772167
v 3.262599 -2.478000 7.772167
v 3.262598 -2.478000 6.161823
v -2.291367 -2.478000 7.772166
v -2.291367 -2.478000 6.161823
v 3.200676 -2.306647 6.060077
v 3.200676 -1.164385 6.060077
v 2.342218 -2.306647 6.060077
v 2.342218 -1.164385 6.060077
v 2.342218 -2.306647 6.161823
v 2.342218 -1.164385 6.161823
v 3.200676 -1.164385 6.161823
v 3.200676 -2.306647 6.161823
v 2.328218 -1.164385 6.060077
v 2.328218 -2.306647 6.060077
v 1.469760 -1.164385 6.060077
v 1.469760 -2.306647 6.060077
v 2.328218 -2.306647 6.161823
v 2.328218 -1.164385 6.161823
v 1.469760 -1.164385 6.161822
v 1.469760 -2.306647 6.161822
v 0.519296 -1.164385 6.060077
v 0.519296 -2.306647 6.060077
v 1.377754 -1.164385 6.060077
v 1.377754 -2.306647 6.060077
v 1.377754 -2.306647 6.161822
v 1.377754 -1.164385 6.161822
v 0.519296 -1.164385 6.161822
v 0.519296 -2.306647 6.161822
v -0.410704 -1.164385 6.060077
v -0.410704 -2.306647 6.060077
v 0.447754 -1.164385 6.060077
v 0.447754 -2.306647 6.060077
v 0.447754 -2.306647 6.161822
v 0.447754 -1.164385 6.161822
v -0.410704 -1.164385 6.161822
v -0.410704 -2.306647 6.161822
v -2.291365 -0.995699 0.472678
v -0.529516 -0.995699 0.472678
v -0.529510 -0.995699 6.010314
v -0.529516 -1.147507 0.472678
v -2.291365 -1.147507 0.472678
v -0.529510 -1.147507 6.010314
v -0.681022 -1.147507 0.607857
v -2.291365 -1.147507 0.607857
v -0.681023 -1.147507 6.161822
v -0.681023 -2.478000 6.161822
v -2.291365 -2.478000 0.607857
v -0.681022 -2.478000 0.607857
v -0.579277 -2.306647 6.099899
v -0.579277 -1.164385 6.099899
v -0.579277 -2.306647 5.241442
v -0.579277 -1.164385 5.241442
v -0.681023 -2.306647 5.241442
v -0.681023 -1.164385 5.241442
v -0.681023 -1.164385 6.099899
v -0.681023 -2.306647 6.099899
v -0.579277 -1.164385 5.227442
v -0.579277 -2.306647 5.227442
v -0.579277 -1.164385 4.368984
v -0.579277 -2.306647 4.368984
v -0.681023 -2.306647 5.227442
v -0.681023 -1.164385 5.227442
v -0.681023 -1.164385 4.368984
v -0.681023 -2.306647 4.368984
v -0.579277 -1.164385 3.418520
v -0.579277 -2.306647 3.418520
v -0.579277 -1.164385 4.276978
v -0.579277 -2.306647 4.276978
v -0.681023 -2.306647 4.276978
v -0.681023 -1.164385 4.276978
v -0.681023 -1.164385 3.418520
v -0.681023 -2.306647 3.418520
v -0.579277 -1.164385 2.488520
v -0.579277 -2.306647 2.488520
v -0.579277 -1.164385 3.346979
v -0.579277 -2.306647 3.346979
v -0.681023 -2.306647 3.346979
v -0.681023 -1.164385 3.346979
v -0.681022 -1.164385 2.488520
v -0.681022 -2.306647 2.488520
v -0.579277 -1.164385 1.558521
v -0.579277 -2.306647 1.558521
v -0.579277 -1.164385 2.416978
v -0.579277 -2.306647 2.416978
v -0.681022 -2.306647 2.416978
v -0.681022 -1.164385 2.416978
v -0.681022 -1.164385 1.558521
v -0.681022 -2.306647 1.558521
v -0.579277 -1.164385 1.544522
v -0.579277 -2.306647 1.544522
v -0.579277 -1.164385 0.686064
v -0.579277 -2.306647 0.686064
v -0.681022 -2.306647 1.544522
v -0.681022 -1.164385 1.544522
v -0.681022 -1.164385 0.686064
v -0.681022 -2.306647 0.686064
v 3.212525 -0.853605 5.885017
v 3.212525 0.205255 5.885017
v 1.921672 -0.853605 5.885017
v 1.921672 0.205255 5.885017
v 1.880791 -0.887140 5.986763
v 1.880791 0.238790 5.986763
v 3.253407 0.238790 5.986763
v 3.253407 -0.887140 5.986763
v 3.260540 -0.896535 7.668541
v 1.872386 -0.896535 7.668541
v 1.872386 -0.896535 5.986531
v 3.260540 -0.896535 5.986531
v 1.872386 0.245984 7.668541
v 1.872386 0.245984 5.986532
v 3.260540 0.245984 5.986532
v 3.260540 0.245984 7.668541
v 2.272625 -0.845723 7.671541
v 1.911363 -0.845723 7.671541
v 3.261535 -0.002902 7.610397
v 3.261536 -0.002902 6.943799
v 3.261536 0.192948 6.943799
v 3.261535 0.192948 7.610397
v 2.272625 -0.154274 7.671541
v 1.911363 -0.154274 7.671541
v 1.911363 0.205800 7.671541
v 2.272625 0.205800 7.671541
v 3.221563 -0.154274 7.671541
v 2.860301 -0.154274 7.671542
v 2.860301 0.205800 7.671542
v 3.221563 0.205800 7.671541
v 2.004766 -0.995699 7.517975
v 2.004766 -0.995699 7.389165
v 2.134397 -0.995699 7.389165
v 2.134397 -0.995699 7.517975
v 1.978512 -0.995699 7.453570
v 2.160650 -0.995699 7.453570
v 2.069580 -0.995699 7.363078
v 2.069580 -0.995699 7.544062
v 2.069580 -0.869457 7.544062
v 2.069580 -0.869457 7.363078
v 2.160650 -0.869457 7.453570
v 1.978512 -0.869457 7.453570
v 2.134397 -0.869457 7.517975
v 2.134397 -0.869457 7.389165
v 2.004766 -0.869457 7.389165
v 2.004766 -0.869457 7.517975
v 2.004766 -0.995699 6.258013
v 2.004766 -0.995699 6.129203
v 2.134397 -0.995699 6.129203
v 2.134397 -0.995699 6.258013
v 1.978512 -0.995699 6.193608
v 2.160650 -0.995699 6.193608
v 2.069580 -0.995699 6.103116
v 2.069580 -0.995699 6.284100
v 2.069580 -0.869457 6.284100
v 2.069580 -0.869457 6.103116
v 2.160650 -0.869457 6.193608
v 1.978512 -0.869457 6.193608
v 2.134397 -0.869457 6.258013
v 2.134397 -0.869457 6.129203
v 2.004766 -0.869457 6.129203
v 2.004766 -0.869457 6.258013
v 2.995769 -0.995699 7.517976
v 2.995769 -0.995699 7.389165
v 3.125402 -0.995699 7.389165
v 3.125402 -0.995699 7.517976
v 2.969517 -0.995699 7.453570
v 3.151654 -0.995699 7.453570
v 3.060586 -0.995699 7.363078
v 3.060586 -0.995699 7.544063
v 3.060586 -0.869457 7.544063
v 3.060586 -0.869457 7.363078
v 3.151654 -0.869457 7.453570
v 2.969517 -0.869457 7.453570
v 3.125402 -0.869457 7.517976
v 3.125402 -0.869457 7.389165
v 2.995769 -0.869457 7.389165
v 2.995769 -0.869457 7.517976
v 2.995770 -0.995699 6.258013
v 2.995770 -0.995699 6.129203
v 3.125402 -0.995699 6.129203
v 3.125402 -0.995699 6.258013
v 2.969517 -0.995699 6.193608
v 3.151654 -0.995699 6.193608
v 3.060586 -0.995699 6.103116
v 3.060586 -0.995699 6.284100
v 3.060586 -0.869457 6.284100
v 3.060586 -0.869457 6.103116
v 3.151654 -0.869457 6.193608
v 2.969517 -0.869457 6.193608
v 3.125402 -0.869457 6.258013
v 3.125402 -0.869457 6.129203
v 2.995770 -0.869457 6.129203
v 2.995770 -0.869457 6.258013
v 3.245144 -0.873437 7.669984
v 1.887781 -0.873437 7.669984
v 1.887781 0.230747 7.669984
v 3.245144 0.230747 7.669984
v 1.911363 -0.485649 7.671541
v 2.272625 -0.485649 7.671541
v 3.221563 -0.845723 7.671541
v 2.860301 -0.845723 7.671542
v 2.860301 -0.485649 7.671542
v 3.221563 -0.485649 7.671541
v -1.967103 -0.908152 3.747319
v -1.967103 -0.908152 0.693134
v -0.976712 -0.908152 0.693134
v -0.976713 -0.908152 3.747320
v -1.967103 -0.573407 0.693134
v -1.328350 -0.573407 0.693134
v -1.328351 -0.573407 3.747319
v -1.967103 -0.573407 3.747319
v -1.863582 -1.007316 0.825514
v -1.734772 -1.007316 0.825514
v -1.734772 -1.007316 0.955145
v -1.863582 -1.007316 0.955145
v -1.799177 -1.007316 0.799260
v -1.799178 -1.007316 0.981399
v -1.708685 -1.007316 0.890329
v -1.889669 -1.007316 0.890329
v -1.889669 -0.881074 0.890329
v -1.708685 -0.881074 0.890329
v -1.799178 -0.881074 0.981399
v -1.799177 -0.881074 0.799260
v -1.863582 -0.881074 0.955145
v -1.734772 -0.881074 0.955145
v -1.734772 -0.881074 0.825514
v -1.863582 -0.881074 0.825514
v -1.248194 -1.007316 0.825514
v -1.119383 -1.007316 0.825514
v -1.119383 -1.007316 0.955145
v -1.248194 -1.007316 0.955145
v -1.183789 -1.007316 0.799260
v -1.183789 -1.007316 0.981399
v -1.093296 -1.007316 0.890329
v -1.274281 -1.007316 0.890329
v -1.274281 -0.881074 0.890329
v -1.093296 -0.881074 0.890329
v -1.183789 -0.881074 0.981399
v -1.183789 -0.881074 0.799260
v -1.248194 -0.881074 0.955145
v -1.119383 -0.881074 0.955145
v -1.119383 -0.881074 0.825514
v -1.248194 -0.881074 0.825514
v -1.863583 -1.007316 3.482549
v -1.734773 -1.007316 3.482549
v -1.734773 -1.007316 3.612182
v -1.863583 -1.007316 3.612182
v -1.799178 -1.007316 3.456297
v -1.799178 -1.007316 3.638434
v -1.708686 -1.007316 3.547366
v -1.889670 -1.007316 3.547365
v -1.889670 -0.881074 3.547365
v -1.708686 -0.881074 3.547366
v -1.799178 -0.881074 3.638434
v -1.799178 -0.881074 3.456297
v -1.863583 -0.881074 3.612182
v -1.734773 -0.881074 3.612182
v -1.734773 -0.881074 3.482549
v -1.863583 -0.881074 3.482549
v -1.248194 -1.007316 3.482549
v -1.119384 -1.007316 3.482549
v -1.119384 -1.007316 3.612182
v -1.248194 -1.007316 3.612182
v -1.183789 -1.007316 3.456297
v -1.183789 -1.007316 3.638434
v -1.093297 -1.007316 3.547366
v -1.274281 -1.007316 3.547366
v -1.274281 -0.881074 3.547366
v -1.093297 -0.881074 3.547366
v -1.183789 -0.881074 3.638434
v -1.183789 -0.881074 3.456297
v -1.248194 -0.881074 3.612182
v -1.119384 -0.881074 3.612182
v -1.119384 -0.881074 3.482549
v -1.248194 -0.881074 3.482549
v -1.726919 -0.570407 0.758132
v -1.568532 -0.570407 0.758132
v -1.568533 -0.570407 3.682322
v -1.726920 -0.570407 3.682322
v -1.008143 -0.875375 0.740984
v -1.008143 -0.875375 1.520639
v -1.290918 -0.606184 0.740984
v -1.290919 -0.606184 1.520638
v -1.290919 -0.606184 3.145669
v -1.290919 -0.606184 2.122003
v -1.008144 -0.875375 3.145669
v -1.008144 -0.875375 2.122003
v -1.818509 -0.573407 3.373323
v -1.476944 -0.573407 3.373323
v -1.476945 -0.573407 3.709998
v -1.818509 -0.573407 3.709998
v -1.818509 -0.242857 3.373323
v -1.476944 -0.242857 3.373323
v -1.818509 -0.573407 3.541661
v -1.476945 -0.573407 3.541661
v -1.476945 -0.242857 3.559843
v -1.476945 -0.341148 3.709998
v -1.818509 -0.341148 3.709998
v -1.818509 -0.242857 3.559843
v -1.648552 -0.322335 3.353435
v -1.648551 -0.354139 3.298170
v -1.686778 -0.338171 3.353435
v -1.664289 -0.360659 3.298170
v -1.702612 -0.376397 3.353435
v -1.670808 -0.376397 3.298170
v -1.686778 -0.414623 3.353435
v -1.664289 -0.392135 3.298170
v -1.648552 -0.430459 3.353435
v -1.648551 -0.398655 3.298170
v -1.610325 -0.414623 3.353435
v -1.632813 -0.392135 3.298170
v -1.594491 -0.376397 3.353435
v -1.626294 -0.376397 3.298170
v -1.610325 -0.338171 3.353435
v -1.632813 -0.360659 3.298170
v -1.653455 -0.371494 3.253546
v -1.648551 -0.369462 3.253546
v -1.655486 -0.376397 3.253546
v -1.653455 -0.381301 3.253546
v -1.648551 -0.383332 3.253546
v -1.643648 -0.381301 3.253546
v -1.641617 -0.376397 3.253546
v -1.643648 -0.371494 3.253546
v -1.648552 -0.322335 3.378612
v -1.686778 -0.338171 3.378612
v -1.702612 -0.376397 3.378612
v -1.686778 -0.414623 3.378612
v -1.648552 -0.430459 3.378612
v -1.610325 -0.414623 3.378612
v -1.594491 -0.376397 3.378612
v -1.610325 -0.338171 3.378612
v -1.719232 -0.570407 1.310158
v -1.576220 -0.570407 1.310158
v -1.576220 -0.570407 1.451123
v -1.719232 -0.570407 1.451123
v -1.719232 -0.492982 1.310158
v -1.576220 -0.492982 1.310158
v -1.576220 -0.492982 1.451122
v -1.456223 -0.453359 1.191871
v -1.839230 -0.453359 1.191871
v -1.719232 -0.492982 1.451122
v -1.456223 -0.453359 1.569393
v -1.839230 -0.453359 1.569393
v -1.778946 -0.444438 1.224744
v -1.778946 -0.444438 1.536520
v -1.516507 -0.444438 1.536521
v -1.516507 -0.444438 1.224744
v -1.839230 -0.429716 1.191871
v -1.839230 -0.429716 1.569393
v -1.456223 -0.429716 1.569393
v -1.456223 -0.429716 1.191871
v -1.790712 -0.546507 3.372222
v -1.504741 -0.546507 3.372222
v -1.790712 -0.269757 3.372222
v -1.504741 -0.269757 3.372222
v -1.543970 -0.399807 1.258540
v -1.547214 -0.243392 1.215883
v -1.560032 -0.407807 1.471841
v -1.517569 -0.249832 1.521059
v -1.754124 -0.412887 1.272965
v -1.754425 -0.231367 1.242728
v -1.759971 -0.420240 1.498832
v -1.773613 -0.247125 1.497039
v -1.522396 -0.401608 1.414062
v -1.514935 -0.419440 1.333444
v -1.525773 -0.359225 1.190595
v -1.518392 -0.297304 1.230494
v -1.514743 -0.233073 1.327293
v -1.520482 -0.232271 1.416766
v -1.508546 -0.300201 1.532967
v -1.518280 -0.373790 1.494941
v -1.707452 -0.429132 1.489919
v -1.626857 -0.413575 1.509057
v -1.590591 -0.226901 1.525217
v -1.686766 -0.229752 1.496228
v -1.813841 -0.290439 1.532581
v -1.771008 -0.376146 1.527067
v -1.796489 -0.408446 1.331677
v -1.811170 -0.426758 1.418664
v -1.830450 -0.228061 1.388175
v -1.798183 -0.228868 1.323474
v -1.801696 -0.292369 1.231416
v -1.774562 -0.341317 1.219218
v -1.606059 -0.409415 1.229299
v -1.722797 -0.420506 1.222618
v -1.705268 -0.232080 1.230571
v -1.593471 -0.235166 1.210622
v -1.736923 -0.222800 1.442446
v -1.744051 -0.194080 1.334358
v -1.592676 -0.211255 1.429877
v -1.600596 -0.198504 1.325877
v -1.598081 -0.449399 1.432113
v -1.572130 -0.452302 1.307671
v -1.718291 -0.453699 1.420404
v -1.720328 -0.446261 1.311791
v -1.746103 -0.350592 1.213483
v -1.595863 -0.365352 1.186308
v -1.734589 -0.305314 1.169205
v -1.624694 -0.280727 1.207955
v -1.873221 -0.353088 1.418571
v -1.860005 -0.353554 1.308197
v -1.822574 -0.285322 1.449645
v -1.828550 -0.269623 1.301742
v -1.595764 -0.358695 1.562043
v -1.749714 -0.356954 1.559054
v -1.611390 -0.278418 1.537937
v -1.715123 -0.265234 1.570949
v -1.488261 -0.381678 1.291277
v -1.497895 -0.368242 1.433476
v -1.471367 -0.286308 1.351848
v -1.468168 -0.267069 1.408394
v -1.517303 -0.840937 6.125343
v -1.553262 0.108669 6.172728
v -0.699857 -0.840937 6.745659
v -0.735815 0.108669 6.793044
v -1.449811 -0.161064 6.280084
v -1.432883 -0.569715 6.257778
v -0.855977 -0.569715 6.695563
v -0.872903 -0.161064 6.717868
v -1.569427 0.028877 6.297426
v -1.539131 -0.772433 6.257504
v -0.821265 -0.772433 6.802253
v -0.851561 0.028877 6.842176
v -2.228770 -1.003049 7.118186
v -2.244596 -0.956143 7.142042
v -2.247162 -0.952907 7.107644
v -2.276373 -0.022784 7.183919
v -2.263972 0.032769 7.164561
v -2.279023 -0.017140 7.149628
v -1.464563 -1.003049 7.698102
v -1.449461 -0.952907 7.712977
v -1.482463 -0.956143 7.720384
v -1.499753 0.032769 7.744486
v -1.514241 -0.022784 7.762259
v -1.481321 -0.017140 7.754961
v -1.584520 0.168778 6.161024
v -1.577505 0.140644 6.156590
v -1.599557 0.118871 6.146067
v -1.544582 -1.002311 6.108381
v -1.563091 -0.952169 6.098014
v -1.539402 -0.978465 6.106381
v -0.675648 -0.978465 6.761839
v -0.661212 -0.952169 6.782402
v -0.676180 -1.002311 6.767366
v -0.716129 0.168778 6.820000
v -0.697678 0.118871 6.830455
v -0.713749 0.140644 6.812050
v -1.499282 -0.941231 6.136462
v -1.499848 -0.866633 6.137207
v -1.295794 -0.866633 6.292053
v -1.295221 -0.941231 6.291299
v -0.632949 -0.995699 6.757278
v -0.255892 -0.995699 6.418582
v -1.666512 -0.995699 5.606654
v -1.289455 -0.995699 5.267957
v -0.632949 -0.901307 6.757278
v -0.255892 -0.939064 6.418582
v -1.666512 -0.901307 5.606654
v -1.289455 -0.939064 5.267957
v -1.620568 -0.998199 5.173007
v -1.615582 -0.998199 5.139016
v -1.741793 -0.998199 5.043242
v -1.773187 -0.998199 5.057192
v -1.802574 -0.998199 5.385432
v -1.771193 -0.998199 5.371499
v -1.923812 -0.998199 5.255685
v -1.928785 -0.998199 5.289658
v -1.773187 -0.938828 5.057192
v -1.741793 -0.948828 5.043242
v -1.759978 -0.918199 5.067207
v -1.923812 -0.903828 5.255685
v -1.910603 -0.893199 5.265698
v -1.928785 -0.903828 5.289658
v -1.771193 -0.903828 5.371499
v -1.802574 -0.903828 5.385432
v -1.784393 -0.893199 5.361472
v -1.620568 -0.938828 5.173007
v -1.633768 -0.918199 5.162981
v -1.615582 -0.948828 5.139016
v -1.857884 -0.908199 5.196226
v -1.871093 -0.918828 5.186212
v -1.731674 -0.908199 5.292001
v -1.718476 -0.918828 5.302026
v -1.718476 -0.998199 5.302026
v -1.871093 -0.998199 5.186212
v -1.873699 -0.893199 5.217068
v -1.734291 -0.903828 5.322867
v -1.734291 -0.998199 5.322867
v -1.886909 -0.998199 5.207054
v -1.886909 -0.903828 5.207054
v -1.747489 -0.893199 5.312841
v -1.858097 -0.975898 5.343298
v -1.873262 -0.975898 5.331791
v -1.873262 -0.956923 5.331791
v -1.858097 -0.956923 5.343298
v -1.876525 -0.966410 5.329315
v -1.854834 -0.966410 5.345775
v -1.865681 -0.979980 5.337545
v -1.865681 -0.952841 5.337545
v -1.870206 -0.973258 5.354873
v -1.881151 -0.973258 5.346568
v -1.881151 -0.959563 5.346568
v -1.870206 -0.959563 5.354873
v -1.883506 -0.966410 5.344782
v -1.867851 -0.966410 5.356661
v -1.875678 -0.976204 5.350721
v -1.875678 -0.956617 5.350721
v -1.717417 -0.951700 5.725148
v -1.730950 -0.951996 5.729198
v -1.730950 -0.938300 5.729198
v -1.717417 -0.938005 5.725148
v -1.733887 -0.945283 5.730340
v -1.714498 -0.944763 5.724179
v -1.724146 -0.954689 5.726772
v -1.724146 -0.935101 5.726772
v -1.897987 -0.963282 5.582027
v -1.894998 -0.956382 5.581580
v -1.881202 -0.956258 5.579940
v -1.878246 -0.963094 5.579640
v -1.888098 -0.953371 5.580748
v -1.881202 -0.969953 5.579940
v -1.888098 -0.972959 5.580748
v -1.894998 -0.970078 5.581580
v -1.937501 -0.966381 5.465752
v -1.921326 -0.959449 5.469152
v -1.934638 -0.973213 5.466350
v -1.934638 -0.959517 5.466350
v -1.918465 -0.966279 5.469745
v -1.927978 -0.956539 5.467760
v -1.921326 -0.973144 5.469152
v -1.927978 -0.976127 5.467760
v -1.425788 -0.943410 5.852650
v -1.443412 -0.944086 5.839277
v -1.443412 -0.925111 5.839277
v -1.425788 -0.924435 5.852650
v -1.448323 -0.935052 5.835551
v -1.421947 -0.933763 5.855565
v -1.434257 -0.947736 5.846223
v -1.434257 -0.920597 5.846223
v -1.431803 -0.939094 5.868849
v -1.445992 -0.939986 5.858082
v -1.445992 -0.926291 5.858082
v -1.431803 -0.925398 5.868849
v -1.449448 -0.933441 5.855461
v -1.428771 -0.932060 5.871150
v -1.438865 -0.942477 5.863492
v -1.438865 -0.922889 5.863492
v -1.493163 -0.911283 6.520710
v -1.502316 -0.911283 6.510461
v -1.502316 -0.897587 6.510461
v -1.493163 -0.897587 6.520710
v -1.504285 -0.904435 6.508256
v -1.491193 -0.904435 6.522913
v -1.497740 -0.914229 6.515585
v -1.497740 -0.894641 6.515585
v -1.332528 -0.904435 6.256985
v -1.329578 -0.897587 6.256793
v -1.315867 -0.897587 6.255900
v -1.312917 -0.904435 6.255708
v -1.322723 -0.894641 6.256346
v -1.315867 -0.911283 6.255900
v -1.322723 -0.914229 6.256346
v -1.329578 -0.911283 6.256793
v -1.500580 -0.918873 5.968708
v -1.497107 -0.925578 5.969066
v -1.496619 -0.911752 5.969087
v -1.489284 -0.908675 5.969711
v -1.489284 -0.928262 5.969711
v -1.446109 -0.901645 6.072767
v -1.430458 -0.900356 6.069363
v -1.442604 -0.896060 6.071666
v -1.428785 -0.907218 6.070234
v -1.432150 -0.912624 6.071619
v -1.444665 -0.908801 6.073174
v -1.436095 -0.895637 6.070267
v -1.438800 -0.913227 6.072734
v -1.571200 -0.927943 5.843510
v -1.582688 -0.927660 5.849467
v -1.582688 -0.913965 5.849467
v -1.571200 -0.914248 5.843510
v -1.585212 -0.920795 5.850905
v -1.568870 -0.921272 5.842649
v -1.576885 -0.930700 5.846315
v -1.576885 -0.911112 5.846315
v -1.482443 -0.925316 5.970319
v -1.496130 -0.925316 5.969109
v -1.482443 -0.911621 5.970319
v -1.499074 -0.918468 5.968847
v -1.479499 -0.918468 5.970581
v 2.463007 0.230714 7.945891
v 2.463007 2.337334 7.945891
v -1.696595 0.230714 7.945891
v -1.696595 2.337334 7.945891
v 2.345282 0.230714 7.995489
v 2.345282 2.337334 7.995489
v -1.578870 0.230714 7.995490
v -1.578870 2.337334 7.995490
vn -0.0000 1.0000 -0.0000
vn -0.0000 -1.0000 -0.0000
vn 1.0000 -0.0000 -0.0000
vn -0.0000 -0.0000 -1.0000
vn -1.0000 -0.0000 -0.0000
vn -0.0000 -0.0000 1.0000
vn 0.9279 -0.0000 -0.3728
vn -0.0000 -0.9497 -0.3130
vn -0.9279 -0.0000 -0.3728
vn -0.0000 0.9497 -0.3130
vn -0.7634 -0.0000 -0.6459
vn 0.7634 -0.0000 -0.6459
vn 0.7634 -0.0000 0.6459
vn -0.7634 -0.0000 0.6459
vn 0.6895 0.7243 -0.0000
vn 0.7664 -0.0000 -0.6423
vn 0.7664 -0.0000 0.6423
vn -0.7664 -0.0000 0.6423
vn -0.7664 -0.0000 -0.6423
vn -0.0000 0.8367 0.5477
vn -0.0000 0.9861 -0.1662
vn -0.0000 0.9033 -0.4290
vn -0.6214 0.6615 -0.4198
vn -0.6375 0.7456 -0.1944
vn -0.9085 -0.0000 -0.4179
vn -0.9768 -0.0000 -0.2141
vn -0.6214 -0.6615 -0.4198
vn -0.6375 -0.7456 -0.1944
vn -0.0000 -0.9033 -0.4290
vn -0.0000 -0.9861 -0.1662
vn 0.6214 -0.6615 -0.4198
vn 0.6375 -0.7456 -0.1944
vn 0.9085 -0.0000 -0.4179
vn 0.9768 -0.0000 -0.2141
vn -0.5713 -0.5612 -0.5989
vn -0.0000 -0.8483 -0.5296
vn 0.6214 0.6615 -0.4198
vn 0.6375 0.7456 -0.1944
vn 0.6637 -0.7480 -0.0000
vn -0.5713 0.5612 -0.5989
vn -0.0000 0.8483 -0.5296
vn 0.5713 0.5612 -0.5989
vn 0.7626 -0.0000 -0.6468
vn 0.5713 -0.5612 -0.5989
vn -0.7626 -0.0000 -0.6468
vn 0.6637 0.7480 -0.0000
vn -0.6637 0.7480 -0.0000
vn -0.6637 -0.7480 -0.0000
vn -0.3135 -0.9496 -0.0000
vn -0.0000 -0.9482 -0.3176
vn -0.0000 -0.9482 0.3177
vn 0.3136 -0.9496 -0.0000
vn 0.2372 0.9714 -0.0000
vn -0.2372 0.9714 -0.0000
vn -0.0000 0.9127 -0.4087
vn -0.0000 0.9127 0.4087
vn 0.8882 0.4502 0.0914
vn 0.4928 0.8656 0.0890
vn 0.5278 0.7247 0.4430
vn 0.7897 0.0550 0.6110
vn -0.1856 0.6208 0.7617
vn -0.0951 0.9351 0.3414
vn -0.3848 0.8485 0.3634
vn -0.7430 0.3002 0.5983
vn -0.8750 0.4054 -0.2645
vn -0.5808 0.8005 -0.1478
vn -0.4154 0.7834 -0.4622
vn -0.7120 0.2806 -0.6436
vn 0.0901 0.1996 -0.9757
vn 0.1822 0.8116 -0.5551
vn 0.5191 0.6728 -0.5272
vn 0.7481 0.2734 -0.6046
vn -0.2011 -0.9612 -0.1890
vn -0.5471 -0.7941 -0.2648
vn -0.5697 -0.7227 -0.3914
vn -0.3041 -0.7894 -0.5332
vn 0.1395 0.9885 -0.0592
vn 0.5618 0.8154 -0.1397
vn -0.1641 0.9850 -0.0525
vn -0.1332 0.8370 -0.5307
vn -0.1613 0.9641 0.2111
vn -0.6989 0.7059 0.1149
vn 0.1308 0.9127 0.3871
vn 0.1477 0.9789 0.1411
vn 0.6126 -0.7876 -0.0661
vn 0.2823 -0.9496 -0.1364
vn 0.1504 -0.7996 -0.5813
vn 0.4167 -0.7810 -0.4652
vn 0.4586 -0.7838 0.4188
vn 0.1654 -0.8295 0.5335
vn 0.2118 -0.9592 0.1871
vn 0.6545 -0.7274 0.2063
vn -0.0809 -0.8796 0.4688
vn -0.1449 -0.9847 0.0967
vn -0.3340 -0.8109 0.4805
vn -0.5348 -0.8396 0.0955
vn 0.1391 -0.3838 -0.9129
vn 0.6642 -0.2880 -0.6899
vn -0.6730 -0.3760 -0.6369
vn -0.4397 -0.4001 -0.8041
vn -0.2907 0.1053 -0.9510
vn -0.9199 -0.2518 -0.3007
vn -0.5341 -0.4912 0.6881
vn -0.9701 -0.1888 0.1523
vn -0.9062 0.3632 0.2165
vn -0.2174 -0.3354 0.9166
vn 0.6788 -0.5830 0.4466
vn 0.2481 -0.4442 0.8609
vn 0.1442 0.2921 0.9455
vn 0.8812 -0.4361 0.1826
vn 0.8452 -0.5066 -0.1704
vn 0.9767 0.1738 -0.1260
vn -0.2469 -0.2959 0.9228
vn -0.2688 0.1502 0.9514
vn -0.9120 0.1149 0.3937
vn -0.8923 -0.2680 0.3634
vn 0.3026 0.8657 -0.3988
vn 0.5548 0.0577 -0.8300
vn 0.5484 0.0418 -0.8352
vn 0.4465 -0.0957 -0.8896
vn 0.4505 0.1761 -0.8752
vn 0.5460 0.8374 -0.0237
vn -0.1090 0.9501 -0.2922
vn -0.6302 0.7733 0.0701
vn 0.0178 0.8993 0.4371
vn -0.9584 -0.1858 -0.2167
vn -0.9679 0.1641 -0.1903
vn -0.4430 0.2166 -0.8700
vn -0.4278 -0.1453 -0.8921
vn 0.9942 -0.1049 0.0220
vn 0.9826 0.1835 0.0275
vn 0.5390 0.1682 0.8253
vn 0.5597 -0.2041 0.8032
vn 0.6521 0.0578 -0.7559
vn 0.7471 0.1789 -0.6402
vn 0.6586 0.0429 -0.7512
vn 0.7691 -0.1001 -0.6312
vn 0.3452 -0.0660 -0.9362
vn 0.3393 0.1932 -0.9206
vn 0.8532 0.1506 -0.4993
vn 0.8631 -0.0309 -0.5042
vn 0.3568 -0.8072 -0.4702
vn 0.9886 0.0301 0.1476
vn -0.4082 0.0301 -0.9124
vn 0.4752 -0.2467 -0.8446
vn 0.4506 0.3596 -0.8171
vn 0.6780 -0.2471 -0.6923
vn 0.6560 0.3613 -0.6627
vn -0.5527 -0.8326 0.0376
vn 0.0681 -0.9382 0.3394
vn -0.0684 -0.9259 -0.3714
vn 0.6064 -0.7939 -0.0448
vn 0.6044 0.0126 -0.7966
vn -0.0345 -0.9082 0.4170
vn -0.7016 -0.7124 -0.0173
vn 0.0345 -0.9082 -0.4170
vn 0.7016 -0.7124 0.0173
vn 0.0553 0.9972 -0.0496
vn 0.0408 -0.0000 -0.9992
vn 0.9978 -0.0000 0.0662
vn -0.1274 -0.0000 0.9919
vn -0.9998 -0.0000 0.0206
vn 0.0553 -0.9195 -0.3892
vn 0.1974 0.3764 -0.9052
vn 0.9231 0.2718 -0.2721
vn 0.6229 -0.7642 -0.1674
vn -0.3444 -0.9017 -0.2614
vn -0.6661 0.3720 -0.6465
vn -0.5590 0.3937 -0.7298
vn -0.2761 -0.9035 -0.3279
vn -0.0553 -0.9195 0.3892
vn -0.1481 0.7273 0.6701
vn -0.7900 0.5728 0.2187
vn -0.6228 -0.7642 0.1675
vn -0.0599 0.9056 -0.4198
vn 0.3878 0.9203 -0.0515
vn 0.4624 0.8851 -0.0516
vn -0.0316 0.9442 -0.3278
vn 0.5329 -0.8219 0.2011
vn 0.3444 -0.9017 0.2614
vn -0.8051 0.5134 -0.2971
vn -0.2913 0.9565 -0.0159
vn 0.5490 0.5660 0.6150
vn 0.0850 0.9732 0.2138
vn 0.8849 0.3956 0.2460
vn -0.0482 0.9692 -0.2416
vn -0.5235 0.6289 -0.5749
vn 0.7767 0.4196 0.4697
vn -0.5331 -0.8218 -0.2010
vn 0.2760 -0.9035 0.3279
vn 0.7279 0.6418 0.2411
vn 0.3358 0.9416 -0.0238
vn -0.5711 -0.8049 -0.1611
vn -0.6389 -0.7244 -0.2588
vn -0.9123 -0.0003 -0.4095
vn -0.9114 -0.0000 -0.4114
vn -0.0682 -0.9716 0.2267
vn -0.1023 -0.9928 0.0625
vn -0.6401 0.7230 -0.2597
vn -0.5711 0.8049 -0.1611
vn 0.3854 0.7266 0.5688
vn 0.5028 0.7551 0.4207
vn 0.8056 -0.0000 0.5925
vn 0.6415 -0.0000 0.7671
vn -0.1032 0.9928 0.0613
vn -0.0682 0.9716 0.2267
vn 0.5033 -0.7542 0.4217
vn 0.3854 -0.7266 0.5688
vn -0.8698 -0.0022 0.4934
vn -0.6525 0.0011 0.7578
vn -0.4844 0.7480 0.4537
vn -0.6031 0.7283 0.3254
vn 0.5478 0.7222 -0.4223
vn 0.4195 0.6690 -0.6135
vn 0.6466 -0.0214 -0.7625
vn 0.8308 -0.0122 -0.5565
vn -0.0765 0.9947 -0.0683
vn -0.0529 0.9983 0.0261
vn 0.4795 -0.7635 -0.4327
vn 0.5633 -0.7603 -0.3235
vn 0.0910 -0.9942 0.0577
vn 0.0210 -0.9948 0.0994
vn -0.5752 -0.7302 0.3687
vn -0.3990 -0.7178 0.5705
vn -0.1319 -0.9912 0.0118
vn -0.7059 -0.7080 -0.0200
vn -0.9993 -0.0088 -0.0373
vn 0.5849 -0.8107 0.0261
vn 0.9997 -0.0093 0.0236
vn -0.1416 0.9898 -0.0125
vn 0.5903 0.8072 0.0032
vn -0.7181 0.6952 -0.0314
vn -0.6237 -0.7763 0.0910
vn -0.6100 -0.7920 -0.0249
vn -0.9744 -0.0235 -0.2237
vn -0.9950 -0.0852 -0.0520
vn -0.1424 -0.9590 0.2451
vn -0.0729 -0.9769 0.2008
vn -0.6143 0.7662 -0.1884
vn -0.6567 0.7531 -0.0400
vn 0.5334 0.8066 0.2549
vn 0.5849 0.7746 0.2406
vn 0.9035 0.0197 0.4281
vn 0.9077 -0.0587 0.4155
vn -0.0076 1.0000 0.0049
vn -0.0847 0.9918 0.0958
vn 0.5459 -0.7442 0.3849
vn 0.4278 -0.8205 0.3792
vn -0.9871 -0.1588 -0.0212
vn -0.8261 -0.0000 -0.5636
vn -0.5889 0.7018 -0.4008
vn -0.6473 0.7621 0.0152
vn 0.6180 0.7854 0.0342
vn 0.5431 0.7567 0.3640
vn 0.8314 -0.0000 0.5557
vn 0.9882 0.1529 0.0082
vn -0.0661 0.9968 -0.0458
vn 0.0937 0.9941 0.0548
vn 0.5431 -0.7567 0.3640
vn 0.8056 -0.5923 -0.0132
vn -0.0661 -0.9968 -0.0458
vn 0.2523 -0.9671 -0.0322
vn -0.4304 -0.9010 -0.0547
vn -0.5889 -0.7018 -0.4008
vn 0.2055 -0.9771 -0.0558
vn -0.3943 -0.8681 0.3014
vn -0.8378 -0.2367 0.4920
vn 0.7751 -0.4776 -0.4137
vn 0.8210 0.3008 -0.4852
vn -0.1814 0.9830 0.0281
vn 0.3799 0.8883 -0.2582
vn -0.7514 0.5461 0.3704
vn -0.9923 -0.1222 0.0211
vn -0.7629 0.6465 -0.0043
vn 0.4914 0.8617 0.1266
vn 0.8939 0.0954 0.4380
vn -0.0839 0.9824 -0.1672
vn 0.5154 -0.7770 0.3614
vn -0.0613 -0.9938 0.0926
vn -0.5919 -0.8044 0.0510
vn 0.3950 0.8626 -0.3161
vn 0.8662 0.1795 -0.4663
vn -0.3621 0.9304 0.0572
vn 0.7137 -0.6435 -0.2768
vn -0.0469 0.9961 -0.0750
vn 0.5043 0.7071 -0.4956
vn 0.7478 0.0068 -0.6639
vn 0.5394 -0.7213 -0.4344
vn 0.0542 -0.9983 0.0197
vn -0.4658 -0.7136 0.5232
vn -0.7253 0.0258 0.6879
vn -0.5035 0.7734 0.3851
vn 0.8195 0.0028 -0.5731
vn 0.6608 -0.6002 -0.4506
vn 0.1959 -0.9736 -0.1173
vn -0.5025 -0.7777 0.3777
vn -0.8092 -0.0058 0.5876
vn -0.4984 0.7961 0.3432
vn 0.6535 0.5932 -0.4701
vn 0.1996 0.9669 -0.1590
vn -0.3883 -0.0000 0.9215
vn 0.3883 -0.0000 0.9216
vt 0.598786 0.783408
vt 0.525181 0.783408
vt 0.525181 0.754448
vt 0.598786 0.754448
vt 0.563045 0.750391
vt 0.560913 0.750391
vt 0.560913 0.785971
vt 0.563045 0.785971
vt 0.599152 0.766725
vt 0.599152 0.768478
vt 0.524751 0.768478
vt 0.524751 0.766725
vt 0.563045 0.785971
vt 0.563045 0.750391
vt 0.956861 0.925873
vt 0.963315 0.925873
vt 0.963315 0.998328
vt 0.956861 0.998328
vt 0.999192 0.994936
vt 0.952975 0.994936
vt 0.952975 0.933440
vt 0.999192 0.933440
vt 0.599419 0.740750
vt 0.599419 0.717055
vt 0.570741 0.717055
vt 0.570741 0.740750
vt 0.599600 0.734904
vt 0.599600 0.721101
vt 0.541984 0.721101
vt 0.541984 0.734904
vt 0.953939 0.927081
vt 0.953939 0.932326
vt 0.998205 0.932326
vt 0.998205 0.927081
vt 0.543165 0.740639
vt 0.598427 0.740639
vt 0.598427 0.716945
vt 0.543165 0.716945
vt 0.599549 0.768871
vt 0.525737 0.768871
vt 0.525737 0.766947
vt 0.599549 0.766947
vt 0.455968 0.785714
vt 0.507642 0.785714
vt 0.507642 0.750624
vt 0.455968 0.750624
vt 0.465124 0.785714
vt 0.465124 0.750624
vt 0.454041 0.750074
vt 0.507945 0.750074
vt 0.507945 0.786688
vt 0.454041 0.786688
vt 0.462634 0.749845
vt 0.507674 0.749845
vt 0.507674 0.786914
vt 0.462634 0.786914
vt 0.465731 0.701677
vt 0.519485 0.701677
vt 0.519485 0.719291
vt 0.465731 0.719291
vt 0.952741 0.876886
vt 0.999198 0.876886
vt 0.999198 0.923190
vt 0.952741 0.923190
vt 0.551255 0.721190
vt 0.551255 0.724281
vt 0.545110 0.724281
vt 0.545110 0.721190
vt 0.557351 0.721190
vt 0.557351 0.724281
vt 0.594076 0.721190
vt 0.594076 0.724281
vt 0.587930 0.724281
vt 0.587930 0.721190
vt 0.581834 0.721190
vt 0.581834 0.724281
vt 0.575738 0.721190
vt 0.575738 0.724281
vt 0.569593 0.724281
vt 0.569593 0.721190
vt 0.563447 0.724281
vt 0.563447 0.721190
vt 0.952950 0.865031
vt 0.952950 0.809438
vt 0.998705 0.809438
vt 0.998705 0.865031
vt 0.445663 0.764650
vt 0.521266 0.764650
vt 0.521266 0.784786
vt 0.445663 0.784786
vt 0.445663 0.750737
vt 0.521266 0.750738
vt 0.519803 0.757687
vt 0.449088 0.757687
vt 0.449088 0.781588
vt 0.494695 0.781588
vt 0.444494 0.756114
vt 0.521355 0.756114
vt 0.521355 0.780088
vt 0.444494 0.780088
vt 0.494695 0.781588
vt 0.449088 0.781588
vt 0.563606 0.630172
vt 0.420608 0.630172
vt 0.420608 0.622426
vt 0.563606 0.622426
vt 0.952622 0.796735
vt 0.952622 0.721396
vt 0.990375 0.721396
vt 0.990375 0.796735
vt 0.477215 0.551215
vt 0.544264 0.551215
vt 0.544264 0.582864
vt 0.477215 0.582864
vt 0.465124 0.768169
vt 0.507642 0.768169
vt 0.540615 0.750836
vt 0.559003 0.750836
vt 0.577392 0.750836
vt 0.577392 0.786943
vt 0.557016 0.786943
vt 0.540615 0.776206
vt 0.463992 0.770954
vt 0.463992 0.752111
vt 0.498499 0.752111
vt 0.498499 0.770954
vt 0.498499 0.786124
vt 0.463992 0.786124
vt 0.465124 0.785714
vt 0.891784 0.700438
vt 0.891784 0.661790
vt 0.921089 0.661790
vt 0.921089 0.700438
vt 0.891784 0.661790
vt 0.921089 0.661790
vt 0.955041 0.844817
vt 0.967742 0.844817
vt 0.962863 0.832030
vt 0.959920 0.832030
vt 0.889185 0.720804
vt 0.889185 0.639538
vt 0.923844 0.639538
vt 0.923844 0.720804
vt 0.932176 0.869346
vt 0.930922 0.869866
vt 0.929668 0.869346
vt 0.929148 0.868092
vt 0.929668 0.866838
vt 0.930922 0.866318
vt 0.932176 0.866838
vt 0.932696 0.868092
vt 0.959920 0.832030
vt 0.962863 0.832030
vt 0.962863 0.832030
vt 0.962864 0.832030
vt 0.959920 0.832030
vt 0.749999 0.490005
vt 0.919705 0.419702
vt 0.990000 0.250000
vt 0.919705 0.080298
vt 0.749999 0.009995
vt 0.580294 0.080298
vt 0.509999 0.250000
vt 0.580294 0.419702
vt 0.552469 0.772939
vt 0.577242 0.772939
vt 0.577242 0.761312
vt 0.552469 0.761312
vt 0.552469 0.772939
vt 0.577241 0.772939
vt 0.577241 0.761312
vt 0.552469 0.761312
vt 0.963475 0.824968
vt 0.963475 0.849740
vt 0.990188 0.875244
vt 0.990188 0.799463
vt 0.993738 0.799463
vt 0.993738 0.875244
vt 0.963475 0.849741
vt 0.963475 0.824968
vt 0.957067 0.821214
vt 0.995157 0.821214
vt 0.995157 0.853772
vt 0.957067 0.853772
vt 0.999173 0.861251
vt 0.953050 0.861251
vt 0.953050 0.813736
vt 0.999173 0.813736
vt 0.956668 0.852289
vt 0.992883 0.852289
vt 0.992883 0.815739
vt 0.956668 0.815739
vt 0.114477 0.422022
vt 0.114477 0.434867
vt 0.103330 0.430794
vt 0.103330 0.419900
vt 0.076712 0.422022
vt 0.076712 0.434867
vt 0.065565 0.430794
vt 0.065565 0.419900
vt 0.190005 0.422022
vt 0.190005 0.434867
vt 0.178859 0.430794
vt 0.178859 0.419900
vt 0.152241 0.422022
vt 0.152241 0.434867
vt 0.141094 0.430794
vt 0.141094 0.419900
vt 0.178858 0.375137
vt 0.190005 0.391799
vt 0.178859 0.395872
vt 0.167712 0.391799
vt 0.148338 0.441460
vt 0.129947 0.434867
vt 0.180791 0.443329
vt 0.167712 0.434867
vt 0.072906 0.444008
vt 0.054418 0.434867
vt 0.205476 0.434867
vt 0.207096 0.441358
vt 0.092183 0.434867
vt 0.095639 0.441495
vt 0.102781 0.473841
vt 0.140995 0.473841
vt 0.129947 0.391799
vt 0.141094 0.375137
vt 0.152241 0.391799
vt 0.141094 0.395872
vt 0.103330 0.395872
vt 0.092183 0.391799
vt 0.103330 0.375137
vt 0.114477 0.391799
vt 0.076712 0.391799
vt 0.065565 0.375137
vt 0.065565 0.395872
vt 0.054418 0.391799
vt 0.216623 0.375137
vt 0.205476 0.391799
vt 0.152241 0.404644
vt 0.141094 0.406766
vt 0.178859 0.406766
vt 0.167712 0.404644
vt 0.167712 0.422022
vt 0.190005 0.404644
vt 0.065565 0.406766
vt 0.054418 0.404644
vt 0.205476 0.404644
vt 0.054418 0.422022
vt 0.205476 0.422022
vt 0.076712 0.404644
vt 0.103330 0.406766
vt 0.092183 0.404644
vt 0.092183 0.422022
vt 0.114477 0.404644
vt 0.129947 0.404644
vt 0.129947 0.422022
vt 0.508515 0.752620
vt 0.508515 0.784686
vt 0.469222 0.784686
vt 0.469222 0.752620
vt 0.459522 0.751376
vt 0.498628 0.751376
vt 0.497697 0.753890
vt 0.460452 0.753890
vt 0.498628 0.785044
vt 0.499735 0.750387
vt 0.499735 0.786063
vt 0.505764 0.749955
vt 0.505763 0.786107
vt 0.471980 0.783938
vt 0.472059 0.752123
vt 0.517799 0.759210
vt 0.519017 0.780957
vt 0.462831 0.780957
vt 0.461437 0.756067
vt 0.461437 0.756066
vt 0.519017 0.780957
vt 0.459522 0.785044
vt 0.458414 0.786063
vt 0.458414 0.750387
vt 0.894886 0.671583
vt 0.903705 0.671583
vt 0.903705 0.688819
vt 0.894886 0.688819
vt 0.460452 0.782256
vt 0.497697 0.782256
vt 0.891290 0.669917
vt 0.907074 0.669917
vt 0.891290 0.690641
vt 0.907074 0.690641
vt 0.472055 0.752123
vt 0.471361 0.752166
vt 0.471982 0.751431
vt 0.469168 0.786302
vt 0.468361 0.784588
vt 0.471977 0.783938
vt 0.471901 0.784630
vt 0.471282 0.783895
vt 0.519156 0.782112
vt 0.520178 0.780958
vt 0.499846 0.786860
vt 0.500647 0.785269
vt 0.499847 0.749527
vt 0.500647 0.751126
vt 0.457502 0.751126
vt 0.458303 0.749527
vt 0.458303 0.786860
vt 0.457502 0.785269
vt 0.505767 0.749954
vt 0.505687 0.749263
vt 0.468361 0.752439
vt 0.505802 0.786806
vt 0.472018 0.784638
vt 0.505766 0.786107
vt 0.505685 0.786799
vt 0.462971 0.782116
vt 0.519156 0.782116
vt 0.518964 0.759268
vt 0.508568 0.786398
vt 0.469168 0.786398
vt 0.919699 0.871055
vt 0.902141 0.871055
vt 0.902141 0.863653
vt 0.919699 0.863653
vt 0.505360 0.750170
vt 0.461219 0.750170
vt 0.461219 0.787162
vt 0.505360 0.787162
vt 0.442237 0.744225
vt 0.442237 0.720248
vt 0.523954 0.720248
vt 0.523954 0.744225
vt 0.500466 0.746365
vt 0.443050 0.746340
vt 0.443050 0.742371
vt 0.500466 0.742371
vt 0.464493 0.748494
vt 0.500466 0.742371
vt 0.464456 0.742389
vt 0.464493 0.748494
vt 0.523421 0.748494
vt 0.523384 0.742389
vt 0.464456 0.742389
vt 0.500466 0.746365
vt 0.464420 0.748494
vt 0.446130 0.709988
vt 0.443901 0.709988
vt 0.443901 0.718329
vt 0.446130 0.718329
vt 0.455665 0.712584
vt 0.455613 0.709249
vt 0.445450 0.709510
vt 0.445193 0.711517
vt 0.454062 0.718505
vt 0.449104 0.718505
vt 0.449104 0.710164
vt 0.454062 0.710164
vt 0.455750 0.709988
vt 0.455750 0.718329
vt 0.445450 0.718329
vt 0.445450 0.709988
vt 0.489215 0.750170
vt 0.463536 0.750170
vt 0.461219 0.755920
vt 0.461219 0.781412
vt 0.463536 0.787162
vt 0.489215 0.787162
vt 0.443537 0.709988
vt 0.461297 0.709521
vt 0.463209 0.709988
vt 0.461296 0.709988
vt 0.461297 0.718797
vt 0.461296 0.718329
vt 0.463209 0.718329
vt 0.445450 0.718807
vt 0.443537 0.718329
vt 0.456945 0.709988
vt 0.456931 0.709238
vt 0.455765 0.719080
vt 0.444049 0.711309
vt 0.448412 0.709988
vt 0.450324 0.709521
vt 0.450324 0.713107
vt 0.448412 0.713107
vt 0.455325 0.709656
vt 0.456469 0.709865
vt 0.455814 0.713454
vt 0.454670 0.713246
vt 0.452349 0.712822
vt 0.453003 0.709233
vt 0.450808 0.709388
vt 0.451353 0.712641
vt 0.456945 0.718329
vt 0.456931 0.719080
vt 0.455765 0.709238
vt 0.493364 0.750170
vt 0.493364 0.787162
vt 0.454664 0.712892
vt 0.454682 0.709244
vt 0.450342 0.709517
vt 0.503043 0.750170
vt 0.503043 0.787162
vt 0.505360 0.781412
vt 0.505360 0.755920
vt 0.464317 0.716492
vt 0.464413 0.716588
vt 0.464306 0.716838
vt 0.464168 0.716838
vt 0.464663 0.716343
vt 0.464663 0.716481
vt 0.464413 0.717087
vt 0.464317 0.717183
vt 0.465010 0.717183
vt 0.464914 0.717087
vt 0.465021 0.716838
vt 0.465159 0.716838
vt 0.464663 0.717194
vt 0.464663 0.717332
vt 0.464914 0.716588
vt 0.465010 0.716492
vt 0.594646 0.934239
vt 0.594646 0.869280
vt 0.593404 0.869253
vt 0.593404 0.934212
vt 0.596636 0.934212
vt 0.596636 0.999171
vt 0.597792 0.999197
vt 0.597792 0.934239
vt 0.592788 0.869191
vt 0.592788 0.934150
vt 0.596219 0.934150
vt 0.596219 0.999108
vt 0.599034 0.999171
vt 0.599034 0.934212
vt 0.599650 0.999108
vt 0.599650 0.934150
vt 0.595803 0.934212
vt 0.595803 0.869253
vt 0.596219 0.934150
vt 0.596219 0.869191
vt 0.596219 0.966629
vt 0.595803 0.966691
vt 0.594646 0.966718
vt 0.599034 0.901733
vt 0.599650 0.901671
vt 0.597792 0.901760
vt 0.596219 0.901671
vt 0.596636 0.901733
vt 0.593404 0.966691
vt 0.592788 0.966629
vt 0.594646 0.999197
vt 0.593404 0.999171
vt 0.596636 0.869253
vt 0.597792 0.869280
vt 0.592788 0.999108
vt 0.596219 0.869191
vt 0.599034 0.869253
vt 0.599650 0.869191
vt 0.595803 0.999171
vt 0.596219 0.999108
vt 0.596219 0.950390
vt 0.595803 0.950452
vt 0.594646 0.950478
vt 0.599034 0.917972
vt 0.599650 0.917910
vt 0.597792 0.917999
vt 0.596219 0.917910
vt 0.596636 0.917972
vt 0.593404 0.950452
vt 0.592788 0.950390
vt 0.990497 0.796608
vt 0.952509 0.796608
vt 0.952509 0.721569
vt 0.990497 0.721569
vt 0.599484 0.740846
vt 0.599484 0.716592
s 0
usemtl Material
f 4/1/1 3/2/1 2/3/1 1/4/1
f 6/1/2 7/4/2 9/3/2 5/2/2
f 1/5/3 7/6/3 6/7/3 4/8/3
f 4/9/4 6/10/4 5/11/4 3/12/4
f 3/13/5 5/7/5 9/6/5 2/14/5
f 10/1/1 8/2/1 9/3/1 11/4/1
f 36/15/3 35/16/3 34/17/3 37/18/3
f 32/19/4 34/20/4 35/21/4 33/22/4
f 8/23/5 15/24/5 14/25/5 9/26/5
f 10/27/4 13/28/4 15/29/4 8/30/4
f 11/26/3 12/25/3 13/24/3 10/23/3
f 19/19/4 17/20/4 16/21/4 18/22/4
f 23/15/3 16/16/3 17/17/3 22/18/3
f 20/31/2 18/32/2 16/33/2 23/34/2
f 21/18/5 19/17/5 18/16/5 20/15/5
f 22/34/1 17/33/1 19/32/1 21/31/1
f 24/19/4 25/22/4 27/21/4 26/20/4
f 31/15/5 30/18/5 26/17/5 27/16/5
f 28/31/2 31/34/2 27/33/2 25/32/2
f 29/18/3 28/15/3 25/16/3 24/17/3
f 30/34/1 29/31/1 24/32/1 26/33/1
f 39/31/2 33/32/2 35/33/2 36/34/2
f 38/18/5 32/17/5 33/16/5 39/15/5
f 37/34/1 34/33/1 32/32/1 38/31/1
f 44/15/3 43/16/3 42/17/3 45/18/3
f 40/19/4 42/20/4 43/21/4 41/22/4
f 47/31/2 41/32/2 43/33/2 44/34/2
f 46/18/5 40/17/5 41/16/5 47/15/5
f 45/34/1 42/33/1 40/32/1 46/31/1
f 11/35/6 9/36/6 14/37/6 12/38/6
f 1/39/6 2/40/6 9/41/6 7/42/6
f 50/1/1 49/2/1 48/3/1 3/4/1
f 53/1/2 5/4/2 52/3/2 51/2/2
f 3/5/6 5/6/6 53/7/6 50/8/6
f 50/9/3 53/10/3 51/11/3 49/12/3
f 49/13/4 51/7/4 52/6/4 48/14/4
f 56/1/1 54/2/1 55/3/1 8/4/1
f 80/15/6 79/16/6 78/17/6 81/18/6
f 76/19/3 78/20/3 79/21/3 77/22/3
f 54/23/4 59/24/4 58/25/4 55/26/4
f 56/27/3 57/28/3 59/29/3 54/30/3
f 63/19/3 61/20/3 60/21/3 62/22/3
f 67/15/6 60/16/6 61/17/6 66/18/6
f 64/31/2 62/32/2 60/33/2 67/34/2
f 65/18/4 63/17/4 62/16/4 64/15/4
f 66/34/1 61/33/1 63/32/1 65/31/1
f 68/19/3 69/22/3 71/21/3 70/20/3
f 75/15/4 74/18/4 70/17/4 71/16/4
f 72/31/2 75/34/2 71/33/2 69/32/2
f 73/18/6 72/15/6 69/16/6 68/17/6
f 74/34/1 73/31/1 68/32/1 70/33/1
f 83/31/2 77/32/2 79/33/2 80/34/2
f 82/18/4 76/17/4 77/16/4 83/15/4
f 81/34/1 78/33/1 76/32/1 82/31/1
f 88/15/6 87/16/6 86/17/6 89/18/6
f 84/19/3 86/20/3 87/21/3 85/22/3
f 91/31/2 85/32/2 87/33/2 88/34/2
f 90/18/4 84/17/4 85/16/4 91/15/4
f 89/34/1 86/33/1 84/32/1 90/31/1
f 96/15/6 95/16/6 94/17/6 97/18/6
f 92/19/3 94/20/3 95/21/3 93/22/3
f 99/31/2 93/32/2 95/33/2 96/34/2
f 98/18/4 92/17/4 93/16/4 99/15/4
f 97/34/1 94/33/1 92/32/1 98/31/1
f 100/19/3 101/22/3 103/21/3 102/20/3
f 107/15/4 106/18/4 102/17/4 103/16/4
f 104/31/2 107/34/2 103/33/2 101/32/2
f 105/18/6 104/15/6 101/16/6 100/17/6
f 106/34/1 105/31/1 100/32/1 102/33/1
f 8/35/5 55/36/5 58/37/5 15/38/5
f 3/39/5 48/40/5 52/41/5 5/42/5
f 111/19/4 109/20/4 108/21/4 110/22/4
f 115/15/7 108/16/7 109/17/7 114/18/7
f 112/31/8 110/32/8 108/33/8 115/34/8
f 113/18/9 111/17/9 110/16/9 112/15/9
f 114/34/10 109/33/10 111/32/10 113/31/10
f 119/43/2 116/44/2 117/45/2 118/46/2
f 122/47/1 121/48/1 120/45/1 123/44/1
f 119/1/4 118/2/4 121/2/4 122/1/4
f 118/49/5 117/50/5 120/51/5 121/52/5
f 117/53/6 116/54/6 123/55/6 120/56/6
f 116/50/3 119/49/3 122/52/3 123/51/3
f 126/57/3 127/58/3 128/59/3 129/60/3
f 131/61/6 130/62/6 133/63/6 132/64/6
f 135/61/6 134/62/6 137/63/6 136/64/6
s 1
f 139/65/11 152/66/11 147/67/4 144/68/4
f 139/65/11 142/69/5 149/70/5 152/66/11
f 144/71/4 147/72/4 151/73/12 140/74/12
f 143/75/3 140/74/12 151/73/12 148/76/3
f 141/77/13 150/78/13 146/79/6 145/80/6
f 141/77/13 143/75/3 148/76/3 150/78/13
f 145/80/6 146/79/6 153/81/14 138/82/14
f 142/69/5 138/82/14 153/81/14 149/70/5
f 155/65/11 168/66/11 163/67/4 160/68/4
f 155/65/11 158/69/5 165/70/5 168/66/11
f 160/71/4 163/72/4 167/73/12 156/74/12
f 159/75/3 156/74/12 167/73/12 164/76/3
f 157/77/13 166/78/13 162/79/6 161/80/6
f 157/77/13 159/75/3 164/76/3 166/78/13
f 161/80/6 162/79/6 169/81/14 154/82/14
f 158/69/5 154/82/14 169/81/14 165/70/5
f 171/65/11 184/66/11 179/67/4 176/68/4
f 171/65/11 174/69/5 181/70/5 184/66/11
f 176/71/4 179/72/4 183/73/12 172/74/12
f 175/75/3 172/74/12 183/73/12 180/76/3
f 173/77/13 182/78/13 178/79/6 177/80/6
f 173/77/13 175/75/3 180/76/3 182/78/13
f 177/80/6 178/79/6 185/81/14 170/82/14
f 174/69/5 170/82/14 185/81/14 181/70/5
f 187/65/11 200/66/11 195/67/4 192/68/4
f 187/65/11 190/69/5 197/70/5 200/66/11
f 192/71/4 195/72/4 199/73/12 188/74/12
f 191/75/3 188/74/12 199/73/12 196/76/3
f 189/77/13 198/78/13 194/79/6 193/80/6
f 189/77/13 191/75/3 196/76/3 198/78/13
f 193/80/6 194/79/6 201/81/14 186/82/14
f 190/69/5 186/82/14 201/81/14 197/70/5
s 0
f 203/83/6 202/84/6 205/85/6 204/86/6
f 125/61/6 124/62/6 207/63/6 206/64/6
f 209/61/6 208/62/6 211/63/6 210/64/6
f 215/43/2 212/44/2 213/45/2 214/46/2
f 218/87/1 217/88/1 216/89/1 219/90/1
f 215/91/15 214/92/15 217/88/15 218/87/15
f 214/93/4 213/94/4 216/95/4 217/96/4
f 213/97/5 212/98/5 219/99/5 216/100/5
f 212/94/6 215/93/6 218/101/6 219/102/6
s 1
f 221/65/16 234/66/16 229/67/3 226/68/3
f 221/65/16 224/69/4 231/70/4 234/66/16
f 226/71/3 229/72/3 233/73/17 222/74/17
f 225/75/6 222/74/17 233/73/17 230/76/6
f 223/77/18 232/78/18 228/79/5 227/80/5
f 223/77/18 225/75/6 230/76/6 232/78/18
f 227/80/5 228/79/5 235/81/19 220/82/19
f 224/69/4 220/82/19 235/81/19 231/70/4
f 237/65/16 250/66/16 245/67/3 242/68/3
f 237/65/16 240/69/4 247/70/4 250/66/16
f 242/71/3 245/72/3 249/73/17 238/74/17
f 241/75/6 238/74/17 249/73/17 246/76/6
f 239/77/18 248/78/18 244/79/5 243/80/5
f 239/77/18 241/75/6 246/76/6 248/78/18
f 243/80/5 244/79/5 251/81/19 236/82/19
f 240/69/4 236/82/19 251/81/19 247/70/4
f 253/65/16 266/66/16 261/67/3 258/68/3
f 253/65/16 256/69/4 263/70/4 266/66/16
f 258/71/3 261/72/3 265/73/17 254/74/17
f 257/75/6 254/74/17 265/73/17 262/76/6
f 255/77/18 264/78/18 260/79/5 259/80/5
f 255/77/18 257/75/6 262/76/6 264/78/18
f 259/80/5 260/79/5 267/81/19 252/82/19
f 256/69/4 252/82/19 267/81/19 263/70/4
f 269/65/16 282/66/16 277/67/3 274/68/3
f 269/65/16 272/69/4 279/70/4 282/66/16
f 274/71/3 277/72/3 281/73/17 270/74/17
f 273/75/6 270/74/17 281/73/17 278/76/6
f 271/77/18 280/78/18 276/79/5 275/80/5
f 271/77/18 273/75/6 278/76/6 280/78/18
f 275/80/5 276/79/5 283/81/19 268/82/19
f 272/69/4 268/82/19 283/81/19 279/70/4
s 0
f 286/103/1 285/104/1 284/105/1 287/106/1
f 289/107/15 288/108/15 290/109/15 291/110/15
f 294/111/15 295/112/15 293/113/15 292/114/15
f 303/115/2 302/116/2 296/45/2 297/48/2
f 298/117/3 303/118/3 297/119/3 301/120/3 304/121/3 305/122/3
f 298/47/2 299/44/2 302/116/2 303/115/2
f 304/123/1 301/124/1 300/125/1 307/126/1
f 296/119/5 302/118/5 299/117/5 306/122/5 307/121/5 300/120/5
f 297/48/4 296/45/4 300/45/4 301/48/4
f 304/123/20 307/126/20 306/127/20 305/128/20
f 299/44/6 298/47/6 305/129/6 306/44/6
s 1
f 308/130/21 309/131/22 311/132/23 310/133/24
f 310/133/24 311/132/23 313/134/25 312/130/26
f 312/130/26 313/134/25 315/132/27 314/133/28
f 314/133/28 315/132/27 317/131/29 316/130/30
f 316/130/30 317/131/29 319/135/31 318/133/32
f 318/133/32 319/135/31 321/131/33 320/130/34
f 317/136/29 315/137/27 327/138/35 328/139/36
f 320/130/34 321/131/33 323/135/37 322/133/38
f 322/133/38 323/135/37 309/131/22 308/130/21
f 316/140/30 318/141/32 337/142/39 336/143/2
f 324/144/40 325/145/41 331/146/42 330/147/43 329/148/44 328/149/36 327/150/35 326/151/45
f 323/137/37 321/136/33 330/152/43 331/153/42
f 313/136/25 311/137/23 324/154/40 326/139/45
f 319/137/31 317/136/29 328/139/36 329/155/44
f 309/136/22 323/137/37 331/153/42 325/156/41
f 311/137/23 309/136/22 325/156/41 324/154/40
f 315/137/27 313/136/25 326/139/45 327/138/35
f 321/136/33 319/137/31 329/155/44 330/152/43
s 0
f 332/157/6 333/158/6 334/159/6 335/160/6 336/161/6 337/162/6 338/163/6 339/164/6
s 1
f 322/141/38 308/140/21 332/143/1 339/142/46
f 308/140/21 310/141/24 333/142/47 332/143/1
f 312/140/26 314/141/28 335/142/48 334/143/5
f 318/141/32 320/140/34 338/143/3 337/142/39
f 314/141/28 316/140/30 336/143/2 335/142/48
f 320/140/34 322/141/38 339/142/46 338/143/3
f 310/141/24 312/140/26 334/143/5 333/142/47
s 0
f 342/165/3 341/166/3 345/167/3 346/168/3
f 340/169/5 343/170/5 349/171/5 344/172/5
f 344/173/49 349/174/49 351/175/49 348/176/49
f 341/166/4 340/169/4 344/172/4 345/167/4
f 347/175/4 348/176/4 356/177/4 359/178/4
f 343/170/6 342/165/6 346/168/6 349/171/6
f 345/179/50 344/173/50 348/176/50 347/175/50
f 349/174/51 346/180/51 350/176/51 351/175/51
f 346/180/52 345/179/52 347/175/52 350/176/52
f 354/181/1 355/182/1 352/183/1 353/184/1
f 350/176/3 347/175/3 359/178/3 358/177/3
f 351/175/6 350/176/6 358/177/6 357/178/6
f 348/176/5 351/175/5 357/178/5 356/177/5
f 353/184/53 352/183/53 356/185/53 357/186/53
f 355/182/54 354/181/54 358/187/54 359/188/54
f 354/181/55 353/184/55 357/186/55 358/187/55
f 352/183/56 355/182/56 359/188/56 356/185/56
f 361/189/4 360/190/4 362/191/4 363/192/4
s 1
f 419/193/57 377/194/58 367/195/59 378/196/60
f 415/197/61 383/198/62 371/199/63 384/200/64
f 411/201/65 389/202/66 369/203/67 390/204/68
f 407/205/69 395/206/70 365/207/71 375/208/72
f 403/209/73 386/210/74 368/211/75 393/212/76
f 399/213/77 376/214/78 365/207/71 395/206/70
f 389/202/66 397/215/79 394/216/80 369/203/67
f 397/215/79 399/213/77 395/206/70 394/216/80
f 371/199/63 383/198/62 396/217/81 388/218/82
f 388/219/82 396/220/81 397/215/79 389/202/66
f 383/198/62 382/221/83 398/222/84 396/217/81
f 396/223/81 398/222/84 399/213/77 397/224/79
f 382/221/83 367/195/59 377/194/58 398/222/84
f 398/222/84 377/194/58 376/214/78 399/213/77
f 373/225/85 401/226/86 392/227/87 364/228/88
f 401/226/86 403/209/73 393/212/76 392/227/87
f 366/229/89 381/230/90 400/231/91 372/232/92
f 372/232/92 400/231/91 401/226/86 373/225/85
f 381/230/90 380/233/93 402/234/94 400/231/91
f 400/231/91 402/234/94 403/209/73 401/226/86
f 380/233/93 370/235/95 387/236/96 402/234/94
f 402/237/94 387/238/96 386/210/74 403/209/73
f 392/227/87 405/239/97 374/240/98 364/228/88
f 405/239/97 407/205/69 375/208/72 374/240/98
f 368/211/75 391/241/99 404/242/100 393/212/76
f 393/212/76 404/242/100 405/239/97 392/227/87
f 391/241/99 390/204/68 406/243/101 404/242/100
f 404/242/100 406/243/101 407/205/69 405/239/97
f 390/204/68 369/203/67 394/216/80 406/243/101
f 406/243/101 394/216/80 395/206/70 407/205/69
f 386/210/74 409/244/102 391/241/99 368/211/75
f 409/244/102 411/201/65 390/204/68 391/241/99
f 370/235/95 385/245/103 408/246/104 387/236/96
f 387/238/96 408/247/104 409/244/102 386/210/74
f 385/245/103 384/200/64 410/248/105 408/246/104
f 408/247/104 410/249/105 411/201/65 409/244/102
f 384/200/64 371/199/63 388/218/82 410/248/105
f 410/249/105 388/219/82 389/202/66 411/201/65
f 380/233/93 413/250/106 385/245/103 370/235/95
f 413/250/106 415/197/61 384/200/64 385/245/103
f 366/229/89 379/251/107 412/252/108 381/230/90
f 381/230/90 412/252/108 413/250/106 380/233/93
f 379/251/107 378/196/60 414/253/109 412/252/108
f 412/252/108 414/253/109 415/197/61 413/250/106
f 378/196/60 367/195/59 382/221/83 414/253/109
f 414/253/109 382/221/83 383/198/62 415/197/61
f 372/232/92 417/254/110 379/251/107 366/229/89
f 417/254/110 419/193/57 378/196/60 379/251/107
f 364/228/88 374/240/98 416/255/111 373/225/85
f 373/225/85 416/255/111 417/254/110 372/232/92
f 374/240/98 375/208/72 418/256/112 416/255/111
f 416/255/111 418/256/112 419/193/57 417/254/110
f 375/208/72 365/207/71 376/214/78 418/256/112
f 418/256/112 376/214/78 377/194/58 419/193/57
f 440/257/113 442/258/114 435/259/115 433/260/116
s 0
f 422/261/117 420/262/117 429/263/117 430/264/117
s 1
f 421/265/118 420/262/119 449/266/120 445/267/121
f 453/268/122 444/269/123 436/270/124 441/271/125
f 434/272/126 437/273/127 446/274/128 448/275/129
f 451/276/130 454/274/131 443/277/132 439/272/133
f 423/278/134 421/265/118 445/267/121 455/279/135
f 422/261/136 423/278/134 455/279/135 450/280/137
f 420/262/119 422/261/136 450/280/137 449/266/120
f 425/281/138 424/282/139 427/283/140 426/284/141
s 0
f 421/265/142 423/278/142 431/285/142 428/286/142
f 420/262/143 421/265/143 428/286/143 429/263/143
f 423/278/144 422/261/144 430/264/144 431/285/144
s 1
f 424/282/139 425/281/138 429/287/145 428/288/146
f 425/281/138 426/284/141 430/289/147 429/287/145
f 427/283/140 424/282/139 428/288/146 431/290/148
f 426/284/141 427/283/140 431/290/148 430/289/147
f 432/291/149 433/292/116 434/293/126
f 435/259/115 436/294/124 437/295/127
f 438/296/150 439/297/133 440/298/113
f 441/299/125 442/300/114 443/277/132
f 444/301/123 445/267/121 446/302/128
f 447/303/151 448/304/129 449/266/120
f 450/280/137 451/305/130 452/306/152
f 453/307/122 454/308/131 455/279/135
f 447/309/151 432/291/149 434/293/126 448/310/129
f 433/260/116 435/259/115 437/295/127 434/311/126
f 436/270/124 444/269/123 446/312/128 437/313/127
f 445/267/121 449/266/120 448/304/129 446/302/128
f 452/306/152 447/303/151 449/266/120 450/280/137
f 444/301/123 453/307/122 455/279/135 445/267/121
f 454/308/131 451/305/130 450/280/137 455/279/135
f 438/296/150 452/314/152 451/315/130 439/297/133
f 453/316/122 441/317/125 443/277/132 454/274/131
f 442/300/114 440/318/113 439/272/133 443/277/132
f 432/291/149 438/296/150 440/298/113 433/292/116
f 441/319/125 436/320/124 435/259/115 442/258/114
f 447/309/151 452/314/152 438/296/150 432/291/149
f 457/321/153 458/322/153 459/323/153 456/324/153
f 460/325/154 462/326/155 463/327/156 461/328/157
s 0
f 464/329/158 465/330/158 467/331/158 466/332/158
s 1
f 461/333/157 463/334/156 467/335/159 465/336/160
f 460/337/154 461/333/157 465/338/160 464/339/161
f 462/340/155 460/341/154 464/342/161 466/343/162
f 463/344/156 462/345/155 466/339/162 467/338/159
f 470/346/163 477/347/164 487/348/165 469/349/166
f 493/350/167 489/351/168 476/352/169 471/353/170
f 472/354/171 483/355/172 481/356/173 475/357/174
f 488/358/175 490/359/176 486/360/177 478/361/178
f 493/362/167 471/363/170 470/364/163 469/365/166 468/366/179 492/367/180
f 476/352/169 478/361/178 477/368/164
f 479/369/181 481/370/173 480/371/182
f 482/372/183 484/373/184 483/374/172
f 485/375/185 487/376/165 486/360/177
f 494/377/186 498/378/187 479/369/181 480/371/182
f 490/359/176 491/379/188 485/375/185 486/360/177
f 477/347/164 478/361/178 486/360/177 487/348/165
f 480/371/182 481/370/173 483/374/172 484/373/184
f 468/353/179 469/380/166 487/368/165 485/352/185
f 476/352/169 477/368/164 470/380/163 471/353/170
f 481/381/173 479/382/181 474/383/189 475/384/174
f 482/385/183 483/386/172 472/387/171 473/388/190
f 496/389/180 495/390/191 482/385/183 473/388/190
f 468/353/179 485/352/185 491/391/188 492/392/180
f 499/393/192 495/394/191 491/379/188 490/359/176
f 478/361/178 476/352/169 489/395/168 488/358/175
f 497/396/167 493/362/167 492/367/180 496/397/180
f 494/377/186 499/393/192 490/359/176 488/358/175
f 497/398/167 498/399/187 489/351/168 493/350/167
f 474/383/189 479/400/181 498/399/187 497/398/167
f 480/371/182 484/373/184 499/393/192 494/377/186
f 474/401/189 497/396/167 496/397/180 473/402/190 472/403/171 475/404/174
f 484/373/184 482/372/183 495/394/191 499/393/192
f 492/392/180 491/391/188 495/390/191 496/389/180
f 488/358/175 489/395/168 498/378/187 494/377/186
f 501/405/193 509/406/194 512/407/195 504/408/196
f 506/409/197 514/410/198 509/406/194 501/405/193
f 504/408/196 512/407/195 510/411/199 502/412/200
f 503/413/201 511/414/202 513/415/203 505/416/204
f 502/412/200 510/411/199 515/417/205 507/418/206
f 507/418/206 515/417/205 511/414/202 503/413/201
f 505/416/204 513/415/203 508/419/207 500/420/208
f 500/420/208 508/419/207 514/410/198 506/409/197
f 524/421/209 520/422/210 518/423/211 525/424/212
f 526/425/213 519/426/214 521/427/215 527/428/216
f 525/424/212 518/423/211 523/429/217 528/430/218
f 528/431/218 523/432/217 519/426/214 526/425/213
f 527/428/216 521/427/215 516/433/219 529/434/220
f 529/434/220 516/433/219 522/435/221 530/436/222
f 531/437/223 517/438/224 520/422/210 524/421/209
f 530/439/222 522/440/221 517/438/224 531/437/223
f 539/441/225 530/439/222 531/437/223 534/442/226
f 534/442/226 531/437/223 524/421/209 532/443/227
f 538/444/228 529/434/220 530/436/222 539/445/225
f 536/446/229 527/428/216 529/434/220 538/444/228
f 537/447/230 528/431/218 526/425/213 533/448/231
f 535/449/232 525/424/212 528/430/218 537/450/230
f 533/448/231 526/425/213 527/428/216 536/446/229
f 532/443/227 524/421/209 525/424/212 535/449/232
f 512/451/195 532/443/227 535/449/232 510/452/199
f 511/453/202 533/448/231 536/446/229 513/454/203
f 510/452/199 535/449/232 537/450/230 515/455/205
f 515/456/205 537/447/230 533/448/231 511/453/202
f 513/454/203 536/446/229 538/444/228 508/457/207
f 508/457/207 538/444/228 539/445/225 514/458/198
f 509/459/194 534/442/226 532/443/227 512/451/195
f 514/460/198 539/441/225 534/442/226 509/459/194
f 541/405/233 549/406/234 552/407/235 544/408/236
f 546/409/237 554/410/238 549/406/234 541/405/233
f 544/408/236 552/407/235 550/411/239 542/412/240
f 543/413/241 551/414/242 553/415/243 545/416/244
f 542/412/240 550/411/239 555/417/245 547/418/246
f 547/418/246 555/417/245 551/414/242 543/413/241
f 545/416/244 553/415/243 548/419/247 540/420/248
f 540/420/248 548/419/247 554/410/238 546/409/237
f 564/421/249 560/422/250 558/423/251 565/424/252
f 566/425/253 559/426/254 561/427/255 567/428/256
f 565/424/252 558/423/251 563/429/257 568/430/258
f 568/431/258 563/432/257 559/426/254 566/425/253
f 567/428/256 561/427/255 556/433/259 569/434/260
f 569/434/260 556/433/259 562/435/261 570/436/262
f 571/437/263 557/438/264 560/422/250 564/421/249
f 570/439/262 562/440/261 557/438/264 571/437/263
f 581/461/265 570/439/262 571/437/263 584/462/266
f 584/462/266 571/437/263 564/421/249 582/463/267
f 580/464/268 569/434/260 570/436/262 581/465/265
f 578/466/269 567/428/256 569/434/260 580/464/268
f 579/467/270 568/431/258 566/425/253 583/468/271
f 577/469/272 565/424/252 568/430/258 579/470/270
f 583/468/271 566/425/253 567/428/256 578/466/269
f 582/463/267 564/421/249 565/424/252 577/469/272
f 552/451/235 572/443/273 574/449/274 550/452/239
f 551/453/242 595/448/275 597/446/276 553/454/243
f 550/452/239 574/449/274 575/450/277 555/455/245
f 555/456/245 575/447/277 595/448/275 551/453/242
f 553/454/243 597/446/276 593/444/278 548/457/247
f 548/457/247 593/444/278 576/445/279 554/458/238
f 549/459/234 573/442/280 572/443/273 552/451/235
f 554/460/238 576/441/279 573/442/280 549/459/234
f 572/443/273 582/463/267 577/469/272 574/449/274
f 595/448/281 583/468/271 578/466/269 597/446/282
f 574/449/274 577/469/272 579/470/270 575/450/283
f 575/447/283 579/467/270 583/468/271 595/448/281
f 597/446/282 578/466/269 580/464/268 593/444/284
f 593/444/284 580/464/268 581/465/265 576/445/279
f 573/442/280 584/462/266 582/463/267 572/443/273
f 576/441/279 581/461/265 584/462/266 573/442/280
f 523/432/217 592/432/285 588/426/286 519/426/214
f 521/427/215 590/427/287 585/433/288 516/433/219
f 516/433/219 585/433/288 591/435/289 522/435/221
f 517/438/224 586/438/290 589/422/291 520/422/210
f 522/440/221 591/440/289 586/438/290 517/438/224
f 520/422/210 589/422/291 587/423/292 518/423/211
f 519/426/214 588/426/286 590/427/287 521/427/215
f 518/423/211 587/423/292 592/429/285 523/429/217
f 590/427/287 597/427/293 593/433/294 585/433/288
f 585/433/288 593/433/294 576/435/295 591/435/289
f 586/438/290 594/438/296 596/422/297 589/422/291
f 591/440/289 576/440/295 594/438/296 586/438/290
f 589/422/291 596/422/297 574/423/298 587/423/292
f 588/426/286 595/426/299 597/427/293 590/427/287
f 587/423/292 574/423/298 575/429/300 592/429/285
f 592/432/285 575/432/300 595/426/299 588/426/286
s 0
f 599/471/4 598/472/4 600/473/4 601/474/4
f 603/475/6 605/475/6 604/476/6 602/476/6
f 600/476/301 604/476/301 605/475/301 601/475/301
f 598/476/2 602/476/2 604/476/2 600/476/2
f 601/475/1 605/475/1 603/475/1 599/475/1
f 599/475/302 603/475/302 602/476/302 598/476/302
