# Blender 5.2.1 LTS
# www.blender.org
mtllib labWall_1x2_1.mtl
o Cube.028
v -0.293753 -0.840937 1.831788
v -0.238676 0.108670 1.854258
v 0.093856 -0.840937 0.881646
v 0.148933 0.108670 0.904115
v -0.161752 -0.161064 1.726546
v -0.187679 -0.569715 1.715968
v 0.085874 -0.569715 1.045413
v 0.111800 -0.161064 1.055990
v -0.114042 0.028877 1.837598
v -0.160446 -0.772433 1.818667
v 0.179945 -0.772433 0.984270
v 0.226348 0.028877 1.003201
v 0.849402 -1.003049 2.262047
v 0.876541 -0.956143 2.271158
v 0.843979 -0.952906 2.282540
v 0.925215 -0.022784 2.291014
v 0.903307 0.032770 2.284046
v 0.892778 -0.017140 2.302449
v 1.211766 -1.003049 1.373786
v 1.222225 -0.952906 1.355348
v 1.237922 -0.956143 1.385308
v 1.265677 0.032770 1.395772
v 1.286595 -0.022784 1.405166
v 1.271025 -0.017140 1.375256
v -0.241891 0.168778 1.887480
v -0.247988 0.140644 1.881852
v -0.252446 0.118871 1.905876
v -0.303076 -1.002311 1.862528
v -0.308299 -0.952168 1.883090
v -0.306348 -0.978464 1.858042
v 0.103219 -0.978464 0.854074
v 0.119345 -0.952168 0.834809
v 0.108696 -1.002311 0.853158
v 0.169875 0.168778 0.878123
v 0.175199 0.118871 0.857595
v 0.161580 0.140644 0.877882
v -0.287677 -0.941231 1.811504
v -0.286810 -0.866633 1.811858
v -0.190053 -0.866633 1.574679
v -0.190930 -0.941231 1.574321
v 0.087762 -0.995699 0.814012
v -0.336983 -0.995699 0.537463
v -0.756150 -0.995699 2.110160
v -1.180895 -0.995699 1.833612
v 0.087762 -0.901307 0.814012
v -0.336983 -0.939064 0.537463
v -0.756150 -0.901307 2.110160
v -1.180895 -0.939064 1.833612
v -1.186912 -0.998199 2.178018
v -1.221035 -0.998199 2.181999
v -1.280880 -0.998199 2.328698
v -1.259280 -0.998199 2.355411
v -0.934618 -0.998199 2.298842
v -0.956199 -0.998199 2.272137
v -1.028566 -0.998199 2.449531
v -0.994463 -0.998199 2.445541
v -1.259280 -0.938828 2.355411
v -1.280880 -0.948828 2.328698
v -1.253025 -0.918199 2.340061
v -1.028566 -0.903828 2.449531
v -1.022312 -0.893199 2.434180
v -0.994463 -0.903828 2.445541
v -0.956199 -0.903828 2.272137
v -0.934618 -0.903828 2.298842
v -0.962467 -0.893199 2.287482
v -1.186912 -0.938828 2.178018
v -1.193180 -0.918199 2.193363
v -1.221035 -0.948828 2.181999
v -1.103063 -0.908199 2.401237
v -1.109316 -0.918828 2.416588
v -1.043216 -0.908199 2.254540
v -1.036948 -0.918828 2.239197
v -1.036948 -0.998199 2.239197
v -1.109316 -0.998199 2.416588
v -1.078837 -0.893199 2.411120
v -1.012725 -0.903828 2.249079
v -1.012725 -0.998199 2.249079
v -1.085091 -0.998199 2.426471
v -1.085091 -0.903828 2.426471
v -1.018992 -0.893199 2.264422
v -0.960945 -0.975898 2.363379
v -0.968135 -0.975898 2.381005
v -0.968135 -0.956923 2.381005
v -0.960945 -0.956923 2.363379
v -0.969683 -0.966410 2.384798
v -0.959398 -0.966410 2.359586
v -0.964540 -0.979979 2.372193
v -0.964540 -0.952841 2.372193
v -0.946631 -0.973258 2.372078
v -0.951821 -0.973258 2.384801
v -0.951821 -0.959563 2.384801
v -0.946631 -0.959563 2.372078
v -0.952936 -0.966410 2.387537
v -0.945514 -0.966410 2.369341
v -0.949226 -0.976204 2.378439
v -0.949226 -0.956616 2.378439
v -0.628518 -0.951700 2.128662
v -0.621104 -0.951995 2.140685
v -0.621104 -0.938300 2.140685
v -0.628518 -0.938005 2.128662
v -0.619240 -0.945283 2.143227
v -0.630209 -0.944763 2.126093
v -0.625207 -0.954689 2.134741
v -0.625207 -0.935101 2.134741
v -0.720027 -0.963282 2.340121
v -0.721233 -0.956382 2.337350
v -0.726388 -0.956258 2.324449
v -0.727442 -0.963094 2.321671
v -0.723823 -0.953371 2.330901
v -0.726388 -0.969953 2.324449
v -0.723823 -0.972959 2.330901
v -0.721233 -0.970078 2.337350
v -0.822114 -0.966381 2.408383
v -0.823016 -0.959449 2.391879
v -0.822277 -0.973212 2.405463
v -0.822277 -0.959517 2.405463
v -0.823183 -0.966279 2.388963
v -0.822639 -0.956539 2.398665
v -0.823016 -0.973144 2.391879
v -0.822639 -0.976127 2.398665
v -0.580840 -0.943410 1.813970
v -0.589195 -0.944086 1.834455
v -0.589195 -0.925111 1.834455
v -0.580840 -0.924435 1.813970
v -0.591523 -0.935052 1.840163
v -0.579018 -0.933763 1.809506
v -0.584855 -0.947736 1.823814
v -0.584855 -0.920597 1.823814
v -0.563635 -0.939094 1.815587
v -0.570363 -0.939986 1.832079
v -0.570363 -0.926291 1.832079
v -0.563635 -0.925398 1.815587
v -0.572001 -0.933441 1.836096
v -0.562198 -0.932060 1.812063
v -0.566983 -0.942477 1.823795
v -0.566983 -0.922889 1.823795
v 0.081894 -0.911283 1.706142
v 0.074364 -0.911283 1.717637
v 0.074364 -0.897587 1.717637
v 0.081894 -0.897587 1.706142
v 0.072743 -0.904435 1.720109
v 0.083513 -0.904435 1.703670
v 0.078129 -0.914229 1.711890
v 0.078129 -0.894641 1.711890
v -0.214419 -0.904435 1.619238
v -0.215369 -0.897587 1.616439
v -0.219780 -0.897587 1.603426
v -0.220729 -0.904435 1.600626
v -0.217574 -0.894641 1.609932
v -0.219780 -0.911283 1.603426
v -0.217574 -0.914229 1.609932
v -0.215369 -0.911283 1.616439
v -0.449379 -0.918873 1.856175
v -0.449931 -0.925578 1.852728
v -0.450038 -0.911752 1.852251
v -0.451333 -0.908675 1.845005
v -0.451333 -0.928262 1.845005
v -0.362964 -0.901645 1.776628
v -0.370302 -0.900356 1.762391
v -0.364934 -0.896060 1.773527
v -0.369894 -0.907218 1.760550
v -0.367685 -0.912624 1.763442
v -0.362944 -0.908801 1.775128
v -0.367970 -0.895636 1.767603
v -0.364886 -0.913227 1.769577
v -0.552033 -0.927943 1.956793
v -0.543305 -0.927660 1.966347
v -0.543305 -0.913965 1.966347
v -0.552033 -0.914248 1.956793
v -0.541263 -0.920795 1.968413
v -0.553468 -0.921272 1.954765
v -0.547852 -0.930700 1.961558
v -0.547852 -0.911112 1.961558
v -0.452516 -0.925316 1.838239
v -0.450144 -0.925316 1.851773
v -0.452516 -0.911621 1.838239
v -0.449634 -0.918468 1.854684
v -0.453026 -0.918468 1.835328
v -1.499883 -1.147507 0.666034
v 6.034926 -2.306647 0.715794
v 6.907384 -2.306647 0.817540
v 7.150368 -0.995699 0.666027
v -1.499883 -0.995699 0.666034
v 6.986012 -1.147507 2.427884
v 6.034926 -1.164385 0.715794
v -1.499883 -0.995699 2.427883
v 7.150367 -1.147507 2.427884
v 7.150370 -0.995699 2.427879
v 6.907383 -2.306647 0.715794
v 6.986012 -2.478000 2.427884
v 4.226005 -2.306647 0.817540
v 4.226005 -1.164385 0.817540
v 5.084462 -1.164385 0.817540
v 5.084462 -2.306647 0.817540
v 5.084463 -2.306647 0.715794
v 5.084463 -1.164385 0.715794
v 4.226005 -2.306647 0.715794
v 4.226005 -1.164385 0.715794
v 5.176468 -2.306647 0.817540
v 5.176468 -1.164385 0.817540
v 6.034926 -1.164385 0.817540
v 6.034926 -2.306647 0.817540
v 5.176468 -2.306647 0.715794
v 5.176468 -1.164385 0.715794
v 6.907384 -1.164385 0.817540
v 6.048925 -1.164385 0.817540
v 6.048925 -2.306647 0.817540
v 6.048925 -1.164385 0.715794
v 6.048925 -2.306647 0.715794
v 6.907383 -1.164385 0.715794
v -1.364704 -1.147507 0.817540
v -1.364704 -1.147507 2.427883
v 6.986011 -1.147507 0.817540
v 6.986011 -2.478000 0.817540
v -1.364704 -2.478000 2.427883
v -1.364704 -2.478000 0.817540
v 4.127338 -2.306647 0.715794
v 4.127338 -1.164385 0.715794
v 3.268881 -2.306647 0.715794
v 3.268881 -1.164385 0.715794
v 3.268881 -2.306647 0.817540
v 3.268881 -1.164385 0.817540
v 4.127339 -1.164385 0.817540
v 4.127339 -2.306647 0.817540
v 3.254882 -1.164385 0.715794
v 3.254882 -2.306647 0.715794
v 2.396423 -1.164385 0.715794
v 2.396423 -2.306647 0.715794
v 3.254881 -2.306647 0.817540
v 3.254881 -1.164385 0.817540
v 2.396423 -1.164385 0.817540
v 2.396423 -2.306647 0.817540
v 1.445960 -1.164385 0.715794
v 1.445960 -2.306647 0.715794
v 2.304418 -1.164385 0.715794
v 2.304418 -2.306647 0.715794
v 2.304418 -2.306647 0.817540
v 2.304418 -1.164385 0.817540
v 1.445960 -1.164385 0.817540
v 1.445960 -2.306647 0.817540
v 0.515959 -1.164385 0.715794
v 0.515959 -2.306647 0.715794
v 1.374418 -1.164385 0.715794
v 1.374418 -2.306647 0.715794
v 1.374418 -2.306647 0.817540
v 1.374418 -1.164385 0.817540
v 0.515959 -1.164385 0.817540
v 0.515959 -2.306647 0.817540
v -0.414040 -1.164385 0.715794
v -0.414040 -2.306647 0.715794
v 0.444418 -1.164385 0.715794
v 0.444418 -2.306647 0.715794
v 0.444417 -2.306647 0.817540
v 0.444417 -1.164385 0.817540
v -0.414040 -1.164385 0.817540
v -0.414040 -2.306647 0.817540
v -0.428039 -1.164385 0.715794
v -0.428039 -2.306647 0.715794
v -1.286497 -1.164385 0.715794
v -1.286497 -2.306647 0.715794
v -0.428039 -2.306647 0.817540
v -0.428039 -1.164385 0.817540
v -1.286497 -1.164385 0.817540
v -1.286497 -2.306647 0.817540
v -1.499883 -1.147507 2.427883
v 7.150368 -1.147507 0.666027
v 3.223188 -0.853605 0.635024
v 3.223188 0.205255 0.635024
v 1.932335 -0.853605 0.635024
v 1.932335 0.205255 0.635024
v 1.891454 -0.887140 0.736770
v 1.891454 0.238790 0.736770
v 3.264070 0.238790 0.736770
v 3.264070 -0.887140 0.736770
v 3.271202 -0.896535 2.418548
v 1.883048 -0.896535 2.418548
v 1.883049 -0.896535 0.736538
v 3.271203 -0.896535 0.736538
v 1.883048 0.245984 2.418548
v 1.883049 0.245984 0.736538
v 3.271203 0.245984 0.736539
v 3.271202 0.245984 2.418548
v 2.283288 -0.845723 2.421548
v 1.922025 -0.845723 2.421548
v 3.272198 -0.002902 2.360404
v 3.272198 -0.002902 1.693806
v 3.272198 0.192948 1.693806
v 3.272198 0.192948 2.360404
v 2.283288 -0.154274 2.421548
v 1.922025 -0.154274 2.421548
v 1.922025 0.205800 2.421548
v 2.283288 0.205800 2.421548
v 3.232225 -0.154274 2.421548
v 2.870963 -0.154274 2.421548
v 2.870963 0.205800 2.421548
v 3.232225 0.205800 2.421548
v 2.015428 -0.995699 2.267982
v 2.015428 -0.995699 2.139172
v 2.145059 -0.995699 2.139172
v 2.145059 -0.995699 2.267982
v 1.989174 -0.995699 2.203577
v 2.171313 -0.995699 2.203577
v 2.080243 -0.995699 2.113085
v 2.080243 -0.995699 2.294069
v 2.080243 -0.869457 2.294069
v 2.080243 -0.869457 2.113085
v 2.171313 -0.869457 2.203577
v 1.989174 -0.869457 2.203577
v 2.145059 -0.869457 2.267982
v 2.145059 -0.869457 2.139172
v 2.015428 -0.869457 2.139172
v 2.015428 -0.869457 2.267982
v 2.015428 -0.995699 1.008019
v 2.015428 -0.995699 0.879209
v 2.145059 -0.995699 0.879209
v 2.145059 -0.995699 1.008019
v 1.989174 -0.995699 0.943614
v 2.171313 -0.995699 0.943614
v 2.080243 -0.995699 0.853122
v 2.080243 -0.995699 1.034106
v 2.080243 -0.869457 1.034106
v 2.080243 -0.869457 0.853122
v 2.171313 -0.869457 0.943614
v 1.989174 -0.869457 0.943614
v 2.145059 -0.869457 1.008019
v 2.145059 -0.869457 0.879209
v 2.015428 -0.869457 0.879209
v 2.015428 -0.869457 1.008019
v 3.006432 -0.995699 2.267982
v 3.006432 -0.995699 2.139172
v 3.136065 -0.995699 2.139172
v 3.136065 -0.995699 2.267982
v 2.980180 -0.995699 2.203577
v 3.162317 -0.995699 2.203577
v 3.071249 -0.995699 2.113085
v 3.071249 -0.995699 2.294069
v 3.071249 -0.869457 2.294069
v 3.071249 -0.869457 2.113085
v 3.162317 -0.869457 2.203577
v 2.980180 -0.869457 2.203577
v 3.136065 -0.869457 2.267982
v 3.136065 -0.869457 2.139172
v 3.006432 -0.869457 2.139172
v 3.006432 -0.869457 2.267982
v 3.006432 -0.995699 1.008019
v 3.006432 -0.995699 0.879209
v 3.136065 -0.995699 0.879209
v 3.136065 -0.995699 1.008019
v 2.980180 -0.995699 0.943614
v 3.162317 -0.995699 0.943614
v 3.071249 -0.995699 0.853122
v 3.071249 -0.995699 1.034106
v 3.071249 -0.869457 1.034106
v 3.071249 -0.869457 0.853122
v 3.162317 -0.869457 0.943614
v 2.980180 -0.869457 0.943614
v 3.136065 -0.869457 1.008019
v 3.136065 -0.869457 0.879209
v 3.006432 -0.869457 0.879209
v 3.006432 -0.869457 1.008019
v 3.255807 -0.873437 2.419991
v 1.898444 -0.873437 2.419991
v 1.898444 0.230747 2.419991
v 3.255807 0.230747 2.419991
v 1.922025 -0.485649 2.421548
v 2.283288 -0.485649 2.421548
v 3.232225 -0.845723 2.421548
v 2.870963 -0.845723 2.421548
v 2.870963 -0.485649 2.421548
v 3.232225 -0.485649 2.421548
v 4.723186 -0.853605 0.635023
v 4.723186 0.205255 0.635023
v 3.432333 -0.853605 0.635023
v 3.432333 0.205255 0.635023
v 3.391451 -0.887140 0.736769
v 3.391451 0.238790 0.736769
v 4.764067 0.238790 0.736769
v 4.764067 -0.887140 0.736769
v 4.771200 -0.896535 2.418546
v 3.383046 -0.896535 2.418547
v 3.383046 -0.896535 0.736537
v 4.771200 -0.896535 0.736537
v 3.383046 0.245984 2.418547
v 3.383046 0.245984 0.736537
v 4.771201 0.245984 0.736537
v 4.771200 0.245984 2.418546
v 3.783285 -0.845723 2.421547
v 3.422023 -0.845723 2.421547
v 4.772196 -0.002902 2.360403
v 4.772196 -0.002902 1.693805
v 4.772196 0.192948 1.693805
v 4.772196 0.192948 2.360403
v 3.783285 -0.154274 2.421547
v 3.422023 -0.154274 2.421547
v 3.422023 0.205800 2.421547
v 3.783285 0.205800 2.421547
v 4.732224 -0.154274 2.421547
v 4.370961 -0.154274 2.421547
v 4.370961 0.205800 2.421547
v 4.732224 0.205800 2.421547
v 3.515426 -0.995699 2.267981
v 3.515426 -0.995699 2.139171
v 3.645057 -0.995699 2.139171
v 3.645057 -0.995699 2.267981
v 3.489172 -0.995699 2.203576
v 3.671310 -0.995699 2.203576
v 3.580241 -0.995699 2.113084
v 3.580241 -0.995699 2.294068
v 3.580241 -0.869457 2.294068
v 3.580241 -0.869457 2.113084
v 3.671310 -0.869457 2.203576
v 3.489172 -0.869457 2.203576
v 3.645057 -0.869457 2.267981
v 3.645057 -0.869457 2.139171
v 3.515426 -0.869457 2.139171
v 3.515426 -0.869457 2.267981
v 3.515426 -0.995699 1.008018
v 3.515426 -0.995699 0.879208
v 3.645057 -0.995699 0.879208
v 3.645058 -0.995699 1.008018
v 3.489172 -0.995699 0.943613
v 3.671311 -0.995699 0.943613
v 3.580241 -0.995699 0.853121
v 3.580241 -0.995699 1.034105
v 3.580241 -0.869457 1.034105
v 3.580241 -0.869457 0.853121
v 3.671311 -0.869457 0.943613
v 3.489172 -0.869457 0.943613
v 3.645058 -0.869457 1.008018
v 3.645057 -0.869457 0.879208
v 3.515426 -0.869457 0.879208
v 3.515426 -0.869457 1.008018
v 4.506430 -0.995699 2.267981
v 4.506430 -0.995699 2.139171
v 4.636063 -0.995699 2.139171
v 4.636063 -0.995699 2.267981
v 4.480178 -0.995699 2.203576
v 4.662315 -0.995699 2.203576
v 4.571247 -0.995699 2.113084
v 4.571246 -0.995699 2.294068
v 4.571246 -0.869457 2.294068
v 4.571247 -0.869457 2.113084
v 4.662315 -0.869457 2.203576
v 4.480178 -0.869457 2.203576
v 4.636063 -0.869457 2.267981
v 4.636063 -0.869457 2.139171
v 4.506430 -0.869457 2.139171
v 4.506430 -0.869457 2.267981
v 4.506430 -0.995699 1.008018
v 4.506430 -0.995699 0.879208
v 4.636063 -0.995699 0.879208
v 4.636063 -0.995699 1.008018
v 4.480178 -0.995699 0.943613
v 4.662315 -0.995699 0.943613
v 4.571246 -0.995699 0.853121
v 4.571246 -0.995699 1.034105
v 4.571246 -0.869457 1.034105
v 4.571246 -0.869457 0.853121
v 4.662315 -0.869457 0.943613
v 4.480178 -0.869457 0.943613
v 4.636063 -0.869457 1.008018
v 4.636063 -0.869457 0.879208
v 4.506430 -0.869457 0.879208
v 4.506430 -0.869457 1.008018
v 4.755805 -0.873437 2.419989
v 3.398442 -0.873437 2.419989
v 3.398442 0.230747 2.419989
v 4.755805 0.230747 2.419989
v 3.422023 -0.485649 2.421547
v 3.783285 -0.485649 2.421547
v 4.732224 -0.845723 2.421547
v 4.370961 -0.845723 2.421547
v 4.370961 -0.485649 2.421547
v 4.732224 -0.485649 2.421547
v 6.223190 -0.853605 0.635024
v 6.223190 0.205255 0.635024
v 4.932337 -0.853605 0.635024
v 4.932337 0.205255 0.635024
v 4.891455 -0.887140 0.736770
v 4.891455 0.238790 0.736770
v 6.264071 0.238790 0.736770
v 6.264071 -0.887140 0.736770
v 6.271204 -0.896535 2.418548
v 4.883050 -0.896535 2.418548
v 4.883050 -0.896535 0.736538
v 6.271204 -0.896535 0.736538
v 4.883050 0.245984 2.418548
v 4.883050 0.245984 0.736538
v 6.271204 0.245984 0.736538
v 6.271204 0.245984 2.418548
v 5.283289 -0.845723 2.421548
v 4.922027 -0.845723 2.421548
v 6.272200 -0.002902 2.360404
v 6.272200 -0.002902 1.693806
v 6.272200 0.192948 1.693806
v 6.272200 0.192948 2.360404
v 5.283289 -0.154274 2.421548
v 4.922027 -0.154274 2.421548
v 4.922027 0.205800 2.421548
v 5.283289 0.205800 2.421548
v 6.232227 -0.154274 2.421548
v 5.870965 -0.154274 2.421548
v 5.870965 0.205800 2.421548
v 6.232227 0.205800 2.421548
v 5.015429 -0.995699 2.267982
v 5.015429 -0.995699 2.139172
v 5.145061 -0.995699 2.139172
v 5.145061 -0.995699 2.267982
v 4.989176 -0.995699 2.203577
v 5.171314 -0.995699 2.203577
v 5.080245 -0.995699 2.113085
v 5.080244 -0.995699 2.294069
v 5.080244 -0.869457 2.294069
v 5.080245 -0.869457 2.113085
v 5.171314 -0.869457 2.203577
v 4.989176 -0.869457 2.203577
v 5.145061 -0.869457 2.267982
v 5.145061 -0.869457 2.139172
v 5.015429 -0.869457 2.139172
v 5.015429 -0.869457 2.267982
v 5.015429 -0.995699 1.008020
v 5.015429 -0.995699 0.879209
v 5.145061 -0.995699 0.879210
v 5.145061 -0.995699 1.008020
v 4.989176 -0.995699 0.943614
v 5.171314 -0.995699 0.943615
v 5.080245 -0.995699 0.853122
v 5.080244 -0.995699 1.034106
v 5.080244 -0.869457 1.034106
v 5.080245 -0.869457 0.853122
v 5.171314 -0.869457 0.943615
v 4.989176 -0.869457 0.943614
v 5.145061 -0.869457 1.008020
v 5.145061 -0.869457 0.879210
v 5.015429 -0.869457 0.879209
v 5.015429 -0.869457 1.008020
v 6.006434 -0.995699 2.267982
v 6.006433 -0.995699 2.139172
v 6.136066 -0.995699 2.139172
v 6.136066 -0.995699 2.267982
v 5.980182 -0.995699 2.203577
v 6.162319 -0.995699 2.203577
v 6.071250 -0.995699 2.113085
v 6.071250 -0.995699 2.294069
v 6.071250 -0.869457 2.294069
v 6.071250 -0.869457 2.113085
v 6.162319 -0.869457 2.203577
v 5.980182 -0.869457 2.203577
v 6.136066 -0.869457 2.267982
v 6.136066 -0.869457 2.139172
v 6.006433 -0.869457 2.139172
v 6.006434 -0.869457 2.267982
v 6.006433 -0.995699 1.008020
v 6.006433 -0.995699 0.879209
v 6.136066 -0.995699 0.879210
v 6.136066 -0.995699 1.008019
v 5.980182 -0.995699 0.943614
v 6.162319 -0.995699 0.943614
v 6.071250 -0.995699 0.853122
v 6.071250 -0.995699 1.034106
v 6.071250 -0.869457 1.034106
v 6.071250 -0.869457 0.853122
v 6.162319 -0.869457 0.943614
v 5.980182 -0.869457 0.943614
v 6.136066 -0.869457 1.008019
v 6.136066 -0.869457 0.879210
v 6.006433 -0.869457 0.879209
v 6.006433 -0.869457 1.008020
v 6.255809 -0.873437 2.419991
v 4.898445 -0.873437 2.419991
v 4.898445 0.230747 2.419991
v 6.255809 0.230747 2.419991
v 4.922027 -0.485649 2.421548
v 5.283289 -0.485649 2.421548
v 6.232227 -0.845723 2.421548
v 5.870965 -0.845723 2.421548
v 5.870965 -0.485649 2.421548
v 6.232227 -0.485649 2.421548
vn 0.9551 -0.2901 0.0611
vn 0.9863 0.1484 0.0716
vn 0.7581 0.1464 0.6355
vn 0.7288 -0.2877 0.6213
vn -0.4635 0.8657 -0.1891
vn -0.9467 0.0578 -0.3168
vn -0.9492 0.0426 -0.3119
vn -0.9751 -0.0992 -0.1981
vn -0.9621 0.1784 -0.2065
vn -0.2677 0.8879 -0.3740
vn -0.4499 0.8895 0.0800
vn 0.3538 0.8333 0.4247
vn 0.5473 0.8351 -0.0556
vn 0.0188 -0.1977 0.9801
vn 0.0544 0.1668 0.9845
vn -0.9191 0.1595 0.3604
vn -0.9317 -0.0698 0.3565
vn -0.4186 -0.0692 -0.9055
vn -0.4070 0.1590 -0.8995
vn 0.7175 0.1689 -0.6758
vn 0.6884 -0.1982 -0.6978
vn -0.8981 0.0578 -0.4359
vn -0.8316 0.1784 -0.5260
vn -0.8964 0.0426 -0.4411
vn -0.8350 -0.0993 -0.5412
vn -0.9912 -0.0664 -0.1146
vn -0.9752 0.1912 -0.1111
vn -0.7814 0.1897 -0.5946
vn -0.7951 -0.0645 -0.6031
vn -0.5466 -0.8072 -0.2230
vn -0.1133 0.0301 -0.9931
vn -0.7757 0.0301 0.6304
vn -0.9198 -0.2680 -0.2866
vn -0.8835 0.3816 -0.2718
vn -0.8586 -0.2653 -0.4386
vn -0.8225 0.3791 -0.4240
vn 0.2660 -0.8878 0.3756
vn 0.4499 -0.8893 -0.0822
vn -0.5261 -0.8482 0.0623
vn -0.3342 -0.8464 -0.4146
vn -0.9259 0.0126 -0.3777
vn 0.6466 -0.7620 0.0366
vn 0.2439 -0.8446 0.4766
vn -0.6466 -0.7620 -0.0366
vn -0.2439 -0.8446 -0.4766
vn -0.0623 0.9972 -0.0405
vn -0.9997 -0.0000 -0.0255
vn -0.4278 -0.0000 -0.9039
vn 0.9961 -0.0000 0.0884
vn 0.4838 -0.0000 0.8752
vn -0.6072 -0.7946 -0.0015
vn -0.9316 0.3614 -0.0385
vn -0.6921 0.3604 -0.6254
vn -0.4367 -0.7923 -0.4261
vn -0.1270 -0.9418 0.3113
vn -0.4535 0.4300 0.7807
vn -0.6125 0.4050 0.6789
vn -0.2241 -0.9290 0.2946
vn 0.6072 -0.7946 0.0016
vn 0.7756 0.6308 0.0252
vn 0.5722 0.6289 0.5264
vn 0.4367 -0.7923 0.4260
vn -0.3703 0.9221 0.1122
vn -0.1855 0.9223 -0.3390
vn -0.2340 0.9142 -0.3310
vn -0.3971 0.9149 0.0727
vn 0.0458 -0.9287 -0.3680
vn 0.1270 -0.9418 -0.3113
vn -0.1055 0.5667 0.8171
vn 0.0716 0.9694 0.2347
vn 0.4955 0.5670 -0.6581
vn 0.2146 0.9696 -0.1177
vn 0.0363 0.4050 -0.9136
vn -0.2768 0.9570 0.0871
vn -0.4695 0.6456 0.6023
vn 0.2221 0.4303 -0.8749
vn -0.0458 -0.9287 0.3681
vn 0.2242 -0.9290 -0.2946
vn 0.0847 0.6458 -0.7588
vn -0.1377 0.9566 -0.2567
vn -0.0160 -0.7874 0.6162
vn -0.0686 -0.7539 0.6534
vn -0.1595 -0.0003 0.9872
vn -0.1615 -0.0000 0.9869
vn 0.2064 -0.9749 0.0833
vn 0.1104 -0.9923 0.0557
vn -0.0691 0.7526 0.6548
vn -0.0160 0.7874 0.6162
vn 0.4200 0.7867 -0.4524
vn 0.2730 0.7740 -0.5713
vn 0.3761 0.0001 -0.9266
vn 0.5749 -0.0000 -0.8182
vn 0.1096 0.9924 0.0565
vn 0.2064 0.9749 0.0833
vn 0.2742 -0.7726 -0.5726
vn 0.4200 -0.7867 -0.4524
vn 0.7714 -0.0266 0.6358
vn 0.9030 -0.0141 0.4293
vn 0.6025 0.7087 0.3670
vn 0.5361 0.6876 0.4897
vn -0.5573 0.7290 -0.3974
vn -0.7128 0.6519 -0.2588
vn -0.9031 -0.0176 -0.4290
vn -0.7765 -0.0228 -0.6297
vn -0.0848 0.9935 0.0764
vn 0.0114 0.9961 0.0875
vn -0.5839 -0.7257 -0.3638
vn -0.4616 -0.7692 -0.4419
vn 0.0765 -0.9941 -0.0774
vn 0.1078 -0.9939 0.0228
vn 0.5609 -0.7105 0.4249
vn 0.6756 -0.6955 0.2447
vn 0.0036 -0.9989 0.0463
vn 0.1906 -0.7697 0.6093
vn 0.2859 -0.0105 0.9582
vn -0.1446 -0.7970 -0.5864
vn -0.2736 -0.0073 -0.9618
vn -0.0258 0.9982 0.0536
vn -0.1710 0.7940 -0.5834
vn 0.1723 0.7568 0.6305
vn 0.2500 -0.7867 0.5645
vn 0.1387 -0.8098 0.5700
vn 0.0370 -0.0211 0.9991
vn 0.2060 -0.0653 0.9764
vn 0.2724 -0.9554 0.1139
vn 0.2066 -0.9779 0.0310
vn -0.0206 0.7848 0.6194
vn 0.1302 0.7665 0.6289
vn 0.1074 0.8568 -0.5043
vn 0.0625 0.8145 -0.5768
vn 0.1826 0.0076 -0.9832
vn 0.1648 -0.0403 -0.9855
vn 0.0001 0.9999 0.0142
vn 0.1150 0.9889 0.0935
vn 0.2275 -0.7834 -0.5783
vn 0.2593 -0.8508 -0.4571
vn 0.3328 -0.1788 0.9259
vn -0.3306 -0.0000 0.9438
vn -0.2104 0.7691 0.6035
vn 0.2395 0.7259 0.6448
vn -0.1721 0.8549 -0.4894
vn 0.2226 0.7237 -0.6532
vn 0.3216 -0.0000 -0.9469
vn -0.4056 0.1878 -0.8945
vn 0.0231 0.9973 -0.0698
vn 0.1098 0.9939 -0.0137
vn 0.2226 -0.7237 -0.6532
vn -0.3312 -0.6331 -0.6996
vn 0.0231 -0.9973 -0.0698
vn -0.0439 -0.9869 -0.1553
vn 0.1094 -0.8803 0.4615
vn -0.2104 -0.7691 0.6035
vn -0.0917 -0.9792 -0.1811
vn 0.3812 -0.8690 0.3154
vn 0.6901 -0.2455 0.6808
vn -0.6011 -0.4656 -0.6495
vn -0.6813 0.3072 -0.6644
vn 0.0740 0.9858 0.1509
vn -0.3749 0.8765 -0.3019
vn 0.5742 0.5272 0.6264
vn 0.4127 -0.2013 0.8884
vn 0.2384 0.6694 0.7037
vn -0.0084 0.8687 -0.4952
vn 0.1962 0.0624 -0.9786
vn -0.1398 0.9823 0.1244
vn 0.2115 -0.8027 -0.5576
vn 0.0580 -0.9981 -0.0204
vn 0.2464 -0.8733 0.4202
vn -0.4553 0.8137 -0.3613
vn -0.6743 0.1874 -0.7143
vn -0.0121 0.9863 0.1642
vn -0.4970 -0.5702 -0.6541
vn -0.1136 0.9935 0.0073
vn -0.6490 0.6775 -0.3461
vn -0.8524 0.0277 -0.5222
vn -0.6076 -0.6697 -0.4270
vn 0.0104 -0.9962 -0.0864
vn 0.6306 -0.7055 0.3236
vn 0.8509 0.0350 0.5241
vn 0.5164 0.7630 0.3887
vn -0.7657 0.0057 -0.6432
vn -0.5480 -0.6891 -0.4742
vn -0.0132 -0.9993 -0.0346
vn 0.5477 -0.7171 0.4311
vn 0.7769 -0.0031 0.6296
vn 0.5173 0.7357 0.4371
vn -0.5676 0.6825 -0.4605
vn -0.0601 0.9977 -0.0311
vn -0.0000 1.0000 -0.0000
vn 1.0000 -0.0000 -0.0000
vn -0.0000 -1.0000 -0.0000
vn -1.0000 -0.0000 -0.0000
vn -0.0000 -0.0000 -1.0000
vn -0.0000 -0.0000 1.0000
vn 0.9279 -0.0000 -0.3728
vn -0.0000 -0.9497 -0.3130
vn -0.9279 -0.0000 -0.3728
vn -0.0000 0.9497 -0.3130
vn -0.7615 -0.0000 -0.6481
vn -0.0422 -0.0000 -0.9991
vn -0.9970 -0.0000 -0.0776
vn 0.7376 -0.0000 -0.6753
vn 0.9970 -0.0000 0.0776
vn 0.7615 -0.0000 0.6481
vn 0.0422 -0.0000 0.9991
vn -0.7376 -0.0000 0.6753
vt 0.508515 0.752620
vt 0.508515 0.784686
vt 0.469222 0.784686
vt 0.469222 0.752620
vt 0.459522 0.751376
vt 0.498628 0.751376
vt 0.497697 0.753890
vt 0.460452 0.753890
vt 0.498628 0.785044
vt 0.499735 0.750387
vt 0.499735 0.786063
vt 0.505764 0.749955
vt 0.505763 0.786107
vt 0.471980 0.783938
vt 0.472059 0.752123
vt 0.517799 0.759210
vt 0.519017 0.780957
vt 0.462831 0.780957
vt 0.461437 0.756067
vt 0.461437 0.756066
vt 0.519017 0.780957
vt 0.459522 0.785044
vt 0.458414 0.786063
vt 0.458414 0.750387
vt 0.894886 0.671583
vt 0.903705 0.671583
vt 0.903705 0.688819
vt 0.894886 0.688819
vt 0.460452 0.782256
vt 0.497697 0.782256
vt 0.891290 0.669917
vt 0.907074 0.669917
vt 0.891290 0.690641
vt 0.907074 0.690641
vt 0.472055 0.752123
vt 0.471361 0.752166
vt 0.471982 0.751431
vt 0.469168 0.786302
vt 0.468361 0.784588
vt 0.471977 0.783938
vt 0.471901 0.784630
vt 0.471282 0.783895
vt 0.519156 0.782112
vt 0.520178 0.780958
vt 0.499846 0.786860
vt 0.500647 0.785269
vt 0.499847 0.749527
vt 0.500647 0.751126
vt 0.457502 0.751126
vt 0.458303 0.749527
vt 0.458303 0.786860
vt 0.457502 0.785269
vt 0.505767 0.749954
vt 0.505687 0.749263
vt 0.468361 0.752439
vt 0.505802 0.786806
vt 0.472018 0.784638
vt 0.505766 0.786107
vt 0.505685 0.786799
vt 0.462971 0.782116
vt 0.519156 0.782116
vt 0.518964 0.759268
vt 0.508568 0.786398
vt 0.469168 0.786398
vt 0.919699 0.871055
vt 0.902141 0.871055
vt 0.902141 0.863653
vt 0.919699 0.863653
vt 0.505360 0.750170
vt 0.461219 0.750170
vt 0.461219 0.787162
vt 0.505360 0.787162
vt 0.442237 0.744225
vt 0.442237 0.720248
vt 0.523954 0.720248
vt 0.523954 0.744225
vt 0.500466 0.746365
vt 0.443050 0.746340
vt 0.443050 0.742371
vt 0.500466 0.742371
vt 0.464493 0.748494
vt 0.500466 0.742371
vt 0.464456 0.742389
vt 0.464493 0.748494
vt 0.523421 0.748494
vt 0.523384 0.742389
vt 0.464456 0.742389
vt 0.500466 0.746365
vt 0.464420 0.748494
vt 0.446130 0.709988
vt 0.443901 0.709988
vt 0.443901 0.718329
vt 0.446130 0.718329
vt 0.455665 0.712584
vt 0.455613 0.709249
vt 0.445450 0.709510
vt 0.445193 0.711517
vt 0.454062 0.718505
vt 0.449104 0.718505
vt 0.449104 0.710164
vt 0.454062 0.710164
vt 0.455750 0.709988
vt 0.455750 0.718329
vt 0.445450 0.718329
vt 0.445450 0.709988
vt 0.489215 0.750170
vt 0.463536 0.750170
vt 0.461219 0.755920
vt 0.461219 0.781412
vt 0.463536 0.787162
vt 0.489215 0.787162
vt 0.443537 0.709988
vt 0.461297 0.709521
vt 0.463209 0.709988
vt 0.461296 0.709988
vt 0.461297 0.718797
vt 0.461296 0.718329
vt 0.463209 0.718329
vt 0.445450 0.718807
vt 0.443537 0.718329
vt 0.456945 0.709988
vt 0.456931 0.709238
vt 0.455765 0.719080
vt 0.444049 0.711309
vt 0.448412 0.709988
vt 0.450324 0.709521
vt 0.450324 0.713107
vt 0.448412 0.713107
vt 0.455325 0.709656
vt 0.456469 0.709865
vt 0.455814 0.713454
vt 0.454670 0.713246
vt 0.452349 0.712822
vt 0.453003 0.709233
vt 0.450808 0.709388
vt 0.451353 0.712641
vt 0.456945 0.718329
vt 0.456931 0.719080
vt 0.455765 0.709238
vt 0.493364 0.750170
vt 0.493364 0.787162
vt 0.454664 0.712892
vt 0.454682 0.709244
vt 0.450342 0.709517
vt 0.503043 0.750170
vt 0.503043 0.787162
vt 0.505360 0.781412
vt 0.505360 0.755920
vt 0.464317 0.716492
vt 0.464413 0.716588
vt 0.464306 0.716838
vt 0.464168 0.716838
vt 0.464663 0.716343
vt 0.464663 0.716481
vt 0.464413 0.717087
vt 0.464317 0.717183
vt 0.465010 0.717183
vt 0.464914 0.717087
vt 0.465021 0.716838
vt 0.465159 0.716838
vt 0.464663 0.717194
vt 0.464663 0.717332
vt 0.464914 0.716588
vt 0.465010 0.716492
vt 0.594646 0.934239
vt 0.594646 0.869280
vt 0.593404 0.869253
vt 0.593404 0.934212
vt 0.596636 0.934212
vt 0.596636 0.999171
vt 0.597792 0.999197
vt 0.597792 0.934239
vt 0.592788 0.869191
vt 0.592788 0.934150
vt 0.596219 0.934150
vt 0.596219 0.999108
vt 0.599034 0.999171
vt 0.599034 0.934212
vt 0.599650 0.999108
vt 0.599650 0.934150
vt 0.595803 0.934212
vt 0.595803 0.869253
vt 0.596219 0.934150
vt 0.596219 0.869191
vt 0.596219 0.966629
vt 0.595803 0.966691
vt 0.594646 0.966718
vt 0.599034 0.901733
vt 0.599650 0.901671
vt 0.597792 0.901760
vt 0.596219 0.901671
vt 0.596636 0.901733
vt 0.593404 0.966691
vt 0.592788 0.966629
vt 0.594646 0.999197
vt 0.593404 0.999171
vt 0.596636 0.869253
vt 0.597792 0.869280
vt 0.592788 0.999108
vt 0.596219 0.869191
vt 0.599034 0.869253
vt 0.599650 0.869191
vt 0.595803 0.999171
vt 0.596219 0.999108
vt 0.596219 0.950390
vt 0.595803 0.950452
vt 0.594646 0.950478
vt 0.599034 0.917972
vt 0.599650 0.917910
vt 0.597792 0.917999
vt 0.596219 0.917910
vt 0.596636 0.917972
vt 0.593404 0.950452
vt 0.592788 0.950390
vt 0.998205 0.927081
vt 0.953939 0.927081
vt 0.953939 0.932326
vt 0.998205 0.932326
vt 0.956861 0.925873
vt 0.963315 0.925873
vt 0.963315 0.998328
vt 0.956861 0.998328
vt 0.999192 0.994936
vt 0.999192 0.933440
vt 0.952975 0.933440
vt 0.952975 0.994936
vt 0.598786 0.783408
vt 0.525181 0.783408
vt 0.525181 0.754448
vt 0.598786 0.754448
vt 0.599419 0.740750
vt 0.599419 0.717055
vt 0.570741 0.717055
vt 0.570741 0.740750
vt 0.599600 0.734904
vt 0.599600 0.721101
vt 0.541984 0.721101
vt 0.541984 0.734904
vt 0.543165 0.740639
vt 0.598427 0.740639
vt 0.598427 0.716945
vt 0.543165 0.716945
vt 0.563045 0.750391
vt 0.560913 0.750391
vt 0.560913 0.785971
vt 0.563045 0.785971
vt 0.599152 0.766725
vt 0.599152 0.768478
vt 0.524751 0.768478
vt 0.524751 0.766725
vt 0.563045 0.785971
vt 0.563045 0.750391
vt 0.599549 0.768871
vt 0.525737 0.768871
vt 0.525737 0.766947
vt 0.599549 0.766947
vt 0.455968 0.785714
vt 0.507642 0.785714
vt 0.507642 0.750624
vt 0.455968 0.750624
vt 0.465124 0.785714
vt 0.465124 0.750624
vt 0.454041 0.750074
vt 0.507945 0.750074
vt 0.507945 0.786688
vt 0.454041 0.786688
vt 0.462634 0.749845
vt 0.507674 0.749845
vt 0.507674 0.786914
vt 0.462634 0.786914
vt 0.465731 0.701677
vt 0.519485 0.701677
vt 0.519485 0.719291
vt 0.465731 0.719291
vt 0.952741 0.876886
vt 0.999198 0.876886
vt 0.999198 0.923190
vt 0.952741 0.923190
vt 0.551255 0.721190
vt 0.551255 0.724281
vt 0.545110 0.724281
vt 0.545110 0.721190
vt 0.557351 0.721190
vt 0.557351 0.724281
vt 0.594076 0.721190
vt 0.594076 0.724281
vt 0.587930 0.724281
vt 0.587930 0.721190
vt 0.581834 0.721190
vt 0.581834 0.724281
vt 0.575738 0.721190
vt 0.575738 0.724281
vt 0.569593 0.724281
vt 0.569593 0.721190
vt 0.563447 0.724281
vt 0.563447 0.721190
vt 0.952950 0.865031
vt 0.952950 0.809438
vt 0.998705 0.809438
vt 0.998705 0.865031
s 1
usemtl Material
f 21/1/1 23/2/2 16/3/3 14/4/4
s 0
f 3/5/5 1/6/5 10/7/5 11/8/5
s 1
f 2/9/6 1/6/7 30/10/8 26/11/9
f 34/12/10 25/13/11 17/14/12 22/15/13
f 15/16/14 18/17/15 27/18/16 29/19/17
f 32/20/18 35/18/19 24/21/20 20/16/21
f 4/22/22 2/9/6 26/11/9 36/23/23
f 3/5/24 4/22/22 36/23/23 31/24/25
f 1/6/7 3/5/24 31/24/25 30/10/8
f 6/25/26 5/26/27 8/27/28 7/28/29
s 0
f 2/9/30 4/22/30 12/29/30 9/30/30
f 1/6/31 2/9/31 9/30/31 10/7/31
f 4/22/32 3/5/32 11/8/32 12/29/32
s 1
f 5/26/27 6/25/26 10/31/33 9/32/34
f 6/25/26 7/28/29 11/33/35 10/31/33
f 8/27/28 5/26/27 9/32/34 12/34/36
f 7/28/29 8/27/28 12/34/36 11/33/35
f 13/35/37 14/36/4 15/37/14
f 16/3/3 17/38/12 18/39/15
f 19/40/38 20/41/21 21/42/1
f 22/43/13 23/44/2 24/21/20
f 25/45/11 26/11/9 27/46/16
f 28/47/39 29/48/17 30/10/8
f 31/24/25 32/49/18 33/50/40
f 34/51/10 35/52/19 36/23/23
f 28/53/39 13/35/37 15/37/14 29/54/17
f 14/4/4 16/3/3 18/39/15 15/55/14
f 17/14/12 25/13/11 27/56/16 18/57/15
f 26/11/9 30/10/8 29/48/17 27/46/16
f 33/50/40 28/47/39 30/10/8 31/24/25
f 25/45/11 34/51/10 36/23/23 26/11/9
f 35/52/19 32/49/18 31/24/25 36/23/23
f 19/40/38 33/58/40 32/59/18 20/41/21
f 34/60/10 22/61/13 24/21/20 35/18/19
f 23/44/2 21/62/1 20/16/21 24/21/20
f 13/35/37 19/40/38 21/42/1 14/36/4
f 22/63/13 17/64/12 16/3/3 23/2/2
f 28/53/39 33/58/40 19/40/38 13/35/37
f 38/65/41 39/66/41 40/67/41 37/68/41
f 41/69/42 43/70/43 44/71/44 42/72/45
s 0
f 45/73/46 46/74/46 48/75/46 47/76/46
s 1
f 42/77/45 44/78/44 48/79/47 46/80/48
f 41/81/42 42/77/45 46/82/48 45/83/49
f 43/84/43 41/85/42 45/86/49 47/87/50
f 44/88/44 43/89/43 47/83/50 48/82/47
f 51/90/51 58/91/52 68/92/53 50/93/54
f 74/94/55 70/95/56 57/96/57 52/97/58
f 53/98/59 64/99/60 62/100/61 56/101/62
f 69/102/63 71/103/64 67/104/65 59/105/66
f 74/106/55 52/107/58 51/108/51 50/109/54 49/110/67 73/111/68
f 57/96/57 59/105/66 58/112/52
f 60/113/69 62/114/61 61/115/70
f 63/116/71 65/117/72 64/118/60
f 66/119/73 68/120/53 67/104/65
f 75/121/74 79/122/75 60/113/69 61/115/70
f 71/103/64 72/123/76 66/119/73 67/104/65
f 58/91/52 59/105/66 67/104/65 68/92/53
f 61/115/70 62/114/61 64/118/60 65/117/72
f 49/97/67 50/124/54 68/112/53 66/96/73
f 57/96/57 58/112/52 51/124/51 52/97/58
f 62/125/61 60/126/69 55/127/77 56/128/62
f 63/129/71 64/130/60 53/131/59 54/132/78
f 77/133/68 76/134/79 63/129/71 54/132/78
f 49/97/67 66/96/73 72/135/76 73/136/68
f 80/137/80 76/138/79 72/123/76 71/103/64
f 59/105/66 57/96/57 70/139/56 69/102/63
f 78/140/55 74/106/55 73/111/68 77/141/68
f 75/121/74 80/137/80 71/103/64 69/102/63
f 78/142/55 79/143/75 70/95/56 74/94/55
f 55/127/77 60/144/69 79/143/75 78/142/55
f 61/115/70 65/117/72 80/137/80 75/121/74
f 55/145/77 78/140/55 77/141/68 54/146/78 53/147/59 56/148/62
f 65/117/72 63/116/71 76/138/79 80/137/80
f 73/136/68 72/135/76 76/134/79 77/133/68
f 69/102/63 70/139/56 79/122/75 75/121/74
f 82/149/81 90/150/82 93/151/83 85/152/84
f 87/153/85 95/154/86 90/150/82 82/149/81
f 85/152/84 93/151/83 91/155/87 83/156/88
f 84/157/89 92/158/90 94/159/91 86/160/92
f 83/156/88 91/155/87 96/161/93 88/162/94
f 88/162/94 96/161/93 92/158/90 84/157/89
f 86/160/92 94/159/91 89/163/95 81/164/96
f 81/164/96 89/163/95 95/154/86 87/153/85
f 105/165/97 101/166/98 99/167/99 106/168/100
f 107/169/101 100/170/102 102/171/103 108/172/104
f 106/168/100 99/167/99 104/173/105 109/174/106
f 109/175/106 104/176/105 100/170/102 107/169/101
f 108/172/104 102/171/103 97/177/107 110/178/108
f 110/178/108 97/177/107 103/179/109 111/180/110
f 112/181/111 98/182/112 101/166/98 105/165/97
f 111/183/110 103/184/109 98/182/112 112/181/111
f 120/185/113 111/183/110 112/181/111 115/186/114
f 115/186/114 112/181/111 105/165/97 113/187/115
f 119/188/116 110/178/108 111/180/110 120/189/113
f 117/190/117 108/172/104 110/178/108 119/188/116
f 118/191/118 109/175/106 107/169/101 114/192/119
f 116/193/120 106/168/100 109/174/106 118/194/118
f 114/192/119 107/169/101 108/172/104 117/190/117
f 113/187/115 105/165/97 106/168/100 116/193/120
f 93/195/83 113/187/115 116/193/120 91/196/87
f 92/197/90 114/192/119 117/190/117 94/198/91
f 91/196/87 116/193/120 118/194/118 96/199/93
f 96/200/93 118/191/118 114/192/119 92/197/90
f 94/198/91 117/190/117 119/188/116 89/201/95
f 89/201/95 119/188/116 120/189/113 95/202/86
f 90/203/82 115/186/114 113/187/115 93/195/83
f 95/204/86 120/185/113 115/186/114 90/203/82
f 122/149/121 130/150/122 133/151/123 125/152/124
f 127/153/125 135/154/126 130/150/122 122/149/121
f 125/152/124 133/151/123 131/155/127 123/156/128
f 124/157/129 132/158/130 134/159/131 126/160/132
f 123/156/128 131/155/127 136/161/133 128/162/134
f 128/162/134 136/161/133 132/158/130 124/157/129
f 126/160/132 134/159/131 129/163/135 121/164/136
f 121/164/136 129/163/135 135/154/126 127/153/125
f 145/165/137 141/166/138 139/167/139 146/168/140
f 147/169/141 140/170/142 142/171/143 148/172/144
f 146/168/140 139/167/139 144/173/145 149/174/146
f 149/175/146 144/176/145 140/170/142 147/169/141
f 148/172/144 142/171/143 137/177/147 150/178/148
f 150/178/148 137/177/147 143/179/149 151/180/150
f 152/181/151 138/182/152 141/166/138 145/165/137
f 151/183/150 143/184/149 138/182/152 152/181/151
f 162/205/153 151/183/150 152/181/151 165/206/154
f 165/206/154 152/181/151 145/165/137 163/207/155
f 161/208/156 150/178/148 151/180/150 162/209/153
f 159/210/157 148/172/144 150/178/148 161/208/156
f 160/211/158 149/175/146 147/169/141 164/212/159
f 158/213/160 146/168/140 149/174/146 160/214/158
f 164/212/159 147/169/141 148/172/144 159/210/157
f 163/207/155 145/165/137 146/168/140 158/213/160
f 133/195/123 153/187/161 155/193/162 131/196/127
f 132/197/130 176/192/163 178/190/164 134/198/131
f 131/196/127 155/193/162 156/194/165 136/199/133
f 136/200/133 156/191/165 176/192/163 132/197/130
f 134/198/131 178/190/164 174/188/166 129/201/135
f 129/201/135 174/188/166 157/189/167 135/202/126
f 130/203/122 154/186/168 153/187/161 133/195/123
f 135/204/126 157/185/167 154/186/168 130/203/122
f 153/187/161 163/207/155 158/213/160 155/193/162
f 176/192/169 164/212/159 159/210/157 178/190/170
f 155/193/162 158/213/160 160/214/158 156/194/171
f 156/191/171 160/211/158 164/212/159 176/192/169
f 178/190/170 159/210/157 161/208/156 174/188/172
f 174/188/172 161/208/156 162/209/153 157/189/167
f 154/186/168 165/206/154 163/207/155 153/187/161
f 157/185/167 162/205/153 165/206/154 154/186/168
f 104/176/105 173/176/173 169/170/174 100/170/102
f 102/171/103 171/171/175 166/177/176 97/177/107
f 97/177/107 166/177/176 172/179/177 103/179/109
f 98/182/112 167/182/178 170/166/179 101/166/98
f 103/184/109 172/184/177 167/182/178 98/182/112
f 101/166/98 170/166/179 168/167/180 99/167/99
f 100/170/102 169/170/174 171/171/175 102/171/103
f 99/167/99 168/167/180 173/173/173 104/173/105
f 171/171/175 178/171/181 174/177/182 166/177/176
f 166/177/176 174/177/182 157/179/183 172/179/177
f 167/182/178 175/182/184 177/166/185 170/166/179
f 172/184/177 157/184/183 175/182/184 167/182/178
f 170/166/179 177/166/185 155/167/186 168/167/180
f 169/170/174 176/170/187 178/171/181 171/171/175
f 168/167/180 155/167/186 156/173/188 173/173/173
f 173/176/173 156/176/188 176/170/187 169/170/174
s 0
f 200/215/189 201/216/189 185/217/189 204/218/189
f 181/219/190 189/220/190 210/221/190 205/222/190
f 201/222/190 202/219/190 180/220/190 185/221/190
f 194/219/190 195/220/190 196/221/190 193/222/190
f 202/216/191 199/215/191 203/218/191 180/217/191
f 199/219/192 200/222/192 204/221/192 203/220/192
f 185/223/193 180/224/193 203/225/193 204/226/193
f 205/215/189 210/218/189 208/217/189 206/216/189
f 208/223/193 210/226/193 189/225/193 209/224/193
f 198/223/193 196/226/193 195/225/193 197/224/193
f 206/222/192 208/221/192 209/220/192 207/219/192
f 207/216/191 209/217/191 189/218/191 181/215/191
f 213/227/189 211/228/189 212/229/189 184/230/189
f 237/219/190 236/220/190 235/221/190 238/222/190
f 233/223/193 235/226/193 236/225/193 234/224/193
f 211/231/192 216/232/192 215/233/192 212/234/192
f 213/235/193 214/236/193 216/237/193 211/238/193
f 184/234/190 190/233/190 214/232/190 213/231/190
f 220/223/193 218/226/193 217/225/193 219/224/193
f 224/219/190 217/220/190 218/221/190 223/222/190
f 221/216/191 219/217/191 217/218/191 224/215/191
f 222/222/192 220/221/192 219/220/192 221/219/192
f 223/215/189 218/218/189 220/217/189 222/216/189
f 225/223/193 226/224/193 228/225/193 227/226/193
f 232/219/192 231/222/192 227/221/192 228/220/192
f 229/216/191 232/215/191 228/218/191 226/217/191
f 230/222/190 229/219/190 226/220/190 225/221/190
f 231/215/189 230/216/189 225/217/189 227/218/189
f 240/216/191 234/217/191 236/218/191 237/215/191
f 239/222/192 233/221/192 234/220/192 240/219/192
f 238/215/189 235/218/189 233/217/189 239/216/189
f 245/219/190 244/220/190 243/221/190 246/222/190
f 241/223/193 243/226/193 244/225/193 242/224/193
f 248/216/191 242/217/191 244/218/191 245/215/191
f 247/222/192 241/221/192 242/220/192 248/219/192
f 246/215/189 243/218/189 241/217/189 247/216/189
f 253/219/190 252/220/190 251/221/190 254/222/190
f 249/223/193 251/226/193 252/225/193 250/224/193
f 256/216/191 250/217/191 252/218/191 253/215/191
f 255/222/192 249/221/192 250/220/192 256/219/192
f 254/215/189 251/218/189 249/217/189 255/216/189
f 257/223/193 258/224/193 260/225/193 259/226/193
f 264/219/192 263/222/192 259/221/192 260/220/192
f 261/216/191 264/215/191 260/218/191 258/217/191
f 262/222/190 261/219/190 258/220/190 257/221/190
f 263/215/189 262/216/189 257/217/189 259/218/189
f 184/239/194 212/240/194 215/241/194 190/242/194
f 191/216/191 197/217/191 195/218/191 194/215/191
f 192/222/192 198/221/192 197/220/192 191/219/192
f 193/215/189 196/218/189 198/217/189 192/216/189
f 182/227/189 183/228/189 186/229/189 188/230/189
f 266/227/191 187/230/191 265/229/191 179/228/191
f 188/243/190 187/244/190 266/245/190 182/246/190
f 182/247/193 266/248/193 179/249/193 183/250/193
f 183/251/192 179/245/192 265/244/192 186/252/192
f 188/253/194 186/254/194 265/255/194 187/256/194
f 270/223/193 268/226/193 267/225/193 269/224/193
f 274/219/195 267/220/195 268/221/195 273/222/195
f 271/216/196 269/217/196 267/218/196 274/215/196
f 272/222/197 270/221/197 269/220/197 271/219/197
f 273/215/198 268/218/198 270/217/198 272/216/198
f 278/257/191 275/258/191 276/259/191 277/260/191
f 281/261/189 280/262/189 279/259/189 282/258/189
f 278/227/193 277/228/193 280/228/193 281/227/193
f 277/263/192 276/264/192 279/265/192 280/266/192
f 276/267/194 275/268/194 282/269/194 279/270/194
f 275/264/190 278/263/190 281/266/190 282/265/190
f 285/271/190 286/272/190 287/273/190 288/274/190
f 290/275/194 289/276/194 292/277/194 291/278/194
f 294/275/194 293/276/194 296/277/194 295/278/194
s 1
f 298/279/199 311/280/199 306/281/200 303/282/200
f 298/279/199 301/283/201 308/284/201 311/280/199
f 303/285/200 306/286/200 310/287/202 299/288/202
f 302/289/203 299/288/202 310/287/202 307/290/203
f 300/291/204 309/292/204 305/293/205 304/294/205
f 300/291/204 302/289/203 307/290/203 309/292/204
f 304/294/205 305/293/205 312/295/206 297/296/206
f 301/283/201 297/296/206 312/295/206 308/284/201
f 314/279/199 327/280/199 322/281/200 319/282/200
f 314/279/199 317/283/201 324/284/201 327/280/199
f 319/285/200 322/286/200 326/287/202 315/288/202
f 318/289/203 315/288/202 326/287/202 323/290/203
f 316/291/204 325/292/204 321/293/205 320/294/205
f 316/291/204 318/289/203 323/290/203 325/292/204
f 320/294/205 321/293/205 328/295/206 313/296/206
f 317/283/201 313/296/206 328/295/206 324/284/201
f 330/279/199 343/280/199 338/281/200 335/282/200
f 330/279/199 333/283/201 340/284/201 343/280/199
f 335/285/200 338/286/200 342/287/202 331/288/202
f 334/289/203 331/288/202 342/287/202 339/290/203
f 332/291/204 341/292/204 337/293/205 336/294/205
f 332/291/204 334/289/203 339/290/203 341/292/204
f 336/294/205 337/293/205 344/295/206 329/296/206
f 333/283/201 329/296/206 344/295/206 340/284/201
f 346/279/199 359/280/199 354/281/200 351/282/200
f 346/279/199 349/283/201 356/284/201 359/280/199
f 351/285/200 354/286/200 358/287/202 347/288/202
f 350/289/203 347/288/202 358/287/202 355/290/203
f 348/291/204 357/292/204 353/293/205 352/294/205
f 348/291/204 350/289/203 355/290/203 357/292/204
f 352/294/205 353/293/205 360/295/206 345/296/206
f 349/283/201 345/296/206 360/295/206 356/284/201
s 0
f 362/297/194 361/298/194 364/299/194 363/300/194
f 284/275/194 283/276/194 366/277/194 365/278/194
f 368/275/194 367/276/194 370/277/194 369/278/194
f 374/223/193 372/226/193 371/225/193 373/224/193
f 378/219/195 371/220/195 372/221/195 377/222/195
f 375/216/196 373/217/196 371/218/196 378/215/196
f 376/222/197 374/221/197 373/220/197 375/219/197
f 377/215/198 372/218/198 374/217/198 376/216/198
f 382/257/191 379/258/191 380/259/191 381/260/191
f 385/261/189 384/262/189 383/259/189 386/258/189
f 382/227/193 381/228/193 384/228/193 385/227/193
f 381/263/192 380/264/192 383/265/192 384/266/192
f 380/267/194 379/268/194 386/269/194 383/270/194
f 379/264/190 382/263/190 385/266/190 386/265/190
f 389/271/190 390/272/190 391/273/190 392/274/190
f 394/275/194 393/276/194 396/277/194 395/278/194
f 398/275/194 397/276/194 400/277/194 399/278/194
s 1
f 402/279/199 415/280/199 410/281/200 407/282/200
f 402/279/199 405/283/201 412/284/201 415/280/199
f 407/285/200 410/286/200 414/287/202 403/288/202
f 406/289/203 403/288/202 414/287/202 411/290/203
f 404/291/204 413/292/204 409/293/205 408/294/205
f 404/291/204 406/289/203 411/290/203 413/292/204
f 408/294/205 409/293/205 416/295/206 401/296/206
f 405/283/201 401/296/206 416/295/206 412/284/201
f 418/279/199 431/280/199 426/281/200 423/282/200
f 418/279/199 421/283/201 428/284/201 431/280/199
f 423/285/200 426/286/200 430/287/202 419/288/202
f 422/289/203 419/288/202 430/287/202 427/290/203
f 420/291/204 429/292/204 425/293/205 424/294/205
f 420/291/204 422/289/203 427/290/203 429/292/204
f 424/294/205 425/293/205 432/295/206 417/296/206
f 421/283/201 417/296/206 432/295/206 428/284/201
f 434/279/199 447/280/199 442/281/200 439/282/200
f 434/279/199 437/283/201 444/284/201 447/280/199
f 439/285/200 442/286/200 446/287/202 435/288/202
f 438/289/203 435/288/202 446/287/202 443/290/203
f 436/291/204 445/292/204 441/293/205 440/294/205
f 436/291/204 438/289/203 443/290/203 445/292/204
f 440/294/205 441/293/205 448/295/206 433/296/206
f 437/283/201 433/296/206 448/295/206 444/284/201
f 450/279/199 463/280/199 458/281/200 455/282/200
f 450/279/199 453/283/201 460/284/201 463/280/199
f 455/285/200 458/286/200 462/287/202 451/288/202
f 454/289/203 451/288/202 462/287/202 459/290/203
f 452/291/204 461/292/204 457/293/205 456/294/205
f 452/291/204 454/289/203 459/290/203 461/292/204
f 456/294/205 457/293/205 464/295/206 449/296/206
f 453/283/201 449/296/206 464/295/206 460/284/201
s 0
f 466/297/194 465/298/194 468/299/194 467/300/194
f 388/275/194 387/276/194 470/277/194 469/278/194
f 472/275/194 471/276/194 474/277/194 473/278/194
f 478/223/193 476/226/193 475/225/193 477/224/193
f 482/219/195 475/220/195 476/221/195 481/222/195
f 479/216/196 477/217/196 475/218/196 482/215/196
f 480/222/197 478/221/197 477/220/197 479/219/197
f 481/215/198 476/218/198 478/217/198 480/216/198
f 486/257/191 483/258/191 484/259/191 485/260/191
f 489/261/189 488/262/189 487/259/189 490/258/189
f 486/227/193 485/228/193 488/228/193 489/227/193
f 485/263/192 484/264/192 487/265/192 488/266/192
f 484/267/194 483/268/194 490/269/194 487/270/194
f 483/264/190 486/263/190 489/266/190 490/265/190
f 493/271/190 494/272/190 495/273/190 496/274/190
f 498/275/194 497/276/194 500/277/194 499/278/194
f 502/275/194 501/276/194 504/277/194 503/278/194
s 1
f 506/279/199 519/280/199 514/281/200 511/282/200
f 506/279/199 509/283/201 516/284/201 519/280/199
f 511/285/200 514/286/200 518/287/202 507/288/202
f 510/289/203 507/288/202 518/287/202 515/290/203
f 508/291/204 517/292/204 513/293/205 512/294/205
f 508/291/204 510/289/203 515/290/203 517/292/204
f 512/294/205 513/293/205 520/295/206 505/296/206
f 509/283/201 505/296/206 520/295/206 516/284/201
f 522/279/199 535/280/199 530/281/200 527/282/200
f 522/279/199 525/283/201 532/284/201 535/280/199
f 527/285/200 530/286/200 534/287/202 523/288/202
f 526/289/203 523/288/202 534/287/202 531/290/203
f 524/291/204 533/292/204 529/293/205 528/294/205
f 524/291/204 526/289/203 531/290/203 533/292/204
f 528/294/205 529/293/205 536/295/206 521/296/206
f 525/283/201 521/296/206 536/295/206 532/284/201
f 538/279/199 551/280/199 546/281/200 543/282/200
f 538/279/199 541/283/201 548/284/201 551/280/199
f 543/285/200 546/286/200 550/287/202 539/288/202
f 542/289/203 539/288/202 550/287/202 547/290/203
f 540/291/204 549/292/204 545/293/205 544/294/205
f 540/291/204 542/289/203 547/290/203 549/292/204
f 544/294/205 545/293/205 552/295/206 537/296/206
f 541/283/201 537/296/206 552/295/206 548/284/201
f 554/279/199 567/280/199 562/281/200 559/282/200
f 554/279/199 557/283/201 564/284/201 567/280/199
f 559/285/200 562/286/200 566/287/202 555/288/202
f 558/289/203 555/288/202 566/287/202 563/290/203
f 556/291/204 565/292/204 561/293/205 560/294/205
f 556/291/204 558/289/203 563/290/203 565/292/204
f 560/294/205 561/293/205 568/295/206 553/296/206
f 557/283/201 553/296/206 568/295/206 564/284/201
s 0
f 570/297/194 569/298/194 572/299/194 571/300/194
f 492/275/194 491/276/194 574/277/194 573/278/194
f 576/275/194 575/276/194 578/277/194 577/278/194
