# Blender 4.3.2
# www.blender.org
mtllib officeWall_1x2_1.mtl
o Cube.024
v 3.905364 -2.498000 2.285787
v 3.829763 -0.995699 2.285787
v 3.905364 -2.498000 -0.221814
v 3.829763 -0.995699 -0.248418
v 5.417365 -2.498000 2.285787
v 5.492966 -0.995699 2.285787
v 5.417365 -2.498000 -0.221814
v 5.492966 -0.995699 -0.248418
v 3.829763 -1.120891 2.285787
v 3.829763 -1.120891 -0.248418
v 5.492966 -1.120891 -0.248418
v 5.492966 -1.120891 2.285787
v 3.905364 -1.120891 -0.221814
v 5.417365 -1.120891 -0.221814
v 5.417365 -1.120891 2.285787
v 3.905364 -1.120891 2.285787
v 1.681610 -1.120891 2.285787
v 1.681610 -0.995699 2.285787
v 1.681610 -0.995699 -0.248418
v 1.681610 -1.120891 -0.248418
v 0.475561 -2.498000 2.295787
v 5.417365 -2.498000 2.295787
v 5.417365 -0.391381 2.295787
v 0.475561 -0.391381 2.295787
v 5.417365 -0.391381 2.390320
v 5.417365 -2.498000 2.390320
v 0.475561 -0.391381 2.390320
v 0.475561 -2.498000 2.390320
v 5.367970 -2.498000 -0.221814
v 3.954757 -2.498000 -0.221814
v 3.954757 -2.498000 2.285786
v 5.367970 -2.498000 2.285786
v 3.954757 -1.120891 -0.221814
v 5.367970 -1.120891 -0.221814
v 5.367970 -1.120891 2.285786
v 3.954757 -1.120891 2.285786
v 3.905364 -1.493986 -0.221814
v 5.417365 -1.493986 -0.221814
v 5.417365 -1.493986 2.285787
v 3.905364 -1.493986 2.285787
v 5.367970 -1.493986 2.285786
v 3.954757 -1.493986 2.285786
v 3.954757 -1.493986 -0.221814
v 5.367970 -1.493986 -0.221814
v 0.516357 -2.498000 2.285787
v 0.516357 -2.498000 -0.221814
v 2.028359 -2.498000 2.285787
v 2.028359 -2.498000 -0.221814
v 0.516357 -1.120891 -0.221814
v 2.028359 -1.120891 -0.221814
v 2.028359 -1.120891 2.285787
v 0.516357 -1.120891 2.285787
v 1.978964 -2.498000 -0.221814
v 0.565750 -2.498000 -0.221814
v 0.565751 -2.498000 2.285786
v 1.978964 -2.498000 2.285786
v 0.565751 -1.120891 -0.221814
v 1.978964 -1.120891 -0.221814
v 1.978964 -1.120891 2.285786
v 0.565750 -1.120891 2.285786
v 0.516357 -1.493986 -0.221814
v 2.028359 -1.493986 -0.221814
v 2.028359 -1.493986 2.285787
v 0.516357 -1.493986 2.285787
v 1.978964 -1.493986 2.285786
v 0.565751 -1.493986 2.285786
v 0.565751 -1.493986 -0.221814
v 1.978964 -1.493986 -0.221814
v -0.946249 -2.498000 2.285787
v -0.946249 -2.498000 -0.221814
v -0.946249 -1.120891 -0.221814
v -0.946249 -1.120891 2.285787
v -0.896856 -2.498000 -0.221814
v -0.896856 -2.498000 2.285786
v -0.948082 -1.120891 -0.248418
v -0.896856 -1.120891 -0.221814
v -0.948082 -0.995699 -0.248418
v -0.896856 -1.120891 2.285786
v -0.946249 -1.493986 -0.221814
v -0.946249 -1.493986 2.285787
v -0.948082 -0.995699 2.285787
v -0.896856 -1.493986 2.285786
v -0.896856 -1.493986 -0.221814
v -0.948082 -1.120891 2.285787
v 3.954757 -1.439268 -0.221814
v 3.954757 -1.439268 2.285786
v 5.367970 -1.439268 -0.221814
v 5.367970 -1.439268 2.285786
v 0.565751 -1.439268 -0.221814
v 0.565751 -1.439268 2.285786
v 1.978964 -1.439268 -0.221814
v 1.978964 -1.439268 2.285786
v 3.575376 -0.840937 0.860346
v 3.575376 0.108670 0.919829
v 4.601539 -0.840937 0.860346
v 4.601539 0.108670 0.919829
v 3.722682 -0.161064 0.942813
v 3.722682 -0.569715 0.914813
v 4.446890 -0.569715 0.914813
v 4.446890 -0.161064 0.942813
v 3.637879 0.028877 1.028936
v 3.637879 -0.772433 0.978820
v 4.539036 -0.772433 0.978820
v 4.539036 0.028877 1.028936
v 3.608791 -1.003049 2.081332
v 3.610606 -0.956143 2.109901
v 3.587768 -0.952906 2.084050
v 3.610606 -0.022784 2.162470
v 3.608784 0.032770 2.139553
v 3.587767 -0.017140 2.136755
v 4.568123 -1.003049 2.081332
v 4.589146 -0.952906 2.084050
v 4.567333 -0.956143 2.109901
v 4.568130 0.032770 2.139553
v 4.567333 -0.022784 2.162470
v 4.589146 -0.017140 2.136755
v 3.543399 0.168778 0.929401
v 3.546308 0.140644 0.921630
v 3.522380 0.118871 0.926577
v 3.543392 -1.002311 0.863324
v 3.522380 -0.952168 0.866254
v 3.546309 -0.978464 0.858599
v 4.630605 -0.978464 0.858599
v 4.654534 -0.952168 0.866254
v 4.633522 -1.002311 0.863324
v 4.633515 0.168778 0.929401
v 4.654534 0.118871 0.926577
v 4.630606 0.140644 0.921630
v 3.596452 -0.941231 0.858309
v 3.596452 -0.866633 0.859245
v 3.852608 -0.866633 0.859245
v 3.852608 -0.941231 0.858298
v 2.406203 -0.947456 0.975947
v 2.413189 0.108670 1.035018
v 3.425263 -0.947456 0.855423
v 3.432249 0.108670 0.914495
v 2.518174 -0.161064 1.045746
v 2.514886 -0.658208 1.017939
v 3.322083 -0.658208 0.922472
v 3.325372 -0.161064 0.950279
v 2.450257 0.028877 1.140501
v 2.444371 -0.860926 1.090733
v 3.414925 -0.860926 0.975946
v 3.420811 0.028877 1.025715
v 2.582793 -1.003049 2.184557
v 2.587951 -0.956143 2.212715
v 2.562235 -0.952906 2.189726
v 2.594125 -0.022784 2.264921
v 2.589624 0.032770 2.242376
v 2.568424 -0.017140 2.242066
v 3.535485 -1.003049 2.071883
v 3.556681 -0.952906 2.072114
v 3.538056 -0.956143 2.100347
v 3.542330 0.032770 2.129700
v 3.544230 -0.022784 2.152552
v 3.562872 -0.017140 2.124453
v 2.382558 0.168778 1.048279
v 2.384534 0.140644 1.040221
v 2.361353 0.118871 1.047944
v 2.374790 -1.002311 0.982661
v 2.354268 -0.952168 0.988038
v 2.377132 -0.978464 0.977626
v 3.453923 -0.978464 0.850275
v 3.478586 -0.952168 0.855065
v 3.457375 -1.002311 0.854624
v 3.465129 0.168778 0.920244
v 3.485671 0.118871 0.914971
v 3.461327 0.140644 0.912869
v 4.475100 -0.995699 0.572117
v 4.475100 -0.995699 0.065275
v 2.928429 -0.995699 0.572117
v 2.928429 -0.995699 0.065275
v 4.475100 -0.901307 0.572117
v 4.475100 -0.939064 0.065275
v 2.928429 -0.901307 0.572117
v 2.928429 -0.939064 0.065275
v 2.697551 -0.998199 0.144117
v 2.680976 -0.998199 0.114026
v 2.522540 -0.998199 0.114026
v 2.505965 -0.998199 0.144117
v 2.680976 -0.998199 0.423361
v 2.697551 -0.998199 0.393290
v 2.505965 -0.998199 0.393290
v 2.522540 -0.998199 0.423361
v 2.505965 -0.938828 0.144117
v 2.522540 -0.948828 0.114026
v 2.522540 -0.918199 0.144110
v 2.505965 -0.903828 0.393290
v 2.522540 -0.893199 0.393283
v 2.522540 -0.903828 0.423361
v 2.697551 -0.903828 0.393290
v 2.680976 -0.903828 0.423361
v 2.680976 -0.893199 0.393283
v 2.697551 -0.938828 0.144117
v 2.680976 -0.918199 0.144110
v 2.680976 -0.948828 0.114026
v 2.522540 -0.908199 0.306072
v 2.505965 -0.918828 0.306080
v 2.680976 -0.908199 0.306072
v 2.697551 -0.918828 0.306080
v 2.697551 -0.998199 0.306080
v 2.505965 -0.998199 0.306080
v 2.522540 -0.893199 0.332235
v 2.697551 -0.903828 0.332243
v 2.697551 -0.998199 0.332243
v 2.505965 -0.998199 0.332243
v 2.505965 -0.903828 0.332243
v 2.680976 -0.893199 0.332235
v 2.611277 -0.975897 0.423360
v 2.592239 -0.975897 0.423360
v 2.592239 -0.956923 0.423360
v 2.611277 -0.956923 0.423360
v 2.588144 -0.966410 0.423360
v 2.615372 -0.966410 0.423360
v 2.601758 -0.979979 0.423360
v 2.601758 -0.952841 0.423360
v 2.608628 -0.973258 0.439900
v 2.594888 -0.973258 0.439900
v 2.594888 -0.959562 0.439900
v 2.608628 -0.959562 0.439900
v 2.591932 -0.966410 0.439900
v 2.611584 -0.966410 0.439900
v 2.601758 -0.976204 0.439900
v 2.601758 -0.956616 0.439900
v 2.970463 -0.973258 0.826022
v 2.961535 -0.973258 0.836467
v 2.961535 -0.959562 0.836467
v 2.970463 -0.959562 0.826022
v 2.959615 -0.966410 0.838714
v 2.972383 -0.966410 0.823775
v 2.965999 -0.976204 0.831244
v 2.965999 -0.956616 0.831244
v 2.685878 -0.966410 0.699876
v 2.687799 -0.959562 0.697629
v 2.696727 -0.959562 0.687184
v 2.698647 -0.966410 0.684937
v 2.692263 -0.956616 0.692406
v 2.696727 -0.973258 0.687184
v 2.692263 -0.976204 0.692406
v 2.687799 -0.973258 0.697629
v 2.592053 -0.966410 0.588097
v 2.608750 -0.959562 0.588097
v 2.595009 -0.973258 0.588097
v 2.595009 -0.959562 0.588097
v 2.611706 -0.966410 0.588097
v 2.601880 -0.956616 0.588097
v 2.608750 -0.973258 0.588097
v 2.601880 -0.976204 0.588097
v 3.115334 -0.975897 0.567781
v 3.096297 -0.975897 0.567781
v 3.096297 -0.956923 0.567781
v 3.115334 -0.956923 0.567781
v 3.092201 -0.966410 0.567781
v 3.119430 -0.966410 0.567781
v 3.105815 -0.979979 0.567781
v 3.105815 -0.952841 0.567781
v 3.112686 -0.973258 0.584321
v 3.098945 -0.973258 0.584321
v 3.098945 -0.959562 0.584321
v 3.112686 -0.959562 0.584321
v 3.095989 -0.966410 0.584321
v 3.115642 -0.966410 0.584321
v 3.105815 -0.976204 0.584321
v 3.105815 -0.956616 0.584321
v 3.526897 -0.973258 1.176140
v 3.513411 -0.973258 1.173509
v 3.513411 -0.959562 1.173509
v 3.526897 -0.959562 1.176140
v 3.510510 -0.966410 1.172943
v 3.529799 -0.966410 1.176705
v 3.520154 -0.976204 1.174824
v 3.520154 -0.956616 1.174824
v 3.494556 -0.966410 0.867766
v 3.497055 -0.959562 0.866187
v 3.508670 -0.959562 0.858846
v 3.511169 -0.966410 0.857267
v 3.502862 -0.956616 0.862516
v 3.508670 -0.973258 0.858846
v 3.502862 -0.976204 0.862516
v 3.497055 -0.973258 0.866187
v 3.179831 -0.966410 0.712729
v 3.193016 -0.959562 0.702486
v 3.182165 -0.973258 0.710916
v 3.182165 -0.959562 0.710916
v 3.195350 -0.966410 0.700673
v 3.187591 -0.956616 0.706701
v 3.193016 -0.973258 0.702486
v 3.187591 -0.976204 0.706701
v 3.368986 -0.959562 0.769714
v 3.376604 -0.966410 0.756560
v 3.372120 -0.956616 0.764302
v 3.375255 -0.973258 0.758889
v 3.372120 -0.976204 0.764302
v 3.367637 -0.966410 0.772043
v 3.375255 -0.959562 0.758889
v 3.368986 -0.973258 0.769714
v 3.368573 -0.973258 0.816264
v 3.366421 -0.973258 0.829835
v 3.366421 -0.959562 0.829835
v 3.368573 -0.959562 0.816264
v 3.365958 -0.966410 0.832755
v 3.369036 -0.966410 0.813345
v 3.367497 -0.976204 0.823050
v 3.367497 -0.956616 0.823050
v 3.508666 -0.973258 0.858842
v 3.497031 -0.973258 0.866150
v 3.497031 -0.959562 0.866150
v 3.508666 -0.959562 0.858842
v 3.494528 -0.966410 0.867723
v 3.511169 -0.966410 0.857269
v 3.502849 -0.976204 0.862496
v 3.502849 -0.956616 0.862496
v 0.135955 -0.995699 2.051183
v 1.114995 -0.995699 0.043359
v -0.487576 -0.995699 0.954614
v 1.738526 -0.995699 1.139928
v 0.135955 -0.876786 2.051183
v -0.487576 -0.876786 0.954614
v 1.114995 -0.876786 0.043359
v 1.738526 -0.876786 1.139928
v 0.135953 -0.704653 2.051179
v -0.302326 -0.765120 1.280403
v 1.300246 -0.765120 0.369149
v 1.738524 -0.704653 1.139925
v 0.135953 -0.416440 2.051179
v -0.217366 -0.416440 1.429818
v 1.385206 -0.416440 0.518564
v 1.738524 -0.416440 1.139925
v 0.438726 -0.416440 1.774939
v 0.177284 -0.416440 1.315156
v 1.363123 -0.416440 0.640865
v 1.624565 -0.416440 1.100647
v 0.438726 -0.396741 1.774939
v 0.177284 -0.396741 1.315156
v 1.363123 -0.396741 0.640865
v 1.624565 -0.396741 1.100647
v 0.188764 -0.241727 1.335345
v 1.374603 -0.241727 0.661053
v 0.442021 -0.374995 1.780734
v 1.627860 -0.374995 1.106442
v 0.192059 -0.219981 1.341140
v 1.377898 -0.219981 0.666848
v 1.653315 -0.129449 1.151209
v 0.467476 -0.129449 1.825500
v 1.664062 -0.136115 1.170109
v 0.478224 -0.136115 1.844401
v 0.431274 -0.368329 1.761833
v 1.617112 -0.368329 1.087542
v 0.225566 -0.845433 0.662398
v 0.849891 -0.845433 0.307394
v 0.310073 -0.794359 0.811015
v 0.934398 -0.794359 0.456011
v 0.628140 -0.826102 0.494492
v 0.813182 -0.826102 0.389274
v 0.658488 -0.809494 0.547863
v 0.843530 -0.809494 0.442644
v 0.073043 -0.642362 1.131834
v 1.258882 -0.642362 0.457542
v 0.095697 -0.549390 1.171674
v 1.281536 -0.549390 0.497382
vn -0.0000 1.0000 -0.0000
vn -0.0000 -0.0000 -1.0000
vn 1.0000 -0.0000 -0.0000
vn -0.0000 -0.0000 1.0000
vn -0.0000 -1.0000 -0.0000
vn -1.0000 -0.0000 -0.0000
vn 0.3048 -0.2899 0.9072
vn 0.3069 0.1483 0.9401
vn -0.3014 0.1465 0.9422
vn -0.2993 -0.2879 0.9097
vn -0.0000 0.8657 -0.5006
vn -0.0643 0.0578 -0.9963
vn -0.0698 0.0426 -0.9967
vn -0.1853 -0.0992 -0.9777
vn -0.1725 0.1784 -0.9687
vn 0.2446 0.8887 -0.3878
vn -0.2446 0.8887 -0.3878
vn -0.2590 0.8341 0.4871
vn 0.2588 0.8343 0.4867
vn -0.9005 -0.1978 0.3872
vn -0.8912 0.1668 0.4217
vn -0.6800 0.1592 -0.7157
vn -0.6811 -0.0695 -0.7288
vn 0.6811 -0.0695 -0.7288
vn 0.6800 0.1592 -0.7157
vn 0.8965 0.1689 0.4095
vn 0.9059 -0.1981 0.3742
vn 0.0643 0.0578 -0.9963
vn 0.1726 0.1784 -0.9687
vn 0.0698 0.0426 -0.9967
vn 0.1853 -0.0993 -0.9777
vn -0.2690 -0.0662 -0.9609
vn -0.2662 0.1910 -0.9448
vn 0.2548 0.1899 -0.9482
vn 0.2575 -0.0648 -0.9641
vn -0.0000 -0.8072 -0.5903
vn 0.8767 0.0301 -0.4801
vn -0.8767 0.0301 -0.4801
vn -0.0820 -0.2681 -0.9599
vn -0.0820 0.3816 -0.9207
vn 0.0819 -0.2653 -0.9607
vn 0.0819 0.3790 -0.9217
vn -0.2468 -0.8884 0.3871
vn 0.2466 -0.8886 0.3867
vn -0.2570 -0.8473 -0.4648
vn 0.2570 -0.8473 -0.4648
vn -0.0000 0.0126 -0.9999
vn 0.3989 -0.2940 0.8686
vn 0.4050 0.1515 0.9017
vn -0.2082 0.1423 0.9677
vn -0.2098 -0.2833 0.9358
vn -0.0693 0.8075 -0.5857
vn -0.1173 0.0562 -0.9915
vn -0.2902 -0.0869 -0.9530
vn -0.2730 0.1777 -0.9455
vn 0.2099 0.8710 -0.4442
vn -0.2730 0.9068 -0.3212
vn -0.2148 0.8176 0.5343
vn 0.2997 0.8514 0.4304
vn -0.8437 -0.1963 0.4996
vn -0.8295 0.1668 0.5331
vn -0.7795 0.1657 -0.6041
vn -0.7819 -0.0777 -0.6185
vn 0.5741 -0.0638 -0.8163
vn 0.5739 0.1547 -0.8042
vn 0.9418 0.1690 0.2907
vn 0.9461 -0.1994 0.2552
vn 0.0608 0.1790 -0.9820
vn 0.0788 -0.0892 -0.9929
vn -0.3792 -0.0775 -0.9221
vn -0.3741 0.1910 -0.9075
vn 0.1693 0.1782 -0.9693
vn 0.1708 -0.0670 -0.9830
vn -0.0693 -0.8072 -0.5862
vn 0.9461 0.0118 -0.3235
vn -0.9955 0.0118 -0.0939
vn -0.1958 -0.2704 -0.9426
vn -0.1936 0.3817 -0.9038
vn -0.0323 -0.2687 -0.9627
vn -0.0265 0.3804 -0.9244
vn -0.2112 -0.8740 0.4376
vn 0.2771 -0.9029 0.3286
vn -0.2936 -0.8677 -0.4011
vn 0.2156 -0.8281 -0.5174
vn 0.2862 -0.8017 0.5248
vn -0.2862 -0.8017 0.5248
vn -0.2862 -0.8017 -0.5248
vn 0.2862 -0.8017 -0.5248
vn 0.2766 0.8297 0.4848
vn 0.2966 0.7701 -0.5647
vn -0.2966 0.7701 -0.5647
vn -0.2766 0.8297 0.4848
vn -0.2287 -0.7934 -0.5640
vn -0.3169 0.3609 -0.8771
vn 0.3169 0.3609 -0.8771
vn 0.2287 -0.7934 -0.5640
vn -0.3362 -0.9418 -0.0000
vn -0.8941 0.4301 -0.1249
vn -0.8598 0.4049 -0.3111
vn -0.3578 -0.9288 -0.0964
vn 0.2287 -0.7934 0.5640
vn 0.2705 0.6298 0.7281
vn -0.2705 0.6298 0.7281
vn -0.2287 -0.7934 0.5640
vn -0.2438 0.9222 -0.3001
vn 0.2438 0.9222 -0.3001
vn 0.2177 0.9145 -0.3410
vn -0.2177 0.9145 -0.3410
vn 0.3578 -0.9288 -0.0964
vn 0.3362 -0.9418 -0.0000
vn -0.7965 0.5668 0.2106
vn -0.1902 0.9695 0.1546
vn 0.7965 0.5668 0.2106
vn 0.1902 0.9695 0.1546
vn 0.8598 0.4049 -0.3111
vn -0.1855 0.9568 -0.2239
vn -0.7348 0.6457 -0.2077
vn 0.8941 0.4301 -0.1249
vn -0.3578 -0.9288 0.0965
vn 0.3578 -0.9288 0.0965
vn 0.7348 0.6457 -0.2077
vn 0.1855 0.9568 -0.2239
vn -0.5770 -0.7871 0.2180
vn -0.6336 -0.7657 0.1110
vn -0.9934 -0.0000 0.1144
vn -0.9748 -0.0000 0.2232
vn -0.0000 -0.9749 0.2225
vn -0.0000 -0.9927 0.1205
vn -0.6336 0.7657 0.1110
vn -0.5770 0.7871 0.2180
vn 0.5770 0.7871 0.2180
vn 0.6336 0.7657 0.1105
vn 0.9935 -0.0000 0.1136
vn 0.9748 -0.0000 0.2232
vn -0.0000 0.9927 0.1205
vn -0.0000 0.9749 0.2225
vn 0.6336 -0.7657 0.1105
vn 0.5770 -0.7871 0.2180
vn -0.5914 -0.0000 0.8064
vn -0.2044 -0.0000 0.9789
vn -0.1457 0.7042 0.6949
vn -0.3989 0.7439 0.5361
vn 0.3958 0.7606 -0.5146
vn 0.1262 0.7696 -0.6259
vn 0.1938 -0.0000 -0.9810
vn 0.6040 -0.0000 -0.7970
vn -0.0146 0.9960 0.0886
vn -0.0409 0.9991 0.0151
vn 0.1262 -0.7696 -0.6259
vn 0.3958 -0.7606 -0.5146
vn -0.0146 -0.9960 0.0886
vn -0.0409 -0.9991 0.0151
vn -0.3989 -0.7439 0.5361
vn -0.1457 -0.7042 0.6949
vn -0.0336 -0.9991 0.0272
vn -0.5960 -0.7685 0.2330
vn -0.9307 -0.0000 0.3658
vn 0.5609 -0.7920 -0.2409
vn 0.9179 -0.0000 -0.3967
vn -0.0336 0.9991 0.0272
vn 0.5609 0.7920 -0.2409
vn -0.5960 0.7685 0.2330
vn -0.6061 -0.7377 0.2973
vn -0.9181 -0.0000 0.3963
vn -0.0259 -0.9905 0.1354
vn -0.6061 0.7377 0.2973
vn 0.6043 0.7914 -0.0919
vn 0.9770 -0.0000 -0.2133
vn -0.0259 0.9905 0.1354
vn 0.6043 -0.7914 -0.0919
vn -0.8635 -0.0000 0.5043
vn -0.9986 -0.0000 0.0527
vn -0.6223 0.7821 0.0333
vn -0.5250 0.7980 0.2959
vn 0.5370 0.7667 -0.3518
vn 0.6749 0.7369 -0.0387
vn 0.9983 -0.0000 -0.0578
vn 0.8323 -0.0000 -0.5544
vn 0.0712 0.9974 -0.0044
vn 0.0610 0.9980 0.0170
vn 0.6749 -0.7369 -0.0387
vn 0.5371 -0.7667 -0.3518
vn 0.0712 -0.9974 -0.0044
vn 0.0610 -0.9980 0.0170
vn -0.5250 -0.7980 0.2959
vn -0.6223 -0.7821 0.0333
vn 0.0333 -0.9990 -0.0298
vn -0.2993 -0.7485 0.5917
vn -0.4509 -0.0000 0.8926
vn 0.3020 -0.7160 -0.6294
vn 0.4287 -0.0000 -0.9034
vn 0.0333 0.9990 -0.0298
vn 0.3020 0.7160 -0.6294
vn -0.2993 0.7485 0.5917
vn -0.5393 -0.0000 0.8421
vn -0.3772 0.7236 0.5780
vn 0.3562 0.7717 -0.5269
vn 0.5489 -0.0000 -0.8359
vn -0.0548 0.9975 0.0442
vn 0.3562 -0.7717 -0.5269
vn -0.0548 -0.9975 0.0442
vn -0.3772 -0.7236 0.5780
vn 0.0148 0.9978 -0.0652
vn 0.0918 0.6894 -0.7185
vn 0.1244 -0.0000 -0.9922
vn 0.0918 -0.6894 -0.7185
vn 0.0148 -0.9978 -0.0652
vn -0.0848 -0.7370 0.6705
vn -0.1240 -0.0000 0.9923
vn -0.0848 0.7370 0.6705
vn 0.2930 -0.0000 -0.9561
vn 0.2071 -0.7006 -0.6828
vn 0.0168 -0.9987 -0.0472
vn -0.1830 -0.7327 0.6555
vn -0.2652 -0.0000 0.9642
vn -0.1830 0.7327 0.6555
vn 0.2071 0.7006 -0.6828
vn 0.0168 0.9987 -0.0472
vn 0.8693 -0.0000 -0.4943
vn 0.4943 -0.0000 0.8693
vn -0.4943 -0.0000 -0.8693
vn -0.8693 -0.0000 0.4943
vn -0.1411 0.9584 -0.2482
vn -0.4434 0.4421 -0.7797
vn -0.4726 0.2931 -0.8311
vn 0.1449 0.9561 0.2548
vn 0.4726 -0.2931 0.8311
vn -0.1449 -0.9561 -0.2548
vn -0.1415 0.9582 -0.2488
vn -0.1291 0.9653 -0.2270
vt 0.575672 0.749682
vt 0.575672 0.786673
vt 0.531531 0.786673
vt 0.531531 0.749682
vt 0.552201 0.758301
vt 0.552201 0.761062
vt 0.589764 0.761062
vt 0.589764 0.758301
vt 0.535386 0.767390
vt 0.535386 0.771140
vt 0.589315 0.771140
vt 0.589315 0.767390
vt 0.542587 0.716592
vt 0.599484 0.716592
vt 0.599484 0.740846
vt 0.542587 0.740846
vt 0.541328 0.786673
vt 0.541328 0.749682
vt 0.598096 0.712921
vt 0.543008 0.747267
vt 0.542282 0.746102
vt 0.597369 0.711755
vt 0.599570 0.761062
vt 0.599570 0.758301
vt 0.594854 0.738004
vt 0.594854 0.748016
vt 0.547260 0.748016
vt 0.547260 0.738004
vt 0.545326 0.747456
vt 0.545326 0.733871
vt 0.543528 0.733871
vt 0.543528 0.747456
vt 0.596782 0.747456
vt 0.596782 0.733871
vt 0.598581 0.733871
vt 0.598581 0.747456
vt 0.525220 0.761062
vt 0.525220 0.758301
vt 0.543528 0.733871
vt 0.545326 0.733871
vt 0.598581 0.733871
vt 0.596782 0.733871
vt 0.539834 0.270889
vt 0.539834 0.979111
vt 0.541745 0.710324
vt 0.541744 0.748386
vt 0.524662 0.748386
vt 0.524662 0.710324
vt 0.598581 0.710899
vt 0.596782 0.710899
vt 0.545326 0.710899
vt 0.543528 0.710899
vt 0.547260 0.711062
vt 0.594854 0.711062
vt 0.539834 0.000000
vt 0.601086 0.000000
vt 0.601086 0.250000
vt 0.539834 0.250000
vt 0.539834 0.770889
vt 0.539834 0.479111
vt 0.541745 0.748386
vt 0.524662 0.748386
vt 0.524662 0.710324
vt 0.545326 0.747456
vt 0.545326 0.733871
vt 0.543528 0.733871
vt 0.543528 0.747456
vt 0.596782 0.747456
vt 0.596782 0.733871
vt 0.543528 0.710899
vt 0.543528 0.747456
vt 0.545326 0.747456
vt 0.545326 0.710899
vt 0.596782 0.710899
vt 0.596782 0.747456
vt 0.591507 0.786673
vt 0.591507 0.749682
vt 0.547669 0.747855
vt 0.547669 0.710895
vt 0.594055 0.710895
vt 0.594055 0.747855
vt 0.508515 0.752620
vt 0.508515 0.784686
vt 0.469222 0.784686
vt 0.469222 0.752620
vt 0.459522 0.751376
vt 0.498628 0.751376
vt 0.497697 0.753890
vt 0.460452 0.753890
vt 0.498628 0.785044
vt 0.499735 0.750387
vt 0.499735 0.786063
vt 0.505764 0.749955
vt 0.505763 0.786107
vt 0.471980 0.783938
vt 0.472059 0.752123
vt 0.517799 0.759210
vt 0.519017 0.780957
vt 0.462831 0.780957
vt 0.461437 0.756067
vt 0.461437 0.756066
vt 0.519017 0.780957
vt 0.459522 0.785044
vt 0.458414 0.786063
vt 0.458414 0.750387
vt 0.894886 0.671583
vt 0.903705 0.671583
vt 0.903705 0.688819
vt 0.894886 0.688819
vt 0.460452 0.782256
vt 0.497697 0.782256
vt 0.891290 0.669917
vt 0.907074 0.669917
vt 0.891290 0.690641
vt 0.907074 0.690641
vt 0.472055 0.752123
vt 0.471361 0.752166
vt 0.471982 0.751431
vt 0.469168 0.786302
vt 0.468361 0.784588
vt 0.471977 0.783938
vt 0.471901 0.784630
vt 0.471282 0.783895
vt 0.519156 0.782112
vt 0.520178 0.780958
vt 0.499846 0.786860
vt 0.500647 0.785269
vt 0.499847 0.749527
vt 0.500647 0.751126
vt 0.457502 0.751126
vt 0.458303 0.749527
vt 0.458303 0.786860
vt 0.457502 0.785269
vt 0.505767 0.749954
vt 0.505687 0.749263
vt 0.468361 0.752439
vt 0.505802 0.786806
vt 0.472018 0.784638
vt 0.505766 0.786107
vt 0.505685 0.786799
vt 0.462971 0.782116
vt 0.519156 0.782116
vt 0.518964 0.759268
vt 0.508568 0.786398
vt 0.469168 0.786398
vt 0.919699 0.871055
vt 0.902141 0.871055
vt 0.902141 0.863653
vt 0.919699 0.863653
vt 0.505360 0.750170
vt 0.461219 0.750170
vt 0.461219 0.787162
vt 0.505360 0.787162
vt 0.442237 0.744225
vt 0.442237 0.720248
vt 0.523954 0.720248
vt 0.523954 0.744225
vt 0.500466 0.746365
vt 0.443050 0.746340
vt 0.443050 0.742371
vt 0.500466 0.742371
vt 0.464493 0.748494
vt 0.464456 0.742389
vt 0.523384 0.742389
vt 0.523421 0.748494
vt 0.446130 0.709988
vt 0.443901 0.709988
vt 0.443901 0.718329
vt 0.446130 0.718329
vt 0.455665 0.712584
vt 0.455613 0.709249
vt 0.445450 0.709510
vt 0.445193 0.711517
vt 0.454062 0.718505
vt 0.449104 0.718505
vt 0.449104 0.710164
vt 0.454062 0.710164
vt 0.455750 0.709988
vt 0.455750 0.718329
vt 0.445450 0.718329
vt 0.445450 0.709988
vt 0.489215 0.750170
vt 0.463536 0.750170
vt 0.461219 0.755920
vt 0.461219 0.781412
vt 0.463536 0.787162
vt 0.489215 0.787162
vt 0.443537 0.709988
vt 0.461297 0.709521
vt 0.463209 0.709988
vt 0.461296 0.709988
vt 0.461297 0.718797
vt 0.461296 0.718329
vt 0.463209 0.718329
vt 0.445450 0.718807
vt 0.443537 0.718329
vt 0.456945 0.709988
vt 0.456931 0.709238
vt 0.455765 0.719080
vt 0.444049 0.711309
vt 0.448412 0.709988
vt 0.450324 0.709521
vt 0.450324 0.713107
vt 0.448412 0.713107
vt 0.455325 0.709656
vt 0.456469 0.709865
vt 0.455814 0.713454
vt 0.454670 0.713246
vt 0.452349 0.712822
vt 0.453003 0.709233
vt 0.450808 0.709388
vt 0.451353 0.712641
vt 0.456945 0.718329
vt 0.456931 0.719080
vt 0.455765 0.709238
vt 0.493364 0.750170
vt 0.493364 0.787162
vt 0.454664 0.712892
vt 0.454682 0.709244
vt 0.450342 0.709517
vt 0.503043 0.750170
vt 0.503043 0.787162
vt 0.505360 0.781412
vt 0.505360 0.755920
vt 0.464317 0.716492
vt 0.464413 0.716588
vt 0.464306 0.716838
vt 0.464168 0.716838
vt 0.464663 0.716343
vt 0.464663 0.716481
vt 0.464413 0.717087
vt 0.464317 0.717183
vt 0.465010 0.717183
vt 0.464914 0.717087
vt 0.465021 0.716838
vt 0.465159 0.716838
vt 0.464663 0.717194
vt 0.464663 0.717332
vt 0.464914 0.716588
vt 0.465010 0.716492
vt 0.594646 0.934239
vt 0.594646 0.869280
vt 0.593404 0.869253
vt 0.593404 0.934212
vt 0.596636 0.934212
vt 0.596636 0.999171
vt 0.597792 0.999197
vt 0.597792 0.934239
vt 0.592788 0.869191
vt 0.592788 0.934150
vt 0.596219 0.934150
vt 0.596219 0.999108
vt 0.599034 0.999171
vt 0.599034 0.934212
vt 0.599650 0.999108
vt 0.599650 0.934150
vt 0.595803 0.934212
vt 0.595803 0.869253
vt 0.596219 0.934150
vt 0.596219 0.869191
vt 0.596219 0.966629
vt 0.595803 0.966691
vt 0.594646 0.966718
vt 0.599034 0.901733
vt 0.599650 0.901671
vt 0.597792 0.901760
vt 0.596219 0.901671
vt 0.596636 0.901733
vt 0.593404 0.966691
vt 0.592788 0.966629
vt 0.594646 0.999197
vt 0.593404 0.999171
vt 0.596636 0.869253
vt 0.597792 0.869280
vt 0.592788 0.999108
vt 0.596219 0.869191
vt 0.599034 0.869253
vt 0.599650 0.869191
vt 0.595803 0.999171
vt 0.596219 0.999108
vt 0.596219 0.950390
vt 0.595803 0.950452
vt 0.594646 0.950478
vt 0.599034 0.917972
vt 0.599650 0.917910
vt 0.597792 0.917999
vt 0.596219 0.917910
vt 0.596636 0.917972
vt 0.593404 0.950452
vt 0.592788 0.950390
vt 0.000000 0.000000
vt 0.442715 0.757329
vt 0.464183 0.763725
vt 0.514975 0.767189
vt 0.514975 0.757329
vt 0.522865 0.757969
vt 0.522865 0.763088
vt 0.443510 0.763088
vt 0.443510 0.757969
vt 0.442715 0.750517
vt 0.514975 0.750517
vt 0.514975 0.783699
vt 0.474030 0.783699
vt 0.522865 0.770497
vt 0.443510 0.770497
vt 0.509249 0.749893
vt 0.509249 0.761114
vt 0.458875 0.761114
vt 0.458875 0.749893
vt 0.458875 0.786034
vt 0.458875 0.769119
vt 0.509249 0.769119
vt 0.509249 0.786034
vt 0.522865 0.782903
vt 0.443510 0.782903
vt 0.485791 0.624432
vt 0.473279 0.624432
vt 0.473279 0.629284
vt 0.485791 0.629284
vt 0.853273 0.705522
vt 0.853273 0.650240
vt 0.995851 0.650240
vt 0.995851 0.705522
vt 0.855033 0.642425
vt 0.853230 0.642425
vt 0.853230 0.721135
vt 0.855033 0.721135
vt 0.473279 0.629071
vt 0.473279 0.629010
vt 0.485791 0.629010
vt 0.485791 0.629071
vt 0.473279 0.624371
vt 0.485791 0.624371
vt 0.853273 0.657395
vt 0.995851 0.657395
vt 0.473279 0.623699
vt 0.485791 0.623699
vt 0.485791 0.623899
vt 0.473279 0.623899
vt 0.879799 0.721135
vt 0.879799 0.642425
vt 0.473279 0.624570
vt 0.485791 0.624570
vt 0.497539 0.635008
vt 0.497539 0.646766
vt 0.452922 0.646766
vt 0.452922 0.635008
vt 0.475669 0.671460
vt 0.475669 0.664375
vt 0.494009 0.664375
vt 0.494009 0.671460
vt 0.346161 0.682438
vt 0.346161 0.688471
vt 0.308196 0.688471
vt 0.308196 0.682438
s 0
usemtl Material
f 2/1/1 4/2/1 19/3/1 18/4/1
f 10/5/2 4/6/2 8/7/2 11/8/2
f 11/9/3 8/10/3 6/11/3 12/12/3
f 22/13/2 21/14/2 24/15/2 23/16/2
f 8/17/1 4/2/1 2/1/1 6/18/1
f 23/19/1 24/20/1 27/21/1 25/22/1
f 12/8/4 6/7/4 2/6/4 18/23/4 17/24/4 9/5/4
f 12/18/5 9/1/5 10/2/5 11/17/5
f 40/25/6 16/26/6 13/27/6 37/28/6
f 44/29/2 34/30/2 14/31/2 38/32/2
f 38/28/3 14/27/3 15/26/3 39/25/3
f 42/33/4 36/34/4 16/35/4 40/36/4
f 17/24/4 18/23/4 81/37/4 84/38/4
f 4/6/2 10/5/2 20/24/2 19/23/2
f 26/13/4 25/16/4 27/15/4 28/14/4
f 10/2/5 9/1/5 17/4/5 20/3/5
f 22/19/3 23/20/3 25/21/3 26/22/3
f 24/20/6 21/19/6 28/22/6 27/21/6
f 39/32/4 15/39/4 35/40/4 41/29/4
f 41/29/4 35/40/4 36/34/4 42/33/4
f 37/36/2 13/41/2 33/42/2 43/33/2
f 67/43/6 66/44/6 90/44/6 89/43/6
f 30/45/2 43/46/2 44/47/2 29/48/2
f 3/49/2 37/36/2 43/33/2 30/50/2
f 32/51/4 41/29/4 42/33/4 31/50/4
f 5/52/4 39/32/4 41/29/4 32/51/4
f 31/50/4 42/33/4 40/36/4 1/49/4
f 7/53/3 38/28/3 39/25/3 5/54/3
f 29/51/2 44/29/2 38/32/2 7/52/2
f 1/54/6 40/25/6 37/28/6 3/53/6
f 33/28/3 36/25/3 42/26/3 43/27/3
f 35/26/6 34/27/6 44/28/6 41/25/6
f 64/55/6 52/56/6 49/57/6 61/58/6
f 68/29/2 58/30/2 50/31/2 62/32/2
f 62/28/3 50/27/3 51/26/3 63/25/3
f 66/33/4 60/34/4 52/35/4 64/36/4
f 63/32/4 51/39/4 59/40/4 65/29/4
f 65/29/4 59/40/4 60/34/4 66/33/4
f 61/36/2 49/41/2 57/42/2 67/33/2
f 41/59/3 44/60/3 87/60/3 88/59/3
f 54/45/2 67/61/2 68/62/2 53/63/2
f 46/49/2 61/36/2 67/33/2 54/50/2
f 56/51/4 65/29/4 66/33/4 55/50/4
f 47/52/4 63/32/4 65/29/4 56/51/4
f 55/50/4 66/33/4 64/36/4 45/49/4
f 48/53/3 62/28/3 63/25/3 47/54/3
f 53/51/2 68/29/2 62/32/2 48/52/2
f 57/27/3 60/26/3 66/25/3 67/28/3
f 59/26/6 58/27/6 68/28/6 65/25/6
f 83/45/2 76/61/2 49/62/2 61/63/2
f 80/25/6 72/26/6 71/27/6 79/28/6
f 82/64/4 78/65/4 72/66/4 80/67/4
f 19/23/2 20/24/2 75/38/2 77/37/2
f 64/68/4 52/69/4 78/65/4 82/64/4
f 79/67/2 71/39/2 76/40/2 83/64/2
f 73/45/2 83/61/2 61/62/2 46/63/2
f 70/70/2 79/71/2 83/72/2 73/73/2
f 45/74/4 64/75/4 82/72/4 74/73/4
f 18/4/1 19/3/1 77/76/1 81/77/1
f 74/73/4 82/72/4 80/71/4 69/70/4
f 20/3/5 17/4/5 84/77/5 75/76/5
f 84/12/6 81/11/6 77/10/6 75/9/6
f 69/54/6 80/25/6 79/28/6 70/53/6
f 86/78/1 88/79/1 87/80/1 85/81/1
f 90/78/1 92/79/1 91/80/1 89/81/1
f 44/47/2 43/46/2 85/46/2 87/47/2
f 65/59/3 68/60/3 91/60/3 92/59/3
f 43/43/6 42/44/6 86/44/6 85/43/6
f 68/62/2 67/61/2 89/61/2 91/62/2
s 1
f 113/82/7 115/83/8 108/84/9 106/85/10
s 0
f 95/86/11 93/87/11 102/88/11 103/89/11
s 1
f 94/90/12 93/87/13 122/91/14 118/92/15
f 126/93/16 117/94/17 109/95/18 114/96/19
f 107/97/20 110/98/21 119/99/22 121/100/23
f 124/101/24 127/99/25 116/102/26 112/97/27
f 96/103/28 94/90/12 118/92/15 128/104/29
f 95/86/30 96/103/28 128/104/29 123/105/31
f 93/87/13 95/86/30 123/105/31 122/91/14
f 98/106/32 97/107/33 100/108/34 99/109/35
s 0
f 94/90/36 96/103/36 104/110/36 101/111/36
f 93/87/37 94/90/37 101/111/37 102/88/37
f 96/103/38 95/86/38 103/89/38 104/110/38
s 1
f 97/107/33 98/106/32 102/112/39 101/113/40
f 98/106/32 99/109/35 103/114/41 102/112/39
f 100/108/34 97/107/33 101/113/40 104/115/42
f 99/109/35 100/108/34 104/115/42 103/114/41
f 105/116/43 106/117/10 107/118/20
f 108/84/9 109/119/18 110/120/21
f 111/121/44 112/122/27 113/123/7
f 114/124/19 115/125/8 116/102/26
f 117/126/17 118/92/15 119/127/22
f 120/128/45 121/129/23 122/91/14
f 123/105/31 124/130/24 125/131/46
f 126/132/16 127/133/25 128/104/29
f 120/134/45 105/116/43 107/118/20 121/135/23
f 106/85/10 108/84/9 110/120/21 107/136/20
f 109/95/18 117/94/17 119/137/22 110/138/21
f 118/92/15 122/91/14 121/129/23 119/127/22
f 125/131/46 120/128/45 122/91/14 123/105/31
f 117/126/17 126/132/16 128/104/29 118/92/15
f 127/133/25 124/130/24 123/105/31 128/104/29
f 111/121/44 125/139/46 124/140/24 112/122/27
f 126/141/16 114/142/19 116/102/26 127/99/25
f 115/125/8 113/143/7 112/97/27 116/102/26
f 105/116/43 111/121/44 113/123/7 106/117/10
f 114/144/19 109/145/18 108/84/9 115/83/8
f 120/134/45 125/139/46 111/121/44 105/116/43
f 130/146/47 131/147/47 132/148/47 129/149/47
f 153/82/48 155/83/49 148/84/50 146/85/51
s 0
f 135/86/52 133/87/52 142/88/52 143/89/52
s 1
f 134/90/53 133/87/53 162/91/54 158/92/55
f 166/93/56 157/94/57 149/95/58 154/96/59
f 147/97/60 150/98/61 159/99/62 161/100/63
f 164/101/64 167/99/65 156/102/66 152/97/67
f 136/103/53 134/90/53 158/92/55 168/104/68
f 135/86/53 136/103/53 168/104/68 163/105/69
f 133/87/53 135/86/53 163/105/69 162/91/54
f 138/106/70 137/107/71 140/108/72 139/109/73
s 0
f 134/90/74 136/103/74 144/110/74 141/111/74
f 133/87/75 134/90/75 141/111/75 142/88/75
f 136/103/76 135/86/76 143/89/76 144/110/76
s 1
f 137/107/71 138/106/70 142/112/77 141/113/78
f 138/106/70 139/109/73 143/114/79 142/112/77
f 140/108/72 137/107/71 141/113/78 144/115/80
f 139/109/73 140/108/72 144/115/80 143/114/79
f 145/116/81 146/117/51 147/118/60
f 148/84/50 149/119/58 150/120/61
f 151/121/82 152/122/67 153/123/48
f 154/124/59 155/125/49 156/102/66
f 157/126/57 158/92/55 159/127/62
f 160/128/83 161/129/63 162/91/54
f 163/105/69 164/130/64 165/131/84
f 166/132/56 167/133/65 168/104/68
f 160/134/83 145/116/81 147/118/60 161/135/63
f 146/85/51 148/84/50 150/120/61 147/136/60
f 149/95/58 157/94/57 159/137/62 150/138/61
f 158/92/55 162/91/54 161/129/63 159/127/62
f 165/131/84 160/128/83 162/91/54 163/105/69
f 157/126/57 166/132/56 168/104/68 158/92/55
f 167/133/65 164/130/64 163/105/69 168/104/68
f 151/121/82 165/139/84 164/140/64 152/122/67
f 166/141/56 154/142/59 156/102/66 167/99/65
f 155/125/49 153/143/48 152/97/67 156/102/66
f 145/116/81 151/121/82 153/123/48 146/117/51
f 154/144/59 149/145/58 148/84/50 155/83/49
f 160/134/83 165/139/84 151/121/82 145/116/81
f 169/150/85 171/151/86 172/152/87 170/153/88
f 173/154/89 174/155/90 176/156/91 175/157/92
f 170/158/88 172/159/87 176/160/91 174/161/90
f 169/162/85 170/158/88 174/161/90 173/163/89
f 171/164/86 169/163/85 173/162/89 175/165/92
f 172/161/87 171/163/86 175/162/92 176/158/91
f 179/166/93 186/167/94 196/168/95 178/169/96
f 202/170/97 198/171/98 185/172/99 180/173/100
f 181/174/101 192/175/102 190/176/103 184/177/104
f 197/178/105 199/179/106 195/180/107 187/181/108
f 202/182/97 180/183/100 179/184/93 178/185/96 177/186/109 201/187/110
f 185/172/99 187/181/108 186/188/94
f 188/189/111 190/190/103 189/191/112
f 191/192/113 193/193/114 192/194/102
f 194/195/115 196/196/95 195/180/107
f 203/197/116 207/198/117 188/189/111 189/191/112
f 199/179/106 200/199/118 194/195/115 195/180/107
f 186/167/94 187/181/108 195/180/107 196/168/95
f 189/191/112 190/190/103 192/194/102 193/193/114
f 177/173/109 178/200/96 196/188/95 194/172/115
f 185/172/99 186/188/94 179/200/93 180/173/100
f 190/201/103 188/202/111 183/203/119 184/204/104
f 191/205/113 192/206/102 181/207/101 182/208/120
f 205/209/110 204/210/121 191/205/113 182/208/120
f 177/173/109 194/172/115 200/211/118 201/212/110
f 208/213/122 204/214/121 200/199/118 199/179/106
f 187/181/108 185/172/99 198/215/98 197/178/105
f 206/216/97 202/182/97 201/187/110 205/217/110
f 203/197/116 208/213/122 199/179/106 197/178/105
f 206/218/97 207/219/117 198/171/98 202/170/97
f 183/203/119 188/220/111 207/219/117 206/218/97
f 189/191/112 193/193/114 208/213/122 203/197/116
f 183/221/119 206/216/97 205/217/110 182/222/120 181/223/101 184/224/104
f 193/193/114 191/192/113 204/214/121 208/213/122
f 201/212/110 200/211/118 204/210/121 205/209/110
f 197/178/105 198/215/98 207/198/117 203/197/116
f 210/225/123 218/226/124 221/227/125 213/228/126
f 215/229/127 223/230/128 218/226/124 210/225/123
f 213/228/126 221/227/125 219/231/129 211/232/130
f 212/233/131 220/234/132 222/235/133 214/236/134
f 211/232/130 219/231/129 224/237/135 216/238/136
f 216/238/136 224/237/135 220/234/132 212/233/131
f 214/236/134 222/235/133 217/239/137 209/240/138
f 209/240/138 217/239/137 223/230/128 215/229/127
f 233/241/139 229/242/140 227/243/141 234/244/142
f 235/245/143 228/246/144 230/247/145 236/248/146
f 234/244/142 227/243/141 232/249/147 237/250/148
f 237/251/148 232/252/147 228/246/144 235/245/143
f 236/248/146 230/247/145 225/253/149 238/254/150
f 238/254/150 225/253/149 231/255/151 239/256/152
f 240/257/153 226/258/154 229/242/140 233/241/139
f 239/259/152 231/260/151 226/258/154 240/257/153
f 248/261/155 239/259/152 240/257/153 243/262/156
f 243/262/156 240/257/153 233/241/139 241/263/157
f 247/264/158 238/254/150 239/256/152 248/265/155
f 245/266/159 236/248/146 238/254/150 247/264/158
f 246/267/160 237/251/148 235/245/143 242/268/161
f 244/269/162 234/244/142 237/250/148 246/270/160
f 242/268/161 235/245/143 236/248/146 245/266/159
f 241/263/157 233/241/139 234/244/142 244/269/162
f 221/271/125 241/263/157 244/269/162 219/272/129
f 220/273/132 242/268/161 245/266/159 222/274/133
f 219/272/129 244/269/162 246/270/160 224/275/135
f 224/276/135 246/267/160 242/268/161 220/273/132
f 222/274/133 245/266/159 247/264/158 217/277/137
f 217/277/137 247/264/158 248/265/155 223/278/128
f 218/279/124 243/262/156 241/263/157 221/271/125
f 223/280/128 248/261/155 243/262/156 218/279/124
f 250/225/123 258/226/163 261/227/164 253/228/126
f 255/229/127 263/230/165 258/226/163 250/225/123
f 253/228/126 261/227/164 259/231/166 251/232/130
f 252/233/131 260/234/167 262/235/168 254/236/134
f 251/232/130 259/231/166 264/237/169 256/238/136
f 256/238/136 264/237/169 260/234/167 252/233/131
f 254/236/134 262/235/168 257/239/170 249/240/138
f 249/240/138 257/239/170 263/230/165 255/229/127
f 273/241/171 269/242/172 267/243/173 274/244/174
f 275/245/175 268/246/176 270/247/177 276/248/178
f 274/244/174 267/243/173 272/249/179 277/250/180
f 277/251/180 272/252/179 268/246/176 275/245/175
f 276/248/178 270/247/177 265/253/181 278/254/182
f 278/254/182 265/253/181 271/255/183 279/256/184
f 280/257/185 266/258/186 269/242/172 273/241/171
f 279/259/184 271/260/183 266/258/186 280/257/185
f 293/281/187 279/259/184 280/257/185 296/282/188
f 296/282/188 280/257/185 273/241/171 294/283/189
f 292/284/190 278/254/182 279/256/184 293/285/187
f 290/286/191 276/248/178 278/254/182 292/284/190
f 291/287/192 277/251/180 275/245/175 295/288/193
f 289/289/194 274/244/174 277/250/180 291/290/192
f 295/288/193 275/245/175 276/248/178 290/286/191
f 294/283/189 273/241/171 274/244/174 289/289/194
f 261/271/164 281/263/195 284/269/196 259/272/166
f 260/273/167 282/268/197 285/266/198 262/274/168
f 259/272/166 284/269/196 286/270/199 264/275/169
f 264/276/169 286/267/199 282/268/197 260/273/167
f 262/274/168 285/266/198 287/264/200 257/277/170
f 257/277/170 287/264/200 288/265/201 263/278/165
f 258/279/163 283/262/202 281/263/195 261/271/164
f 263/280/165 288/261/201 283/262/202 258/279/163
f 281/263/195 294/283/189 289/289/194 284/269/196
f 282/268/197 295/288/193 290/286/191 285/266/198
f 284/269/196 289/289/194 291/290/192 286/270/199
f 286/267/199 291/287/192 295/288/193 282/268/197
f 285/266/198 290/286/191 292/284/190 287/264/200
f 287/264/200 292/284/190 293/285/187 288/265/201
f 283/262/202 296/282/188 294/283/189 281/263/195
f 288/261/201 293/281/187 296/282/188 283/262/202
f 232/252/147 304/252/203 300/246/204 228/246/144
f 230/247/145 302/247/205 297/253/206 225/253/149
f 225/253/149 297/253/206 303/255/207 231/255/151
f 226/258/154 298/258/208 301/242/209 229/242/140
f 231/260/151 303/260/207 298/258/208 226/258/154
f 229/242/140 301/242/209 299/243/210 227/243/141
f 228/246/144 300/246/204 302/247/205 230/247/145
f 227/243/141 299/243/210 304/249/203 232/249/147
f 302/247/205 310/247/211 305/253/212 297/253/206
f 297/253/206 305/253/212 311/255/213 303/255/207
f 298/258/208 306/258/214 309/242/215 301/242/209
f 303/260/207 311/260/213 306/258/214 298/258/208
f 301/242/209 309/242/215 307/243/216 299/243/210
f 300/246/204 308/246/217 310/247/211 302/247/205
f 299/243/210 307/243/216 312/249/218 304/249/203
f 304/252/203 312/252/218 308/246/217 300/246/204
s 0
f 316/291/5 313/291/5 315/291/5 314/291/5
f 319/292/219 323/293/219 324/294/219 320/295/219
f 316/296/220 320/297/220 317/298/220 313/299/220
f 315/291/221 318/291/221 319/291/221 314/291/221
f 314/300/219 319/292/219 320/295/219 316/301/219
f 313/301/222 317/295/222 318/292/222 315/300/222
f 321/294/222 325/302/222 326/303/222 322/293/222
f 317/295/222 321/294/222 322/293/222 318/292/222
f 320/297/220 324/304/220 321/305/220 317/298/220
f 318/306/223 322/307/223 323/308/223 319/309/223
f 328/310/1 327/311/1 326/312/1 325/313/1
f 324/304/220 328/314/220 325/315/220 321/305/220
f 322/307/224 326/312/224 327/311/224 323/308/224
f 323/293/219 327/303/219 328/302/219 324/294/219
f 332/316/5 329/317/5 330/318/5 331/319/5
f 336/320/1 335/321/1 334/322/1 333/323/1
f 331/319/219 335/319/219 336/316/219 332/316/219
f 329/317/222 333/317/222 334/318/222 330/318/222
f 332/324/220 336/325/220 333/326/220 329/327/220
f 330/318/221 334/318/221 335/319/221 331/319/221
f 337/328/225 341/329/225 342/330/225 338/331/225
f 340/320/226 342/321/226 341/322/226 339/323/226
f 333/317/222 339/332/222 341/329/222 337/328/222
f 336/324/227 340/325/227 339/326/227 333/327/227
f 338/331/219 342/330/219 340/333/219 336/316/219
f 333/317/228 337/328/228 338/331/228 336/316/228
f 348/334/225 347/335/225 344/323/225 343/320/225
f 346/336/226 345/337/226 343/338/226 344/339/226
f 339/340/227 340/341/227 345/325/227 346/326/227
f 347/342/222 339/332/222 346/336/222 344/339/222
f 340/333/219 348/343/219 343/338/219 345/337/219
f 349/344/229 351/345/229 352/346/229 350/347/229
f 353/348/230 355/349/230 356/350/230 354/351/230
f 357/352/224 359/353/224 360/354/224 358/355/224
