# Blender 4.3.2
# www.blender.org
mtllib serverMiddle_2x3_2.mtl
o Cube.067
v 1.148114 -2.498000 -0.510681
v 1.148114 1.502000 -0.510681
v -0.351886 -2.433794 -0.438848
v -0.351886 1.435793 -0.438848
v 1.148114 -2.498000 0.989319
v 1.148114 1.502000 0.989319
v -0.351886 -2.433794 0.917485
v -0.351886 1.435793 0.917485
v -0.351886 1.502000 -0.510681
v -0.351886 -2.498000 -0.510681
v -0.351886 -2.498000 0.989319
v -0.351886 1.502000 0.989319
v -0.267574 1.343698 -0.406567
v -0.267574 -2.341698 -0.406567
v -0.267574 -2.341698 0.885205
v -0.267574 1.343698 0.885205
v 1.148114 -2.498000 1.004319
v 1.148114 1.502000 1.004319
v -0.351886 -2.433794 1.076153
v -0.351886 1.435793 1.076153
v 1.148114 -2.498000 2.504319
v 1.148114 1.502000 2.504319
v -0.351886 -2.433794 2.432485
v -0.351886 1.435793 2.432485
v -0.351886 1.502000 1.004319
v -0.351886 -2.498000 1.004319
v -0.351886 -2.498000 2.504319
v -0.351886 1.502000 2.504319
v -0.267574 1.343698 1.108433
v -0.267574 -2.341698 1.108433
v -0.267574 -2.341698 2.400205
v -0.267574 1.343698 2.400205
v 1.148114 -2.498000 2.519319
v 1.148114 1.502000 2.519319
v -0.351886 -2.433794 2.591153
v -0.351886 1.435793 2.591153
v 1.148114 -2.498000 4.019319
v 1.148114 1.502000 4.019319
v -0.351886 -2.433794 3.947485
v -0.351886 1.435793 3.947485
v -0.351886 1.502000 2.519319
v -0.351886 -2.498000 2.519319
v -0.351886 -2.498000 4.019319
v -0.351886 1.502000 4.019319
v -0.267574 1.343698 2.623433
v -0.267574 -2.341698 2.623433
v -0.267574 -2.341698 3.915205
v -0.267574 1.343698 3.915205
v 1.148114 -2.498000 4.034319
v 1.148114 1.502000 4.034319
v -0.351886 -2.433794 4.106153
v -0.351886 1.435793 4.106153
v 1.148114 -2.498000 5.534319
v 1.148114 1.502000 5.534319
v -0.351886 -2.433794 5.462485
v -0.351886 1.435793 5.462485
v -0.351886 1.502000 4.034319
v -0.351886 -2.498000 4.034319
v -0.351886 -2.498000 5.534319
v -0.351886 1.502000 5.534319
v -0.267574 1.343698 4.138433
v -0.267574 -2.341698 4.138433
v -0.267574 -2.341698 5.430205
v -0.267574 1.343698 5.430205
v 1.148114 -2.498000 5.549319
v 1.148114 1.502000 5.549319
v -0.351886 1.502000 5.549319
v -0.351886 -2.498000 5.549319
v 1.188364 -2.498000 -0.510681
v 1.188364 1.502000 -0.510681
v 2.688364 -2.433794 -0.438847
v 2.688364 1.435793 -0.438847
v 1.188364 -2.498000 0.989320
v 1.188364 1.502000 0.989320
v 2.688364 -2.433794 0.917486
v 2.688364 1.435793 0.917486
v 2.688364 1.502000 -0.510680
v 2.688364 -2.498000 -0.510680
v 2.688364 -2.498000 0.989320
v 2.688364 1.502000 0.989320
v 2.604053 1.343698 -0.406566
v 2.604053 -2.341698 -0.406566
v 2.604053 -2.341698 0.885205
v 2.604053 1.343698 0.885205
v 1.188364 -2.498000 1.004319
v 1.188364 1.502000 1.004319
v 2.688364 -2.433794 1.076153
v 2.688364 1.435793 1.076153
v 1.188364 -2.498000 2.504319
v 1.188364 1.502000 2.504319
v 2.688364 -2.433794 2.432486
v 2.688364 1.435793 2.432486
v 2.688364 1.502000 1.004319
v 2.688364 -2.498000 1.004319
v 2.688364 -2.498000 2.504319
v 2.688364 1.502000 2.504319
v 2.604053 1.343698 1.108434
v 2.604053 -2.341698 1.108434
v 2.604053 -2.341698 2.400205
v 2.604053 1.343698 2.400205
v 1.188364 -2.498000 2.519319
v 1.188364 1.502000 2.519319
v 2.688364 -2.433794 2.591153
v 2.688364 1.435793 2.591153
v 1.188364 -2.498000 4.019319
v 1.188364 1.502000 4.019319
v 2.688364 -2.433794 3.947486
v 2.688364 1.435793 3.947486
v 2.688364 1.502000 2.519319
v 2.688364 -2.498000 2.519319
v 2.688364 -2.498000 4.019319
v 2.688364 1.502000 4.019319
v 2.604053 1.343698 2.623433
v 2.604053 -2.341698 2.623433
v 2.604052 -2.341698 3.915205
v 2.604052 1.343698 3.915205
v 1.188364 -2.498000 4.034319
v 1.188364 1.502000 4.034319
v 2.688364 -2.433794 4.106153
v 2.688364 1.435793 4.106153
v 1.188364 -2.498000 5.534319
v 1.188364 1.502000 5.534319
v 2.688364 -2.433794 5.462485
v 2.688364 1.435793 5.462485
v 2.688364 1.502000 4.034319
v 2.688364 -2.498000 4.034319
v 2.688364 -2.498000 5.534319
v 2.688364 1.502000 5.534319
v 2.604052 1.343698 4.138433
v 2.604052 -2.341698 4.138433
v 2.604052 -2.341698 5.430205
v 2.604052 1.343698 5.430205
v 1.188364 -2.498000 5.549319
v 1.188364 1.502000 5.549319
v 2.688364 1.502000 5.549319
v 2.688364 -2.498000 5.549319
vn -0.0000 -0.0000 -1.0000
vn -0.7376 0.6752 -0.0000
vn -0.0000 -0.0000 1.0000
vn 1.0000 -0.0000 -0.0000
vn -0.0000 -1.0000 -0.0000
vn -0.0000 1.0000 -0.0000
vn -1.0000 -0.0000 -0.0000
vn -0.7376 -0.6752 -0.0000
vn -0.3576 -0.0000 0.9339
vn -0.3576 -0.0000 -0.9339
vn -0.7376 0.6753 -0.0000
vn -0.7376 -0.6753 -0.0000
vn 0.7376 0.6753 -0.0000
vn 0.7376 -0.6753 -0.0000
vn 0.3576 -0.0000 0.9339
vn 0.3576 -0.0000 -0.9339
vn 0.7376 0.6752 -0.0000
vt 0.850737 0.653804
vt 0.997894 0.653804
vt 0.997894 0.709307
vt 0.850737 0.709307
vt 0.856605 0.719576
vt 0.856605 0.640234
vt 0.861537 0.642122
vt 0.861537 0.717687
vt 0.998745 0.709307
vt 0.998745 0.653804
vt 0.850737 0.653963
vt 0.997895 0.653963
vt 0.997895 0.709147
vt 0.850737 0.709147
vt 0.890430 0.714163
vt 0.890430 0.644092
vt 0.960502 0.644092
vt 0.960502 0.714163
vt 0.995505 0.643478
vt 0.853127 0.643478
vt 0.850737 0.639631
vt 0.997894 0.639631
vt 0.853127 0.716112
vt 0.850737 0.719959
vt 0.995505 0.716112
vt 0.997894 0.719959
vt 0.951453 0.722394
vt 0.951453 0.999406
vt 0.851204 0.999406
vt 0.851204 0.722394
vt 0.992648 0.648708
vt 0.855984 0.648708
s 0
usemtl Material
f 1/1/1 10/4/1 9/3/1 2/2/1
f 7/5/2 15/8/2 14/7/2 3/6/2
f 11/4/3 5/1/3 6/10/3 12/9/3
f 5/11/4 1/14/4 2/13/4 6/12/4
f 10/15/5 1/18/5 5/17/5 11/16/5
f 12/15/6 6/18/6 2/17/6 9/16/6
f 4/19/7 9/22/7 10/21/7 3/20/7
f 3/20/7 10/21/7 11/24/7 7/23/7
f 8/25/7 12/26/7 9/22/7 4/19/7
f 7/23/7 11/24/7 12/26/7 8/25/7
f 14/27/7 15/30/7 16/29/7 13/28/7
f 4/6/8 13/7/8 16/8/8 8/5/8
f 3/20/9 14/32/9 13/31/9 4/19/9
f 8/19/10 16/31/10 15/32/10 7/20/10
f 17/1/1 26/4/1 25/3/1 18/2/1
f 23/5/2 31/8/2 30/7/2 19/6/2
f 27/4/3 21/1/3 22/10/3 28/9/3
f 21/11/4 17/14/4 18/13/4 22/12/4
f 26/15/5 17/18/5 21/17/5 27/16/5
f 28/15/6 22/18/6 18/17/6 25/16/6
f 20/19/7 25/22/7 26/21/7 19/20/7
f 19/20/7 26/21/7 27/24/7 23/23/7
f 24/25/7 28/26/7 25/22/7 20/19/7
f 23/23/7 27/24/7 28/26/7 24/25/7
f 30/27/7 31/30/7 32/29/7 29/28/7
f 20/6/8 29/7/8 32/8/8 24/5/8
f 19/20/9 30/32/9 29/31/9 20/19/9
f 24/19/10 32/31/10 31/32/10 23/20/10
f 33/1/1 42/4/1 41/3/1 34/2/1
f 39/5/11 47/8/11 46/7/11 35/6/11
f 43/4/3 37/1/3 38/10/3 44/9/3
f 37/11/4 33/14/4 34/13/4 38/12/4
f 42/15/5 33/18/5 37/17/5 43/16/5
f 44/15/6 38/18/6 34/17/6 41/16/6
f 36/19/7 41/22/7 42/21/7 35/20/7
f 35/20/7 42/21/7 43/24/7 39/23/7
f 40/25/7 44/26/7 41/22/7 36/19/7
f 39/23/7 43/24/7 44/26/7 40/25/7
f 46/27/7 47/30/7 48/29/7 45/28/7
f 36/6/12 45/7/12 48/8/12 40/5/12
f 35/20/9 46/32/9 45/31/9 36/19/9
f 40/19/10 48/31/10 47/32/10 39/20/10
f 49/1/1 58/4/1 57/3/1 50/2/1
f 55/5/11 63/8/11 62/7/11 51/6/11
f 59/4/3 53/1/3 54/10/3 60/9/3
f 53/11/4 49/14/4 50/13/4 54/12/4
f 58/15/5 49/18/5 53/17/5 59/16/5
f 60/15/6 54/18/6 50/17/6 57/16/6
f 52/19/7 57/22/7 58/21/7 51/20/7
f 51/20/7 58/21/7 59/24/7 55/23/7
f 56/25/7 60/26/7 57/22/7 52/19/7
f 55/23/7 59/24/7 60/26/7 56/25/7
f 62/27/7 63/30/7 64/29/7 61/28/7
f 52/6/12 61/7/12 64/8/12 56/5/12
f 51/20/9 62/32/9 61/31/9 52/19/9
f 56/19/10 64/31/10 63/32/10 55/20/10
f 65/1/1 68/4/1 67/3/1 66/2/1
f 69/1/1 70/2/1 77/3/1 78/4/1
f 75/5/13 71/6/13 82/7/13 83/8/13
f 79/4/3 80/9/3 74/10/3 73/1/3
f 73/11/7 74/12/7 70/13/7 69/14/7
f 78/15/5 79/16/5 73/17/5 69/18/5
f 80/15/6 77/16/6 70/17/6 74/18/6
f 72/19/4 71/20/4 78/21/4 77/22/4
f 71/20/4 75/23/4 79/24/4 78/21/4
f 76/25/4 72/19/4 77/22/4 80/26/4
f 75/23/4 76/25/4 80/26/4 79/24/4
f 82/27/4 81/28/4 84/29/4 83/30/4
f 72/6/14 76/5/14 84/8/14 81/7/14
f 71/20/15 72/19/15 81/31/15 82/32/15
f 76/19/16 75/20/16 83/32/16 84/31/16
f 85/1/1 86/2/1 93/3/1 94/4/1
f 91/5/17 87/6/17 98/7/17 99/8/17
f 95/4/3 96/9/3 90/10/3 89/1/3
f 89/11/7 90/12/7 86/13/7 85/14/7
f 94/15/5 95/16/5 89/17/5 85/18/5
f 96/15/6 93/16/6 86/17/6 90/18/6
f 88/19/4 87/20/4 94/21/4 93/22/4
f 87/20/4 91/23/4 95/24/4 94/21/4
f 92/25/4 88/19/4 93/22/4 96/26/4
f 91/23/4 92/25/4 96/26/4 95/24/4
f 98/27/4 97/28/4 100/29/4 99/30/4
f 88/6/14 92/5/14 100/8/14 97/7/14
f 87/20/15 88/19/15 97/31/15 98/32/15
f 92/19/16 91/20/16 99/32/16 100/31/16
f 101/1/1 102/2/1 109/3/1 110/4/1
f 107/5/17 103/6/17 114/7/17 115/8/17
f 111/4/3 112/9/3 106/10/3 105/1/3
f 105/11/7 106/12/7 102/13/7 101/14/7
f 110/15/5 111/16/5 105/17/5 101/18/5
f 112/15/6 109/16/6 102/17/6 106/18/6
f 104/19/4 103/20/4 110/21/4 109/22/4
f 103/20/4 107/23/4 111/24/4 110/21/4
f 108/25/4 104/19/4 109/22/4 112/26/4
f 107/23/4 108/25/4 112/26/4 111/24/4
f 114/27/4 113/28/4 116/29/4 115/30/4
f 104/6/14 108/5/14 116/8/14 113/7/14
f 103/20/15 104/19/15 113/31/15 114/32/15
f 108/19/16 107/20/16 115/32/16 116/31/16
f 117/1/1 118/2/1 125/3/1 126/4/1
f 123/5/17 119/6/17 130/7/17 131/8/17
f 127/4/3 128/9/3 122/10/3 121/1/3
f 121/11/7 122/12/7 118/13/7 117/14/7
f 126/15/5 127/16/5 121/17/5 117/18/5
f 128/15/6 125/16/6 118/17/6 122/18/6
f 120/19/4 119/20/4 126/21/4 125/22/4
f 119/20/4 123/23/4 127/24/4 126/21/4
f 124/25/4 120/19/4 125/22/4 128/26/4
f 123/23/4 124/25/4 128/26/4 127/24/4
f 130/27/4 129/28/4 132/29/4 131/30/4
f 120/6/14 124/5/14 132/8/14 129/7/14
f 119/20/15 120/19/15 129/31/15 130/32/15
f 124/19/16 123/20/16 131/32/16 132/31/16
f 133/1/1 134/2/1 135/3/1 136/4/1
o Cube.072
v 9.148113 -2.498000 -0.510681
v 9.148113 1.502000 -0.510681
v 7.648113 -2.433794 -0.438848
v 7.648113 1.435793 -0.438848
v 9.148113 -2.498000 0.989319
v 9.148113 1.502000 0.989319
v 7.648113 -2.433794 0.917485
v 7.648113 1.435793 0.917485
v 7.648113 1.502000 -0.510681
v 7.648113 -2.498000 -0.510681
v 7.648113 -2.498000 0.989319
v 7.648113 1.502000 0.989319
v 7.732425 1.343698 -0.406567
v 7.732425 -2.341698 -0.406567
v 7.732425 -2.341698 0.885205
v 7.732425 1.343698 0.885205
v 9.148113 -2.498000 1.004319
v 9.148113 1.502000 1.004319
v 7.648113 -2.433794 1.076153
v 7.648113 1.435793 1.076153
v 9.148113 -2.498000 2.504319
v 9.148113 1.502000 2.504319
v 7.648113 -2.433794 2.432485
v 7.648113 1.435793 2.432485
v 7.648113 1.502000 1.004319
v 7.648113 -2.498000 1.004319
v 7.648113 -2.498000 2.504319
v 7.648113 1.502000 2.504319
v 7.732425 1.343698 1.108433
v 7.732425 -2.341698 1.108433
v 7.732425 -2.341698 2.400205
v 7.732425 1.343698 2.400205
v 9.148113 -2.498000 2.519319
v 9.148113 1.502000 2.519319
v 7.648113 -2.433794 2.591153
v 7.648113 1.435793 2.591153
v 9.148113 -2.498000 4.019319
v 9.148113 1.502000 4.019319
v 7.648113 -2.433794 3.947485
v 7.648113 1.435793 3.947485
v 7.648113 1.502000 2.519319
v 7.648113 -2.498000 2.519319
v 7.648113 -2.498000 4.019319
v 7.648113 1.502000 4.019319
v 7.732425 1.343698 2.623433
v 7.732425 -2.341698 2.623433
v 7.732425 -2.341698 3.915205
v 7.732425 1.343698 3.915205
v 9.148113 -2.498000 4.034319
v 9.148113 1.502000 4.034319
v 7.648113 -2.433794 4.106153
v 7.648113 1.435793 4.106153
v 9.148113 -2.498000 5.534319
v 9.148113 1.502000 5.534319
v 7.648113 -2.433794 5.462485
v 7.648113 1.435793 5.462485
v 7.648113 1.502000 4.034319
v 7.648113 -2.498000 4.034319
v 7.648113 -2.498000 5.534319
v 7.648113 1.502000 5.534319
v 7.732425 1.343698 4.138433
v 7.732425 -2.341698 4.138433
v 7.732425 -2.341698 5.430205
v 7.732425 1.343698 5.430205
v 9.148113 -2.498000 5.549319
v 9.148113 1.502000 5.549319
v 7.648113 1.502000 5.549319
v 7.648113 -2.498000 5.549319
v 9.188363 -2.498000 -0.510681
v 9.188363 1.502000 -0.510681
v 10.688363 -2.433794 -0.438847
v 10.688363 1.435793 -0.438847
v 9.188363 -2.498000 0.989320
v 9.188363 1.502000 0.989320
v 10.688363 -2.433794 0.917486
v 10.688363 1.435793 0.917486
v 10.688363 1.502000 -0.510680
v 10.688363 -2.498000 -0.510680
v 10.688363 -2.498000 0.989320
v 10.688363 1.502000 0.989320
v 10.604052 1.343698 -0.406566
v 10.604052 -2.341698 -0.406566
v 10.604052 -2.341698 0.885205
v 10.604052 1.343698 0.885205
v 9.188363 -2.498000 1.004319
v 9.188363 1.502000 1.004319
v 10.688363 -2.433794 1.076153
v 10.688363 1.435793 1.076153
v 9.188363 -2.498000 2.504319
v 9.188363 1.502000 2.504319
v 10.688363 -2.433794 2.432486
v 10.688363 1.435793 2.432486
v 10.688363 1.502000 1.004319
v 10.688363 -2.498000 1.004319
v 10.688363 -2.498000 2.504319
v 10.688363 1.502000 2.504319
v 10.604052 1.343698 1.108434
v 10.604052 -2.341698 1.108434
v 10.604052 -2.341698 2.400205
v 10.604052 1.343698 2.400205
v 9.188363 -2.498000 2.519319
v 9.188363 1.502000 2.519319
v 10.688363 -2.433794 2.591153
v 10.688363 1.435793 2.591153
v 9.188363 -2.498000 4.019319
v 9.188363 1.502000 4.019319
v 10.688363 -2.433794 3.947486
v 10.688363 1.435793 3.947486
v 10.688363 1.502000 2.519319
v 10.688363 -2.498000 2.519319
v 10.688363 -2.498000 4.019319
v 10.688363 1.502000 4.019319
v 10.604052 1.343698 2.623433
v 10.604052 -2.341698 2.623433
v 10.604052 -2.341698 3.915205
v 10.604052 1.343698 3.915205
v 9.188363 -2.498000 4.034319
v 9.188363 1.502000 4.034319
v 10.688363 -2.433794 4.106153
v 10.688363 1.435793 4.106153
v 9.188363 -2.498000 5.534319
v 9.188363 1.502000 5.534319
v 10.688363 -2.433794 5.462485
v 10.688363 1.435793 5.462485
v 10.688363 1.502000 4.034319
v 10.688363 -2.498000 4.034319
v 10.688363 -2.498000 5.534319
v 10.688363 1.502000 5.534319
v 10.604052 1.343698 4.138433
v 10.604052 -2.341698 4.138433
v 10.604052 -2.341698 5.430205
v 10.604052 1.343698 5.430205
v 9.188363 -2.498000 5.549319
v 9.188363 1.502000 5.549319
v 10.688363 1.502000 5.549319
v 10.688363 -2.498000 5.549319
vn -0.0000 -0.0000 -1.0000
vn -0.7376 0.6752 -0.0000
vn -0.0000 -0.0000 1.0000
vn 1.0000 -0.0000 -0.0000
vn -0.0000 -1.0000 -0.0000
vn -0.0000 1.0000 -0.0000
vn -1.0000 -0.0000 -0.0000
vn -0.7376 -0.6752 -0.0000
vn -0.3576 -0.0000 0.9339
vn -0.3576 -0.0000 -0.9339
vn -0.7376 0.6753 -0.0000
vn -0.7376 -0.6753 -0.0000
vn 0.7376 0.6753 -0.0000
vn 0.7376 -0.6753 -0.0000
vn 0.3576 -0.0000 0.9339
vn 0.3576 -0.0000 -0.9339
vn 0.7376 0.6752 -0.0000
vt 0.850737 0.653804
vt 0.997894 0.653804
vt 0.997894 0.709307
vt 0.850737 0.709307
vt 0.856605 0.719576
vt 0.856605 0.640234
vt 0.861537 0.642122
vt 0.861537 0.717687
vt 0.998745 0.709307
vt 0.998745 0.653804
vt 0.850737 0.653963
vt 0.997895 0.653963
vt 0.997895 0.709147
vt 0.850737 0.709147
vt 0.890430 0.714163
vt 0.890430 0.644092
vt 0.960502 0.644092
vt 0.960502 0.714163
vt 0.995505 0.643478
vt 0.853127 0.643478
vt 0.850737 0.639631
vt 0.997894 0.639631
vt 0.853127 0.716112
vt 0.850737 0.719959
vt 0.995505 0.716112
vt 0.997894 0.719959
vt 0.951453 0.722394
vt 0.951453 0.999406
vt 0.851204 0.999406
vt 0.851204 0.722394
vt 0.992648 0.648708
vt 0.855984 0.648708
s 0
usemtl Material
f 137/33/18 146/36/18 145/35/18 138/34/18
f 143/37/19 151/40/19 150/39/19 139/38/19
f 147/36/20 141/33/20 142/42/20 148/41/20
f 141/43/21 137/46/21 138/45/21 142/44/21
f 146/47/22 137/50/22 141/49/22 147/48/22
f 148/47/23 142/50/23 138/49/23 145/48/23
f 140/51/24 145/54/24 146/53/24 139/52/24
f 139/52/24 146/53/24 147/56/24 143/55/24
f 144/57/24 148/58/24 145/54/24 140/51/24
f 143/55/24 147/56/24 148/58/24 144/57/24
f 150/59/24 151/62/24 152/61/24 149/60/24
f 140/38/25 149/39/25 152/40/25 144/37/25
f 139/52/26 150/64/26 149/63/26 140/51/26
f 144/51/27 152/63/27 151/64/27 143/52/27
f 153/33/18 162/36/18 161/35/18 154/34/18
f 159/37/19 167/40/19 166/39/19 155/38/19
f 163/36/20 157/33/20 158/42/20 164/41/20
f 157/43/21 153/46/21 154/45/21 158/44/21
f 162/47/22 153/50/22 157/49/22 163/48/22
f 164/47/23 158/50/23 154/49/23 161/48/23
f 156/51/24 161/54/24 162/53/24 155/52/24
f 155/52/24 162/53/24 163/56/24 159/55/24
f 160/57/24 164/58/24 161/54/24 156/51/24
f 159/55/24 163/56/24 164/58/24 160/57/24
f 166/59/24 167/62/24 168/61/24 165/60/24
f 156/38/25 165/39/25 168/40/25 160/37/25
f 155/52/26 166/64/26 165/63/26 156/51/26
f 160/51/27 168/63/27 167/64/27 159/52/27
f 169/33/18 178/36/18 177/35/18 170/34/18
f 175/37/28 183/40/28 182/39/28 171/38/28
f 179/36/20 173/33/20 174/42/20 180/41/20
f 173/43/21 169/46/21 170/45/21 174/44/21
f 178/47/22 169/50/22 173/49/22 179/48/22
f 180/47/23 174/50/23 170/49/23 177/48/23
f 172/51/24 177/54/24 178/53/24 171/52/24
f 171/52/24 178/53/24 179/56/24 175/55/24
f 176/57/24 180/58/24 177/54/24 172/51/24
f 175/55/24 179/56/24 180/58/24 176/57/24
f 182/59/24 183/62/24 184/61/24 181/60/24
f 172/38/29 181/39/29 184/40/29 176/37/29
f 171/52/26 182/64/26 181/63/26 172/51/26
f 176/51/27 184/63/27 183/64/27 175/52/27
f 185/33/18 194/36/18 193/35/18 186/34/18
f 191/37/28 199/40/28 198/39/28 187/38/28
f 195/36/20 189/33/20 190/42/20 196/41/20
f 189/43/21 185/46/21 186/45/21 190/44/21
f 194/47/22 185/50/22 189/49/22 195/48/22
f 196/47/23 190/50/23 186/49/23 193/48/23
f 188/51/24 193/54/24 194/53/24 187/52/24
f 187/52/24 194/53/24 195/56/24 191/55/24
f 192/57/24 196/58/24 193/54/24 188/51/24
f 191/55/24 195/56/24 196/58/24 192/57/24
f 198/59/24 199/62/24 200/61/24 197/60/24
f 188/38/29 197/39/29 200/40/29 192/37/29
f 187/52/26 198/64/26 197/63/26 188/51/26
f 192/51/27 200/63/27 199/64/27 191/52/27
f 201/33/18 204/36/18 203/35/18 202/34/18
f 205/33/18 206/34/18 213/35/18 214/36/18
f 211/37/30 207/38/30 218/39/30 219/40/30
f 215/36/20 216/41/20 210/42/20 209/33/20
f 209/43/24 210/44/24 206/45/24 205/46/24
f 214/47/22 215/48/22 209/49/22 205/50/22
f 216/47/23 213/48/23 206/49/23 210/50/23
f 208/51/21 207/52/21 214/53/21 213/54/21
f 207/52/21 211/55/21 215/56/21 214/53/21
f 212/57/21 208/51/21 213/54/21 216/58/21
f 211/55/21 212/57/21 216/58/21 215/56/21
f 218/59/21 217/60/21 220/61/21 219/62/21
f 208/38/31 212/37/31 220/40/31 217/39/31
f 207/52/32 208/51/32 217/63/32 218/64/32
f 212/51/33 211/52/33 219/64/33 220/63/33
f 221/33/18 222/34/18 229/35/18 230/36/18
f 227/37/34 223/38/34 234/39/34 235/40/34
f 231/36/20 232/41/20 226/42/20 225/33/20
f 225/43/24 226/44/24 222/45/24 221/46/24
f 230/47/22 231/48/22 225/49/22 221/50/22
f 232/47/23 229/48/23 222/49/23 226/50/23
f 224/51/21 223/52/21 230/53/21 229/54/21
f 223/52/21 227/55/21 231/56/21 230/53/21
f 228/57/21 224/51/21 229/54/21 232/58/21
f 227/55/21 228/57/21 232/58/21 231/56/21
f 234/59/21 233/60/21 236/61/21 235/62/21
f 224/38/31 228/37/31 236/40/31 233/39/31
f 223/52/32 224/51/32 233/63/32 234/64/32
f 228/51/33 227/52/33 235/64/33 236/63/33
f 237/33/18 238/34/18 245/35/18 246/36/18
f 243/37/34 239/38/34 250/39/34 251/40/34
f 247/36/20 248/41/20 242/42/20 241/33/20
f 241/43/24 242/44/24 238/45/24 237/46/24
f 246/47/22 247/48/22 241/49/22 237/50/22
f 248/47/23 245/48/23 238/49/23 242/50/23
f 240/51/21 239/52/21 246/53/21 245/54/21
f 239/52/21 243/55/21 247/56/21 246/53/21
f 244/57/21 240/51/21 245/54/21 248/58/21
f 243/55/21 244/57/21 248/58/21 247/56/21
f 250/59/21 249/60/21 252/61/21 251/62/21
f 240/38/31 244/37/31 252/40/31 249/39/31
f 239/52/32 240/51/32 249/63/32 250/64/32
f 244/51/33 243/52/33 251/64/33 252/63/33
f 253/33/18 254/34/18 261/35/18 262/36/18
f 259/37/34 255/38/34 266/39/34 267/40/34
f 263/36/20 264/41/20 258/42/20 257/33/20
f 257/43/24 258/44/24 254/45/24 253/46/24
f 262/47/22 263/48/22 257/49/22 253/50/22
f 264/47/23 261/48/23 254/49/23 258/50/23
f 256/51/21 255/52/21 262/53/21 261/54/21
f 255/52/21 259/55/21 263/56/21 262/53/21
f 260/57/21 256/51/21 261/54/21 264/58/21
f 259/55/21 260/57/21 264/58/21 263/56/21
f 266/59/21 265/60/21 268/61/21 267/62/21
f 256/38/31 260/37/31 268/40/31 265/39/31
f 255/52/32 256/51/32 265/63/32 266/64/32
f 260/51/33 259/52/33 267/64/33 268/63/33
f 269/33/18 270/34/18 271/35/18 272/36/18
