# Blender 4.3.2
# www.blender.org
mtllib serverMiddle_2x3_1.mtl
o Cube.020
v -1.851886 -2.498000 2.489319
v -1.851886 1.502000 2.489319
v -1.780052 -2.433794 3.989319
v -1.780052 1.435793 3.989319
v -0.351886 -2.498000 2.489319
v -0.351886 1.502000 2.489319
v -0.423719 -2.433794 3.989319
v -0.423719 1.435793 3.989319
v -1.851886 1.502000 3.989319
v -1.851886 -2.498000 3.989319
v -0.351886 -2.498000 3.989319
v -0.351886 1.502000 3.989319
v -1.747772 1.343698 3.905007
v -1.747772 -2.341698 3.905007
v -0.456000 -2.341698 3.905007
v -0.456000 1.343698 3.905007
v -0.336886 -2.498000 2.489319
v -0.336886 1.502000 2.489319
v -0.265052 -2.433794 3.989319
v -0.265052 1.435793 3.989319
v 1.163114 -2.498000 2.489319
v 1.163114 1.502000 2.489319
v 1.091281 -2.433794 3.989319
v 1.091281 1.435793 3.989319
v -0.336886 1.502000 3.989319
v -0.336886 -2.498000 3.989319
v 1.163114 -2.498000 3.989319
v 1.163114 1.502000 3.989319
v -0.232772 1.343698 3.905007
v -0.232772 -2.341698 3.905007
v 1.059000 -2.341698 3.905007
v 1.059000 1.343698 3.905007
v 1.178114 -2.498000 2.489319
v 1.178114 1.502000 2.489319
v 1.249948 -2.433794 3.989319
v 1.249948 1.435793 3.989319
v 2.678114 -2.498000 2.489319
v 2.678114 1.502000 2.489319
v 2.606281 -2.433794 3.989319
v 2.606281 1.435793 3.989319
v 1.178114 1.502000 3.989319
v 1.178114 -2.498000 3.989319
v 2.678114 -2.498000 3.989319
v 2.678114 1.502000 3.989319
v 1.282228 1.343698 3.905007
v 1.282228 -2.341698 3.905007
v 2.574000 -2.341698 3.905007
v 2.574000 1.343698 3.905007
v 2.693115 -2.498000 2.489319
v 2.693115 1.502000 2.489319
v 2.764948 -2.433794 3.989319
v 2.764948 1.435793 3.989319
v 4.193115 -2.498000 2.489319
v 4.193115 1.502000 2.489319
v 4.121281 -2.433794 3.989319
v 4.121281 1.435793 3.989319
v 2.693115 1.502000 3.989319
v 2.693115 -2.498000 3.989319
v 4.193115 -2.498000 3.989319
v 4.193115 1.502000 3.989319
v 2.797229 1.343698 3.905007
v 2.797229 -2.341698 3.905007
v 4.089001 -2.341698 3.905007
v 4.089001 1.343698 3.905007
v 4.208115 -2.498000 2.489319
v 4.208115 1.502000 2.489319
v 4.279948 -2.433794 3.989319
v 4.279948 1.435793 3.989319
v 5.708115 -2.498000 2.489319
v 5.708115 1.502000 2.489319
v 5.636281 -2.433794 3.989319
v 5.636281 1.435793 3.989319
v 4.208115 1.502000 3.989319
v 4.208115 -2.498000 3.989319
v 5.708115 -2.498000 3.989319
v 5.708115 1.502000 3.989319
v 4.312229 1.343698 3.905007
v 4.312229 -2.341698 3.905007
v 5.604001 -2.341698 3.905007
v 5.604001 1.343698 3.905007
v 5.723114 -2.498000 2.489319
v 5.723114 1.502000 2.489319
v 5.794948 -2.433794 3.989319
v 5.794948 1.435793 3.989319
v 7.223115 -2.498000 2.489319
v 7.223115 1.502000 2.489319
v 7.151281 -2.433794 3.989319
v 7.151281 1.435793 3.989319
v 5.723114 1.502000 3.989319
v 5.723114 -2.498000 3.989319
v 7.223115 -2.498000 3.989319
v 7.223115 1.502000 3.989319
v 5.827229 1.343698 3.905007
v 5.827229 -2.341698 3.905007
v 7.119000 -2.341698 3.905007
v 7.119000 1.343698 3.905007
v 7.238114 -2.498000 2.489319
v 7.238114 1.502000 2.489319
v 7.309948 -2.433794 3.989319
v 7.309948 1.435793 3.989319
v 8.738114 -2.498000 2.489319
v 8.738114 1.502000 2.489319
v 8.666281 -2.433794 3.989319
v 8.666281 1.435793 3.989319
v 7.238114 1.502000 3.989319
v 7.238114 -2.498000 3.989319
v 8.738114 -2.498000 3.989319
v 8.738114 1.502000 3.989319
v 7.342229 1.343698 3.905007
v 7.342229 -2.341698 3.905007
v 8.634001 -2.341698 3.905007
v 8.634001 1.343698 3.905007
v 8.753114 -2.498000 2.489319
v 8.753114 1.502000 2.489319
v 8.824947 -2.433794 3.989319
v 8.824947 1.435793 3.989319
v 10.253114 -2.498000 2.489319
v 10.253114 1.502000 2.489319
v 10.181281 -2.433794 3.989319
v 10.181281 1.435793 3.989319
v 8.753114 1.502000 3.989319
v 8.753114 -2.498000 3.989319
v 10.253114 -2.498000 3.989319
v 10.253114 1.502000 3.989319
v 8.857228 1.343698 3.905007
v 8.857228 -2.341698 3.905007
v 10.149000 -2.341698 3.905007
v 10.149000 1.343698 3.905007
v 10.268114 -2.498000 2.489319
v 10.268114 1.502000 2.489319
v 10.339948 -2.433794 3.989319
v 10.339948 1.435793 3.989319
v 11.768114 -2.498000 2.489319
v 11.768114 1.502000 2.489319
v 11.696280 -2.433794 3.989319
v 11.696280 1.435793 3.989319
v 10.268114 1.502000 3.989319
v 10.268114 -2.498000 3.989319
v 11.768114 -2.498000 3.989319
v 11.768114 1.502000 3.989319
v 10.372228 1.343698 3.905007
v 10.372228 -2.341698 3.905007
v 11.664001 -2.341698 3.905007
v 11.664001 1.343698 3.905007
v -1.851885 -2.498000 2.449069
v -1.851885 1.502000 2.449069
v -1.780052 -2.433794 0.949069
v -1.780052 1.435793 0.949069
v -0.351885 -2.498000 2.449069
v -0.351885 1.502000 2.449069
v -0.423719 -2.433794 0.949069
v -0.423719 1.435793 0.949069
v -1.851885 1.502000 0.949069
v -1.851885 -2.498000 0.949069
v -0.351885 -2.498000 0.949069
v -0.351885 1.502000 0.949069
v -1.747771 1.343698 1.033381
v -1.747771 -2.341698 1.033381
v -0.456000 -2.341698 1.033381
v -0.456000 1.343698 1.033381
v -0.336885 -2.498000 2.449069
v -0.336885 1.502000 2.449069
v -0.265051 -2.433794 0.949069
v -0.265051 1.435793 0.949069
v 1.163115 -2.498000 2.449069
v 1.163115 1.502000 2.449069
v 1.091281 -2.433794 0.949069
v 1.091281 1.435793 0.949069
v -0.336885 1.502000 0.949069
v -0.336885 -2.498000 0.949069
v 1.163115 -2.498000 0.949069
v 1.163115 1.502000 0.949069
v -0.232771 1.343698 1.033381
v -0.232771 -2.341698 1.033381
v 1.059000 -2.341698 1.033381
v 1.059000 1.343698 1.033381
v 1.178115 -2.498000 2.449069
v 1.178115 1.502000 2.449069
v 1.249949 -2.433794 0.949069
v 1.249949 1.435793 0.949069
v 2.678114 -2.498000 2.449069
v 2.678114 1.502000 2.449069
v 2.606281 -2.433794 0.949069
v 2.606281 1.435793 0.949069
v 1.178115 1.502000 0.949069
v 1.178115 -2.498000 0.949069
v 2.678114 -2.498000 0.949069
v 2.678114 1.502000 0.949069
v 1.282229 1.343698 1.033381
v 1.282229 -2.341698 1.033381
v 2.574001 -2.341698 1.033381
v 2.574001 1.343698 1.033381
v 2.693115 -2.498000 2.449069
v 2.693115 1.502000 2.449069
v 2.764948 -2.433794 0.949069
v 2.764948 1.435793 0.949069
v 4.193115 -2.498000 2.449069
v 4.193115 1.502000 2.449069
v 4.121281 -2.433794 0.949069
v 4.121281 1.435793 0.949069
v 2.693115 1.502000 0.949069
v 2.693115 -2.498000 0.949069
v 4.193115 -2.498000 0.949069
v 4.193115 1.502000 0.949069
v 2.797229 1.343698 1.033381
v 2.797229 -2.341698 1.033381
v 4.089001 -2.341698 1.033381
v 4.089001 1.343698 1.033381
v 4.208115 -2.498000 2.449069
v 4.208115 1.502000 2.449069
v 4.279948 -2.433794 0.949069
v 4.279948 1.435793 0.949069
v 5.708115 -2.498000 2.449069
v 5.708115 1.502000 2.449069
v 5.636281 -2.433794 0.949069
v 5.636281 1.435793 0.949069
v 4.208115 1.502000 0.949069
v 4.208115 -2.498000 0.949069
v 5.708115 -2.498000 0.949069
v 5.708115 1.502000 0.949069
v 4.312229 1.343698 1.033381
v 4.312229 -2.341698 1.033381
v 5.604001 -2.341698 1.033381
v 5.604001 1.343698 1.033381
v 5.723114 -2.498000 2.449069
v 5.723114 1.502000 2.449069
v 5.794948 -2.433794 0.949069
v 5.794948 1.435793 0.949069
v 7.223115 -2.498000 2.449069
v 7.223115 1.502000 2.449069
v 7.151281 -2.433794 0.949069
v 7.151281 1.435793 0.949069
v 5.723114 1.502000 0.949069
v 5.723114 -2.498000 0.949069
v 7.223115 -2.498000 0.949069
v 7.223115 1.502000 0.949069
v 5.827229 1.343698 1.033381
v 5.827229 -2.341698 1.033381
v 7.119000 -2.341698 1.033381
v 7.119000 1.343698 1.033381
v 7.238114 -2.498000 2.449069
v 7.238114 1.502000 2.449069
v 7.309948 -2.433794 0.949069
v 7.309948 1.435793 0.949069
v 8.738114 -2.498000 2.449069
v 8.738114 1.502000 2.449069
v 8.666281 -2.433794 0.949069
v 8.666281 1.435793 0.949069
v 7.238114 1.502000 0.949069
v 7.238114 -2.498000 0.949069
v 8.738114 -2.498000 0.949069
v 8.738114 1.502000 0.949069
v 7.342229 1.343698 1.033381
v 7.342229 -2.341698 1.033381
v 8.634001 -2.341698 1.033381
v 8.634001 1.343698 1.033381
v 8.753114 -2.498000 2.449069
v 8.753114 1.502000 2.449069
v 8.824947 -2.433794 0.949069
v 8.824947 1.435793 0.949069
v 10.253114 -2.498000 2.449069
v 10.253114 1.502000 2.449069
v 10.181279 -2.433794 0.949069
v 10.181279 1.435793 0.949069
v 8.753114 1.502000 0.949069
v 8.753114 -2.498000 0.949069
v 10.253114 -2.498000 0.949069
v 10.253114 1.502000 0.949069
v 8.857228 1.343698 1.033381
v 8.857228 -2.341698 1.033381
v 10.149000 -2.341698 1.033381
v 10.149000 1.343698 1.033381
v 10.268113 -2.498000 2.449069
v 10.268113 1.502000 2.449069
v 10.339948 -2.433794 0.949069
v 10.339948 1.435793 0.949069
v 11.768113 -2.498000 2.449069
v 11.768113 1.502000 2.449069
v 11.696280 -2.433794 0.949069
v 11.696280 1.435793 0.949069
v 10.268113 1.502000 0.949069
v 10.268113 -2.498000 0.949069
v 11.768113 -2.498000 0.949069
v 11.768113 1.502000 0.949069
v 10.372227 1.343698 1.033381
v 10.372227 -2.341698 1.033381
v 11.664000 -2.341698 1.033381
v 11.664000 1.343698 1.033381
vn -1.0000 -0.0000 -0.0000
vn -0.0000 0.6752 0.7376
vn 1.0000 -0.0000 -0.0000
vn -0.0000 -0.0000 -1.0000
vn -0.0000 -1.0000 -0.0000
vn -0.0000 1.0000 -0.0000
vn -0.0000 -0.0000 1.0000
vn -0.0000 -0.6752 0.7376
vn 0.9339 -0.0000 0.3576
vn -0.9339 -0.0000 0.3576
vn -0.0000 0.6753 0.7376
vn -0.0000 -0.6753 0.7376
vn -0.9339 -0.0000 0.3575
vn -0.0000 0.6753 -0.7376
vn -0.0000 -0.6753 -0.7376
vn 0.9339 -0.0000 -0.3576
vn -0.9339 -0.0000 -0.3576
vn -0.0000 0.6752 -0.7376
vn 0.9339 -0.0000 -0.3575
vt 0.850737 0.653804
vt 0.997894 0.653804
vt 0.997894 0.709307
vt 0.850737 0.709307
vt 0.856605 0.719576
vt 0.856605 0.640234
vt 0.861537 0.642122
vt 0.861537 0.717687
vt 0.998745 0.709307
vt 0.998745 0.653804
vt 0.850737 0.653963
vt 0.997895 0.653963
vt 0.997895 0.709147
vt 0.850737 0.709147
vt 0.890430 0.714163
vt 0.890430 0.644092
vt 0.960502 0.644092
vt 0.960502 0.714163
vt 0.995505 0.643478
vt 0.853127 0.643478
vt 0.850737 0.639631
vt 0.997894 0.639631
vt 0.853127 0.716112
vt 0.850737 0.719959
vt 0.995505 0.716112
vt 0.997894 0.719959
vt 0.951453 0.722394
vt 0.951453 0.999406
vt 0.851204 0.999406
vt 0.851204 0.722394
vt 0.992648 0.648708
vt 0.855984 0.648708
s 0
usemtl Material
f 1/1/1 10/4/1 9/3/1 2/2/1
f 7/5/2 15/8/2 14/7/2 3/6/2
f 11/4/3 5/1/3 6/10/3 12/9/3
f 5/11/4 1/14/4 2/13/4 6/12/4
f 10/15/5 1/18/5 5/17/5 11/16/5
f 12/15/6 6/18/6 2/17/6 9/16/6
f 4/19/7 9/22/7 10/21/7 3/20/7
f 3/20/7 10/21/7 11/24/7 7/23/7
f 8/25/7 12/26/7 9/22/7 4/19/7
f 7/23/7 11/24/7 12/26/7 8/25/7
f 14/27/7 15/30/7 16/29/7 13/28/7
f 4/6/8 13/7/8 16/8/8 8/5/8
f 3/20/9 14/32/9 13/31/9 4/19/9
f 8/19/10 16/31/10 15/32/10 7/20/10
f 17/1/1 26/4/1 25/3/1 18/2/1
f 23/5/2 31/8/2 30/7/2 19/6/2
f 27/4/3 21/1/3 22/10/3 28/9/3
f 21/11/4 17/14/4 18/13/4 22/12/4
f 26/15/5 17/18/5 21/17/5 27/16/5
f 28/15/6 22/18/6 18/17/6 25/16/6
f 20/19/7 25/22/7 26/21/7 19/20/7
f 19/20/7 26/21/7 27/24/7 23/23/7
f 24/25/7 28/26/7 25/22/7 20/19/7
f 23/23/7 27/24/7 28/26/7 24/25/7
f 30/27/7 31/30/7 32/29/7 29/28/7
f 20/6/8 29/7/8 32/8/8 24/5/8
f 19/20/9 30/32/9 29/31/9 20/19/9
f 24/19/10 32/31/10 31/32/10 23/20/10
f 33/1/1 42/4/1 41/3/1 34/2/1
f 39/5/11 47/8/11 46/7/11 35/6/11
f 43/4/3 37/1/3 38/10/3 44/9/3
f 37/11/4 33/14/4 34/13/4 38/12/4
f 42/15/5 33/18/5 37/17/5 43/16/5
f 44/15/6 38/18/6 34/17/6 41/16/6
f 36/19/7 41/22/7 42/21/7 35/20/7
f 35/20/7 42/21/7 43/24/7 39/23/7
f 40/25/7 44/26/7 41/22/7 36/19/7
f 39/23/7 43/24/7 44/26/7 40/25/7
f 46/27/7 47/30/7 48/29/7 45/28/7
f 36/6/12 45/7/12 48/8/12 40/5/12
f 35/20/9 46/32/9 45/31/9 36/19/9
f 40/19/10 48/31/10 47/32/10 39/20/10
f 49/1/1 58/4/1 57/3/1 50/2/1
f 55/5/11 63/8/11 62/7/11 51/6/11
f 59/4/3 53/1/3 54/10/3 60/9/3
f 53/11/4 49/14/4 50/13/4 54/12/4
f 58/15/5 49/18/5 53/17/5 59/16/5
f 60/15/6 54/18/6 50/17/6 57/16/6
f 52/19/7 57/22/7 58/21/7 51/20/7
f 51/20/7 58/21/7 59/24/7 55/23/7
f 56/25/7 60/26/7 57/22/7 52/19/7
f 55/23/7 59/24/7 60/26/7 56/25/7
f 62/27/7 63/30/7 64/29/7 61/28/7
f 52/6/12 61/7/12 64/8/12 56/5/12
f 51/20/9 62/32/9 61/31/9 52/19/9
f 56/19/10 64/31/10 63/32/10 55/20/10
f 65/1/1 74/4/1 73/3/1 66/2/1
f 71/5/11 79/8/11 78/7/11 67/6/11
f 75/4/3 69/1/3 70/10/3 76/9/3
f 69/11/4 65/14/4 66/13/4 70/12/4
f 74/15/5 65/18/5 69/17/5 75/16/5
f 76/15/6 70/18/6 66/17/6 73/16/6
f 68/19/7 73/22/7 74/21/7 67/20/7
f 67/20/7 74/21/7 75/24/7 71/23/7
f 72/25/7 76/26/7 73/22/7 68/19/7
f 71/23/7 75/24/7 76/26/7 72/25/7
f 78/27/7 79/30/7 80/29/7 77/28/7
f 68/6/12 77/7/12 80/8/12 72/5/12
f 67/20/9 78/32/9 77/31/9 68/19/9
f 72/19/10 80/31/10 79/32/10 71/20/10
f 81/1/1 90/4/1 89/3/1 82/2/1
f 87/5/11 95/8/11 94/7/11 83/6/11
f 91/4/3 85/1/3 86/10/3 92/9/3
f 85/11/4 81/14/4 82/13/4 86/12/4
f 90/15/5 81/18/5 85/17/5 91/16/5
f 92/15/6 86/18/6 82/17/6 89/16/6
f 84/19/7 89/22/7 90/21/7 83/20/7
f 83/20/7 90/21/7 91/24/7 87/23/7
f 88/25/7 92/26/7 89/22/7 84/19/7
f 87/23/7 91/24/7 92/26/7 88/25/7
f 94/27/7 95/30/7 96/29/7 93/28/7
f 84/6/12 93/7/12 96/8/12 88/5/12
f 83/20/9 94/32/9 93/31/9 84/19/9
f 88/19/10 96/31/10 95/32/10 87/20/10
f 97/1/1 106/4/1 105/3/1 98/2/1
f 103/5/11 111/8/11 110/7/11 99/6/11
f 107/4/3 101/1/3 102/10/3 108/9/3
f 101/11/4 97/14/4 98/13/4 102/12/4
f 106/15/5 97/18/5 101/17/5 107/16/5
f 108/15/6 102/18/6 98/17/6 105/16/6
f 100/19/7 105/22/7 106/21/7 99/20/7
f 99/20/7 106/21/7 107/24/7 103/23/7
f 104/25/7 108/26/7 105/22/7 100/19/7
f 103/23/7 107/24/7 108/26/7 104/25/7
f 110/27/7 111/30/7 112/29/7 109/28/7
f 100/6/12 109/7/12 112/8/12 104/5/12
f 99/20/9 110/32/9 109/31/9 100/19/9
f 104/19/10 112/31/10 111/32/10 103/20/10
f 113/1/1 122/4/1 121/3/1 114/2/1
f 119/5/2 127/8/2 126/7/2 115/6/2
f 123/4/3 117/1/3 118/10/3 124/9/3
f 117/11/4 113/14/4 114/13/4 118/12/4
f 122/15/5 113/18/5 117/17/5 123/16/5
f 124/15/6 118/18/6 114/17/6 121/16/6
f 116/19/7 121/22/7 122/21/7 115/20/7
f 115/20/7 122/21/7 123/24/7 119/23/7
f 120/25/7 124/26/7 121/22/7 116/19/7
f 119/23/7 123/24/7 124/26/7 120/25/7
f 126/27/7 127/30/7 128/29/7 125/28/7
f 116/6/8 125/7/8 128/8/8 120/5/8
f 115/20/9 126/32/9 125/31/9 116/19/9
f 120/19/10 128/31/10 127/32/10 119/20/10
f 129/1/1 138/4/1 137/3/1 130/2/1
f 135/5/11 143/8/11 142/7/11 131/6/11
f 139/4/3 133/1/3 134/10/3 140/9/3
f 133/11/4 129/14/4 130/13/4 134/12/4
f 138/15/5 129/18/5 133/17/5 139/16/5
f 140/15/6 134/18/6 130/17/6 137/16/6
f 132/19/7 137/22/7 138/21/7 131/20/7
f 131/20/7 138/21/7 139/24/7 135/23/7
f 136/25/7 140/26/7 137/22/7 132/19/7
f 135/23/7 139/24/7 140/26/7 136/25/7
f 142/27/7 143/30/7 144/29/7 141/28/7
f 132/6/12 141/7/12 144/8/12 136/5/12
f 131/20/9 142/32/9 141/31/9 132/19/9
f 136/19/13 144/31/13 143/32/13 135/20/13
f 145/1/1 146/2/1 153/3/1 154/4/1
f 151/5/14 147/6/14 158/7/14 159/8/14
f 155/4/3 156/9/3 150/10/3 149/1/3
f 149/11/7 150/12/7 146/13/7 145/14/7
f 154/15/5 155/16/5 149/17/5 145/18/5
f 156/15/6 153/16/6 146/17/6 150/18/6
f 148/19/4 147/20/4 154/21/4 153/22/4
f 147/20/4 151/23/4 155/24/4 154/21/4
f 152/25/4 148/19/4 153/22/4 156/26/4
f 151/23/4 152/25/4 156/26/4 155/24/4
f 158/27/4 157/28/4 160/29/4 159/30/4
f 148/6/15 152/5/15 160/8/15 157/7/15
f 147/20/16 148/19/16 157/31/16 158/32/16
f 152/19/17 151/20/17 159/32/17 160/31/17
f 161/1/1 162/2/1 169/3/1 170/4/1
f 167/5/18 163/6/18 174/7/18 175/8/18
f 171/4/3 172/9/3 166/10/3 165/1/3
f 165/11/7 166/12/7 162/13/7 161/14/7
f 170/15/5 171/16/5 165/17/5 161/18/5
f 172/15/6 169/16/6 162/17/6 166/18/6
f 164/19/4 163/20/4 170/21/4 169/22/4
f 163/20/4 167/23/4 171/24/4 170/21/4
f 168/25/4 164/19/4 169/22/4 172/26/4
f 167/23/4 168/25/4 172/26/4 171/24/4
f 174/27/4 173/28/4 176/29/4 175/30/4
f 164/6/15 168/5/15 176/8/15 173/7/15
f 163/20/16 164/19/16 173/31/16 174/32/16
f 168/19/17 167/20/17 175/32/17 176/31/17
f 177/1/1 178/2/1 185/3/1 186/4/1
f 183/5/18 179/6/18 190/7/18 191/8/18
f 187/4/3 188/9/3 182/10/3 181/1/3
f 181/11/7 182/12/7 178/13/7 177/14/7
f 186/15/5 187/16/5 181/17/5 177/18/5
f 188/15/6 185/16/6 178/17/6 182/18/6
f 180/19/4 179/20/4 186/21/4 185/22/4
f 179/20/4 183/23/4 187/24/4 186/21/4
f 184/25/4 180/19/4 185/22/4 188/26/4
f 183/23/4 184/25/4 188/26/4 187/24/4
f 190/27/4 189/28/4 192/29/4 191/30/4
f 180/6/15 184/5/15 192/8/15 189/7/15
f 179/20/16 180/19/16 189/31/16 190/32/16
f 184/19/17 183/20/17 191/32/17 192/31/17
f 193/1/1 194/2/1 201/3/1 202/4/1
f 199/5/18 195/6/18 206/7/18 207/8/18
f 203/4/3 204/9/3 198/10/3 197/1/3
f 197/11/7 198/12/7 194/13/7 193/14/7
f 202/15/5 203/16/5 197/17/5 193/18/5
f 204/15/6 201/16/6 194/17/6 198/18/6
f 196/19/4 195/20/4 202/21/4 201/22/4
f 195/20/4 199/23/4 203/24/4 202/21/4
f 200/25/4 196/19/4 201/22/4 204/26/4
f 199/23/4 200/25/4 204/26/4 203/24/4
f 206/27/4 205/28/4 208/29/4 207/30/4
f 196/6/15 200/5/15 208/8/15 205/7/15
f 195/20/16 196/19/16 205/31/16 206/32/16
f 200/19/17 199/20/17 207/32/17 208/31/17
f 209/1/1 210/2/1 217/3/1 218/4/1
f 215/5/14 211/6/14 222/7/14 223/8/14
f 219/4/3 220/9/3 214/10/3 213/1/3
f 213/11/7 214/12/7 210/13/7 209/14/7
f 218/15/5 219/16/5 213/17/5 209/18/5
f 220/15/6 217/16/6 210/17/6 214/18/6
f 212/19/4 211/20/4 218/21/4 217/22/4
f 211/20/4 215/23/4 219/24/4 218/21/4
f 216/25/4 212/19/4 217/22/4 220/26/4
f 215/23/4 216/25/4 220/26/4 219/24/4
f 222/27/4 221/28/4 224/29/4 223/30/4
f 212/6/15 216/5/15 224/8/15 221/7/15
f 211/20/16 212/19/16 221/31/16 222/32/16
f 216/19/17 215/20/17 223/32/17 224/31/17
f 225/1/1 226/2/1 233/3/1 234/4/1
f 231/5/14 227/6/14 238/7/14 239/8/14
f 235/4/3 236/9/3 230/10/3 229/1/3
f 229/11/7 230/12/7 226/13/7 225/14/7
f 234/15/5 235/16/5 229/17/5 225/18/5
f 236/15/6 233/16/6 226/17/6 230/18/6
f 228/19/4 227/20/4 234/21/4 233/22/4
f 227/20/4 231/23/4 235/24/4 234/21/4
f 232/25/4 228/19/4 233/22/4 236/26/4
f 231/23/4 232/25/4 236/26/4 235/24/4
f 238/27/4 237/28/4 240/29/4 239/30/4
f 228/6/15 232/5/15 240/8/15 237/7/15
f 227/20/16 228/19/16 237/31/16 238/32/16
f 232/19/17 231/20/17 239/32/17 240/31/17
f 241/1/1 242/2/1 249/3/1 250/4/1
f 247/5/14 243/6/14 254/7/14 255/8/14
f 251/4/3 252/9/3 246/10/3 245/1/3
f 245/11/7 246/12/7 242/13/7 241/14/7
f 250/15/5 251/16/5 245/17/5 241/18/5
f 252/15/6 249/16/6 242/17/6 246/18/6
f 244/19/4 243/20/4 250/21/4 249/22/4
f 243/20/4 247/23/4 251/24/4 250/21/4
f 248/25/4 244/19/4 249/22/4 252/26/4
f 247/23/4 248/25/4 252/26/4 251/24/4
f 254/27/4 253/28/4 256/29/4 255/30/4
f 244/6/15 248/5/15 256/8/15 253/7/15
f 243/20/16 244/19/16 253/31/16 254/32/16
f 248/19/17 247/20/17 255/32/17 256/31/17
f 257/1/1 258/2/1 265/3/1 266/4/1
f 263/5/18 259/6/18 270/7/18 271/8/18
f 267/4/3 268/9/3 262/10/3 261/1/3
f 261/11/7 262/12/7 258/13/7 257/14/7
f 266/15/5 267/16/5 261/17/5 257/18/5
f 268/15/6 265/16/6 258/17/6 262/18/6
f 260/19/4 259/20/4 266/21/4 265/22/4
f 259/20/4 263/23/4 267/24/4 266/21/4
f 264/25/4 260/19/4 265/22/4 268/26/4
f 263/23/4 264/25/4 268/26/4 267/24/4
f 270/27/4 269/28/4 272/29/4 271/30/4
f 260/6/15 264/5/15 272/8/15 269/7/15
f 259/20/16 260/19/16 269/31/16 270/32/16
f 264/19/17 263/20/17 271/32/17 272/31/17
f 273/1/1 274/2/1 281/3/1 282/4/1
f 279/5/18 275/6/18 286/7/18 287/8/18
f 283/4/3 284/9/3 278/10/3 277/1/3
f 277/11/7 278/12/7 274/13/7 273/14/7
f 282/15/5 283/16/5 277/17/5 273/18/5
f 284/15/6 281/16/6 274/17/6 278/18/6
f 276/19/4 275/20/4 282/21/4 281/22/4
f 275/20/4 279/23/4 283/24/4 282/21/4
f 280/25/4 276/19/4 281/22/4 284/26/4
f 279/23/4 280/25/4 284/26/4 283/24/4
f 286/27/4 285/28/4 288/29/4 287/30/4
f 276/6/15 280/5/15 288/8/15 285/7/15
f 275/20/19 276/19/19 285/31/19 286/32/19
f 280/19/17 279/20/17 287/32/17 288/31/17
