# Blender 4.3.2
# www.blender.org
mtllib serverWall_1x2_1.mtl
o Cube.019
v -1.851887 -2.498000 2.300003
v -1.851887 1.502000 2.300003
v -1.780053 -2.433794 0.800003
v -1.780053 1.435793 0.800003
v -0.351887 -2.498000 2.300003
v -0.351887 1.502000 2.300003
v -0.423720 -2.433794 0.800003
v -0.423720 1.435793 0.800003
v -1.851887 1.502000 0.800003
v -1.851887 -2.498000 0.800003
v -0.351887 -2.498000 0.800003
v -0.351887 1.502000 0.800003
v -1.747773 1.343698 0.884315
v -1.747773 -2.341698 0.884315
v -0.456001 -2.341698 0.884315
v -0.456001 1.343698 0.884315
v -0.336887 -2.498000 2.300003
v -0.336887 1.502000 2.300003
v -0.265053 -2.433794 0.800003
v -0.265053 1.435793 0.800003
v 1.163113 -2.498000 2.300003
v 1.163113 1.502000 2.300003
v 1.091280 -2.433794 0.800003
v 1.091280 1.435793 0.800003
v -0.336887 1.502000 0.800003
v -0.336887 -2.498000 0.800003
v 1.163113 -2.498000 0.800003
v 1.163113 1.502000 0.800003
v -0.232773 1.343698 0.884315
v -0.232773 -2.341698 0.884315
v 1.058999 -2.341698 0.884315
v 1.058999 1.343698 0.884315
v 1.178113 -2.498000 2.300003
v 1.178113 1.502000 2.300003
v 1.249947 -2.433794 0.800003
v 1.249947 1.435793 0.800003
v 2.678113 -2.498000 2.300003
v 2.678113 1.502000 2.300003
v 2.606280 -2.433794 0.800003
v 2.606280 1.435793 0.800003
v 1.178113 1.502000 0.800003
v 1.178113 -2.498000 0.800003
v 2.678113 -2.498000 0.800003
v 2.678113 1.502000 0.800003
v 1.282228 1.343698 0.884315
v 1.282228 -2.341698 0.884315
v 2.573999 -2.341698 0.884315
v 2.573999 1.343698 0.884315
v 2.693114 -2.498000 2.300003
v 2.693114 1.502000 2.300003
v 2.764947 -2.433794 0.800003
v 2.764947 1.435793 0.800003
v 4.193114 -2.498000 2.300003
v 4.193114 1.502000 2.300003
v 4.121280 -2.433794 0.800003
v 4.121280 1.435793 0.800003
v 2.693114 1.502000 0.800003
v 2.693114 -2.498000 0.800003
v 4.193114 -2.498000 0.800003
v 4.193114 1.502000 0.800003
v 2.797228 1.343698 0.884315
v 2.797228 -2.341698 0.884315
v 4.089000 -2.341698 0.884315
v 4.089000 1.343698 0.884315
v 4.208114 -2.498000 2.300003
v 4.208114 1.502000 2.300003
v 4.279947 -2.433794 0.800003
v 4.279947 1.435793 0.800003
v 5.708114 -2.498000 2.300003
v 5.708114 1.502000 2.300003
v 5.636281 -2.433794 0.800003
v 5.636281 1.435793 0.800003
v 4.208114 1.502000 0.800003
v 4.208114 -2.498000 0.800003
v 5.708114 -2.498000 0.800003
v 5.708114 1.502000 0.800003
v 4.312228 1.343698 0.884315
v 4.312228 -2.341698 0.884315
v 5.604000 -2.341698 0.884315
v 5.604000 1.343698 0.884315
v 5.723114 -2.498000 2.300003
v 5.723114 1.502000 2.300003
v 5.794947 -2.433794 0.800003
v 5.794947 1.435793 0.800003
v 7.223114 -2.498000 2.300003
v 7.223114 1.502000 2.300003
v 7.151280 -2.433794 0.800003
v 7.151280 1.435793 0.800003
v 5.723114 1.502000 0.800003
v 5.723114 -2.498000 0.800003
v 7.223114 -2.498000 0.800003
v 7.223114 1.502000 0.800003
v 5.827228 1.343698 0.884315
v 5.827228 -2.341698 0.884315
v 7.118999 -2.341698 0.884315
v 7.118999 1.343698 0.884315
vn -1.0000 -0.0000 -0.0000
vn -0.0000 0.6752 -0.7376
vn 1.0000 -0.0000 -0.0000
vn -0.0000 -0.0000 1.0000
vn -0.0000 -1.0000 -0.0000
vn -0.0000 1.0000 -0.0000
vn -0.0000 -0.0000 -1.0000
vn -0.0000 -0.6752 -0.7376
vn 0.9339 -0.0000 -0.3576
vn -0.9339 -0.0000 -0.3576
vn -0.0000 0.6753 -0.7376
vn -0.0000 -0.6753 -0.7376
vt 0.850737 0.653804
vt 0.997894 0.653804
vt 0.997894 0.709307
vt 0.850737 0.709307
vt 0.856605 0.719576
vt 0.856605 0.640234
vt 0.861537 0.642122
vt 0.861537 0.717687
vt 0.998745 0.709307
vt 0.998745 0.653804
vt 0.850737 0.653963
vt 0.997895 0.653963
vt 0.997895 0.709147
vt 0.850737 0.709147
vt 0.890430 0.714163
vt 0.890430 0.644092
vt 0.960502 0.644092
vt 0.960502 0.714163
vt 0.995505 0.643478
vt 0.853127 0.643478
vt 0.850737 0.639631
vt 0.997894 0.639631
vt 0.853127 0.716112
vt 0.850737 0.719959
vt 0.995505 0.716112
vt 0.997894 0.719959
vt 0.951453 0.722394
vt 0.951453 0.999406
vt 0.851204 0.999406
vt 0.851204 0.722394
vt 0.992648 0.648708
vt 0.855984 0.648708
s 0
usemtl Material
f 1/1/1 2/2/1 9/3/1 10/4/1
f 7/5/2 3/6/2 14/7/2 15/8/2
f 11/4/3 12/9/3 6/10/3 5/1/3
f 5/11/4 6/12/4 2/13/4 1/14/4
f 10/15/5 11/16/5 5/17/5 1/18/5
f 12/15/6 9/16/6 2/17/6 6/18/6
f 4/19/7 3/20/7 10/21/7 9/22/7
f 3/20/7 7/23/7 11/24/7 10/21/7
f 8/25/7 4/19/7 9/22/7 12/26/7
f 7/23/7 8/25/7 12/26/7 11/24/7
f 14/27/7 13/28/7 16/29/7 15/30/7
f 4/6/8 8/5/8 16/8/8 13/7/8
f 3/20/9 4/19/9 13/31/9 14/32/9
f 8/19/10 7/20/10 15/32/10 16/31/10
f 17/1/1 18/2/1 25/3/1 26/4/1
f 23/5/2 19/6/2 30/7/2 31/8/2
f 27/4/3 28/9/3 22/10/3 21/1/3
f 21/11/4 22/12/4 18/13/4 17/14/4
f 26/15/5 27/16/5 21/17/5 17/18/5
f 28/15/6 25/16/6 18/17/6 22/18/6
f 20/19/7 19/20/7 26/21/7 25/22/7
f 19/20/7 23/23/7 27/24/7 26/21/7
f 24/25/7 20/19/7 25/22/7 28/26/7
f 23/23/7 24/25/7 28/26/7 27/24/7
f 30/27/7 29/28/7 32/29/7 31/30/7
f 20/6/8 24/5/8 32/8/8 29/7/8
f 19/20/9 20/19/9 29/31/9 30/32/9
f 24/19/10 23/20/10 31/32/10 32/31/10
f 33/1/1 34/2/1 41/3/1 42/4/1
f 39/5/11 35/6/11 46/7/11 47/8/11
f 43/4/3 44/9/3 38/10/3 37/1/3
f 37/11/4 38/12/4 34/13/4 33/14/4
f 42/15/5 43/16/5 37/17/5 33/18/5
f 44/15/6 41/16/6 34/17/6 38/18/6
f 36/19/7 35/20/7 42/21/7 41/22/7
f 35/20/7 39/23/7 43/24/7 42/21/7
f 40/25/7 36/19/7 41/22/7 44/26/7
f 39/23/7 40/25/7 44/26/7 43/24/7
f 46/27/7 45/28/7 48/29/7 47/30/7
f 36/6/12 40/5/12 48/8/12 45/7/12
f 35/20/9 36/19/9 45/31/9 46/32/9
f 40/19/10 39/20/10 47/32/10 48/31/10
f 49/1/1 50/2/1 57/3/1 58/4/1
f 55/5/11 51/6/11 62/7/11 63/8/11
f 59/4/3 60/9/3 54/10/3 53/1/3
f 53/11/4 54/12/4 50/13/4 49/14/4
f 58/15/5 59/16/5 53/17/5 49/18/5
f 60/15/6 57/16/6 50/17/6 54/18/6
f 52/19/7 51/20/7 58/21/7 57/22/7
f 51/20/7 55/23/7 59/24/7 58/21/7
f 56/25/7 52/19/7 57/22/7 60/26/7
f 55/23/7 56/25/7 60/26/7 59/24/7
f 62/27/7 61/28/7 64/29/7 63/30/7
f 52/6/12 56/5/12 64/8/12 61/7/12
f 51/20/9 52/19/9 61/31/9 62/32/9
f 56/19/10 55/20/10 63/32/10 64/31/10
f 65/1/1 66/2/1 73/3/1 74/4/1
f 71/5/11 67/6/11 78/7/11 79/8/11
f 75/4/3 76/9/3 70/10/3 69/1/3
f 69/11/4 70/12/4 66/13/4 65/14/4
f 74/15/5 75/16/5 69/17/5 65/18/5
f 76/15/6 73/16/6 66/17/6 70/18/6
f 68/19/7 67/20/7 74/21/7 73/22/7
f 67/20/7 71/23/7 75/24/7 74/21/7
f 72/25/7 68/19/7 73/22/7 76/26/7
f 71/23/7 72/25/7 76/26/7 75/24/7
f 78/27/7 77/28/7 80/29/7 79/30/7
f 68/6/12 72/5/12 80/8/12 77/7/12
f 67/20/9 68/19/9 77/31/9 78/32/9
f 72/19/10 71/20/10 79/32/10 80/31/10
f 81/1/1 82/2/1 89/3/1 90/4/1
f 87/5/11 83/6/11 94/7/11 95/8/11
f 91/4/3 92/9/3 86/10/3 85/1/3
f 85/11/4 86/12/4 82/13/4 81/14/4
f 90/15/5 91/16/5 85/17/5 81/18/5
f 92/15/6 89/16/6 82/17/6 86/18/6
f 84/19/7 83/20/7 90/21/7 89/22/7
f 83/20/7 87/23/7 91/24/7 90/21/7
f 88/25/7 84/19/7 89/22/7 92/26/7
f 87/23/7 88/25/7 92/26/7 91/24/7
f 94/27/7 93/28/7 96/29/7 95/30/7
f 84/6/12 88/5/12 96/8/12 93/7/12
f 83/20/9 84/19/9 93/31/9 94/32/9
f 88/19/10 87/20/10 95/32/10 96/31/10
