# Blender 4.3.2
# www.blender.org
mtllib serverCorner_2x2_1.mtl
o Cube.022
v -1.007678 1.343698 1.684402
v -1.007678 -2.341698 1.684402
v -1.007678 -2.341698 0.392631
v -1.007678 1.343698 0.392631
v -0.923365 1.501999 1.788517
v -0.923365 -2.498000 1.788517
v -0.923365 -2.498000 0.288517
v -0.923365 1.501999 0.288517
v -0.923365 1.435793 1.716683
v -0.923365 -2.433793 1.716683
v -2.423365 1.501999 1.788517
v -2.423365 -2.498000 1.788517
v -0.923365 1.435793 0.360350
v -0.923365 -2.433793 0.360350
v -2.423365 1.501999 0.288517
v -2.423365 -2.498000 0.288517
v -1.007678 1.343698 0.169402
v -1.007678 -2.341698 0.169402
v -1.007678 -2.341698 -1.122369
v -1.007678 1.343698 -1.122369
v -0.923365 1.501999 0.273517
v -0.923365 -2.498000 0.273517
v -0.923365 -2.498000 -1.226483
v -0.923365 1.501999 -1.226483
v -0.923365 1.435793 0.201683
v -0.923365 -2.433793 0.201683
v -2.423365 1.501999 0.273517
v -2.423365 -2.498000 0.273517
v -0.923365 1.435793 -1.154650
v -0.923365 -2.433793 -1.154650
v -2.423365 1.501999 -1.226483
v -2.423365 -2.498000 -1.226483
v -0.891886 -2.498000 7.850003
v -0.891886 1.502000 7.850003
v -0.820053 -2.433794 6.350003
v -0.820053 1.435793 6.350003
v 0.608114 -2.498000 7.850003
v 0.608114 1.502000 7.850003
v 0.536280 -2.433794 6.350003
v 0.536280 1.435793 6.350003
v -0.891886 1.502000 6.350003
v -0.891886 -2.498000 6.350003
v 0.608114 -2.498000 6.350003
v 0.608114 1.502000 6.350003
v -0.787772 1.343698 6.434315
v -0.787772 -2.341698 6.434315
v 0.503999 -2.341698 6.434315
v 0.503999 1.343698 6.434315
v 0.623114 -2.498000 7.850003
v 0.623114 1.502000 7.850003
v 0.694947 -2.433794 6.350003
v 0.694947 1.435793 6.350003
v 2.123114 -2.498000 7.850003
v 2.123114 1.502000 7.850003
v 2.051280 -2.433794 6.350003
v 2.051280 1.435793 6.350003
v 0.623114 1.502000 6.350003
v 0.623114 -2.498000 6.350003
v 2.123114 -2.498000 6.350003
v 2.123114 1.502000 6.350003
v 0.727228 1.343698 6.434315
v 0.727228 -2.341698 6.434315
v 2.018999 -2.341698 6.434315
v 2.018999 1.343698 6.434315
v 2.138113 -2.498000 7.850003
v 2.138113 1.502000 7.850003
v 2.209947 -2.433794 6.350003
v 2.209947 1.435793 6.350003
v 3.638113 -2.498000 7.850003
v 3.638113 1.502000 7.850003
v 3.566280 -2.433794 6.350003
v 3.566280 1.435793 6.350003
v 2.138113 1.502000 6.350003
v 2.138113 -2.498000 6.350003
v 3.638113 -2.498000 6.350003
v 3.638113 1.502000 6.350003
v 2.242228 1.343698 6.434315
v 2.242228 -2.341698 6.434315
v 3.533999 -2.341698 6.434315
v 3.533999 1.343698 6.434315
v 3.653113 -2.498000 7.850003
v 3.653113 1.502000 7.850003
v 3.724947 -2.433794 6.350003
v 3.724947 1.435793 6.350003
v 5.153113 -2.498000 7.850003
v 5.153113 1.502000 7.850003
v 5.081280 -2.433794 6.350003
v 5.081280 1.435793 6.350003
v 3.653113 1.502000 6.350003
v 3.653113 -2.498000 6.350003
v 5.153113 -2.498000 6.350003
v 5.153113 1.502000 6.350003
v 3.757227 1.343698 6.434315
v 3.757227 -2.341698 6.434315
v 5.049000 -2.341698 6.434315
v 5.049000 1.343698 6.434315
v 5.168113 -2.498000 7.850003
v 5.168113 1.502000 7.850003
v 5.239946 -2.433794 6.350003
v 5.239946 1.435793 6.350003
v 6.668113 -2.498000 7.850003
v 6.668113 1.502000 7.850003
v 6.596280 -2.433794 6.350003
v 6.596280 1.435793 6.350003
v 5.168113 1.502000 6.350003
v 5.168113 -2.498000 6.350003
v 6.668113 -2.498000 6.350003
v 6.668113 1.502000 6.350003
v 5.272226 1.343698 6.434315
v 5.272226 -2.341698 6.434315
v 6.563999 -2.341698 6.434315
v 6.563999 1.343698 6.434315
v -2.423365 -2.498000 1.803516
v -2.423365 1.501999 1.803516
v -0.923365 -2.433793 1.875350
v -0.923365 1.435793 1.875350
v -2.423365 -2.498000 3.303516
v -2.423365 1.501999 3.303516
v -0.923365 -2.433793 3.231683
v -0.923365 1.435793 3.231683
v -0.923365 1.501999 1.803516
v -0.923365 -2.498000 1.803516
v -0.923365 -2.498000 3.303516
v -0.923365 1.501999 3.303516
v -1.007678 1.343698 1.907630
v -1.007678 -2.341698 1.907630
v -1.007678 -2.341698 3.199403
v -1.007678 1.343698 3.199403
v -2.423365 -2.498000 3.318516
v -2.423365 1.501999 3.318516
v -0.923365 -2.433793 3.390349
v -0.923365 1.435793 3.390349
v -2.423365 -2.498000 4.818516
v -2.423365 1.501999 4.818516
v -0.923366 -2.433793 4.746682
v -0.923366 1.435793 4.746682
v -0.923365 1.501999 3.318516
v -0.923365 -2.498000 3.318516
v -0.923366 -2.498000 4.818516
v -0.923366 1.501999 4.818516
v -1.007678 1.343698 3.422630
v -1.007678 -2.341698 3.422630
v -1.007678 -2.341698 4.714402
v -1.007678 1.343698 4.714402
v -2.423365 -2.498000 4.833515
v -2.423365 1.501999 4.833515
v -0.923366 -2.433793 4.905349
v -0.923366 1.435793 4.905349
v -2.423365 -2.498000 6.333516
v -2.423365 1.501999 6.333516
v -0.923366 -2.433793 6.261683
v -0.923366 1.435793 6.261683
v -0.923366 1.501999 4.833515
v -0.923366 -2.498000 4.833515
v -0.923366 -2.498000 6.333516
v -0.923366 1.501999 6.333516
v -1.007678 1.343698 4.937629
v -1.007678 -2.341698 4.937629
v -1.007678 -2.341698 6.229402
v -1.007678 1.343698 6.229402
vn 0.3576 -0.0000 -0.9339
vn 0.3576 -0.0000 0.9339
vn 0.7376 -0.6753 -0.0000
vn 1.0000 -0.0000 -0.0000
vn -0.0000 1.0000 -0.0000
vn -0.0000 -1.0000 -0.0000
vn -1.0000 -0.0000 -0.0000
vn -0.0000 -0.0000 1.0000
vn 0.7376 0.6753 -0.0000
vn -0.0000 -0.0000 -1.0000
vn -0.0000 0.6753 -0.7376
vn -0.0000 -0.6753 -0.7376
vn 0.9339 -0.0000 -0.3576
vn -0.9339 -0.0000 -0.3576
vn -0.0000 0.6752 -0.7376
vn -0.0000 -0.6752 -0.7376
vt 0.995505 0.643478
vt 0.853127 0.643478
vt 0.855984 0.648708
vt 0.992648 0.648708
vt 0.856605 0.640234
vt 0.856605 0.719576
vt 0.861537 0.717687
vt 0.861537 0.642122
vt 0.951453 0.722394
vt 0.951453 0.999406
vt 0.851204 0.999406
vt 0.851204 0.722394
vt 0.853127 0.716112
vt 0.995505 0.716112
vt 0.997894 0.719959
vt 0.850737 0.719959
vt 0.997894 0.639631
vt 0.850737 0.639631
vt 0.890430 0.714163
vt 0.890430 0.644092
vt 0.960502 0.644092
vt 0.960502 0.714163
vt 0.850737 0.653963
vt 0.997895 0.653963
vt 0.997895 0.709147
vt 0.850737 0.709147
vt 0.850737 0.709307
vt 0.998745 0.709307
vt 0.998745 0.653804
vt 0.850737 0.653804
vt 0.997894 0.653804
vt 0.997894 0.709307
s 0
usemtl Material
f 9/1/1 10/2/1 2/3/1 1/4/1
f 14/2/2 13/1/2 4/4/2 3/3/2
f 13/5/3 9/6/3 1/7/3 4/8/3
f 3/9/4 4/10/4 1/11/4 2/12/4
f 10/13/4 9/14/4 5/15/4 6/16/4
f 9/14/4 13/1/4 8/17/4 5/15/4
f 14/2/4 10/13/4 6/16/4 7/18/4
f 13/1/4 14/2/4 7/18/4 8/17/4
f 5/19/5 8/20/5 15/21/5 11/22/5
f 7/19/6 6/20/6 12/21/6 16/22/6
f 12/23/7 11/24/7 15/25/7 16/26/7
f 6/27/8 5/28/8 11/29/8 12/30/8
f 10/6/9 14/5/9 3/8/9 2/7/9
f 16/30/10 15/31/10 8/32/10 7/27/10
f 25/1/1 26/2/1 18/3/1 17/4/1
f 30/2/2 29/1/2 20/4/2 19/3/2
f 29/5/3 25/6/3 17/7/3 20/8/3
f 19/9/4 20/10/4 17/11/4 18/12/4
f 26/13/4 25/14/4 21/15/4 22/16/4
f 25/14/4 29/1/4 24/17/4 21/15/4
f 30/2/4 26/13/4 22/16/4 23/18/4
f 29/1/4 30/2/4 23/18/4 24/17/4
f 21/19/5 24/20/5 31/21/5 27/22/5
f 23/19/6 22/20/6 28/21/6 32/22/6
f 28/23/7 27/24/7 31/25/7 32/26/7
f 22/27/8 21/28/8 27/29/8 28/30/8
f 26/6/9 30/5/9 19/8/9 18/7/9
f 32/30/10 31/31/10 24/32/10 23/27/10
f 33/30/7 34/31/7 41/32/7 42/27/7
f 39/6/11 35/5/11 46/8/11 47/7/11
f 43/27/4 44/28/4 38/29/4 37/30/4
f 37/23/8 38/24/8 34/25/8 33/26/8
f 42/19/6 43/20/6 37/21/6 33/22/6
f 44/19/5 41/20/5 34/21/5 38/22/5
f 36/1/10 35/2/10 42/18/10 41/17/10
f 35/2/10 39/13/10 43/16/10 42/18/10
f 40/14/10 36/1/10 41/17/10 44/15/10
f 39/13/10 40/14/10 44/15/10 43/16/10
f 46/9/10 45/10/10 48/11/10 47/12/10
f 36/5/12 40/6/12 48/7/12 45/8/12
f 35/2/13 36/1/13 45/4/13 46/3/13
f 40/1/14 39/2/14 47/3/14 48/4/14
f 49/30/7 50/31/7 57/32/7 58/27/7
f 55/6/15 51/5/15 62/8/15 63/7/15
f 59/27/4 60/28/4 54/29/4 53/30/4
f 53/23/8 54/24/8 50/25/8 49/26/8
f 58/19/6 59/20/6 53/21/6 49/22/6
f 60/19/5 57/20/5 50/21/5 54/22/5
f 52/1/10 51/2/10 58/18/10 57/17/10
f 51/2/10 55/13/10 59/16/10 58/18/10
f 56/14/10 52/1/10 57/17/10 60/15/10
f 55/13/10 56/14/10 60/15/10 59/16/10
f 62/9/10 61/10/10 64/11/10 63/12/10
f 52/5/16 56/6/16 64/7/16 61/8/16
f 51/2/13 52/1/13 61/4/13 62/3/13
f 56/1/14 55/2/14 63/3/14 64/4/14
f 65/30/7 66/31/7 73/32/7 74/27/7
f 71/6/15 67/5/15 78/8/15 79/7/15
f 75/27/4 76/28/4 70/29/4 69/30/4
f 69/23/8 70/24/8 66/25/8 65/26/8
f 74/19/6 75/20/6 69/21/6 65/22/6
f 76/19/5 73/20/5 66/21/5 70/22/5
f 68/1/10 67/2/10 74/18/10 73/17/10
f 67/2/10 71/13/10 75/16/10 74/18/10
f 72/14/10 68/1/10 73/17/10 76/15/10
f 71/13/10 72/14/10 76/15/10 75/16/10
f 78/9/10 77/10/10 80/11/10 79/12/10
f 68/5/16 72/6/16 80/7/16 77/8/16
f 67/2/13 68/1/13 77/4/13 78/3/13
f 72/1/14 71/2/14 79/3/14 80/4/14
f 81/30/7 82/31/7 89/32/7 90/27/7
f 87/6/15 83/5/15 94/8/15 95/7/15
f 91/27/4 92/28/4 86/29/4 85/30/4
f 85/23/8 86/24/8 82/25/8 81/26/8
f 90/19/6 91/20/6 85/21/6 81/22/6
f 92/19/5 89/20/5 82/21/5 86/22/5
f 84/1/10 83/2/10 90/18/10 89/17/10
f 83/2/10 87/13/10 91/16/10 90/18/10
f 88/14/10 84/1/10 89/17/10 92/15/10
f 87/13/10 88/14/10 92/15/10 91/16/10
f 94/9/10 93/10/10 96/11/10 95/12/10
f 84/5/16 88/6/16 96/7/16 93/8/16
f 83/2/13 84/1/13 93/4/13 94/3/13
f 88/1/14 87/2/14 95/3/14 96/4/14
f 97/30/7 98/31/7 105/32/7 106/27/7
f 103/6/11 99/5/11 110/8/11 111/7/11
f 107/27/4 108/28/4 102/29/4 101/30/4
f 101/23/8 102/24/8 98/25/8 97/26/8
f 106/19/6 107/20/6 101/21/6 97/22/6
f 108/19/5 105/20/5 98/21/5 102/22/5
f 100/1/10 99/2/10 106/18/10 105/17/10
f 99/2/10 103/13/10 107/16/10 106/18/10
f 104/14/10 100/1/10 105/17/10 108/15/10
f 103/13/10 104/14/10 108/15/10 107/16/10
f 110/9/10 109/10/10 112/11/10 111/12/10
f 100/5/12 104/6/12 112/7/12 109/8/12
f 99/2/13 100/1/13 109/4/13 110/3/13
f 104/1/14 103/2/14 111/3/14 112/4/14
f 113/30/10 114/31/10 121/32/10 122/27/10
f 119/6/9 115/5/9 126/8/9 127/7/9
f 123/27/8 124/28/8 118/29/8 117/30/8
f 117/23/7 118/24/7 114/25/7 113/26/7
f 122/19/6 123/20/6 117/21/6 113/22/6
f 124/19/5 121/20/5 114/21/5 118/22/5
f 116/1/4 115/2/4 122/18/4 121/17/4
f 115/2/4 119/13/4 123/16/4 122/18/4
f 120/14/4 116/1/4 121/17/4 124/15/4
f 119/13/4 120/14/4 124/15/4 123/16/4
f 126/9/4 125/10/4 128/11/4 127/12/4
f 116/5/3 120/6/3 128/7/3 125/8/3
f 115/2/2 116/1/2 125/4/2 126/3/2
f 120/1/1 119/2/1 127/3/1 128/4/1
f 129/30/10 130/31/10 137/32/10 138/27/10
f 135/6/9 131/5/9 142/8/9 143/7/9
f 139/27/8 140/28/8 134/29/8 133/30/8
f 133/23/7 134/24/7 130/25/7 129/26/7
f 138/19/6 139/20/6 133/21/6 129/22/6
f 140/19/5 137/20/5 130/21/5 134/22/5
f 132/1/4 131/2/4 138/18/4 137/17/4
f 131/2/4 135/13/4 139/16/4 138/18/4
f 136/14/4 132/1/4 137/17/4 140/15/4
f 135/13/4 136/14/4 140/15/4 139/16/4
f 142/9/4 141/10/4 144/11/4 143/12/4
f 132/5/3 136/6/3 144/7/3 141/8/3
f 131/2/2 132/1/2 141/4/2 142/3/2
f 136/1/1 135/2/1 143/3/1 144/4/1
f 145/30/10 146/31/10 153/32/10 154/27/10
f 151/6/9 147/5/9 158/8/9 159/7/9
f 155/27/8 156/28/8 150/29/8 149/30/8
f 149/23/7 150/24/7 146/25/7 145/26/7
f 154/19/6 155/20/6 149/21/6 145/22/6
f 156/19/5 153/20/5 146/21/5 150/22/5
f 148/1/4 147/2/4 154/18/4 153/17/4
f 147/2/4 151/13/4 155/16/4 154/18/4
f 152/14/4 148/1/4 153/17/4 156/15/4
f 151/13/4 152/14/4 156/15/4 155/16/4
f 158/9/4 157/10/4 160/11/4 159/12/4
f 148/5/3 152/6/3 160/7/3 157/8/3
f 147/2/2 148/1/2 157/4/2 158/3/2
f 152/1/1 151/2/1 159/3/1 160/4/1
