# Blender 5.2.1 LTS
# www.blender.org
mtllib flashlight.mtl
o Flashlight
v 0.174151 -0.019134 -0.046194
v -0.241051 -0.019134 -0.046194
v 0.174151 0.019134 -0.046194
v -0.241051 0.019134 -0.046194
v 0.174151 0.019134 0.046194
v -0.241051 0.019134 0.046194
v 0.174151 -0.019134 0.046194
v -0.241051 -0.019134 0.046194
v 0.174151 -0.046194 0.019134
v -0.241051 -0.046194 0.019134
v 0.174151 -0.046194 -0.019134
v -0.241051 -0.046194 -0.019134
v 0.189241 -0.020449 -0.049367
v 0.189241 0.020449 -0.049367
v 0.189241 0.049367 -0.020449
v 0.189241 0.049367 0.020449
v 0.189241 0.020449 0.049367
v 0.189241 -0.020449 0.049367
v 0.189241 -0.049367 0.020449
v 0.189241 -0.049367 -0.020449
v 0.264241 -0.020449 -0.049367
v 0.264241 0.020449 -0.049367
v 0.264241 0.049367 -0.020449
v 0.264241 0.049367 0.020449
v 0.264241 0.020449 0.049367
v 0.264241 -0.020449 0.049367
v 0.264241 -0.049367 0.020449
v 0.264241 -0.049367 -0.020449
v -0.289837 0.027253 -0.065796
v -0.289837 -0.027253 -0.065796
v -0.289837 0.065796 -0.027254
v -0.289837 0.065796 0.027253
v -0.289837 0.027254 0.065796
v -0.289837 -0.027253 0.065796
v -0.289837 -0.065796 0.027253
v -0.289837 -0.065796 -0.027254
v -0.393296 0.021170 -0.051109
v -0.393296 -0.021170 -0.051109
v -0.393296 0.051109 -0.021170
v -0.393296 0.051109 0.021170
v -0.393296 0.021170 0.051109
v -0.393296 -0.021170 0.051109
v -0.393296 -0.051109 0.021170
v -0.393296 -0.051109 -0.021170
v -0.393296 0.027253 -0.065796
v -0.393296 -0.027253 -0.065796
v -0.393296 0.065796 -0.027254
v -0.393296 0.065796 0.027253
v -0.393296 0.027254 0.065796
v -0.393296 -0.027253 0.065796
v -0.393296 -0.065796 0.027253
v -0.393296 -0.065796 -0.027254
v -0.345205 0.007895 -0.019060
v -0.345205 -0.007895 -0.019060
v -0.345205 0.019060 -0.007895
v -0.345205 0.019060 0.007895
v -0.345205 0.007895 0.019060
v -0.345205 -0.007895 0.019060
v -0.345205 -0.019060 0.007895
v -0.345205 -0.019060 -0.007895
v -0.241051 0.046194 -0.019134
v 0.174151 0.046194 -0.019134
v 0.174151 0.046194 0.019134
v -0.241051 0.046194 0.019134
v -0.143557 0.066063 -0.014484
v -0.075080 0.066063 -0.014484
v -0.075080 0.066063 0.014484
v -0.143557 0.066063 0.014484
v -0.070989 -0.019134 -0.046194
v -0.070989 0.019134 -0.046194
v -0.070989 0.046194 -0.019134
v -0.070989 0.046194 0.019134
v -0.070989 0.019134 0.046194
v -0.070989 -0.019134 0.046194
v -0.070989 -0.046194 0.019134
v -0.070989 -0.046194 -0.019134
v -0.147288 -0.019134 -0.046194
v -0.147288 0.019134 -0.046194
v -0.147288 0.046194 -0.019134
v -0.147288 0.046194 0.019134
v -0.147288 0.019134 0.046194
v -0.147288 -0.019134 0.046194
v -0.147288 -0.046194 0.019134
v -0.147288 -0.046194 -0.019134
vn -0.0000 -0.3827 -0.9239
vn 0.2143 -0.3738 -0.9024
vn 0.2143 0.3738 -0.9024
vn -0.0000 0.3827 -0.9239
vn 0.2143 0.9024 -0.3738
vn -0.0000 0.8629 -0.5054
vn -0.0000 0.8629 0.5054
vn 0.2143 0.9024 0.3738
vn 0.2143 0.3738 0.9024
vn -0.0000 0.3827 0.9239
vn 0.2143 -0.3738 0.9024
vn -0.0000 -0.3827 0.9239
vn 0.2143 -0.9024 0.3738
vn -0.0000 -0.9239 0.3827
vn 0.1944 0.9062 0.3754
vn 0.1944 0.3754 0.9062
vn 0.2143 -0.9024 -0.3738
vn -0.0000 -0.9239 -0.3827
vn -0.1148 0.3802 -0.9178
vn -0.1148 0.9178 -0.3802
vn -0.1088 0.9184 -0.3804
vn -0.1088 0.3804 -0.9184
vn -0.1088 0.9184 0.3804
vn 0.6303 0.7173 0.2971
vn 0.6303 0.7173 -0.2971
vn -0.1148 0.3802 0.9178
vn -0.1148 -0.3802 0.9178
vn -0.1088 -0.3804 0.9184
vn -0.1088 0.3804 0.9184
vn -0.1148 -0.9178 -0.3802
vn -0.1148 -0.3802 -0.9178
vn -0.1088 -0.3804 -0.9184
vn -0.1088 -0.9184 -0.3804
vn -0.1148 0.9178 0.3802
vn -0.1148 -0.9178 0.3802
vn -0.1088 -0.9184 0.3804
vn 0.6303 -0.2971 -0.7173
vn 0.6303 0.2971 -0.7173
vn 0.6303 0.2971 0.7173
vn 0.6303 -0.2971 0.7173
vn 0.6303 -0.7173 0.2971
vn 0.6303 -0.7173 -0.2971
vn -0.0000 0.9239 0.3827
vn 0.1944 -0.9062 0.3754
vn 0.1944 -0.9062 -0.3754
vn 0.1944 0.3754 -0.9062
vn 0.1944 0.9062 -0.3754
vn 0.1944 -0.3754 0.9062
vn 0.1944 -0.3754 -0.9062
vn -0.5850 0.3104 0.7493
vn -0.5850 0.7493 0.3104
vn -0.8441 0.4954 0.2052
vn -0.8441 0.2052 0.4954
vn -0.0000 0.9239 -0.3827
vn -1.0000 -0.0000 -0.0000
vn -0.8441 -0.2052 0.4954
vn -0.8441 0.4954 -0.2052
vn -0.8441 0.2052 -0.4954
vn -0.8441 -0.2052 -0.4954
vn -0.8441 -0.4954 -0.2052
vn -0.8441 -0.4954 0.2052
vn -0.5850 0.7493 -0.3104
vn -0.5850 0.3104 -0.7493
vn -0.5850 -0.3104 -0.7493
vn -0.5850 -0.7493 -0.3104
vn -0.5850 -0.7493 0.3104
vn -0.5850 -0.3104 0.7493
vn -0.6694 0.2862 0.6855
vn 0.6703 0.2972 0.6800
vn 0.5184 0.6883 0.5074
vn -0.5248 0.6839 0.5068
vn 0.6703 0.2972 -0.6800
vn 0.5184 0.6883 -0.5074
vn -0.6694 0.2862 -0.6855
vn -0.5248 0.6839 -0.5068
vt 0.496362 0.639077
vt 0.496362 0.763818
vt 0.436035 0.763818
vt 0.436035 0.639077
vt 0.371429 0.763818
vt 0.371429 0.639077
vt 0.305041 0.639077
vt 0.305041 0.763818
vt 0.241165 0.763818
vt 0.241165 0.639077
vt 0.181638 0.763818
vt 0.181638 0.639077
vt 0.125324 0.763818
vt 0.125324 0.639077
vt 0.306156 0.835387
vt 0.243290 0.835387
vt 0.069980 0.763818
vt 0.069980 0.639077
vt 0.013217 0.763818
vt 0.013217 0.639077
vt 0.436035 0.154713
vt 0.371429 0.154713
vt 0.371256 0.132576
vt 0.435590 0.132576
vt 0.305287 0.132576
vt 0.305287 0.022549
vt 0.371256 0.022549
vt 0.241165 0.154713
vt 0.181638 0.154713
vt 0.182017 0.132576
vt 0.241626 0.132576
vt 0.069980 0.154713
vt 0.013217 0.154713
vt 0.012805 0.132576
vt 0.069803 0.132576
vt 0.496362 0.154713
vt 0.495950 0.132576
vt 0.305041 0.154713
vt 0.125324 0.154713
vt 0.125446 0.132576
vt 0.508231 0.587516
vt 0.508231 0.724579
vt 0.605148 0.821497
vt 0.742211 0.821497
vt 0.839129 0.724579
vt 0.839129 0.587516
vt 0.742211 0.490599
vt 0.605148 0.490599
vt 0.435590 0.022549
vt 0.495950 0.022549
vt 0.012805 0.022549
vt 0.069803 0.022549
vt 0.125446 0.022549
vt 0.182017 0.022549
vt 0.241626 0.022549
vt 0.306156 0.987162
vt 0.243290 0.987162
vt 0.125903 0.835387
vt 0.069141 0.835387
vt 0.433990 0.835387
vt 0.370645 0.835387
vt 0.183412 0.835387
vt 0.011292 0.835387
vt 0.494437 0.835387
vt 0.558182 0.167928
vt 0.669581 0.056529
vt 0.734119 0.212336
vt 0.713989 0.232465
vt 0.433990 0.987162
vt 0.370645 0.987162
vt 0.125903 0.987162
vt 0.069141 0.987162
vt 0.183412 0.987162
vt 0.494437 0.987162
vt 0.011292 0.987162
vt 0.558182 0.325471
vt 0.503534 0.348106
vt 0.503534 0.145292
vt 0.669582 0.436870
vt 0.646946 0.491518
vt 0.827124 0.436870
vt 0.849760 0.491518
vt 0.938524 0.325471
vt 0.993171 0.348107
vt 0.938524 0.167928
vt 0.993171 0.145292
vt 0.827124 0.056529
vt 0.849760 0.001881
vt 0.646946 0.001881
vt 0.891192 0.493829
vt 0.891192 0.450778
vt 0.921634 0.420336
vt 0.964685 0.420336
vt 0.995127 0.450778
vt 0.995127 0.493829
vt 0.964685 0.524271
vt 0.921634 0.524271
vt 0.782716 0.232465
vt 0.762587 0.212336
vt 0.762587 0.281063
vt 0.782716 0.260933
vt 0.713989 0.260933
vt 0.734119 0.281063
vt 0.971543 0.985388
vt 0.718109 0.985388
vt 0.750940 0.947513
vt 0.939589 0.947513
vt 0.371429 0.514335
vt 0.305041 0.514335
vt 0.718985 0.833192
vt 0.750940 0.871066
vt 0.972419 0.833192
vt 0.939589 0.871066
vt 0.069980 0.514335
vt 0.013217 0.514335
vt 0.125324 0.514335
vt 0.181638 0.514335
vt 0.241165 0.514335
vt 0.436035 0.514335
vt 0.496362 0.514335
s 1
usemtl Material.001
f 77/1/1 2/2/2 4/3/3 78/4/4
f 78/4/4 4/3/3 61/5/5 79/6/6
f 80/7/7 64/8/8 6/9/9 81/10/10
f 81/10/10 6/9/9 8/11/11 82/12/12
f 82/12/12 8/11/11 10/13/13 83/14/14
f 6/9/9 64/8/8 32/15/15 33/16/16
f 83/14/14 10/13/13 12/17/17 84/18/18
f 84/18/18 12/17/17 2/19/2 77/20/1
f 3/21/19 62/22/20 15/23/21 14/24/22
f 15/23/21 16/25/23 24/26/24 23/27/25
f 5/28/26 7/29/27 18/30/28 17/31/29
f 11/32/30 1/33/31 13/34/32 20/35/33
f 1/36/31 3/21/19 14/24/22 13/37/32
f 62/22/20 63/38/34 16/25/23 15/23/21
f 7/29/27 9/39/35 19/40/36 18/30/28
f 63/38/34 5/28/26 17/31/29 16/25/23
f 9/39/35 11/32/30 20/35/33 19/40/36
f 21/41/37 22/42/38 23/43/25 24/44/24 25/45/39 26/46/40 27/47/41 28/48/42
f 13/37/32 14/24/22 22/49/38 21/50/37
f 20/35/33 13/34/32 21/51/37 28/52/42
f 18/30/28 19/40/36 27/53/41 26/54/40
f 16/25/23 17/31/29 25/55/39 24/26/24
f 14/24/22 15/23/21 23/27/25 22/49/38
f 19/40/36 20/35/33 28/52/42 27/53/41
f 17/31/29 18/30/28 26/54/40 25/55/39
f 33/16/16 32/15/15 48/56/43 49/57/10
f 12/17/17 10/13/13 35/58/44 36/59/45
f 61/5/5 4/3/3 29/60/46 31/61/47
f 8/11/11 6/9/9 33/16/16 34/62/48
f 2/19/2 12/17/17 36/59/45 30/63/49
f 4/3/3 2/2/2 30/64/49 29/60/46
f 64/8/8 61/5/5 31/61/47 32/15/15
f 10/13/13 8/11/11 34/62/48 35/58/44
f 38/65/50 44/66/51 60/67/52 54/68/53
f 31/61/47 29/60/46 45/69/4 47/70/54
f 36/59/45 35/58/44 51/71/14 52/72/18
f 34/62/48 33/16/16 49/57/10 50/73/12
f 32/15/15 31/61/47 47/70/54 48/56/43
f 29/60/46 30/64/49 46/74/1 45/69/4
f 30/63/49 36/59/45 52/72/18 46/75/1
f 35/58/44 34/62/48 50/73/12 51/71/14
s 0
f 38/65/55 37/76/55 45/77/55 46/78/55
f 37/76/55 39/79/55 47/80/55 45/77/55
f 39/79/55 40/81/55 48/82/55 47/80/55
f 40/81/55 41/83/55 49/84/55 48/82/55
f 41/83/55 42/85/55 50/86/55 49/84/55
f 42/85/55 43/87/55 51/88/55 50/86/55
f 43/87/55 44/66/55 52/89/55 51/88/55
f 44/66/55 38/65/55 46/78/55 52/89/55
s 1
f 53/90/56 54/91/53 60/92/52 59/93/57 58/94/58 57/95/59 56/96/60 55/97/61
f 43/87/62 42/85/63 58/98/58 59/99/57
f 41/83/64 40/81/65 56/100/60 57/101/59
f 39/79/66 37/76/67 53/102/56 55/103/61
f 44/66/51 43/87/62 59/99/57 60/67/52
f 42/85/63 41/83/64 57/101/59 58/98/58
f 40/81/65 39/79/66 55/103/61 56/100/60
f 37/76/67 38/65/50 54/68/53 53/102/56
f 80/104/68 72/105/69 67/106/70 68/107/71
f 71/108/6 72/109/7 63/38/34 62/22/20
f 80/7/7 79/6/6 61/5/5 64/8/8
f 72/105/69 71/110/72 66/111/73 67/106/70
f 79/112/74 80/104/68 68/107/71 65/113/75
f 66/111/73 65/113/75 68/107/71 67/106/70
f 11/32/30 76/114/18 69/115/1 1/33/31
f 9/39/35 75/116/14 76/114/18 11/32/30
f 7/29/27 74/117/12 75/116/14 9/39/35
f 5/28/26 73/118/10 74/117/12 7/29/27
f 63/38/34 72/109/7 73/118/10 5/28/26
f 3/21/19 70/119/4 71/108/6 62/22/20
f 1/36/31 69/120/1 70/119/4 3/21/19
f 71/110/72 79/112/74 65/113/75 66/111/73
f 76/114/18 84/18/18 77/20/1 69/115/1
f 75/116/14 83/14/14 84/18/18 76/114/18
f 74/117/12 82/12/12 83/14/14 75/116/14
f 73/118/10 81/10/10 82/12/12 74/117/12
f 72/109/7 80/7/7 81/10/10 73/118/10
f 70/119/4 78/4/4 79/6/6 71/108/6
f 69/120/1 77/1/1 78/4/4 70/119/4
