# Blender 4.3.2
# www.blender.org
mtllib doorFrame.mtl
o corridor_straight.001
v 0.535535 0.537500 -0.475000
v 0.535535 0.656281 -0.475000
v 0.535535 0.656281 -0.525000
v 0.535535 0.537500 -0.525000
v -0.475000 -0.437500 -0.475000
v -0.525000 -0.437500 -0.475000
v -0.525000 -0.437500 -0.525000
v -0.475000 -0.437500 -0.525000
v -0.535535 0.537500 -0.475000
v -0.535535 0.656281 -0.475000
v -0.535535 0.656281 -0.525000
v -0.535535 0.537500 -0.525000
v -0.475000 0.537500 -0.475000
v -0.525000 0.537500 -0.475000
v -0.525000 0.537500 -0.525000
v -0.475000 0.537500 -0.525000
v 0.525000 -0.437500 -0.475000
v 0.475000 -0.437500 -0.475000
v 0.475000 -0.437500 -0.525000
v 0.525000 -0.437500 -0.525000
v 0.525000 0.537500 -0.475000
v 0.475000 0.537500 -0.475000
v 0.475000 0.537500 -0.525000
v 0.525000 0.537500 -0.525000
vn 1.0000 -0.0000 -0.0000
vn -1.0000 -0.0000 -0.0000
vn -0.0000 -0.0000 -1.0000
vn -0.0000 -0.0000 1.0000
vn -0.0000 -1.0000 -0.0000
vn -0.0000 1.0000 -0.0000
vt 0.121468 0.585684
vt 0.072840 0.585684
vt 0.072840 0.609782
vt 0.121468 0.609782
vt 0.268390 0.542422
vt 0.024736 0.542422
vt 0.024736 0.556766
vt 0.268390 0.556766
vt 0.023913 0.536758
vt 0.023913 0.561051
vt 0.267994 0.561051
vt 0.267994 0.536758
s 0
usemtl Material
f 2/1/1 1/2/1 4/3/1 3/4/1
f 10/1/2 11/4/2 12/3/2 9/2/2
f 16/5/3 8/6/3 7/7/3 15/8/3
f 15/5/2 7/6/2 6/7/2 14/8/2
f 14/8/4 6/7/4 5/6/4 13/5/4
f 13/5/1 5/6/1 8/7/1 16/8/1
f 9/9/5 12/10/5 4/11/5 1/12/5
f 12/9/3 11/10/3 3/11/3 4/12/3
f 11/10/6 10/9/6 2/12/6 3/11/6
f 10/10/4 9/9/4 1/12/4 2/11/4
f 24/5/3 20/6/3 19/7/3 23/8/3
f 23/5/2 19/6/2 18/7/2 22/8/2
f 22/8/4 18/7/4 17/6/4 21/5/4
f 21/5/1 17/6/1 20/7/1 24/8/1
