# Blender 4.3.2
# www.blender.org
mtllib ElevatorFan.mtl
o corridor_straight.031
v -0.758355 7.930476 15.000001
v -0.758355 8.529008 15.000001
v -0.536238 7.930476 14.463765
v -0.000001 7.930476 14.241649
v -0.000001 7.930476 15.758355
v 0.758352 7.930476 15.000001
v -0.536238 7.930476 15.536239
v 0.536235 7.930476 14.463765
v -0.000001 8.529008 15.758355
v -0.000001 8.529008 14.241649
v 0.536235 7.930476 15.536239
v -0.536238 8.529008 14.463765
v 0.758352 8.529008 15.000001
v -0.536238 8.529008 15.536239
v 0.536235 8.529008 14.463765
v 0.536235 8.529008 15.536239
v -0.000001 7.930476 15.000002
v -0.758355 8.232942 15.000001
v -0.536238 8.232942 14.463765
v -0.000001 8.232942 14.241649
v -0.000001 8.232942 15.758355
v 0.758352 8.232942 15.000001
v -0.536238 8.232942 15.536239
v 0.536235 8.232942 14.463765
v 0.536235 8.232942 15.536239
v -1.137841 8.232942 15.000001
v -0.804576 8.232942 14.195427
v -0.000001 8.232942 13.862162
v -0.000001 8.232942 16.137842
v 1.137838 8.232942 15.000001
v -0.804576 8.232942 15.804576
v 0.804573 8.232942 14.195427
v 0.804573 8.232942 15.804576
v -0.536238 8.421436 14.463765
v -0.000001 8.421436 14.241649
v 0.536235 8.421436 14.463765
v 0.758352 8.421436 15.000001
v 0.536235 8.421436 15.536239
v -0.000001 8.421436 15.758355
v -0.536238 8.421436 15.536239
v -0.758355 8.421436 15.000001
v -0.000001 8.421436 13.862162
v 0.804573 8.421436 14.195427
v 0.804573 8.421436 15.804576
v -0.804576 8.421436 15.804576
v -4.797183 8.232943 17.458366
v -4.797183 8.421438 17.458366
v -5.130446 8.232943 16.653793
v -1.653793 8.232942 9.869556
v -2.458368 8.232942 10.202822
v -1.653793 8.421436 9.869556
v 4.797179 8.232942 12.541636
v 4.797179 8.421436 12.541636
v 5.130443 8.232942 13.346210
v 2.458364 8.232941 19.797182
v 2.458364 8.421436 19.797182
v 1.653789 8.232942 20.130447
vn 0.9239 -0.0000 -0.3827
vn 0.3827 -0.0000 0.9239
vn -0.9239 -0.0000 0.3827
vn -0.3827 -0.0000 -0.9239
vn -0.9239 -0.0000 -0.3827
vn 0.3827 -0.0000 -0.9239
vn 0.9239 -0.0000 0.3827
vn -0.3827 -0.0000 0.9239
vn -0.0000 -1.0000 -0.0000
vn -0.0164 0.9582 0.2856
vn -0.2136 0.9582 -0.1903
vn -0.2856 0.9582 -0.0164
vn 0.2856 0.9582 0.0164
vn -0.7071 -0.0000 -0.7071
vn -1.0000 -0.0000 -0.0000
vn 0.7071 -0.0000 -0.7071
vn -0.7071 -0.0000 0.7071
vn 1.0000 -0.0000 -0.0000
vn -0.0000 -0.0000 -1.0000
vn 0.7071 -0.0000 0.7071
vn -0.0000 -0.0000 1.0000
vn -0.0810 0.9774 -0.1954
vn -0.1954 0.9774 0.0810
vn 0.0810 0.9774 0.1954
vn -0.0000 1.0000 -0.0000
vt 0.671190 0.575408
vt 0.706694 0.575408
vt 0.706694 0.608115
vt 0.671190 0.608115
vt 0.600181 0.575408
vt 0.635685 0.575408
vt 0.635685 0.608115
vt 0.600181 0.608115
vt 0.671190 0.660945
vt 0.706656 0.660945
vt 0.706656 0.693616
vt 0.671190 0.693616
vt 0.635723 0.660945
vt 0.635723 0.693616
vt 0.600257 0.693616
vt 0.600257 0.660945
vt 0.742199 0.575408
vt 0.742199 0.608115
vt 0.742122 0.660945
vt 0.742122 0.693616
vt 0.724297 0.587777
vt 0.724297 0.572000
vt 0.708519 0.572000
vt 0.713140 0.583156
vt 0.724297 0.556222
vt 0.713140 0.560843
vt 0.735453 0.583156
vt 0.740074 0.572000
vt 0.735453 0.560843
vt 0.642371 0.643983
vt 0.661819 0.644035
vt 0.666716 0.632301
vt 0.637536 0.632223
vt 0.637536 0.632223
vt 0.642370 0.643983
vt 0.666716 0.632301
vt 0.642371 0.643983
vt 0.642371 0.643983
vt 0.637536 0.632223
vt 0.666716 0.632301
vt 0.661818 0.644035
vt 0.661818 0.644035
vt 0.666716 0.632301
vt 0.661819 0.644035
vt 0.642371 0.643983
vt 0.000000 0.000000
vt 0.686365 0.523162
vt 0.690745 0.523162
vt 0.690745 0.531981
vt 0.686365 0.531981
vt 0.656654 0.559457
vt 0.638841 0.595319
vt 0.656654 0.595319
vt 0.686365 0.632408
vt 0.690745 0.632408
vt 0.686365 0.652645
vt 0.637923 0.515070
vt 0.667103 0.515149
vt 0.667103 0.515148
vt 0.667103 0.515148
vt 0.637923 0.515070
vt 0.686365 0.632408
vt 0.686365 0.652645
s 0
usemtl Material
f 6/1/1 8/2/1 15/3/1 13/4/1
f 5/5/2 11/6/2 16/7/2 9/8/2
f 1/9/3 7/10/3 14/11/3 2/12/3
f 3/13/4 12/14/4 10/15/4 4/16/4
f 1/9/5 2/12/5 12/14/5 3/13/5
f 8/2/6 4/17/6 10/18/6 15/3/6
f 11/6/7 6/1/7 13/4/7 16/7/7
f 7/10/8 5/19/8 9/20/8 14/11/8
f 4/21/9 17/22/9 1/23/9 3/24/9
f 17/22/9 5/25/9 7/26/9 1/23/9
f 8/27/9 6/28/9 17/22/9 4/21/9
f 6/28/9 11/29/9 5/25/9 17/22/9
f 21/30/9 25/31/9 33/32/9 29/33/9
f 19/31/9 27/32/9 28/34/9 20/35/9
f 18/30/9 23/31/9 31/36/9 26/33/9
f 22/37/9 24/31/9 32/32/9 30/34/9
f 39/38/10 29/39/10 44/40/10 38/41/10
f 34/42/11 35/38/11 42/39/11 27/40/11
f 41/30/12 26/39/12 45/43/12 40/44/12
f 37/45/13 30/34/13 43/43/13 36/31/13
f 19/46/2 20/46/2 35/46/2 34/46/2
f 24/47/14 36/48/14 43/49/14 32/50/14
f 29/51/15 39/52/15 21/53/15
f 22/46/3 37/46/3 36/46/3 24/46/3
f 25/47/16 38/48/16 44/49/16 33/50/16
f 21/46/4 39/46/4 38/46/4 25/46/4
f 27/51/17 19/53/17 34/52/17
f 18/46/1 41/46/1 40/46/1 23/46/1
f 20/47/18 28/50/18 42/49/18 35/48/18
f 26/51/19 41/52/19 18/53/19
f 23/47/20 40/48/20 45/49/20 31/50/20
f 30/51/21 37/52/21 22/53/21
f 46/54/3 47/55/3 48/56/3
f 45/49/2 47/55/2 46/54/2 31/50/2
f 26/39/22 48/57/22 47/58/22 45/43/22
f 31/36/9 46/59/9 48/57/9 26/33/9
f 49/54/4 50/56/4 51/55/4
f 27/32/9 50/60/9 49/57/9 28/34/9
f 42/39/23 51/61/23 50/58/23 27/40/23
f 28/50/1 49/54/1 51/55/1 42/49/1
f 52/62/1 53/55/1 54/63/1
f 43/49/4 53/55/4 52/62/4 32/50/4
f 30/34/24 54/61/24 53/58/24 43/43/24
f 32/32/9 52/58/9 54/57/9 30/34/9
f 55/54/2 56/55/2 57/56/2
f 44/49/1 56/55/1 55/54/1 33/50/1
f 29/39/23 57/61/23 56/58/23 44/40/23
f 33/32/9 55/59/9 57/57/9 29/33/9
f 15/3/25 10/18/25 12/14/25 2/12/25 14/11/25 9/20/25 16/7/25 13/4/25
