# Blender 4.3.2
# www.blender.org
mtllib ElevatorRoom.mtl
o corridor_straight.032
v -12.499999 -2.500000 2.500000
v -12.500000 -2.500000 -2.500000
v -7.500000 -2.500000 2.500000
v -7.500001 -2.500000 -2.500000
v -7.499999 -2.500000 2.500000
v -7.500000 -2.500000 -2.500000
v -2.500000 -2.500000 2.500000
v -2.500001 -2.500000 -2.500000
v -2.499999 -2.500000 2.500000
v -2.500000 -2.500000 -2.500000
v 2.500000 -2.500000 2.500000
v 2.499999 -2.500000 -2.500000
v 7.500001 -2.500000 2.500000
v 7.500000 -2.500000 -2.500000
v 12.500000 -2.500000 2.500000
v 12.500000 -2.500000 -2.500000
v 2.500001 -2.500000 2.500000
v 2.500000 -2.500000 -2.500000
v 7.500000 -2.500000 2.500000
v 7.499999 -2.500000 -2.500000
v -12.499999 -2.500000 -2.500000
v -12.500000 -2.500000 -7.499999
v -7.500000 -2.500000 -2.500000
v -7.500001 -2.500000 -7.500000
v -7.499999 -2.500000 -2.500000
v -7.500000 -2.500000 -7.499999
v -2.500000 -2.500000 -2.500000
v -2.500001 -2.500000 -7.500000
v -2.499999 -2.500000 -2.500000
v -2.500000 -2.500000 -7.499999
v 2.500000 -2.500000 -2.500000
v 2.499999 -2.500000 -7.500000
v 7.500001 -2.500000 -2.500000
v 7.500000 -2.500000 -7.499999
v 12.500000 -2.500000 -2.500000
v 12.500000 -2.500000 -7.500000
v 2.500001 -2.500000 -2.500000
v 2.500000 -2.500000 -7.499999
v 7.500000 -2.500000 -2.500000
v 7.499999 -2.500000 -7.500000
v -12.499999 -2.500000 -7.500000
v -12.500000 -2.500000 -12.500000
v -7.500000 -2.500000 -7.500001
v -7.500001 -2.500000 -12.500000
v -7.499999 -2.500000 -7.500000
v -7.500000 -2.500000 -12.500000
v -2.500000 -2.500000 -7.500001
v -2.500001 -2.500000 -12.500000
v -2.499999 -2.500000 -7.500000
v -2.500000 -2.500000 -12.500000
v 2.500000 -2.500000 -7.500001
v 2.499999 -2.500000 -12.500000
v 7.500001 -2.500000 -7.500000
v 7.500000 -2.500000 -12.500000
v 12.500000 -2.500000 -7.500001
v 12.500000 -2.500000 -12.500000
v 2.500001 -2.500000 -7.500000
v 2.500000 -2.500000 -12.500000
v 7.500000 -2.500000 -7.500001
v 7.499999 -2.500000 -12.500000
v -12.500000 -2.500000 -7.499999
v -12.500000 2.500000 -7.499999
v -12.500000 -2.500000 -2.500000
v -12.500000 2.500000 -2.500000
v -12.500000 2.500000 -7.499999
v -12.500000 7.500000 -7.499999
v -12.500000 2.500000 -2.500000
v -12.500000 7.500000 -2.500000
v -12.500000 -2.500000 -12.500000
v -12.500000 2.500000 -12.500000
v -12.500000 -2.500000 -7.500000
v -12.500000 2.500000 -7.500000
v -12.500000 2.500000 -12.500000
v -12.500000 7.500000 -12.500000
v -12.500000 2.500000 -7.500000
v -12.500000 7.500000 -7.500000
v -7.500002 -2.500000 -12.500000
v -7.500002 2.500000 -12.500000
v -12.500000 -2.500000 -12.500000
v -12.500000 2.500000 -12.500000
v -7.500002 2.500000 -12.500000
v -7.500002 7.500000 -12.500000
v -12.500000 2.500000 -12.500000
v -12.500000 7.500000 -12.500000
v -2.500002 -2.500000 -12.500000
v -2.500002 2.500000 -12.500000
v -7.500000 -2.500000 -12.500000
v -7.500000 2.500000 -12.500000
v -2.500002 2.500000 -12.500000
v -2.500002 7.500000 -12.500000
v -7.500000 2.500000 -12.500000
v -7.500000 7.500000 -12.500000
v 7.499999 -2.500000 -12.500000
v 7.499999 2.500000 -12.500000
v 2.500000 -2.500000 -12.500000
v 2.500000 2.500000 -12.500000
v 7.499999 2.500000 -12.500000
v 7.499999 7.500000 -12.500000
v 2.500000 2.500000 -12.500000
v 2.500000 7.500000 -12.500000
v 12.499998 -2.500000 -12.500000
v 12.499998 2.500000 -12.500000
v 7.500000 -2.500000 -12.500000
v 7.500000 2.500000 -12.500000
v 12.499998 2.500000 -12.500000
v 12.499998 7.500000 -12.500000
v 7.500000 2.500000 -12.500000
v 7.500000 7.500000 -12.500000
v 12.500002 -2.499999 -7.500002
v 12.500002 2.500000 -7.500002
v 12.499998 -2.499999 -12.500002
v 12.499998 2.500000 -12.500002
v 12.500002 2.500000 -7.500002
v 12.500002 7.500000 -7.500002
v 12.499998 2.500000 -12.500002
v 12.499998 7.500000 -12.500002
v 12.500002 -2.499999 -2.500002
v 12.500002 2.500000 -2.500002
v 12.499998 -2.499999 -7.500002
v 12.499998 2.500000 -7.500002
v 12.500002 2.500000 -2.500002
v 12.500002 7.500000 -2.500002
v 12.499998 2.500000 -7.500002
v 12.499998 7.500000 -7.500002
v -12.500000 2.500000 -2.500000
v -12.500000 7.500000 -2.500000
v -12.500000 2.500000 2.500000
v -12.500000 7.500000 2.500000
v 2.499999 2.500000 -12.500000
v 2.499999 7.500000 -12.500000
v -2.500000 2.500000 -12.500000
v -2.500000 7.500000 -12.500000
v 12.500002 2.500000 2.499997
v 12.500002 7.500000 2.499997
v 12.499998 2.500000 -2.500002
v 12.499998 7.500000 -2.500002
v 2.677674 2.375000 -12.375000
v 2.677674 2.968905 -12.375002
v 2.677674 2.968905 -12.625000
v 2.677674 2.375000 -12.625000
v -2.375000 -2.500000 -12.375000
v -2.625000 -2.500000 -12.375000
v -2.625000 -2.500000 -12.624998
v -2.375000 -2.500000 -12.624998
v -2.677675 2.375000 -12.375000
v -2.677675 2.968905 -12.375002
v -2.677675 2.968905 -12.625000
v -2.677675 2.375000 -12.625000
v -2.375000 2.375000 -12.375000
v -2.625000 2.375000 -12.375000
v -2.625000 2.375000 -12.625000
v -2.375000 2.375000 -12.625000
v 2.625000 -2.500000 -12.375000
v 2.375000 -2.500000 -12.375000
v 2.375000 -2.500000 -12.624998
v 2.625000 -2.500000 -12.624998
v 2.625000 2.375000 -12.375000
v 2.375000 2.375000 -12.375000
v 2.375000 2.375000 -12.625000
v 2.625000 2.375000 -12.625000
v -12.375001 2.375000 -2.677674
v -12.375001 2.968905 -2.677674
v -12.625000 2.968905 -2.677674
v -12.625000 2.375000 -2.677674
v -12.375000 -2.500000 2.375000
v -12.375000 -2.500000 2.625000
v -12.624999 -2.500000 2.625000
v -12.624999 -2.500000 2.375000
v -12.375000 2.375000 2.677675
v -12.375000 2.968905 2.677675
v -12.625000 2.968905 2.677675
v -12.625000 2.375000 2.677675
v -12.375000 2.375000 2.375000
v -12.375000 2.375000 2.625000
v -12.625000 2.375000 2.625000
v -12.625000 2.375000 2.375000
v -12.375000 -2.500000 -2.625000
v -12.375000 -2.500000 -2.375000
v -12.625000 -2.500000 -2.375000
v -12.625000 -2.500000 -2.625000
v -12.375001 2.375000 -2.625000
v -12.375001 2.375000 -2.375000
v -12.625000 2.375000 -2.375000
v -12.625000 2.375000 -2.625000
v 12.625000 2.375000 -2.677674
v 12.625000 2.968905 -2.677674
v 12.375000 2.968905 -2.677674
v 12.375000 2.375000 -2.677674
v 12.625000 -2.500000 2.375000
v 12.625000 -2.500000 2.625000
v 12.375000 -2.500000 2.625000
v 12.375000 -2.500000 2.375000
v 12.625000 2.375000 2.677675
v 12.625000 2.968905 2.677675
v 12.375000 2.968905 2.677675
v 12.375000 2.375000 2.677675
v 12.625000 2.375000 2.375000
v 12.625000 2.375000 2.625000
v 12.375000 2.375000 2.625000
v 12.375000 2.375000 2.375000
v 12.625000 -2.500000 -2.625000
v 12.625000 -2.500000 -2.375000
v 12.375000 -2.500000 -2.375000
v 12.375000 -2.500000 -2.625000
v 12.625000 2.375000 -2.625000
v 12.625000 2.375000 -2.375000
v 12.375000 2.375000 -2.375000
v 12.375000 2.375000 -2.625000
v -7.500001 7.500000 -2.500000
v -7.500000 7.500000 2.500000
v -12.500000 7.500000 -2.499999
v -12.499999 7.500000 2.500000
v -2.500001 7.500000 -2.500000
v -2.500000 7.500000 2.500000
v -7.500000 7.500000 -2.499999
v -7.499999 7.500000 2.500000
v 2.499999 7.500000 -2.500000
v 2.500000 7.500000 2.500000
v -2.500000 7.500000 -2.499999
v -2.499999 7.500000 2.500000
v 12.500000 7.500000 -2.500000
v 12.500000 7.500000 2.500000
v 7.500000 7.500000 -2.499999
v 7.500001 7.500000 2.500000
v 7.499999 7.500000 -2.500000
v 7.500000 7.500000 2.500000
v 2.500000 7.500000 -2.499999
v 2.500001 7.500000 2.500000
v -7.500001 7.500000 -7.500000
v -7.500000 7.500000 -2.500001
v -12.500000 7.500000 -7.499999
v -12.499999 7.500000 -2.500000
v -2.500001 7.500000 -7.500000
v -2.500000 7.500000 -2.500001
v -7.500000 7.500000 -7.499999
v -7.499999 7.500000 -2.500000
v 2.499999 7.500000 -7.500000
v 2.500000 7.500000 -2.500001
v -2.500000 7.500000 -7.499999
v -2.499999 7.500000 -2.500000
v 12.500000 7.500000 -7.500000
v 12.500000 7.500000 -2.500001
v 7.500000 7.500000 -7.499999
v 7.500001 7.500000 -2.500000
v 7.499999 7.500000 -7.500000
v 7.500000 7.500000 -2.500001
v 2.500000 7.500000 -7.499999
v 2.500001 7.500000 -2.500000
v -7.500001 7.500000 -12.500000
v -7.500000 7.500000 -7.500001
v -12.500000 7.500000 -12.500000
v -12.499999 7.500000 -7.500000
v -2.500001 7.500000 -12.500000
v -2.500000 7.500000 -7.500001
v -7.500000 7.500000 -12.500000
v -7.499999 7.500000 -7.500000
v 2.499999 7.500000 -12.500000
v 2.500000 7.500000 -7.500001
v -2.500000 7.500000 -12.500000
v -2.499999 7.500000 -7.500000
v 12.500000 7.500000 -12.500000
v 12.500000 7.500000 -7.500001
v 7.500000 7.500000 -12.500000
v 7.500001 7.500000 -7.500000
v 7.499999 7.500000 -12.500000
v 7.500000 7.500000 -7.500001
v 2.500000 7.500000 -12.500000
v 2.500001 7.500000 -7.500000
v -7.500002 2.500000 2.500000
v 7.500000 2.500000 2.500001
v -7.375000 -2.500000 2.625000
v -7.625000 -2.500000 2.625000
v -7.625000 -2.500000 2.375000
v -7.375000 -2.500000 2.375000
v -7.375000 2.499999 2.625000
v -7.625000 2.499999 2.625000
v -7.625000 2.499999 2.375000
v -7.375000 2.499999 2.375000
v 7.625000 -2.500000 2.625000
v 7.375000 -2.500000 2.625000
v 7.375000 -2.500000 2.375000
v 7.625000 -2.500000 2.375000
v 7.625000 2.499999 2.625000
v 7.375000 2.499999 2.625000
v 7.375000 2.499999 2.375000
v 7.625000 2.499999 2.375000
v -2.501679 6.905925 2.623405
v -2.501679 7.497618 2.623405
v -2.501679 7.497618 2.373237
v -2.501679 6.905925 2.373237
v -7.505035 6.905925 2.623405
v -7.505035 7.497618 2.623405
v -7.505035 7.497618 2.373237
v -7.505035 6.905925 2.373237
v 2.501678 6.905925 2.623405
v 2.501678 7.497618 2.623405
v 2.501678 7.497618 2.373237
v 2.501678 6.905925 2.373237
v -2.501678 6.905925 2.623405
v -2.501678 7.497618 2.623405
v -2.501678 7.497618 2.373237
v -2.501678 6.905925 2.373237
v 7.505035 6.905925 2.623405
v 7.505035 7.497618 2.623405
v 7.505035 7.497618 2.373237
v 7.505035 6.905925 2.373237
v 2.501678 6.905925 2.623405
v 2.501678 7.497618 2.623405
v 2.501678 7.497618 2.373237
v 2.501678 6.905925 2.373237
v -7.375000 2.500000 2.625000
v -7.625000 2.500000 2.625000
v -7.625000 2.500000 2.375000
v -7.375000 2.500000 2.375000
v -7.375000 7.499999 2.625000
v -7.625000 7.499999 2.625000
v -7.625000 7.499999 2.375000
v -7.375000 7.499999 2.375000
v 7.625000 2.500000 2.625000
v 7.375000 2.500000 2.625000
v 7.375000 2.500000 2.375000
v 7.625000 2.500000 2.375000
v 7.625000 7.499999 2.625000
v 7.375000 7.499999 2.625000
v 7.375000 7.499999 2.375000
v 7.625000 7.499999 2.375000
v 2.499997 7.499999 6.250000
v 7.500000 7.499999 6.250000
v -7.500001 7.500000 6.250000
v -2.500002 7.500000 6.250000
v 7.499995 2.500000 2.500004
v 7.499995 -2.500000 2.500004
v 7.499999 2.500000 6.250002
v 7.499995 7.499999 2.500002
v 7.499999 -2.500000 6.250002
v 7.499999 7.499999 6.250001
v -7.500004 2.500009 2.500004
v -7.500004 -2.499990 2.500004
v -7.500000 2.500009 6.250002
v -7.500004 7.500009 2.500002
v -7.500000 -2.499990 6.250002
v -7.500000 7.500009 6.250001
vn -0.0000 1.0000 -0.0000
vn 1.0000 -0.0000 -0.0000
vn -0.0000 -0.0000 1.0000
vn -1.0000 -0.0000 -0.0000
vn -0.0000 -0.0000 -1.0000
vn -0.0000 -1.0000 -0.0000
vt 0.293198 0.850996
vt 0.293199 0.999620
vt 0.442084 0.999615
vt 0.441962 0.850988
vt 0.292969 0.511719
vt 0.000000 0.511719
vt 0.000000 0.804688
vt 0.292969 0.804688
vt 0.292969 0.707031
vt 0.000000 0.707031
vt 0.000000 1.000000
vt 0.292969 1.000000
vt 0.121468 0.585684
vt 0.072840 0.585684
vt 0.072840 0.609782
vt 0.121468 0.609782
vt 0.268390 0.542422
vt 0.024736 0.542422
vt 0.024736 0.556766
vt 0.268390 0.556766
vt 0.023913 0.536758
vt 0.023913 0.561051
vt 0.267994 0.561051
vt 0.267994 0.536758
vt 0.442248 0.999735
vt 0.293236 0.999735
vt 0.293236 0.850778
vt 0.442248 0.850778
vt 0.267902 0.542422
vt 0.023759 0.542422
vt 0.023759 0.556766
vt 0.267902 0.556766
vt 0.442248 0.962496
vt 0.293236 0.962496
vt 0.937214 0.014672
vt 0.937214 0.263663
vt 0.750491 0.263663
vt 0.750491 0.014672
s 0
usemtl Material
f 3/1/1 4/2/1 2/3/1 1/4/1
f 7/1/1 8/2/1 6/3/1 5/4/1
f 11/1/1 12/2/1 10/3/1 9/4/1
f 15/1/1 16/2/1 14/3/1 13/4/1
f 19/1/1 20/2/1 18/3/1 17/4/1
f 23/1/1 24/2/1 22/3/1 21/4/1
f 27/1/1 28/2/1 26/3/1 25/4/1
f 31/1/1 32/2/1 30/3/1 29/4/1
f 35/1/1 36/2/1 34/3/1 33/4/1
f 39/1/1 40/2/1 38/3/1 37/4/1
f 43/1/1 44/2/1 42/3/1 41/4/1
f 47/1/1 48/2/1 46/3/1 45/4/1
f 51/1/1 52/2/1 50/3/1 49/4/1
f 55/1/1 56/2/1 54/3/1 53/4/1
f 59/1/1 60/2/1 58/3/1 57/4/1
f 63/5/2 61/6/2 62/7/2 64/8/2
f 67/9/2 65/10/2 66/11/2 68/12/2
f 71/5/2 69/6/2 70/7/2 72/8/2
f 75/9/2 73/10/2 74/11/2 76/12/2
f 79/5/3 77/6/3 78/7/3 80/8/3
f 83/9/3 81/10/3 82/11/3 84/12/3
f 87/5/3 85/6/3 86/7/3 88/8/3
f 91/9/3 89/10/3 90/11/3 92/12/3
f 95/5/3 93/6/3 94/7/3 96/8/3
f 99/9/3 97/10/3 98/11/3 100/12/3
f 103/5/3 101/6/3 102/7/3 104/8/3
f 107/9/3 105/10/3 106/11/3 108/12/3
f 111/5/4 109/6/4 110/7/4 112/8/4
f 115/9/4 113/10/4 114/11/4 116/12/4
f 119/5/4 117/6/4 118/7/4 120/8/4
f 123/9/4 121/10/4 122/11/4 124/12/4
f 127/9/2 125/10/2 126/11/2 128/12/2
f 131/9/3 129/10/3 130/11/3 132/12/3
f 135/9/4 133/10/4 134/11/4 136/12/4
f 210/25/6 212/26/6 211/27/6 209/28/6
f 214/25/6 216/26/6 215/27/6 213/28/6
f 218/25/6 220/26/6 219/27/6 217/28/6
f 222/25/6 224/26/6 223/27/6 221/28/6
f 226/25/6 228/26/6 227/27/6 225/28/6
f 230/25/6 232/26/6 231/27/6 229/28/6
f 234/25/6 236/26/6 235/27/6 233/28/6
f 238/25/6 240/26/6 239/27/6 237/28/6
f 242/25/6 244/26/6 243/27/6 241/28/6
f 246/25/6 248/26/6 247/27/6 245/28/6
f 250/25/6 252/26/6 251/27/6 249/28/6
f 254/25/6 256/26/6 255/27/6 253/28/6
f 258/25/6 260/26/6 259/27/6 257/28/6
f 262/25/6 264/26/6 263/27/6 261/28/6
f 266/25/6 268/26/6 267/27/6 265/28/6
f 269/9/5 127/10/5 128/11/5 210/12/5
f 3/5/5 1/6/5 127/7/5 269/8/5
f 133/9/5 270/10/5 224/11/5 222/12/5
f 15/5/5 13/6/5 270/7/5 133/8/5
f 327/33/6 330/34/6 220/27/6 218/28/6
f 328/33/6 327/34/6 218/27/6 224/28/6
f 330/33/6 329/34/6 210/27/6 220/28/6
f 335/35/4 333/36/4 331/37/4 332/38/4
f 333/35/4 336/36/4 334/37/4 331/38/4
f 341/35/2 338/38/2 337/37/2 339/36/2
f 339/35/2 337/38/2 340/37/2 342/36/2
usemtl Material.001
f 138/13/2 137/14/2 140/15/2 139/16/2
f 146/13/4 147/16/4 148/15/4 145/14/4
f 152/17/5 144/18/5 143/19/5 151/20/5
f 151/17/4 143/18/4 142/19/4 150/20/4
f 150/20/3 142/19/3 141/18/3 149/17/3
f 149/17/2 141/18/2 144/19/2 152/20/2
f 145/21/6 148/22/6 140/23/6 137/24/6
f 148/21/5 147/22/5 139/23/5 140/24/5
f 147/22/1 146/21/1 138/24/1 139/23/1
f 146/22/3 145/21/3 137/24/3 138/23/3
f 160/17/5 156/18/5 155/19/5 159/20/5
f 159/17/4 155/18/4 154/19/4 158/20/4
f 158/20/3 154/19/3 153/18/3 157/17/3
f 157/17/2 153/18/2 156/19/2 160/20/2
f 162/13/5 161/14/5 164/15/5 163/16/5
f 170/13/3 171/16/3 172/15/3 169/14/3
f 176/17/4 168/18/4 167/19/4 175/20/4
f 175/17/3 167/18/3 166/19/3 174/20/3
f 174/20/2 166/19/2 165/18/2 173/17/2
f 173/17/5 165/18/5 168/19/5 176/20/5
f 169/21/6 172/22/6 164/23/6 161/24/6
f 172/21/4 171/22/4 163/23/4 164/24/4
f 171/22/1 170/21/1 162/24/1 163/23/1
f 170/22/2 169/21/2 161/24/2 162/23/2
f 184/17/4 180/18/4 179/19/4 183/20/4
f 183/17/3 179/18/3 178/19/3 182/20/3
f 182/20/2 178/19/2 177/18/2 181/17/2
f 181/17/5 177/18/5 180/19/5 184/20/5
f 186/13/5 185/14/5 188/15/5 187/16/5
f 194/13/3 195/16/3 196/15/3 193/14/3
f 200/17/4 192/18/4 191/19/4 199/20/4
f 199/17/3 191/18/3 190/19/3 198/20/3
f 198/20/2 190/19/2 189/18/2 197/17/2
f 197/17/5 189/18/5 192/19/5 200/20/5
f 193/21/6 196/22/6 188/23/6 185/24/6
f 196/21/4 195/22/4 187/23/4 188/24/4
f 195/22/1 194/21/1 186/24/1 187/23/1
f 194/22/2 193/21/2 185/24/2 186/23/2
f 208/17/4 204/18/4 203/19/4 207/20/4
f 207/17/3 203/18/3 202/19/3 206/20/3
f 206/20/2 202/19/2 201/18/2 205/17/2
f 205/17/5 201/18/5 204/19/5 208/20/5
f 278/29/5 274/30/5 273/31/5 277/32/5
f 277/29/4 273/30/4 272/31/4 276/32/4
f 276/32/3 272/31/3 271/30/3 275/29/3
f 275/29/2 271/30/2 274/31/2 278/32/2
f 286/29/5 282/30/5 281/31/5 285/32/5
f 285/29/4 281/30/4 280/31/4 284/32/4
f 284/32/3 280/31/3 279/30/3 283/29/3
f 283/29/2 279/30/2 282/31/2 286/32/2
f 291/21/6 294/22/6 290/23/6 287/24/6
f 294/21/5 293/22/5 289/23/5 290/24/5
f 293/22/1 292/21/1 288/24/1 289/23/1
f 292/22/3 291/21/3 287/24/3 288/23/3
f 299/21/6 302/22/6 298/23/6 295/24/6
f 302/21/5 301/22/5 297/23/5 298/24/5
f 301/22/1 300/21/1 296/24/1 297/23/1
f 300/22/3 299/21/3 295/24/3 296/23/3
f 307/21/6 310/22/6 306/23/6 303/24/6
f 310/21/5 309/22/5 305/23/5 306/24/5
f 309/22/1 308/21/1 304/24/1 305/23/1
f 308/22/3 307/21/3 303/24/3 304/23/3
f 318/29/5 314/30/5 313/31/5 317/32/5
f 317/29/4 313/30/4 312/31/4 316/32/4
f 316/32/3 312/31/3 311/30/3 315/29/3
f 315/29/2 311/30/2 314/31/2 318/32/2
f 326/29/5 322/30/5 321/31/5 325/32/5
f 325/29/4 321/30/4 320/31/4 324/32/4
f 324/32/3 320/31/3 319/30/3 323/29/3
f 323/29/2 319/30/2 322/31/2 326/32/2
