# Blender 4.3.2
# www.blender.org
mtllib ElevatorWalls.mtl
o corridor_straight.040
v -10.000000 -2.500000 24.500000
v -10.000000 2.500000 24.500000
v -5.000001 -2.500000 24.500000
v -5.000001 2.500000 24.500000
v -5.000000 -2.500000 24.500000
v -5.000000 2.500000 24.500000
v -0.000001 -2.500000 24.499998
v -0.000001 2.500000 24.499998
v 5.000000 -2.500000 24.500000
v 5.000000 2.500000 24.500000
v 9.999999 -2.500000 24.499998
v 9.999999 2.500000 24.499998
v 5.000000 2.500000 24.500000
v 5.000000 7.500000 24.500000
v 9.999999 2.500000 24.499998
v 9.999999 7.500000 24.499998
v -5.000000 2.500000 24.500000
v -5.000000 7.500000 24.500000
v -0.000001 2.500000 24.499998
v -0.000001 7.500000 24.499998
v -10.000000 2.500000 24.500000
v -10.000000 7.500000 24.500000
v -5.000001 2.500000 24.499998
v -5.000001 7.500000 24.499998
v -10.000000 7.500000 24.500000
v -10.000000 12.500000 24.500000
v -5.000001 7.500000 24.499998
v -5.000001 12.500000 24.499998
v -5.000000 7.500000 24.500000
v -5.000000 12.500000 24.500000
v -0.000001 7.500000 24.499998
v -0.000001 12.500000 24.499998
v 5.000000 7.500000 24.500000
v 5.000000 12.500000 24.500000
v 9.999999 7.500000 24.499998
v 9.999999 12.500000 24.499998
v 0.000000 -2.500000 24.500000
v 0.000000 2.500000 24.500000
v 4.999999 -2.500000 24.499998
v 4.999999 2.500000 24.499998
v 0.000000 2.500000 24.500000
v 0.000000 7.500000 24.500000
v 4.999999 2.500000 24.499998
v 4.999999 7.500000 24.499998
v 0.000000 7.500000 24.500000
v 0.000000 12.500000 24.500000
v 4.999999 7.500000 24.499998
v 4.999999 12.500000 24.499998
v -10.000004 -2.500000 4.500000
v -10.000004 2.500000 4.500000
v -10.000002 -2.500000 9.500000
v -10.000002 2.500000 9.500000
v -10.000001 -2.500000 24.500000
v 9.999997 12.500000 19.499998
v -10.000001 2.500000 24.500000
v 9.999997 12.500000 14.499999
v 9.999997 7.500000 14.499999
v 9.999997 7.500000 19.499998
v 9.999997 2.500000 19.499998
v 9.999997 -2.500000 19.499998
v 9.999997 2.500000 14.499999
v 9.999997 -2.500000 14.499999
v 9.999997 12.500000 24.499998
v 9.999997 7.500000 24.499998
v -10.000004 7.500000 4.500000
v -10.000004 12.500000 4.500000
v -10.000002 7.500000 9.500000
v -10.000002 12.500000 9.500000
v 9.999997 12.500000 9.499998
v 9.999997 7.500000 9.499998
v 9.999993 12.500000 4.499998
v 9.999993 7.500000 4.499998
v 9.999997 2.500000 24.499998
v 9.999997 -2.500000 24.499998
v -10.000001 7.500000 24.500000
v -10.000001 12.500000 24.500000
v -10.000002 -2.500000 14.500000
v -10.000002 2.500000 14.500000
v -10.000001 -2.500000 19.500000
v 9.999997 2.500000 9.499998
v 9.999997 -2.500000 9.499998
v 9.999993 2.500000 4.499998
v -10.000001 2.500000 19.500000
v -10.000001 7.500000 19.500000
v -10.000002 7.500000 14.500000
v -10.000002 12.500000 14.500000
v 9.999993 -2.500000 4.499998
v -10.000001 12.500000 19.500000
v 4.999999 7.500000 4.500000
v 4.999999 12.500000 4.500000
v -5.000002 7.500000 4.500000
v -0.000005 7.500000 4.500000
v -0.000005 12.500000 4.500000
v -5.000002 12.500000 4.500000
v -7.500005 -2.500000 4.500000
v -7.500005 2.500000 4.500000
v -7.500003 7.500000 4.500000
v 7.499997 7.500000 4.500000
v 7.499997 2.500000 4.500000
v 7.499997 -2.500000 4.500000
vn -0.0000 -0.0000 -1.0000
vn 1.0000 -0.0000 -0.0000
vn -1.0000 -0.0000 -0.0000
vn -0.0000 -0.0000 1.0000
vt 0.999454 0.014672
vt 0.750491 0.014672
vt 0.750491 0.263663
vt 0.999454 0.263663
vt 0.874973 0.014672
vt 0.874973 0.014672
vt 0.874973 0.263663
vt 0.874973 0.263663
s 0
usemtl Material
f 3/1/1 1/2/1 2/3/1 4/4/1
f 7/1/1 5/2/1 6/3/1 8/4/1
f 11/1/1 9/2/1 10/3/1 12/4/1
f 15/1/1 13/2/1 14/3/1 16/4/1
f 19/1/1 17/2/1 18/3/1 20/4/1
f 23/1/1 21/2/1 22/3/1 24/4/1
f 27/1/1 25/2/1 26/3/1 28/4/1
f 31/1/1 29/2/1 30/3/1 32/4/1
f 35/1/1 33/2/1 34/3/1 36/4/1
f 39/1/1 37/2/1 38/3/1 40/4/1
f 43/1/1 41/2/1 42/3/1 44/4/1
f 47/1/1 45/2/1 46/3/1 48/4/1
f 51/1/2 49/2/2 50/3/2 52/4/2
f 77/1/2 51/2/2 52/3/2 78/4/2
f 53/1/2 79/2/2 83/3/2 55/4/2
f 55/1/2 83/2/2 84/3/2 75/4/2
f 78/1/2 52/2/2 67/3/2 85/4/2
f 52/1/2 50/2/2 65/3/2 67/4/2
f 67/1/2 65/2/2 66/3/2 68/4/2
f 85/1/2 67/2/2 68/3/2 86/4/2
f 75/1/2 84/2/2 88/3/2 76/4/2
f 79/1/2 77/2/2 78/3/2 83/4/2
f 83/1/2 78/2/2 85/3/2 84/4/2
f 84/1/2 85/2/2 86/3/2 88/4/2
f 81/1/3 80/4/3 82/3/3 87/2/3
f 62/1/3 61/4/3 80/3/3 81/2/3
f 74/1/3 73/4/3 59/3/3 60/2/3
f 73/1/3 64/4/3 58/3/3 59/2/3
f 61/1/3 57/4/3 70/3/3 80/2/3
f 80/1/3 70/4/3 72/3/3 82/2/3
f 70/1/3 69/4/3 71/3/3 72/2/3
f 57/1/3 56/4/3 69/3/3 70/2/3
f 64/1/3 63/4/3 54/3/3 58/2/3
f 60/1/3 59/4/3 61/3/3 62/2/3
f 59/1/3 58/4/3 57/3/3 61/2/3
f 58/1/3 54/4/3 56/3/3 57/2/3
f 92/1/4 89/2/4 90/3/4 93/4/4
f 89/1/4 98/5/4 72/2/4 71/3/4 90/4/4
f 91/1/4 92/2/4 93/3/4 94/4/4
f 99/6/4 82/2/4 72/3/4 98/7/4
f 100/5/4 87/2/4 82/3/4 99/8/4
f 49/1/4 95/5/4 96/7/4 50/4/4
f 50/1/4 96/6/4 97/8/4 65/4/4
f 65/1/4 97/5/4 91/2/4 94/3/4 66/4/4
