# Blender 4.3.2
# www.blender.org
mtllib ElevatorLift.mtl
o corridor_straight.054
v -7.499999 -2.500000 12.500000
v -7.500000 -2.500000 7.500001
v -2.500000 -2.500000 12.499999
v -2.500001 -2.500000 7.500000
v -7.499999 -2.500000 17.500000
v -7.500000 -2.500000 12.500000
v -2.500000 -2.500000 17.500000
v -2.500001 -2.500000 12.500000
v -2.499999 -2.500000 17.500000
v -2.500000 -2.500000 12.500000
v 2.500000 -2.500000 17.500000
v 2.499998 -2.500000 12.500000
v 2.500002 -2.500000 22.500000
v 2.500000 -2.500000 17.500000
v 7.500000 -2.500000 22.500000
v 7.500000 -2.500000 17.500000
v -2.499999 -2.500000 22.500000
v -2.500000 -2.500000 17.500000
v 2.500000 -2.500000 22.500000
v 2.499998 -2.500000 17.500000
v -7.499999 -2.500000 22.500000
v -7.500000 -2.500000 17.500000
v -2.500000 -2.500000 22.500000
v -2.500001 -2.500000 17.500000
v 7.500000 -2.500000 12.500000
v 7.500000 -2.500000 22.500000
v 7.500000 -2.500000 17.500000
v -7.499996 -2.500000 22.500004
v -7.500000 -2.500000 12.500000
v -7.499998 -2.500000 17.500000
v -2.499998 -2.500000 22.500004
v 2.500004 -2.500000 22.500004
v 7.500000 -2.500000 7.500000
v -7.500000 -2.500000 7.500002
v 7.500000 -1.250000 22.500000
v -7.500000 -1.250000 12.500000
v -7.499997 -1.250000 22.500010
v 7.500000 -1.250000 7.500000
v 2.500002 -1.250000 22.500010
v -7.499998 -1.250000 17.500000
v 7.500000 -1.250000 17.500000
v -7.500000 -1.250000 7.500002
v 7.500000 -1.250000 12.500000
v -2.499998 -1.250000 22.500004
v -7.499997 2.500000 23.750004
v -7.499998 2.500000 22.500004
v -7.499997 -2.500009 23.750004
v 7.500004 -1.249999 23.750010
v -2.499998 -1.249999 23.750010
v 7.500000 2.499999 6.250000
v -8.749998 2.500000 22.500004
v 7.500000 2.500000 7.500000
v -8.749998 -2.500009 22.500004
v -8.750000 -2.499989 7.500002
v 8.750002 -2.499991 22.500000
v 8.750000 2.500000 7.500000
v -7.500007 -1.249999 23.750010
v 8.750000 -2.500010 7.500000
v 2.500004 -1.249999 23.750010
v -8.749997 -1.249997 7.499998
v 8.750000 2.500010 22.500000
v -8.749997 -1.249999 17.499996
v 7.500000 -2.499990 23.750000
v 7.500000 2.500010 23.750000
v 7.500000 2.500009 22.500000
v 7.500000 -2.500010 6.250000
v -8.749997 -1.249997 12.499995
v -8.750000 2.500010 7.500002
v -7.500000 2.500010 7.500002
v -7.500000 2.500010 6.250002
v -7.499999 -2.499990 6.250002
v -8.749997 -1.250001 22.500000
v 7.500000 1.500000 7.499995
v -7.499996 1.500000 22.500004
v -7.499998 1.500000 12.499995
v 7.500000 1.500000 22.499996
v 8.750000 -1.249999 7.500005
v 8.750000 -1.249999 17.500000
v 8.750000 -1.249999 22.500010
v 8.750000 -1.249999 12.500000
v 2.500004 1.500000 22.500004
v -7.499996 1.500000 17.499996
v 7.500000 1.500000 17.499996
v -7.499998 1.500000 7.499998
v 7.500000 1.500000 12.499995
v -2.499996 1.500000 22.500000
v 7.500004 1.500001 23.750004
v -2.499995 1.500001 23.750004
v -7.500006 1.500001 23.750004
v 2.500004 1.500001 23.750004
v -8.749996 1.500003 7.499993
v -8.749996 1.500001 17.499990
v -8.749996 1.500003 12.499990
v -8.749996 1.499999 22.499996
v 8.750000 1.500001 7.500000
v 8.750000 1.500001 17.499996
v 8.750000 1.500001 22.500004
v 8.750000 1.500001 12.499995
v -7.749996 1.499999 22.499996
v -7.749996 1.500003 12.499990
v -7.749996 1.500001 17.499990
v -7.749996 1.500003 7.499993
v -7.749997 -1.250001 22.500000
v -7.749997 -1.249997 12.499995
v -7.749997 -1.249999 17.499996
v -7.749997 -1.249997 7.499998
v 7.500004 -1.249999 22.750011
v -2.499998 -1.249999 22.750011
v -7.500007 -1.249999 22.750011
v 2.500004 -1.249999 22.750011
v 7.500004 1.500001 22.750006
v -2.499995 1.500001 22.750006
v -7.500006 1.500001 22.750006
v 2.500004 1.500001 22.750006
v 7.750000 -1.249999 7.500005
v 7.750000 -1.249999 17.500000
v 7.750000 -1.249999 22.500010
v 7.750000 -1.249999 12.500000
v 7.750000 1.500001 7.500000
v 7.750000 1.500001 17.499996
v 7.750000 1.500001 22.500004
v 7.750000 1.500001 12.499995
v -2.499999 -2.500000 12.500000
v -2.500000 -2.500000 7.500001
v 2.500000 -2.500000 12.499999
v 2.499998 -2.500000 7.500000
v 7.500000 1.500000 12.500000
v 7.500000 1.500000 22.500000
v 7.500000 1.500000 17.500000
v -7.499996 1.500000 22.500004
v -7.500000 1.500000 12.500000
v -7.499998 1.500000 17.500000
v -2.499998 1.500000 22.500004
v 2.500004 1.500000 22.500004
v 7.500000 1.500000 7.500000
v -7.500000 1.500000 7.500002
v 7.500000 2.750000 22.500000
v -7.500000 2.750000 12.500000
v -7.499997 2.750000 22.500010
v 7.500000 2.750000 7.500000
v 2.500002 2.750000 22.500010
v -7.499998 2.750000 17.500000
v 7.500000 2.750000 17.500000
v -7.500000 2.750000 7.500002
v 7.500000 2.750000 12.500000
v -2.499998 2.750000 22.500004
v 7.500000 7.499999 12.500000
v 7.500000 7.499999 22.500000
v 7.500000 7.499999 17.500000
v 7.500000 7.499999 7.500000
v 7.500000 8.749999 22.500000
v 7.500000 8.749999 7.500000
v 7.500000 8.749999 17.500000
v 7.500000 8.749999 12.500000
v 2.500000 7.499999 22.500000
v -7.500000 7.499999 22.500000
v -2.500000 7.499999 22.500000
v -7.500000 8.749999 22.500000
v -2.500000 8.749999 22.500000
v 2.500000 8.749999 22.500000
v -7.500000 7.500000 17.500000
v -7.500002 7.500000 7.500000
v -7.500001 7.500000 12.500000
v -7.500002 8.749999 7.500000
v -7.500001 8.749999 12.500000
v -7.500000 8.749999 17.500000
v -2.500002 7.500000 7.500000
v 2.500000 7.500000 7.500000
v 2.500000 8.749999 7.500000
v -2.500002 8.749999 7.500000
v 7.500000 2.750000 12.500000
v 7.500000 2.750000 22.500000
v 7.500000 2.750000 17.500000
v -7.499996 2.750000 22.500004
v -7.500000 2.750000 12.500000
v -7.499998 2.750000 17.500000
v -2.499998 2.750000 22.500004
v 2.500004 2.750000 22.500004
v 7.500000 2.750000 7.500000
v -7.500000 2.750000 7.500002
v 7.500000 7.499999 22.500000
v -7.500000 7.499999 12.500000
v -7.499997 7.499999 22.500010
v 7.500000 7.499999 7.500000
v 2.500002 7.499999 22.500010
v -7.499998 7.499999 17.500000
v 7.500000 7.499999 17.500000
v -7.500000 7.499999 7.500002
v 7.500000 7.499999 12.500000
v -2.499998 7.499999 22.500004
v -7.499999 7.700000 22.500000
v -7.500000 7.700000 17.500002
v -2.500000 7.700000 22.500000
v -7.499999 7.699999 17.500000
v -7.500000 7.699999 12.500002
v -7.499999 7.699999 12.500001
v -7.500000 7.699999 7.500002
v -2.500001 7.699999 7.500001
v -2.500000 7.699999 7.500002
v 2.499998 7.699999 7.500001
v 2.500000 7.699999 7.500002
v 7.500000 7.699999 12.500000
v 7.500000 7.699999 7.500001
v 7.500000 7.699999 17.500000
v 7.500000 7.699999 12.500001
v 2.500002 7.699999 22.500002
v 7.500000 7.699999 22.500000
v 7.500000 7.699999 17.500002
v -2.499999 7.699999 22.500002
v 2.500000 7.699999 22.500000
v -5.000000 7.700000 22.500000
v -7.500000 7.700000 20.000000
v -5.132783 7.699999 17.566393
v -7.500000 7.699999 15.000001
v -5.132782 7.699999 12.433610
v -7.500000 7.699999 10.000002
v -5.000001 7.699999 7.500001
v 2.566391 7.699999 9.867220
v -2.566391 7.699999 9.867220
v 0.000000 7.699999 7.500001
v 5.132782 7.699999 12.433610
v 7.500000 7.699999 10.000001
v 5.000000 7.699999 7.500001
v 7.500000 7.699999 15.000001
v 5.000000 7.699999 22.500000
v 7.500000 7.699999 20.000000
v 5.132782 7.699999 17.566395
v 0.000000 7.699999 22.500000
v 2.566391 7.699999 20.132786
v -2.566391 7.699999 20.132784
v 0.000000 7.699999 20.738626
v 4.057819 7.699999 19.057823
v 5.738625 7.699999 15.000001
v 4.057819 7.699999 10.942182
v 0.000000 7.699999 9.261377
v -4.057819 7.699999 10.942182
v -5.738625 7.699999 15.000001
v -4.057821 7.700000 19.057823
v -5.132783 8.749998 17.566393
v -5.132782 8.749998 12.433610
v 2.566391 8.749998 9.867220
v -2.566391 8.749998 9.867220
v 5.132782 8.749998 12.433610
v 5.132782 8.749998 17.566395
v 2.566391 8.749998 20.132786
v -2.566391 8.749998 20.132784
v 0.000000 8.749998 20.738626
v 4.057819 8.749998 19.057823
v 5.738625 8.749998 15.000001
v 4.057819 8.749998 10.942182
v 0.000000 8.749998 9.261377
v -4.057819 8.749998 10.942182
v -5.738625 8.749998 15.000001
v -4.057821 8.749998 19.057823
v 0.219197 8.749998 18.662373
v 2.080469 8.749998 17.080473
v 3.662373 8.749998 15.219197
v -1.814713 8.749998 16.814714
v -0.000001 8.749997 15.000002
v 1.814711 8.749998 13.185290
v -3.662372 8.749998 14.780806
v -2.080473 8.749997 12.919531
v -0.219197 8.749998 11.337632
v 2.500002 -2.500000 17.500000
v 2.500000 -2.500000 12.500001
v 7.500000 -2.500000 17.500000
v 7.500000 -2.500000 12.500000
v 2.500002 -2.500000 12.500001
v 2.500000 -2.500000 7.500002
v 7.500000 -2.500000 12.500000
v 7.500000 -2.500000 7.500001
v 5.000000 -2.500000 17.500000
v 7.500000 -2.500000 15.000000
v 2.500000 -2.500000 15.000001
v 5.000000 -2.500000 12.500001
v 5.000000 -2.500000 12.500001
v 7.500000 -2.500000 10.000001
v 2.500000 -2.500000 10.000002
v 5.000000 -2.500000 7.500001
v 0.000000 7.775556 20.738625
v -5.738625 7.758917 15.000001
v 0.000000 7.758917 15.000001
v 0.150000 7.775556 20.738625
v 0.150000 7.775556 15.000001
v 0.000000 7.758917 14.850001
v 5.738625 7.758917 15.000001
v -0.150000 7.775556 9.261376
v -0.150000 7.775556 15.000001
v -5.738626 7.758917 14.850000
v 5.738625 7.758917 14.850000
v 0.000000 7.775556 9.261376
v 0.150000 7.775556 9.261376
v 5.738625 7.758917 15.150002
v -5.738625 7.758917 15.150002
v 0.000000 7.758917 15.150002
v -0.150000 7.775556 20.738625
v 0.150000 7.929155 20.738625
v 0.150000 7.929155 15.000001
v 0.000000 7.929155 14.850001
v -0.150000 7.929155 9.261376
v -0.150000 7.929155 15.000001
v -5.738626 7.929155 14.850000
v 5.738625 7.929155 14.850000
v 0.150000 7.929155 9.261376
v -0.150000 7.929155 20.738625
v -5.738625 7.929155 15.150002
v 0.000000 7.929155 15.150002
v 5.738625 7.929155 15.150002
v -7.500000 -2.500000 2.500000
v -2.500000 -2.500000 7.500000
v -2.500001 -2.500000 2.500000
v 2.499998 -2.500000 2.500000
v 7.500000 -2.500000 2.500001
v 7.500000 -2.500000 5.000001
v 2.500000 -2.500000 5.000002
v 5.000000 -2.500000 2.500001
v -7.500001 7.500010 6.250002
v 7.500000 7.499999 6.250000
v 2.500000 7.500000 6.250000
v -2.500002 7.500000 6.250000
vn -0.0000 1.0000 -0.0000
vn -1.0000 -0.0000 -0.0000
vn 1.0000 -0.0000 -0.0000
vn -0.0000 -0.0000 -1.0000
vn -0.0000 -0.0000 1.0000
vn -0.0000 -1.0000 -0.0000
vn -0.9732 -0.0000 -0.2298
vn 0.2298 -0.0000 -0.9732
vn -0.9732 -0.0000 0.2298
vn -0.8112 -0.0000 0.5847
vn -0.2298 -0.0000 -0.9732
vn 0.9732 -0.0000 -0.2298
vn -0.5847 -0.0000 0.8112
vn 0.9732 -0.0000 0.2298
vn 0.5847 -0.0000 0.8112
vn 0.2298 -0.0000 0.9732
vn 0.8112 -0.0000 0.5847
vn -0.2298 -0.0000 0.9732
vn 0.5847 -0.0000 -0.8112
vn -0.8112 -0.0000 -0.5847
vn 0.8112 -0.0000 -0.5847
vn -0.5847 -0.0000 -0.8112
vn 0.0554 -0.9985 0.0014
vn -0.0554 -0.9985 -0.0014
vn -0.0554 -0.9985 0.0014
vn 0.0554 -0.9985 -0.0014
vt 0.750960 0.265136
vt 0.750963 0.513196
vt 0.999242 0.513188
vt 0.999038 0.265122
vt 0.706519 0.514639
vt 0.706519 0.632318
vt 0.742539 0.632291
vt 0.742539 0.514639
vt 0.706519 0.632264
vt 0.706519 0.749944
vt 0.742539 0.749944
vt 0.742539 0.632264
vt 0.742539 0.632318
vt 0.742539 0.632264
vt 0.345966 0.278793
vt 0.345966 0.325903
vt 0.431621 0.325903
vt 0.431621 0.278793
vt 0.345966 0.278793
vt 0.345966 0.325903
vt 0.431621 0.278793
vt 0.431621 0.325903
vt 0.345966 0.278793
vt 0.431621 0.278793
vt 0.431621 0.325903
vt 0.345966 0.325903
vt 0.345966 0.278793
vt 0.431621 0.278793
vt 0.431621 0.325903
vt 0.345966 0.325903
vt 0.345966 0.325903
vt 0.345966 0.278793
vt 0.431621 0.325903
vt 0.431621 0.278793
vt 0.345966 0.325903
vt 0.345966 0.278793
vt 0.600585 0.749493
vt 0.742526 0.749493
vt 0.742517 0.514638
vt 0.600594 0.514638
vt 0.707899 0.749493
vt 0.849840 0.749493
vt 0.849831 0.514638
vt 0.707908 0.514638
vt 0.921775 0.436157
vt 0.752619 0.389856
vt 0.752619 0.512712
vt 0.875475 0.512712
vt 0.839177 0.389856
vt 0.921775 0.343555
vt 0.875475 0.426154
vt 0.829174 0.343555
vt 0.875475 0.267000
vt 0.752619 0.267000
vt 0.875475 0.353558
vt 0.998331 0.267000
vt 0.998331 0.389856
vt 0.829174 0.436157
vt 0.998331 0.512712
vt 0.911772 0.389856
vt 0.742417 0.749765
vt 0.778518 0.749765
vt 0.778518 0.632311
vt 0.742417 0.632311
vt 0.706313 0.632375
vt 0.742414 0.632375
vt 0.742414 0.514921
vt 0.706313 0.514921
vt 0.742417 0.749764
vt 0.778518 0.749765
vt 0.778518 0.632311
vt 0.742417 0.632311
vt 0.742414 0.632375
vt 0.742414 0.514921
vt 0.706313 0.514921
vt 0.742417 0.749765
vt 0.778518 0.632311
vt 0.706313 0.632374
vt 0.742414 0.632374
vt 0.742414 0.514921
vt 0.778518 0.749764
vt 0.742417 0.749765
vt 0.778518 0.749765
vt 0.706313 0.632375
vt 0.742417 0.749764
vt 0.778518 0.749764
vt 0.742417 0.632311
vt 0.706313 0.514921
vt 0.742417 0.749764
vt 0.778518 0.749764
vt 0.742417 0.749764
vt 0.778518 0.749764
vt 0.778519 0.632311
vt 0.742417 0.632311
vt 0.742414 0.514921
vt 0.706313 0.514921
vt 0.779711 0.767501
vt 0.725949 0.754809
vt 0.672187 0.767501
vt 0.730541 0.798303
vt 0.640944 0.790019
vt 0.687934 0.837009
vt 0.618425 0.821262
vt 0.649228 0.879616
vt 0.605734 0.875024
vt 0.618425 0.928786
vt 0.810954 0.790019
vt 0.769531 0.831442
vt 0.725949 0.875024
vt 0.682366 0.918607
vt 0.640944 0.960029
vt 0.833473 0.821262
vt 0.802670 0.870432
vt 0.763964 0.913040
vt 0.721357 0.951745
vt 0.672187 0.982548
vt 0.846164 0.875024
vt 0.833473 0.928786
vt 0.810954 0.960029
vt 0.779711 0.982548
vt 0.725949 0.995239
vt 0.875102 0.513192
vt 0.999140 0.389155
vt 0.874999 0.265129
vt 0.750961 0.389166
vt 0.735693 0.748924
vt 0.741743 0.748924
vt 0.741743 0.517472
vt 0.735693 0.517472
vt 0.711203 0.517472
vt 0.705153 0.517472
vt 0.705153 0.748924
vt 0.711203 0.748924
vt 0.735693 0.748924
vt 0.735693 0.517472
vt 0.729643 0.517472
vt 0.729643 0.748924
vt 0.729643 0.748924
vt 0.711203 0.748924
vt 0.711203 0.517472
vt 0.705153 0.517472
vt 0.741743 0.748924
vt 0.741743 0.517472
vt 0.717253 0.748924
vt 0.717253 0.517472
vt 0.717253 0.517472
vt 0.698958 0.517472
vt 0.698958 0.748924
vt 0.723448 0.517472
vt 0.723448 0.748924
vt 0.698958 0.517472
vt 0.723448 0.748924
vt 0.747938 0.748924
vt 0.747938 0.517472
vt 0.747938 0.748924
vt 0.747938 0.517472
vt 0.723448 0.517472
vt 0.750483 0.264660
vt 0.750486 0.513672
vt 0.999718 0.513664
vt 0.999513 0.264646
vt 0.875102 0.513668
vt 0.999616 0.389155
vt 0.874998 0.264653
vt 0.750485 0.389166
s 0
usemtl Material
f 3/1/1 4/2/1 2/3/1 1/4/1
f 7/1/1 8/2/1 6/3/1 5/4/1
f 11/1/1 12/2/1 10/3/1 9/4/1
f 15/1/1 16/2/1 14/3/1 13/4/1
f 19/1/1 20/2/1 18/3/1 17/4/1
f 23/1/1 24/2/1 22/3/1 21/4/1
f 25/5/2 27/6/2 41/7/2 43/8/2
f 27/9/2 26/10/2 35/11/2 41/7/2
f 28/9/3 30/10/3 40/11/3 37/12/3
f 30/5/3 29/6/3 36/7/3 40/8/3
f 28/5/4 37/8/4 44/7/4 31/6/4
f 31/9/4 44/7/4 39/11/4 32/10/4
f 32/5/4 39/8/4 35/13/4 26/6/4
f 33/9/2 25/10/2 43/11/2 38/14/2
f 29/9/3 34/10/3 42/11/3 36/7/3
f 28/9/3 46/10/3 45/11/3 47/12/3
f 28/9/4 53/12/4 51/11/4 46/10/4
f 33/9/2 52/10/2 50/11/2 66/12/2
f 33/9/5 58/12/5 56/11/5 52/10/5
f 67/9/1 36/7/1 42/11/1 60/10/1
f 63/9/2 64/10/2 65/11/2 26/12/2
f 55/9/4 26/12/4 65/11/4 61/10/4
f 62/5/1 40/8/1 36/7/1 67/6/1
f 72/9/1 37/12/1 40/11/1 62/10/1
f 54/9/5 34/12/5 69/11/5 68/10/5
f 71/9/3 70/10/3 69/11/3 34/12/3
f 39/9/1 59/7/1 48/11/1 35/10/1
f 44/5/1 49/8/1 59/7/1 39/6/1
f 37/9/1 57/12/1 49/11/1 44/10/1
f 43/9/1 80/7/1 77/11/1 38/10/1
f 41/5/1 78/8/1 80/7/1 43/6/1
f 35/9/1 79/12/1 78/11/1 41/10/1
f 93/9/6 91/10/6 84/11/6 75/7/6
f 92/5/6 93/6/6 75/7/6 82/8/6
f 94/9/6 92/10/6 82/11/6 74/12/6
f 81/9/6 76/10/6 87/11/6 90/7/6
f 86/5/6 81/6/6 90/7/6 88/8/6
f 74/9/6 86/10/6 88/11/6 89/12/6
f 85/9/6 73/10/6 95/11/6 98/7/6
f 83/5/6 85/6/6 98/7/6 96/8/6
f 76/9/6 83/10/6 96/11/6 97/12/6
f 118/15/2 122/16/2 119/17/2 115/18/2
f 116/19/2 120/20/2 122/17/2 118/21/2
f 117/19/2 121/20/2 120/22/2 116/18/2
f 103/23/3 105/18/3 101/17/3 99/20/3
f 105/19/3 104/24/3 100/25/3 101/26/3
f 104/27/3 106/28/3 102/29/3 100/30/3
f 108/25/4 109/31/4 113/32/4 112/28/4
f 110/33/4 108/31/4 112/32/4 114/34/4
f 107/25/4 110/35/4 114/36/4 111/28/4
f 125/1/1 126/2/1 124/3/1 123/4/1
f 127/5/2 129/6/2 143/7/2 145/8/2
f 129/9/2 128/10/2 137/11/2 143/7/2
f 130/9/3 132/10/3 142/11/3 139/12/3
f 132/5/3 131/6/3 138/7/3 142/8/3
f 130/5/4 139/8/4 146/7/4 133/6/4
f 133/9/4 146/7/4 141/11/4 134/10/4
f 134/5/4 141/8/4 137/13/4 128/6/4
f 135/9/2 127/10/2 145/11/2 140/14/2
f 131/9/3 136/10/3 144/11/3 138/7/3
f 147/5/2 149/6/2 153/7/2 154/8/2
f 149/9/2 148/10/2 151/11/2 153/7/2
f 150/9/2 147/10/2 154/11/2 152/14/2
f 155/5/4 157/6/4 159/7/4 160/8/4
f 157/9/4 156/10/4 158/11/4 159/7/4
f 148/9/4 155/10/4 160/11/4 151/14/4
f 161/5/3 163/6/3 165/7/3 166/8/3
f 163/9/3 162/10/3 164/11/3 165/7/3
f 156/9/3 161/10/3 166/11/3 158/14/3
f 167/5/5 168/6/5 169/7/5 170/8/5
f 168/9/5 150/10/5 152/11/5 169/7/5
f 162/9/5 167/10/5 170/11/5 164/14/5
f 171/37/2 173/38/2 187/39/2 189/40/2
f 173/41/2 172/42/2 181/43/2 187/44/2
f 174/41/3 176/42/3 186/43/3 183/44/3
f 176/37/3 175/38/3 182/39/3 186/40/3
f 174/37/4 183/40/4 190/39/4 177/38/4
f 177/41/4 190/44/4 185/43/4 178/42/4
f 178/37/4 185/40/4 181/39/4 172/38/4
f 179/41/2 171/42/2 189/43/2 184/44/2
f 175/41/3 180/42/3 188/43/3 182/44/3
f 238/45/6 212/46/6 192/47/6 213/48/6
f 237/49/6 214/46/6 195/47/6 215/48/6
f 236/50/6 216/46/6 197/47/6 217/48/6
f 235/51/6 219/46/6 199/47/6 220/48/6
f 234/52/6 218/46/6 201/47/6 223/48/6
f 228/53/6 209/54/6 230/46/6 231/55/6
f 210/56/6 228/53/6 231/55/6 229/57/6
f 225/53/6 206/54/6 229/46/6 232/58/6
f 207/56/6 225/53/6 232/58/6 226/57/6
f 226/57/6 232/58/6 227/48/6 208/59/6
f 204/56/6 227/53/6 233/60/6 224/57/6
f 224/57/6 233/60/6 221/48/6 205/59/6
f 202/56/6 221/53/6 234/52/6 222/57/6
f 222/57/6 234/52/6 223/48/6 203/59/6
f 218/57/6 235/51/6 220/48/6 200/59/6
f 215/53/6 196/54/6 216/46/6 236/50/6
f 219/57/6 236/50/6 217/48/6 198/59/6
f 213/53/6 194/54/6 214/46/6 237/49/6
f 211/53/6 191/54/6 212/46/6 238/45/6
f 193/56/6 211/53/6 238/45/6 230/57/6
f 227/61/7 244/62/7 249/63/7 233/64/7
f 230/65/8 246/66/8 247/67/8 231/68/8
f 233/69/9 249/70/9 243/71/9 221/72/9
f 221/65/10 243/73/10 250/74/10 234/75/10
f 231/76/11 247/70/11 245/77/11 229/72/11
f 237/78/12 253/79/12 239/80/12 213/68/12
f 234/69/13 250/81/13 241/77/13 218/72/13
f 215/82/14 240/83/14 253/71/14 237/72/14
f 219/84/15 242/73/15 252/67/15 236/68/15
f 235/61/16 251/62/16 242/71/16 219/64/16
f 236/85/17 252/86/17 240/63/17 215/87/17
f 218/65/18 241/66/18 251/74/18 235/88/18
f 238/89/19 254/90/19 246/77/19 230/72/19
f 232/91/20 248/92/20 244/71/20 227/64/20
f 213/76/21 239/62/21 254/93/21 238/94/21
f 229/65/22 245/66/22 248/95/22 232/96/22
f 245/97/6 247/98/6 246/99/6 255/100/6
f 255/100/6 246/99/6 254/101/6 258/102/6
f 258/102/6 254/101/6 239/103/6 261/104/6
f 261/104/6 239/103/6 253/105/6 240/106/6
f 248/107/6 245/97/6 255/100/6 256/108/6
f 256/108/6 255/100/6 258/102/6 259/109/6
f 259/109/6 258/102/6 261/104/6 262/110/6
f 262/110/6 261/104/6 240/106/6 252/111/6
f 244/112/6 248/107/6 256/108/6 257/113/6
f 257/113/6 256/108/6 259/109/6 260/114/6
f 260/114/6 259/109/6 262/110/6 263/115/6
f 263/115/6 262/110/6 252/111/6 242/116/6
f 249/117/6 244/112/6 257/113/6 243/118/6
f 243/118/6 257/113/6 260/114/6 250/119/6
f 250/119/6 260/114/6 263/115/6 241/120/6
f 241/120/6 263/115/6 242/116/6 251/121/6
f 279/122/1 269/3/1 278/123/1 268/4/1 276/124/1 270/1/1 277/125/1 271/2/1
f 282/126/23 284/127/23 283/128/23 280/129/23
f 281/130/6 289/131/6 285/132/6 282/133/6
f 291/134/24 282/135/24 288/136/24 287/137/24
f 282/126/25 280/129/25 296/136/25 288/138/25
f 286/139/6 282/140/6 285/141/6 290/132/6
f 282/135/26 291/134/26 292/142/26 284/143/26
f 286/139/6 293/144/6 295/145/6 282/140/6
f 281/130/6 282/133/6 295/144/6 294/146/6
f 285/141/4 299/147/4 303/148/4 290/132/4
f 288/136/2 301/149/2 300/150/2 287/137/2
f 289/131/4 302/151/4 299/148/4 285/132/4
f 296/136/2 305/149/2 301/152/2 288/138/2
f 292/142/3 304/153/3 298/154/3 284/143/3
f 284/127/3 298/155/3 297/156/3 283/128/3
f 295/144/5 307/152/5 306/157/5 294/146/5
f 295/145/5 293/144/5 308/152/5 307/149/5
f 275/122/1 265/3/1 274/123/1 264/4/1 272/124/1 266/1/1 273/125/1 267/2/1
f 310/158/1 311/159/1 309/160/1 2/161/1
f 269/158/1 312/159/1 311/160/1 310/161/1
f 316/162/1 312/160/1 315/163/1 269/161/1 279/164/1 271/158/1 314/165/1 313/159/1
f 52/9/2 184/10/2 318/11/2 50/12/2
f 70/9/3 317/10/3 188/11/3 69/12/3
f 168/9/6 319/12/6 318/11/6 150/10/6
f 167/9/6 320/12/6 319/11/6 168/10/6
f 188/9/6 317/12/6 320/11/6 167/10/6
