# Blender 4.3.2
# www.blender.org
mtllib corridorCorner.mtl
o corridor_straight.006
v 2.499998 -2.500000 -2.500001
v 2.500001 -2.500000 2.499999
v -2.500000 -2.500000 -2.499999
v -2.499998 -2.500000 2.500001
v -2.499998 2.500000 2.500001
v -2.500000 2.500000 -2.499999
v 2.500001 2.500000 2.499999
v 2.499998 2.500000 -2.500001
v 2.499998 -2.500000 -2.500001
v 2.499998 2.500000 -2.500001
v -2.500000 -2.500000 -2.499999
v -2.500000 2.500000 -2.499999
vn -0.0000 1.0000 -0.0000
vn -0.0000 -1.0000 -0.0000
vn -0.0000 -0.0000 1.0000
vn 1.0000 -0.0000 -0.0000
vt 0.293198 0.850996
vt 0.293199 0.999620
vt 0.442084 0.999615
vt 0.441962 0.850988
vt 0.442248 0.999735
vt 0.293236 0.999735
vt 0.293236 0.850778
vt 0.442248 0.850778
vt 0.292969 0.511719
vt 0.000000 0.511719
vt 0.000000 0.804688
vt 0.292969 0.804688
s 0
usemtl Material
f 3/1/1 4/2/1 2/3/1 1/4/1
f 6/5/2 8/6/2 7/7/2 5/8/2
f 11/9/3 9/10/3 10/11/3 12/12/3
f 4/9/4 11/10/4 12/11/4 5/12/4
