# Blender 4.3.2
# www.blender.org
mtllib corridorStairs.mtl
o corridor_straight.010
v -2.500000 2.500000 -2.499999
v -2.500000 7.500000 -2.499999
v -2.499999 2.500000 2.500000
v -2.499999 7.500000 2.500000
v 2.500000 7.500000 2.499999
v -2.499999 7.500000 2.500000
v 2.499999 7.500000 -2.500001
v -2.500000 7.500000 -2.499999
v -2.500000 -2.500000 -2.499999
v -2.500000 2.500000 -2.499999
v -2.499999 -2.500000 2.500000
v -2.499999 2.500000 2.500000
v 2.499999 -2.500000 -2.500001
v 2.499999 2.499999 -2.500001
v 2.500000 -2.500000 2.499999
v 2.500000 2.499999 2.499999
v 2.500000 2.500000 2.499999
v 2.500000 7.499999 2.499999
v 2.500000 2.500000 -2.500000
v 2.500000 7.499999 -2.500000
v -2.499999 -2.500000 2.500000
v 2.500000 -2.500000 2.499999
v -2.499999 -2.500000 1.875000
v 2.500000 -1.875000 1.874999
v -2.499999 -1.875001 1.875000
v 2.500000 -2.500000 1.874999
v -2.499999 -1.875000 1.874999
v 2.500000 -1.875000 1.874997
v -2.499999 -1.875000 1.249999
v 2.500000 -1.250000 1.249997
v -2.499999 -1.250001 1.249998
v 2.500000 -1.875000 1.249997
v -2.499999 -1.250000 1.249997
v 2.500000 -1.250000 1.249995
v -2.499999 -1.250000 0.624997
v 2.500000 -0.625000 0.624995
v -2.499999 -0.625001 0.624997
v 2.500000 -1.250000 0.624995
v -2.499999 -0.625000 0.624995
v 2.500000 -0.625000 0.624994
v -2.499999 -0.625000 -0.000004
v 2.500000 -0.000000 -0.000006
v -2.499999 -0.000001 -0.000005
v 2.500000 -0.625000 -0.000006
v -2.499999 -0.000000 -0.000006
v 2.500000 -0.000000 -0.000008
v -2.499999 -0.000000 -0.625006
v 2.500000 0.625000 -0.625008
v -2.499999 0.624999 -0.625007
v 2.500000 -0.000000 -0.625008
v -2.499999 0.625000 -0.625008
v 2.500000 0.625000 -0.625010
v -2.499999 0.625000 -1.250008
v 2.500000 1.250000 -1.250010
v -2.499999 1.249999 -1.250008
v 2.500000 0.625000 -1.250010
v -2.499999 1.250000 -1.250010
v 2.500000 1.250000 -1.250012
v -2.499999 1.250000 -1.875010
v 2.500000 1.875000 -1.875011
v -2.499999 1.874999 -1.875010
v 2.500000 1.250000 -1.875011
v -2.499999 1.875000 -1.875012
v 2.500000 1.875000 -1.875013
v -2.499999 1.875000 -2.500011
v 2.500000 2.500000 -2.500013
v -2.499999 2.499999 -2.500012
v 2.500000 1.875000 -2.500013
vn 1.0000 -0.0000 -0.0000
vn -0.0000 -1.0000 -0.0000
vn -1.0000 -0.0000 -0.0000
vn -0.0000 1.0000 -0.0000
vn -0.0000 -0.0000 1.0000
vn -0.0000 -0.0000 -1.0000
vt 0.292969 0.707031
vt 0.000000 0.707031
vt 0.000000 1.000000
vt 0.292969 1.000000
vt 0.442248 0.999735
vt 0.293236 0.999735
vt 0.293236 0.850778
vt 0.442248 0.850778
vt 0.292969 0.511719
vt 0.000000 0.511719
vt 0.000000 0.804688
vt 0.292969 0.804688
vt 0.340073 0.850996
vt 0.340074 0.999620
vt 0.358685 0.999619
vt 0.358668 0.850995
vt 0.377295 0.999618
vt 0.377264 0.850994
vt 0.386948 0.850996
vt 0.386949 0.999620
vt 0.405560 0.999619
vt 0.405543 0.850995
vt 0.424170 0.999618
vt 0.424139 0.850994
vt 0.324448 0.850996
vt 0.324449 0.999620
vt 0.343060 0.999619
vt 0.343043 0.850995
vt 0.361670 0.999618
vt 0.361639 0.850994
vt 0.402573 0.850996
vt 0.402574 0.999620
vt 0.421185 0.999619
vt 0.421168 0.850995
vt 0.439795 0.999618
vt 0.439764 0.850994
vt 0.371323 0.850996
vt 0.371324 0.999620
vt 0.389935 0.999619
vt 0.389918 0.850995
vt 0.408545 0.999618
vt 0.408514 0.850994
vt 0.355698 0.850996
vt 0.355699 0.999620
vt 0.374310 0.999619
vt 0.374293 0.850995
vt 0.392920 0.999618
vt 0.392889 0.850994
vt 0.293198 0.850996
vt 0.293199 0.999620
vt 0.311810 0.999619
vt 0.311793 0.850995
vt 0.330420 0.999618
vt 0.330389 0.850994
s 0
usemtl Material
f 3/1/1 1/2/1 2/3/1 4/4/1
f 6/5/2 8/6/2 7/7/2 5/8/2
f 11/9/1 9/10/1 10/11/1 12/12/1
f 15/9/3 16/12/3 14/11/3 13/10/3
f 19/1/3 17/2/3 18/3/3 20/4/3
f 21/13/4 22/14/4 26/15/4 23/16/4
f 23/16/5 26/15/5 24/17/5 25/18/5
f 27/19/4 28/20/4 32/21/4 29/22/4
f 29/22/5 32/21/5 30/23/5 31/24/5
f 33/13/4 34/14/4 38/15/4 35/16/4
f 35/16/5 38/15/5 36/17/5 37/18/5
f 39/25/4 40/26/4 44/27/4 41/28/4
f 41/28/5 44/27/5 42/29/5 43/30/5
f 45/31/4 46/32/4 50/33/4 47/34/4
f 47/34/5 50/33/5 48/35/5 49/36/5
f 51/37/4 52/38/4 56/39/4 53/40/4
f 53/40/5 56/39/5 54/41/5 55/42/5
f 57/43/4 58/44/4 62/45/4 59/46/4
f 59/46/5 62/45/5 60/47/5 61/48/5
f 63/49/4 64/50/4 68/51/4 65/52/4
f 65/52/5 68/51/5 66/53/5 67/54/5
f 3/1/6 4/4/6 5/3/6 16/2/6
