# Blender 4.3.2
# www.blender.org
mtllib junction1.mtl
o corridor_straight.026
v -7.500000 -2.500000 2.500000
v -7.500000 2.500000 2.500000
v -2.500001 -2.500000 2.499999
v -2.500001 2.500000 2.499999
v -2.499999 -2.500000 2.500000
v -2.500000 -2.500000 -2.499999
v 2.500000 -2.500000 2.499999
v 2.499998 -2.500000 -2.500000
v 2.500001 -2.500000 2.500000
v 2.500000 -2.500000 -2.499999
v 7.499999 -2.500000 2.499999
v 7.499999 -2.500000 -2.500000
v -2.499999 -2.500000 -2.500000
v -2.500000 -2.500000 -7.500000
v 2.500000 -2.500000 -2.500000
v 2.499998 -2.500000 -7.500000
v -7.500000 -2.500000 2.500000
v -7.500000 -2.500000 -2.499999
v -2.500000 -2.500000 2.499999
v -2.500002 -2.500000 -2.500000
v -2.499999 -2.500000 7.500000
v -2.500000 -2.500000 2.500000
v 2.500000 -2.500000 7.500000
v 2.499998 -2.500000 2.500000
v 2.499999 -2.500000 7.499999
v 2.499999 2.500000 7.499999
v 2.499998 -2.500000 2.500000
v 2.499998 2.500000 2.500000
v -2.500001 -2.500000 2.500001
v -2.500001 2.500000 2.500001
v -2.500000 -2.500000 7.500000
v -2.500000 2.500000 7.500000
v -2.500001 -2.500000 -7.499999
v -2.500001 2.500000 -7.499999
v -2.500000 -2.500000 -2.500000
v -2.500000 2.500000 -2.500000
v -2.500003 -2.500000 -2.500000
v -2.500003 2.500000 -2.500000
v -7.500001 -2.500000 -2.499999
v -7.500001 2.500000 -2.499999
v 7.499998 -2.500000 -2.500000
v 7.499998 2.500000 -2.500000
v 2.499999 -2.500000 -2.500000
v 2.499999 2.500000 -2.500000
v 2.499999 -2.500000 -2.500001
v 2.499999 2.500000 -2.500001
v 2.499998 -2.500000 -7.500000
v 2.499998 2.500000 -7.500000
v 2.499998 2.500000 -2.500000
v 2.500000 2.500000 2.499999
v -2.500000 2.500000 -2.499999
v -2.499999 2.500000 2.500000
v 7.499999 2.500000 -2.500000
v 7.499999 2.500000 2.499999
v 2.500000 2.500000 -2.499999
v 2.500001 2.500000 2.500000
v 2.499998 2.500000 -7.500000
v 2.500000 2.500000 -2.500000
v -2.500000 2.500000 -7.500000
v -2.499999 2.500000 -2.500000
v -2.500002 2.500000 -2.500000
v -2.500000 2.500000 2.499999
v -7.500000 2.500000 -2.499999
v -7.500000 2.500000 2.500000
v 2.499998 2.500000 2.500000
v 2.500000 2.500000 7.500000
v -2.500000 2.500000 2.500000
v -2.499999 2.500000 7.500000
v 2.500000 -2.500000 2.500000
v 2.500000 2.500000 2.500000
v 7.499999 -2.500000 2.499999
v 7.499999 2.500000 2.499999
vn -0.0000 -0.0000 -1.0000
vn -0.0000 1.0000 -0.0000
vn -1.0000 -0.0000 -0.0000
vn 1.0000 -0.0000 -0.0000
vn -0.0000 -0.0000 1.0000
vn -0.0000 -1.0000 -0.0000
vt 0.292969 0.511719
vt 0.000000 0.511719
vt 0.000000 0.804688
vt 0.292969 0.804688
vt 0.293198 0.850996
vt 0.293199 0.999620
vt 0.442084 0.999615
vt 0.441962 0.850988
vt 0.442248 0.999735
vt 0.293236 0.999735
vt 0.293236 0.850778
vt 0.442248 0.850778
s 1
usemtl Material
f 3/1/1 1/2/1 2/3/1 4/4/1
f 7/5/2 8/6/2 6/7/2 5/8/2
f 11/5/2 12/6/2 10/7/2 9/8/2
f 15/5/2 16/6/2 14/7/2 13/8/2
f 19/5/2 20/6/2 18/7/2 17/8/2
f 23/5/2 24/6/2 22/7/2 21/8/2
f 27/1/3 25/2/3 26/3/3 28/4/3
f 31/1/4 29/2/4 30/3/4 32/4/4
f 35/1/4 33/2/4 34/3/4 36/4/4
f 39/1/5 37/2/5 38/3/5 40/4/5
f 43/1/5 41/2/5 42/3/5 44/4/5
f 47/1/3 45/2/3 46/3/3 48/4/3
f 50/9/6 52/10/6 51/11/6 49/12/6
f 54/9/6 56/10/6 55/11/6 53/12/6
f 58/9/6 60/10/6 59/11/6 57/12/6
f 62/9/6 64/10/6 63/11/6 61/12/6
f 66/9/6 68/10/6 67/11/6 65/12/6
f 71/1/1 69/2/1 70/3/1 72/4/1
