# Blender 4.3.2
# www.blender.org
mtllib room5.mtl
o corridor_straight.030
v 32.500000 2.499998 -17.500000
v 32.500000 7.499998 -17.500000
v 27.500000 2.499998 -17.500000
v 27.500000 7.499998 -17.500000
v 12.500000 -2.500001 -2.500001
v 12.500000 -2.500002 -7.500002
v 17.500000 -2.500001 -2.500001
v 17.500000 -2.500002 -7.500002
v 17.500000 -2.500001 -2.500001
v 17.500000 -2.500002 -7.500002
v 22.500000 -2.500001 -2.500001
v 22.500000 -2.500002 -7.500002
v 22.500000 -2.500001 -2.500001
v 22.500000 -2.500002 -7.500002
v 27.500000 -2.500001 -2.500001
v 27.500000 -2.500002 -7.500002
v 27.500000 -2.500001 -2.500001
v 27.500000 -2.500002 -7.500002
v 32.500000 -2.500001 -2.500001
v 32.500000 -2.500002 -7.500002
v 32.500000 -2.500001 -2.500001
v 32.500000 -2.500002 -7.500002
v 37.500000 -2.500001 -2.500001
v 37.500000 -2.500002 -7.500002
v 32.500000 -2.500002 -7.500002
v 32.500000 -2.500002 -12.500000
v 37.500000 -2.500002 -7.500002
v 37.500000 -2.500002 -12.500000
v 27.500000 -2.500002 -7.500002
v 27.500000 -2.500002 -12.500000
v 32.500000 -2.500002 -7.500002
v 32.500000 -2.500002 -12.500000
v 22.500000 -2.500002 -7.500002
v 22.500000 -2.500002 -12.500000
v 27.500000 -2.500002 -7.500002
v 27.500000 -2.500002 -12.500000
v 17.500000 -2.500002 -7.500002
v 17.500000 -2.500002 -12.500000
v 22.500000 -2.500002 -7.500002
v 22.500000 -2.500002 -12.500000
v 12.500000 -2.500002 -7.500002
v 12.500000 -2.500002 -12.500000
v 17.500000 -2.500002 -7.500002
v 17.500000 -2.500002 -12.500000
v 12.500000 -2.500002 -12.500000
v 12.500000 -2.500002 -17.500000
v 17.500000 -2.500002 -12.500000
v 17.500000 -2.500002 -17.500000
v 17.500000 -2.500002 -12.500000
v 17.500000 -2.500002 -17.500000
v 22.500000 -2.500002 -12.500000
v 22.500000 -2.500002 -17.500000
v 22.500000 -2.500002 -12.500000
v 22.500000 -2.500002 -17.500000
v 27.500000 -2.500002 -12.500000
v 27.500000 -2.500002 -17.500000
v 27.500000 -2.500002 -12.500000
v 27.500000 -2.500002 -17.500000
v 32.500000 -2.500002 -12.500000
v 32.500000 -2.500002 -17.500000
v 32.500000 -2.500002 -12.500000
v 32.500000 -2.500002 -17.500000
v 37.500000 -2.500002 -12.500000
v 37.500000 -2.500002 -17.500000
v -2.500000 -2.500001 -2.500001
v -2.500000 -2.500002 -7.500002
v 2.500000 -2.500001 -2.500001
v 2.500000 -2.500002 -7.500002
v 2.500000 -2.500001 -2.500001
v 2.500000 -2.500002 -7.500002
v 7.500000 -2.500001 -2.500001
v 7.500000 -2.500002 -7.500002
v 7.500000 -2.500001 -2.500001
v 7.500000 -2.500002 -7.500002
v 12.500000 -2.500001 -2.500001
v 12.500000 -2.500002 -7.500002
v 7.500000 -2.500002 -7.500002
v 7.500000 -2.500002 -12.500000
v 12.500000 -2.500002 -7.500002
v 12.500000 -2.500002 -12.500000
v 2.500000 -2.500002 -7.500002
v 2.500000 -2.500002 -12.500000
v 7.500000 -2.500002 -7.500002
v 7.500000 -2.500002 -12.500000
v -2.500000 -2.500002 -7.500002
v -2.500000 -2.500002 -12.500000
v 2.500000 -2.500002 -7.500002
v 2.500000 -2.500002 -12.500000
v -2.500000 -2.500002 -12.500000
v -2.500000 -2.500002 -17.500000
v 2.500000 -2.500002 -12.500000
v 2.500000 -2.500002 -17.500000
v 2.500000 -2.500002 -12.500000
v 2.500000 -2.500002 -17.500000
v 7.500000 -2.500002 -12.500000
v 7.500000 -2.500002 -17.500000
v 7.500000 -2.500002 -12.500000
v 7.500000 -2.500002 -17.500000
v 12.500000 -2.500002 -12.500000
v 12.500000 -2.500002 -17.500000
v 7.500000 -2.500001 2.499999
v 7.500000 -2.500001 -2.500001
v 12.500000 -2.500001 2.499999
v 12.500000 -2.500001 -2.500001
v 2.500000 -2.500001 2.499999
v 2.500000 -2.500001 -2.500001
v 7.500000 -2.500001 2.499999
v 7.500000 -2.500001 -2.500001
v -2.500000 -2.500001 2.499999
v -2.500000 -2.500001 -2.500001
v 2.500000 -2.500001 2.499999
v 2.500000 -2.500001 -2.500001
v 32.500000 -2.500001 2.499999
v 32.500000 -2.500001 -2.500001
v 37.500000 -2.500001 2.499999
v 37.500000 -2.500001 -2.500001
v 27.500000 -2.500001 2.499999
v 27.500000 -2.500001 -2.500001
v 32.500000 -2.500001 2.499999
v 32.500000 -2.500001 -2.500001
v 22.500000 -2.500001 2.499999
v 22.500000 -2.500001 -2.500001
v 27.500000 -2.500001 2.499999
v 27.500000 -2.500001 -2.500001
v 17.500000 -2.500001 2.499999
v 17.500000 -2.500001 -2.500001
v 22.500000 -2.500001 2.499999
v 22.500000 -2.500001 -2.500001
v 12.500000 -2.500001 2.499999
v 12.500000 -2.500001 -2.500001
v 17.500000 -2.500001 2.499999
v 17.500000 -2.500001 -2.500001
v 7.677675 2.374998 -17.375002
v 7.677675 2.968903 -17.375002
v 7.677675 2.968903 -17.625004
v 7.677675 2.374998 -17.625004
v 2.625000 -2.500002 -17.375002
v 2.375000 -2.500002 -17.375002
v 2.375000 -2.500002 -17.625004
v 2.625000 -2.500002 -17.625004
v 2.322325 2.374998 -17.375002
v 2.322325 2.968903 -17.375002
v 2.322325 2.968903 -17.625004
v 2.322325 2.374998 -17.625004
v 2.625000 2.374998 -17.375002
v 2.375000 2.374998 -17.375002
v 2.375000 2.374998 -17.625004
v 2.625000 2.374998 -17.625004
v 7.625000 -2.500002 -17.375002
v 7.375000 -2.500002 -17.375002
v 7.375000 -2.500002 -17.625004
v 7.625000 -2.500002 -17.625004
v 7.625000 2.374998 -17.375002
v 7.375000 2.374998 -17.375002
v 7.375000 2.374998 -17.625004
v 7.625000 2.374998 -17.625004
v 32.677673 2.374998 -17.375002
v 32.677673 2.968903 -17.375002
v 32.677673 2.968903 -17.625004
v 32.677673 2.374998 -17.625004
v 27.625000 -2.500002 -17.375002
v 27.375000 -2.500002 -17.375002
v 27.375000 -2.500002 -17.625004
v 27.625000 -2.500002 -17.625004
v 27.322327 2.374998 -17.375002
v 27.322327 2.968903 -17.375002
v 27.322327 2.968903 -17.625004
v 27.322327 2.374998 -17.625004
v 27.625000 2.374998 -17.375002
v 27.375000 2.374998 -17.375002
v 27.375000 2.374998 -17.625004
v 27.625000 2.374998 -17.625004
v 32.625000 -2.500002 -17.375002
v 32.375000 -2.500002 -17.375002
v 32.375000 -2.500002 -17.625004
v 32.625000 -2.500002 -17.625004
v 32.625000 2.374998 -17.375002
v 32.375000 2.374998 -17.375002
v 32.375000 2.374998 -17.625004
v 32.625000 2.374998 -17.625004
v 37.500000 -2.500001 2.499999
v 37.500000 2.499999 2.499999
v 37.500000 -2.500001 -2.500001
v 37.500000 2.499999 -2.500001
v 37.500000 2.499999 2.499999
v 37.500000 7.499999 2.499999
v 37.500000 2.499999 -2.500001
v 37.500000 7.499999 -2.500002
v 37.500000 -2.500001 -2.500001
v 37.500000 2.499999 -2.500001
v 37.500000 -2.500002 -7.500002
v 37.500000 2.499998 -7.500002
v 37.500000 2.499999 -2.500001
v 37.500000 7.499999 -2.500002
v 37.500000 2.499998 -7.500002
v 37.500000 7.499998 -7.500002
v 37.500000 -2.500002 -7.500002
v 37.500000 2.499998 -7.500002
v 37.500000 -2.500002 -12.500000
v 37.500000 2.499998 -12.500000
v 37.500000 2.499998 -7.500002
v 37.500000 7.499998 -7.500002
v 37.500000 2.499998 -12.500000
v 37.500000 7.499998 -12.500000
v 37.500000 -2.500002 -12.500000
v 37.500000 2.499998 -12.500000
v 37.500000 -2.500002 -17.500000
v 37.500000 2.499998 -17.500000
v 37.500000 2.499998 -12.500000
v 37.500000 7.499998 -12.500000
v 37.500000 2.499998 -17.500000
v 37.500000 7.499998 -17.500000
v 37.499996 -2.500002 -17.500000
v 37.499996 2.499998 -17.500000
v 32.500000 -2.500002 -17.500000
v 32.500000 2.499998 -17.500000
v 37.499996 2.499998 -17.500000
v 37.499996 7.499998 -17.500000
v 32.500000 2.499998 -17.500000
v 32.500000 7.499998 -17.500000
v 27.500000 -2.500002 -17.500000
v 27.500000 2.499998 -17.500000
v 22.500000 -2.500002 -17.500000
v 22.500000 2.499998 -17.500000
v 27.500000 2.499998 -17.500000
v 27.500000 7.499998 -17.500000
v 22.500000 2.499998 -17.500000
v 22.500000 7.499998 -17.500000
v 22.500000 -2.500002 -17.500000
v 22.500000 2.499998 -17.500000
v 17.500000 -2.500002 -17.500000
v 17.500000 2.499998 -17.500000
v 22.500000 2.499998 -17.500000
v 22.500000 7.499998 -17.500000
v 17.500000 2.499998 -17.500000
v 17.500000 7.499998 -17.500000
v 17.500000 -2.500002 -17.500000
v 17.500000 2.499998 -17.500000
v 12.500000 -2.500002 -17.500000
v 12.500000 2.499998 -17.500000
v 17.500000 2.499998 -17.500000
v 17.500000 7.499998 -17.500000
v 12.500000 2.499998 -17.500000
v 12.500000 7.499998 -17.500000
v 12.500000 -2.500002 -17.500000
v 12.500000 2.499998 -17.500000
v 7.500000 -2.500002 -17.500000
v 7.500000 2.499998 -17.500000
v 12.500000 2.499998 -17.500000
v 12.500000 7.499998 -17.500000
v 7.500000 2.499998 -17.500000
v 7.500000 7.499998 -17.500000
v 2.500000 -2.500002 -17.500000
v 2.500000 2.499998 -17.500000
v -2.500000 -2.500002 -17.500000
v -2.500000 2.499998 -17.500000
v 2.500000 2.499998 -17.500000
v 2.500000 7.499998 -17.500000
v -2.500000 2.499998 -17.500000
v -2.500000 7.499998 -17.500000
v -2.500000 -2.500002 -17.500000
v -2.500000 2.499998 -17.500000
v -2.500000 -2.500002 -12.500000
v -2.500000 2.499998 -12.500000
v -2.500000 2.499998 -17.500000
v -2.500000 7.499998 -17.500000
v -2.500000 2.499998 -12.500000
v -2.500000 7.499998 -12.500000
v -2.500000 -2.500002 -12.500000
v -2.500000 2.499998 -12.500000
v -2.500000 -2.500002 -7.500002
v -2.500000 2.499998 -7.500002
v -2.500000 2.499998 -12.500000
v -2.500000 7.499998 -12.500000
v -2.500000 2.499998 -7.500002
v -2.500000 7.499998 -7.500002
v -2.500000 -2.500002 -7.500002
v -2.500000 2.499998 -7.500002
v -2.500000 -2.500001 -2.500001
v -2.500000 2.499999 -2.500001
v -2.500000 2.499998 -7.500002
v -2.500000 7.499998 -7.500002
v -2.500000 2.499999 -2.500001
v -2.500000 7.499999 -2.500002
v -2.500000 -2.500001 -2.500001
v -2.500000 2.499999 -2.500001
v -2.500000 -2.500001 2.499999
v -2.500000 2.499999 2.499999
v -2.500000 2.499999 -2.500001
v -2.500000 7.499999 -2.500002
v -2.500000 2.499999 2.499999
v -2.500000 7.499999 2.499999
v 7.500000 7.499999 2.499999
v 7.500000 2.499999 2.499999
v 2.500000 2.499999 2.499999
v 7.500000 -2.500001 2.499999
v 7.500000 2.499998 -17.500000
v 7.500000 7.499998 -17.500000
v 2.500000 2.499998 -17.500000
v 2.500000 7.499998 -17.500000
v 22.500000 7.499999 -2.500002
v 22.500000 7.499999 2.499999
v 17.500000 7.499999 -2.500002
v 17.500000 7.499999 2.499999
v 27.500000 7.499999 -2.500002
v 27.500000 7.499999 2.499999
v 22.500000 7.499999 -2.500002
v 22.500000 7.499999 2.499999
v 32.500000 7.499999 -2.500002
v 32.500000 7.499999 2.499999
v 27.500000 7.499999 -2.500002
v 27.500000 7.499999 2.499999
v 37.500000 7.499999 -2.500002
v 37.500000 7.499999 2.499999
v 32.500000 7.499999 -2.500002
v 32.500000 7.499999 2.499999
v 22.500000 7.499998 -7.500002
v 22.500000 7.499999 -2.500002
v 17.500000 7.499998 -7.500002
v 17.500000 7.499999 -2.500002
v 27.500000 7.499998 -7.500002
v 27.500000 7.499999 -2.500002
v 22.500000 7.499998 -7.500002
v 22.500000 7.499999 -2.500002
v 32.500000 7.499998 -7.500002
v 32.500000 7.499999 -2.500002
v 27.500000 7.499998 -7.500002
v 27.500000 7.499999 -2.500002
v 37.500000 7.499998 -7.500002
v 37.500000 7.499999 -2.500002
v 32.500000 7.499998 -7.500002
v 32.500000 7.499999 -2.500002
v 22.500000 7.499998 -12.500000
v 22.500000 7.499998 -7.500002
v 17.500000 7.499998 -12.500000
v 17.500000 7.499998 -7.500002
v 27.500000 7.499998 -12.500000
v 27.500000 7.499998 -7.500002
v 22.500000 7.499998 -12.500000
v 22.500000 7.499998 -7.500002
v 32.500000 7.499998 -12.500000
v 32.500000 7.499998 -7.500002
v 27.500000 7.499998 -12.500000
v 27.500000 7.499998 -7.500002
v 37.500000 7.499998 -12.500000
v 37.500000 7.499998 -7.500002
v 32.500000 7.499998 -12.500000
v 32.500000 7.499998 -7.500002
v 22.500000 7.499998 -17.500000
v 22.500000 7.499998 -12.500000
v 17.500000 7.499998 -17.500000
v 17.500000 7.499998 -12.500000
v 27.500000 7.499998 -17.500000
v 27.500000 7.499998 -12.500000
v 22.500000 7.499998 -17.500000
v 22.500000 7.499998 -12.500000
v 32.500000 7.499998 -17.500000
v 32.500000 7.499998 -12.500000
v 27.500000 7.499998 -17.500000
v 27.500000 7.499998 -12.500000
v 37.500000 7.499998 -17.500000
v 37.500000 7.499998 -12.500000
v 32.500000 7.499998 -17.500000
v 32.500000 7.499998 -12.500000
v 2.500000 7.499999 -2.500002
v 2.500000 7.499999 2.499999
v -2.500000 7.499999 -2.500002
v -2.500000 7.499999 2.499999
v 7.500000 7.499999 -2.500002
v 7.500000 7.499999 2.499999
v 2.500000 7.499999 -2.500002
v 2.500000 7.499999 2.499999
v 12.500000 7.499999 -2.500002
v 12.500000 7.499999 2.499999
v 7.500000 7.499999 -2.500002
v 7.500000 7.499999 2.499999
v 17.500000 7.499999 -2.500002
v 17.500000 7.499999 2.499999
v 12.500000 7.499999 -2.500002
v 12.500000 7.499999 2.499999
v 2.500000 7.499998 -7.500002
v 2.500000 7.499999 -2.500002
v -2.500000 7.499998 -7.500002
v -2.500000 7.499999 -2.500002
v 7.500000 7.499998 -7.500002
v 7.500000 7.499999 -2.500002
v 2.500000 7.499998 -7.500002
v 2.500000 7.499999 -2.500002
v 12.500000 7.499998 -7.500002
v 12.500000 7.499999 -2.500002
v 7.500000 7.499998 -7.500002
v 7.500000 7.499999 -2.500002
v 17.500000 7.499998 -7.500002
v 17.500000 7.499999 -2.500002
v 12.500000 7.499998 -7.500002
v 12.500000 7.499999 -2.500002
v 2.500000 7.499998 -12.500000
v 2.500000 7.499998 -7.500002
v -2.500000 7.499998 -12.500000
v -2.500000 7.499998 -7.500002
v 7.500000 7.499998 -12.500000
v 7.500000 7.499998 -7.500002
v 2.500000 7.499998 -12.500000
v 2.500000 7.499998 -7.500002
v 12.500000 7.499998 -12.500000
v 12.500000 7.499998 -7.500002
v 7.500000 7.499998 -12.500000
v 7.500000 7.499998 -7.500002
v 17.500000 7.499998 -12.500000
v 17.500000 7.499998 -7.500002
v 12.500000 7.499998 -12.500000
v 12.500000 7.499998 -7.500002
v 2.500000 7.499998 -17.500000
v 2.500000 7.499998 -12.500000
v -2.500000 7.499998 -17.500000
v -2.500000 7.499998 -12.500000
v 7.500000 7.499998 -17.500000
v 7.500000 7.499998 -12.500000
v 2.500000 7.499998 -17.500000
v 2.500000 7.499998 -12.500000
v 12.500000 7.499998 -17.500000
v 12.500000 7.499998 -12.500000
v 7.500000 7.499998 -17.500000
v 7.500000 7.499998 -12.500000
v 17.500000 7.499998 -17.500000
v 17.500000 7.499998 -12.500000
v 12.500000 7.499998 -17.500000
v 12.500000 7.499998 -12.500000
v 12.500000 -2.500001 2.499999
v 12.500000 2.499999 2.499999
v 17.500000 -2.500001 2.499999
v 17.500000 2.499999 2.499999
v 12.500000 2.499999 2.499999
v 12.500000 7.499999 2.499999
v 17.500000 2.499999 2.499999
v 17.500000 7.499999 2.499999
v 17.500000 -2.500001 2.499999
v 17.500000 2.499999 2.499999
v 22.500000 -2.500001 2.499999
v 22.500000 2.499999 2.499999
v 17.500000 2.499999 2.499999
v 17.500000 7.499999 2.499999
v 22.500000 2.499999 2.499999
v 22.500000 7.499999 2.499999
v 22.500000 -2.500001 2.499999
v 22.500000 2.499999 2.499999
v 27.500000 -2.500001 2.499999
v 27.500000 2.499999 2.499999
v 22.500000 2.499999 2.499999
v 22.500000 7.499999 2.499999
v 27.500000 2.499999 2.499999
v 27.500000 7.499999 2.499999
v 27.500000 -2.500001 2.499999
v 27.500000 2.499999 2.499999
v 32.500000 -2.500001 2.499999
v 32.500000 2.499999 2.499999
v 27.500000 2.499999 2.499999
v 27.500000 7.499999 2.499999
v 32.500000 2.499999 2.499999
v 32.500000 7.499999 2.499999
v 32.500000 -2.500001 2.499999
v 32.500000 2.499999 2.499999
v 37.500000 -2.500001 2.499999
v 37.500000 2.499999 2.499999
v 32.500000 2.499999 2.499999
v 32.500000 7.499999 2.499999
v 37.500000 2.499999 2.499999
v 37.500000 7.499999 2.499999
vn -0.0000 -0.0000 1.0000
vn -0.0000 1.0000 -0.0000
vn -1.0000 -0.0000 -0.0000
vn 1.0000 -0.0000 -0.0000
vn -0.0000 -0.0000 -1.0000
vn -0.0000 -1.0000 -0.0000
vt 0.292969 0.707031
vt 0.000000 0.707031
vt 0.000000 1.000000
vt 0.292969 1.000000
vt 0.293198 0.850996
vt 0.293199 0.999620
vt 0.442084 0.999615
vt 0.441962 0.850988
vt 0.292969 0.511719
vt 0.000000 0.511719
vt 0.000000 0.804688
vt 0.292969 0.804688
vt 0.442248 0.999735
vt 0.293236 0.999735
vt 0.293236 0.850778
vt 0.442248 0.850778
vt 0.121468 0.585684
vt 0.072840 0.585684
vt 0.072840 0.609782
vt 0.121468 0.609782
vt 0.268390 0.542422
vt 0.024736 0.542422
vt 0.024736 0.556766
vt 0.268390 0.556766
vt 0.023913 0.536758
vt 0.023913 0.561051
vt 0.267994 0.561051
vt 0.267994 0.536758
s 0
usemtl Material.005
f 3/1/1 1/2/1 2/3/1 4/4/1
f 7/5/2 8/6/2 6/7/2 5/8/2
f 11/5/2 12/6/2 10/7/2 9/8/2
f 15/5/2 16/6/2 14/7/2 13/8/2
f 19/5/2 20/6/2 18/7/2 17/8/2
f 23/5/2 24/6/2 22/7/2 21/8/2
f 27/5/2 28/6/2 26/7/2 25/8/2
f 31/5/2 32/6/2 30/7/2 29/8/2
f 35/5/2 36/6/2 34/7/2 33/8/2
f 39/5/2 40/6/2 38/7/2 37/8/2
f 43/5/2 44/6/2 42/7/2 41/8/2
f 47/5/2 48/6/2 46/7/2 45/8/2
f 51/5/2 52/6/2 50/7/2 49/8/2
f 55/5/2 56/6/2 54/7/2 53/8/2
f 59/5/2 60/6/2 58/7/2 57/8/2
f 63/5/2 64/6/2 62/7/2 61/8/2
f 67/5/2 68/6/2 66/7/2 65/8/2
f 71/5/2 72/6/2 70/7/2 69/8/2
f 75/5/2 76/6/2 74/7/2 73/8/2
f 79/5/2 80/6/2 78/7/2 77/8/2
f 83/5/2 84/6/2 82/7/2 81/8/2
f 87/5/2 88/6/2 86/7/2 85/8/2
f 91/5/2 92/6/2 90/7/2 89/8/2
f 95/5/2 96/6/2 94/7/2 93/8/2
f 99/5/2 100/6/2 98/7/2 97/8/2
f 103/5/2 104/6/2 102/7/2 101/8/2
f 107/5/2 108/6/2 106/7/2 105/8/2
f 111/5/2 112/6/2 110/7/2 109/8/2
f 115/5/2 116/6/2 114/7/2 113/8/2
f 119/5/2 120/6/2 118/7/2 117/8/2
f 123/5/2 124/6/2 122/7/2 121/8/2
f 127/5/2 128/6/2 126/7/2 125/8/2
f 131/5/2 132/6/2 130/7/2 129/8/2
f 183/9/3 181/10/3 182/11/3 184/12/3
f 187/1/3 185/2/3 186/3/3 188/4/3
f 191/9/3 189/10/3 190/11/3 192/12/3
f 195/1/3 193/2/3 194/3/3 196/4/3
f 199/9/3 197/10/3 198/11/3 200/12/3
f 203/1/3 201/2/3 202/3/3 204/4/3
f 207/9/3 205/10/3 206/11/3 208/12/3
f 211/1/3 209/2/3 210/3/3 212/4/3
f 215/9/1 213/10/1 214/11/1 216/12/1
f 219/1/1 217/2/1 218/3/1 220/4/1
f 223/9/1 221/10/1 222/11/1 224/12/1
f 227/1/1 225/2/1 226/3/1 228/4/1
f 231/9/1 229/10/1 230/11/1 232/12/1
f 235/1/1 233/2/1 234/3/1 236/4/1
f 239/9/1 237/10/1 238/11/1 240/12/1
f 243/1/1 241/2/1 242/3/1 244/4/1
f 247/9/1 245/10/1 246/11/1 248/12/1
f 251/1/1 249/2/1 250/3/1 252/4/1
f 255/9/1 253/10/1 254/11/1 256/12/1
f 259/1/1 257/2/1 258/3/1 260/4/1
f 263/9/4 261/10/4 262/11/4 264/12/4
f 267/1/4 265/2/4 266/3/4 268/4/4
f 271/9/4 269/10/4 270/11/4 272/12/4
f 275/1/4 273/2/4 274/3/4 276/4/4
f 279/9/4 277/10/4 278/11/4 280/12/4
f 283/1/4 281/2/4 282/3/4 284/4/4
f 287/9/4 285/10/4 286/11/4 288/12/4
f 291/1/4 289/2/4 290/3/4 292/4/4
f 433/1/5 294/2/5 293/3/5 374/4/5
f 103/9/5 296/10/5 294/11/5 433/12/5
f 294/1/5 295/2/5 372/3/5 293/4/5
f 296/9/5 105/10/5 295/11/5 294/12/5
f 299/1/1 297/2/1 298/3/1 300/4/1
f 302/13/6 304/14/6 303/15/6 301/16/6
f 306/13/6 308/14/6 307/15/6 305/16/6
f 310/13/6 312/14/6 311/15/6 309/16/6
f 314/13/6 316/14/6 315/15/6 313/16/6
f 318/13/6 320/14/6 319/15/6 317/16/6
f 322/13/6 324/14/6 323/15/6 321/16/6
f 326/13/6 328/14/6 327/15/6 325/16/6
f 330/13/6 332/14/6 331/15/6 329/16/6
f 334/13/6 336/14/6 335/15/6 333/16/6
f 338/13/6 340/14/6 339/15/6 337/16/6
f 342/13/6 344/14/6 343/15/6 341/16/6
f 346/13/6 348/14/6 347/15/6 345/16/6
f 350/13/6 352/14/6 351/15/6 349/16/6
f 354/13/6 356/14/6 355/15/6 353/16/6
f 358/13/6 360/14/6 359/15/6 357/16/6
f 362/13/6 364/14/6 363/15/6 361/16/6
f 366/13/6 368/14/6 367/15/6 365/16/6
f 370/13/6 372/14/6 371/15/6 369/16/6
f 374/13/6 376/14/6 375/15/6 373/16/6
f 378/13/6 380/14/6 379/15/6 377/16/6
f 382/13/6 384/14/6 383/15/6 381/16/6
f 386/13/6 388/14/6 387/15/6 385/16/6
f 390/13/6 392/14/6 391/15/6 389/16/6
f 394/13/6 396/14/6 395/15/6 393/16/6
f 398/13/6 400/14/6 399/15/6 397/16/6
f 402/13/6 404/14/6 403/15/6 401/16/6
f 406/13/6 408/14/6 407/15/6 405/16/6
f 410/13/6 412/14/6 411/15/6 409/16/6
f 414/13/6 416/14/6 415/15/6 413/16/6
f 418/13/6 420/14/6 419/15/6 417/16/6
f 422/13/6 424/14/6 423/15/6 421/16/6
f 426/13/6 428/14/6 427/15/6 425/16/6
f 431/9/5 429/10/5 430/11/5 432/12/5
f 435/1/5 433/2/5 434/3/5 436/4/5
f 439/9/5 437/10/5 438/11/5 440/12/5
f 443/1/5 441/2/5 442/3/5 444/4/5
f 447/9/5 445/10/5 446/11/5 448/12/5
f 451/1/5 449/2/5 450/3/5 452/4/5
f 455/9/5 453/10/5 454/11/5 456/12/5
f 459/1/5 457/2/5 458/3/5 460/4/5
f 463/9/5 461/10/5 462/11/5 464/12/5
f 467/1/5 465/2/5 466/3/5 468/4/5
f 295/1/5 291/2/5 292/3/5 372/4/5
f 105/9/5 287/10/5 291/11/5 295/12/5
usemtl Material.006
f 134/17/4 133/18/4 136/19/4 135/20/4
f 142/17/3 143/20/3 144/19/3 141/18/3
f 148/21/5 140/22/5 139/23/5 147/24/5
f 147/21/3 139/22/3 138/23/3 146/24/3
f 146/24/1 138/23/1 137/22/1 145/21/1
f 145/21/4 137/22/4 140/23/4 148/24/4
f 141/25/6 144/26/6 136/27/6 133/28/6
f 144/25/5 143/26/5 135/27/5 136/28/5
f 143/26/2 142/25/2 134/28/2 135/27/2
f 142/26/1 141/25/1 133/28/1 134/27/1
f 156/21/5 152/22/5 151/23/5 155/24/5
f 155/21/3 151/22/3 150/23/3 154/24/3
f 154/24/1 150/23/1 149/22/1 153/21/1
f 153/21/4 149/22/4 152/23/4 156/24/4
f 158/17/4 157/18/4 160/19/4 159/20/4
f 166/17/3 167/20/3 168/19/3 165/18/3
f 172/21/5 164/22/5 163/23/5 171/24/5
f 171/21/3 163/22/3 162/23/3 170/24/3
f 170/24/1 162/23/1 161/22/1 169/21/1
f 169/21/4 161/22/4 164/23/4 172/24/4
f 165/25/6 168/26/6 160/27/6 157/28/6
f 168/25/5 167/26/5 159/27/5 160/28/5
f 167/26/2 166/25/2 158/28/2 159/27/2
f 166/26/1 165/25/1 157/28/1 158/27/1
f 180/21/5 176/22/5 175/23/5 179/24/5
f 179/21/3 175/22/3 174/23/3 178/24/3
f 178/24/1 174/23/1 173/22/1 177/21/1
f 177/21/4 173/22/4 176/23/4 180/24/4
