# Blender 4.3.2
# www.blender.org
mtllib room1.mtl
o corridor_straight.142
v 27.500000 2.499998 -27.500000
v 27.500000 7.499998 -27.500000
v 22.500000 2.499998 -27.500000
v 22.500000 7.499998 -27.500000
v 7.500000 -2.500001 -12.500000
v 7.500000 -2.500002 -17.500000
v 12.500000 -2.500001 -12.500000
v 12.500000 -2.500002 -17.500000
v 12.500000 -2.500001 -12.500000
v 12.500000 -2.500002 -17.500000
v 17.500000 -2.500001 -12.500000
v 17.500000 -2.500002 -17.500000
v 17.500000 -2.500001 -12.500000
v 17.500000 -2.500002 -17.500000
v 22.500000 -2.500001 -12.500000
v 22.500000 -2.500002 -17.500000
v 22.500000 -2.500001 -12.500000
v 22.500000 -2.500002 -17.500000
v 27.500000 -2.500001 -12.500000
v 27.500000 -2.500002 -17.500000
v 27.500000 -2.500001 -12.500000
v 27.500000 -2.500002 -17.500000
v 32.500000 -2.500001 -12.500000
v 32.500000 -2.500002 -17.500000
v 27.500000 -2.500002 -17.500000
v 27.500000 -2.500002 -22.500000
v 32.500000 -2.500002 -17.500000
v 32.500000 -2.500002 -22.500000
v 22.500000 -2.500002 -17.500000
v 22.500000 -2.500002 -22.500000
v 27.500000 -2.500002 -17.500000
v 27.500000 -2.500002 -22.500000
v 17.500000 -2.500002 -17.500000
v 17.500000 -2.500002 -22.500000
v 22.500000 -2.500002 -17.500000
v 22.500000 -2.500002 -22.500000
v 12.500000 -2.500002 -17.500000
v 12.500000 -2.500002 -22.500000
v 17.500000 -2.500002 -17.500000
v 17.500000 -2.500002 -22.500000
v 7.500000 -2.500002 -17.500000
v 7.500000 -2.500002 -22.500000
v 12.500000 -2.500002 -17.500000
v 12.500000 -2.500002 -22.500000
v 7.500000 -2.500002 -22.500000
v 7.500000 -2.500002 -27.500000
v 12.500000 -2.500002 -22.500000
v 12.500000 -2.500002 -27.500000
v 12.500000 -2.500002 -22.500000
v 12.500000 -2.500002 -27.500000
v 17.500000 -2.500002 -22.500000
v 17.500000 -2.500002 -27.500000
v 17.500000 -2.500002 -22.500000
v 17.500000 -2.500002 -27.500000
v 22.500000 -2.500002 -22.500000
v 22.500000 -2.500002 -27.500000
v 22.500000 -2.500002 -22.500000
v 22.500000 -2.500002 -27.500000
v 27.500000 -2.500002 -22.500000
v 27.500000 -2.500002 -27.500000
v 27.500000 -2.500002 -22.500000
v 27.500000 -2.500002 -27.500000
v 32.500000 -2.500002 -22.500000
v 32.500000 -2.500002 -27.500000
v -7.500000 -2.500001 -12.500000
v -7.500000 -2.500002 -17.500000
v -2.500000 -2.500001 -12.500000
v -2.500000 -2.500002 -17.500000
v -2.500000 -2.500001 -12.500000
v -2.500000 -2.500002 -17.500000
v 2.500000 -2.500001 -12.500000
v 2.500000 -2.500002 -17.500000
v 2.500000 -2.500001 -12.500000
v 2.500000 -2.500002 -17.500000
v 7.500000 -2.500001 -12.500000
v 7.500000 -2.500002 -17.500000
v 2.500000 -2.500002 -17.500000
v 2.500000 -2.500002 -22.500000
v 7.500000 -2.500002 -17.500000
v 7.500000 -2.500002 -22.500000
v -2.500000 -2.500002 -17.500000
v -2.500000 -2.500002 -22.500000
v 2.500000 -2.500002 -17.500000
v 2.500000 -2.500002 -22.500000
v -7.500000 -2.500002 -17.500000
v -7.500000 -2.500002 -22.500000
v -2.500000 -2.500002 -17.500000
v -2.500000 -2.500002 -22.500000
v -7.500000 -2.500002 -22.500000
v -7.500000 -2.500002 -27.500000
v -2.500000 -2.500002 -22.500000
v -2.500000 -2.500002 -27.500000
v -2.500000 -2.500002 -22.500000
v -2.500000 -2.500002 -27.500000
v 2.500000 -2.500002 -22.500000
v 2.500000 -2.500002 -27.500000
v 2.500000 -2.500002 -22.500000
v 2.500000 -2.500002 -27.500000
v 7.500000 -2.500002 -22.500000
v 7.500000 -2.500002 -27.500000
v 2.500000 -2.500000 2.500000
v 2.500000 -2.500000 -2.500000
v 7.500000 -2.500000 2.500000
v 7.500000 -2.500000 -2.500000
v -2.500000 -2.500000 2.500000
v -2.500000 -2.500000 -2.500000
v 2.500000 -2.500000 2.500000
v 2.500000 -2.500000 -2.500000
v -7.500000 -2.500000 2.500000
v -7.500000 -2.500000 -2.500000
v -2.500000 -2.500000 2.500000
v -2.500000 -2.500000 -2.500000
v -7.500000 -2.500000 -2.500000
v -7.500000 -2.500001 -7.500000
v -2.500000 -2.500000 -2.500000
v -2.500000 -2.500001 -7.500000
v -2.500000 -2.500000 -2.500000
v -2.500000 -2.500001 -7.500000
v 2.500000 -2.500000 -2.500000
v 2.500000 -2.500001 -7.500000
v 2.500000 -2.500000 -2.500000
v 2.500000 -2.500001 -7.500000
v 7.500000 -2.500000 -2.500000
v 7.500000 -2.500001 -7.500000
v 2.500000 -2.500001 -7.500000
v 2.500000 -2.500001 -12.500000
v 7.500000 -2.500001 -7.500000
v 7.500000 -2.500001 -12.500000
v -2.500000 -2.500001 -7.500000
v -2.500000 -2.500001 -12.500000
v 2.500000 -2.500001 -7.500000
v 2.500000 -2.500001 -12.500000
v -7.500000 -2.500001 -7.500000
v -7.500000 -2.500001 -12.500000
v -2.500000 -2.500001 -7.500000
v -2.500000 -2.500001 -12.500000
v 27.500000 -2.500001 -7.500000
v 27.500000 -2.500001 -12.500000
v 32.500000 -2.500001 -7.500000
v 32.500000 -2.500001 -12.500000
v 22.500000 -2.500001 -7.500000
v 22.500000 -2.500001 -12.500000
v 27.500000 -2.500001 -7.500000
v 27.500000 -2.500001 -12.500000
v 17.500000 -2.500001 -7.500000
v 17.500000 -2.500001 -12.500000
v 22.500000 -2.500001 -7.500000
v 22.500000 -2.500001 -12.500000
v 12.500000 -2.500001 -7.500000
v 12.500000 -2.500001 -12.500000
v 17.500000 -2.500001 -7.500000
v 17.500000 -2.500001 -12.500000
v 7.500000 -2.500001 -7.500000
v 7.500000 -2.500001 -12.500000
v 12.500000 -2.500001 -7.500000
v 12.500000 -2.500001 -12.500000
v 2.677675 2.375000 2.625000
v 2.677675 2.968905 2.625000
v 2.677675 2.968905 2.374999
v 2.677675 2.375000 2.374999
v -2.375000 -2.500000 2.625000
v -2.625000 -2.500000 2.624995
v -2.625000 -2.500000 2.375000
v -2.375000 -2.500000 2.375000
v -2.677675 2.375000 2.624994
v -2.677675 2.968905 2.624994
v -2.677675 2.968905 2.374999
v -2.677675 2.375000 2.374999
v -2.375000 2.375000 2.624994
v -2.625000 2.375000 2.624994
v -2.625000 2.375000 2.374999
v -2.375000 2.375000 2.374999
v 2.625000 -2.500000 2.625000
v 2.375000 -2.500000 2.625000
v 2.375000 -2.500000 2.375000
v 2.625000 -2.500000 2.375000
v 2.625000 2.375000 2.625000
v 2.375000 2.375000 2.625000
v 2.375000 2.375000 2.374999
v 2.625000 2.375000 2.374999
v 2.677675 2.374998 -27.375000
v 2.677675 2.968903 -27.375000
v 2.677675 2.968903 -27.625004
v 2.677675 2.374998 -27.625004
v -2.375000 -2.500002 -27.375000
v -2.625000 -2.500002 -27.375000
v -2.625000 -2.500002 -27.625004
v -2.375000 -2.500002 -27.625004
v -2.677675 2.374998 -27.375000
v -2.677675 2.968903 -27.375000
v -2.677675 2.968903 -27.625004
v -2.677675 2.374998 -27.625004
v -2.375000 2.374998 -27.375000
v -2.625000 2.374998 -27.375000
v -2.625000 2.374998 -27.625004
v -2.375000 2.374998 -27.625004
v 2.625000 -2.500002 -27.375000
v 2.375000 -2.500002 -27.375000
v 2.375000 -2.500002 -27.625004
v 2.625000 -2.500002 -27.625004
v 2.625000 2.374998 -27.375000
v 2.375000 2.374998 -27.375000
v 2.375000 2.374998 -27.625004
v 2.625000 2.374998 -27.625004
v 27.677673 2.374998 -27.375000
v 27.677673 2.968903 -27.375000
v 27.677673 2.968903 -27.625004
v 27.677673 2.374998 -27.625004
v 22.625000 -2.500002 -27.375000
v 22.375000 -2.500002 -27.375000
v 22.375000 -2.500002 -27.625004
v 22.625000 -2.500002 -27.625004
v 22.322327 2.374998 -27.375000
v 22.322327 2.968903 -27.375000
v 22.322327 2.968903 -27.625004
v 22.322327 2.374998 -27.625004
v 22.625000 2.374998 -27.375000
v 22.375000 2.374998 -27.375000
v 22.375000 2.374998 -27.625004
v 22.625000 2.374998 -27.625004
v 27.625000 -2.500002 -27.375000
v 27.375000 -2.500002 -27.375000
v 27.375000 -2.500002 -27.625004
v 27.625000 -2.500002 -27.625004
v 27.625000 2.374998 -27.375000
v 27.375000 2.374998 -27.375000
v 27.375000 2.374998 -27.625004
v 27.625000 2.374998 -27.625004
v 32.500000 -2.500001 -7.500000
v 32.500000 2.499999 -7.500000
v 32.500000 -2.500001 -12.500000
v 32.500000 2.499999 -12.500000
v 32.500000 2.499999 -7.500000
v 32.500000 7.499999 -7.500000
v 32.500000 2.499999 -12.500000
v 32.500000 7.499999 -12.500001
v 32.500000 -2.500001 -12.500000
v 32.500000 2.499999 -12.500000
v 32.500000 -2.500002 -17.500000
v 32.500000 2.499998 -17.500000
v 32.500000 2.499999 -12.500000
v 32.500000 7.499999 -12.500001
v 32.500000 2.499998 -17.500000
v 32.500000 7.499998 -17.500000
v 32.500000 -2.500002 -17.500000
v 32.500000 2.499998 -17.500000
v 32.500000 -2.500002 -22.500000
v 32.500000 2.499998 -22.500000
v 32.500000 2.499998 -17.500000
v 32.500000 7.499998 -17.500000
v 32.500000 2.499998 -22.500000
v 32.500000 7.499998 -22.500000
v 32.500000 -2.500002 -22.500000
v 32.500000 2.499998 -22.500000
v 32.500000 -2.500002 -27.500000
v 32.500000 2.499998 -27.500000
v 32.500000 2.499998 -22.500000
v 32.500000 7.499998 -22.500000
v 32.500000 2.499998 -27.500000
v 32.500000 7.499998 -27.500000
v 32.499996 -2.500002 -27.500000
v 32.499996 2.499998 -27.500000
v 27.500000 -2.500002 -27.500000
v 27.500000 2.499998 -27.500000
v 32.499996 2.499998 -27.500000
v 32.499996 7.499998 -27.500000
v 27.500000 2.499998 -27.500000
v 27.500000 7.499998 -27.500000
v 22.500000 -2.500002 -27.500000
v 22.500000 2.499998 -27.500000
v 17.500000 -2.500002 -27.500000
v 17.500000 2.499998 -27.500000
v 22.500000 2.499998 -27.500000
v 22.500000 7.499998 -27.500000
v 17.500000 2.499998 -27.500000
v 17.500000 7.499998 -27.500000
v 17.500000 -2.500002 -27.500000
v 17.500000 2.499998 -27.500000
v 12.500000 -2.500002 -27.500000
v 12.500000 2.499998 -27.500000
v 17.500000 2.499998 -27.500000
v 17.500000 7.499998 -27.500000
v 12.500000 2.499998 -27.500000
v 12.500000 7.499998 -27.500000
v 12.500000 -2.500002 -27.500000
v 12.500000 2.499998 -27.500000
v 7.500000 -2.500002 -27.500000
v 7.500000 2.499998 -27.500000
v 12.500000 2.499998 -27.500000
v 12.500000 7.499998 -27.500000
v 7.500000 2.499998 -27.500000
v 7.500000 7.499998 -27.500000
v 7.500000 -2.500002 -27.500000
v 7.500000 2.499998 -27.500000
v 2.500000 -2.500002 -27.500000
v 2.500000 2.499998 -27.500000
v 7.500000 2.499998 -27.500000
v 7.500000 7.499998 -27.500000
v 2.500000 2.499998 -27.500000
v 2.500000 7.499998 -27.500000
v -2.500000 -2.500002 -27.500000
v -2.500000 2.499998 -27.500000
v -7.500000 -2.500002 -27.500000
v -7.500000 2.499998 -27.500000
v -2.500000 2.499998 -27.500000
v -2.500000 7.499998 -27.500000
v -7.500000 2.499998 -27.500000
v -7.500000 7.499998 -27.500000
v -7.500000 -2.500002 -27.500000
v -7.500000 2.499998 -27.500000
v -7.500000 -2.500002 -22.500000
v -7.500000 2.499998 -22.500000
v -7.500000 2.499998 -27.500000
v -7.500000 7.499998 -27.500000
v -7.500000 2.499998 -22.500000
v -7.500000 7.499998 -22.500000
v -7.500000 -2.500002 -22.500000
v -7.500000 2.499998 -22.500000
v -7.500000 -2.500002 -17.500000
v -7.500000 2.499998 -17.500000
v -7.500000 2.499998 -22.500000
v -7.500000 7.499998 -22.500000
v -7.500000 2.499998 -17.500000
v -7.500000 7.499998 -17.500000
v -7.500000 -2.500002 -17.500000
v -7.500000 2.499998 -17.500000
v -7.500000 -2.500001 -12.500000
v -7.500000 2.499999 -12.500000
v -7.500000 2.499998 -17.500000
v -7.500000 7.499998 -17.500000
v -7.500000 2.499999 -12.500000
v -7.500000 7.499999 -12.500001
v -7.500000 -2.500001 -12.500000
v -7.500000 2.499999 -12.500000
v -7.500000 -2.500001 -7.500000
v -7.500000 2.499999 -7.500000
v -7.500000 2.499999 -12.500000
v -7.500000 7.499999 -12.500001
v -7.500000 2.499999 -7.500000
v -7.500000 7.499999 -7.500000
v -7.500000 -2.500001 -7.500000
v -7.500000 2.499999 -7.500000
v -7.500000 -2.500000 -2.500000
v -7.500000 2.500000 -2.500000
v -7.500000 2.499999 -7.500000
v -7.500000 7.499999 -7.500000
v -7.500000 2.500000 -2.500000
v -7.500000 7.500000 -2.500001
v -7.500000 -2.500000 -2.499995
v -7.500000 2.500000 -2.499996
v -7.500000 -2.500000 2.500000
v -7.500000 2.500000 2.500000
v -7.500000 2.500000 -2.499996
v -7.500000 7.500000 -2.499996
v -7.500000 2.500000 2.500000
v -7.500000 7.500000 2.499999
v 2.500000 2.499998 -27.500000
v 2.500000 7.499998 -27.500000
v -2.500000 2.499998 -27.500000
v -2.500000 7.499998 -27.500000
v 17.500000 7.499999 -12.500001
v 17.500000 7.499999 -7.500000
v 12.500000 7.499999 -12.500001
v 12.500000 7.499999 -7.500000
v 22.500000 7.499999 -12.500001
v 22.500000 7.499999 -7.500000
v 17.500000 7.499999 -12.500001
v 17.500000 7.499999 -7.500000
v 27.500000 7.499999 -12.500001
v 27.500000 7.499999 -7.500000
v 22.500000 7.499999 -12.500001
v 22.500000 7.499999 -7.500000
v 32.500000 7.499999 -12.500001
v 32.500000 7.499999 -7.500000
v 27.500000 7.499999 -12.500001
v 27.500000 7.499999 -7.500000
v 17.500000 7.499998 -17.500000
v 17.500000 7.499999 -12.500001
v 12.500000 7.499998 -17.500000
v 12.500000 7.499999 -12.500001
v 22.500000 7.499998 -17.500000
v 22.500000 7.499999 -12.500001
v 17.500000 7.499998 -17.500000
v 17.500000 7.499999 -12.500001
v 27.500000 7.499998 -17.500000
v 27.500000 7.499999 -12.500001
v 22.500000 7.499998 -17.500000
v 22.500000 7.499999 -12.500001
v 32.500000 7.499998 -17.500000
v 32.500000 7.499999 -12.500001
v 27.500000 7.499998 -17.500000
v 27.500000 7.499999 -12.500001
v 17.500000 7.499998 -22.500000
v 17.500000 7.499998 -17.500000
v 12.500000 7.499998 -22.500000
v 12.500000 7.499998 -17.500000
v 22.500000 7.499998 -22.500000
v 22.500000 7.499998 -17.500000
v 17.500000 7.499998 -22.500000
v 17.500000 7.499998 -17.500000
v 27.500000 7.499998 -22.500000
v 27.500000 7.499998 -17.500000
v 22.500000 7.499998 -22.500000
v 22.500000 7.499998 -17.500000
v 32.500000 7.499998 -22.500000
v 32.500000 7.499998 -17.500000
v 27.500000 7.499998 -22.500000
v 27.500000 7.499998 -17.500000
v 17.500000 7.499998 -27.500000
v 17.500000 7.499998 -22.500000
v 12.500000 7.499998 -27.500000
v 12.500000 7.499998 -22.500000
v 22.500000 7.499998 -27.500000
v 22.500000 7.499998 -22.500000
v 17.500000 7.499998 -27.500000
v 17.500000 7.499998 -22.500000
v 27.500000 7.499998 -27.500000
v 27.500000 7.499998 -22.500000
v 22.500000 7.499998 -27.500000
v 22.500000 7.499998 -22.500000
v 32.500000 7.499998 -27.500000
v 32.500000 7.499998 -22.500000
v 27.500000 7.499998 -27.500000
v 27.500000 7.499998 -22.500000
v -2.500000 7.499999 -12.500001
v -2.500000 7.499999 -7.500000
v -7.500000 7.499999 -12.500001
v -7.500000 7.499999 -7.500000
v 2.500000 7.499999 -12.500001
v 2.500000 7.499999 -7.500000
v -2.500000 7.499999 -12.500001
v -2.500000 7.499999 -7.500000
v 7.500000 7.499999 -12.500001
v 7.500000 7.499999 -7.500000
v 2.500000 7.499999 -12.500001
v 2.500000 7.499999 -7.500000
v 12.500000 7.499999 -12.500001
v 12.500000 7.499999 -7.500000
v 7.500000 7.499999 -12.500001
v 7.500000 7.499999 -7.500000
v -2.500000 7.499998 -17.500000
v -2.500000 7.499999 -12.500001
v -7.500000 7.499998 -17.500000
v -7.500000 7.499999 -12.500001
v 2.500000 7.499998 -17.500000
v 2.500000 7.499999 -12.500001
v -2.500000 7.499998 -17.500000
v -2.500000 7.499999 -12.500001
v 7.500000 7.499998 -17.500000
v 7.500000 7.499999 -12.500001
v 2.500000 7.499998 -17.500000
v 2.500000 7.499999 -12.500001
v 12.500000 7.499998 -17.500000
v 12.500000 7.499999 -12.500001
v 7.500000 7.499998 -17.500000
v 7.500000 7.499999 -12.500001
v -2.500000 7.499998 -22.500000
v -2.500000 7.499998 -17.500000
v -7.500000 7.499998 -22.500000
v -7.500000 7.499998 -17.500000
v 2.500000 7.499998 -22.500000
v 2.500000 7.499998 -17.500000
v -2.500000 7.499998 -22.500000
v -2.500000 7.499998 -17.500000
v 7.500000 7.499998 -22.500000
v 7.500000 7.499998 -17.500000
v 2.500000 7.499998 -22.500000
v 2.500000 7.499998 -17.500000
v 12.500000 7.499998 -22.500000
v 12.500000 7.499998 -17.500000
v 7.500000 7.499998 -22.500000
v 7.500000 7.499998 -17.500000
v -2.500000 7.499998 -27.500000
v -2.500000 7.499998 -22.500000
v -7.500000 7.499998 -27.500000
v -7.500000 7.499998 -22.500000
v 2.500000 7.499998 -27.500000
v 2.500000 7.499998 -22.500000
v -2.500000 7.499998 -27.500000
v -2.500000 7.499998 -22.500000
v 7.500000 7.499998 -27.500000
v 7.500000 7.499998 -22.500000
v 2.500000 7.499998 -27.500000
v 2.500000 7.499998 -22.500000
v 12.500000 7.499998 -27.500000
v 12.500000 7.499998 -22.500000
v 7.500000 7.499998 -27.500000
v 7.500000 7.499998 -22.500000
v -2.500000 7.500000 -2.500001
v -2.500000 7.500000 2.499999
v -7.500000 7.500000 -2.500001
v -7.500000 7.500000 2.499999
v 2.500000 7.500000 -2.500001
v 2.500000 7.500000 2.499999
v -2.500000 7.500000 -2.500001
v -2.500000 7.500000 2.499999
v 7.500000 7.500000 -2.500001
v 7.500000 7.500000 2.499999
v 2.500000 7.500000 -2.500001
v 2.500000 7.500000 2.499999
v -2.500000 7.499999 -7.500000
v -2.500000 7.500000 -2.500001
v -7.500000 7.499999 -7.500000
v -7.500000 7.500000 -2.500001
v 2.500000 7.499999 -7.500000
v 2.500000 7.500000 -2.500001
v -2.500000 7.499999 -7.500000
v -2.500000 7.500000 -2.500001
v 7.500000 7.499999 -7.500000
v 7.500000 7.500000 -2.500001
v 2.500000 7.499999 -7.500000
v 2.500000 7.500000 -2.500001
v 7.500000 -2.500001 -7.500000
v 7.500000 2.499999 -7.500000
v 12.500000 -2.500001 -7.500000
v 12.500000 2.499999 -7.500000
v 7.500000 2.499999 -7.500000
v 7.500000 7.499999 -7.500000
v 12.500000 2.499999 -7.500000
v 12.500000 7.499999 -7.500000
v 12.500000 -2.500001 -7.500000
v 12.500000 2.499999 -7.500000
v 17.500000 -2.500001 -7.500000
v 17.500000 2.499999 -7.500000
v 12.500000 2.499999 -7.500000
v 12.500000 7.499999 -7.500000
v 17.500000 2.499999 -7.500000
v 17.500000 7.499999 -7.500000
v 17.500000 -2.500001 -7.500000
v 17.500000 2.499999 -7.500000
v 22.500000 -2.500001 -7.500000
v 22.500000 2.499999 -7.500000
v 17.500000 2.499999 -7.500000
v 17.500000 7.499999 -7.500000
v 22.500000 2.499999 -7.500000
v 22.500000 7.499999 -7.500000
v 22.500000 -2.500001 -7.500000
v 22.500000 2.499999 -7.500000
v 27.500000 -2.500001 -7.500000
v 27.500000 2.499999 -7.500000
v 22.500000 2.499999 -7.500000
v 22.500000 7.499999 -7.500000
v 27.500000 2.499999 -7.500000
v 27.500000 7.499999 -7.500000
v 27.500000 -2.500001 -7.500000
v 27.500000 2.499999 -7.500000
v 32.500000 -2.500001 -7.500000
v 32.500000 2.499999 -7.500000
v 27.500000 2.499999 -7.500000
v 27.500000 7.499999 -7.500000
v 32.500000 2.499999 -7.500000
v 32.500000 7.499999 -7.500000
v -7.500000 -2.500000 2.500000
v -7.500000 2.500000 2.500000
v -2.500000 -2.500000 2.499995
v -2.500000 2.500000 2.499995
v -7.500000 2.500000 2.500000
v -7.500000 7.500000 2.499999
v -2.500000 2.500000 2.499995
v -2.500000 7.500000 2.499995
v 2.500000 -2.500000 2.500000
v 2.500000 2.500000 2.500000
v 7.500000 -2.500000 2.500000
v 7.500000 2.500000 2.500000
v 2.500000 2.500000 2.500000
v 2.500000 7.500000 2.499999
v 7.500000 2.500000 2.500000
v 7.500000 7.500000 2.499999
v 7.500000 -2.500000 2.500000
v 7.500000 2.500000 2.500000
v 7.499995 -2.500000 -2.500000
v 7.499995 2.500000 -2.500000
v 7.500000 2.500000 2.500000
v 7.500000 7.500000 2.499999
v 7.499995 2.500000 -2.500000
v 7.499995 7.500000 -2.500001
v 7.500000 -2.500000 -2.500005
v 7.500000 2.500000 -2.500005
v 7.499995 -2.500001 -7.500005
v 7.499995 2.499999 -7.500005
v 7.500000 2.500000 -2.500005
v 7.500000 7.500000 -2.500005
v 7.499995 2.499999 -7.500005
v 7.499995 7.499999 -7.500005
v -2.500000 2.500000 2.500000
v -2.500000 7.500000 2.499999
v 2.500000 2.500000 2.499995
v 2.500000 7.500000 2.499995
vn -0.0000 -0.0000 1.0000
vn -0.0000 1.0000 -0.0000
vn -1.0000 -0.0000 -0.0000
vn 1.0000 -0.0000 -0.0000
vn -0.0000 -1.0000 -0.0000
vn -0.0000 -0.0000 -1.0000
vt 0.292969 0.707031
vt 0.000000 0.707031
vt 0.000000 1.000000
vt 0.292969 1.000000
vt 0.293198 0.850996
vt 0.293199 0.999620
vt 0.442084 0.999615
vt 0.441962 0.850988
vt 0.292969 0.511719
vt 0.000000 0.511719
vt 0.000000 0.804688
vt 0.292969 0.804688
vt 0.442248 0.999735
vt 0.293236 0.999735
vt 0.293236 0.850778
vt 0.442248 0.850778
vt 0.121468 0.585684
vt 0.072840 0.585684
vt 0.072840 0.609782
vt 0.121468 0.609782
vt 0.268390 0.542422
vt 0.024736 0.542422
vt 0.024736 0.556766
vt 0.268390 0.556766
vt 0.023913 0.536758
vt 0.023913 0.561051
vt 0.267994 0.561051
vt 0.267994 0.536758
s 1
usemtl Material.005
f 3/1/1 1/2/1 2/3/1 4/4/1
f 7/5/2 8/6/2 6/7/2 5/8/2
f 11/5/2 12/6/2 10/7/2 9/8/2
f 15/5/2 16/6/2 14/7/2 13/8/2
f 19/5/2 20/6/2 18/7/2 17/8/2
f 23/5/2 24/6/2 22/7/2 21/8/2
f 27/5/2 28/6/2 26/7/2 25/8/2
f 31/5/2 32/6/2 30/7/2 29/8/2
f 35/5/2 36/6/2 34/7/2 33/8/2
f 39/5/2 40/6/2 38/7/2 37/8/2
f 43/5/2 44/6/2 42/7/2 41/8/2
f 47/5/2 48/6/2 46/7/2 45/8/2
f 51/5/2 52/6/2 50/7/2 49/8/2
f 55/5/2 56/6/2 54/7/2 53/8/2
f 59/5/2 60/6/2 58/7/2 57/8/2
f 63/5/2 64/6/2 62/7/2 61/8/2
f 67/5/2 68/6/2 66/7/2 65/8/2
f 71/5/2 72/6/2 70/7/2 69/8/2
f 75/5/2 76/6/2 74/7/2 73/8/2
f 79/5/2 80/6/2 78/7/2 77/8/2
f 83/5/2 84/6/2 82/7/2 81/8/2
f 87/5/2 88/6/2 86/7/2 85/8/2
f 91/5/2 92/6/2 90/7/2 89/8/2
f 95/5/2 96/6/2 94/7/2 93/8/2
f 99/5/2 100/6/2 98/7/2 97/8/2
f 103/5/2 104/6/2 102/7/2 101/8/2
f 107/5/2 108/6/2 106/7/2 105/8/2
f 111/5/2 112/6/2 110/7/2 109/8/2
f 115/5/2 116/6/2 114/7/2 113/8/2
f 119/5/2 120/6/2 118/7/2 117/8/2
f 123/5/2 124/6/2 122/7/2 121/8/2
f 127/5/2 128/6/2 126/7/2 125/8/2
f 131/5/2 132/6/2 130/7/2 129/8/2
f 135/5/2 136/6/2 134/7/2 133/8/2
f 139/5/2 140/6/2 138/7/2 137/8/2
f 143/5/2 144/6/2 142/7/2 141/8/2
f 147/5/2 148/6/2 146/7/2 145/8/2
f 151/5/2 152/6/2 150/7/2 149/8/2
f 155/5/2 156/6/2 154/7/2 153/8/2
f 231/9/3 229/10/3 230/11/3 232/12/3
f 235/1/3 233/2/3 234/3/3 236/4/3
f 239/9/3 237/10/3 238/11/3 240/12/3
f 243/1/3 241/2/3 242/3/3 244/4/3
f 247/9/3 245/10/3 246/11/3 248/12/3
f 251/1/3 249/2/3 250/3/3 252/4/3
f 255/9/3 253/10/3 254/11/3 256/12/3
f 259/1/3 257/2/3 258/3/3 260/4/3
f 263/9/1 261/10/1 262/11/1 264/12/1
f 267/1/1 265/2/1 266/3/1 268/4/1
f 271/9/1 269/10/1 270/11/1 272/12/1
f 275/1/1 273/2/1 274/3/1 276/4/1
f 279/9/1 277/10/1 278/11/1 280/12/1
f 283/1/1 281/2/1 282/3/1 284/4/1
f 287/9/1 285/10/1 286/11/1 288/12/1
f 291/1/1 289/2/1 290/3/1 292/4/1
f 295/9/1 293/10/1 294/11/1 296/12/1
f 299/1/1 297/2/1 298/3/1 300/4/1
f 303/9/1 301/10/1 302/11/1 304/12/1
f 307/1/1 305/2/1 306/3/1 308/4/1
f 311/9/4 309/10/4 310/11/4 312/12/4
f 315/1/4 313/2/4 314/3/4 316/4/4
f 319/9/4 317/10/4 318/11/4 320/12/4
f 323/1/4 321/2/4 322/3/4 324/4/4
f 327/9/4 325/10/4 326/11/4 328/12/4
f 331/1/4 329/2/4 330/3/4 332/4/4
f 335/9/4 333/10/4 334/11/4 336/12/4
f 339/1/4 337/2/4 338/3/4 340/4/4
f 343/9/4 341/10/4 342/11/4 344/12/4
f 347/1/4 345/2/4 346/3/4 348/4/4
f 351/9/4 349/10/4 350/11/4 352/12/4
f 355/1/4 353/2/4 354/3/4 356/4/4
f 359/1/1 357/2/1 358/3/1 360/4/1
f 362/13/5 364/14/5 363/15/5 361/16/5
f 366/13/5 368/14/5 367/15/5 365/16/5
f 370/13/5 372/14/5 371/15/5 369/16/5
f 374/13/5 376/14/5 375/15/5 373/16/5
f 378/13/5 380/14/5 379/15/5 377/16/5
f 382/13/5 384/14/5 383/15/5 381/16/5
f 386/13/5 388/14/5 387/15/5 385/16/5
f 390/13/5 392/14/5 391/15/5 389/16/5
f 394/13/5 396/14/5 395/15/5 393/16/5
f 398/13/5 400/14/5 399/15/5 397/16/5
f 402/13/5 404/14/5 403/15/5 401/16/5
f 406/13/5 408/14/5 407/15/5 405/16/5
f 410/13/5 412/14/5 411/15/5 409/16/5
f 414/13/5 416/14/5 415/15/5 413/16/5
f 418/13/5 420/14/5 419/15/5 417/16/5
f 422/13/5 424/14/5 423/15/5 421/16/5
f 426/13/5 428/14/5 427/15/5 425/16/5
f 430/13/5 432/14/5 431/15/5 429/16/5
f 434/13/5 436/14/5 435/15/5 433/16/5
f 438/13/5 440/14/5 439/15/5 437/16/5
f 442/13/5 444/14/5 443/15/5 441/16/5
f 446/13/5 448/14/5 447/15/5 445/16/5
f 450/13/5 452/14/5 451/15/5 449/16/5
f 454/13/5 456/14/5 455/15/5 453/16/5
f 458/13/5 460/14/5 459/15/5 457/16/5
f 462/13/5 464/14/5 463/15/5 461/16/5
f 466/13/5 468/14/5 467/15/5 465/16/5
f 470/13/5 472/14/5 471/15/5 469/16/5
f 474/13/5 476/14/5 475/15/5 473/16/5
f 478/13/5 480/14/5 479/15/5 477/16/5
f 482/13/5 484/14/5 483/15/5 481/16/5
f 486/13/5 488/14/5 487/15/5 485/16/5
f 490/13/5 492/14/5 491/15/5 489/16/5
f 494/13/5 496/14/5 495/15/5 493/16/5
f 498/13/5 500/14/5 499/15/5 497/16/5
f 502/13/5 504/14/5 503/15/5 501/16/5
f 506/13/5 508/14/5 507/15/5 505/16/5
f 510/13/5 512/14/5 511/15/5 509/16/5
f 515/9/6 513/10/6 514/11/6 516/12/6
f 519/1/6 517/2/6 518/3/6 520/4/6
f 523/9/6 521/10/6 522/11/6 524/12/6
f 527/1/6 525/2/6 526/3/6 528/4/6
f 531/9/6 529/10/6 530/11/6 532/12/6
f 535/1/6 533/2/6 534/3/6 536/4/6
f 539/9/6 537/10/6 538/11/6 540/12/6
f 543/1/6 541/2/6 542/3/6 544/4/6
f 547/9/6 545/10/6 546/11/6 548/12/6
f 551/1/6 549/2/6 550/3/6 552/4/6
f 555/9/6 553/10/6 554/11/6 556/12/6
f 559/1/6 557/2/6 558/3/6 560/4/6
f 563/9/6 561/10/6 562/11/6 564/12/6
f 567/1/6 565/2/6 566/3/6 568/4/6
f 571/9/3 569/10/3 570/11/3 572/12/3
f 575/1/3 573/2/3 574/3/3 576/4/3
f 579/9/3 577/10/3 578/11/3 580/12/3
f 583/1/3 581/2/3 582/3/3 584/4/3
f 587/1/6 585/2/6 586/3/6 588/4/6
usemtl Material.006
f 158/17/4 157/18/4 160/19/4 159/20/4
f 166/17/3 167/20/3 168/19/3 165/18/3
f 172/21/6 164/22/6 163/23/6 171/24/6
f 171/21/3 163/22/3 162/23/3 170/24/3
f 170/24/1 162/23/1 161/22/1 169/21/1
f 169/21/4 161/22/4 164/23/4 172/24/4
f 165/25/5 168/26/5 160/27/5 157/28/5
f 168/25/6 167/26/6 159/27/6 160/28/6
f 167/26/2 166/25/2 158/28/2 159/27/2
f 166/26/1 165/25/1 157/28/1 158/27/1
f 180/21/6 176/22/6 175/23/6 179/24/6
f 179/21/3 175/22/3 174/23/3 178/24/3
f 178/24/1 174/23/1 173/22/1 177/21/1
f 177/21/4 173/22/4 176/23/4 180/24/4
f 182/17/4 181/18/4 184/19/4 183/20/4
f 190/17/3 191/20/3 192/19/3 189/18/3
f 196/21/6 188/22/6 187/23/6 195/24/6
f 195/21/3 187/22/3 186/23/3 194/24/3
f 194/24/1 186/23/1 185/22/1 193/21/1
f 193/21/4 185/22/4 188/23/4 196/24/4
f 189/25/5 192/26/5 184/27/5 181/28/5
f 192/25/6 191/26/6 183/27/6 184/28/6
f 191/26/2 190/25/2 182/28/2 183/27/2
f 190/26/1 189/25/1 181/28/1 182/27/1
f 204/21/6 200/22/6 199/23/6 203/24/6
f 203/21/3 199/22/3 198/23/3 202/24/3
f 202/24/1 198/23/1 197/22/1 201/21/1
f 201/21/4 197/22/4 200/23/4 204/24/4
f 206/17/4 205/18/4 208/19/4 207/20/4
f 214/17/3 215/20/3 216/19/3 213/18/3
f 220/21/6 212/22/6 211/23/6 219/24/6
f 219/21/3 211/22/3 210/23/3 218/24/3
f 218/24/1 210/23/1 209/22/1 217/21/1
f 217/21/4 209/22/4 212/23/4 220/24/4
f 213/25/5 216/26/5 208/27/5 205/28/5
f 216/25/6 215/26/6 207/27/6 208/28/6
f 215/26/2 214/25/2 206/28/2 207/27/2
f 214/26/1 213/25/1 205/28/1 206/27/1
f 228/21/6 224/22/6 223/23/6 227/24/6
f 227/21/3 223/22/3 222/23/3 226/24/3
f 226/24/1 222/23/1 221/22/1 225/21/1
f 225/21/4 221/22/4 224/23/4 228/24/4
