# Blender 4.3.2
# www.blender.org
mtllib room2.mtl
o corridor_straight.023
v -2.499999 -2.500000 7.500000
v -2.500000 -2.500000 2.500000
v 2.500000 -2.500000 7.500000
v 2.499999 -2.500000 2.500000
v -12.499999 -2.500000 12.500000
v -12.500000 -2.500000 7.500000
v -7.500000 -2.500000 12.500000
v -7.500001 -2.500000 7.500000
v -7.499999 -2.500000 12.500000
v -7.500000 -2.500000 7.500000
v -2.500000 -2.500000 12.500000
v -2.500001 -2.500000 7.500000
v -2.499999 -2.500000 12.500000
v -2.500000 -2.500000 7.500000
v 2.500000 -2.500000 12.500000
v 2.499999 -2.500000 7.500000
v 7.500001 -2.500000 12.500000
v 7.500000 -2.500000 7.500000
v 12.500000 -2.500000 12.500000
v 12.500000 -2.500000 7.500000
v 2.500001 -2.500000 12.500000
v 2.500000 -2.500000 7.500000
v 7.500000 -2.500000 12.500000
v 7.499999 -2.500000 7.500000
v -12.499999 -2.500000 7.500000
v -12.500000 -2.500000 2.500000
v -7.500000 -2.500000 7.500000
v -7.500001 -2.500000 2.500000
v -7.499999 -2.500000 7.500000
v -7.500000 -2.500000 2.500000
v -2.500000 -2.500000 7.500000
v -2.500001 -2.500000 2.500000
v 7.500001 -2.500000 7.500000
v 7.500000 -2.500000 2.500000
v 12.500000 -2.500000 7.500000
v 12.500000 -2.500000 2.500000
v 2.500001 -2.500000 7.500000
v 2.500000 -2.500000 2.500000
v 7.500000 -2.500000 7.500000
v 7.499999 -2.500000 2.500000
v -12.499999 -2.500000 2.500000
v -12.500000 -2.500000 -2.500000
v -7.500000 -2.500000 2.500000
v -7.500001 -2.500000 -2.500000
v -7.499999 -2.500000 2.500000
v -7.500000 -2.500000 -2.500000
v -2.500000 -2.500000 2.500000
v -2.500001 -2.500000 -2.500000
v -2.499999 -2.500000 2.500000
v -2.500000 -2.500000 -2.500000
v 2.500000 -2.500000 2.500000
v 2.499999 -2.500000 -2.500000
v 7.500001 -2.500000 2.500000
v 7.500000 -2.500000 -2.500000
v 12.500000 -2.500000 2.500000
v 12.500000 -2.500000 -2.500000
v 2.500001 -2.500000 2.500000
v 2.500000 -2.500000 -2.500000
v 7.500000 -2.500000 2.500000
v 7.499999 -2.500000 -2.500000
v -12.499999 -2.500000 -2.500000
v -12.500000 -2.500000 -7.499999
v -7.500000 -2.500000 -2.500000
v -7.500001 -2.500000 -7.500000
v -7.499999 -2.500000 -2.500000
v -7.500000 -2.500000 -7.499999
v -2.500000 -2.500000 -2.500000
v -2.500001 -2.500000 -7.500000
v -2.499999 -2.500000 -2.500000
v -2.500000 -2.500000 -7.499999
v 2.500000 -2.500000 -2.500000
v 2.499999 -2.500000 -7.500000
v 7.500001 -2.500000 -2.500000
v 7.500000 -2.500000 -7.499999
v 12.500000 -2.500000 -2.500000
v 12.500000 -2.500000 -7.500000
v 2.500001 -2.500000 -2.500000
v 2.500000 -2.500000 -7.499999
v 7.500000 -2.500000 -2.500000
v 7.499999 -2.500000 -7.500000
v -12.499999 -2.500000 -7.500000
v -12.500000 -2.500000 -12.500000
v -7.500000 -2.500000 -7.500001
v -7.500001 -2.500000 -12.500000
v -7.499999 -2.500000 -7.500000
v -7.500000 -2.500000 -12.500000
v -2.500000 -2.500000 -7.500001
v -2.500001 -2.500000 -12.500000
v -2.499999 -2.500000 -7.500000
v -2.500000 -2.500000 -12.500000
v 2.500000 -2.500000 -7.500001
v 2.499999 -2.500000 -12.500000
v 7.500001 -2.500000 -7.500000
v 7.500000 -2.500000 -12.500000
v 12.500000 -2.500000 -7.500001
v 12.500000 -2.500000 -12.500000
v 2.500001 -2.500000 -7.500000
v 2.500000 -2.500000 -12.500000
v 7.500000 -2.500000 -7.500001
v 7.499999 -2.500000 -12.500000
v 7.500001 -2.500000 12.500000
v 7.500001 2.500000 12.500000
v 12.500000 -2.500000 12.500000
v 12.500000 2.500000 12.500000
v 7.500001 2.500000 12.500000
v 7.500001 7.500000 12.500000
v 12.500000 2.500000 12.500000
v 12.500000 7.500000 12.500000
v 2.500001 -2.500000 12.500000
v 2.500001 2.500000 12.500000
v 7.500000 -2.500000 12.500000
v 7.500000 2.500000 12.500000
v 2.500001 2.500000 12.500000
v 2.500001 7.500000 12.500000
v 7.500000 2.500000 12.500000
v 7.500000 7.500000 12.500000
v -7.499999 -2.500000 12.500000
v -7.499999 2.500000 12.500000
v -2.500000 -2.500000 12.500000
v -2.500000 2.500000 12.500000
v -7.499999 2.500000 12.500000
v -7.499999 7.500000 12.500000
v -2.500000 2.500000 12.500000
v -2.500000 7.500000 12.500000
v -12.499999 -2.500000 12.500000
v -12.499999 2.500000 12.500000
v -7.500000 -2.500000 12.500000
v -7.500000 2.500000 12.500000
v -12.499999 2.500000 12.500000
v -12.499999 7.500000 12.500000
v -7.500000 2.500000 12.500000
v -7.500000 7.500000 12.500000
v -12.500000 -2.500000 7.500000
v -12.500000 2.500000 7.500000
v -12.500000 -2.500000 12.500000
v -12.500000 2.500000 12.500000
v -12.500000 2.500000 7.500000
v -12.500000 7.500000 7.500000
v -12.500000 2.500000 12.500000
v -12.500000 7.500000 12.500000
v -12.500000 -2.500000 2.500000
v -12.500000 2.500000 2.500000
v -12.500000 -2.500000 7.500000
v -12.500000 2.500000 7.500000
v -12.500000 2.500000 2.500000
v -12.500000 7.500000 2.500000
v -12.500000 2.500000 7.500000
v -12.500000 7.500000 7.500000
v -12.500000 -2.500000 -7.499999
v -12.500000 2.500000 -7.499999
v -12.500000 -2.500000 -2.500000
v -12.500000 2.500000 -2.500000
v -12.500000 2.500000 -7.499999
v -12.500000 7.500000 -7.499999
v -12.500000 2.500000 -2.500000
v -12.500000 7.500000 -2.500000
v -12.500000 -2.500000 -12.500000
v -12.500000 2.500000 -12.500000
v -12.500000 -2.500000 -7.500000
v -12.500000 2.500000 -7.500000
v -12.500000 2.500000 -12.500000
v -12.500000 7.500000 -12.500000
v -12.500000 2.500000 -7.500000
v -12.500000 7.500000 -7.500000
v -7.500002 -2.500000 -12.500000
v -7.500002 2.500000 -12.500000
v -12.500000 -2.500000 -12.500000
v -12.500000 2.500000 -12.500000
v -7.500002 2.500000 -12.500000
v -7.500002 7.500000 -12.500000
v -12.500000 2.500000 -12.500000
v -12.500000 7.500000 -12.500000
v -2.500002 -2.500000 -12.500000
v -2.500002 2.500000 -12.500000
v -7.500000 -2.500000 -12.500000
v -7.500000 2.500000 -12.500000
v -2.500002 2.500000 -12.500000
v -2.500002 7.500000 -12.500000
v -7.500000 2.500000 -12.500000
v -7.500000 7.500000 -12.500000
v 7.499999 -2.500000 -12.500000
v 7.499999 2.500000 -12.500000
v 2.500000 -2.500000 -12.500000
v 2.500000 2.500000 -12.500000
v 7.499999 2.500000 -12.500000
v 7.499999 7.500000 -12.500000
v 2.500000 2.500000 -12.500000
v 2.500000 7.500000 -12.500000
v 12.499998 -2.500000 -12.500000
v 12.499998 2.500000 -12.500000
v 7.500000 -2.500000 -12.500000
v 7.500000 2.500000 -12.500000
v 12.499998 2.500000 -12.500000
v 12.499998 7.500000 -12.500000
v 7.500000 2.500000 -12.500000
v 7.500000 7.500000 -12.500000
v 12.500002 -2.499999 -7.500002
v 12.500002 2.500000 -7.500002
v 12.499998 -2.499999 -12.500002
v 12.499998 2.500000 -12.500002
v 12.500002 2.500000 -7.500002
v 12.500002 7.500000 -7.500002
v 12.499998 2.500000 -12.500002
v 12.499998 7.500000 -12.500002
v 12.500002 -2.499999 -2.500002
v 12.500002 2.500000 -2.500002
v 12.499998 -2.499999 -7.500002
v 12.499998 2.500000 -7.500002
v 12.500002 2.500000 -2.500002
v 12.500002 7.500000 -2.500002
v 12.499998 2.500000 -7.500002
v 12.499998 7.500000 -7.500002
v 12.500002 -2.499999 7.499997
v 12.500002 2.500000 7.499997
v 12.499998 -2.499999 2.499998
v 12.499998 2.500000 2.499998
v 12.500002 2.500000 7.499997
v 12.500002 7.500000 7.499997
v 12.499998 2.500000 2.499998
v 12.499998 7.500000 2.499998
v 12.500002 -2.499999 12.499998
v 12.500002 2.500000 12.499998
v 12.499998 -2.499999 7.499998
v 12.499998 2.500000 7.499998
v 12.500002 2.500000 12.499998
v 12.500002 7.500000 12.499998
v 12.499998 2.500000 7.499998
v 12.499998 7.500000 7.499998
v -2.499999 2.500000 12.500000
v -2.499999 7.500000 12.500000
v 2.500000 2.500000 12.500000
v 2.500000 7.500000 12.500000
v -12.500000 2.500000 -2.500000
v -12.500000 7.500000 -2.500000
v -12.500000 2.500000 2.500000
v -12.500000 7.500000 2.500000
v 2.499999 2.500000 -12.500000
v 2.499999 7.500000 -12.500000
v -2.500000 2.500000 -12.500000
v -2.500000 7.500000 -12.500000
v 12.500002 2.500000 2.499997
v 12.500002 7.500000 2.499997
v 12.499998 2.500000 -2.500002
v 12.499998 7.500000 -2.500002
v 2.677674 2.375000 12.625000
v 2.677674 2.968905 12.625000
v 2.677674 2.968905 12.375000
v 2.677674 2.375000 12.375000
v -2.375000 -2.500000 12.625000
v -2.625000 -2.500000 12.625000
v -2.625000 -2.500000 12.375001
v -2.375000 -2.500000 12.375001
v -2.677675 2.375000 12.625000
v -2.677675 2.968905 12.625000
v -2.677675 2.968905 12.375000
v -2.677675 2.375000 12.375000
v -2.375000 2.375000 12.625000
v -2.625000 2.375000 12.625000
v -2.625000 2.375000 12.375000
v -2.375000 2.375000 12.375000
v 2.625000 -2.500000 12.625000
v 2.375000 -2.500000 12.625000
v 2.375000 -2.500000 12.375001
v 2.625000 -2.500000 12.375001
v 2.625000 2.375000 12.625000
v 2.375000 2.375000 12.625000
v 2.375000 2.375000 12.375000
v 2.625000 2.375000 12.375000
v 2.677674 2.375000 -12.375000
v 2.677674 2.968905 -12.375002
v 2.677674 2.968905 -12.625000
v 2.677674 2.375000 -12.625000
v -2.375000 -2.500000 -12.375000
v -2.625000 -2.500000 -12.375000
v -2.625000 -2.500000 -12.624998
v -2.375000 -2.500000 -12.624998
v -2.677675 2.375000 -12.375000
v -2.677675 2.968905 -12.375002
v -2.677675 2.968905 -12.625000
v -2.677675 2.375000 -12.625000
v -2.375000 2.375000 -12.375000
v -2.625000 2.375000 -12.375000
v -2.625000 2.375000 -12.625000
v -2.375000 2.375000 -12.625000
v 2.625000 -2.500000 -12.375000
v 2.375000 -2.500000 -12.375000
v 2.375000 -2.500000 -12.624998
v 2.625000 -2.500000 -12.624998
v 2.625000 2.375000 -12.375000
v 2.375000 2.375000 -12.375000
v 2.375000 2.375000 -12.625000
v 2.625000 2.375000 -12.625000
v -12.375001 2.375000 -2.677674
v -12.375001 2.968905 -2.677674
v -12.625000 2.968905 -2.677674
v -12.625000 2.375000 -2.677674
v -12.375000 -2.500000 2.375000
v -12.375000 -2.500000 2.625000
v -12.624999 -2.500000 2.625000
v -12.624999 -2.500000 2.375000
v -12.375000 2.375000 2.677675
v -12.375000 2.968905 2.677675
v -12.625000 2.968905 2.677675
v -12.625000 2.375000 2.677675
v -12.375000 2.375000 2.375000
v -12.375000 2.375000 2.625000
v -12.625000 2.375000 2.625000
v -12.625000 2.375000 2.375000
v -12.375000 -2.500000 -2.625000
v -12.375000 -2.500000 -2.375000
v -12.625000 -2.500000 -2.375000
v -12.625000 -2.500000 -2.625000
v -12.375001 2.375000 -2.625000
v -12.375001 2.375000 -2.375000
v -12.625000 2.375000 -2.375000
v -12.625000 2.375000 -2.625000
v 12.625000 2.375000 -2.677674
v 12.625000 2.968905 -2.677674
v 12.375000 2.968905 -2.677674
v 12.375000 2.375000 -2.677674
v 12.625000 -2.500000 2.375000
v 12.625000 -2.500000 2.625000
v 12.375000 -2.500000 2.625000
v 12.375000 -2.500000 2.375000
v 12.625000 2.375000 2.677675
v 12.625000 2.968905 2.677675
v 12.375000 2.968905 2.677675
v 12.375000 2.375000 2.677675
v 12.625000 2.375000 2.375000
v 12.625000 2.375000 2.625000
v 12.375000 2.375000 2.625000
v 12.375000 2.375000 2.375000
v 12.625000 -2.500000 -2.625000
v 12.625000 -2.500000 -2.375000
v 12.375000 -2.500000 -2.375000
v 12.375000 -2.500000 -2.625000
v 12.625000 2.375000 -2.625000
v 12.625000 2.375000 -2.375000
v 12.375000 2.375000 -2.375000
v 12.375000 2.375000 -2.625000
v -7.500001 7.500000 7.500000
v -7.500000 7.500000 12.499999
v -12.500000 7.500000 7.500000
v -12.499999 7.500000 12.500000
v -2.500001 7.500000 7.500000
v -2.500000 7.500000 12.499999
v -7.500000 7.500000 7.500000
v -7.499999 7.500000 12.500000
v 2.499999 7.500000 7.500000
v 2.500000 7.500000 12.499999
v -2.500000 7.500000 7.500000
v -2.499999 7.500000 12.500000
v 12.500000 7.500000 7.500000
v 12.500000 7.500000 12.499999
v 7.500000 7.500000 7.500000
v 7.500001 7.500000 12.500000
v 7.499999 7.500000 7.500000
v 7.500000 7.500000 12.499999
v 2.500000 7.500000 7.500000
v 2.500001 7.500000 12.500000
v -7.500001 7.500000 2.500000
v -7.500000 7.500000 7.500000
v -12.500000 7.500000 2.500000
v -12.499999 7.500000 7.500000
v -2.500001 7.500000 2.500000
v -2.500000 7.500000 7.500000
v -7.500000 7.500000 2.500000
v -7.499999 7.500000 7.500000
v 2.499999 7.500000 2.500000
v 2.500000 7.500000 7.500000
v -2.500000 7.500000 2.500000
v -2.499999 7.500000 7.500000
v 12.500000 7.500000 2.500000
v 12.500000 7.500000 7.500000
v 7.500000 7.500000 2.500000
v 7.500001 7.500000 7.500000
v 7.499999 7.500000 2.500000
v 7.500000 7.500000 7.500000
v 2.500000 7.500000 2.500000
v 2.500001 7.500000 7.500000
v -7.500001 7.500000 -2.500000
v -7.500000 7.500000 2.500000
v -12.500000 7.500000 -2.499999
v -12.499999 7.500000 2.500000
v -2.500001 7.500000 -2.500000
v -2.500000 7.500000 2.500000
v -7.500000 7.500000 -2.499999
v -7.499999 7.500000 2.500000
v 2.499999 7.500000 -2.500000
v 2.500000 7.500000 2.500000
v -2.500000 7.500000 -2.499999
v -2.499999 7.500000 2.500000
v 12.500000 7.500000 -2.500000
v 12.500000 7.500000 2.500000
v 7.500000 7.500000 -2.499999
v 7.500001 7.500000 2.500000
v 7.499999 7.500000 -2.500000
v 7.500000 7.500000 2.500000
v 2.500000 7.500000 -2.499999
v 2.500001 7.500000 2.500000
v -7.500001 7.500000 -7.500000
v -7.500000 7.500000 -2.500001
v -12.500000 7.500000 -7.499999
v -12.499999 7.500000 -2.500000
v -2.500001 7.500000 -7.500000
v -2.500000 7.500000 -2.500001
v -7.500000 7.500000 -7.499999
v -7.499999 7.500000 -2.500000
v 2.499999 7.500000 -7.500000
v 2.500000 7.500000 -2.500001
v -2.500000 7.500000 -7.499999
v -2.499999 7.500000 -2.500000
v 12.500000 7.500000 -7.500000
v 12.500000 7.500000 -2.500001
v 7.500000 7.500000 -7.499999
v 7.500001 7.500000 -2.500000
v 7.499999 7.500000 -7.500000
v 7.500000 7.500000 -2.500001
v 2.500000 7.500000 -7.499999
v 2.500001 7.500000 -2.500000
v -7.500001 7.500000 -12.500000
v -7.500000 7.500000 -7.500001
v -12.500000 7.500000 -12.500000
v -12.499999 7.500000 -7.500000
v -2.500001 7.500000 -12.500000
v -2.500000 7.500000 -7.500001
v -7.500000 7.500000 -12.500000
v -7.499999 7.500000 -7.500000
v 2.499999 7.500000 -12.500000
v 2.500000 7.500000 -7.500001
v -2.500000 7.500000 -12.500000
v -2.499999 7.500000 -7.500000
v 12.500000 7.500000 -12.500000
v 12.500000 7.500000 -7.500001
v 7.500000 7.500000 -12.500000
v 7.500001 7.500000 -7.500000
v 7.499999 7.500000 -12.500000
v 7.500000 7.500000 -7.500001
v 2.500000 7.500000 -12.500000
v 2.500001 7.500000 -7.500000
vn -0.0000 1.0000 -0.0000
vn -0.0000 -0.0000 -1.0000
vn 1.0000 -0.0000 -0.0000
vn -0.0000 -0.0000 1.0000
vn -1.0000 -0.0000 -0.0000
vn -0.0000 -1.0000 -0.0000
vt 0.293198 0.850996
vt 0.293199 0.999620
vt 0.442084 0.999615
vt 0.441962 0.850988
vt 0.292969 0.511719
vt 0.000000 0.511719
vt 0.000000 0.804688
vt 0.292969 0.804688
vt 0.292969 0.707031
vt 0.000000 0.707031
vt 0.000000 1.000000
vt 0.292969 1.000000
vt 0.121468 0.585684
vt 0.072840 0.585684
vt 0.072840 0.609782
vt 0.121468 0.609782
vt 0.268390 0.542422
vt 0.024736 0.542422
vt 0.024736 0.556766
vt 0.268390 0.556766
vt 0.023913 0.536758
vt 0.023913 0.561051
vt 0.267994 0.561051
vt 0.267994 0.536758
vt 0.442248 0.999735
vt 0.293236 0.999735
vt 0.293236 0.850778
vt 0.442248 0.850778
s 1
usemtl Material
f 3/1/1 4/2/1 2/3/1 1/4/1
f 7/1/1 8/2/1 6/3/1 5/4/1
f 11/1/1 12/2/1 10/3/1 9/4/1
f 15/1/1 16/2/1 14/3/1 13/4/1
f 19/1/1 20/2/1 18/3/1 17/4/1
f 23/1/1 24/2/1 22/3/1 21/4/1
f 27/1/1 28/2/1 26/3/1 25/4/1
f 31/1/1 32/2/1 30/3/1 29/4/1
f 35/1/1 36/2/1 34/3/1 33/4/1
f 39/1/1 40/2/1 38/3/1 37/4/1
f 43/1/1 44/2/1 42/3/1 41/4/1
f 47/1/1 48/2/1 46/3/1 45/4/1
f 51/1/1 52/2/1 50/3/1 49/4/1
f 55/1/1 56/2/1 54/3/1 53/4/1
f 59/1/1 60/2/1 58/3/1 57/4/1
f 63/1/1 64/2/1 62/3/1 61/4/1
f 67/1/1 68/2/1 66/3/1 65/4/1
f 71/1/1 72/2/1 70/3/1 69/4/1
f 75/1/1 76/2/1 74/3/1 73/4/1
f 79/1/1 80/2/1 78/3/1 77/4/1
f 83/1/1 84/2/1 82/3/1 81/4/1
f 87/1/1 88/2/1 86/3/1 85/4/1
f 91/1/1 92/2/1 90/3/1 89/4/1
f 95/1/1 96/2/1 94/3/1 93/4/1
f 99/1/1 100/2/1 98/3/1 97/4/1
f 103/5/2 101/6/2 102/7/2 104/8/2
f 107/9/2 105/10/2 106/11/2 108/12/2
f 111/5/2 109/6/2 110/7/2 112/8/2
f 115/9/2 113/10/2 114/11/2 116/12/2
f 119/5/2 117/6/2 118/7/2 120/8/2
f 123/9/2 121/10/2 122/11/2 124/12/2
f 127/5/2 125/6/2 126/7/2 128/8/2
f 131/9/2 129/10/2 130/11/2 132/12/2
f 135/5/3 133/6/3 134/7/3 136/8/3
f 139/9/3 137/10/3 138/11/3 140/12/3
f 143/5/3 141/6/3 142/7/3 144/8/3
f 147/9/3 145/10/3 146/11/3 148/12/3
f 151/5/3 149/6/3 150/7/3 152/8/3
f 155/9/3 153/10/3 154/11/3 156/12/3
f 159/5/3 157/6/3 158/7/3 160/8/3
f 163/9/3 161/10/3 162/11/3 164/12/3
f 167/5/4 165/6/4 166/7/4 168/8/4
f 171/9/4 169/10/4 170/11/4 172/12/4
f 175/5/4 173/6/4 174/7/4 176/8/4
f 179/9/4 177/10/4 178/11/4 180/12/4
f 183/5/4 181/6/4 182/7/4 184/8/4
f 187/9/4 185/10/4 186/11/4 188/12/4
f 191/5/4 189/6/4 190/7/4 192/8/4
f 195/9/4 193/10/4 194/11/4 196/12/4
f 199/5/5 197/6/5 198/7/5 200/8/5
f 203/9/5 201/10/5 202/11/5 204/12/5
f 207/5/5 205/6/5 206/7/5 208/8/5
f 211/9/5 209/10/5 210/11/5 212/12/5
f 215/5/5 213/6/5 214/7/5 216/8/5
f 219/9/5 217/10/5 218/11/5 220/12/5
f 223/5/5 221/6/5 222/7/5 224/8/5
f 227/9/5 225/10/5 226/11/5 228/12/5
f 231/9/2 229/10/2 230/11/2 232/12/2
f 235/9/3 233/10/3 234/11/3 236/12/3
f 239/9/4 237/10/4 238/11/4 240/12/4
f 243/9/5 241/10/5 242/11/5 244/12/5
f 342/25/6 344/26/6 343/27/6 341/28/6
f 346/25/6 348/26/6 347/27/6 345/28/6
f 350/25/6 352/26/6 351/27/6 349/28/6
f 354/25/6 356/26/6 355/27/6 353/28/6
f 358/25/6 360/26/6 359/27/6 357/28/6
f 362/25/6 364/26/6 363/27/6 361/28/6
f 366/25/6 368/26/6 367/27/6 365/28/6
f 370/25/6 372/26/6 371/27/6 369/28/6
f 374/25/6 376/26/6 375/27/6 373/28/6
f 378/25/6 380/26/6 379/27/6 377/28/6
f 382/25/6 384/26/6 383/27/6 381/28/6
f 386/25/6 388/26/6 387/27/6 385/28/6
f 390/25/6 392/26/6 391/27/6 389/28/6
f 394/25/6 396/26/6 395/27/6 393/28/6
f 398/25/6 400/26/6 399/27/6 397/28/6
f 402/25/6 404/26/6 403/27/6 401/28/6
f 406/25/6 408/26/6 407/27/6 405/28/6
f 410/25/6 412/26/6 411/27/6 409/28/6
f 414/25/6 416/26/6 415/27/6 413/28/6
f 418/25/6 420/26/6 419/27/6 417/28/6
f 422/25/6 424/26/6 423/27/6 421/28/6
f 426/25/6 428/26/6 427/27/6 425/28/6
f 430/25/6 432/26/6 431/27/6 429/28/6
f 434/25/6 436/26/6 435/27/6 433/28/6
f 438/25/6 440/26/6 439/27/6 437/28/6
usemtl Material.001
f 246/13/3 245/14/3 248/15/3 247/16/3
f 254/13/5 255/16/5 256/15/5 253/14/5
f 260/17/2 252/18/2 251/19/2 259/20/2
f 259/17/5 251/18/5 250/19/5 258/20/5
f 258/20/4 250/19/4 249/18/4 257/17/4
f 257/17/3 249/18/3 252/19/3 260/20/3
f 253/21/6 256/22/6 248/23/6 245/24/6
f 256/21/2 255/22/2 247/23/2 248/24/2
f 255/22/1 254/21/1 246/24/1 247/23/1
f 254/22/4 253/21/4 245/24/4 246/23/4
f 268/17/2 264/18/2 263/19/2 267/20/2
f 267/17/5 263/18/5 262/19/5 266/20/5
f 266/20/4 262/19/4 261/18/4 265/17/4
f 265/17/3 261/18/3 264/19/3 268/20/3
f 270/13/3 269/14/3 272/15/3 271/16/3
f 278/13/5 279/16/5 280/15/5 277/14/5
f 284/17/2 276/18/2 275/19/2 283/20/2
f 283/17/5 275/18/5 274/19/5 282/20/5
f 282/20/4 274/19/4 273/18/4 281/17/4
f 281/17/3 273/18/3 276/19/3 284/20/3
f 277/21/6 280/22/6 272/23/6 269/24/6
f 280/21/2 279/22/2 271/23/2 272/24/2
f 279/22/1 278/21/1 270/24/1 271/23/1
f 278/22/4 277/21/4 269/24/4 270/23/4
f 292/17/2 288/18/2 287/19/2 291/20/2
f 291/17/5 287/18/5 286/19/5 290/20/5
f 290/20/4 286/19/4 285/18/4 289/17/4
f 289/17/3 285/18/3 288/19/3 292/20/3
f 294/13/2 293/14/2 296/15/2 295/16/2
f 302/13/4 303/16/4 304/15/4 301/14/4
f 308/17/5 300/18/5 299/19/5 307/20/5
f 307/17/4 299/18/4 298/19/4 306/20/4
f 306/20/3 298/19/3 297/18/3 305/17/3
f 305/17/2 297/18/2 300/19/2 308/20/2
f 301/21/6 304/22/6 296/23/6 293/24/6
f 304/21/5 303/22/5 295/23/5 296/24/5
f 303/22/1 302/21/1 294/24/1 295/23/1
f 302/22/3 301/21/3 293/24/3 294/23/3
f 316/17/5 312/18/5 311/19/5 315/20/5
f 315/17/4 311/18/4 310/19/4 314/20/4
f 314/20/3 310/19/3 309/18/3 313/17/3
f 313/17/2 309/18/2 312/19/2 316/20/2
f 318/13/2 317/14/2 320/15/2 319/16/2
f 326/13/4 327/16/4 328/15/4 325/14/4
f 332/17/5 324/18/5 323/19/5 331/20/5
f 331/17/4 323/18/4 322/19/4 330/20/4
f 330/20/3 322/19/3 321/18/3 329/17/3
f 329/17/2 321/18/2 324/19/2 332/20/2
f 325/21/6 328/22/6 320/23/6 317/24/6
f 328/21/5 327/22/5 319/23/5 320/24/5
f 327/22/1 326/21/1 318/24/1 319/23/1
f 326/22/3 325/21/3 317/24/3 318/23/3
f 340/17/5 336/18/5 335/19/5 339/20/5
f 339/17/4 335/18/4 334/19/4 338/20/4
f 338/20/3 334/19/3 333/18/3 337/17/3
f 337/17/2 333/18/2 336/19/2 340/20/2
