# Blender 4.3.2
# www.blender.org
mtllib room3.mtl
o corridor_straight.079
v -2.500000 2.500000 -2.499999
v -2.500000 7.500000 -2.499999
v -2.499999 2.500000 2.500000
v -2.499999 7.500000 2.500000
v -2.499999 -2.500000 2.500000
v -2.500000 -2.500000 -2.499999
v 2.500000 -2.500000 2.499999
v 2.499998 -2.500000 -2.500000
v 12.500001 -2.500000 2.500000
v 12.499999 -2.500000 -2.499999
v 17.500000 -2.500000 2.499999
v 17.499998 -2.500000 -2.500000
v 7.500001 -2.500000 2.500000
v 7.500000 -2.500000 -2.499999
v 12.500001 -2.500000 2.500000
v 12.499998 -2.500000 -2.500000
v 2.500001 -2.500000 2.500000
v 2.500000 -2.500000 -2.499999
v 7.500000 -2.500000 2.500000
v 7.499999 -2.500000 -2.500000
v 17.500000 -2.500000 2.500000
v 17.500000 -2.500000 -2.499999
v 22.500000 -2.500000 2.500000
v 22.500000 -2.500000 -2.500000
v 22.500000 -2.500000 2.500000
v 22.500000 -2.500000 -2.499999
v 27.500000 -2.500000 2.500000
v 27.500000 -2.500000 -2.500000
v 27.500000 -2.500000 2.500000
v 27.500000 -2.500000 -2.499999
v 32.500000 -2.500000 2.499999
v 32.500000 -2.500000 -2.500000
v 32.500000 -2.500000 2.500000
v 32.500000 -2.500000 -2.499999
v 37.500000 -2.500000 2.499999
v 37.500000 -2.500000 -2.500000
v 2.499998 -2.500000 -2.500001
v 2.499998 2.500000 -2.500001
v -2.500001 -2.500000 -2.499999
v -2.500001 2.500000 -2.499999
v 2.499998 2.500000 -2.500001
v 2.499998 7.500000 -2.500001
v -2.500001 2.500000 -2.499999
v -2.500001 7.500000 -2.499999
v 7.499999 2.500000 -2.500000
v 7.499999 7.500000 -2.500000
v 2.499999 2.500000 -2.499998
v 2.499999 7.500000 -2.499998
v 12.499998 -2.500000 -2.500000
v 12.499998 2.500000 -2.500000
v 7.500000 -2.500000 -2.499998
v 7.500000 2.500000 -2.499998
v 12.499998 2.500000 -2.500000
v 12.499998 7.500000 -2.500000
v 7.500000 2.500000 -2.499998
v 7.500000 7.500000 -2.499998
v 17.499998 -2.500000 -2.500001
v 17.499998 2.500000 -2.500001
v 12.499999 -2.500000 -2.499998
v 12.499999 2.500000 -2.499998
v 17.499998 2.500000 -2.500001
v 17.499998 7.500000 -2.500001
v 12.499999 2.500000 -2.499998
v 12.499999 7.500000 -2.499998
v 22.500000 -2.500000 -2.500001
v 22.500000 2.500000 -2.500001
v 17.500000 -2.500000 -2.499998
v 17.500000 2.500000 -2.499998
v 22.500000 2.500000 -2.500001
v 22.500000 7.500000 -2.500001
v 17.500000 2.500000 -2.499998
v 17.500000 7.500000 -2.499998
v 27.500000 -2.500000 -2.500001
v 27.500000 2.500000 -2.500001
v 22.500000 -2.500000 -2.499999
v 22.500000 2.500000 -2.499999
v 27.500000 2.500000 -2.500001
v 27.500000 7.500000 -2.500001
v 22.500000 2.500000 -2.499999
v 22.500000 7.500000 -2.499999
v 32.500000 2.500000 -2.500002
v 32.500000 7.500000 -2.500002
v 27.500000 2.500000 -2.499999
v 27.500000 7.500000 -2.499999
v 37.500000 -2.500000 -2.500001
v 37.500000 2.500000 -2.500001
v 32.500000 -2.500000 -2.499999
v 32.500000 2.500000 -2.499999
v 37.500000 2.500000 -2.500001
v 37.500000 7.500000 -2.500001
v 32.500000 2.500000 -2.499999
v 32.500000 7.500000 -2.499999
v 7.677675 2.375000 -2.375000
v 7.677675 2.968905 -2.375000
v 7.677675 2.968905 -2.625000
v 7.677675 2.375000 -2.625000
v 2.625000 -2.500000 -2.375000
v 2.375000 -2.500000 -2.375000
v 2.375000 -2.500000 -2.625000
v 2.625000 -2.500000 -2.625000
v 2.322325 2.375000 -2.375000
v 2.322325 2.968905 -2.375000
v 2.322325 2.968905 -2.625000
v 2.322325 2.375000 -2.625000
v 2.625000 2.375000 -2.375000
v 2.375000 2.375000 -2.375000
v 2.375000 2.375000 -2.625000
v 2.625000 2.375000 -2.625000
v 7.625000 -2.500000 -2.375000
v 7.375000 -2.500000 -2.375000
v 7.375000 -2.500000 -2.625000
v 7.625000 -2.500000 -2.625000
v 7.625000 2.375000 -2.375000
v 7.375000 2.375000 -2.375000
v 7.375000 2.375000 -2.625000
v 7.625000 2.375000 -2.625000
v 32.677673 2.375000 -2.375000
v 32.677673 2.968905 -2.375000
v 32.677673 2.968905 -2.625000
v 32.677673 2.375000 -2.625000
v 27.625000 -2.500000 -2.375000
v 27.375002 -2.500000 -2.375000
v 27.375002 -2.500000 -2.625000
v 27.625000 -2.500000 -2.625000
v 27.322327 2.375000 -2.375000
v 27.322327 2.968905 -2.375000
v 27.322327 2.968905 -2.625000
v 27.322327 2.375000 -2.625000
v 27.625000 2.375000 -2.375000
v 27.375002 2.375000 -2.375000
v 27.375002 2.375000 -2.625000
v 27.625000 2.375000 -2.625000
v 32.625000 -2.500000 -2.375000
v 32.375000 -2.500000 -2.375000
v 32.375000 -2.500000 -2.625000
v 32.625000 -2.500000 -2.625000
v 32.625000 2.375000 -2.375000
v 32.375000 2.375000 -2.375000
v 32.375000 2.375000 -2.625000
v 32.625000 2.375000 -2.625000
v 27.322323 2.375000 2.375000
v 27.322323 2.968905 2.375000
v 27.322323 2.968905 2.625000
v 27.322323 2.375000 2.625000
v 32.375000 -2.500000 2.375002
v 32.625000 -2.500000 2.375002
v 32.625000 -2.500000 2.625001
v 32.375000 -2.500000 2.625002
v 32.677673 2.375000 2.375002
v 32.677673 2.968905 2.375002
v 32.677673 2.968905 2.625002
v 32.677673 2.375000 2.625002
v 32.375000 2.375000 2.375002
v 32.625000 2.375000 2.375002
v 32.625000 2.375000 2.625002
v 32.375000 2.375000 2.625002
v 27.375000 -2.500000 2.375000
v 27.624998 -2.500000 2.375000
v 27.624998 -2.500000 2.625000
v 27.375000 -2.500000 2.625000
v 27.375000 2.375000 2.375000
v 27.624998 2.375000 2.375000
v 27.624998 2.375000 2.625000
v 27.375000 2.375000 2.625000
v 2.322324 2.375000 2.374998
v 2.322324 2.968905 2.374998
v 2.322324 2.968905 2.624998
v 2.322324 2.375000 2.624998
v 7.375000 -2.500000 2.375000
v 7.624999 -2.500000 2.375000
v 7.624999 -2.500000 2.625000
v 7.374999 -2.500000 2.625000
v 7.677674 2.375000 2.375000
v 7.677674 2.968905 2.375000
v 7.677674 2.968905 2.625000
v 7.677674 2.375000 2.625000
v 7.375000 2.375000 2.375000
v 7.624999 2.375000 2.375000
v 7.624999 2.375000 2.625000
v 7.374999 2.375000 2.625000
v 2.375000 -2.500000 2.374998
v 2.624999 -2.500000 2.374998
v 2.624999 -2.500000 2.624998
v 2.374999 -2.500000 2.624998
v 2.375000 2.375000 2.374998
v 2.624999 2.375000 2.374998
v 2.624999 2.375000 2.624999
v 2.374999 2.375000 2.624998
v 37.500000 2.500000 2.499998
v 37.500000 7.500000 2.499998
v 37.500000 2.500000 -2.500000
v 37.500000 7.500000 -2.500000
v 32.500000 -2.500000 2.500000
v 32.500000 2.500000 2.500000
v 37.500000 -2.500000 2.499999
v 37.500000 2.500000 2.499999
v 32.500000 2.500000 2.500000
v 32.500000 7.500000 2.500000
v 37.500000 2.500000 2.499999
v 37.500000 7.500000 2.499999
v 27.500000 2.500000 2.500000
v 27.500000 7.500000 2.500000
v 32.500000 2.500000 2.499999
v 32.500000 7.500000 2.499999
v 22.500000 -2.500000 2.500000
v 22.500000 2.500000 2.500000
v 27.500000 -2.500000 2.499999
v 27.500000 2.500000 2.499999
v 22.500000 2.500000 2.500000
v 22.500000 7.500000 2.500000
v 27.500000 2.500000 2.499999
v 27.500000 7.500000 2.499999
v 17.500000 -2.500000 2.500000
v 17.500000 2.500000 2.500000
v 22.500000 -2.500000 2.499999
v 22.500000 2.500000 2.499999
v 17.500000 2.500000 2.500000
v 17.500000 7.500000 2.500000
v 22.500000 2.500000 2.499999
v 22.500000 7.500000 2.499999
v 12.500001 -2.500000 2.500000
v 12.500001 2.500000 2.500000
v 17.500000 -2.500000 2.499999
v 17.500000 2.500000 2.499999
v 12.500001 2.500000 2.500000
v 12.500001 7.500000 2.500000
v 17.500000 2.500000 2.499999
v 17.500000 7.500000 2.499999
v 7.500001 -2.500000 2.500000
v 7.500001 2.500000 2.500000
v 12.500001 -2.500000 2.500000
v 12.500001 2.500000 2.500000
v 7.500001 2.500000 2.500000
v 7.500001 7.500000 2.500000
v 12.500001 2.500000 2.500000
v 12.500001 7.500000 2.500000
v 2.500001 2.500000 2.500000
v 2.500001 7.500000 2.500000
v 7.500000 2.500000 2.499999
v 7.500000 7.500000 2.499999
v -2.499999 -2.500000 2.500000
v -2.499999 2.500000 2.500000
v 2.500000 -2.500000 2.499999
v 2.500000 2.500000 2.499999
v -2.499999 2.500000 2.500000
v -2.499999 7.500000 2.500000
v 2.500000 2.500000 2.499999
v 2.500000 7.500000 2.499999
v 2.499998 7.500000 -2.500000
v 2.500000 7.500000 2.499999
v -2.500000 7.500000 -2.499999
v -2.499999 7.500000 2.500000
v 7.499999 7.500000 -2.500000
v 7.500000 7.500000 2.500000
v 2.500000 7.500000 -2.499999
v 2.500001 7.500000 2.500000
v 12.499998 7.500000 -2.500000
v 12.500001 7.500000 2.500000
v 7.500000 7.500000 -2.499999
v 7.500001 7.500000 2.500000
v 17.499998 7.500000 -2.500000
v 17.500000 7.500000 2.499999
v 12.499999 7.500000 -2.499999
v 12.500001 7.500000 2.500000
v 22.500000 7.500000 -2.500000
v 22.500000 7.500000 2.500000
v 17.500000 7.500000 -2.499999
v 17.500000 7.500000 2.500000
v 27.500000 7.500000 -2.500000
v 27.500000 7.500000 2.500000
v 22.500000 7.500000 -2.499999
v 22.500000 7.500000 2.500000
v 32.500000 7.500000 -2.500000
v 32.500000 7.500000 2.499999
v 27.500000 7.500000 -2.499999
v 27.500000 7.500000 2.500000
v 37.500000 7.500000 -2.500000
v 37.500000 7.500000 2.499999
v 32.500000 7.500000 -2.499999
v 32.500000 7.500000 2.500000
vn 1.0000 -0.0000 -0.0000
vn -0.0000 1.0000 -0.0000
vn -0.0000 -0.0000 1.0000
vn -1.0000 -0.0000 -0.0000
vn -0.0000 -0.0000 -1.0000
vn -0.0000 -1.0000 -0.0000
vt 0.292969 0.707031
vt 0.000000 0.707031
vt 0.000000 1.000000
vt 0.292969 1.000000
vt 0.293198 0.850996
vt 0.293199 0.999620
vt 0.442084 0.999615
vt 0.441962 0.850988
vt 0.292969 0.511719
vt 0.000000 0.511719
vt 0.000000 0.804688
vt 0.292969 0.804688
vt 0.121468 0.585684
vt 0.072840 0.585684
vt 0.072840 0.609782
vt 0.121468 0.609782
vt 0.268390 0.542422
vt 0.024736 0.542422
vt 0.024736 0.556766
vt 0.268390 0.556766
vt 0.023913 0.536758
vt 0.023913 0.561051
vt 0.267994 0.561051
vt 0.267994 0.536758
vt 0.442248 0.999735
vt 0.293236 0.999735
vt 0.293236 0.850778
vt 0.442248 0.850778
s 0
usemtl Material
f 3/1/1 1/2/1 2/3/1 4/4/1
f 7/5/2 8/6/2 6/7/2 5/8/2
f 11/5/2 12/6/2 10/7/2 9/8/2
f 15/5/2 16/6/2 14/7/2 13/8/2
f 19/5/2 20/6/2 18/7/2 17/8/2
f 23/5/2 24/6/2 22/7/2 21/8/2
f 27/5/2 28/6/2 26/7/2 25/8/2
f 31/5/2 32/6/2 30/7/2 29/8/2
f 35/5/2 36/6/2 34/7/2 33/8/2
f 39/9/3 37/10/3 38/11/3 40/12/3
f 43/1/3 41/2/3 42/3/3 44/4/3
f 47/1/3 45/2/3 46/3/3 48/4/3
f 51/9/3 49/10/3 50/11/3 52/12/3
f 55/1/3 53/2/3 54/3/3 56/4/3
f 59/9/3 57/10/3 58/11/3 60/12/3
f 63/1/3 61/2/3 62/3/3 64/4/3
f 67/9/3 65/10/3 66/11/3 68/12/3
f 71/1/3 69/2/3 70/3/3 72/4/3
f 75/9/3 73/10/3 74/11/3 76/12/3
f 79/1/3 77/2/3 78/3/3 80/4/3
f 83/1/3 81/2/3 82/3/3 84/4/3
f 87/9/3 85/10/3 86/11/3 88/12/3
f 91/1/3 89/2/3 90/3/3 92/4/3
f 191/1/4 189/2/4 190/3/4 192/4/4
f 195/9/5 193/10/5 194/11/5 196/12/5
f 199/1/5 197/2/5 198/3/5 200/4/5
f 203/1/5 201/2/5 202/3/5 204/4/5
f 207/9/5 205/10/5 206/11/5 208/12/5
f 211/1/5 209/2/5 210/3/5 212/4/5
f 215/9/5 213/10/5 214/11/5 216/12/5
f 219/1/5 217/2/5 218/3/5 220/4/5
f 223/9/5 221/10/5 222/11/5 224/12/5
f 227/1/5 225/2/5 226/3/5 228/4/5
f 231/9/5 229/10/5 230/11/5 232/12/5
f 235/1/5 233/2/5 234/3/5 236/4/5
f 239/1/5 237/2/5 238/3/5 240/4/5
f 243/9/5 241/10/5 242/11/5 244/12/5
f 247/1/5 245/2/5 246/3/5 248/4/5
f 250/25/6 252/26/6 251/27/6 249/28/6
f 254/25/6 256/26/6 255/27/6 253/28/6
f 258/25/6 260/26/6 259/27/6 257/28/6
f 262/25/6 264/26/6 263/27/6 261/28/6
f 266/25/6 268/26/6 267/27/6 265/28/6
f 270/25/6 272/26/6 271/27/6 269/28/6
f 274/25/6 276/26/6 275/27/6 273/28/6
f 278/25/6 280/26/6 279/27/6 277/28/6
usemtl Material.001
f 94/13/1 93/14/1 96/15/1 95/16/1
f 102/13/4 103/16/4 104/15/4 101/14/4
f 108/17/5 100/18/5 99/19/5 107/20/5
f 107/17/4 99/18/4 98/19/4 106/20/4
f 106/20/3 98/19/3 97/18/3 105/17/3
f 105/17/1 97/18/1 100/19/1 108/20/1
f 101/21/6 104/22/6 96/23/6 93/24/6
f 104/21/5 103/22/5 95/23/5 96/24/5
f 103/22/2 102/21/2 94/24/2 95/23/2
f 102/22/3 101/21/3 93/24/3 94/23/3
f 116/17/5 112/18/5 111/19/5 115/20/5
f 115/17/4 111/18/4 110/19/4 114/20/4
f 114/20/3 110/19/3 109/18/3 113/17/3
f 113/17/1 109/18/1 112/19/1 116/20/1
f 118/13/1 117/14/1 120/15/1 119/16/1
f 126/13/4 127/16/4 128/15/4 125/14/4
f 132/17/5 124/18/5 123/19/5 131/20/5
f 131/17/4 123/18/4 122/19/4 130/20/4
f 130/20/3 122/19/3 121/18/3 129/17/3
f 129/17/1 121/18/1 124/19/1 132/20/1
f 125/21/6 128/22/6 120/23/6 117/24/6
f 128/21/5 127/22/5 119/23/5 120/24/5
f 127/22/2 126/21/2 118/24/2 119/23/2
f 126/22/3 125/21/3 117/24/3 118/23/3
f 140/17/5 136/18/5 135/19/5 139/20/5
f 139/17/4 135/18/4 134/19/4 138/20/4
f 138/20/3 134/19/3 133/18/3 137/17/3
f 137/17/1 133/18/1 136/19/1 140/20/1
f 142/13/4 141/14/4 144/15/4 143/16/4
f 150/13/1 151/16/1 152/15/1 149/14/1
f 156/17/3 148/18/3 147/19/3 155/20/3
f 155/17/1 147/18/1 146/19/1 154/20/1
f 154/20/5 146/19/5 145/18/5 153/17/5
f 153/17/4 145/18/4 148/19/4 156/20/4
f 149/21/6 152/22/6 144/23/6 141/24/6
f 152/21/3 151/22/3 143/23/3 144/24/3
f 151/22/2 150/21/2 142/24/2 143/23/2
f 150/22/5 149/21/5 141/24/5 142/23/5
f 164/17/3 160/18/3 159/19/3 163/20/3
f 163/17/1 159/18/1 158/19/1 162/20/1
f 162/20/5 158/19/5 157/18/5 161/17/5
f 161/17/4 157/18/4 160/19/4 164/20/4
f 166/13/4 165/14/4 168/15/4 167/16/4
f 174/13/1 175/16/1 176/15/1 173/14/1
f 180/17/3 172/18/3 171/19/3 179/20/3
f 179/17/1 171/18/1 170/19/1 178/20/1
f 178/20/5 170/19/5 169/18/5 177/17/5
f 177/17/4 169/18/4 172/19/4 180/20/4
f 173/21/6 176/22/6 168/23/6 165/24/6
f 176/21/3 175/22/3 167/23/3 168/24/3
f 175/22/2 174/21/2 166/24/2 167/23/2
f 174/22/5 173/21/5 165/24/5 166/23/5
f 188/17/3 184/18/3 183/19/3 187/20/3
f 187/17/1 183/18/1 182/19/1 186/20/1
f 186/20/5 182/19/5 181/18/5 185/17/5
f 185/17/4 181/18/4 184/19/4 188/20/4
