# Blender 4.3.2
# www.blender.org
mtllib room4.mtl
o corridor_straight.167
v 22.500000 2.500000 -32.500000
v 22.500000 2.500000 -27.500000
v 17.500000 2.500000 -32.500000
v 17.500000 2.500000 -27.500000
v 12.500001 -2.500000 2.500004
v 12.500000 -2.500000 -2.499998
v 17.500000 -2.500000 2.500004
v 17.500000 -2.500000 -2.499998
v 17.500000 -2.500000 2.500004
v 17.500000 -2.500000 -2.499998
v 22.500000 -2.500000 2.500004
v 22.500000 -2.500000 -2.499998
v 22.500000 -2.500000 2.500004
v 22.500000 -2.500000 -2.499998
v 27.500000 -2.500000 2.500004
v 27.499998 -2.500000 -2.499998
v 27.500002 -2.500000 2.500004
v 27.500000 -2.500000 -2.499998
v 32.500000 -2.500000 2.500004
v 32.500000 -2.500000 -2.499998
v -2.499999 -2.500000 2.500004
v -2.500000 -2.500000 -2.499998
v 2.500000 -2.500000 2.500004
v 2.499999 -2.500000 -2.499998
v 2.500001 -2.500000 2.500004
v 2.500000 -2.500000 -2.499998
v 7.500000 -2.500000 2.500004
v 7.499999 -2.500000 -2.499998
v 7.500001 -2.500000 2.500004
v 7.500000 -2.500000 -2.499998
v 12.500000 -2.500000 2.500004
v 12.499999 -2.500000 -2.499998
v 12.500001 -2.500000 -2.499998
v 12.500000 -2.500000 -7.499998
v 17.500000 -2.500000 -2.499998
v 17.500000 -2.500000 -7.499998
v 17.500000 -2.500000 -2.499998
v 17.500000 -2.500000 -7.499998
v 22.500000 -2.500000 -2.499998
v 22.500000 -2.500000 -7.499998
v 22.500000 -2.500000 -2.499998
v 22.500000 -2.500000 -7.499998
v 27.500000 -2.500000 -2.499998
v 27.499998 -2.500000 -7.499998
v 27.500002 -2.500000 -2.499998
v 27.500000 -2.500000 -7.499998
v 32.500000 -2.500000 -2.499998
v 32.500000 -2.500000 -7.499998
v -2.499999 -2.500000 -2.499998
v -2.500000 -2.500000 -7.499998
v 2.500000 -2.500000 -2.499998
v 2.499999 -2.500000 -7.499998
v 2.500001 -2.500000 -2.499998
v 2.500000 -2.500000 -7.499998
v 7.500000 -2.500000 -2.499998
v 7.499999 -2.500000 -7.499998
v 7.500001 -2.500000 -2.499998
v 7.500000 -2.500000 -7.499998
v 12.500000 -2.500000 -2.499998
v 12.499999 -2.500000 -7.499998
v 12.500001 -2.500000 -7.499998
v 12.500000 -2.500000 -12.499996
v 17.500000 -2.500000 -7.499998
v 17.500000 -2.500000 -12.499998
v 17.500000 -2.500000 -7.499998
v 17.500000 -2.500000 -12.499996
v 22.500000 -2.500000 -7.499998
v 22.500000 -2.500000 -12.499998
v 22.500000 -2.500000 -7.499998
v 22.500000 -2.500000 -12.499996
v 27.500000 -2.500000 -7.499998
v 27.499998 -2.500000 -12.499998
v 27.500002 -2.500000 -7.499998
v 27.500000 -2.500000 -12.499996
v 32.500000 -2.500000 -7.499998
v 32.500000 -2.500000 -12.499998
v -2.499999 -2.500000 -7.499998
v -2.500000 -2.500000 -12.499996
v 2.500000 -2.500000 -7.499998
v 2.499999 -2.500000 -12.499998
v 2.500001 -2.500000 -7.499998
v 2.500000 -2.500000 -12.499996
v 7.500000 -2.500000 -7.499998
v 7.499999 -2.500000 -12.499998
v 7.500001 -2.500000 -7.499998
v 7.500000 -2.500000 -12.499996
v 12.500000 -2.500000 -7.499998
v 12.499999 -2.500000 -12.499998
v 12.500001 -2.500000 -12.499998
v 12.500000 -2.500000 -17.499996
v 17.500000 -2.500000 -12.499998
v 17.500000 -2.500000 -17.499998
v 17.500000 -2.500000 -12.499998
v 17.500000 -2.500000 -17.499996
v 22.500000 -2.500000 -12.499998
v 22.500000 -2.500000 -17.499998
v 22.500000 -2.500000 -12.499998
v 22.500000 -2.500000 -17.499996
v 27.500000 -2.500000 -12.499998
v 27.499998 -2.500000 -17.499998
v 27.500002 -2.500000 -12.499998
v 27.500000 -2.500000 -17.499996
v 32.500000 -2.500000 -12.499998
v 32.500000 -2.500000 -17.499998
v -2.499999 -2.500000 -12.499998
v -2.500000 -2.500000 -17.499996
v 2.500000 -2.500000 -12.499998
v 2.499999 -2.500000 -17.499998
v 2.500001 -2.500000 -12.499998
v 2.500000 -2.500000 -17.499996
v 7.500000 -2.500000 -12.499998
v 7.499999 -2.500000 -17.499998
v 7.500001 -2.500000 -12.499998
v 7.500000 -2.500000 -17.499996
v 12.500000 -2.500000 -12.499998
v 12.499999 -2.500000 -17.499998
v 12.500001 -2.500000 -17.499998
v 12.500000 -2.500000 -22.499996
v 17.500000 -2.500000 -17.500000
v 17.500000 -2.500000 -22.499998
v 17.500000 -2.500000 -17.499998
v 17.500000 -2.500000 -22.499996
v 22.500000 -2.500000 -17.500000
v 22.500000 -2.500000 -22.499998
v 22.500000 -2.500000 -17.499998
v 22.500000 -2.500000 -22.499996
v 27.500000 -2.500000 -17.500000
v 27.499998 -2.500000 -22.499998
v 27.500002 -2.500000 -17.499998
v 27.500000 -2.500000 -22.499996
v 32.500000 -2.500000 -17.500000
v 32.500000 -2.500000 -22.499998
v -2.499999 -2.500000 -17.499998
v -2.500000 -2.500000 -22.499996
v 2.500000 -2.500000 -17.500000
v 2.499999 -2.500000 -22.499998
v 2.500001 -2.500000 -17.499998
v 2.500000 -2.500000 -22.499996
v 7.500000 -2.500000 -17.500000
v 7.499999 -2.500000 -22.499998
v 7.500001 -2.500000 -17.499998
v 7.500000 -2.500000 -22.499996
v 12.500000 -2.500000 -17.500000
v 12.499999 -2.500000 -22.499998
v 12.500001 -2.500000 -22.499998
v 12.500000 -2.500000 -27.499996
v 17.500000 -2.500000 -22.499998
v 17.500000 -2.500000 -27.499998
v 17.500000 -2.500000 -22.499998
v 17.500000 -2.500000 -27.499996
v 22.500000 -2.500000 -22.499998
v 22.500000 -2.500000 -27.499998
v 22.500000 -2.500000 -22.499998
v 22.500000 -2.500000 -27.499996
v 27.500000 -2.500000 -22.499998
v 27.499998 -2.500000 -27.499998
v 27.500002 -2.500000 -22.499998
v 27.500000 -2.500000 -27.499996
v 32.500000 -2.500000 -22.499998
v 32.500000 -2.500000 -27.499998
v -2.499999 -2.500000 -22.499998
v -2.500000 -2.500000 -27.499996
v 2.500000 -2.500000 -22.499998
v 2.499999 -2.500000 -27.499998
v 2.500001 -2.500000 -22.499998
v 2.500000 -2.500000 -27.499996
v 7.500000 -2.500000 -22.499998
v 7.499999 -2.500000 -27.499998
v 7.500001 -2.500000 -22.499998
v 7.500000 -2.500000 -27.499996
v 12.500000 -2.500000 -22.499998
v 12.499999 -2.500000 -27.499998
v 12.500001 -2.500000 -27.499998
v 12.500000 -2.500000 -32.499996
v 17.500000 -2.500000 -27.499998
v 17.500000 -2.500000 -32.499996
v 17.500000 -2.500000 -27.499998
v 17.500000 -2.500000 -32.499996
v 22.500000 -2.500000 -27.499998
v 22.500000 -2.500000 -32.499996
v 22.500000 -2.500000 -27.499998
v 22.500000 -2.500000 -32.499996
v 27.500000 -2.500000 -27.499998
v 27.499998 -2.500000 -32.499996
v 27.500002 -2.500000 -27.499998
v 27.500000 -2.500000 -32.499996
v 32.500000 -2.500000 -27.499998
v 32.500000 -2.500000 -32.499996
v -2.499999 -2.500000 -27.499998
v -2.500000 -2.500000 -32.499996
v 2.500000 -2.500000 -27.499998
v 2.499999 -2.500000 -32.499996
v 2.500001 -2.500000 -27.499998
v 2.500000 -2.500000 -32.499996
v 7.500000 -2.500000 -27.499998
v 7.499999 -2.500000 -32.499996
v 7.500001 -2.500000 -27.499998
v 7.500000 -2.500000 -32.499996
v 12.500000 -2.500000 -27.499998
v 12.499999 -2.500000 -32.499996
v 12.500001 -2.500000 -32.499996
v 12.500000 -2.500000 -37.499996
v 17.500000 -2.500000 -32.500000
v 17.500000 -2.500000 -37.499996
v 17.500000 -2.500000 -32.499996
v 17.500000 -2.500000 -37.499996
v 22.500000 -2.500000 -32.500000
v 22.500000 -2.500000 -37.499996
v 22.500000 -2.500000 -32.499996
v 22.500000 -2.500000 -37.499996
v 27.500000 -2.500000 -32.500000
v 27.499998 -2.500000 -37.499996
v 27.500002 -2.500000 -32.499996
v 27.500000 -2.500000 -37.499996
v 32.500000 -2.500000 -32.500000
v 32.500000 -2.500000 -37.499996
v -2.499999 -2.500000 -32.499996
v -2.500000 -2.500000 -37.499996
v 2.500000 -2.500000 -32.500000
v 2.499999 -2.500000 -37.499996
v 2.500001 -2.500000 -32.499996
v 2.500000 -2.500000 -37.499996
v 7.500000 -2.500000 -32.500000
v 7.499999 -2.500000 -37.499996
v 7.500001 -2.500000 -32.499996
v 7.500000 -2.500000 -37.499996
v 12.500000 -2.500000 -32.500000
v 12.499999 -2.500000 -37.499996
v 2.677675 2.375000 2.625004
v 2.677675 2.968905 2.625004
v 2.677675 2.968905 2.375000
v 2.677675 2.375000 2.375000
v -2.375000 -2.500000 2.625004
v -2.625000 -2.500000 2.625004
v -2.625000 -2.500000 2.375000
v -2.375000 -2.500000 2.375000
v -2.677674 2.375000 2.625004
v -2.677674 2.968905 2.625004
v -2.677674 2.968905 2.375000
v -2.677674 2.375000 2.375000
v -2.375000 2.375000 2.625004
v -2.625000 2.375000 2.625004
v -2.625000 2.375000 2.375000
v -2.375000 2.375000 2.375000
v 2.625000 -2.500000 2.625004
v 2.375000 -2.500000 2.625004
v 2.375000 -2.500000 2.375000
v 2.625000 -2.500000 2.375000
v 2.625000 2.375000 2.625004
v 2.375000 2.375000 2.625004
v 2.375000 2.375000 2.375000
v 2.625000 2.375000 2.375000
v 32.677673 2.375000 -37.374996
v 32.677673 2.968905 -37.374996
v 32.677673 2.968905 -37.625000
v 32.677673 2.375000 -37.625000
v 27.625000 -2.500000 -37.374996
v 27.375000 -2.500000 -37.374996
v 27.375000 -2.500000 -37.624996
v 27.625000 -2.500000 -37.624996
v 27.322327 2.375000 -37.374996
v 27.322327 2.968905 -37.374996
v 27.322327 2.968905 -37.625000
v 27.322327 2.375000 -37.625000
v 27.625000 2.375000 -37.374996
v 27.375000 2.375000 -37.374996
v 27.375000 2.375000 -37.625000
v 27.625000 2.375000 -37.625000
v 32.625000 -2.500000 -37.374996
v 32.375000 -2.500000 -37.374996
v 32.375000 -2.500000 -37.624996
v 32.625000 -2.500000 -37.624996
v 32.625000 2.375000 -37.374996
v 32.375000 2.375000 -37.374996
v 32.375000 2.375000 -37.625000
v 32.625000 2.375000 -37.625000
v -2.500000 -2.500000 -2.499998
v -2.500000 2.500000 -2.499998
v -2.500000 -2.500000 2.500004
v -2.500000 2.500000 2.500004
v -2.500000 -2.500000 -12.499996
v -2.500000 2.500000 -12.499996
v -2.500000 -2.500000 -7.499998
v -2.500000 2.500000 -7.499998
v -2.500000 -2.500000 -22.499996
v -2.500000 2.500000 -22.499996
v -2.500000 -2.500000 -17.499998
v -2.500000 2.500000 -17.499998
v -2.500000 -2.500000 -32.499996
v -2.500000 2.500000 -32.499996
v -2.500000 -2.500000 -27.499998
v -2.500000 2.500000 -27.499998
v 2.500000 -2.500000 -37.499996
v 2.500000 2.500000 -37.499996
v -2.499999 -2.500000 -37.499996
v -2.499999 2.500000 -37.499996
v 7.500000 -2.500000 -37.499996
v 7.500000 2.500000 -37.499996
v 2.500001 -2.500000 -37.499996
v 2.500001 2.500000 -37.499996
v 12.500000 -2.500000 -37.499996
v 12.500000 2.500000 -37.499996
v 7.500001 -2.500000 -37.499996
v 7.500001 2.500000 -37.499996
v 17.500000 -2.500000 -37.499996
v 17.500000 2.500000 -37.499996
v 12.500001 -2.500000 -37.499996
v 12.500001 2.500000 -37.499996
v 22.500000 -2.500000 -37.499996
v 22.500000 2.500000 -37.499996
v 17.500000 -2.500000 -37.499996
v 17.500000 2.500000 -37.499996
v 27.500000 -2.500000 -37.499996
v 27.500000 2.500000 -37.499996
v 22.500000 -2.500000 -37.499996
v 22.500000 2.500000 -37.499996
v 32.500000 -2.500000 -32.500000
v 32.500000 2.500000 -32.500000
v 32.500000 -2.500000 -37.499996
v 32.500000 2.500000 -37.499996
v 32.500000 -2.500000 -27.499998
v 32.500000 2.500000 -27.499998
v 32.500000 -2.500000 -32.499996
v 32.500000 2.500000 -32.499996
v 32.500000 -2.500000 -22.500000
v 32.500000 2.500000 -22.500000
v 32.500000 -2.500000 -27.499998
v 32.500000 2.500000 -27.499998
v 32.500000 -2.500000 -17.500000
v 32.500000 2.500000 -17.500000
v 32.500000 -2.500000 -22.499998
v 32.500000 2.500000 -22.499998
v 32.500000 -2.500000 -12.499998
v 32.500000 2.500000 -12.499998
v 32.500000 -2.500000 -17.499998
v 32.500000 2.500000 -17.499998
v 32.500000 -2.500000 -7.499998
v 32.500000 2.500000 -7.499998
v 32.500000 -2.500000 -12.499998
v 32.500000 2.500000 -12.499998
v 32.500000 -2.500000 -2.499998
v 32.500000 2.500000 -2.499998
v 32.500000 -2.500000 -7.499998
v 32.500000 2.500000 -7.499998
v 32.500000 -2.500000 2.500004
v 32.500000 2.500000 2.500004
v 32.500000 -2.500000 -2.499998
v 32.500000 2.500000 -2.499998
v 2.499999 2.500000 -2.499998
v 2.500000 2.500000 2.500004
v -2.500000 2.500000 -2.499998
v -2.499999 2.500000 2.500004
v 7.499999 2.500000 -2.499998
v 7.500000 2.500000 2.500004
v 2.500000 2.500000 -2.499998
v 2.500001 2.500000 2.500004
v 12.499999 2.500000 -2.499998
v 12.500000 2.500000 2.500004
v 7.500000 2.500000 -2.499998
v 7.500001 2.500000 2.500004
v 17.500000 2.500000 -2.499998
v 17.500000 2.500000 2.500004
v 12.500000 2.500000 -2.499998
v 12.500001 2.500000 2.500004
v 22.500000 2.500000 -2.499998
v 22.500000 2.500000 2.500004
v 17.500000 2.500000 -2.499998
v 17.500000 2.500000 2.500004
v 27.499998 2.500000 -2.499998
v 27.500000 2.500000 2.500004
v 22.500000 2.500000 -2.499998
v 22.500000 2.500000 2.500004
v 32.500000 2.500000 -2.499998
v 32.500000 2.500000 2.500004
v 27.500000 2.500000 -2.499998
v 27.500002 2.500000 2.500004
v 2.499999 2.500000 -7.499998
v 2.500000 2.500000 -2.499998
v -2.500000 2.500000 -7.499998
v -2.499999 2.500000 -2.499998
v 7.499999 2.500000 -7.499998
v 7.500000 2.500000 -2.499998
v 2.500000 2.500000 -7.499998
v 2.500001 2.500000 -2.499998
v 12.499999 2.500000 -7.499998
v 12.500000 2.500000 -2.499998
v 7.500000 2.500000 -7.499998
v 7.500001 2.500000 -2.499998
v 17.500000 2.500000 -7.499998
v 17.500000 2.500000 -2.499998
v 12.500000 2.500000 -7.499998
v 12.500001 2.500000 -2.499998
v 22.500000 2.500000 -7.499998
v 22.500000 2.500000 -2.499998
v 17.500000 2.500000 -7.499998
v 17.500000 2.500000 -2.499998
v 27.499998 2.500000 -7.499998
v 27.500000 2.500000 -2.499998
v 22.500000 2.500000 -7.499998
v 22.500000 2.500000 -2.499998
v 32.500000 2.500000 -7.499998
v 32.500000 2.500000 -2.499998
v 27.500000 2.500000 -7.499998
v 27.500002 2.500000 -2.499998
v 2.499999 2.500000 -12.499998
v 2.500000 2.500000 -7.499998
v -2.500000 2.500000 -12.499996
v -2.499999 2.500000 -7.499998
v 7.499999 2.500000 -12.499998
v 7.500000 2.500000 -7.499998
v 2.500000 2.500000 -12.499996
v 2.500001 2.500000 -7.499998
v 12.499999 2.500000 -12.499998
v 12.500000 2.500000 -7.499998
v 7.500000 2.500000 -12.499996
v 7.500001 2.500000 -7.499998
v 17.500000 2.500000 -12.499998
v 17.500000 2.500000 -7.499998
v 12.500000 2.500000 -12.499996
v 12.500001 2.500000 -7.499998
v 22.500000 2.500000 -12.499998
v 22.500000 2.500000 -7.499998
v 17.500000 2.500000 -12.499996
v 17.500000 2.500000 -7.499998
v 27.499998 2.500000 -12.499998
v 27.500000 2.500000 -7.499998
v 22.500000 2.500000 -12.499996
v 22.500000 2.500000 -7.499998
v 32.500000 2.500000 -12.499998
v 32.500000 2.500000 -7.499998
v 27.500000 2.500000 -12.499996
v 27.500002 2.500000 -7.499998
v 2.499999 2.500000 -17.499998
v 2.500000 2.500000 -12.499998
v -2.500000 2.500000 -17.499996
v -2.499999 2.500000 -12.499998
v 7.499999 2.500000 -17.499998
v 7.500000 2.500000 -12.499998
v 2.500000 2.500000 -17.499996
v 2.500001 2.500000 -12.499998
v 12.499999 2.500000 -17.499998
v 12.500000 2.500000 -12.499998
v 7.500000 2.500000 -17.499996
v 7.500001 2.500000 -12.499998
v 17.500000 2.500000 -17.499998
v 17.500000 2.500000 -12.499998
v 12.500000 2.500000 -17.499996
v 12.500001 2.500000 -12.499998
v 22.500000 2.500000 -17.499998
v 22.500000 2.500000 -12.499998
v 17.500000 2.500000 -17.499996
v 17.500000 2.500000 -12.499998
v 27.499998 2.500000 -17.499998
v 27.500000 2.500000 -12.499998
v 22.500000 2.500000 -17.499996
v 22.500000 2.500000 -12.499998
v 32.500000 2.500000 -17.499998
v 32.500000 2.500000 -12.499998
v 27.500000 2.500000 -17.499996
v 27.500002 2.500000 -12.499998
v 2.499999 2.500000 -22.499998
v 2.500000 2.500000 -17.500000
v -2.500000 2.500000 -22.499996
v -2.499999 2.500000 -17.499998
v 7.499999 2.500000 -22.499998
v 7.500000 2.500000 -17.500000
v 2.500000 2.500000 -22.499996
v 2.500001 2.500000 -17.499998
v 12.499999 2.500000 -22.499998
v 12.500000 2.500000 -17.500000
v 7.500000 2.500000 -22.499996
v 7.500001 2.500000 -17.499998
v 17.500000 2.500000 -22.499998
v 17.500000 2.500000 -17.500000
v 12.500000 2.500000 -22.499996
v 12.500001 2.500000 -17.499998
v 22.500000 2.500000 -22.499998
v 22.500000 2.500000 -17.500000
v 17.500000 2.500000 -22.499996
v 17.500000 2.500000 -17.499998
v 27.499998 2.500000 -22.499998
v 27.500000 2.500000 -17.500000
v 22.500000 2.500000 -22.499996
v 22.500000 2.500000 -17.499998
v 32.500000 2.500000 -22.499998
v 32.500000 2.500000 -17.500000
v 27.500000 2.500000 -22.499996
v 27.500002 2.500000 -17.499998
v 2.499999 2.500000 -27.499998
v 2.500000 2.500000 -22.499998
v -2.500000 2.500000 -27.499996
v -2.499999 2.500000 -22.499998
v 7.499999 2.500000 -27.499998
v 7.500000 2.500000 -22.499998
v 2.500000 2.500000 -27.499996
v 2.500001 2.500000 -22.499998
v 12.499999 2.500000 -27.499998
v 12.500000 2.500000 -22.499998
v 7.500000 2.500000 -27.499996
v 7.500001 2.500000 -22.499998
v 17.500000 2.500000 -27.499998
v 17.500000 2.500000 -22.499998
v 12.500000 2.500000 -27.499996
v 12.500001 2.500000 -22.499998
v 22.500000 2.500000 -27.499998
v 22.500000 2.500000 -22.499998
v 17.500000 2.500000 -27.499996
v 17.500000 2.500000 -22.499998
v 27.499998 2.500000 -27.499998
v 27.500000 2.500000 -22.499998
v 22.500000 2.500000 -27.499996
v 22.500000 2.500000 -22.499998
v 32.500000 2.500000 -27.499998
v 32.500000 2.500000 -22.499998
v 27.500000 2.500000 -27.499996
v 27.500002 2.500000 -22.499998
v 2.499999 2.500000 -32.499996
v 2.500000 2.500000 -27.499998
v -2.500000 2.500000 -32.499996
v -2.499999 2.500000 -27.499998
v 7.499999 2.500000 -32.499996
v 7.500000 2.500000 -27.499998
v 2.500000 2.500000 -32.499996
v 2.500001 2.500000 -27.499998
v 12.499999 2.500000 -32.499996
v 12.500000 2.500000 -27.499998
v 7.500000 2.500000 -32.499996
v 7.500001 2.500000 -27.499998
v 17.500000 2.500000 -32.499996
v 17.500000 2.500000 -27.499998
v 12.500000 2.500000 -32.499996
v 12.500001 2.500000 -27.499998
v 27.499998 2.500000 -32.499996
v 27.500000 2.500000 -27.499998
v 22.500000 2.500000 -32.499996
v 22.500000 2.500000 -27.499998
v 32.500000 2.500000 -32.499996
v 32.500000 2.500000 -27.499998
v 27.500000 2.500000 -32.499996
v 27.500002 2.500000 -27.499998
v 2.499999 2.500000 -37.499996
v 2.500000 2.500000 -32.500000
v -2.500000 2.500000 -37.499996
v -2.499999 2.500000 -32.499996
v 7.499999 2.500000 -37.499996
v 7.500000 2.500000 -32.500000
v 2.500000 2.500000 -37.499996
v 2.500001 2.500000 -32.499996
v 12.499999 2.500000 -37.499996
v 12.500000 2.500000 -32.500000
v 7.500000 2.500000 -37.499996
v 7.500001 2.500000 -32.499996
v 17.500000 2.500000 -37.499996
v 17.500000 2.500000 -32.500000
v 12.500000 2.500000 -37.499996
v 12.500001 2.500000 -32.499996
v 22.500000 2.500000 -37.499996
v 22.500000 2.500000 -32.500000
v 17.500000 2.500000 -37.499996
v 17.500000 2.500000 -32.499996
v 27.499998 2.500000 -37.499996
v 27.500000 2.500000 -32.500000
v 22.500000 2.500000 -37.499996
v 22.500000 2.500000 -32.499996
v 32.500000 2.500000 -37.499996
v 32.500000 2.500000 -32.500000
v 27.500000 2.500000 -37.499996
v 27.500002 2.500000 -32.499996
v -2.500000 -2.500000 -7.499998
v -2.500000 2.500000 -7.499998
v -2.500000 -2.500000 -2.499998
v -2.500000 2.500000 -2.499998
v -2.500000 -2.500000 -17.499996
v -2.500000 2.500000 -17.499996
v -2.500000 -2.500000 -12.499998
v -2.500000 2.500000 -12.499998
v -2.500000 -2.500000 -27.499996
v -2.500000 2.500000 -27.499996
v -2.500000 -2.500000 -22.499998
v -2.500000 2.500000 -22.499998
v -2.500000 -2.500000 -37.499996
v -2.500000 2.500000 -37.499996
v -2.500000 -2.500000 -32.499996
v -2.500000 2.500000 -32.499996
v 27.500000 -2.500000 2.500004
v 27.500000 2.500000 2.500004
v 32.500000 -2.500000 2.500004
v 32.500000 2.500000 2.500004
v 22.500000 -2.500000 2.500004
v 22.500000 2.500000 2.500004
v 27.500000 -2.500000 2.500004
v 27.500000 2.500000 2.500004
v 17.500000 -2.500000 2.500004
v 17.500000 2.500000 2.500004
v 22.500000 -2.500000 2.500004
v 22.500000 2.500000 2.500004
v 12.500000 -2.500000 2.500004
v 12.500000 2.500000 2.500004
v 17.500000 -2.500000 2.500004
v 17.500000 2.500000 2.500004
v 7.500000 -2.500000 2.500004
v 7.500000 2.500000 2.500004
v 12.499998 -2.500000 2.500004
v 12.499998 2.500000 2.500004
v 2.500000 -2.500000 2.500004
v 2.500000 2.500000 2.500004
v 7.499999 -2.500000 2.500004
v 7.499999 2.500000 2.500004
vn -0.0000 -1.0000 -0.0000
vn -0.0000 1.0000 -0.0000
vn 1.0000 -0.0000 -0.0000
vn -1.0000 -0.0000 -0.0000
vn -0.0000 -0.0000 -1.0000
vn -0.0000 -0.0000 1.0000
vt 0.442248 0.999735
vt 0.293236 0.999735
vt 0.293236 0.850778
vt 0.442248 0.850778
vt 0.293198 0.850996
vt 0.293199 0.999620
vt 0.442084 0.999615
vt 0.441962 0.850988
vt 0.121468 0.585684
vt 0.072840 0.585684
vt 0.072840 0.609782
vt 0.121468 0.609782
vt 0.268390 0.542422
vt 0.024736 0.542422
vt 0.024736 0.556766
vt 0.268390 0.556766
vt 0.023913 0.536758
vt 0.023913 0.561051
vt 0.267994 0.561051
vt 0.267994 0.536758
vt 0.292969 0.511719
vt 0.000000 0.511719
vt 0.000000 0.804688
vt 0.292969 0.804688
s 0
usemtl Material
f 2/1/1 4/2/1 3/3/1 1/4/1
f 7/5/2 8/6/2 6/7/2 5/8/2
f 11/5/2 12/6/2 10/7/2 9/8/2
f 15/5/2 16/6/2 14/7/2 13/8/2
f 19/5/2 20/6/2 18/7/2 17/8/2
f 23/5/2 24/6/2 22/7/2 21/8/2
f 27/5/2 28/6/2 26/7/2 25/8/2
f 31/5/2 32/6/2 30/7/2 29/8/2
f 35/5/2 36/6/2 34/7/2 33/8/2
f 39/5/2 40/6/2 38/7/2 37/8/2
f 43/5/2 44/6/2 42/7/2 41/8/2
f 47/5/2 48/6/2 46/7/2 45/8/2
f 51/5/2 52/6/2 50/7/2 49/8/2
f 55/5/2 56/6/2 54/7/2 53/8/2
f 59/5/2 60/6/2 58/7/2 57/8/2
f 63/5/2 64/6/2 62/7/2 61/8/2
f 67/5/2 68/6/2 66/7/2 65/8/2
f 71/5/2 72/6/2 70/7/2 69/8/2
f 75/5/2 76/6/2 74/7/2 73/8/2
f 79/5/2 80/6/2 78/7/2 77/8/2
f 83/5/2 84/6/2 82/7/2 81/8/2
f 87/5/2 88/6/2 86/7/2 85/8/2
f 91/5/2 92/6/2 90/7/2 89/8/2
f 95/5/2 96/6/2 94/7/2 93/8/2
f 99/5/2 100/6/2 98/7/2 97/8/2
f 103/5/2 104/6/2 102/7/2 101/8/2
f 107/5/2 108/6/2 106/7/2 105/8/2
f 111/5/2 112/6/2 110/7/2 109/8/2
f 115/5/2 116/6/2 114/7/2 113/8/2
f 119/5/2 120/6/2 118/7/2 117/8/2
f 123/5/2 124/6/2 122/7/2 121/8/2
f 127/5/2 128/6/2 126/7/2 125/8/2
f 131/5/2 132/6/2 130/7/2 129/8/2
f 135/5/2 136/6/2 134/7/2 133/8/2
f 139/5/2 140/6/2 138/7/2 137/8/2
f 143/5/2 144/6/2 142/7/2 141/8/2
f 147/5/2 148/6/2 146/7/2 145/8/2
f 151/5/2 152/6/2 150/7/2 149/8/2
f 155/5/2 156/6/2 154/7/2 153/8/2
f 159/5/2 160/6/2 158/7/2 157/8/2
f 163/5/2 164/6/2 162/7/2 161/8/2
f 167/5/2 168/6/2 166/7/2 165/8/2
f 171/5/2 172/6/2 170/7/2 169/8/2
f 175/5/2 176/6/2 174/7/2 173/8/2
f 179/5/2 180/6/2 178/7/2 177/8/2
f 183/5/2 184/6/2 182/7/2 181/8/2
f 187/5/2 188/6/2 186/7/2 185/8/2
f 191/5/2 192/6/2 190/7/2 189/8/2
f 195/5/2 196/6/2 194/7/2 193/8/2
f 199/5/2 200/6/2 198/7/2 197/8/2
f 203/5/2 204/6/2 202/7/2 201/8/2
f 207/5/2 208/6/2 206/7/2 205/8/2
f 211/5/2 212/6/2 210/7/2 209/8/2
f 215/5/2 216/6/2 214/7/2 213/8/2
f 219/5/2 220/6/2 218/7/2 217/8/2
f 223/5/2 224/6/2 222/7/2 221/8/2
f 227/5/2 228/6/2 226/7/2 225/8/2
f 279/21/3 277/22/3 278/23/3 280/24/3
f 283/21/3 281/22/3 282/23/3 284/24/3
f 287/21/3 285/22/3 286/23/3 288/24/3
f 291/21/3 289/22/3 290/23/3 292/24/3
f 295/21/6 293/22/6 294/23/6 296/24/6
f 299/21/6 297/22/6 298/23/6 300/24/6
f 303/21/6 301/22/6 302/23/6 304/24/6
f 307/21/6 305/22/6 306/23/6 308/24/6
f 311/21/6 309/22/6 310/23/6 312/24/6
f 315/21/6 313/22/6 314/23/6 316/24/6
f 319/21/4 317/22/4 318/23/4 320/24/4
f 323/21/4 321/22/4 322/23/4 324/24/4
f 327/21/4 325/22/4 326/23/4 328/24/4
f 331/21/4 329/22/4 330/23/4 332/24/4
f 335/21/4 333/22/4 334/23/4 336/24/4
f 339/21/4 337/22/4 338/23/4 340/24/4
f 343/21/4 341/22/4 342/23/4 344/24/4
f 347/21/4 345/22/4 346/23/4 348/24/4
f 350/1/1 352/2/1 351/3/1 349/4/1
f 354/1/1 356/2/1 355/3/1 353/4/1
f 358/1/1 360/2/1 359/3/1 357/4/1
f 362/1/1 364/2/1 363/3/1 361/4/1
f 366/1/1 368/2/1 367/3/1 365/4/1
f 370/1/1 372/2/1 371/3/1 369/4/1
f 374/1/1 376/2/1 375/3/1 373/4/1
f 378/1/1 380/2/1 379/3/1 377/4/1
f 382/1/1 384/2/1 383/3/1 381/4/1
f 386/1/1 388/2/1 387/3/1 385/4/1
f 390/1/1 392/2/1 391/3/1 389/4/1
f 394/1/1 396/2/1 395/3/1 393/4/1
f 398/1/1 400/2/1 399/3/1 397/4/1
f 402/1/1 404/2/1 403/3/1 401/4/1
f 406/1/1 408/2/1 407/3/1 405/4/1
f 410/1/1 412/2/1 411/3/1 409/4/1
f 414/1/1 416/2/1 415/3/1 413/4/1
f 418/1/1 420/2/1 419/3/1 417/4/1
f 422/1/1 424/2/1 423/3/1 421/4/1
f 426/1/1 428/2/1 427/3/1 425/4/1
f 430/1/1 432/2/1 431/3/1 429/4/1
f 434/1/1 436/2/1 435/3/1 433/4/1
f 438/1/1 440/2/1 439/3/1 437/4/1
f 442/1/1 444/2/1 443/3/1 441/4/1
f 446/1/1 448/2/1 447/3/1 445/4/1
f 450/1/1 452/2/1 451/3/1 449/4/1
f 454/1/1 456/2/1 455/3/1 453/4/1
f 458/1/1 460/2/1 459/3/1 457/4/1
f 462/1/1 464/2/1 463/3/1 461/4/1
f 466/1/1 468/2/1 467/3/1 465/4/1
f 470/1/1 472/2/1 471/3/1 469/4/1
f 474/1/1 476/2/1 475/3/1 473/4/1
f 478/1/1 480/2/1 479/3/1 477/4/1
f 482/1/1 484/2/1 483/3/1 481/4/1
f 486/1/1 488/2/1 487/3/1 485/4/1
f 490/1/1 492/2/1 491/3/1 489/4/1
f 494/1/1 496/2/1 495/3/1 493/4/1
f 498/1/1 500/2/1 499/3/1 497/4/1
f 502/1/1 504/2/1 503/3/1 501/4/1
f 506/1/1 508/2/1 507/3/1 505/4/1
f 510/1/1 512/2/1 511/3/1 509/4/1
f 514/1/1 516/2/1 515/3/1 513/4/1
f 518/1/1 520/2/1 519/3/1 517/4/1
f 522/1/1 524/2/1 523/3/1 521/4/1
f 526/1/1 528/2/1 527/3/1 525/4/1
f 530/1/1 532/2/1 531/3/1 529/4/1
f 534/1/1 536/2/1 535/3/1 533/4/1
f 538/1/1 540/2/1 539/3/1 537/4/1
f 542/1/1 544/2/1 543/3/1 541/4/1
f 546/1/1 548/2/1 547/3/1 545/4/1
f 550/1/1 552/2/1 551/3/1 549/4/1
f 554/1/1 556/2/1 555/3/1 553/4/1
f 558/1/1 560/2/1 559/3/1 557/4/1
f 562/1/1 564/2/1 563/3/1 561/4/1
f 566/1/1 568/2/1 567/3/1 565/4/1
f 571/21/3 569/22/3 570/23/3 572/24/3
f 575/21/3 573/22/3 574/23/3 576/24/3
f 579/21/3 577/22/3 578/23/3 580/24/3
f 583/21/3 581/22/3 582/23/3 584/24/3
f 587/21/5 585/22/5 586/23/5 588/24/5
f 591/21/5 589/22/5 590/23/5 592/24/5
f 595/21/5 593/22/5 594/23/5 596/24/5
f 599/21/5 597/22/5 598/23/5 600/24/5
f 603/21/5 601/22/5 602/23/5 604/24/5
f 607/21/5 605/22/5 606/23/5 608/24/5
usemtl Material.001
f 230/9/3 229/10/3 232/11/3 231/12/3
f 238/9/4 239/12/4 240/11/4 237/10/4
f 244/13/5 236/14/5 235/15/5 243/16/5
f 243/13/4 235/14/4 234/15/4 242/16/4
f 242/16/6 234/15/6 233/14/6 241/13/6
f 241/13/3 233/14/3 236/15/3 244/16/3
f 237/17/1 240/18/1 232/19/1 229/20/1
f 240/17/5 239/18/5 231/19/5 232/20/5
f 239/18/2 238/17/2 230/20/2 231/19/2
f 238/18/6 237/17/6 229/20/6 230/19/6
f 252/13/5 248/14/5 247/15/5 251/16/5
f 251/13/4 247/14/4 246/15/4 250/16/4
f 250/16/6 246/15/6 245/14/6 249/13/6
f 249/13/3 245/14/3 248/15/3 252/16/3
f 254/9/3 253/10/3 256/11/3 255/12/3
f 262/9/4 263/12/4 264/11/4 261/10/4
f 268/13/5 260/14/5 259/15/5 267/16/5
f 267/13/4 259/14/4 258/15/4 266/16/4
f 266/16/6 258/15/6 257/14/6 265/13/6
f 265/13/3 257/14/3 260/15/3 268/16/3
f 261/17/1 264/18/1 256/19/1 253/20/1
f 264/17/5 263/18/5 255/19/5 256/20/5
f 263/18/2 262/17/2 254/20/2 255/19/2
f 262/18/6 261/17/6 253/20/6 254/19/6
f 276/13/5 272/14/5 271/15/5 275/16/5
f 275/13/4 271/14/4 270/15/4 274/16/4
f 274/16/6 270/15/6 269/14/6 273/13/6
f 273/13/3 269/14/3 272/15/3 276/16/3
