# Blender 4.3.2
# www.blender.org
mtllib room6.mtl
o corridor_straight.124
v 2.499999 7.500000 -22.500000
v 2.500000 7.500000 -17.500000
v -2.500000 7.500000 -22.500000
v -2.499999 7.500000 -17.500000
v 7.500002 -2.500000 2.500000
v 7.500002 2.500000 2.500000
v 12.500000 -2.500000 2.500000
v 12.500000 2.500000 2.500000
v 7.500002 2.500000 2.500000
v 7.500002 7.500000 2.500000
v 12.500000 2.500000 2.500000
v 12.500000 7.500000 2.500000
v 2.500001 -2.500000 2.500000
v 2.500001 2.500000 2.500000
v 7.500000 -2.500000 2.500000
v 7.500000 2.500000 2.500000
v 2.500001 2.500000 2.500000
v 2.500001 7.500000 2.500000
v 7.500000 2.500000 2.500000
v 7.500000 7.500000 2.500000
v -2.499999 2.500000 2.500000
v -2.499999 7.500000 2.500000
v 2.500000 2.500000 2.500000
v 2.500000 7.500000 2.500000
v 12.500000 -2.500000 2.500000
v 12.500000 2.500000 2.500000
v 17.500000 -2.500000 2.500000
v 17.500000 2.500000 2.500000
v 12.500000 2.500000 2.500000
v 12.500000 7.500000 2.500000
v 17.500000 2.500000 2.500000
v 17.500000 7.500000 2.500000
v 17.500000 -2.500000 2.500000
v 17.500000 2.500000 2.500000
v 22.500000 -2.500000 2.500000
v 22.500000 2.500000 2.500000
v 17.500000 2.500000 2.500000
v 17.500000 7.500000 2.500000
v 22.500000 2.500000 2.500000
v 22.500000 7.500000 2.500000
v -2.500000 -2.500000 -12.500000
v -2.500000 2.500000 -12.500000
v -2.500000 -2.500000 -7.500000
v -2.500000 2.500000 -7.500000
v -2.500000 2.500000 -12.500000
v -2.500000 7.499999 -12.500000
v -2.500000 2.500000 -7.500000
v -2.500000 7.499999 -7.500000
v -2.500000 -2.500000 -17.500000
v -2.500000 2.500000 -17.500000
v -2.500000 -2.500000 -12.500000
v -2.500000 2.500000 -12.500000
v -2.500000 2.500000 -17.500000
v -2.500000 7.499999 -17.500000
v -2.500000 2.500000 -12.500000
v -2.500000 7.499999 -12.500000
v -2.500000 -2.500000 -22.500000
v -2.500000 2.500000 -22.500000
v -2.500000 -2.500000 -17.500000
v -2.500000 2.500000 -17.500000
v -2.500000 2.500000 -22.500000
v -2.500000 7.499999 -22.500000
v -2.500000 2.500000 -17.500000
v -2.500000 7.499999 -17.500000
v -2.500000 -2.500000 -7.499999
v -2.500000 2.500000 -7.499999
v -2.500000 -2.500000 -2.500000
v -2.500000 2.500000 -2.500000
v -2.500000 2.500000 -7.499999
v -2.500000 7.499999 -7.499999
v -2.500000 2.500000 -2.500000
v -2.500000 7.499999 -2.500000
v -2.500000 -2.500000 -2.499998
v -2.500000 2.500000 -2.499998
v -2.500000 -2.500000 2.500000
v -2.500000 2.500000 2.500000
v -2.500000 2.500000 -2.499998
v -2.500000 7.499999 -2.499998
v -2.500000 2.500000 2.500000
v -2.500000 7.499999 2.500000
v 12.499998 -2.500000 -22.500000
v 12.499998 2.500000 -22.500000
v 7.500000 -2.500000 -22.499998
v 7.500000 2.500000 -22.499998
v 12.499998 2.500000 -22.500000
v 12.499998 7.500000 -22.500000
v 7.500000 2.500000 -22.499998
v 7.500000 7.500000 -22.499998
v 17.499998 -2.500000 -22.500000
v 17.499998 2.500000 -22.500000
v 12.500000 -2.500000 -22.499998
v 12.500000 2.500000 -22.499998
v 17.499998 2.500000 -22.500000
v 17.499998 7.500000 -22.500000
v 12.500000 2.500000 -22.499998
v 12.500000 7.500000 -22.499998
v 22.499996 -2.500000 -22.500000
v 22.499996 2.500000 -22.500000
v 17.500000 -2.500000 -22.499998
v 17.500000 2.500000 -22.499998
v 22.499996 2.500000 -22.500000
v 22.499996 7.500000 -22.500000
v 17.500000 2.500000 -22.499998
v 17.500000 7.500000 -22.499998
v 7.499998 -2.500000 -22.500000
v 7.499998 2.500000 -22.500000
v 2.500000 -2.500000 -22.499998
v 2.500000 2.500000 -22.499998
v 7.499998 2.500000 -22.500000
v 7.499998 7.500000 -22.500000
v 2.500000 2.500000 -22.499998
v 2.500000 7.500000 -22.499998
v 2.499999 -2.500000 -22.500000
v 2.499999 2.500000 -22.500000
v -2.500000 -2.500000 -22.499998
v -2.500000 2.500000 -22.499998
v 2.499999 2.500000 -22.500000
v 2.499999 7.500000 -22.500000
v -2.500000 2.500000 -22.499998
v -2.500000 7.500000 -22.499998
v 2.677674 2.375000 2.625000
v 2.677674 2.968905 2.625000
v 2.677674 2.968905 2.375000
v 2.677674 2.375000 2.375000
v -2.375000 -2.500000 2.625000
v -2.625000 -2.500000 2.625000
v -2.625000 -2.500000 2.375000
v -2.375000 -2.500000 2.375000
v -2.677675 2.375000 2.625000
v -2.677675 2.968905 2.625000
v -2.677675 2.968905 2.375000
v -2.677675 2.375000 2.375000
v -2.375000 2.375000 2.625000
v -2.625000 2.375000 2.625000
v -2.625000 2.375000 2.375000
v -2.375000 2.375000 2.375000
v 2.625000 -2.500000 2.625000
v 2.375000 -2.500000 2.625000
v 2.375000 -2.500000 2.375000
v 2.625000 -2.500000 2.375000
v 2.625000 2.375000 2.625000
v 2.375000 2.375000 2.625000
v 2.375000 2.375000 2.375000
v 2.625000 2.375000 2.375000
v 17.500000 -2.500000 2.500000
v 17.500000 -2.500000 -2.499998
v 22.500000 -2.500000 2.500000
v 22.500000 -2.500000 -2.500000
v 12.500000 -2.500000 2.500000
v 12.500000 -2.500000 -2.499998
v 17.500000 -2.500000 2.500000
v 17.500000 -2.500000 -2.500000
v 7.500002 -2.500000 2.500000
v 7.500000 -2.500000 -2.499998
v 12.500000 -2.500000 2.500000
v 12.500000 -2.500000 -2.500000
v 2.500001 -2.500000 2.500000
v 2.500000 -2.500000 -2.499998
v 7.500000 -2.500000 2.500000
v 7.499998 -2.500000 -2.500000
v -2.499999 -2.500000 2.500000
v -2.500000 -2.500000 -2.499998
v 2.500000 -2.500000 2.500000
v 2.499999 -2.500000 -2.500000
v 17.500000 -2.500000 -2.500000
v 17.500000 -2.500000 -7.499999
v 22.500000 -2.500000 -2.500002
v 22.500000 -2.500000 -7.500000
v 12.500000 -2.500000 -2.500000
v 12.500000 -2.500000 -7.499999
v 17.500000 -2.500000 -2.500002
v 17.500000 -2.500000 -7.500000
v 7.500002 -2.500000 -2.500000
v 7.500000 -2.500000 -7.499999
v 12.500000 -2.500000 -2.500002
v 12.500000 -2.500000 -7.500000
v 2.500001 -2.500000 -2.500000
v 2.500000 -2.500000 -7.499999
v 7.500000 -2.500000 -2.500002
v 7.499998 -2.500000 -7.500000
v -2.499999 -2.500000 -2.500000
v -2.500000 -2.500000 -7.499999
v 2.500000 -2.500000 -2.500002
v 2.499999 -2.500000 -7.500000
v 17.500000 -2.500000 -7.500000
v 17.500000 -2.500000 -12.500000
v 22.500000 -2.500000 -7.500001
v 22.500000 -2.500000 -12.500000
v 12.500000 -2.500000 -7.500000
v 12.500000 -2.500000 -12.500000
v 17.500000 -2.500000 -7.500001
v 17.500000 -2.500000 -12.500000
v 7.500002 -2.500000 -7.500000
v 7.500000 -2.500000 -12.500000
v 12.500000 -2.500000 -7.500001
v 12.500000 -2.500000 -12.500000
v 2.500001 -2.500000 -7.500000
v 2.500000 -2.500000 -12.500000
v 7.500000 -2.500000 -7.500001
v 7.499998 -2.500000 -12.500000
v -2.499999 -2.500000 -7.500000
v -2.500000 -2.500000 -12.500000
v 2.500000 -2.500000 -7.500001
v 2.499999 -2.500000 -12.500000
v 17.500000 -2.500000 -12.500000
v 17.500000 -2.500000 -17.500000
v 22.500000 -2.500000 -12.500000
v 22.500000 -2.500000 -17.500000
v 12.500000 -2.500000 -12.500000
v 12.500000 -2.500000 -17.500000
v 17.500000 -2.500000 -12.500000
v 17.500000 -2.500000 -17.500000
v 7.500002 -2.500000 -12.500000
v 7.500000 -2.500000 -17.500000
v 12.500000 -2.500000 -12.500000
v 12.500000 -2.500000 -17.500000
v 2.500001 -2.500000 -12.500000
v 2.500000 -2.500000 -17.500000
v 7.500000 -2.500000 -12.500000
v 7.499998 -2.500000 -17.500000
v -2.499999 -2.500000 -12.500000
v -2.500000 -2.500000 -17.500000
v 2.500000 -2.500000 -12.500000
v 2.499999 -2.500000 -17.500000
v 17.500000 -2.500000 -17.500000
v 17.500000 -2.500000 -22.500000
v 22.500000 -2.500000 -17.500000
v 22.500000 -2.500000 -22.500000
v 12.500000 -2.500000 -17.500000
v 12.500000 -2.500000 -22.500000
v 17.500000 -2.500000 -17.500000
v 17.500000 -2.500000 -22.500000
v 7.500002 -2.500000 -17.500000
v 7.500000 -2.500000 -22.500000
v 12.500000 -2.500000 -17.500000
v 12.500000 -2.500000 -22.500000
v 2.500001 -2.500000 -17.500000
v 2.500000 -2.500000 -22.500000
v 7.500000 -2.500000 -17.500000
v 7.499998 -2.500000 -22.500000
v -2.499999 -2.500000 -17.500000
v -2.500000 -2.500000 -22.500000
v 2.500000 -2.500000 -17.500000
v 2.499999 -2.500000 -22.500000
v 22.500000 -2.500000 -7.500001
v 22.500000 2.500000 -7.500001
v 22.500000 -2.500000 -12.500000
v 22.500000 2.500000 -12.500000
v 22.500000 2.500000 -7.500001
v 22.500000 7.499999 -7.500001
v 22.500000 2.500000 -12.500000
v 22.500000 7.499999 -12.500000
v 22.500000 -2.500000 -2.500002
v 22.500000 2.500000 -2.500002
v 22.500000 -2.500000 -7.500000
v 22.500000 2.500000 -7.500000
v 22.500000 2.500000 -2.500002
v 22.500000 7.499999 -2.500002
v 22.500000 2.500000 -7.500000
v 22.500000 7.499999 -7.500000
v 22.500004 -2.500000 2.500000
v 22.500004 2.500000 2.500000
v 22.500004 -2.500000 -2.500000
v 22.500004 2.500000 -2.500000
v 22.500004 2.500000 2.500000
v 22.500004 7.499999 2.500000
v 22.500004 2.500000 -2.500000
v 22.500004 7.499999 -2.500000
v 22.500000 -2.500000 -12.500001
v 22.500000 2.500000 -12.500001
v 22.500000 -2.500000 -17.500000
v 22.500000 2.500000 -17.500000
v 22.500000 2.500000 -12.500001
v 22.500000 7.499999 -12.500001
v 22.500000 2.500000 -17.500000
v 22.500000 7.499999 -17.500000
v 22.500000 -2.500000 -17.500000
v 22.500000 2.500000 -17.500000
v 22.500000 -2.500000 -22.500000
v 22.500000 2.500000 -22.500000
v 22.500000 2.500000 -17.500000
v 22.500000 7.499999 -17.500000
v 22.500000 2.500000 -22.500000
v 22.500000 7.499999 -22.500000
v 22.500000 7.500000 -2.500000
v 22.500000 7.500000 2.500000
v 17.500000 7.500000 -2.499998
v 17.500000 7.500000 2.500000
v 17.500000 7.500000 -2.500000
v 17.500000 7.500000 2.500000
v 12.500000 7.500000 -2.499998
v 12.500000 7.500000 2.500000
v 12.500000 7.500000 -2.500000
v 12.500000 7.500000 2.500000
v 7.500000 7.500000 -2.499998
v 7.500002 7.500000 2.500000
v 7.499998 7.500000 -2.500000
v 7.500000 7.500000 2.500000
v 2.500000 7.500000 -2.499998
v 2.500001 7.500000 2.500000
v 2.499999 7.500000 -2.500000
v 2.500000 7.500000 2.500000
v -2.500000 7.500000 -2.499998
v -2.499999 7.500000 2.500000
v 22.500000 7.500000 -7.500000
v 22.500000 7.500000 -2.500002
v 17.500000 7.500000 -7.499999
v 17.500000 7.500000 -2.500000
v 17.500000 7.500000 -7.500000
v 17.500000 7.500000 -2.500002
v 12.500000 7.500000 -7.499999
v 12.500000 7.500000 -2.500000
v 12.500000 7.500000 -7.500000
v 12.500000 7.500000 -2.500002
v 7.500000 7.500000 -7.499999
v 7.500002 7.500000 -2.500000
v 7.499998 7.500000 -7.500000
v 7.500000 7.500000 -2.500002
v 2.500000 7.500000 -7.499999
v 2.500001 7.500000 -2.500000
v 2.499999 7.500000 -7.500000
v 2.500000 7.500000 -2.500002
v -2.500000 7.500000 -7.499999
v -2.499999 7.500000 -2.500000
v 22.500000 7.500000 -12.500000
v 22.500000 7.500000 -7.500001
v 17.500000 7.500000 -12.500000
v 17.500000 7.500000 -7.500000
v 17.500000 7.500000 -12.500000
v 17.500000 7.500000 -7.500001
v 12.500000 7.500000 -12.500000
v 12.500000 7.500000 -7.500000
v 12.500000 7.500000 -12.500000
v 12.500000 7.500000 -7.500001
v 7.500000 7.500000 -12.500000
v 7.500002 7.500000 -7.500000
v 7.499998 7.500000 -12.500000
v 7.500000 7.500000 -7.500001
v 2.500000 7.500000 -12.500000
v 2.500001 7.500000 -7.500000
v 2.499999 7.500000 -12.500000
v 2.500000 7.500000 -7.500001
v -2.500000 7.500000 -12.500000
v -2.499999 7.500000 -7.500000
v 22.500000 7.500000 -17.500000
v 22.500000 7.500000 -12.500000
v 17.500000 7.500000 -17.500000
v 17.500000 7.500000 -12.500000
v 17.500000 7.500000 -17.500000
v 17.500000 7.500000 -12.500000
v 12.500000 7.500000 -17.500000
v 12.500000 7.500000 -12.500000
v 12.500000 7.500000 -17.500000
v 12.500000 7.500000 -12.500000
v 7.500000 7.500000 -17.500000
v 7.500002 7.500000 -12.500000
v 7.499998 7.500000 -17.500000
v 7.500000 7.500000 -12.500000
v 2.500000 7.500000 -17.500000
v 2.500001 7.500000 -12.500000
v 2.499999 7.500000 -17.500000
v 2.500000 7.500000 -12.500000
v -2.500000 7.500000 -17.500000
v -2.499999 7.500000 -12.500000
v 22.500000 7.500000 -22.500000
v 22.500000 7.500000 -17.500000
v 17.500000 7.500000 -22.500000
v 17.500000 7.500000 -17.500000
v 17.500000 7.500000 -22.500000
v 17.500000 7.500000 -17.500000
v 12.500000 7.500000 -22.500000
v 12.500000 7.500000 -17.500000
v 12.500000 7.500000 -22.500000
v 12.500000 7.500000 -17.500000
v 7.500000 7.500000 -22.500000
v 7.500002 7.500000 -17.500000
v 7.499998 7.500000 -22.500000
v 7.500000 7.500000 -17.500000
v 2.500000 7.500000 -22.500000
v 2.500001 7.500000 -17.500000
vn -0.0000 -1.0000 -0.0000
vn -0.0000 -0.0000 -1.0000
vn 1.0000 -0.0000 -0.0000
vn -0.0000 -0.0000 1.0000
vn -1.0000 -0.0000 -0.0000
vn -0.0000 1.0000 -0.0000
vt 0.442248 0.999735
vt 0.293236 0.999735
vt 0.293236 0.850778
vt 0.442248 0.850778
vt 0.292969 0.511719
vt 0.000000 0.511719
vt 0.000000 0.804688
vt 0.292969 0.804688
vt 0.292969 0.707031
vt 0.000000 0.707031
vt 0.000000 1.000000
vt 0.292969 1.000000
vt 0.121468 0.585684
vt 0.072840 0.585684
vt 0.072840 0.609782
vt 0.121468 0.609782
vt 0.268390 0.542422
vt 0.024736 0.542422
vt 0.024736 0.556766
vt 0.268390 0.556766
vt 0.023913 0.536758
vt 0.023913 0.561051
vt 0.267994 0.561051
vt 0.267994 0.536758
vt 0.293198 0.850996
vt 0.293199 0.999620
vt 0.442084 0.999615
vt 0.441962 0.850988
s 0
usemtl Material
f 2/1/1 4/2/1 3/3/1 1/4/1
f 7/5/2 5/6/2 6/7/2 8/8/2
f 11/9/2 9/10/2 10/11/2 12/12/2
f 15/5/2 13/6/2 14/7/2 16/8/2
f 19/9/2 17/10/2 18/11/2 20/12/2
f 23/9/2 21/10/2 22/11/2 24/12/2
f 27/5/2 25/6/2 26/7/2 28/8/2
f 31/9/2 29/10/2 30/11/2 32/12/2
f 35/5/2 33/6/2 34/7/2 36/8/2
f 39/9/2 37/10/2 38/11/2 40/12/2
f 43/5/3 41/6/3 42/7/3 44/8/3
f 47/9/3 45/10/3 46/11/3 48/12/3
f 51/5/3 49/6/3 50/7/3 52/8/3
f 55/9/3 53/10/3 54/11/3 56/12/3
f 59/5/3 57/6/3 58/7/3 60/8/3
f 63/9/3 61/10/3 62/11/3 64/12/3
f 67/5/3 65/6/3 66/7/3 68/8/3
f 71/9/3 69/10/3 70/11/3 72/12/3
f 75/5/3 73/6/3 74/7/3 76/8/3
f 79/9/3 77/10/3 78/11/3 80/12/3
f 83/5/4 81/6/4 82/7/4 84/8/4
f 87/9/4 85/10/4 86/11/4 88/12/4
f 91/5/4 89/6/4 90/7/4 92/8/4
f 95/9/4 93/10/4 94/11/4 96/12/4
f 99/5/4 97/6/4 98/7/4 100/8/4
f 103/9/4 101/10/4 102/11/4 104/12/4
f 107/5/4 105/6/4 106/7/4 108/8/4
f 111/9/4 109/10/4 110/11/4 112/12/4
f 115/5/4 113/6/4 114/7/4 116/8/4
f 119/9/4 117/10/4 118/11/4 120/12/4
f 147/25/6 148/26/6 146/27/6 145/28/6
f 151/25/6 152/26/6 150/27/6 149/28/6
f 155/25/6 156/26/6 154/27/6 153/28/6
f 159/25/6 160/26/6 158/27/6 157/28/6
f 163/25/6 164/26/6 162/27/6 161/28/6
f 167/25/6 168/26/6 166/27/6 165/28/6
f 171/25/6 172/26/6 170/27/6 169/28/6
f 175/25/6 176/26/6 174/27/6 173/28/6
f 179/25/6 180/26/6 178/27/6 177/28/6
f 183/25/6 184/26/6 182/27/6 181/28/6
f 187/25/6 188/26/6 186/27/6 185/28/6
f 191/25/6 192/26/6 190/27/6 189/28/6
f 195/25/6 196/26/6 194/27/6 193/28/6
f 199/25/6 200/26/6 198/27/6 197/28/6
f 203/25/6 204/26/6 202/27/6 201/28/6
f 207/25/6 208/26/6 206/27/6 205/28/6
f 211/25/6 212/26/6 210/27/6 209/28/6
f 215/25/6 216/26/6 214/27/6 213/28/6
f 219/25/6 220/26/6 218/27/6 217/28/6
f 223/25/6 224/26/6 222/27/6 221/28/6
f 227/25/6 228/26/6 226/27/6 225/28/6
f 231/25/6 232/26/6 230/27/6 229/28/6
f 235/25/6 236/26/6 234/27/6 233/28/6
f 239/25/6 240/26/6 238/27/6 237/28/6
f 243/25/6 244/26/6 242/27/6 241/28/6
f 247/5/5 245/6/5 246/7/5 248/8/5
f 251/9/5 249/10/5 250/11/5 252/12/5
f 255/5/5 253/6/5 254/7/5 256/8/5
f 259/9/5 257/10/5 258/11/5 260/12/5
f 263/5/5 261/6/5 262/7/5 264/8/5
f 267/9/5 265/10/5 266/11/5 268/12/5
f 271/5/5 269/6/5 270/7/5 272/8/5
f 275/9/5 273/10/5 274/11/5 276/12/5
f 279/5/5 277/6/5 278/7/5 280/8/5
f 283/9/5 281/10/5 282/11/5 284/12/5
f 286/1/1 288/2/1 287/3/1 285/4/1
f 290/1/1 292/2/1 291/3/1 289/4/1
f 294/1/1 296/2/1 295/3/1 293/4/1
f 298/1/1 300/2/1 299/3/1 297/4/1
f 302/1/1 304/2/1 303/3/1 301/4/1
f 306/1/1 308/2/1 307/3/1 305/4/1
f 310/1/1 312/2/1 311/3/1 309/4/1
f 314/1/1 316/2/1 315/3/1 313/4/1
f 318/1/1 320/2/1 319/3/1 317/4/1
f 322/1/1 324/2/1 323/3/1 321/4/1
f 326/1/1 328/2/1 327/3/1 325/4/1
f 330/1/1 332/2/1 331/3/1 329/4/1
f 334/1/1 336/2/1 335/3/1 333/4/1
f 338/1/1 340/2/1 339/3/1 337/4/1
f 342/1/1 344/2/1 343/3/1 341/4/1
f 346/1/1 348/2/1 347/3/1 345/4/1
f 350/1/1 352/2/1 351/3/1 349/4/1
f 354/1/1 356/2/1 355/3/1 353/4/1
f 358/1/1 360/2/1 359/3/1 357/4/1
f 362/1/1 364/2/1 363/3/1 361/4/1
f 366/1/1 368/2/1 367/3/1 365/4/1
f 370/1/1 372/2/1 371/3/1 369/4/1
f 374/1/1 376/2/1 375/3/1 373/4/1
f 378/1/1 380/2/1 379/3/1 377/4/1
usemtl Material.001
f 122/13/3 121/14/3 124/15/3 123/16/3
f 130/13/5 131/16/5 132/15/5 129/14/5
f 136/17/2 128/18/2 127/19/2 135/20/2
f 135/17/5 127/18/5 126/19/5 134/20/5
f 134/20/4 126/19/4 125/18/4 133/17/4
f 133/17/3 125/18/3 128/19/3 136/20/3
f 129/21/1 132/22/1 124/23/1 121/24/1
f 132/21/2 131/22/2 123/23/2 124/24/2
f 131/22/6 130/21/6 122/24/6 123/23/6
f 130/22/4 129/21/4 121/24/4 122/23/4
f 144/17/2 140/18/2 139/19/2 143/20/2
f 143/17/5 139/18/5 138/19/5 142/20/5
f 142/20/4 138/19/4 137/18/4 141/17/4
f 141/17/3 137/18/3 140/19/3 144/20/3
