# Blender 4.3.2
# www.blender.org
mtllib staircase1.mtl
o corridor_straight.004
v -2.499998 -2.500000 2.500000
v 2.500000 -2.500000 2.499999
v -2.500000 -2.500000 -2.500000
v 2.500000 -2.500000 -2.500000
v -12.500000 -2.500000 -2.500000
v -12.500000 -2.500000 2.500000
v -12.500000 2.499999 -2.500000
v -12.500000 2.499999 2.500000
v -12.500000 2.500000 -2.500000
v -12.500000 2.500000 2.500000
v -12.500000 7.499999 -2.500000
v -12.500000 7.499999 2.500000
v -12.500000 -2.500000 -7.500000
v -12.500000 -2.500000 -2.500000
v -12.500000 2.499999 -7.500000
v -12.500000 2.499999 -2.500000
v -12.500000 2.500000 -7.500000
v -12.500000 2.500000 -2.500000
v -12.500000 7.499999 -7.500000
v -12.500000 7.499999 -2.500000
v -12.500000 -2.500000 -12.499999
v -12.500000 -2.500000 -7.500000
v -12.500000 2.499999 -12.499999
v -12.500000 2.499999 -7.500000
v -12.500000 2.500000 -12.499999
v -12.500000 2.500000 -7.500000
v -12.500000 7.499999 -12.499999
v -12.500000 7.499999 -7.500000
v -12.500000 -2.500000 2.500001
v -12.500000 -2.500000 7.500000
v -12.500000 2.499999 2.500001
v -12.500000 2.499999 7.500000
v -12.500000 2.500000 2.500001
v -12.500000 2.500000 7.500000
v -12.500000 7.499999 2.500001
v -12.500000 7.499999 7.500000
v -12.500000 -2.500000 7.500002
v -12.500000 -2.500000 12.500000
v -12.500000 2.499999 7.500002
v -12.500000 2.499999 12.500000
v -12.500000 2.500000 7.500002
v -12.500000 2.500000 12.500000
v -12.500000 7.499999 7.500002
v -12.500000 7.499999 12.500000
v 2.499998 2.500000 -12.500001
v -2.500000 2.500000 -12.499998
v 2.499998 7.500000 -12.500001
v -2.500000 7.500000 -12.499998
v 7.499998 -2.500000 -12.500001
v 2.500000 -2.500000 -12.499998
v 7.499998 2.499999 -12.500001
v 2.500000 2.499999 -12.499998
v 7.499998 2.500000 -12.500001
v 2.500000 2.500000 -12.499998
v 7.499998 7.500000 -12.500001
v 2.500000 7.500000 -12.499998
v 12.499996 -2.500000 -12.500001
v 7.500000 -2.500000 -12.499998
v 12.499996 2.499999 -12.500001
v 7.500000 2.499999 -12.499998
v 12.499996 2.500000 -12.500001
v 7.500000 2.500000 -12.499998
v 12.499996 7.500000 -12.500001
v 7.500000 7.500000 -12.499998
v -2.500002 -2.500000 -12.500001
v -7.500000 -2.500000 -12.499998
v -2.500002 2.499999 -12.500001
v -7.500000 2.499999 -12.499998
v -2.500002 2.500000 -12.500001
v -7.500000 2.500000 -12.499998
v -2.500002 7.500000 -12.500001
v -7.500000 7.500000 -12.499998
v -7.500001 -2.500000 -12.500000
v -12.500000 -2.500000 -12.499997
v -7.500001 2.499999 -12.500000
v -12.500000 2.499999 -12.499997
v -7.500001 2.500000 -12.500000
v -12.500000 2.500000 -12.499997
v -7.500001 7.500000 -12.500000
v -12.500000 7.500000 -12.499997
v 7.500000 -2.500000 12.500000
v 12.500000 -2.500000 12.500000
v 7.500000 -2.500000 7.500002
v 12.500000 -2.500000 7.500000
v 2.500000 -2.500000 12.500000
v 7.500000 -2.500000 12.500000
v 2.500000 -2.500000 7.500002
v 7.500000 -2.500000 7.500000
v -7.499999 -2.500000 12.500000
v -2.500000 -2.500000 12.500000
v -7.500000 -2.500000 7.500002
v -2.500002 -2.500000 7.500000
v -12.499999 -2.500000 12.500000
v -7.500000 -2.500000 12.500000
v -12.500000 -2.500000 7.500002
v -7.500001 -2.500000 7.500000
v 7.500000 -2.500000 7.500000
v 12.500000 -2.500000 7.499998
v 7.500000 -2.500000 2.500001
v 12.500000 -2.500000 2.500000
v 2.500000 -2.500000 7.500000
v 7.500000 -2.500000 7.499998
v 2.500000 -2.500000 2.500001
v 7.500000 -2.500000 2.500000
v -7.499999 -2.500000 7.500000
v -2.500000 -2.500000 7.499998
v -7.500000 -2.500000 2.500001
v -2.500002 -2.500000 2.500000
v -12.499999 -2.500000 7.500000
v -7.500000 -2.500000 7.499998
v -12.500000 -2.500000 2.500001
v -7.500001 -2.500000 2.500000
v 7.500000 -2.500000 2.500000
v 12.500000 -2.500000 2.499999
v 7.500000 -2.500000 -2.500000
v 12.500000 -2.500000 -2.500000
v 2.500000 -2.500000 2.500000
v 7.500000 -2.500000 2.499999
v 2.500000 -2.500000 -2.500000
v 7.500000 -2.500000 -2.500000
v -7.499999 -2.500000 2.500000
v -2.500000 -2.500000 2.499999
v -7.500000 -2.500000 -2.500000
v -2.500002 -2.500000 -2.500000
v -12.499999 -2.500000 2.500000
v -7.500000 -2.500000 2.499999
v -12.500000 -2.500000 -2.500000
v -7.500001 -2.500000 -2.500000
v 7.500000 -2.500000 -2.500000
v 12.500000 -2.500000 -2.500000
v 7.500000 -2.500000 -7.500000
v 12.500000 -2.500000 -7.500000
v 2.500000 -2.500000 -2.500000
v 7.500000 -2.500000 -2.500000
v 2.500000 -2.500000 -7.500000
v 7.500000 -2.500000 -7.500000
v -2.499998 -2.500000 -2.500000
v 2.500000 -2.500000 -2.500000
v -2.500000 -2.500000 -7.500000
v 2.500000 -2.500000 -7.500000
v -7.499999 -2.500000 -2.500000
v -2.500000 -2.500000 -2.500000
v -7.500000 -2.500000 -7.500000
v -2.500002 -2.500000 -7.500000
v -12.499999 -2.500000 -2.500000
v -7.500000 -2.500000 -2.500000
v -12.500000 -2.500000 -7.500000
v -7.500001 -2.500000 -7.500000
v 7.500000 -2.500000 -7.500000
v 12.500000 -2.500000 -7.500001
v 7.500000 -2.500000 -12.499999
v 12.500000 -2.500000 -12.500000
v 2.500000 -2.500000 -7.500000
v 7.500000 -2.500000 -7.500001
v 2.500000 -2.500000 -12.499999
v 7.500000 -2.500000 -12.500000
v -2.499998 -2.500000 -7.500000
v 2.500000 -2.500000 -7.500001
v -2.500000 -2.500000 -12.499999
v 2.500000 -2.500000 -12.500000
v -7.499999 -2.500000 -7.500000
v -2.500000 -2.500000 -7.500001
v -7.500000 -2.500000 -12.499999
v -2.500002 -2.500000 -12.500000
v -12.499999 -2.500000 -7.500000
v -7.500000 -2.500000 -7.500001
v -12.500000 -2.500000 -12.499999
v -7.500001 -2.500000 -12.500000
v 12.500000 -2.500000 2.499999
v 12.500000 -2.500000 -2.500000
v 12.500000 2.499999 2.499999
v 12.500000 2.499999 -2.500000
v 12.500000 2.500000 2.499999
v 12.500000 2.500000 -2.500000
v 12.500000 7.499999 2.499999
v 12.500000 7.499999 -2.500000
v 12.500000 -2.500000 7.499998
v 12.500000 -2.500000 2.500000
v 12.500000 2.499999 7.499998
v 12.500000 2.499999 2.500000
v 12.500000 2.500000 7.499998
v 12.500000 2.500000 2.500000
v 12.500000 7.499999 7.499998
v 12.500000 7.499999 2.500000
v 12.500004 -2.500000 12.500000
v 12.500004 -2.500000 7.500000
v 12.500004 2.499999 12.500000
v 12.500004 2.499999 7.500000
v 12.500004 2.500000 12.500000
v 12.500004 2.500000 7.500000
v 12.500004 7.499999 12.500000
v 12.500004 7.499999 7.500000
v 12.500000 -2.500000 -2.500001
v 12.500000 -2.500000 -7.500000
v 12.500000 2.499999 -2.500001
v 12.500000 2.499999 -7.500000
v 12.500000 2.500000 -2.500001
v 12.500000 2.500000 -7.500000
v 12.500000 7.499999 -2.500001
v 12.500000 7.499999 -7.500000
v 12.500000 -2.500000 -7.500001
v 12.500000 -2.500000 -12.500000
v 12.500000 2.499999 -7.500001
v 12.500000 2.499999 -12.500000
v 12.500000 2.500000 -7.500001
v 12.500000 2.500000 -12.500000
v 12.500000 7.499999 -7.500001
v 12.500000 7.499999 -12.500000
v -12.500000 12.500000 -2.500000
v -12.500000 12.500000 2.500000
v -12.500000 17.500000 -2.500000
v -12.500000 17.500000 2.500000
v -12.500000 7.500000 -7.500000
v -12.500000 7.500000 -2.500000
v -12.500000 12.500000 -7.500000
v -12.500000 12.500000 -2.500000
v -12.500000 12.500000 -7.500000
v -12.500000 12.500000 -2.500000
v -12.500000 17.500000 -7.500000
v -12.500000 17.500000 -2.500000
v -12.500000 7.500000 -12.499999
v -12.500000 7.500000 -7.500000
v -12.500000 12.500000 -12.499999
v -12.500000 12.500000 -7.500000
v -12.500000 12.500000 -12.499999
v -12.500000 12.500000 -7.500000
v -12.500000 17.500000 -12.499999
v -12.500000 17.500000 -7.500000
v -12.500000 7.500000 2.500001
v -12.500000 7.500000 7.500000
v -12.500000 12.500000 2.500001
v -12.500000 12.500000 7.500000
v -12.500000 12.500000 2.500001
v -12.500000 12.500000 7.500000
v -12.500000 17.500000 2.500001
v -12.500000 17.500000 7.500000
v -12.500000 7.500000 7.500002
v -12.500000 7.500000 12.500000
v -12.500000 12.500000 7.500002
v -12.500000 12.500000 12.500000
v -12.500000 12.500000 7.500002
v -12.500000 12.500000 12.500000
v -12.500000 17.500000 7.500002
v -12.500000 17.500000 12.500000
v 2.499998 7.500000 -12.500001
v -2.500000 7.500000 -12.499998
v 2.499998 12.500000 -12.500001
v -2.500000 12.500000 -12.499998
v 2.499998 12.500000 -12.500001
v -2.500000 12.500000 -12.499998
v 2.499998 17.500000 -12.500001
v -2.500000 17.500000 -12.499998
v 7.499998 7.500000 -12.500001
v 2.500000 7.500000 -12.499998
v 7.499998 12.500000 -12.500001
v 2.500000 12.500000 -12.499998
v 7.499998 12.500000 -12.500001
v 2.500000 12.500000 -12.499998
v 7.499998 17.500000 -12.500001
v 2.500000 17.500000 -12.499998
v 12.499996 7.500000 -12.500001
v 7.500000 7.500000 -12.499998
v 12.499996 12.500000 -12.500001
v 7.500000 12.500000 -12.499998
v 12.499996 12.500000 -12.500001
v 7.500000 12.500000 -12.499998
v 12.499996 17.500000 -12.500001
v 7.500000 17.500000 -12.499998
v -2.500002 7.500000 -12.500001
v -7.500000 7.500000 -12.499998
v -2.500002 12.500000 -12.500001
v -7.500000 12.500000 -12.499998
v -2.500002 12.500000 -12.500001
v -7.500000 12.500000 -12.499998
v -2.500002 17.500000 -12.500001
v -7.500000 17.500000 -12.499998
v -7.500001 7.500000 -12.500000
v -12.500000 7.500000 -12.499997
v -7.500001 12.500000 -12.500000
v -12.500000 12.500000 -12.499997
v -7.500001 12.500000 -12.500000
v -12.500000 12.500000 -12.499997
v -7.500001 17.500000 -12.500000
v -12.500000 17.500000 -12.499997
v 12.500000 7.500000 2.499999
v 12.500000 7.500000 -2.500000
v 12.500000 12.500000 2.499999
v 12.500000 12.500000 -2.500000
v 12.500000 12.500000 2.499999
v 12.500000 12.500000 -2.500000
v 12.500000 17.500000 2.499999
v 12.500000 17.500000 -2.500000
v 12.500000 7.500000 7.499998
v 12.500000 7.500000 2.500000
v 12.500000 12.500000 7.499998
v 12.500000 12.500000 2.500000
v 12.500000 12.500000 7.499998
v 12.500000 12.500000 2.500000
v 12.500000 17.500000 7.499998
v 12.500000 17.500000 2.500000
v 12.500004 7.500000 12.500000
v 12.500004 7.500000 7.500000
v 12.500004 12.500000 12.500000
v 12.500004 12.500000 7.500000
v 12.500004 12.500000 12.500000
v 12.500004 12.500000 7.500000
v 12.500004 17.500000 12.500000
v 12.500004 17.500000 7.500000
v 12.500000 7.500000 -2.500001
v 12.500000 7.500000 -7.500000
v 12.500000 12.500000 -2.500001
v 12.500000 12.500000 -7.500000
v 12.500000 12.500000 -2.500001
v 12.500000 12.500000 -7.500000
v 12.500000 17.500000 -2.500001
v 12.500000 17.500000 -7.500000
v 12.500000 7.500000 -7.500001
v 12.500000 7.500000 -12.500000
v 12.500000 12.500000 -7.500001
v 12.500000 12.500000 -12.500000
v 12.500000 12.500000 -7.500001
v 12.500000 12.500000 -12.500000
v 12.500000 17.500000 -7.500001
v 12.500000 17.500000 -12.500000
v -12.500000 17.500000 -2.500000
v -12.500000 17.500000 2.500000
v -12.500000 22.500000 -2.500000
v -12.500000 22.500000 2.500000
v -12.500000 22.500000 -2.500000
v -12.500000 22.500000 2.500000
v -12.500000 27.500000 -2.500000
v -12.500000 27.500000 2.500000
v -12.500000 17.500000 -7.500000
v -12.500000 17.500000 -2.500000
v -12.500000 22.500000 -7.500000
v -12.500000 22.500000 -2.500000
v -12.500000 22.500000 -7.500000
v -12.500000 22.500000 -2.500000
v -12.500000 27.500000 -7.500000
v -12.500000 27.500000 -2.500000
v -12.500000 17.500000 -12.499999
v -12.500000 17.500000 -7.500000
v -12.500000 22.500000 -12.499999
v -12.500000 22.500000 -7.500000
v -12.500000 22.500000 -12.499999
v -12.500000 22.500000 -7.500000
v -12.500000 27.500000 -12.499999
v -12.500000 27.500000 -7.500000
v -12.500000 17.500000 2.500001
v -12.500000 17.500000 7.500000
v -12.500000 22.500000 2.500001
v -12.500000 22.500000 7.500000
v -12.500000 22.500000 2.500001
v -12.500000 22.500000 7.500000
v -12.500000 27.500000 2.500001
v -12.500000 27.500000 7.500000
v -12.500000 17.500000 7.500002
v -12.500000 17.500000 12.500000
v -12.500000 22.500000 7.500002
v -12.500000 22.500000 12.500000
v -12.500000 22.500000 7.500002
v -12.500000 22.500000 12.500000
v -12.500000 27.500000 7.500002
v -12.500000 27.500000 12.500000
v 2.499998 22.500000 -12.500001
v -2.500000 22.500000 -12.499998
v 2.499998 27.500000 -12.500001
v -2.500000 27.500000 -12.499998
v 7.499998 17.500000 -12.500001
v 2.500000 17.500000 -12.499998
v 7.499998 22.500000 -12.500001
v 2.500000 22.500000 -12.499998
v 7.499998 22.500000 -12.500001
v 2.500000 22.500000 -12.499998
v 7.499998 27.500000 -12.500001
v 2.500000 27.500000 -12.499998
v 12.499996 17.500000 -12.500001
v 7.500000 17.500000 -12.499998
v 12.499996 22.500000 -12.500001
v 7.500000 22.500000 -12.499998
v 12.499996 22.500000 -12.500001
v 7.500000 22.500000 -12.499998
v 12.499996 27.500000 -12.500001
v 7.500000 27.500000 -12.499998
v -2.500002 17.500000 -12.500001
v -7.500000 17.500000 -12.499998
v -2.500002 22.500000 -12.500001
v -7.500000 22.500000 -12.499998
v -2.500002 22.500000 -12.500001
v -7.500000 22.500000 -12.499998
v -2.500002 27.500000 -12.500001
v -7.500000 27.500000 -12.499998
v -7.500001 17.500000 -12.500000
v -12.500000 17.500000 -12.499997
v -7.500001 22.500000 -12.500000
v -12.500000 22.500000 -12.499997
v -7.500001 22.500000 -12.500000
v -12.500000 22.500000 -12.499997
v -7.500001 27.500000 -12.500000
v -12.500000 27.500000 -12.499997
v 12.500000 17.500000 2.499999
v 12.500000 17.500000 -2.500000
v 12.500000 22.500000 2.499999
v 12.500000 22.500000 -2.500000
v 12.500000 22.500000 2.499999
v 12.500000 22.500000 -2.500000
v 12.500000 27.500000 2.499999
v 12.500000 27.500000 -2.500000
v 12.500000 17.500000 7.499998
v 12.500000 17.500000 2.500000
v 12.500000 22.500000 7.499998
v 12.500000 22.500000 2.500000
v 12.500000 22.500000 7.499998
v 12.500000 22.500000 2.500000
v 12.500000 27.500000 7.499998
v 12.500000 27.500000 2.500000
v 12.500004 17.500000 12.500000
v 12.500004 17.500000 7.500000
v 12.500004 22.500000 12.500000
v 12.500004 22.500000 7.500000
v 12.500004 22.500000 12.500000
v 12.500004 22.500000 7.500000
v 12.500004 27.500000 12.500000
v 12.500004 27.500000 7.500000
v 12.500000 17.500000 -2.500001
v 12.500000 17.500000 -7.500000
v 12.500000 22.500000 -2.500001
v 12.500000 22.500000 -7.500000
v 12.500000 22.500000 -2.500001
v 12.500000 22.500000 -7.500000
v 12.500000 27.500000 -2.500001
v 12.500000 27.500000 -7.500000
v 12.500000 17.500000 -7.500001
v 12.500000 17.500000 -12.500000
v 12.500000 22.500000 -7.500001
v 12.500000 22.500000 -12.500000
v 12.500000 22.500000 -7.500001
v 12.500000 22.500000 -12.500000
v 12.500000 27.500000 -7.500001
v 12.500000 27.500000 -12.500000
v 2.677673 2.375000 12.625000
v 2.677673 2.968905 12.625000
v 2.677673 2.968905 12.375000
v 2.677673 2.375000 12.375000
v -2.375000 -2.500000 12.625000
v -2.625000 -2.500000 12.625000
v -2.625000 -2.500000 12.375000
v -2.375000 -2.500000 12.375000
v -2.677673 2.375000 12.625000
v -2.677673 2.968905 12.625000
v -2.677673 2.968905 12.375000
v -2.677673 2.375000 12.375000
v -2.375000 2.375000 12.625000
v -2.625000 2.375000 12.625000
v -2.625000 2.375000 12.375000
v -2.375000 2.375000 12.375000
v 2.625000 -2.500000 12.625000
v 2.375000 -2.500000 12.625000
v 2.375000 -2.500000 12.375000
v 2.625000 -2.500000 12.375000
v 2.625000 2.375000 12.625000
v 2.375000 2.375000 12.625000
v 2.375000 2.375000 12.375000
v 2.625000 2.375000 12.375000
v 2.677673 2.375000 -12.375000
v 2.677673 2.968905 -12.375000
v 2.677673 2.968905 -12.625000
v 2.677673 2.375000 -12.625000
v -2.375000 -2.500000 -12.375000
v -2.625000 -2.500000 -12.375000
v -2.625000 -2.500000 -12.625000
v -2.375000 -2.500000 -12.625000
v -2.677673 2.375000 -12.375000
v -2.677673 2.968905 -12.375000
v -2.677673 2.968905 -12.625000
v -2.677673 2.375000 -12.625000
v -2.375000 2.375000 -12.375000
v -2.625000 2.375000 -12.375000
v -2.625000 2.375000 -12.625000
v -2.375000 2.375000 -12.625000
v 2.625000 -2.500000 -12.375000
v 2.375000 -2.500000 -12.375000
v 2.375000 -2.500000 -12.625000
v 2.625000 -2.500000 -12.625000
v 2.625000 2.375000 -12.375000
v 2.375000 2.375000 -12.375000
v 2.375000 2.375000 -12.625000
v 2.625000 2.375000 -12.625000
v -12.375000 12.375000 -2.677675
v -12.375000 12.968904 -2.677675
v -12.625000 12.968904 -2.677675
v -12.625000 12.375000 -2.677675
v -12.375000 7.500000 2.375000
v -12.375000 7.500000 2.625000
v -12.624999 7.500000 2.625000
v -12.624999 7.500000 2.375000
v -12.375000 12.375000 2.677674
v -12.375000 12.968904 2.677674
v -12.625000 12.968904 2.677674
v -12.625000 12.375000 2.677674
v -12.375000 12.375000 2.375000
v -12.375000 12.375000 2.625000
v -12.625000 12.375000 2.625000
v -12.625000 12.375000 2.375000
v -12.375000 7.500000 -2.625000
v -12.375000 7.500000 -2.375000
v -12.625000 7.500000 -2.375000
v -12.625000 7.500000 -2.625000
v -12.375000 12.375000 -2.625000
v -12.375000 12.375000 -2.375000
v -12.625000 12.375000 -2.375000
v -12.625000 12.375000 -2.625000
v 2.677673 22.375000 -12.375000
v 2.677673 22.968904 -12.375000
v 2.677673 22.968904 -12.625000
v 2.677673 22.375000 -12.625000
v -2.375000 17.500000 -12.375000
v -2.625000 17.500000 -12.375000
v -2.625000 17.500000 -12.625000
v -2.375000 17.500000 -12.625000
v -2.677673 22.375000 -12.375000
v -2.677673 22.968904 -12.375000
v -2.677673 22.968904 -12.625000
v -2.677673 22.375000 -12.625000
v -2.375000 22.375000 -12.375000
v -2.625000 22.375000 -12.375000
v -2.625000 22.375000 -12.625000
v -2.375000 22.375000 -12.625000
v 2.625000 17.500000 -12.375000
v 2.375000 17.500000 -12.375000
v 2.375000 17.500000 -12.625000
v 2.625000 17.500000 -12.625000
v 2.625000 22.375000 -12.375000
v 2.375000 22.375000 -12.375000
v 2.375000 22.375000 -12.625000
v 2.625000 22.375000 -12.625000
v -2.499998 -2.500000 7.500000
v 2.500000 -2.500000 7.499998
v -2.500000 -2.500000 2.500001
v 2.500000 -2.500000 2.500000
v -2.499998 -2.500000 12.500000
v 2.500000 -2.500000 12.500000
v -2.500000 -2.500000 7.500002
v 2.500000 -2.500000 7.500000
v -12.499999 -2.500000 12.500000
v -7.500000 -2.500000 12.500000
v -12.499999 2.499999 12.500000
v -7.500000 2.499999 12.500000
v -12.499999 2.500000 12.500000
v -7.500000 2.500000 12.500000
v -12.499999 7.500000 12.500000
v -7.500000 7.500000 12.500000
v 7.500000 -2.500000 12.500000
v 12.500000 -2.500000 12.500000
v 7.500000 2.499999 12.500000
v 12.500000 2.499999 12.500000
v 7.500000 2.500000 12.500000
v 12.500000 2.500000 12.500000
v 7.500000 7.500000 12.500000
v 12.500000 7.500000 12.500000
v -2.499998 7.500000 12.500000
v 2.500000 7.500000 12.500000
v -2.499998 12.500000 12.500000
v 2.500000 12.500000 12.500000
v -2.499998 12.500000 12.500000
v 2.500000 12.500000 12.500000
v -2.499998 17.500000 12.500000
v 2.500000 17.500000 12.500000
v -7.499999 7.500000 12.500000
v -2.500000 7.500000 12.500000
v -7.499999 12.500000 12.500000
v -2.500000 12.500000 12.500000
v -7.499999 12.500000 12.500000
v -2.500000 12.500000 12.500000
v -7.499999 17.500000 12.500000
v -2.500000 17.500000 12.500000
v -12.499999 12.500000 12.500000
v -7.500000 12.500000 12.500000
v -12.499999 17.500000 12.500000
v -7.500000 17.500000 12.500000
v 2.500000 7.500000 12.500000
v 7.500000 7.500000 12.500000
v 2.500000 12.500000 12.500000
v 7.500000 12.500000 12.500000
v 2.500000 12.500000 12.500000
v 7.500000 12.500000 12.500000
v 2.500000 17.500000 12.500000
v 7.500000 17.500000 12.500000
v 7.500000 7.500000 12.500000
v 12.500000 7.500000 12.500000
v 7.500000 12.500000 12.500000
v 12.500000 12.500000 12.500000
v 7.500000 12.500000 12.500000
v 12.500000 12.500000 12.500000
v 7.500000 17.500000 12.500000
v 12.500000 17.500000 12.500000
v -2.499998 17.500000 12.500000
v 2.500000 17.500000 12.500000
v -2.499998 22.500000 12.500000
v 2.500000 22.500000 12.500000
v -2.499998 22.500000 12.500000
v 2.500000 22.500000 12.500000
v -2.499998 27.500000 12.500000
v 2.500000 27.500000 12.500000
v -7.499999 17.500000 12.500000
v -2.500000 17.500000 12.500000
v -7.499999 22.500000 12.500000
v -2.500000 22.500000 12.500000
v -7.499999 22.500000 12.500000
v -2.500000 22.500000 12.500000
v -7.499999 27.500000 12.500000
v -2.500000 27.500000 12.500000
v -12.499999 22.500000 12.500000
v -7.500000 22.500000 12.500000
v -12.499999 27.500000 12.500000
v -7.500000 27.500000 12.500000
v 2.500000 17.500000 12.500000
v 7.500000 17.500000 12.500000
v 2.500000 22.500000 12.500000
v 7.500000 22.500000 12.500000
v 2.500000 22.500000 12.500000
v 7.500000 22.500000 12.500000
v 2.500000 27.500000 12.500000
v 7.500000 27.500000 12.500000
v 7.500000 17.500000 12.500000
v 12.500000 17.500000 12.500000
v 7.500000 22.500000 12.500000
v 12.500000 22.500000 12.500000
v 7.500000 22.500000 12.500000
v 12.500000 22.500000 12.500000
v 7.500000 27.500000 12.500000
v 12.500000 27.500000 12.500000
v -12.499999 7.500000 12.500000
v -7.500000 7.500000 12.500000
v -12.499999 12.500000 12.500000
v -7.500000 12.500000 12.500000
v -12.499999 17.500000 12.500000
v -7.500000 17.500000 12.500000
v -12.499999 22.500000 12.500000
v -7.500000 22.500000 12.500000
v 2.500000 -2.500000 12.500000
v 7.500000 -2.500000 12.500000
v 2.500000 2.499999 12.500000
v 7.500000 2.499999 12.500000
v 2.500000 2.500000 12.500000
v 7.500000 2.500000 12.500000
v 2.500000 7.500000 12.500000
v 7.500000 7.500000 12.500000
v -7.500000 -2.500000 12.500000
v -2.500000 -2.500000 12.500000
v -7.500000 2.499999 12.500000
v -2.500000 2.499999 12.500000
v -7.500000 2.500000 12.500000
v -2.500000 2.500000 12.500000
v -7.500000 7.500000 12.500000
v -2.500000 7.500000 12.500000
v -2.500000 2.500000 12.500000
v 2.500000 2.500000 12.500000
v -2.500000 7.500000 12.500000
v 2.500000 7.500000 12.500000
v 12.500000 27.500000 7.500000
v 12.500000 27.500000 12.500000
v 7.500000 27.500000 7.500002
v 7.500000 27.500000 12.500000
v 7.500000 27.500000 7.500000
v 7.500000 27.500000 12.500000
v 2.500000 27.500000 7.500002
v 2.500000 27.500000 12.500000
v 2.500000 27.500000 7.500000
v 2.500000 27.500000 12.500000
v -2.500000 27.500000 7.500002
v -2.499998 27.500000 12.500000
v -2.500002 27.500000 7.500000
v -2.500000 27.500000 12.500000
v -7.500000 27.500000 7.500002
v -7.499999 27.500000 12.500000
v -7.500001 27.500000 7.500000
v -7.500000 27.500000 12.500000
v -12.500000 27.500000 7.500002
v -12.499999 27.500000 12.500000
v 12.500000 27.500000 2.500000
v 12.500000 27.500000 7.499998
v 7.500000 27.500000 2.500001
v 7.500000 27.500000 7.500000
v 7.500000 27.500000 2.500000
v 7.500000 27.500000 7.499998
v 2.500000 27.500000 2.500001
v 2.500000 27.500000 7.500000
v 2.500000 27.500000 2.500000
v 2.500000 27.500000 7.499998
v -2.500000 27.500000 2.500001
v -2.499998 27.500000 7.500000
v -2.500002 27.500000 2.500000
v -2.500000 27.500000 7.499998
v -7.500000 27.500000 2.500001
v -7.499999 27.500000 7.500000
v -7.500001 27.500000 2.500000
v -7.500000 27.500000 7.499998
v -12.500000 27.500000 2.500001
v -12.499999 27.500000 7.500000
v 12.500000 27.500000 -2.500000
v 12.500000 27.500000 2.499999
v 7.500000 27.500000 -2.500000
v 7.500000 27.500000 2.500000
v 7.500000 27.500000 -2.500000
v 7.500000 27.500000 2.499999
v 2.500000 27.500000 -2.500000
v 2.500000 27.500000 2.500000
v 2.500000 27.500000 -2.500000
v 2.500000 27.500000 2.499999
v -2.500000 27.500000 -2.500000
v -2.499998 27.500000 2.500000
v -2.500002 27.500000 -2.500000
v -2.500000 27.500000 2.499999
v -7.500000 27.500000 -2.500000
v -7.499999 27.500000 2.500000
v -7.500001 27.500000 -2.500000
v -7.500000 27.500000 2.499999
v -12.500000 27.500000 -2.500000
v -12.499999 27.500000 2.500000
v 12.500000 27.500000 -7.500000
v 12.500000 27.500000 -2.500000
v 7.500000 27.500000 -7.500000
v 7.500000 27.500000 -2.500000
v 7.500000 27.500000 -7.500000
v 7.500000 27.500000 -2.500000
v 2.500000 27.500000 -7.500000
v 2.500000 27.500000 -2.500000
v 2.500000 27.500000 -7.500000
v 2.500000 27.500000 -2.500000
v -2.500000 27.500000 -7.500000
v -2.499998 27.500000 -2.500000
v -2.500002 27.500000 -7.500000
v -2.500000 27.500000 -2.500000
v -7.500000 27.500000 -7.500000
v -7.499999 27.500000 -2.500000
v -7.500001 27.500000 -7.500000
v -7.500000 27.500000 -2.500000
v -12.500000 27.500000 -7.500000
v -12.499999 27.500000 -2.500000
v 12.500000 27.500000 -12.500000
v 12.500000 27.500000 -7.500001
v 7.500000 27.500000 -12.499999
v 7.500000 27.500000 -7.500000
v 7.500000 27.500000 -12.500000
v 7.500000 27.500000 -7.500001
v 2.500000 27.500000 -12.499999
v 2.500000 27.500000 -7.500000
v 2.500000 27.500000 -12.500000
v 2.500000 27.500000 -7.500001
v -2.500000 27.500000 -12.499999
v -2.499998 27.500000 -7.500000
v -2.500002 27.500000 -12.500000
v -2.500000 27.500000 -7.500001
v -7.500000 27.500000 -12.499999
v -7.499999 27.500000 -7.500000
v -7.500001 27.500000 -12.500000
v -7.500000 27.500000 -7.500001
v -12.500000 27.500000 -12.499999
v -12.499999 27.500000 -7.500000
v -12.499999 2.500000 12.500000
v -7.500000 2.500000 12.500000
v -12.500000 2.500000 7.500000
v -7.500000 2.500000 7.500000
v -7.500000 -2.500000 2.500000
v -7.500000 2.499999 2.500000
v -7.500000 -2.500000 7.500000
v -7.500000 2.499999 7.500000
v -7.499996 -2.500000 7.500000
v -7.499996 2.499999 7.500000
v -2.499998 -2.500000 7.500000
v -2.499998 2.499999 7.500000
v -2.499998 -2.500000 2.500001
v -2.499998 2.499999 2.500001
v -7.499996 -2.500000 2.500000
v -7.499996 2.499999 2.500000
v -2.499998 -2.500000 7.500000
v -2.499998 2.499999 7.500000
v -2.499998 -2.500000 2.500001
v -2.499998 2.499999 2.500001
v -7.500000 7.499999 2.500000
v -12.499996 -2.500000 2.500000
v -12.499996 2.499999 2.500000
v -12.499996 7.499999 2.500000
v 2.500000 -2.500000 2.500000
v 2.500000 2.499999 2.500000
v 2.500000 -2.500000 7.500000
v 2.500000 2.499999 7.500000
v 2.500004 -2.500000 7.500000
v 2.500004 2.499999 7.500000
v 7.500002 -2.500000 7.500000
v 7.500002 2.499999 7.500000
v 7.500002 -2.500000 2.500001
v 7.500002 2.499999 2.500001
v 2.500004 -2.500000 2.500000
v 2.500004 2.499999 2.500000
v 7.500000 -2.500000 7.500000
v 7.500000 2.499999 7.500000
v 7.500002 -2.500000 2.500001
v 7.500002 2.499999 2.500001
v 2.500000 -2.500000 -7.499999
v 2.500000 2.499999 -7.499999
v 2.500000 -2.500000 -2.500000
v 2.500000 2.499999 -2.500000
v 2.500004 -2.500000 -2.500000
v 2.500004 2.499999 -2.500000
v 7.500002 -2.500000 -2.500001
v 7.500002 2.499999 -2.500001
v 7.500002 -2.500000 -7.499999
v 7.500002 2.499999 -7.499999
v 2.500004 -2.500000 -7.500000
v 2.500004 2.499999 -7.500000
v 7.500000 -2.500000 -2.500000
v 7.500000 2.499999 -2.500000
v 7.500002 -2.500000 -7.499999
v 7.500002 2.499999 -7.499999
v -7.500000 -2.500000 -7.499999
v -7.500000 2.499999 -7.499999
v -7.500000 -2.500000 -2.500000
v -7.500000 2.499999 -2.500000
v -7.499996 -2.500000 -2.500000
v -7.499996 2.499999 -2.500000
v -2.499998 -2.500000 -2.500001
v -2.499998 2.499999 -2.500001
v -2.499998 -2.500000 -7.499999
v -2.499998 2.499999 -7.499999
v -7.499996 -2.500000 -7.500000
v -7.499996 2.499999 -7.500000
v -2.499998 -2.500000 -2.500000
v -2.499998 2.499999 -2.500000
v -2.499998 -2.500000 -7.499999
v -2.499998 2.499999 -7.499999
v 7.500000 27.500004 2.500001
v 7.500000 22.500004 2.500000
v 7.500000 27.500002 7.500000
v 7.500000 22.500002 7.499998
v 7.499996 27.500002 7.500000
v 7.499998 22.500002 7.499998
v 2.499998 27.500000 7.500000
v 2.500000 22.500002 7.499998
v 2.499996 27.500002 2.500001
v 2.499998 22.500002 2.500000
v 7.499996 27.500004 2.500000
v 7.499998 22.500004 2.499999
v 2.500000 27.500000 7.500002
v 2.500000 22.500002 7.500000
v 2.499996 27.500002 2.500002
v 2.499998 22.500002 2.500000
v -2.500002 27.500002 2.500001
v -2.499998 22.500002 2.500000
v -2.500002 27.500000 7.500000
v -2.500000 22.500000 7.499998
v -2.500004 27.500000 7.500000
v -2.500002 22.500000 7.499998
v -7.500002 27.499998 7.500000
v -7.500001 22.499998 7.499998
v -7.500004 27.500000 2.500001
v -7.500002 22.500000 2.500000
v -2.500004 27.500002 2.500000
v -2.500002 22.500002 2.499999
v -7.500001 27.499998 7.500002
v -7.500000 22.499998 7.500000
v -7.500004 27.500000 2.500002
v -7.500002 22.500000 2.500000
v -2.500002 27.500004 -7.499999
v -2.499998 22.500004 -7.500000
v -2.500002 27.500002 -2.500000
v -2.500000 22.500002 -2.500001
v -2.500004 27.500002 -2.500000
v -2.500002 22.500002 -2.500001
v -7.500002 27.500000 -2.500000
v -7.500001 22.500002 -2.500001
v -7.500004 27.500002 -7.499999
v -7.500002 22.500002 -7.500000
v -2.500004 27.500004 -7.500000
v -2.500002 22.500004 -7.500001
v -7.500001 27.500000 -2.499999
v -7.500000 22.500002 -2.500000
v -7.500004 27.500002 -7.499998
v -7.500002 22.500002 -7.500000
v 7.500000 27.500008 -7.499999
v 7.500000 22.500008 -7.500000
v 7.500000 27.500004 -2.500000
v 7.500000 22.500004 -2.500001
v 7.499996 27.500004 -2.500000
v 7.499998 22.500004 -2.500001
v 2.499998 27.500002 -2.500000
v 2.500000 22.500004 -2.500001
v 2.499996 27.500004 -7.499999
v 2.499998 22.500004 -7.500000
v 7.499996 27.500008 -7.500000
v 7.499998 22.500008 -7.500001
v 2.500000 27.500002 -2.499999
v 2.500000 22.500004 -2.500000
v 2.499996 27.500004 -7.499998
v 2.499998 22.500004 -7.500000
v 7.500000 2.500000 2.499999
v 7.500000 7.499999 2.499999
v 2.500000 2.500000 2.500001
v 2.500000 7.499999 2.500001
v 7.500002 2.500000 7.499998
v 7.500002 7.499999 7.499998
v 7.500000 2.500000 2.500000
v 7.500000 7.499999 2.500000
v 2.500000 2.500000 2.500002
v 2.500000 7.499999 2.500002
v 2.500004 2.500000 7.500002
v 2.500004 7.499999 7.500002
v 2.500004 2.500000 7.500002
v 2.500004 7.499999 7.500002
v 7.500004 2.500000 7.499998
v 7.500004 7.499999 7.499998
v -2.500002 2.500000 2.499999
v -2.500002 7.499999 2.499999
v -7.500000 2.500000 2.500001
v -7.500000 7.499999 2.500001
v -2.499998 2.500000 7.499998
v -2.499998 7.499999 7.499998
v -2.499998 2.500000 2.500000
v -2.499998 7.499999 2.500000
v -7.499999 2.500000 2.500002
v -7.499999 7.499999 2.500002
v -7.499995 2.500000 7.500002
v -7.499995 7.499999 7.500002
v -7.499995 2.500000 7.500002
v -7.499995 7.499999 7.500002
v -2.499996 2.500000 7.499998
v -2.499996 7.499999 7.499998
v -2.500002 7.500000 2.499999
v -2.500002 12.499999 2.499999
v -7.500000 7.500000 2.500001
v -7.500000 12.499999 2.500001
v -2.499998 7.500000 7.499998
v -2.499998 12.499999 7.499998
v -2.499998 7.500000 2.500000
v -2.499998 12.499999 2.500000
v -7.499999 7.500000 2.500002
v -7.499999 12.499999 2.500002
v -7.499995 7.500000 7.500002
v -7.499995 12.499999 7.500002
v -7.499995 7.500000 7.500002
v -7.499995 12.499999 7.500002
v -2.499996 7.500000 7.499998
v -2.499996 12.499999 7.499998
v 7.500000 7.500000 2.499999
v 7.500000 12.499999 2.499999
v 2.500000 7.500000 2.500001
v 2.500000 12.499999 2.500001
v 7.500002 7.500000 7.499998
v 7.500002 12.499999 7.499998
v 7.500000 7.500000 2.500000
v 7.500000 12.499999 2.500000
v 2.500000 7.500000 2.500002
v 2.500000 12.499999 2.500002
v 2.500004 7.500000 7.500002
v 2.500004 12.499999 7.500002
v 2.500004 7.500000 7.500002
v 2.500004 12.499999 7.500002
v 7.500004 7.500000 7.499998
v 7.500004 12.499999 7.499998
v 7.500000 2.500000 -7.500001
v 7.500000 7.499999 -7.500001
v 2.500000 2.500000 -7.499999
v 2.500000 7.499999 -7.499999
v 7.500002 2.500000 -2.500001
v 7.500002 7.499999 -2.500001
v 7.500000 2.500000 -7.500000
v 7.500000 7.499999 -7.500000
v 2.500000 2.500000 -7.499998
v 2.500000 7.499999 -7.499998
v 2.500004 2.500000 -2.499999
v 2.500004 7.499999 -2.499999
v 2.500004 2.500000 -2.499999
v 2.500004 7.499999 -2.499999
v 7.500004 2.500000 -2.500002
v 7.500004 7.499999 -2.500002
v -2.500002 2.500000 -7.500001
v -2.500002 7.499999 -7.500001
v -7.500000 2.500000 -7.499999
v -7.500000 7.499999 -7.499999
v -2.499998 2.500000 -2.500001
v -2.499998 7.499999 -2.500001
v -2.499998 2.500000 -7.500000
v -2.499998 7.499999 -7.500000
v -7.499999 2.500000 -7.499998
v -7.499999 7.499999 -7.499998
v -7.499995 2.500000 -2.499999
v -7.499995 7.499999 -2.499999
v -7.499995 2.500000 -2.499999
v -7.499995 7.499999 -2.499999
v -2.499996 2.500000 -2.500002
v -2.499996 7.499999 -2.500002
v -2.500002 7.500000 -7.500001
v -2.500002 12.499999 -7.500001
v -7.500000 7.500000 -7.499999
v -7.500000 12.499999 -7.499999
v -2.499998 7.500000 -2.500001
v -2.499998 12.499999 -2.500001
v -2.499998 7.500000 -7.500000
v -2.499998 12.499999 -7.500000
v -7.499999 7.500000 -7.499998
v -7.499999 12.499999 -7.499998
v -7.499995 7.500000 -2.499999
v -7.499995 12.499999 -2.499999
v -7.499995 7.500000 -2.499999
v -7.499995 12.499999 -2.499999
v -2.499996 7.500000 -2.500002
v -2.499996 12.499999 -2.500002
v 7.500000 7.500000 -7.500001
v 7.500000 12.499999 -7.500001
v 2.500000 7.500000 -7.499999
v 2.500000 12.499999 -7.499999
v 7.500002 7.500000 -2.500001
v 7.500002 12.499999 -2.500001
v 7.500000 7.500000 -7.500000
v 7.500000 12.499999 -7.500000
v 2.500000 7.500000 -7.499998
v 2.500000 12.499999 -7.499998
v 2.500004 7.500000 -2.499999
v 2.500004 12.499999 -2.499999
v 2.500004 7.500000 -2.499999
v 2.500004 12.499999 -2.499999
v 7.500004 7.500000 -2.500002
v 7.500004 12.499999 -2.500002
v 7.500000 12.500000 2.499999
v 7.500000 17.500000 2.499999
v 2.500000 12.500000 2.500001
v 2.500000 17.500000 2.500001
v 7.500002 12.500000 7.499998
v 7.500002 17.500000 7.499998
v 7.500000 12.500000 2.500000
v 7.500000 17.500000 2.500000
v 2.500000 12.500000 2.500002
v 2.500000 17.500000 2.500002
v 2.500004 12.500000 7.500002
v 2.500004 17.500000 7.500002
v 2.500004 12.500000 7.500002
v 2.500004 17.500000 7.500002
v 7.500004 12.500000 7.499998
v 7.500004 17.500000 7.499998
v -2.500002 12.500000 2.499999
v -2.500002 17.500000 2.499999
v -7.500000 12.500000 2.500001
v -7.500000 17.500000 2.500001
v -2.499998 12.500000 7.499998
v -2.499998 17.500000 7.499998
v -2.499998 12.500000 2.500000
v -2.499998 17.500000 2.500000
v -7.499999 12.500000 2.500002
v -7.499999 17.500000 2.500002
v -7.499995 12.500000 7.500002
v -7.499995 17.500000 7.500002
v -7.499995 12.500000 7.500002
v -7.499995 17.500000 7.500002
v -2.499996 12.500000 7.499998
v -2.499996 17.500000 7.499998
v -2.500002 17.500000 2.499999
v -2.500002 22.500000 2.499999
v -7.500000 17.500000 2.500001
v -7.500000 22.500000 2.500001
v -2.499998 17.500000 7.499998
v -2.499998 22.499998 7.499998
v -2.499998 17.500000 2.500000
v -2.499998 22.499998 2.500000
v -7.499999 17.500000 2.500002
v -7.499999 22.499998 2.500002
v -7.499995 17.500000 7.500002
v -7.499995 22.499998 7.500002
v -7.499995 17.500000 7.500002
v -7.499995 22.499998 7.500002
v -2.499996 17.500000 7.499998
v -2.499996 22.499998 7.499998
v 7.500000 17.500000 2.499999
v 7.500000 22.500000 2.499999
v 2.500000 17.500000 2.500001
v 2.500000 22.500000 2.500001
v 7.500002 17.500000 7.499998
v 7.500002 22.499998 7.499998
v 7.500000 17.500000 2.500000
v 7.500000 22.499998 2.500000
v 2.500000 17.500000 2.500002
v 2.500000 22.499998 2.500002
v 2.500004 17.500000 7.500002
v 2.500004 22.499998 7.500002
v 2.500004 17.500000 7.500002
v 2.500004 22.499998 7.500002
v 7.500004 17.500000 7.499998
v 7.500004 22.499998 7.499998
v 7.500000 12.500000 -7.500001
v 7.500000 17.500000 -7.500001
v 2.500000 12.500000 -7.499999
v 2.500000 17.500000 -7.499999
v 7.500002 12.500000 -2.500001
v 7.500002 17.500000 -2.500001
v 7.500000 12.500000 -7.500000
v 7.500000 17.500000 -7.500000
v 2.500000 12.500000 -7.499998
v 2.500000 17.500000 -7.499998
v 2.500004 12.500000 -2.499999
v 2.500004 17.500000 -2.499999
v 2.500004 12.500000 -2.499999
v 2.500004 17.500000 -2.499999
v 7.500004 12.500000 -2.500002
v 7.500004 17.500000 -2.500002
v -2.500002 12.500000 -7.500001
v -2.500002 17.500000 -7.500001
v -7.500000 12.500000 -7.499999
v -7.500000 17.500000 -7.499999
v -2.499998 12.500000 -2.500001
v -2.499998 17.500000 -2.500001
v -2.499998 12.500000 -7.500000
v -2.499998 17.500000 -7.500000
v -7.499999 12.500000 -7.499998
v -7.499999 17.500000 -7.499998
v -7.499995 12.500000 -2.499999
v -7.499995 17.500000 -2.499999
v -7.499995 12.500000 -2.499999
v -7.499995 17.500000 -2.499999
v -2.499996 12.500000 -2.500002
v -2.499996 17.500000 -2.500002
v -2.500002 17.500000 -7.500001
v -2.500002 22.500000 -7.500001
v -7.500000 17.500000 -7.499999
v -7.500000 22.500000 -7.499999
v -2.499998 17.500000 -2.500001
v -2.499998 22.499998 -2.500001
v -2.499998 17.500000 -7.500000
v -2.499998 22.499998 -7.500000
v -7.499999 17.500000 -7.499998
v -7.499999 22.499998 -7.499998
v -7.499995 17.500000 -2.499999
v -7.499995 22.499998 -2.499999
v -7.499995 17.500000 -2.499999
v -7.499995 22.499998 -2.499999
v -2.499996 17.500000 -2.500002
v -2.499996 22.499998 -2.500002
v 7.500000 17.500000 -7.500001
v 7.500000 22.500000 -7.500001
v 2.500000 17.500000 -7.499999
v 2.500000 22.500000 -7.499999
v 7.500002 17.500000 -2.500001
v 7.500002 22.499998 -2.500001
v 7.500000 17.500000 -7.500000
v 7.500000 22.499998 -7.500000
v 2.500000 17.500000 -7.499998
v 2.500000 22.499998 -7.499998
v 2.500004 17.500000 -2.499999
v 2.500004 22.499998 -2.499999
v 2.500004 17.500000 -2.499999
v 2.500004 22.499998 -2.499999
v 7.500004 17.500000 -2.500002
v 7.500004 22.499998 -2.500002
v -12.500000 2.500000 7.500000
v -7.497047 2.500001 7.497059
v -12.500000 2.500000 6.875000
v -7.500000 3.125000 6.874998
v -12.500000 3.124999 6.875000
v -7.500000 2.500000 6.874998
v -4.374990 -0.624999 7.500002
v -4.374990 -1.249999 7.500002
v -12.500000 3.125000 6.250000
v -4.374990 -0.625000 12.500000
v -4.374990 -1.249999 12.500000
v -7.500000 3.125000 6.249998
v -12.500000 3.750000 6.249998
v -7.500000 3.750000 6.249996
v -12.500000 3.750000 5.624998
v -3.749990 -1.249999 7.500002
v -12.500000 4.374999 5.624998
v -7.500000 3.750000 5.624995
v -3.749990 -1.249999 12.500000
v -7.500000 4.375000 5.624992
v -12.500000 4.375000 4.999995
v -3.749990 -1.874999 7.500002
v -12.500000 4.999999 4.999995
v -7.500000 4.375000 4.999992
v -3.749990 -1.874999 12.500000
v -7.500000 5.000000 4.999992
v -12.500000 5.000000 4.374994
v -7.500000 5.625000 4.374992
v -12.500000 5.624999 4.374992
v -7.500000 5.000000 4.374992
v -3.124990 -2.499999 7.500002
v -3.124990 -1.875000 12.500000
v -12.500000 5.625000 3.749992
v -7.500000 6.250000 3.749990
v -3.124990 -1.874999 7.500002
v -7.500000 5.625000 3.749990
v -12.500000 6.250000 3.749990
v -3.124990 -2.499999 12.500000
v -12.500000 6.250000 3.124990
v -7.500000 6.875000 3.124989
v -12.500000 6.874999 3.124990
v -7.500000 6.250000 3.124989
v -2.499990 -2.499999 7.500002
v -2.499990 -2.499999 12.500000
v -12.500000 6.875000 2.499989
v -7.500000 7.500000 2.499987
v -12.500000 7.499999 2.499989
v -7.500000 6.875000 2.499987
v -4.999990 -0.624999 12.500000
v -4.999990 0.000000 12.500000
v -4.999990 -0.624999 7.500002
v -5.000000 0.000001 7.500002
v -5.624990 0.000001 12.500000
v -5.625000 0.625001 7.500002
v -5.624990 0.625000 12.500000
v -5.625000 0.000001 7.500002
v -6.249990 0.625001 12.500000
v -6.250000 1.250000 7.500002
v -6.250000 0.625001 7.500002
v -6.250000 1.250000 12.500000
v -6.875000 1.250000 12.500000
v -6.875000 1.875000 7.500002
v -6.875000 1.875000 12.500000
v -6.875000 1.250000 7.500002
v -7.500000 1.875000 12.500000
v -7.500000 2.500000 12.500000
v -7.500000 1.875000 7.500002
v -7.500002 12.500000 -12.500000
v -6.875002 12.500000 -12.500000
v -6.875000 13.125000 -7.500001
v -6.875001 13.124999 -12.500000
v -6.875000 12.500000 -7.500001
v -7.499987 9.375000 -4.375019
v -7.499987 8.750000 -4.375019
v -6.250001 13.125000 -12.500000
v -12.499987 9.374998 -4.375019
v -12.499987 8.750000 -4.375019
v -6.249998 13.125000 -7.500001
v -6.249999 13.750000 -12.500000
v -6.249995 13.750000 -7.500001
v -5.624999 13.750000 -12.500000
v -7.499987 8.750000 -3.750019
v -5.624999 14.374999 -12.500000
v -5.624998 13.750000 -7.500001
v -12.499986 8.750000 -3.750019
v -5.624995 14.375000 -7.500001
v -4.999998 14.375000 -12.500000
v -7.499987 8.125000 -3.750019
v -4.999996 14.999999 -12.500000
v -4.999995 14.375000 -7.500001
v -12.499986 8.125000 -3.750019
v -4.999992 15.000000 -7.500001
v -4.374995 15.000000 -12.500000
v -4.374992 15.625000 -7.500001
v -4.374995 15.625000 -12.500000
v -4.374992 15.000000 -7.500001
v -7.499987 7.500000 -3.125019
v -12.499986 8.124998 -3.125019
v -3.749994 15.625000 -12.500000
v -3.749992 16.250000 -7.500001
v -7.499987 8.125000 -3.125019
v -3.749992 15.625000 -7.500001
v -3.749992 16.250000 -12.500000
v -12.499986 7.500000 -3.125019
v -3.124992 16.250000 -12.500000
v -3.124990 16.875000 -7.500001
v -3.124992 16.875000 -12.500000
v -3.124990 16.250000 -7.500001
v -7.499986 7.500000 -2.500019
v -12.499986 7.500000 -2.500019
v -2.499990 16.875000 -12.500000
v -2.499989 17.500000 -7.500001
v -2.499989 17.500000 -12.500000
v -2.499989 16.875000 -7.500001
v -12.499987 9.375000 -5.000019
v -12.499987 9.999999 -5.000019
v -7.499987 9.375000 -5.000019
v -7.499987 10.000000 -5.000029
v -12.499987 10.000000 -5.625019
v -7.499987 10.625000 -5.625029
v -12.499987 10.624999 -5.625019
v -7.499987 10.000000 -5.625029
v -12.499987 10.625000 -6.250019
v -7.499987 11.249999 -6.250029
v -7.499987 10.625000 -6.250029
v -12.499987 11.249999 -6.250029
v -12.499987 11.249999 -6.875029
v -7.499987 11.874999 -6.875029
v -12.499987 11.874999 -6.875029
v -7.499987 11.249999 -6.875029
v -12.499987 11.874999 -7.500029
v -7.499987 12.499999 -7.500029
v -12.499987 12.499999 -7.500029
v -7.499987 11.874999 -7.500029
v -12.499999 7.500000 2.500000
v -7.500000 7.500000 2.500000
v -12.500000 7.500000 -2.500000
v -7.500000 7.500000 -2.500000
v -12.499999 12.500000 -7.500000
v -7.500000 12.500000 -7.500000
v -12.500000 12.500000 -12.500000
v -7.500000 12.500000 -12.500000
v -2.499998 17.500000 -7.500000
v 2.500000 17.500000 -7.500000
v -2.500000 17.500000 -12.500000
v 2.500000 17.500000 -12.500000
v -12.499999 4.999999 -2.500000
v -7.500000 4.999999 -2.500000
v -12.500000 4.999998 2.500000
v -7.500000 4.999998 2.500000
v -12.499999 9.999999 -12.500000
v -7.500000 9.999999 -12.500000
v -12.500000 9.999998 -7.500000
v -7.500000 9.999998 -7.500000
v -2.499998 14.999999 -12.500000
v 2.500000 14.999999 -12.500000
v -2.500000 14.999998 -7.500000
v 2.500000 14.999998 -7.500000
v -7.499999 5.000000 -2.500010
v -7.500000 5.000000 2.499987
v -7.500000 7.500000 2.499987
v -7.499999 7.500000 -2.500010
v 2.500000 14.999999 -7.500009
v -2.499996 14.999999 -7.500010
v -2.499996 17.500000 -7.500010
v 2.500000 17.500000 -7.500009
v 2.500002 14.999999 -12.500008
v 2.500000 14.999999 -7.500012
v 2.500000 17.500000 -7.500012
v 2.500002 17.500000 -12.500008
vn -0.0000 1.0000 -0.0000
vn 1.0000 -0.0000 -0.0000
vn -0.0000 -0.0000 1.0000
vn -1.0000 -0.0000 -0.0000
vn -0.0000 -0.0000 -1.0000
vn -0.0000 -1.0000 -0.0000
vn 1.0000 -0.0024 0.0003
vn -0.0000 -0.7071 -0.7071
vn 0.7071 -0.7071 -0.0000
vt 0.295085 0.852878
vt 0.295087 0.997736
vt 0.440201 0.997731
vt 0.440081 0.852870
vt 0.292969 0.511719
vt 0.000000 0.511719
vt 0.000000 0.804688
vt 0.292969 0.804688
vt 0.292969 0.707031
vt 0.000000 0.707031
vt 0.000000 1.000000
vt 0.292969 1.000000
vt 0.121468 0.585684
vt 0.072840 0.585684
vt 0.072840 0.609782
vt 0.121468 0.609782
vt 0.268390 0.542422
vt 0.024736 0.542422
vt 0.024736 0.556766
vt 0.268390 0.556766
vt 0.023913 0.536758
vt 0.023913 0.561051
vt 0.267994 0.561051
vt 0.267994 0.536758
vt 0.440360 0.997849
vt 0.295123 0.997849
vt 0.295123 0.852664
vt 0.440360 0.852664
vt 0.340773 0.852878
vt 0.340774 0.997736
vt 0.358914 0.997735
vt 0.358897 0.852877
vt 0.377053 0.997735
vt 0.377022 0.852876
vt 0.386461 0.852878
vt 0.386462 0.997736
vt 0.404601 0.997735
vt 0.404585 0.852877
vt 0.422740 0.997735
vt 0.422710 0.852876
vt 0.325544 0.852878
vt 0.325545 0.997736
vt 0.343684 0.997735
vt 0.343668 0.852877
vt 0.361824 0.997735
vt 0.361793 0.852876
vt 0.401690 0.852878
vt 0.401691 0.997736
vt 0.419830 0.997735
vt 0.419814 0.852877
vt 0.437970 0.997735
vt 0.437939 0.852876
vt 0.371231 0.852878
vt 0.371233 0.997736
vt 0.389372 0.997735
vt 0.389356 0.852877
vt 0.407511 0.997735
vt 0.407480 0.852876
vt 0.356002 0.852878
vt 0.356004 0.997736
vt 0.374143 0.997735
vt 0.374127 0.852877
vt 0.392282 0.997735
vt 0.392251 0.852876
vt 0.313226 0.997735
vt 0.313210 0.852877
vt 0.331365 0.997735
vt 0.331334 0.852876
vt 0.000000 0.658203
vt 0.292969 0.658203
s 0
usemtl Material
f 2/1/1 4/2/1 3/3/1 1/4/1
f 6/5/2 5/6/2 7/7/2 8/8/2
f 10/9/2 9/10/2 11/11/2 12/12/2
f 14/5/2 13/6/2 15/7/2 16/8/2
f 18/9/2 17/10/2 19/11/2 20/12/2
f 22/5/2 21/6/2 23/7/2 24/8/2
f 26/9/2 25/10/2 27/11/2 28/12/2
f 30/5/2 29/6/2 31/7/2 32/8/2
f 34/9/2 33/10/2 35/11/2 36/12/2
f 38/5/2 37/6/2 39/7/2 40/8/2
f 42/9/2 41/10/2 43/11/2 44/12/2
f 46/9/3 45/10/3 47/11/3 48/12/3
f 50/5/3 49/6/3 51/7/3 52/8/3
f 54/9/3 53/10/3 55/11/3 56/12/3
f 58/5/3 57/6/3 59/7/3 60/8/3
f 62/9/3 61/10/3 63/11/3 64/12/3
f 66/5/3 65/6/3 67/7/3 68/8/3
f 70/9/3 69/10/3 71/11/3 72/12/3
f 74/5/3 73/6/3 75/7/3 76/8/3
f 78/9/3 77/10/3 79/11/3 80/12/3
f 82/1/1 84/2/1 83/3/1 81/4/1
f 86/1/1 88/2/1 87/3/1 85/4/1
f 90/1/1 92/2/1 91/3/1 89/4/1
f 94/1/1 96/2/1 95/3/1 93/4/1
f 98/1/1 100/2/1 99/3/1 97/4/1
f 102/1/1 104/2/1 103/3/1 101/4/1
f 106/1/1 108/2/1 107/3/1 105/4/1
f 110/1/1 112/2/1 111/3/1 109/4/1
f 114/1/1 116/2/1 115/3/1 113/4/1
f 118/1/1 120/2/1 119/3/1 117/4/1
f 122/1/1 124/2/1 123/3/1 121/4/1
f 126/1/1 128/2/1 127/3/1 125/4/1
f 130/1/1 132/2/1 131/3/1 129/4/1
f 134/1/1 136/2/1 135/3/1 133/4/1
f 138/1/1 140/2/1 139/3/1 137/4/1
f 142/1/1 144/2/1 143/3/1 141/4/1
f 146/1/1 148/2/1 147/3/1 145/4/1
f 150/1/1 152/2/1 151/3/1 149/4/1
f 154/1/1 156/2/1 155/3/1 153/4/1
f 158/1/1 160/2/1 159/3/1 157/4/1
f 162/1/1 164/2/1 163/3/1 161/4/1
f 166/1/1 168/2/1 167/3/1 165/4/1
f 170/5/4 169/6/4 171/7/4 172/8/4
f 174/9/4 173/10/4 175/11/4 176/12/4
f 178/5/4 177/6/4 179/7/4 180/8/4
f 182/9/4 181/10/4 183/11/4 184/12/4
f 186/5/4 185/6/4 187/7/4 188/8/4
f 190/9/4 189/10/4 191/11/4 192/12/4
f 194/5/4 193/6/4 195/7/4 196/8/4
f 198/9/4 197/10/4 199/11/4 200/12/4
f 202/5/4 201/6/4 203/7/4 204/8/4
f 206/9/4 205/10/4 207/11/4 208/12/4
f 210/9/2 209/10/2 211/11/2 212/12/2
f 214/5/2 213/6/2 215/7/2 216/8/2
f 218/9/2 217/10/2 219/11/2 220/12/2
f 222/5/2 221/6/2 223/7/2 224/8/2
f 226/9/2 225/10/2 227/11/2 228/12/2
f 230/5/2 229/6/2 231/7/2 232/8/2
f 234/9/2 233/10/2 235/11/2 236/12/2
f 238/5/2 237/6/2 239/7/2 240/8/2
f 242/9/2 241/10/2 243/11/2 244/12/2
f 246/5/3 245/6/3 247/7/3 248/8/3
f 250/9/3 249/10/3 251/11/3 252/12/3
f 254/5/3 253/6/3 255/7/3 256/8/3
f 258/9/3 257/10/3 259/11/3 260/12/3
f 262/5/3 261/6/3 263/7/3 264/8/3
f 266/9/3 265/10/3 267/11/3 268/12/3
f 270/5/3 269/6/3 271/7/3 272/8/3
f 274/9/3 273/10/3 275/11/3 276/12/3
f 278/5/3 277/6/3 279/7/3 280/8/3
f 282/9/3 281/10/3 283/11/3 284/12/3
f 286/5/4 285/6/4 287/7/4 288/8/4
f 290/9/4 289/10/4 291/11/4 292/12/4
f 294/5/4 293/6/4 295/7/4 296/8/4
f 298/9/4 297/10/4 299/11/4 300/12/4
f 302/5/4 301/6/4 303/7/4 304/8/4
f 306/9/4 305/10/4 307/11/4 308/12/4
f 310/5/4 309/6/4 311/7/4 312/8/4
f 314/9/4 313/10/4 315/11/4 316/12/4
f 318/5/4 317/6/4 319/7/4 320/8/4
f 322/9/4 321/10/4 323/11/4 324/12/4
f 326/5/2 325/6/2 327/7/2 328/8/2
f 330/9/2 329/10/2 331/11/2 332/12/2
f 334/5/2 333/6/2 335/7/2 336/8/2
f 338/9/2 337/10/2 339/11/2 340/12/2
f 342/5/2 341/6/2 343/7/2 344/8/2
f 346/9/2 345/10/2 347/11/2 348/12/2
f 350/5/2 349/6/2 351/7/2 352/8/2
f 354/9/2 353/10/2 355/11/2 356/12/2
f 358/5/2 357/6/2 359/7/2 360/8/2
f 362/9/2 361/10/2 363/11/2 364/12/2
f 366/9/3 365/10/3 367/11/3 368/12/3
f 370/5/3 369/6/3 371/7/3 372/8/3
f 374/9/3 373/10/3 375/11/3 376/12/3
f 378/5/3 377/6/3 379/7/3 380/8/3
f 382/9/3 381/10/3 383/11/3 384/12/3
f 386/5/3 385/6/3 387/7/3 388/8/3
f 390/9/3 389/10/3 391/11/3 392/12/3
f 394/5/3 393/6/3 395/7/3 396/8/3
f 398/9/3 397/10/3 399/11/3 400/12/3
f 402/5/4 401/6/4 403/7/4 404/8/4
f 406/9/4 405/10/4 407/11/4 408/12/4
f 410/5/4 409/6/4 411/7/4 412/8/4
f 414/9/4 413/10/4 415/11/4 416/12/4
f 418/5/4 417/6/4 419/7/4 420/8/4
f 422/9/4 421/10/4 423/11/4 424/12/4
f 426/5/4 425/6/4 427/7/4 428/8/4
f 430/9/4 429/10/4 431/11/4 432/12/4
f 434/5/4 433/6/4 435/7/4 436/8/4
f 438/9/4 437/10/4 439/11/4 440/12/4
f 538/1/1 540/2/1 539/3/1 537/4/1
f 542/1/1 544/2/1 543/3/1 541/4/1
f 546/5/5 545/6/5 547/7/5 548/8/5
f 550/9/5 549/10/5 551/11/5 552/12/5
f 554/5/5 553/6/5 555/7/5 556/8/5
f 558/9/5 557/10/5 559/11/5 560/12/5
f 562/5/5 561/6/5 563/7/5 564/8/5
f 566/9/5 565/10/5 567/11/5 568/12/5
f 570/5/5 569/6/5 571/7/5 572/8/5
f 574/9/5 573/10/5 575/11/5 576/12/5
f 578/9/5 577/10/5 579/11/5 580/12/5
f 582/5/5 581/6/5 583/7/5 584/8/5
f 586/9/5 585/10/5 587/11/5 588/12/5
f 590/5/5 589/6/5 591/7/5 592/8/5
f 594/9/5 593/10/5 595/11/5 596/12/5
f 598/5/5 597/6/5 599/7/5 600/8/5
f 602/9/5 601/10/5 603/11/5 604/12/5
f 606/5/5 605/6/5 607/7/5 608/8/5
f 610/9/5 609/10/5 611/11/5 612/12/5
f 614/9/5 613/10/5 615/11/5 616/12/5
f 618/5/5 617/6/5 619/7/5 620/8/5
f 622/9/5 621/10/5 623/11/5 624/12/5
f 626/5/5 625/6/5 627/7/5 628/8/5
f 630/9/5 629/10/5 631/11/5 632/12/5
f 634/5/5 633/6/5 635/7/5 636/8/5
f 638/5/5 637/6/5 639/7/5 640/8/5
f 642/5/5 641/6/5 643/7/5 644/8/5
f 646/9/5 645/10/5 647/11/5 648/12/5
f 650/5/5 649/6/5 651/7/5 652/8/5
f 654/9/5 653/10/5 655/11/5 656/12/5
f 658/9/5 657/10/5 659/11/5 660/12/5
f 662/25/6 664/26/6 663/27/6 661/28/6
f 666/25/6 668/26/6 667/27/6 665/28/6
f 670/25/6 672/26/6 671/27/6 669/28/6
f 674/25/6 676/26/6 675/27/6 673/28/6
f 678/25/6 680/26/6 679/27/6 677/28/6
f 682/25/6 684/26/6 683/27/6 681/28/6
f 686/25/6 688/26/6 687/27/6 685/28/6
f 690/25/6 692/26/6 691/27/6 689/28/6
f 694/25/6 696/26/6 695/27/6 693/28/6
f 698/25/6 700/26/6 699/27/6 697/28/6
f 702/25/6 704/26/6 703/27/6 701/28/6
f 706/25/6 708/26/6 707/27/6 705/28/6
f 710/25/6 712/26/6 711/27/6 709/28/6
f 714/25/6 716/26/6 715/27/6 713/28/6
f 718/25/6 720/26/6 719/27/6 717/28/6
f 722/25/6 724/26/6 723/27/6 721/28/6
f 726/25/6 728/26/6 727/27/6 725/28/6
f 730/25/6 732/26/6 731/27/6 729/28/6
f 734/25/6 736/26/6 735/27/6 733/28/6
f 738/25/6 740/26/6 739/27/6 737/28/6
f 742/25/6 744/26/6 743/27/6 741/28/6
f 746/25/6 748/26/6 747/27/6 745/28/6
f 750/25/6 752/26/6 751/27/6 749/28/6
f 754/25/6 756/26/6 755/27/6 753/28/6
f 758/25/6 760/26/6 759/27/6 757/28/6
f 762/1/1 764/2/1 763/3/1 761/4/1
f 767/5/4 768/8/4 766/7/4 765/6/4
f 771/5/3 772/8/3 770/7/3 769/6/3
f 775/5/5 776/8/5 774/7/5 773/6/5
f 779/5/2 780/8/2 778/7/2 777/6/2
f 782/5/5 783/8/5 766/7/5 765/6/5
f 783/5/5 784/8/5 781/7/5 766/6/5
f 787/5/4 788/8/4 786/7/4 785/6/4
f 791/5/3 792/8/3 790/7/3 789/6/3
f 795/5/5 796/8/5 794/7/5 793/6/5
f 799/5/2 800/8/2 798/7/2 797/6/2
f 803/5/4 804/8/4 802/7/4 801/6/4
f 807/5/3 808/8/3 806/7/3 805/6/3
f 811/5/5 812/8/5 810/7/5 809/6/5
f 815/5/2 816/8/2 814/7/2 813/6/2
f 819/5/4 820/8/4 818/7/4 817/6/4
f 823/5/3 824/8/3 822/7/3 821/6/3
f 827/5/5 828/8/5 826/7/5 825/6/5
f 831/5/2 832/8/2 830/7/2 829/6/2
f 835/5/2 836/8/2 834/7/2 833/6/2
f 839/5/3 840/8/3 838/7/3 837/6/3
f 843/5/5 844/8/5 842/7/5 841/6/5
f 847/5/4 848/8/4 846/7/4 845/6/4
f 851/5/2 852/8/2 850/7/2 849/6/2
f 855/5/3 856/8/3 854/7/3 853/6/3
f 859/5/5 860/8/5 858/7/5 857/6/5
f 863/5/4 864/8/4 862/7/4 861/6/4
f 867/5/2 868/8/2 866/7/2 865/6/2
f 871/5/3 872/8/3 870/7/3 869/6/3
f 875/5/5 876/8/5 874/7/5 873/6/5
f 879/5/4 880/8/4 878/7/4 877/6/4
f 883/5/2 884/8/2 882/7/2 881/6/2
f 887/5/3 888/8/3 886/7/3 885/6/3
f 891/5/5 892/8/5 890/7/5 889/6/5
f 895/5/4 896/8/4 894/7/4 893/6/4
f 899/9/5 900/12/5 898/11/5 897/10/5
f 903/9/2 904/12/2 902/11/2 901/10/2
f 907/9/4 908/12/4 906/11/4 905/10/4
f 911/9/3 912/12/3 910/11/3 909/10/3
f 915/9/5 916/12/5 914/11/5 913/10/5
f 919/9/2 920/12/2 918/11/2 917/10/2
f 923/9/4 924/12/4 922/11/4 921/10/4
f 927/9/3 928/12/3 926/11/3 925/10/3
f 931/9/5 932/12/5 930/11/5 929/10/5
f 935/9/2 936/12/2 934/11/2 933/10/2
f 939/9/4 940/12/4 938/11/4 937/10/4
f 943/9/3 944/12/3 942/11/3 941/10/3
f 947/9/5 948/12/5 946/11/5 945/10/5
f 951/9/2 952/12/2 950/11/2 949/10/2
f 955/9/4 956/12/4 954/11/4 953/10/4
f 959/9/3 960/12/3 958/11/3 957/10/3
f 963/9/5 964/12/5 962/11/5 961/10/5
f 967/9/2 968/12/2 966/11/2 965/10/2
f 971/9/4 972/12/4 970/11/4 969/10/4
f 975/9/3 976/12/3 974/11/3 973/10/3
f 979/9/5 980/12/5 978/11/5 977/10/5
f 983/9/2 984/12/2 982/11/2 981/10/2
f 987/9/4 988/12/4 986/11/4 985/10/4
f 991/9/3 992/12/3 990/11/3 989/10/3
f 995/9/5 996/12/5 994/11/5 993/10/5
f 999/9/2 1000/12/2 998/11/2 997/10/2
f 1003/9/4 1004/12/4 1002/11/4 1001/10/4
f 1007/9/3 1008/12/3 1006/11/3 1005/10/3
f 1011/9/5 1012/12/5 1010/11/5 1009/10/5
f 1015/9/2 1016/12/2 1014/11/2 1013/10/2
f 1019/9/4 1020/12/4 1018/11/4 1017/10/4
f 1023/9/3 1024/12/3 1022/11/3 1021/10/3
f 1027/9/5 1028/12/5 1026/11/5 1025/10/5
f 1031/9/2 1032/12/2 1030/11/2 1029/10/2
f 1035/9/4 1036/12/4 1034/11/4 1033/10/4
f 1039/9/3 1040/12/3 1038/11/3 1037/10/3
f 1043/9/5 1044/12/5 1042/11/5 1041/10/5
f 1047/9/2 1048/12/2 1046/11/2 1045/10/2
f 1051/9/4 1052/12/4 1050/11/4 1049/10/4
f 1055/9/3 1056/12/3 1054/11/3 1053/10/3
f 1059/9/5 1060/12/5 1058/11/5 1057/10/5
f 1063/9/2 1064/12/2 1062/11/2 1061/10/2
f 1067/9/4 1068/12/4 1066/11/4 1065/10/4
f 1071/9/3 1072/12/3 1070/11/3 1069/10/3
f 1075/9/5 1076/12/5 1074/11/5 1073/10/5
f 1079/9/2 1080/12/2 1078/11/2 1077/10/2
f 1083/9/4 1084/12/4 1082/11/4 1081/10/4
f 1087/9/3 1088/12/3 1086/11/3 1085/10/3
f 1091/9/5 1092/12/5 1090/11/5 1089/10/5
f 1095/9/2 1096/12/2 1094/11/2 1093/10/2
f 1099/9/4 1100/12/4 1098/11/4 1097/10/4
f 1103/9/3 1104/12/3 1102/11/3 1101/10/3
f 1107/9/5 1108/12/5 1106/11/5 1105/10/5
f 1111/9/2 1112/12/2 1110/11/2 1109/10/2
f 1115/9/4 1116/12/4 1114/11/4 1113/10/4
f 1119/9/3 1120/12/3 1118/11/3 1117/10/3
f 1123/9/5 1124/12/5 1122/11/5 1121/10/5
f 1127/9/2 1128/12/2 1126/11/2 1125/10/2
f 1131/9/4 1132/12/4 1130/11/4 1129/10/4
f 1135/9/3 1136/12/3 1134/11/3 1133/10/3
f 1139/9/5 1140/12/5 1138/11/5 1137/10/5
f 1143/9/2 1144/12/2 1142/11/2 1141/10/2
f 1147/9/4 1148/12/4 1146/11/4 1145/10/4
f 1151/9/3 1152/12/3 1150/11/3 1149/10/3
f 1153/29/1 1154/30/1 1158/31/1 1155/32/1
f 1155/32/3 1158/31/3 1156/33/3 1157/34/3
f 1157/35/1 1156/36/1 1164/37/1 1161/38/1
f 1161/38/3 1164/37/3 1166/39/3 1165/40/3
f 1165/29/1 1166/30/1 1170/31/1 1167/32/1
f 1167/32/3 1170/31/3 1172/33/3 1169/34/3
f 1169/41/1 1172/42/1 1176/43/1 1173/44/1
f 1173/44/3 1176/43/3 1178/45/3 1175/46/3
f 1175/47/1 1178/48/1 1182/49/1 1179/50/1
f 1179/50/3 1182/49/3 1180/51/3 1181/52/3
f 1181/53/1 1180/54/1 1188/55/1 1185/56/1
f 1185/56/3 1188/55/3 1186/57/3 1189/58/3
f 1189/59/1 1186/60/1 1194/61/1 1191/62/1
f 1191/62/3 1194/61/3 1192/63/3 1193/64/3
f 1193/1/1 1192/2/1 1200/65/1 1197/66/1
f 1197/66/3 1200/65/3 1198/67/3 1199/68/3
f 1196/29/1 1195/30/1 1183/31/1 1190/32/1
f 1190/32/2 1183/31/2 1187/33/2 1184/34/2
f 1184/35/1 1187/36/1 1174/37/1 1177/38/1
f 1177/38/2 1174/37/2 1168/39/2 1171/40/2
f 1171/29/1 1168/30/1 1160/31/1 1163/32/1
f 1163/32/2 1160/31/2 1159/33/2 1162/34/2
f 1162/41/1 1159/42/1 1203/43/1 1201/44/1
f 1201/44/2 1203/43/2 1204/45/2 1202/46/2
f 1202/47/1 1204/48/1 1208/49/1 1205/50/1
f 1205/50/2 1208/49/2 1206/51/2 1207/52/2
f 1207/53/1 1206/54/1 1211/55/1 1209/56/1
f 1209/56/2 1211/55/2 1210/57/2 1212/58/2
f 1212/59/1 1210/60/1 1216/61/1 1213/62/1
f 1213/62/2 1216/61/2 1214/63/2 1215/64/2
f 1215/1/1 1214/2/1 1219/65/1 1217/66/1
f 1217/66/7 1219/65/7 1154/67/7 1218/68/7
f 1220/29/1 1284/30/1 1224/31/1 1221/32/1
f 1221/32/4 1224/31/4 1222/33/4 1223/34/4
f 1223/35/1 1222/36/1 1230/37/1 1227/38/1
f 1227/38/4 1230/37/4 1232/39/4 1231/40/4
f 1231/29/1 1232/30/1 1236/31/1 1233/32/1
f 1233/32/4 1236/31/4 1238/33/4 1235/34/4
f 1235/41/1 1238/42/1 1242/43/1 1239/44/1
f 1239/44/4 1242/43/4 1244/45/4 1241/46/4
f 1241/47/1 1244/48/1 1248/49/1 1245/50/1
f 1245/50/4 1248/49/4 1246/51/4 1247/52/4
f 1247/53/1 1246/54/1 1254/55/1 1251/56/1
f 1251/56/4 1254/55/4 1252/57/4 1255/58/4
f 1255/59/1 1252/60/1 1260/61/1 1257/62/1
f 1257/62/4 1260/61/4 1258/63/4 1259/64/4
f 1259/1/1 1258/2/1 1266/65/1 1263/66/1
f 1263/66/4 1266/65/4 1264/67/4 1265/68/4
f 1262/29/1 1261/30/1 1249/31/1 1256/32/1
f 1256/32/3 1249/31/3 1253/33/3 1250/34/3
f 1250/35/1 1253/36/1 1240/37/1 1243/38/1
f 1243/38/3 1240/37/3 1234/39/3 1237/40/3
f 1237/29/1 1234/30/1 1226/31/1 1229/32/1
f 1229/32/3 1226/31/3 1225/33/3 1228/34/3
f 1228/41/1 1225/42/1 1269/43/1 1267/44/1
f 1267/44/3 1269/43/3 1270/45/3 1268/46/3
f 1268/47/1 1270/48/1 1274/49/1 1271/50/1
f 1271/50/3 1274/49/3 1272/51/3 1273/52/3
f 1273/53/1 1272/54/1 1277/55/1 1275/56/1
f 1275/56/3 1277/55/3 1276/57/3 1278/58/3
f 1278/59/1 1276/60/1 1282/61/1 1279/62/1
f 1279/62/3 1282/61/3 1280/63/3 1281/64/3
f 1281/1/1 1280/2/1 1286/65/1 1283/66/1
f 1283/66/3 1286/65/3 1284/67/3 1285/68/3
f 1288/1/1 1290/2/1 1289/3/1 1287/4/1
f 1292/1/1 1294/2/1 1293/3/1 1291/4/1
f 1296/1/1 1298/2/1 1297/3/1 1295/4/1
f 1300/1/6 1302/2/6 1301/3/6 1299/4/6
f 1304/1/6 1306/2/6 1305/3/6 1303/4/6
f 1308/1/6 1310/2/6 1309/3/6 1307/4/6
f 1300/1/8 1299/4/8 1305/3/8 1306/2/8
f 1306/2/9 1304/1/9 1307/4/9 1309/3/9
f 1312/5/2 1311/6/2 1314/69/2 1313/70/2
f 1316/5/3 1315/6/3 1318/69/3 1317/70/3
f 1320/5/2 1319/6/2 1322/69/2 1321/70/2
usemtl Material.001
f 442/13/2 441/14/2 444/15/2 443/16/2
f 450/13/4 451/16/4 452/15/4 449/14/4
f 456/17/5 448/18/5 447/19/5 455/20/5
f 455/17/4 447/18/4 446/19/4 454/20/4
f 454/20/3 446/19/3 445/18/3 453/17/3
f 453/17/2 445/18/2 448/19/2 456/20/2
f 449/21/6 452/22/6 444/23/6 441/24/6
f 452/21/5 451/22/5 443/23/5 444/24/5
f 451/22/1 450/21/1 442/24/1 443/23/1
f 450/22/3 449/21/3 441/24/3 442/23/3
f 464/17/5 460/18/5 459/19/5 463/20/5
f 463/17/4 459/18/4 458/19/4 462/20/4
f 462/20/3 458/19/3 457/18/3 461/17/3
f 461/17/2 457/18/2 460/19/2 464/20/2
f 466/13/2 465/14/2 468/15/2 467/16/2
f 474/13/4 475/16/4 476/15/4 473/14/4
f 480/17/5 472/18/5 471/19/5 479/20/5
f 479/17/4 471/18/4 470/19/4 478/20/4
f 478/20/3 470/19/3 469/18/3 477/17/3
f 477/17/2 469/18/2 472/19/2 480/20/2
f 473/21/6 476/22/6 468/23/6 465/24/6
f 476/21/5 475/22/5 467/23/5 468/24/5
f 475/22/1 474/21/1 466/24/1 467/23/1
f 474/22/3 473/21/3 465/24/3 466/23/3
f 488/17/5 484/18/5 483/19/5 487/20/5
f 487/17/4 483/18/4 482/19/4 486/20/4
f 486/20/3 482/19/3 481/18/3 485/17/3
f 485/17/2 481/18/2 484/19/2 488/20/2
f 490/13/5 489/14/5 492/15/5 491/16/5
f 498/13/3 499/16/3 500/15/3 497/14/3
f 504/17/4 496/18/4 495/19/4 503/20/4
f 503/17/3 495/18/3 494/19/3 502/20/3
f 502/20/2 494/19/2 493/18/2 501/17/2
f 501/17/5 493/18/5 496/19/5 504/20/5
f 497/21/6 500/22/6 492/23/6 489/24/6
f 500/21/4 499/22/4 491/23/4 492/24/4
f 499/22/1 498/21/1 490/24/1 491/23/1
f 498/22/2 497/21/2 489/24/2 490/23/2
f 512/17/4 508/18/4 507/19/4 511/20/4
f 511/17/3 507/18/3 506/19/3 510/20/3
f 510/20/2 506/19/2 505/18/2 509/17/2
f 509/17/5 505/18/5 508/19/5 512/20/5
f 514/13/2 513/14/2 516/15/2 515/16/2
f 522/13/4 523/16/4 524/15/4 521/14/4
f 528/17/5 520/18/5 519/19/5 527/20/5
f 527/17/4 519/18/4 518/19/4 526/20/4
f 526/20/3 518/19/3 517/18/3 525/17/3
f 525/17/2 517/18/2 520/19/2 528/20/2
f 521/21/6 524/22/6 516/23/6 513/24/6
f 524/21/5 523/22/5 515/23/5 516/24/5
f 523/22/1 522/21/1 514/24/1 515/23/1
f 522/22/3 521/21/3 513/24/3 514/23/3
f 536/17/5 532/18/5 531/19/5 535/20/5
f 535/17/4 531/18/4 530/19/4 534/20/4
f 534/20/3 530/19/3 529/18/3 533/17/3
f 533/17/2 529/18/2 532/19/2 536/20/2
