# Blender 4.3.2
# www.blender.org
mtllib staircase1_collision.mtl
o corridor_straight.078
v -2.499998 -2.500000 2.500000
v 2.500000 -2.500000 2.499999
v -2.500000 -2.500000 -2.500000
v 2.500000 -2.500000 -2.500000
v -12.500000 -2.500000 -2.500000
v -12.500000 -2.500000 2.500000
v -12.500000 2.499999 -2.500000
v -12.500000 2.499999 2.500000
v -12.500000 2.500000 -2.500000
v -12.500000 2.500000 2.500000
v -12.500000 7.499999 -2.500000
v -12.500000 7.499999 2.500000
v -12.500000 -2.500000 -7.500000
v -12.500000 -2.500000 -2.500000
v -12.500000 2.499999 -7.500000
v -12.500000 2.499999 -2.500000
v -12.500000 2.500000 -7.500000
v -12.500000 2.500000 -2.500000
v -12.500000 7.499999 -7.500000
v -12.500000 7.499999 -2.500000
v -12.500000 -2.500000 -12.499999
v -12.500000 -2.500000 -7.500000
v -12.500000 2.499999 -12.499999
v -12.500000 2.499999 -7.500000
v -12.500000 2.500000 -12.499999
v -12.500000 2.500000 -7.500000
v -12.500000 7.499999 -12.499999
v -12.500000 7.499999 -7.500000
v -12.500000 -2.500000 2.500001
v -12.500000 -2.500000 7.500000
v -12.500000 2.499999 2.500001
v -12.500000 2.499999 7.500000
v -12.500000 2.500000 2.500001
v -12.500000 2.500000 7.500000
v -12.500000 7.499999 2.500001
v -12.500000 7.499999 7.500000
v -12.500000 -2.500000 7.500002
v -12.500000 -2.500000 12.500000
v -12.500000 2.499999 7.500002
v -12.500000 2.499999 12.500000
v -12.500000 2.500000 7.500002
v -12.500000 2.500000 12.500000
v -12.500000 7.499999 7.500002
v -12.500000 7.499999 12.500000
v 2.499998 2.500000 -12.500001
v -2.500000 2.500000 -12.499998
v 2.499998 7.500000 -12.500001
v -2.500000 7.500000 -12.499998
v 7.499998 -2.500000 -12.500001
v 2.500000 -2.500000 -12.499998
v 7.499998 2.499999 -12.500001
v 2.500000 2.499999 -12.499998
v 7.499998 2.500000 -12.500001
v 2.500000 2.500000 -12.499998
v 7.499998 7.500000 -12.500001
v 2.500000 7.500000 -12.499998
v 12.499996 -2.500000 -12.500001
v 7.500000 -2.500000 -12.499998
v 12.499996 2.499999 -12.500001
v 7.500000 2.499999 -12.499998
v 12.499996 2.500000 -12.500001
v 7.500000 2.500000 -12.499998
v 12.499996 7.500000 -12.500001
v 7.500000 7.500000 -12.499998
v -2.500002 -2.500000 -12.500001
v -7.500000 -2.500000 -12.499998
v -2.500002 2.499999 -12.500001
v -7.500000 2.499999 -12.499998
v -2.500002 2.500000 -12.500001
v -7.500000 2.500000 -12.499998
v -2.500002 7.500000 -12.500001
v -7.500000 7.500000 -12.499998
v -7.500001 -2.500000 -12.500000
v -12.500000 -2.500000 -12.499997
v -7.500001 2.499999 -12.500000
v -12.500000 2.499999 -12.499997
v -7.500001 2.500000 -12.500000
v -12.500000 2.500000 -12.499997
v -7.500001 7.500000 -12.500000
v -12.500000 7.500000 -12.499997
v 7.500000 -2.500000 12.500000
v 12.500000 -2.500000 12.500000
v 7.500000 -2.500000 7.500002
v 12.500000 -2.500000 7.500000
v 2.500000 -2.500000 12.500000
v 7.500000 -2.500000 12.500000
v 2.500000 -2.500000 7.500002
v 7.500000 -2.500000 7.500000
v -7.499999 -2.500000 12.500000
v -2.500000 -2.500000 12.500000
v -7.500000 -2.500000 7.500002
v -2.500002 -2.500000 7.500000
v -12.499999 -2.500000 12.500000
v -7.500000 -2.500000 12.500000
v -12.500000 -2.500000 7.500002
v -7.500001 -2.500000 7.500000
v 7.500000 -2.500000 7.500000
v 12.500000 -2.500000 7.499998
v 7.500000 -2.500000 2.500001
v 12.500000 -2.500000 2.500000
v 2.500000 -2.500000 7.500000
v 7.500000 -2.500000 7.499998
v 2.500000 -2.500000 2.500001
v 7.500000 -2.500000 2.500000
v -7.499999 -2.500000 7.500000
v -2.500000 -2.500000 7.499998
v -7.500000 -2.500000 2.500001
v -2.500002 -2.500000 2.500000
v -12.499999 -2.500000 7.500000
v -7.500000 -2.500000 7.499998
v -12.500000 -2.500000 2.500001
v -7.500001 -2.500000 2.500000
v 7.500000 -2.500000 2.500000
v 12.500000 -2.500000 2.499999
v 7.500000 -2.500000 -2.500000
v 12.500000 -2.500000 -2.500000
v 2.500000 -2.500000 2.500000
v 7.500000 -2.500000 2.499999
v 2.500000 -2.500000 -2.500000
v 7.500000 -2.500000 -2.500000
v -7.499999 -2.500000 2.500000
v -2.500000 -2.500000 2.499999
v -7.500000 -2.500000 -2.500000
v -2.500002 -2.500000 -2.500000
v -12.499999 -2.500000 2.500000
v -7.500000 -2.500000 2.499999
v -12.500000 -2.500000 -2.500000
v -7.500001 -2.500000 -2.500000
v 7.500000 -2.500000 -2.500000
v 12.500000 -2.500000 -2.500000
v 7.500000 -2.500000 -7.500000
v 12.500000 -2.500000 -7.500000
v 2.500000 -2.500000 -2.500000
v 7.500000 -2.500000 -2.500000
v 2.500000 -2.500000 -7.500000
v 7.500000 -2.500000 -7.500000
v -2.499998 -2.500000 -2.500000
v 2.500000 -2.500000 -2.500000
v -2.500000 -2.500000 -7.500000
v 2.500000 -2.500000 -7.500000
v -7.499999 -2.500000 -2.500000
v -2.500000 -2.500000 -2.500000
v -7.500000 -2.500000 -7.500000
v -2.500002 -2.500000 -7.500000
v -12.499999 -2.500000 -2.500000
v -7.500000 -2.500000 -2.500000
v -12.500000 -2.500000 -7.500000
v -7.500001 -2.500000 -7.500000
v 7.500000 -2.500000 -7.500000
v 12.500000 -2.500000 -7.500001
v 7.500000 -2.500000 -12.499999
v 12.500000 -2.500000 -12.500000
v 2.500000 -2.500000 -7.500000
v 7.500000 -2.500000 -7.500001
v 2.500000 -2.500000 -12.499999
v 7.500000 -2.500000 -12.500000
v -2.499998 -2.500000 -7.500000
v 2.500000 -2.500000 -7.500001
v -2.500000 -2.500000 -12.499999
v 2.500000 -2.500000 -12.500000
v -7.499999 -2.500000 -7.500000
v -2.500000 -2.500000 -7.500001
v -7.500000 -2.500000 -12.499999
v -2.500002 -2.500000 -12.500000
v -12.499999 -2.500000 -7.500000
v -7.500000 -2.500000 -7.500001
v -12.500000 -2.500000 -12.499999
v -7.500001 -2.500000 -12.500000
v 12.500000 -2.500000 2.499999
v 12.500000 -2.500000 -2.500000
v 12.500000 2.499999 2.499999
v 12.500000 2.499999 -2.500000
v 12.500000 2.500000 2.499999
v 12.500000 2.500000 -2.500000
v 12.500000 7.499999 2.499999
v 12.500000 7.499999 -2.500000
v 12.500000 -2.500000 7.499998
v 12.500000 -2.500000 2.500000
v 12.500000 2.499999 7.499998
v 12.500000 2.499999 2.500000
v 12.500000 2.500000 7.499998
v 12.500000 2.500000 2.500000
v 12.500000 7.499999 7.499998
v 12.500000 7.499999 2.500000
v 12.500004 -2.500000 12.500000
v 12.500004 -2.500000 7.500000
v 12.500004 2.499999 12.500000
v 12.500004 2.499999 7.500000
v 12.500004 2.500000 12.500000
v 12.500004 2.500000 7.500000
v 12.500004 7.499999 12.500000
v 12.500004 7.499999 7.500000
v 12.500000 -2.500000 -2.500001
v 12.500000 -2.500000 -7.500000
v 12.500000 2.499999 -2.500001
v 12.500000 2.499999 -7.500000
v 12.500000 2.500000 -2.500001
v 12.500000 2.500000 -7.500000
v 12.500000 7.499999 -2.500001
v 12.500000 7.499999 -7.500000
v 12.500000 -2.500000 -7.500001
v 12.500000 -2.500000 -12.500000
v 12.500000 2.499999 -7.500001
v 12.500000 2.499999 -12.500000
v 12.500000 2.500000 -7.500001
v 12.500000 2.500000 -12.500000
v 12.500000 7.499999 -7.500001
v 12.500000 7.499999 -12.500000
v -12.500000 12.500000 -2.500000
v -12.500000 12.500000 2.500000
v -12.500000 17.500000 -2.500000
v -12.500000 17.500000 2.500000
v -12.500000 7.500000 -7.500000
v -12.500000 7.500000 -2.500000
v -12.500000 12.500000 -7.500000
v -12.500000 12.500000 -2.500000
v -12.500000 12.500000 -7.500000
v -12.500000 12.500000 -2.500000
v -12.500000 17.500000 -7.500000
v -12.500000 17.500000 -2.500000
v -12.500000 7.500000 -12.499999
v -12.500000 7.500000 -7.500000
v -12.500000 12.500000 -12.499999
v -12.500000 12.500000 -7.500000
v -12.500000 12.500000 -12.499999
v -12.500000 12.500000 -7.500000
v -12.500000 17.500000 -12.499999
v -12.500000 17.500000 -7.500000
v -12.500000 7.500000 2.500001
v -12.500000 7.500000 7.500000
v -12.500000 12.500000 2.500001
v -12.500000 12.500000 7.500000
v -12.500000 12.500000 2.500001
v -12.500000 12.500000 7.500000
v -12.500000 17.500000 2.500001
v -12.500000 17.500000 7.500000
v -12.500000 7.500000 7.500002
v -12.500000 7.500000 12.500000
v -12.500000 12.500000 7.500002
v -12.500000 12.500000 12.500000
v -12.500000 12.500000 7.500002
v -12.500000 12.500000 12.500000
v -12.500000 17.500000 7.500002
v -12.500000 17.500000 12.500000
v 2.499998 7.500000 -12.500001
v -2.500000 7.500000 -12.499998
v 2.499998 12.500000 -12.500001
v -2.500000 12.500000 -12.499998
v 2.499998 12.500000 -12.500001
v -2.500000 12.500000 -12.499998
v 2.499998 17.500000 -12.500001
v -2.500000 17.500000 -12.499998
v 7.499998 7.500000 -12.500001
v 2.500000 7.500000 -12.499998
v 7.499998 12.500000 -12.500001
v 2.500000 12.500000 -12.499998
v 7.499998 12.500000 -12.500001
v 2.500000 12.500000 -12.499998
v 7.499998 17.500000 -12.500001
v 2.500000 17.500000 -12.499998
v 12.499996 7.500000 -12.500001
v 7.500000 7.500000 -12.499998
v 12.499996 12.500000 -12.500001
v 7.500000 12.500000 -12.499998
v 12.499996 12.500000 -12.500001
v 7.500000 12.500000 -12.499998
v 12.499996 17.500000 -12.500001
v 7.500000 17.500000 -12.499998
v -2.500002 7.500000 -12.500001
v -7.500000 7.500000 -12.499998
v -2.500002 12.500000 -12.500001
v -7.500000 12.500000 -12.499998
v -2.500002 12.500000 -12.500001
v -7.500000 12.500000 -12.499998
v -2.500002 17.500000 -12.500001
v -7.500000 17.500000 -12.499998
v -7.500001 7.500000 -12.500000
v -12.500000 7.500000 -12.499997
v -7.500001 12.500000 -12.500000
v -12.500000 12.500000 -12.499997
v -7.500001 12.500000 -12.500000
v -12.500000 12.500000 -12.499997
v -7.500001 17.500000 -12.500000
v -12.500000 17.500000 -12.499997
v 12.500000 7.500000 2.499999
v 12.500000 7.500000 -2.500000
v 12.500000 12.500000 2.499999
v 12.500000 12.500000 -2.500000
v 12.500000 12.500000 2.499999
v 12.500000 12.500000 -2.500000
v 12.500000 17.500000 2.499999
v 12.500000 17.500000 -2.500000
v 12.500000 7.500000 7.499998
v 12.500000 7.500000 2.500000
v 12.500000 12.500000 7.499998
v 12.500000 12.500000 2.500000
v 12.500000 12.500000 7.499998
v 12.500000 12.500000 2.500000
v 12.500000 17.500000 7.499998
v 12.500000 17.500000 2.500000
v 12.500004 7.500000 12.500000
v 12.500004 7.500000 7.500000
v 12.500004 12.500000 12.500000
v 12.500004 12.500000 7.500000
v 12.500004 12.500000 12.500000
v 12.500004 12.500000 7.500000
v 12.500004 17.500000 12.500000
v 12.500004 17.500000 7.500000
v 12.500000 7.500000 -2.500001
v 12.500000 7.500000 -7.500000
v 12.500000 12.500000 -2.500001
v 12.500000 12.500000 -7.500000
v 12.500000 12.500000 -2.500001
v 12.500000 12.500000 -7.500000
v 12.500000 17.500000 -2.500001
v 12.500000 17.500000 -7.500000
v 12.500000 7.500000 -7.500001
v 12.500000 7.500000 -12.500000
v 12.500000 12.500000 -7.500001
v 12.500000 12.500000 -12.500000
v 12.500000 12.500000 -7.500001
v 12.500000 12.500000 -12.500000
v 12.500000 17.500000 -7.500001
v 12.500000 17.500000 -12.500000
v -12.500000 17.500000 -2.500000
v -12.500000 17.500000 2.500000
v -12.500000 22.500000 -2.500000
v -12.500000 22.500000 2.500000
v -12.500000 22.500000 -2.500000
v -12.500000 22.500000 2.500000
v -12.500000 27.500000 -2.500000
v -12.500000 27.500000 2.500000
v -12.500000 17.500000 -7.500000
v -12.500000 17.500000 -2.500000
v -12.500000 22.500000 -7.500000
v -12.500000 22.500000 -2.500000
v -12.500000 22.500000 -7.500000
v -12.500000 22.500000 -2.500000
v -12.500000 27.500000 -7.500000
v -12.500000 27.500000 -2.500000
v -12.500000 17.500000 -12.499999
v -12.500000 17.500000 -7.500000
v -12.500000 22.500000 -12.499999
v -12.500000 22.500000 -7.500000
v -12.500000 22.500000 -12.499999
v -12.500000 22.500000 -7.500000
v -12.500000 27.500000 -12.499999
v -12.500000 27.500000 -7.500000
v -12.500000 17.500000 2.500001
v -12.500000 17.500000 7.500000
v -12.500000 22.500000 2.500001
v -12.500000 22.500000 7.500000
v -12.500000 22.500000 2.500001
v -12.500000 22.500000 7.500000
v -12.500000 27.500000 2.500001
v -12.500000 27.500000 7.500000
v -12.500000 17.500000 7.500002
v -12.500000 17.500000 12.500000
v -12.500000 22.500000 7.500002
v -12.500000 22.500000 12.500000
v -12.500000 22.500000 7.500002
v -12.500000 22.500000 12.500000
v -12.500000 27.500000 7.500002
v -12.500000 27.500000 12.500000
v 2.499998 22.500000 -12.500001
v -2.500000 22.500000 -12.499998
v 2.499998 27.500000 -12.500001
v -2.500000 27.500000 -12.499998
v 7.499998 17.500000 -12.500001
v 2.500000 17.500000 -12.499998
v 7.499998 22.500000 -12.500001
v 2.500000 22.500000 -12.499998
v 7.499998 22.500000 -12.500001
v 2.500000 22.500000 -12.499998
v 7.499998 27.500000 -12.500001
v 2.500000 27.500000 -12.499998
v 12.499996 17.500000 -12.500001
v 7.500000 17.500000 -12.499998
v 12.499996 22.500000 -12.500001
v 7.500000 22.500000 -12.499998
v 12.499996 22.500000 -12.500001
v 7.500000 22.500000 -12.499998
v 12.499996 27.500000 -12.500001
v 7.500000 27.500000 -12.499998
v -2.500002 17.500000 -12.500001
v -7.500000 17.500000 -12.499998
v -2.500002 22.500000 -12.500001
v -7.500000 22.500000 -12.499998
v -2.500002 22.500000 -12.500001
v -7.500000 22.500000 -12.499998
v -2.500002 27.500000 -12.500001
v -7.500000 27.500000 -12.499998
v -7.500001 17.500000 -12.500000
v -12.500000 17.500000 -12.499997
v -7.500001 22.500000 -12.500000
v -12.500000 22.500000 -12.499997
v -7.500001 22.500000 -12.500000
v -12.500000 22.500000 -12.499997
v -7.500001 27.500000 -12.500000
v -12.500000 27.500000 -12.499997
v 12.500000 17.500000 2.499999
v 12.500000 17.500000 -2.500000
v 12.500000 22.500000 2.499999
v 12.500000 22.500000 -2.500000
v 12.500000 22.500000 2.499999
v 12.500000 22.500000 -2.500000
v 12.500000 27.500000 2.499999
v 12.500000 27.500000 -2.500000
v 12.500000 17.500000 7.499998
v 12.500000 17.500000 2.500000
v 12.500000 22.500000 7.499998
v 12.500000 22.500000 2.500000
v 12.500000 22.500000 7.499998
v 12.500000 22.500000 2.500000
v 12.500000 27.500000 7.499998
v 12.500000 27.500000 2.500000
v 12.500004 17.500000 12.500000
v 12.500004 17.500000 7.500000
v 12.500004 22.500000 12.500000
v 12.500004 22.500000 7.500000
v 12.500004 22.500000 12.500000
v 12.500004 22.500000 7.500000
v 12.500004 27.500000 12.500000
v 12.500004 27.500000 7.500000
v 12.500000 17.500000 -2.500001
v 12.500000 17.500000 -7.500000
v 12.500000 22.500000 -2.500001
v 12.500000 22.500000 -7.500000
v 12.500000 22.500000 -2.500001
v 12.500000 22.500000 -7.500000
v 12.500000 27.500000 -2.500001
v 12.500000 27.500000 -7.500000
v 12.500000 17.500000 -7.500001
v 12.500000 17.500000 -12.500000
v 12.500000 22.500000 -7.500001
v 12.500000 22.500000 -12.500000
v 12.500000 22.500000 -7.500001
v 12.500000 22.500000 -12.500000
v 12.500000 27.500000 -7.500001
v 12.500000 27.500000 -12.500000
v 2.677673 2.375000 12.625000
v 2.677673 2.968905 12.625000
v 2.677673 2.968905 12.375000
v 2.677673 2.375000 12.375000
v -2.375000 -2.500000 12.625000
v -2.625000 -2.500000 12.625000
v -2.625000 -2.500000 12.375000
v -2.375000 -2.500000 12.375000
v -2.677673 2.375000 12.625000
v -2.677673 2.968905 12.625000
v -2.677673 2.968905 12.375000
v -2.677673 2.375000 12.375000
v -2.375000 2.375000 12.625000
v -2.625000 2.375000 12.625000
v -2.625000 2.375000 12.375000
v -2.375000 2.375000 12.375000
v 2.625000 -2.500000 12.625000
v 2.375000 -2.500000 12.625000
v 2.375000 -2.500000 12.375000
v 2.625000 -2.500000 12.375000
v 2.625000 2.375000 12.625000
v 2.375000 2.375000 12.625000
v 2.375000 2.375000 12.375000
v 2.625000 2.375000 12.375000
v 2.677673 2.375000 -12.375000
v 2.677673 2.968905 -12.375000
v 2.677673 2.968905 -12.625000
v 2.677673 2.375000 -12.625000
v -2.375000 -2.500000 -12.375000
v -2.625000 -2.500000 -12.375000
v -2.625000 -2.500000 -12.625000
v -2.375000 -2.500000 -12.625000
v -2.677673 2.375000 -12.375000
v -2.677673 2.968905 -12.375000
v -2.677673 2.968905 -12.625000
v -2.677673 2.375000 -12.625000
v -2.375000 2.375000 -12.375000
v -2.625000 2.375000 -12.375000
v -2.625000 2.375000 -12.625000
v -2.375000 2.375000 -12.625000
v 2.625000 -2.500000 -12.375000
v 2.375000 -2.500000 -12.375000
v 2.375000 -2.500000 -12.625000
v 2.625000 -2.500000 -12.625000
v 2.625000 2.375000 -12.375000
v 2.375000 2.375000 -12.375000
v 2.375000 2.375000 -12.625000
v 2.625000 2.375000 -12.625000
v -12.375000 12.375000 -2.677675
v -12.375000 12.968904 -2.677675
v -12.625000 12.968904 -2.677675
v -12.625000 12.375000 -2.677675
v -12.375000 7.500000 2.375000
v -12.375000 7.500000 2.625000
v -12.624999 7.500000 2.625000
v -12.624999 7.500000 2.375000
v -12.375000 12.375000 2.677674
v -12.375000 12.968904 2.677674
v -12.625000 12.968904 2.677674
v -12.625000 12.375000 2.677674
v -12.375000 12.375000 2.375000
v -12.375000 12.375000 2.625000
v -12.625000 12.375000 2.625000
v -12.625000 12.375000 2.375000
v -12.375000 7.500000 -2.625000
v -12.375000 7.500000 -2.375000
v -12.625000 7.500000 -2.375000
v -12.625000 7.500000 -2.625000
v -12.375000 12.375000 -2.625000
v -12.375000 12.375000 -2.375000
v -12.625000 12.375000 -2.375000
v -12.625000 12.375000 -2.625000
v 2.677673 22.375000 -12.375000
v 2.677673 22.968904 -12.375000
v 2.677673 22.968904 -12.625000
v 2.677673 22.375000 -12.625000
v -2.375000 17.500000 -12.375000
v -2.625000 17.500000 -12.375000
v -2.625000 17.500000 -12.625000
v -2.375000 17.500000 -12.625000
v -2.677673 22.375000 -12.375000
v -2.677673 22.968904 -12.375000
v -2.677673 22.968904 -12.625000
v -2.677673 22.375000 -12.625000
v -2.375000 22.375000 -12.375000
v -2.625000 22.375000 -12.375000
v -2.625000 22.375000 -12.625000
v -2.375000 22.375000 -12.625000
v 2.625000 17.500000 -12.375000
v 2.375000 17.500000 -12.375000
v 2.375000 17.500000 -12.625000
v 2.625000 17.500000 -12.625000
v 2.625000 22.375000 -12.375000
v 2.375000 22.375000 -12.375000
v 2.375000 22.375000 -12.625000
v 2.625000 22.375000 -12.625000
v -2.499998 -2.500000 7.500000
v 2.500000 -2.500000 7.499998
v -2.500000 -2.500000 2.500001
v 2.500000 -2.500000 2.500000
v -2.499998 -2.500000 12.500000
v 2.500000 -2.500000 12.500000
v -2.500000 -2.500000 7.500002
v 2.500000 -2.500000 7.500000
v -12.499999 -2.500000 12.500000
v -7.500000 -2.500000 12.500000
v -12.499999 2.499999 12.500000
v -7.500000 2.499999 12.500000
v -12.499999 2.500000 12.500000
v -7.500000 2.500000 12.500000
v -12.499999 7.500000 12.500000
v -7.500000 7.500000 12.500000
v 7.500000 -2.500000 12.500000
v 12.500000 -2.500000 12.500000
v 7.500000 2.499999 12.500000
v 12.500000 2.499999 12.500000
v 7.500000 2.500000 12.500000
v 12.500000 2.500000 12.500000
v 7.500000 7.500000 12.500000
v 12.500000 7.500000 12.500000
v -2.499998 7.500000 12.500000
v 2.500000 7.500000 12.500000
v -2.499998 12.500000 12.500000
v 2.500000 12.500000 12.500000
v -2.499998 12.500000 12.500000
v 2.500000 12.500000 12.500000
v -2.499998 17.500000 12.500000
v 2.500000 17.500000 12.500000
v -7.499999 7.500000 12.500000
v -2.500000 7.500000 12.500000
v -7.499999 12.500000 12.500000
v -2.500000 12.500000 12.500000
v -7.499999 12.500000 12.500000
v -2.500000 12.500000 12.500000
v -7.499999 17.500000 12.500000
v -2.500000 17.500000 12.500000
v -12.499999 12.500000 12.500000
v -7.500000 12.500000 12.500000
v -12.499999 17.500000 12.500000
v -7.500000 17.500000 12.500000
v 2.500000 7.500000 12.500000
v 7.500000 7.500000 12.500000
v 2.500000 12.500000 12.500000
v 7.500000 12.500000 12.500000
v 2.500000 12.500000 12.500000
v 7.500000 12.500000 12.500000
v 2.500000 17.500000 12.500000
v 7.500000 17.500000 12.500000
v 7.500000 7.500000 12.500000
v 12.500000 7.500000 12.500000
v 7.500000 12.500000 12.500000
v 12.500000 12.500000 12.500000
v 7.500000 12.500000 12.500000
v 12.500000 12.500000 12.500000
v 7.500000 17.500000 12.500000
v 12.500000 17.500000 12.500000
v -2.499998 17.500000 12.500000
v 2.500000 17.500000 12.500000
v -2.499998 22.500000 12.500000
v 2.500000 22.500000 12.500000
v -2.499998 22.500000 12.500000
v 2.500000 22.500000 12.500000
v -2.499998 27.500000 12.500000
v 2.500000 27.500000 12.500000
v -7.499999 17.500000 12.500000
v -2.500000 17.500000 12.500000
v -7.499999 22.500000 12.500000
v -2.500000 22.500000 12.500000
v -7.499999 22.500000 12.500000
v -2.500000 22.500000 12.500000
v -7.499999 27.500000 12.500000
v -2.500000 27.500000 12.500000
v -12.499999 22.500000 12.500000
v -7.500000 22.500000 12.500000
v -12.499999 27.500000 12.500000
v -7.500000 27.500000 12.500000
v 2.500000 17.500000 12.500000
v 7.500000 17.500000 12.500000
v 2.500000 22.500000 12.500000
v 7.500000 22.500000 12.500000
v 2.500000 22.500000 12.500000
v 7.500000 22.500000 12.500000
v 2.500000 27.500000 12.500000
v 7.500000 27.500000 12.500000
v 7.500000 17.500000 12.500000
v 12.500000 17.500000 12.500000
v 7.500000 22.500000 12.500000
v 12.500000 22.500000 12.500000
v 7.500000 22.500000 12.500000
v 12.500000 22.500000 12.500000
v 7.500000 27.500000 12.500000
v 12.500000 27.500000 12.500000
v -12.499999 7.500000 12.500000
v -7.500000 7.500000 12.500000
v -12.499999 12.500000 12.500000
v -7.500000 12.500000 12.500000
v -12.499999 17.500000 12.500000
v -7.500000 17.500000 12.500000
v -12.499999 22.500000 12.500000
v -7.500000 22.500000 12.500000
v 2.500000 -2.500000 12.500000
v 7.500000 -2.500000 12.500000
v 2.500000 2.499999 12.500000
v 7.500000 2.499999 12.500000
v 2.500000 2.500000 12.500000
v 7.500000 2.500000 12.500000
v 2.500000 7.500000 12.500000
v 7.500000 7.500000 12.500000
v -7.500000 -2.500000 12.500000
v -2.500000 -2.500000 12.500000
v -7.500000 2.499999 12.500000
v -2.500000 2.499999 12.500000
v -7.500000 2.500000 12.500000
v -2.500000 2.500000 12.500000
v -7.500000 7.500000 12.500000
v -2.500000 7.500000 12.500000
v -2.500000 2.500000 12.500000
v 2.500000 2.500000 12.500000
v -2.500000 7.500000 12.500000
v 2.500000 7.500000 12.500000
v 12.500000 27.500000 7.500000
v 12.500000 27.500000 12.500000
v 7.500000 27.500000 7.500002
v 7.500000 27.500000 12.500000
v 7.500000 27.500000 7.500000
v 7.500000 27.500000 12.500000
v 2.500000 27.500000 7.500002
v 2.500000 27.500000 12.500000
v 2.500000 27.500000 7.500000
v 2.500000 27.500000 12.500000
v -2.500000 27.500000 7.500002
v -2.499998 27.500000 12.500000
v -2.500002 27.500000 7.500000
v -2.500000 27.500000 12.500000
v -7.500000 27.500000 7.500002
v -7.499999 27.500000 12.500000
v -7.500001 27.500000 7.500000
v -7.500000 27.500000 12.500000
v -12.500000 27.500000 7.500002
v -12.499999 27.500000 12.500000
v 12.500000 27.500000 2.500000
v 12.500000 27.500000 7.499998
v 7.500000 27.500000 2.500001
v 7.500000 27.500000 7.500000
v 7.500000 27.500000 2.500000
v 7.500000 27.500000 7.499998
v 2.500000 27.500000 2.500001
v 2.500000 27.500000 7.500000
v 2.500000 27.500000 2.500000
v 2.500000 27.500000 7.499998
v -2.500000 27.500000 2.500001
v -2.499998 27.500000 7.500000
v -2.500002 27.500000 2.500000
v -2.500000 27.500000 7.499998
v -7.500000 27.500000 2.500001
v -7.499999 27.500000 7.500000
v -7.500001 27.500000 2.500000
v -7.500000 27.500000 7.499998
v -12.500000 27.500000 2.500001
v -12.499999 27.500000 7.500000
v 12.500000 27.500000 -2.500000
v 12.500000 27.500000 2.499999
v 7.500000 27.500000 -2.500000
v 7.500000 27.500000 2.500000
v 7.500000 27.500000 -2.500000
v 7.500000 27.500000 2.499999
v 2.500000 27.500000 -2.500000
v 2.500000 27.500000 2.500000
v 2.500000 27.500000 -2.500000
v 2.500000 27.500000 2.499999
v -2.500000 27.500000 -2.500000
v -2.499998 27.500000 2.500000
v -2.500002 27.500000 -2.500000
v -2.500000 27.500000 2.499999
v -7.500000 27.500000 -2.500000
v -7.499999 27.500000 2.500000
v -7.500001 27.500000 -2.500000
v -7.500000 27.500000 2.499999
v -12.500000 27.500000 -2.500000
v -12.499999 27.500000 2.500000
v 12.500000 27.500000 -7.500000
v 12.500000 27.500000 -2.500000
v 7.500000 27.500000 -7.500000
v 7.500000 27.500000 -2.500000
v 7.500000 27.500000 -7.500000
v 7.500000 27.500000 -2.500000
v 2.500000 27.500000 -7.500000
v 2.500000 27.500000 -2.500000
v 2.500000 27.500000 -7.500000
v 2.500000 27.500000 -2.500000
v -2.500000 27.500000 -7.500000
v -2.499998 27.500000 -2.500000
v -2.500002 27.500000 -7.500000
v -2.500000 27.500000 -2.500000
v -7.500000 27.500000 -7.500000
v -7.499999 27.500000 -2.500000
v -7.500001 27.500000 -7.500000
v -7.500000 27.500000 -2.500000
v -12.500000 27.500000 -7.500000
v -12.499999 27.500000 -2.500000
v 12.500000 27.500000 -12.500000
v 12.500000 27.500000 -7.500001
v 7.500000 27.500000 -12.499999
v 7.500000 27.500000 -7.500000
v 7.500000 27.500000 -12.500000
v 7.500000 27.500000 -7.500001
v 2.500000 27.500000 -12.499999
v 2.500000 27.500000 -7.500000
v 2.500000 27.500000 -12.500000
v 2.500000 27.500000 -7.500001
v -2.500000 27.500000 -12.499999
v -2.499998 27.500000 -7.500000
v -2.500002 27.500000 -12.500000
v -2.500000 27.500000 -7.500001
v -7.500000 27.500000 -12.499999
v -7.499999 27.500000 -7.500000
v -7.500001 27.500000 -12.500000
v -7.500000 27.500000 -7.500001
v -12.500000 27.500000 -12.499999
v -12.499999 27.500000 -7.500000
v -7.500000 -2.500000 2.500001
v -7.500000 2.499999 2.500001
v -7.500000 -2.500000 7.500000
v -7.500000 2.499999 7.500000
v -7.499998 -2.500000 7.500000
v -7.499998 2.499999 7.500000
v -2.499998 -2.500000 7.499998
v -2.499998 2.499999 7.499998
v -2.499998 -2.500000 2.500001
v -2.499998 2.499999 2.500001
v -7.499998 -2.500000 2.500000
v -7.499998 2.499999 2.500000
v -2.499998 -2.500000 7.500000
v -2.499998 2.499999 7.500000
v -2.499998 -2.500000 2.500001
v -2.499998 2.499999 2.500001
v -7.500000 7.499999 2.500001
v -12.499995 -2.500000 2.500000
v -12.499995 2.499999 2.500000
v -12.499995 7.499999 2.500000
v 2.500000 -2.500000 2.500001
v 2.500000 2.499999 2.500001
v 2.500000 -2.500000 7.500000
v 2.500000 2.499999 7.500000
v 2.500004 -2.500000 7.500000
v 2.500004 2.499999 7.500000
v 7.500002 -2.500000 7.499998
v 7.500002 2.499999 7.499998
v 7.500002 -2.500000 2.500001
v 7.500002 2.499999 2.500001
v 2.500004 -2.500000 2.500000
v 2.500004 2.499999 2.500000
v 7.500000 -2.500000 7.500000
v 7.500000 2.499999 7.500000
v 7.500002 -2.500000 2.500001
v 7.500002 2.499999 2.500001
v 2.500000 -2.500000 -7.500000
v 2.500000 2.499999 -7.500000
v 2.500000 -2.500000 -2.500000
v 2.500000 2.499999 -2.500000
v 2.500004 -2.500000 -2.500000
v 2.500004 2.499999 -2.500000
v 7.500002 -2.500000 -2.500000
v 7.500002 2.499999 -2.500000
v 7.500002 -2.500000 -7.499999
v 7.500002 2.499999 -7.499999
v 2.500004 -2.500000 -7.500000
v 2.500004 2.499999 -7.500000
v 7.500000 -2.500000 -2.500000
v 7.500000 2.499999 -2.500000
v 7.500002 -2.500000 -7.499999
v 7.500002 2.499999 -7.499999
v -7.500000 -2.500000 -7.500000
v -7.500000 2.499999 -7.500000
v -7.500000 -2.500000 -2.500000
v -7.500000 2.499999 -2.500000
v -7.499998 -2.500000 -2.500000
v -7.499998 2.499999 -2.500000
v -2.499998 -2.500000 -2.500000
v -2.499998 2.499999 -2.500000
v -2.499998 -2.500000 -7.499999
v -2.499998 2.499999 -7.499999
v -7.499998 -2.500000 -7.500000
v -7.499998 2.499999 -7.500000
v -2.499998 -2.500000 -2.500000
v -2.499998 2.499999 -2.500000
v -2.499998 -2.500000 -7.499999
v -2.499998 2.499999 -7.499999
v 7.500000 27.500004 2.500001
v 7.500000 22.500004 2.500000
v 7.500000 27.500002 7.500000
v 7.500000 22.500002 7.499998
v 7.499996 27.500002 7.500000
v 7.499998 22.500002 7.499998
v 2.499998 27.500000 7.500000
v 2.500000 22.500002 7.499998
v 2.499996 27.500002 2.500001
v 2.499998 22.500002 2.500000
v 7.499996 27.500004 2.500000
v 7.499998 22.500004 2.499999
v 2.500000 27.500000 7.500002
v 2.500000 22.500002 7.500000
v 2.499996 27.500002 2.500002
v 2.499998 22.500002 2.500000
v -2.500002 27.500002 2.500001
v -2.499998 22.500002 2.500000
v -2.500002 27.500000 7.500000
v -2.500000 22.500000 7.499998
v -2.500004 27.500000 7.500000
v -2.500002 22.500000 7.499998
v -7.500002 27.499998 7.500000
v -7.500000 22.499998 7.499998
v -7.500002 27.500000 2.500001
v -7.500002 22.500000 2.500000
v -2.500004 27.500002 2.500000
v -2.500002 22.500002 2.499999
v -7.500002 27.499998 7.500002
v -7.500000 22.499998 7.500000
v -7.500005 27.500000 2.500002
v -7.500002 22.500000 2.500000
v -2.500002 27.500004 -7.500000
v -2.499998 22.500004 -7.500000
v -2.500002 27.500002 -2.500000
v -2.500000 22.500002 -2.500002
v -2.500004 27.500002 -2.500000
v -2.500002 22.500002 -2.500001
v -7.500002 27.500000 -2.500000
v -7.500000 22.500002 -2.500002
v -7.500002 27.500002 -7.499999
v -7.500002 22.500002 -7.500000
v -2.500004 27.500004 -7.500000
v -2.500002 22.500004 -7.500002
v -7.500002 27.500000 -2.500000
v -7.500000 22.500002 -2.500000
v -7.500005 27.500002 -7.499999
v -7.500002 22.500002 -7.500000
v 7.500000 27.500008 -7.500000
v 7.500000 22.500008 -7.500000
v 7.500000 27.500004 -2.500000
v 7.500000 22.500004 -2.500002
v 7.499996 27.500004 -2.500000
v 7.499998 22.500004 -2.500001
v 2.499998 27.500002 -2.500000
v 2.500000 22.500004 -2.500002
v 2.499996 27.500004 -7.499999
v 2.499998 22.500004 -7.500000
v 7.499996 27.500008 -7.500000
v 7.499998 22.500008 -7.500002
v 2.500000 27.500002 -2.500000
v 2.500000 22.500004 -2.500000
v 2.499996 27.500004 -7.499999
v 2.499998 22.500004 -7.500000
v 7.499998 2.499999 2.499999
v 7.499998 7.499999 2.499999
v 2.500000 2.499999 2.500001
v 2.500000 7.499999 2.500001
v 7.500002 2.499999 7.499998
v 7.500002 7.499998 7.499998
v 7.500000 2.499999 2.500000
v 7.500000 7.499998 2.500000
v 2.500000 2.499999 2.500002
v 2.500000 7.499998 2.500002
v 2.500004 2.499999 7.500002
v 2.500004 7.499998 7.500002
v 2.500004 2.499999 7.500002
v 2.500004 7.499998 7.500002
v 7.500004 2.499999 7.499998
v 7.500004 7.499998 7.499998
v -2.500002 2.499999 2.499999
v -2.500002 7.499999 2.499999
v -7.500000 2.499999 2.500001
v -7.500000 7.499999 2.500001
v -2.499998 2.499999 7.499998
v -2.499998 7.499998 7.499998
v -2.499998 2.499999 2.500000
v -2.499998 7.499998 2.500000
v -7.499998 2.499999 2.500002
v -7.499998 7.499998 2.500002
v -7.499995 2.499999 7.500002
v -7.499995 7.499998 7.500002
v -7.499995 2.499999 7.500002
v -7.499995 7.499998 7.500002
v -2.499996 2.499999 7.499998
v -2.499996 7.499998 7.499998
v -2.500002 7.499999 2.499999
v -2.500002 12.499999 2.499999
v -7.500000 7.499999 2.500001
v -7.500000 12.499999 2.500001
v -2.499998 7.499999 7.499998
v -2.499998 12.499999 7.499998
v -2.499998 7.499999 2.500000
v -2.499998 12.499999 2.500000
v -7.499998 7.499999 2.500002
v -7.499998 12.499999 2.500002
v -7.499995 7.499999 7.500002
v -7.499995 12.499999 7.500002
v -7.499995 7.499999 7.500002
v -7.499995 12.499999 7.500002
v -2.499996 7.499999 7.499998
v -2.499996 12.499999 7.499998
v 7.499998 7.499999 2.499999
v 7.499998 12.499999 2.499999
v 2.500000 7.499999 2.500001
v 2.500000 12.499999 2.500001
v 7.500002 7.499999 7.499998
v 7.500002 12.499999 7.499998
v 7.500000 7.499999 2.500000
v 7.500000 12.499999 2.500000
v 2.500000 7.499999 2.500002
v 2.500000 12.499999 2.500002
v 2.500004 7.499999 7.500002
v 2.500004 12.499999 7.500002
v 2.500004 7.499999 7.500002
v 2.500004 12.499999 7.500002
v 7.500004 7.499999 7.499998
v 7.500004 12.499999 7.499998
v 7.499998 2.499999 -7.500001
v 7.499998 7.499999 -7.500001
v 2.500000 2.499999 -7.499999
v 2.500000 7.499999 -7.499999
v 7.500002 2.499999 -2.500001
v 7.500002 7.499998 -2.500001
v 7.500000 2.499999 -7.500000
v 7.500000 7.499998 -7.500000
v 2.500000 2.499999 -7.499998
v 2.500000 7.499998 -7.499998
v 2.500004 2.499999 -2.499999
v 2.500004 7.499998 -2.499999
v 2.500004 2.499999 -2.499999
v 2.500004 7.499998 -2.499999
v 7.500004 2.499999 -2.500002
v 7.500004 7.499998 -2.500002
v -2.500002 2.499999 -7.500001
v -2.500002 7.499999 -7.500001
v -7.500000 2.499999 -7.499999
v -7.500000 7.499999 -7.499999
v -2.499998 2.499999 -2.500001
v -2.499998 7.499998 -2.500001
v -2.499998 2.499999 -7.500000
v -2.499998 7.499998 -7.500000
v -7.499998 2.499999 -7.499998
v -7.499998 7.499998 -7.499998
v -7.499995 2.499999 -2.499999
v -7.499995 7.499998 -2.499999
v -7.499995 2.499999 -2.499999
v -7.499995 7.499998 -2.499999
v -2.499996 2.499999 -2.500002
v -2.499996 7.499998 -2.500002
v -2.500002 7.499999 -7.500001
v -2.500002 12.499999 -7.500001
v -7.500000 7.499999 -7.499999
v -7.500000 12.499999 -7.499999
v -2.499998 7.499999 -2.500001
v -2.499998 12.499999 -2.500001
v -2.499998 7.499999 -7.500000
v -2.499998 12.499999 -7.500000
v -7.499998 7.499999 -7.499998
v -7.499998 12.499999 -7.499998
v -7.499995 7.499999 -2.499999
v -7.499995 12.499999 -2.499999
v -7.499995 7.499999 -2.499999
v -7.499995 12.499999 -2.499999
v -2.499996 7.499999 -2.500002
v -2.499996 12.499999 -2.500002
v 7.499998 7.499999 -7.500001
v 7.499998 12.499999 -7.500001
v 2.500000 7.499999 -7.499999
v 2.500000 12.499999 -7.499999
v 7.500002 7.499999 -2.500001
v 7.500002 12.499999 -2.500001
v 7.500000 7.499999 -7.500000
v 7.500000 12.499999 -7.500000
v 2.500000 7.499999 -7.499998
v 2.500000 12.499999 -7.499998
v 2.500004 7.499999 -2.499999
v 2.500004 12.499999 -2.499999
v 2.500004 7.499999 -2.499999
v 2.500004 12.499999 -2.499999
v 7.500004 7.499999 -2.500002
v 7.500004 12.499999 -2.500002
v 7.499998 12.500000 2.499999
v 7.499998 17.500000 2.499999
v 2.500000 12.500000 2.500001
v 2.500000 17.500000 2.500001
v 7.500002 12.500000 7.499998
v 7.500002 17.500000 7.499998
v 7.500000 12.500000 2.500000
v 7.500000 17.500000 2.500000
v 2.500000 12.500000 2.500002
v 2.500000 17.500000 2.500002
v 2.500004 12.500000 7.500002
v 2.500004 17.500000 7.500002
v 2.500004 12.500000 7.500002
v 2.500004 17.500000 7.500002
v 7.500004 12.500000 7.499998
v 7.500004 17.500000 7.499998
v -2.500002 12.500000 2.499999
v -2.500002 17.500000 2.499999
v -7.500000 12.500000 2.500001
v -7.500000 17.500000 2.500001
v -2.499998 12.500000 7.499998
v -2.499998 17.500000 7.499998
v -2.499998 12.500000 2.500000
v -2.499998 17.500000 2.500000
v -7.499998 12.500000 2.500002
v -7.499998 17.500000 2.500002
v -7.499995 12.500000 7.500002
v -7.499995 17.500000 7.500002
v -7.499995 12.500000 7.500002
v -7.499995 17.500000 7.500002
v -2.499996 12.500000 7.499998
v -2.499996 17.500000 7.499998
v -2.500002 17.500000 2.499999
v -2.500002 22.500000 2.499999
v -7.500000 17.500000 2.500001
v -7.500000 22.500000 2.500001
v -2.499998 17.500000 7.499998
v -2.499998 22.499998 7.499998
v -2.499998 17.500000 2.500000
v -2.499998 22.499998 2.500000
v -7.499998 17.500000 2.500002
v -7.499998 22.499998 2.500002
v -7.499995 17.500000 7.500002
v -7.499995 22.499998 7.500002
v -7.499995 17.500000 7.500002
v -7.499995 22.499998 7.500002
v -2.499996 17.500000 7.499998
v -2.499996 22.499998 7.499998
v 7.499998 17.500000 2.499999
v 7.499998 22.500000 2.499999
v 2.500000 17.500000 2.500001
v 2.500000 22.500000 2.500001
v 7.500002 17.500000 7.499998
v 7.500002 22.499998 7.499998
v 7.500000 17.500000 2.500000
v 7.500000 22.499998 2.500000
v 2.500000 17.500000 2.500002
v 2.500000 22.499998 2.500002
v 2.500004 17.500000 7.500002
v 2.500004 22.499998 7.500002
v 2.500004 17.500000 7.500002
v 2.500004 22.499998 7.500002
v 7.500004 17.500000 7.499998
v 7.500004 22.499998 7.499998
v 7.499998 12.500000 -7.500001
v 7.499998 17.500000 -7.500001
v 2.500000 12.500000 -7.499999
v 2.500000 17.500000 -7.499999
v 7.500002 12.500000 -2.500001
v 7.500002 17.500000 -2.500001
v 7.500000 12.500000 -7.500000
v 7.500000 17.500000 -7.500000
v 2.500000 12.500000 -7.499998
v 2.500000 17.500000 -7.499998
v 2.500004 12.500000 -2.499999
v 2.500004 17.500000 -2.499999
v 2.500004 12.500000 -2.499999
v 2.500004 17.500000 -2.499999
v 7.500004 12.500000 -2.500002
v 7.500004 17.500000 -2.500002
v -2.500002 12.500000 -7.500001
v -2.500002 17.500000 -7.500001
v -7.500000 12.500000 -7.499999
v -7.500000 17.500000 -7.499999
v -2.499998 12.500000 -2.500001
v -2.499998 17.500000 -2.500001
v -2.499998 12.500000 -7.500000
v -2.499998 17.500000 -7.500000
v -7.499998 12.500000 -7.499998
v -7.499998 17.500000 -7.499998
v -7.499995 12.500000 -2.499999
v -7.499995 17.500000 -2.499999
v -7.499995 12.500000 -2.499999
v -7.499995 17.500000 -2.499999
v -2.499996 12.500000 -2.500002
v -2.499996 17.500000 -2.500002
v -2.500002 17.500000 -7.500001
v -2.500002 22.500000 -7.500001
v -7.500000 17.500000 -7.499999
v -7.500000 22.500000 -7.499999
v -2.499998 17.500000 -2.500001
v -2.499998 22.499998 -2.500001
v -2.499998 17.500000 -7.500000
v -2.499998 22.499998 -7.500000
v -7.499998 17.500000 -7.499998
v -7.499998 22.499998 -7.499998
v -7.499995 17.500000 -2.499999
v -7.499995 22.499998 -2.499999
v -7.499995 17.500000 -2.499999
v -7.499995 22.499998 -2.499999
v -2.499996 17.500000 -2.500002
v -2.499996 22.499998 -2.500002
v 7.499998 17.500000 -7.500001
v 7.499998 22.500000 -7.500001
v 2.500000 17.500000 -7.499999
v 2.500000 22.500000 -7.499999
v 7.500002 17.500000 -2.500001
v 7.500002 22.499998 -2.500001
v 7.500000 17.500000 -7.500000
v 7.500000 22.499998 -7.500000
v 2.500000 17.500000 -7.499998
v 2.500000 22.499998 -7.499998
v 2.500004 17.500000 -2.499999
v 2.500004 22.499998 -2.499999
v 2.500004 17.500000 -2.499999
v 2.500004 22.499998 -2.499999
v 7.500004 17.500000 -2.500002
v 7.500004 22.499998 -2.500002
v -12.500000 2.500000 12.500000
v -7.500000 2.500000 12.500000
v -12.500000 2.500000 7.500000
v -7.500000 2.500000 7.500000
v -12.500000 7.500000 2.500000
v -7.500000 7.500000 2.500000
v -12.500000 7.500000 -2.500000
v -7.500000 7.500000 -2.500000
v -12.500000 12.500000 -7.500000
v -7.500000 12.500000 -7.500000
v -12.500000 12.500000 -12.500000
v -7.500000 12.500000 -12.500000
v -2.499998 17.500000 -7.500000
v 2.500000 17.500000 -7.500000
v -2.500000 17.500000 -12.500000
v 2.500000 17.500000 -12.500000
v -7.500000 4.999999 -2.500010
v -7.500000 4.999999 2.499987
v -7.500000 7.499999 2.499987
v -7.500000 7.499999 -2.500010
v 2.500000 15.000000 -7.500009
v -2.499996 15.000000 -7.500010
v -2.499996 17.500000 -7.500010
v 2.500000 17.500000 -7.500009
v -7.493885 2.499999 7.507057
v -7.493882 2.499999 12.507057
v -7.493885 2.511278 7.507057
v -2.506115 -2.500000 7.507055
v -2.506111 -2.500000 12.507055
v -7.500000 7.500000 2.512225
v -12.500002 7.499999 2.512230
v -7.500000 7.511278 2.512225
v -7.499998 2.500000 7.499996
v -12.499995 2.500000 7.500002
v -7.500000 12.500000 -7.487774
v -12.500002 12.500000 -7.487770
v -7.500000 12.511278 -7.487774
v -7.499998 7.500000 -2.500004
v -12.499995 7.500000 -2.500000
v -2.505171 17.500000 -7.493891
v -2.505177 17.500000 -12.493891
v -2.505171 17.511280 -7.493891
v -7.492941 12.500000 -7.493886
v -7.492948 12.500000 -12.493883
v -12.500000 4.999998 -2.500000
v -7.500000 4.999998 -2.500000
v -12.500000 4.999998 2.500000
v -7.500000 4.999998 2.500000
v -12.500000 9.999999 -12.500000
v -7.500000 9.999999 -12.500000
v -12.500000 9.999998 -7.500000
v -7.500000 9.999998 -7.500000
v -2.499998 14.999999 -12.500000
v 2.500000 14.999999 -12.500000
v -2.500000 14.999998 -7.500000
v 2.500000 14.999998 -7.500000
v 2.500002 15.000000 -12.500008
v 2.500000 15.000000 -7.500012
v 2.500000 17.500000 -7.500012
v 2.500002 17.500000 -12.500008
vn -0.0000 1.0000 -0.0000
vn 1.0000 -0.0000 -0.0000
vn -0.0000 -0.0000 1.0000
vn -1.0000 -0.0000 -0.0000
vn -0.0000 -0.0000 -1.0000
vn -0.0000 -1.0000 -0.0000
vn 0.7080 0.7062 -0.0000
vn 0.7088 0.7054 -0.0000
vn -0.0000 0.7062 0.7080
vn -0.0000 0.7054 0.7088
vn -0.7080 0.7062 -0.0000
vn -0.7088 0.7054 -0.0000
vn -0.0000 -0.7071 -0.7071
vn 0.7071 -0.7071 -0.0000
vt 0.294960 0.852752
vt 0.294961 0.997862
vt 0.440326 0.997857
vt 0.440207 0.852744
vt 0.292969 0.511719
vt 0.000000 0.511719
vt 0.000000 0.804688
vt 0.292969 0.804688
vt 0.292969 0.707031
vt 0.000000 0.707031
vt 0.000000 1.000000
vt 0.292969 1.000000
vt 0.121468 0.585684
vt 0.072840 0.585684
vt 0.072840 0.609782
vt 0.121468 0.609782
vt 0.268390 0.542422
vt 0.024736 0.542422
vt 0.024736 0.556766
vt 0.268390 0.556766
vt 0.023913 0.536758
vt 0.023913 0.561051
vt 0.267994 0.561051
vt 0.267994 0.536758
vt 0.440486 0.997974
vt 0.294997 0.997974
vt 0.294997 0.852539
vt 0.440486 0.852539
vt 0.000000 0.658203
vt 0.292969 0.658203
vt 0.000000 0.000000
s 0
usemtl Material
f 2/1/1 4/2/1 3/3/1 1/4/1
f 6/5/2 5/6/2 7/7/2 8/8/2
f 10/9/2 9/10/2 11/11/2 12/12/2
f 14/5/2 13/6/2 15/7/2 16/8/2
f 18/9/2 17/10/2 19/11/2 20/12/2
f 22/5/2 21/6/2 23/7/2 24/8/2
f 26/9/2 25/10/2 27/11/2 28/12/2
f 30/5/2 29/6/2 31/7/2 32/8/2
f 34/9/2 33/10/2 35/11/2 36/12/2
f 38/5/2 37/6/2 39/7/2 40/8/2
f 42/9/2 41/10/2 43/11/2 44/12/2
f 46/9/3 45/10/3 47/11/3 48/12/3
f 50/5/3 49/6/3 51/7/3 52/8/3
f 54/9/3 53/10/3 55/11/3 56/12/3
f 58/5/3 57/6/3 59/7/3 60/8/3
f 62/9/3 61/10/3 63/11/3 64/12/3
f 66/5/3 65/6/3 67/7/3 68/8/3
f 70/9/3 69/10/3 71/11/3 72/12/3
f 74/5/3 73/6/3 75/7/3 76/8/3
f 78/9/3 77/10/3 79/11/3 80/12/3
f 82/1/1 84/2/1 83/3/1 81/4/1
f 86/1/1 88/2/1 87/3/1 85/4/1
f 90/1/1 92/2/1 91/3/1 89/4/1
f 94/1/1 96/2/1 95/3/1 93/4/1
f 98/1/1 100/2/1 99/3/1 97/4/1
f 102/1/1 104/2/1 103/3/1 101/4/1
f 106/1/1 108/2/1 107/3/1 105/4/1
f 110/1/1 112/2/1 111/3/1 109/4/1
f 114/1/1 116/2/1 115/3/1 113/4/1
f 118/1/1 120/2/1 119/3/1 117/4/1
f 122/1/1 124/2/1 123/3/1 121/4/1
f 126/1/1 128/2/1 127/3/1 125/4/1
f 130/1/1 132/2/1 131/3/1 129/4/1
f 134/1/1 136/2/1 135/3/1 133/4/1
f 138/1/1 140/2/1 139/3/1 137/4/1
f 142/1/1 144/2/1 143/3/1 141/4/1
f 146/1/1 148/2/1 147/3/1 145/4/1
f 150/1/1 152/2/1 151/3/1 149/4/1
f 154/1/1 156/2/1 155/3/1 153/4/1
f 158/1/1 160/2/1 159/3/1 157/4/1
f 162/1/1 164/2/1 163/3/1 161/4/1
f 166/1/1 168/2/1 167/3/1 165/4/1
f 170/5/4 169/6/4 171/7/4 172/8/4
f 174/9/4 173/10/4 175/11/4 176/12/4
f 178/5/4 177/6/4 179/7/4 180/8/4
f 182/9/4 181/10/4 183/11/4 184/12/4
f 186/5/4 185/6/4 187/7/4 188/8/4
f 190/9/4 189/10/4 191/11/4 192/12/4
f 194/5/4 193/6/4 195/7/4 196/8/4
f 198/9/4 197/10/4 199/11/4 200/12/4
f 202/5/4 201/6/4 203/7/4 204/8/4
f 206/9/4 205/10/4 207/11/4 208/12/4
f 210/9/2 209/10/2 211/11/2 212/12/2
f 214/5/2 213/6/2 215/7/2 216/8/2
f 218/9/2 217/10/2 219/11/2 220/12/2
f 222/5/2 221/6/2 223/7/2 224/8/2
f 226/9/2 225/10/2 227/11/2 228/12/2
f 230/5/2 229/6/2 231/7/2 232/8/2
f 234/9/2 233/10/2 235/11/2 236/12/2
f 238/5/2 237/6/2 239/7/2 240/8/2
f 242/9/2 241/10/2 243/11/2 244/12/2
f 246/5/3 245/6/3 247/7/3 248/8/3
f 250/9/3 249/10/3 251/11/3 252/12/3
f 254/5/3 253/6/3 255/7/3 256/8/3
f 258/9/3 257/10/3 259/11/3 260/12/3
f 262/5/3 261/6/3 263/7/3 264/8/3
f 266/9/3 265/10/3 267/11/3 268/12/3
f 270/5/3 269/6/3 271/7/3 272/8/3
f 274/9/3 273/10/3 275/11/3 276/12/3
f 278/5/3 277/6/3 279/7/3 280/8/3
f 282/9/3 281/10/3 283/11/3 284/12/3
f 286/5/4 285/6/4 287/7/4 288/8/4
f 290/9/4 289/10/4 291/11/4 292/12/4
f 294/5/4 293/6/4 295/7/4 296/8/4
f 298/9/4 297/10/4 299/11/4 300/12/4
f 302/5/4 301/6/4 303/7/4 304/8/4
f 306/9/4 305/10/4 307/11/4 308/12/4
f 310/5/4 309/6/4 311/7/4 312/8/4
f 314/9/4 313/10/4 315/11/4 316/12/4
f 318/5/4 317/6/4 319/7/4 320/8/4
f 322/9/4 321/10/4 323/11/4 324/12/4
f 326/5/2 325/6/2 327/7/2 328/8/2
f 330/9/2 329/10/2 331/11/2 332/12/2
f 334/5/2 333/6/2 335/7/2 336/8/2
f 338/9/2 337/10/2 339/11/2 340/12/2
f 342/5/2 341/6/2 343/7/2 344/8/2
f 346/9/2 345/10/2 347/11/2 348/12/2
f 350/5/2 349/6/2 351/7/2 352/8/2
f 354/9/2 353/10/2 355/11/2 356/12/2
f 358/5/2 357/6/2 359/7/2 360/8/2
f 362/9/2 361/10/2 363/11/2 364/12/2
f 366/9/3 365/10/3 367/11/3 368/12/3
f 370/5/3 369/6/3 371/7/3 372/8/3
f 374/9/3 373/10/3 375/11/3 376/12/3
f 378/5/3 377/6/3 379/7/3 380/8/3
f 382/9/3 381/10/3 383/11/3 384/12/3
f 386/5/3 385/6/3 387/7/3 388/8/3
f 390/9/3 389/10/3 391/11/3 392/12/3
f 394/5/3 393/6/3 395/7/3 396/8/3
f 398/9/3 397/10/3 399/11/3 400/12/3
f 402/5/4 401/6/4 403/7/4 404/8/4
f 406/9/4 405/10/4 407/11/4 408/12/4
f 410/5/4 409/6/4 411/7/4 412/8/4
f 414/9/4 413/10/4 415/11/4 416/12/4
f 418/5/4 417/6/4 419/7/4 420/8/4
f 422/9/4 421/10/4 423/11/4 424/12/4
f 426/5/4 425/6/4 427/7/4 428/8/4
f 430/9/4 429/10/4 431/11/4 432/12/4
f 434/5/4 433/6/4 435/7/4 436/8/4
f 438/9/4 437/10/4 439/11/4 440/12/4
f 538/1/1 540/2/1 539/3/1 537/4/1
f 542/1/1 544/2/1 543/3/1 541/4/1
f 546/5/5 545/6/5 547/7/5 548/8/5
f 550/9/5 549/10/5 551/11/5 552/12/5
f 554/5/5 553/6/5 555/7/5 556/8/5
f 558/9/5 557/10/5 559/11/5 560/12/5
f 562/5/5 561/6/5 563/7/5 564/8/5
f 566/9/5 565/10/5 567/11/5 568/12/5
f 570/5/5 569/6/5 571/7/5 572/8/5
f 574/9/5 573/10/5 575/11/5 576/12/5
f 578/9/5 577/10/5 579/11/5 580/12/5
f 582/5/5 581/6/5 583/7/5 584/8/5
f 586/9/5 585/10/5 587/11/5 588/12/5
f 590/5/5 589/6/5 591/7/5 592/8/5
f 594/9/5 593/10/5 595/11/5 596/12/5
f 598/5/5 597/6/5 599/7/5 600/8/5
f 602/9/5 601/10/5 603/11/5 604/12/5
f 606/5/5 605/6/5 607/7/5 608/8/5
f 610/9/5 609/10/5 611/11/5 612/12/5
f 614/9/5 613/10/5 615/11/5 616/12/5
f 618/5/5 617/6/5 619/7/5 620/8/5
f 622/9/5 621/10/5 623/11/5 624/12/5
f 626/5/5 625/6/5 627/7/5 628/8/5
f 630/9/5 629/10/5 631/11/5 632/12/5
f 634/5/5 633/6/5 635/7/5 636/8/5
f 638/5/5 637/6/5 639/7/5 640/8/5
f 642/5/5 641/6/5 643/7/5 644/8/5
f 646/9/5 645/10/5 647/11/5 648/12/5
f 650/5/5 649/6/5 651/7/5 652/8/5
f 654/9/5 653/10/5 655/11/5 656/12/5
f 658/9/5 657/10/5 659/11/5 660/12/5
f 662/25/6 664/26/6 663/27/6 661/28/6
f 666/25/6 668/26/6 667/27/6 665/28/6
f 670/25/6 672/26/6 671/27/6 669/28/6
f 674/25/6 676/26/6 675/27/6 673/28/6
f 678/25/6 680/26/6 679/27/6 677/28/6
f 682/25/6 684/26/6 683/27/6 681/28/6
f 686/25/6 688/26/6 687/27/6 685/28/6
f 690/25/6 692/26/6 691/27/6 689/28/6
f 694/25/6 696/26/6 695/27/6 693/28/6
f 698/25/6 700/26/6 699/27/6 697/28/6
f 702/25/6 704/26/6 703/27/6 701/28/6
f 706/25/6 708/26/6 707/27/6 705/28/6
f 710/25/6 712/26/6 711/27/6 709/28/6
f 714/25/6 716/26/6 715/27/6 713/28/6
f 718/25/6 720/26/6 719/27/6 717/28/6
f 722/25/6 724/26/6 723/27/6 721/28/6
f 726/25/6 728/26/6 727/27/6 725/28/6
f 730/25/6 732/26/6 731/27/6 729/28/6
f 734/25/6 736/26/6 735/27/6 733/28/6
f 738/25/6 740/26/6 739/27/6 737/28/6
f 742/25/6 744/26/6 743/27/6 741/28/6
f 746/25/6 748/26/6 747/27/6 745/28/6
f 750/25/6 752/26/6 751/27/6 749/28/6
f 754/25/6 756/26/6 755/27/6 753/28/6
f 758/25/6 760/26/6 759/27/6 757/28/6
f 763/5/4 764/8/4 762/7/4 761/6/4
f 767/5/3 768/8/3 766/7/3 765/6/3
f 771/5/5 772/8/5 770/7/5 769/6/5
f 775/5/2 776/8/2 774/7/2 773/6/2
f 778/5/5 779/8/5 762/7/5 761/6/5
f 779/5/5 780/8/5 777/7/5 762/6/5
f 783/5/4 784/8/4 782/7/4 781/6/4
f 787/5/3 788/8/3 786/7/3 785/6/3
f 791/5/5 792/8/5 790/7/5 789/6/5
f 795/5/2 796/8/2 794/7/2 793/6/2
f 799/5/4 800/8/4 798/7/4 797/6/4
f 803/5/3 804/8/3 802/7/3 801/6/3
f 807/5/5 808/8/5 806/7/5 805/6/5
f 811/5/2 812/8/2 810/7/2 809/6/2
f 815/5/4 816/8/4 814/7/4 813/6/4
f 819/5/3 820/8/3 818/7/3 817/6/3
f 823/5/5 824/8/5 822/7/5 821/6/5
f 827/5/2 828/8/2 826/7/2 825/6/2
f 831/5/2 832/8/2 830/7/2 829/6/2
f 835/5/3 836/8/3 834/7/3 833/6/3
f 839/5/5 840/8/5 838/7/5 837/6/5
f 843/5/4 844/8/4 842/7/4 841/6/4
f 847/5/2 848/8/2 846/7/2 845/6/2
f 851/5/3 852/8/3 850/7/3 849/6/3
f 855/5/5 856/8/5 854/7/5 853/6/5
f 859/5/4 860/8/4 858/7/4 857/6/4
f 863/5/2 864/8/2 862/7/2 861/6/2
f 867/5/3 868/8/3 866/7/3 865/6/3
f 871/5/5 872/8/5 870/7/5 869/6/5
f 875/5/4 876/8/4 874/7/4 873/6/4
f 879/5/2 880/8/2 878/7/2 877/6/2
f 883/5/3 884/8/3 882/7/3 881/6/3
f 887/5/5 888/8/5 886/7/5 885/6/5
f 891/5/4 892/8/4 890/7/4 889/6/4
f 895/9/5 896/12/5 894/11/5 893/10/5
f 899/9/2 900/12/2 898/11/2 897/10/2
f 903/9/4 904/12/4 902/11/4 901/10/4
f 907/9/3 908/12/3 906/11/3 905/10/3
f 911/9/5 912/12/5 910/11/5 909/10/5
f 915/9/2 916/12/2 914/11/2 913/10/2
f 919/9/4 920/12/4 918/11/4 917/10/4
f 923/9/3 924/12/3 922/11/3 921/10/3
f 927/9/5 928/12/5 926/11/5 925/10/5
f 931/9/2 932/12/2 930/11/2 929/10/2
f 935/9/4 936/12/4 934/11/4 933/10/4
f 939/9/3 940/12/3 938/11/3 937/10/3
f 943/9/5 944/12/5 942/11/5 941/10/5
f 947/9/2 948/12/2 946/11/2 945/10/2
f 951/9/4 952/12/4 950/11/4 949/10/4
f 955/9/3 956/12/3 954/11/3 953/10/3
f 959/9/5 960/12/5 958/11/5 957/10/5
f 963/9/2 964/12/2 962/11/2 961/10/2
f 967/9/4 968/12/4 966/11/4 965/10/4
f 971/9/3 972/12/3 970/11/3 969/10/3
f 975/9/5 976/12/5 974/11/5 973/10/5
f 979/9/2 980/12/2 978/11/2 977/10/2
f 983/9/4 984/12/4 982/11/4 981/10/4
f 987/9/3 988/12/3 986/11/3 985/10/3
f 991/9/5 992/12/5 990/11/5 989/10/5
f 995/9/2 996/12/2 994/11/2 993/10/2
f 999/9/4 1000/12/4 998/11/4 997/10/4
f 1003/9/3 1004/12/3 1002/11/3 1001/10/3
f 1007/9/5 1008/12/5 1006/11/5 1005/10/5
f 1011/9/2 1012/12/2 1010/11/2 1009/10/2
f 1015/9/4 1016/12/4 1014/11/4 1013/10/4
f 1019/9/3 1020/12/3 1018/11/3 1017/10/3
f 1023/9/5 1024/12/5 1022/11/5 1021/10/5
f 1027/9/2 1028/12/2 1026/11/2 1025/10/2
f 1031/9/4 1032/12/4 1030/11/4 1029/10/4
f 1035/9/3 1036/12/3 1034/11/3 1033/10/3
f 1039/9/5 1040/12/5 1038/11/5 1037/10/5
f 1043/9/2 1044/12/2 1042/11/2 1041/10/2
f 1047/9/4 1048/12/4 1046/11/4 1045/10/4
f 1051/9/3 1052/12/3 1050/11/3 1049/10/3
f 1055/9/5 1056/12/5 1054/11/5 1053/10/5
f 1059/9/2 1060/12/2 1058/11/2 1057/10/2
f 1063/9/4 1064/12/4 1062/11/4 1061/10/4
f 1067/9/3 1068/12/3 1066/11/3 1065/10/3
f 1071/9/5 1072/12/5 1070/11/5 1069/10/5
f 1075/9/2 1076/12/2 1074/11/2 1073/10/2
f 1079/9/4 1080/12/4 1078/11/4 1077/10/4
f 1083/9/3 1084/12/3 1082/11/3 1081/10/3
f 1087/9/5 1088/12/5 1086/11/5 1085/10/5
f 1091/9/2 1092/12/2 1090/11/2 1089/10/2
f 1095/9/4 1096/12/4 1094/11/4 1093/10/4
f 1099/9/3 1100/12/3 1098/11/3 1097/10/3
f 1103/9/5 1104/12/5 1102/11/5 1101/10/5
f 1107/9/2 1108/12/2 1106/11/2 1105/10/2
f 1111/9/4 1112/12/4 1110/11/4 1109/10/4
f 1115/9/3 1116/12/3 1114/11/3 1113/10/3
f 1119/9/5 1120/12/5 1118/11/5 1117/10/5
f 1123/9/2 1124/12/2 1122/11/2 1121/10/2
f 1127/9/4 1128/12/4 1126/11/4 1125/10/4
f 1131/9/3 1132/12/3 1130/11/3 1129/10/3
f 1135/9/5 1136/12/5 1134/11/5 1133/10/5
f 1139/9/2 1140/12/2 1138/11/2 1137/10/2
f 1143/9/4 1144/12/4 1142/11/4 1141/10/4
f 1147/9/3 1148/12/3 1146/11/3 1145/10/3
f 1150/1/1 1152/2/1 1151/3/1 1149/4/1
f 1154/1/1 1156/2/1 1155/3/1 1153/4/1
f 1158/1/1 1160/2/1 1159/3/1 1157/4/1
f 1162/1/1 1164/2/1 1163/3/1 1161/4/1
f 1166/5/2 1165/6/2 1168/29/2 1167/30/2
f 1170/5/3 1169/6/3 1172/29/3 1171/30/3
f 1173/31/7 1174/31/7 1177/31/7
f 1175/31/8 1177/31/8 1176/31/8
f 1178/31/9 1179/31/9 1182/31/9
f 1180/31/10 1182/31/10 1181/31/10
f 1183/31/9 1184/31/9 1187/31/9
f 1185/31/10 1187/31/10 1186/31/10
f 1188/31/11 1189/31/11 1192/31/11
f 1190/31/12 1192/31/12 1191/31/12
f 1194/1/6 1196/2/6 1195/3/6 1193/4/6
f 1198/1/6 1200/2/6 1199/3/6 1197/4/6
f 1202/1/6 1204/2/6 1203/3/6 1201/4/6
f 1194/1/13 1193/4/13 1199/3/13 1200/2/13
f 1200/2/14 1198/1/14 1201/4/14 1203/3/14
f 1206/5/2 1205/6/2 1208/29/2 1207/30/2
usemtl Material.001
f 442/13/2 441/14/2 444/15/2 443/16/2
f 450/13/4 451/16/4 452/15/4 449/14/4
f 456/17/5 448/18/5 447/19/5 455/20/5
f 455/17/4 447/18/4 446/19/4 454/20/4
f 454/20/3 446/19/3 445/18/3 453/17/3
f 453/17/2 445/18/2 448/19/2 456/20/2
f 449/21/6 452/22/6 444/23/6 441/24/6
f 452/21/5 451/22/5 443/23/5 444/24/5
f 451/22/1 450/21/1 442/24/1 443/23/1
f 450/22/3 449/21/3 441/24/3 442/23/3
f 464/17/5 460/18/5 459/19/5 463/20/5
f 463/17/4 459/18/4 458/19/4 462/20/4
f 462/20/3 458/19/3 457/18/3 461/17/3
f 461/17/2 457/18/2 460/19/2 464/20/2
f 466/13/2 465/14/2 468/15/2 467/16/2
f 474/13/4 475/16/4 476/15/4 473/14/4
f 480/17/5 472/18/5 471/19/5 479/20/5
f 479/17/4 471/18/4 470/19/4 478/20/4
f 478/20/3 470/19/3 469/18/3 477/17/3
f 477/17/2 469/18/2 472/19/2 480/20/2
f 473/21/6 476/22/6 468/23/6 465/24/6
f 476/21/5 475/22/5 467/23/5 468/24/5
f 475/22/1 474/21/1 466/24/1 467/23/1
f 474/22/3 473/21/3 465/24/3 466/23/3
f 488/17/5 484/18/5 483/19/5 487/20/5
f 487/17/4 483/18/4 482/19/4 486/20/4
f 486/20/3 482/19/3 481/18/3 485/17/3
f 485/17/2 481/18/2 484/19/2 488/20/2
f 490/13/5 489/14/5 492/15/5 491/16/5
f 498/13/3 499/16/3 500/15/3 497/14/3
f 504/17/4 496/18/4 495/19/4 503/20/4
f 503/17/3 495/18/3 494/19/3 502/20/3
f 502/20/2 494/19/2 493/18/2 501/17/2
f 501/17/5 493/18/5 496/19/5 504/20/5
f 497/21/6 500/22/6 492/23/6 489/24/6
f 500/21/4 499/22/4 491/23/4 492/24/4
f 499/22/1 498/21/1 490/24/1 491/23/1
f 498/22/2 497/21/2 489/24/2 490/23/2
f 512/17/4 508/18/4 507/19/4 511/20/4
f 511/17/3 507/18/3 506/19/3 510/20/3
f 510/20/2 506/19/2 505/18/2 509/17/2
f 509/17/5 505/18/5 508/19/5 512/20/5
f 514/13/2 513/14/2 516/15/2 515/16/2
f 522/13/4 523/16/4 524/15/4 521/14/4
f 528/17/5 520/18/5 519/19/5 527/20/5
f 527/17/4 519/18/4 518/19/4 526/20/4
f 526/20/3 518/19/3 517/18/3 525/17/3
f 525/17/2 517/18/2 520/19/2 528/20/2
f 521/21/6 524/22/6 516/23/6 513/24/6
f 524/21/5 523/22/5 515/23/5 516/24/5
f 523/22/1 522/21/1 514/24/1 515/23/1
f 522/22/3 521/21/3 513/24/3 514/23/3
f 536/17/5 532/18/5 531/19/5 535/20/5
f 535/17/4 531/18/4 530/19/4 534/20/4
f 534/20/3 530/19/3 529/18/3 533/17/3
f 533/17/2 529/18/2 532/19/2 536/20/2
