# Blender 5.2.1 LTS
# www.blender.org
mtllib subLiera_Transparent.mtl
o corridor_straight.038
v 12.499999 -1.666667 17.500000
v 12.499999 1.666666 17.500000
v 12.500000 1.666666 22.500000
v 12.499999 5.000000 17.500000
v -2.500000 1.666666 27.500000
v -2.500000 -1.666667 27.500000
v -2.500000 5.000000 27.500000
v 2.500000 1.666666 27.500000
v 2.500000 -1.666667 27.500000
v 2.500000 5.000000 27.500000
v -7.500000 -1.666667 27.500000
v -7.500000 1.666666 27.500000
v -12.500000 1.666666 27.500000
v -12.500000 -1.666667 27.500000
v -12.500000 5.000000 27.500000
v -7.500000 5.000000 27.500000
v 12.500000 -1.666667 27.500000
v 7.500000 1.666666 27.500000
v 7.500000 -1.666667 27.500000
v 7.500000 5.000000 27.500000
v 12.500000 -1.666667 22.500000
v 12.500000 1.666666 27.500000
v 12.500000 5.000000 27.500000
v 12.500000 5.000000 22.500000
v -2.500000 6.666667 27.500000
v 12.500000 6.666667 22.499998
v 12.499999 6.666667 27.499998
v 7.500000 6.666667 27.500000
v -7.500000 6.666666 27.500000
v -12.500000 6.666667 27.500000
v 12.499999 6.666666 17.500000
v 2.500000 6.666667 27.500000
vn -1.0000 -0.0000 -0.0000
vn -0.0000 -0.0000 -1.0000
vt 0.481933 0.108659
vt 0.318117 0.108659
vt 0.318117 0.217765
vt 0.481933 0.217765
vt 0.318117 0.164753
vt 0.481933 0.164753
vt 0.318117 0.164753
vt 0.318117 0.164753
s 0
usemtl Material
f 1/1/1 21/2/1 3/3/1 2/4/1
f 2/1/1 3/2/1 24/3/1 4/4/1
f 9/1/2 6/2/2 5/3/2 8/4/2
f 8/1/2 5/2/2 7/3/2 10/4/2
f 19/1/2 9/2/2 8/3/2 18/4/2
f 18/1/2 8/2/2 10/3/2 20/4/2
f 6/1/2 11/2/2 12/3/2 5/4/2
f 5/1/2 12/2/2 16/3/2 7/4/2
f 11/1/2 14/2/2 13/3/2 12/4/2
f 12/1/2 13/2/2 15/3/2 16/4/2
f 17/1/2 19/2/2 18/3/2 22/4/2
f 22/1/2 18/2/2 20/3/2 23/4/2
f 21/1/1 17/2/1 22/3/1 3/4/1
f 3/1/1 22/2/1 23/3/1 24/4/1
f 29/5/2 25/6/2 7/1/2 16/2/2
f 32/7/2 28/6/2 20/1/2 10/2/2
f 24/2/1 26/7/1 31/6/1 4/1/1
f 7/2/2 25/7/2 32/6/2 10/1/2
f 15/2/2 30/5/2 29/6/2 16/1/2
f 20/2/2 28/7/2 27/6/2 23/1/2
f 23/2/1 27/8/1 26/6/1 24/1/1
