# Blender 4.3.2
# www.blender.org
mtllib temp.mtl
o corridor_straight.017
v -2.500000 2.500000 -2.499999
v -2.500000 7.500000 -2.499999
v -2.499999 2.500000 2.544437
v -2.499999 7.500000 2.544437
v 2.500000 7.500000 2.544436
v -2.499999 7.500000 2.500000
v 2.499999 7.500000 -2.500001
v -2.500000 7.500000 -2.499999
v -2.500000 -2.500000 -2.499999
v -2.500000 2.500000 -2.499999
v -2.499999 -2.500000 2.500000
v -2.499999 2.500000 2.500000
v 2.499999 -2.500000 -2.500001
v 2.499999 2.499999 -2.500001
v 2.500000 -2.500000 2.499999
v 2.500000 2.499999 2.544436
v 2.500000 2.500000 2.499999
v 2.500000 7.499999 2.499999
v 2.500000 2.500000 -2.500000
v 2.500000 7.499999 -2.500000
v 2.500000 2.500000 -2.487772
v -2.499999 -2.500000 2.500000
v -2.500000 2.500000 -2.487771
v 2.500000 2.511279 -2.487772
v 2.500000 -2.500000 2.499999
v -2.499999 -2.500000 2.500000
vn 1.0000 -0.0000 -0.0000
vn -0.0000 -1.0000 -0.0000
vn -1.0000 -0.0000 -0.0000
vn -0.0000 -0.0000 -1.0000
vn -0.0000 0.7062 0.7080
vn -0.0000 0.7054 0.7088
vt 0.292969 0.707031
vt 0.000000 0.707031
vt 0.000000 1.000000
vt 0.292969 1.000000
vt 0.442248 0.999735
vt 0.293236 0.999735
vt 0.293236 0.850778
vt 0.442248 0.850778
vt 0.292969 0.511719
vt 0.000000 0.511719
vt 0.000000 0.804688
vt 0.292969 0.804688
vt 0.000000 0.000000
s 0
usemtl Material
f 3/1/1 1/2/1 2/3/1 4/4/1
f 6/5/2 8/6/2 7/7/2 5/8/2
f 11/9/1 9/10/1 10/11/1 12/12/1
f 15/9/3 16/12/3 14/11/3 13/10/3
f 19/1/3 17/2/3 18/3/3 20/4/3
f 3/1/4 4/4/4 5/3/4 16/2/4
f 21/13/5 23/13/5 22/13/5
f 24/13/6 26/13/6 25/13/6
l 10 23
l 21 14
